<svg xmlns="http://www.w3.org/2000/svg" width="262.0693" height="90.6893" viewBox="-378.117 837.289 196.552 68.017">
  <g stroke-linecap="round" stroke-linejoin="round">
    <path fill="#89775c" stroke="#89775c" stroke-width=".5" d="M-245.035 843.907q-.045-.014-.147-.048t-.206-.051q-.104-.017-.184-.021-.081-.004-.132-.009-.052-.004-.357.021-.306.024-1.019.172-.713.147-1.558.314-.846.166-1.593.364-.747.198-1.132.316-.384.117-1.111.304-.727.186-1.601.474-.873.288-1.646.56-.773.273-1.161.425-.389.152-.853.393-.464.242-1.544.904t-1.719 1.07q-.638.409-1.22.881-.582.472-1.143 1.031-.56.56-.84.896-.279.337-.532.718-.252.381-.919 1.745-.668 1.363-1.014 2.086-.346.723-.547 1.29-.2.566-.329 1.397-.129.831-.17 1.423-.04.592-.056.854-.015.261-.033.564-.017.302-.005.898.012.596.351 2.111.338 1.516.609 2.504.271.987.512 1.721.24.735.369 1.07.13.335.202.5.071.166.304.667.233.502.485 1.063.253.562.296.655.043.092.481.897t.891 1.656q.454.851.718 1.44.265.588.39.892.126.303.325.698.199.396.324.664t.285.708q.159.439.278.729.118.29.311.722t.319.755q.127.323.353.771.226.449.367.673.14.225.214.343.073.118.307.488.233.371.403.598.171.228.445.62.274.393.406.596.132.203.2.307.068.103.132.19.065.087.456.674.392.588.622.941.23.353.507.689.278.336.583.636.306.3.495.45.19.15.746.59.557.439.901.759.345.32.771.784.426.464.821.874.396.411 1.08.948.684.538 1.056.808t.781.469q.41.199.641.277.231.079.439.141.209.063.814.297.604.235.978.397.373.162.809.329.435.167.681.266.245.099.588.26.343.161.992.382.65.221 1.062.348.413.128.738.28.324.152.642.295.318.144 1.048.382.73.238 1.239.397.509.159 1.417.271.908.112 1.481.123.573.011 1.097.02.525.01.938.056.414.045.721.088.308.043.484.055.177.013.255.02.077.007.137.007.06.001.345.028.284.027.823.064.538.036.956.044l.624.012q.206.004.649.019.443.016.858-.012.415-.027 1.232-.154.817-.126 1.31-.233.494-.106 1.059-.297.565-.192 1.308-.386.743-.194 1.491-.378.748-.185 1.112-.27.364-.086.602-.131.238-.045.406-.077.168-.032.488-.135.321-.103.745-.264.423-.162 1.017-.344.594-.182 1.078-.351.485-.169 1.218-.412.733-.244 1.149-.398.415-.153.601-.234.185-.081.688-.302.503-.221 1.546-.874 1.042-.654 1.613-1.034.57-.38.812-.549.241-.17.7-.559.46-.39.691-.607.231-.217.329-.328.099-.112.175-.208.077-.096.212-.262.135-.167.345-.403.21-.236.648-.658.439-.421.701-.681.262-.259.435-.477.173-.217.52-.714.346-.497.723-1.003.378-.506.56-.786.182-.28.352-.736.17-.456.465-1.193.294-.738.467-1.153.173-.415.334-.877.161-.461.502-1.144.341-.683.551-1.039.211-.356.506-1.137.295-.782.425-1.223.129-.442.206-.818.078-.376.1-.575.022-.198.086-.58.063-.381.442-1.156.38-.775.605-1.173.225-.398.316-.613.092-.215.257-.871.165-.657.231-1.042.065-.385.091-.851.027-.465.038-.713.011-.249.02-.39.01-.14.062-.617.053-.477.051-.794-.002-.317-.06-.643-.059-.325-.109-.921-.05-.596-.071-.971-.02-.376-.096-.848t-.14-.988q-.065-.516-.173-.95-.107-.434-.296-1.031-.188-.598-.303-.925-.115-.326-.2-.517-.084-.19-.129-.284-.045-.094-.173-.384-.127-.289-.269-.903-.142-.614-.262-1.149-.121-.536-.361-1.36-.241-.825-.406-1.294-.165-.47-.378-1.024-.213-.555-.369-.891-.156-.337-.384-.67-.227-.333-.457-.662-.231-.329-.408-.659-.177-.33-.341-.666-.165-.336-.473-.778-.307-.441-.552-.752-.245-.31-.519-.735t-.505-.738q-.23-.312-.536-.633-.307-.322-.508-.521-.202-.199-.658-.63t-.884-.753q-.427-.322-.635-.456-.207-.133-1.013-.553-.807-.42-1.455-.694-.649-.275-.961-.382-.312-.108-.539-.177-.226-.069-.59-.162t-.601-.144q-.236-.052-.727-.158-.49-.107-.77-.174-.279-.068-.943-.192-.665-.123-1.411-.189-.746-.065-1.599-.159-.852-.094-1.501-.138-.649-.045-1.338-.047-.69-.002-1.299.047-.608.048-1.254.188M-351.562 843.845q-.218.038-.352.057-.135.019-.371.089-.236.07-.42.151-.185.082-.296.135-.112.053-.78.458-.667.405-1.604 1.115-.937.709-1.403 1.172-.466.462-.698.746-.231.285-.454.592-.222.308-.51.7-.287.393-.578.745-.29.352-.538.646-.247.295-.527.674-.279.378-.471.741-.192.362-.427 1.242-.235.881-.35 1.376-.115.495-.499 1.455-.384.961-.615 1.536-.231.576-.347.902-.116.327-.315.904-.198.577-.362 1.27-.165.693-.296 1.617-.131.924-.197 1.411-.066.488-.127 1.306-.061.819-.071 1.625-.009.807.077 1.605.086.797.154 1.223.069.426.256 1.786.188 1.361.393 2.146.205.786.323 1.272.117.486.353 1.299t.55 1.716q.314.902.499 1.385.184.482.542 1.068.358.587.639 1.027.281.441.653 1.14.371.699.651 1.172t.748 1.152q.468.678 1.032 1.671.564.994.844 1.496.279.503.426.719.147.215.282.397.136.182.855.891.719.708 1.171 1.109.453.402.716.64.262.237.665.592.403.356.956.884.554.529 1.232 1.079.679.551 1.297.972.619.422.955.649.336.227.63.447.293.219.505.36.211.14.764.435.552.294 1.124.573.572.279 1.334.558.761.28 1.285.46.525.181.98.293.455.112.954.199.499.087.988.21t1.21.325q.721.202 1.199.333.477.132.896.195.419.063.833.095.415.032.625.05.21.018.696.088.486.069.851.106.365.037.958.017.593-.019 1.275-.068.682-.049 1.072-.096.389-.047.998-.202.609-.154 1.219-.286.61-.132.985-.217.375-.086.512-.134.138-.048.761-.245.624-.196 1.06-.297.436-.101.995-.245.56-.145.894-.263.333-.119.869-.272.537-.154 1.33-.243.794-.088 1.181-.121.387-.032.678-.091.292-.058.552-.129.261-.07.422-.121.161-.05.725-.207.564-.157 1.027-.291.463-.134 1.059-.411.595-.277 1.3-.573.705-.296 1.093-.452.389-.156.915-.458.527-.302 1.241-.64.714-.337 1.051-.494.337-.157.496-.247.159-.091.377-.239t.505-.348q.286-.199.575-.386.29-.188.742-.427.453-.239.708-.378.255-.14.38-.235.126-.094.285-.242.16-.147.424-.457.265-.31.534-.643t.736-.912q.467-.579.826-1.092.36-.513.646-.913.287-.401.524-.756.236-.356.471-.677.234-.321.358-.483.124-.163.204-.294.08-.132.194-.307.113-.175.482-.637.369-.463.654-.763.286-.3.644-.74.358-.439.537-.711.18-.272.426-.726.246-.454.584-1.052.339-.597.549-1.014.21-.417.478-1.098.269-.682.501-1.203.232-.521.417-1.183.186-.663.267-1.029.081-.366.133-.547.051-.181.149-.632t.16-.922q.063-.471.193-1.073.13-.603.232-1.083.102-.48.132-1.261.031-.781.065-1.522t.051-1.143q.016-.403-.011-.754t-.107-1.177q-.08-.827-.133-1.28-.054-.454-.165-1.275-.111-.822-.173-1.256-.062-.435-.186-.86-.125-.424-.272-1.179-.147-.754-.21-1.135t-.283-1.085q-.219-.703-.345-1.11-.125-.407-.283-.887-.159-.479-.465-1.08-.305-.6-.53-.991-.224-.39-.432-.782-.209-.392-.442-.762-.234-.37-.487-.701-.252-.332-.644-.839-.391-.507-.609-.763-.218-.256-.412-.432-.195-.175-.482-.396-.288-.22-.842-.598-.553-.378-1.317-.756-.765-.378-1.15-.546-.385-.167-.923-.456-.539-.289-.869-.453-.331-.163-.929-.394-.598-.231-1.32-.578-.723-.347-1.102-.54-.379-.192-.632-.291-.254-.099-1.234-.412-.981-.313-1.497-.478-.516-.164-1.336-.305-.821-.14-1.277-.21-.456-.07-.713-.121-.258-.052-1.104-.123-.846-.072-1.809-.075-.962-.003-1.746.04-.784.044-1.161.071-.377.027-.774.028-.397.001-1.225-.004-.828-.005-1.644.064-.815.069-1.282.14-.466.071-1.042.222"/>
    <path fill="#71311e" stroke="#71311e" stroke-width=".5" d="M-351.622 840.237q-.118.019-.246.059-.128.04-.395.161-.266.12-.327.152t-.496.373q-.434.341-.675.69-.24.348-.363.667-.123.318-.209.723-.086.404-.128.718-.042.314-.038.648.003.335.171 1.003.085.334.164.556.08.223.191.389.11.167.193.271.082.105.142.155.061.049.126.11.065.06.164.107.098.046.175.054.077.008.275-.019t.462-.071q.264-.044.391-.077.128-.034.235-.078.107-.044.428-.226.322-.182.783-.414.46-.232.772-.372.312-.139.525-.217.212-.078.437-.15.226-.071.396-.129.17-.057.637-.223.466-.166.73-.245.263-.079.688-.185.425-.107.681-.175.257-.068.643-.175.387-.108.722-.192.335-.083.628-.153.293-.07.653-.15.36-.081.643-.136.283-.054.595-.103.313-.049.68-.096.367-.048.821-.098.454-.05.797-.083.344-.033.698-.059.354-.025.901-.058.546-.033.893-.023.347.01.733.005t.532-.014q.146-.009.366-.02.22-.011.486-.016.266-.004.652-.006.385-.002.716-.011.332-.01.747-.034.416-.024.749-.028.334-.004.559.025.225.03.659.022.433-.009.75-.011t.662 0q.689.003 1.336-.023.647-.026.978-.043.331-.017.721.002.391.018.546.032.156.013.811.047.327.016.677.049.35.033.723.082.373.05.674.09.3.041.641.088.341.048.89.075.548.027 1.076.055.528.027 1.12.064.592.037.867.051.276.014.761.058.485.044.936.126.451.082.741.144.29.063.751.137.461.075.732.111.271.035.413.048.141.013.512.042.37.03.714.052.345.023.779.031.434.008.831.006.397-.002.758-.01.362-.009.69-.018.329-.009.626-.015.297-.005.606-.001.308.003.629.018t.655.042q.333.027.679.067.347.039.689.077.342.038.68.075.338.036.67.069.333.033.66.063.328.03.614.055.285.025.652.055.366.03.689.047.322.016.717.039.394.022.706.044.312.022.673.05.723.057 1.266.123t1.096.165q.552.099.808.175.255.075.722.224.467.149 1.212.431.745.282 1.328.531.582.249.981.422.399.172.814.34.415.168.803.302.388.134.934.275.546.14 1.153.215.607.075 1.332.089.725.013 1.58-.044.856-.057 1.534-.116.677-.058 1.148-.085.471-.026 1.086-.065.616-.039 1.376-.065.76-.026 1.352-.022.592.005 1.226.029t1.016.05q.382.027.82.078.439.052 1.056.155.618.103 1.422.241.804.138 1.781.304.976.165 1.794.255.817.09 1.496.112.67-.002 1.208-.024.538-.023.952-.049.414-.027 1.092-.093.678-.067 1.612-.21.922-.193 1.643-.374.72-.181 1.244-.325.523-.145 1.045-.293l1.04-.295q.517-.147.899-.25.382-.104.633-.171.251-.067.556-.144.305-.076.659-.162.354-.086.665-.159.31-.072.581-.133.272-.061.633-.147t.653-.159q.292-.074.643-.165.35-.091.664-.176.314-.086.736-.202.422-.117.705-.203.283-.086.535-.165.251-.08.566-.182.314-.102.665-.2.351-.098.739-.191.389-.094.723-.169.334-.075.751-.159.417-.085.851-.159.435-.074.934-.146.499-.072.859-.113.359-.041.651-.068.291-.028.631-.055.341-.027.672-.046t.648-.032q.317-.012.646-.025.329-.012.669-.029l.634-.03q.293-.015.666-.042.372-.026.779-.061.406-.034.888-.086.482-.051 1.008-.103.526-.051 1.083-.09.557-.038 1.076-.062.519-.023 1.007-.036.488-.013.831-.023l.617-.018q.274-.009.595-.019.321-.011.659-.024.337-.012.691-.027.354-.014.662-.02.308-.006.699-.001.392.004.795.005.403.002.83.007.428.006.887.021.459.016 1.001.042.542.026.842.037.299.01.6.021.301.01.683.038.383.027.876.055.494.027 1.085.078.59.05 1.069.098t.857.077q.377.03.76.073.382.043.773.094.391.05.767.104.377.053.736.111.371.049.761.122.39.072.814.156.425.085.787.178.362.092.665.194.303.102.652.223.349.12.749.257.399.137.732.239.332.102.597.171.267.067.618.163t.797.215q.446.119.804.204.359.084.749.168.39.083.572.121.181.038.735.138.555.101 1.115.202.559.102 1.149.149t.699.041q.11-.006.531-.148.022-.009.035-.217.012-.207-.036-.389-.048-.182-.197-.389-.149-.207-.387-.513-.239-.306-.465-.581-.227-.275-.34-.394-.114-.12-.311-.356-.197-.235-.365-.463-.168-.228-.318-.424-.151-.196-.161-.204-.01-.008-.18-.262-.17-.254-.311-.432-.141-.179-.28-.314-.139-.135-.237-.226-.097-.091-.318-.289-.222-.198-.452-.318-.231-.12-.327-.159-.095-.039-.253-.087-.157-.048-.439-.127-.283-.078-.464-.111-.181-.033-.297-.043-.115-.01-.319-.014-.203-.005-.223-.008-.019-.002-.39-.016-.371-.013-.659-.006-.287.007-.537.002-.25-.004-.612.006-.361.01-.686.004-.324-.006-.488-.003-.163.004-.298-.003-.134-.008-.292-.008-.158-.001-.219-.001t-.344-.024q-.542-.01-1.084-.019-.541-.008-1.082-.014t-1.081-.01q-.541-.004-1.081-.006l-1.08-.004-1.079-.002q-.54 0-1.079-.001h-1.079q-.54-.001-1.08-.001h-1.079q-.539-.001-1.079-.001h-1.079q-.54 0-1.079-.001h-2.158q-.54-.001-1.079-.001h-1.08q-.539 0-1.079-.001h-1.079q-.539 0-1.079-.001h-2.158q-.54-.001-1.079-.001h-1.079q-.54 0-1.079-.001h-2.159q-.539-.001-1.079-.001h-1.079q-.539 0-1.079-.001h-1.079q-.54 0-1.079-.001h-2.158q-.54 0-1.08-.001h-1.079q-.539 0-1.079-.001h-2.158q-.54-.001-1.079-.001h-1.079q-.54 0-1.079-.001h-2.158q-.54-.001-1.08-.001h-1.079q-.539 0-1.079-.001h-1.079q-.539 0-1.079-.001h-2.158q-.54-.001-1.079-.001h-1.079q-.54 0-1.08-.001h-2.158q-.539-.001-1.079-.001h-1.079q-.54 0-1.079-.001h-2.158q-.54-.001-1.079-.001h-1.08q-.539-.001-1.079-.001h-1.079q-.539 0-1.079-.001h-2.158q-.54-.001-1.079-.001h-1.079q-.54 0-1.079-.001h-2.159q-.539-.001-1.079-.001h-1.079q-.539 0-1.079-.001h-2.158q-.54-.001-1.079-.001h-1.079q-.54-.001-1.08-.001h-1.079q-.539 0-1.079-.001h-2.158q-.54-.001-1.079-.001h-1.079q-.54 0-1.079-.001h-2.159q-.539-.001-1.079-.001h-1.079q-.539 0-1.079-.001h-1.079q-.54 0-1.079-.001h-2.158q-.54-.001-1.079-.001h-1.08q-.539 0-1.079-.001h-2.158q-.539-.001-1.079-.001h-1.079q-.54 0-1.079-.001h-1.079q-.54 0-1.079-.001h-2.159q-.539 0-1.079-.001h-1.079q-.539 0-1.079-.001h-2.158q-.54-.001-1.079-.001h-1.079q-.54 0-1.08-.001h-2.158q-.539-.001-1.079-.001h-1.079q-.54 0-1.079-.001h-1.079q-.54 0-1.08-.001-.54 0-1.08-.001-.54 0-1.08-.001-.541 0-1.082-.001t-1.083-.003Z"/>
    <path fill="#71311e" stroke="#71311e" stroke-width=".5" d="m-352.623 841.039-.073-.008q-.175-.053-.355-.063-.18-.011-.556.006-.376.018-.542.043-.167.024-.456.13-.289.105-.755.301-.467.195-.819.352-.352.157-.709.334-.356.177-.656.353-.299.176-.412.255-.112.079-.435.294-.322.216-.674.484-.353.267-.538.402-.186.134-.374.241-.188.107-.421.253-.233.145-.351.216-.117.07-.347.187-.231.117-.557.298-.326.181-.599.302-.274.12-.549.221-.275.102-.387.145-.112.043-.576.243-.464.2-.94.356-.476.157-1.015.329-.539.172-.816.255-.277.082-.394.109-.117.027-.601.134-.483.106-.889.166-.405.059-.805.071-.399.013-.539.023t-.584.011q-.444.002-.682-.004-.238-.005-.563.018-.326.024-.638.034-.313.009-.534.031-.221.022-.382.056-.161.035-.251.053-.089.019-.15.026-.06.006-.147.018-.088.012-.205.033-.116.02-.229.043-.113.023-.119.027-.007.003-.159.038-.152.034-.329.073-.177.039-.279.087-.101.047-.141.075-.04.029-.068.065-.027.037-.059.116-.032.08-.055.209-.023.128-.025.194-.001.065 0 .5.001.436.014.986.014.549.004.943-.009.393.014.827.023.434.172.995.15.562.236.719.086.158.197.281.11.123.171.177.062.055.136.128.075.073.13.126.054.053.142.131.088.077.167.137.078.06.208.143.129.082.179.116.051.033.382.261.331.227.549.379.218.151.44.334.222.183.33.269.109.085.311.218.201.133.424.302.224.169.4.303.176.135.685.423.508.288.777.43.268.142.533.243.265.102.628.234.364.132.792.309.428.176.888.336.461.159.664.211.204.052.409.107.204.056.371.095.166.038.422.061t.453.046q.196.024.409.081.212.057.567.08.355.024.554.021.2-.002.344 0 .145.002.305-.025.16-.027.329-.06.17-.033.292-.068.123-.034.172-.057.049-.023.118-.077.07-.053.101-.078.03-.025.127-.178.097-.152.134-.234.036-.082.061-.154.025-.071.089-.245l.172-.475q.109-.3.206-.571.097-.271.222-.631.126-.361.291-.738.166-.377.299-.675.133-.299.193-.453.06-.154.118-.318.058-.163.15-.396.093-.234.202-.452.108-.219.265-.502.157-.282.292-.506.135-.223.305-.47.17-.247.286-.401.116-.153.231-.299.115-.145.253-.309.139-.164.35-.431.211-.267.353-.443.141-.177.241-.29.1-.113.367-.378t.404-.379q.137-.115.241-.192.105-.078.382-.303.276-.225.533-.417.258-.191.498-.356.239-.164.398-.27.158-.105.233-.145.075-.039.138-.077.063-.037.161-.104.097-.067.581-.364l.066-.067q-.037-.382-.073-.762t-.071-.758q-.036-.378-.069-.755-.034-.376-.066-.75-.033-.375-.064-.748-.031-.372-.061-.744l-.06-.742-.058-.74Z"/>
    <path fill="#71311e" stroke="#71311e" stroke-width=".5" d="M-369.897 856.919q.006-.001.07-.086.025-.008.059.004.035.012.406.002.37-.01.652.029.281.038.525.099.244.06.585.136.341.075.869.199.528.124.929.214t.804.158q.402.069.831.172.43.103.861.199.43.095.621.134.191.039.304.064.113.025.198.055.085.029.149.067.064.037.28.123.216.086.332.13.115.045.187.092.071.047.109.071.039.024.102.074.062.049.261.248l.023.044q.05.156.057.192.007.036.001.475-.005.439-.095.879-.091.44-.149.688-.058.248-.086.356-.028.108-.051.188-.023.08-.059.225-.036.146-.076.31-.04.163-.079.379-.039.217-.09.54-.052.324-.086.581-.035.258-.063.544-.027.287-.035.562-.008.274-.035.73-.028.455-.048.764t-.04.567q-.02.258-.024.346-.004.087.004.326.008.239.023.664.015.424.028.76.013.335.031.697.018.363.057.704.039.341.066.541.027.201.044.338.017.136.041.276t.059.379q.034.239.063.46.028.22.055.37.027.149.048.235t.064.254q.042.169.069.256.027.087.091.303t.186.65q.123.433.19.668.067.234.09.312.023.078.17.614.148.536.23.834.083.298.122.425.04.127.075.232.036.104.083.257.047.154.133.425.086.271.173.518l.167.472q.079.226.282.823.204.596.446 1.213.242.616.39 1.003.149.387.367.866t.408.901q.19.422.335.755.144.333.239.581.094.248.182.611.087.362.096.593.008.231-.005.322-.013.09-.082.297-.069.208-.102.279-.033.072-.097.179-.063.106-.262.331-.198.224-.367.363-.169.138-.428.26-.258.123-.455.166-.197.043-.312.044-.116.001-.191-.012-.074-.012-.171-.045-.097-.034-.111-.041-.014-.007-.097-.031t-.204-.085q-.121-.061-.189-.118-.067-.057-.298-.245-.23-.189-.373-.312-.143-.124-.271-.266-.128-.141-.273-.317-.145-.177-.366-.427-.22-.25-.463-.637-.243-.388-.477-.783-.234-.394-.362-.62-.129-.226-.194-.364-.065-.138-.23-.534-.164-.397-.379-.988-.214-.591-.309-.904-.095-.313-.212-.817-.116-.503-.239-.893-.123-.391-.244-.67-.122-.28-.229-.571-.107-.291-.214-.735t-.244-.919q-.137-.475-.358-.999-.12-.584-.24-1.167-.12-.584-.239-1.167-.12-.584-.24-1.167-.12-.584-.239-1.168-.12-.583-.24-1.167-.12-.583-.24-1.167-.119-.583-.239-1.167l-.24-1.168q-.12-.584-.242-1.17-.121-.587-.247-1.18-.126-.594-.263-1.206-.136-.611-.294-1.258-.158-.646-.344-1.34-.186-.694-.395-1.426-.209-.732-.414-1.456-.205-.725-.382-1.404ZM-313.268 844.09q.055.003.467.102.413.099.973.275.56.177 1.025.319.464.142.681.208.216.065.48.152.263.088.647.217.384.13.675.227.292.097.49.163.199.066.505.193.305.127.721.311.415.184.758.338.342.154.746.344.404.189.739.4.335.209.619.419t.63.49q.345.28.603.493.259.213.514.43.255.218.486.433.231.214.453.438.221.223.403.424.183.201.358.411.175.21.404.496.229.287.395.508.166.22.322.452.155.232.384.592t.358.57q.13.209.228.366.098.156.261.441.164.285.418.759.254.474.455.891.201.418.426.955.224.537.352.909.128.371.187.551.058.18.212.741.155.562.226.963.071.401.115.763.045.362.077.654.033.292.068.636.035.343.067.639.032.295.074.667.041.372.111.845.069.474.116.754.047.281.071.491.023.21.064.451.041.24.103.448.062.208.182.442.121.234.31.431.004.002.072-.013.069-.016.114-.045.044-.029.091-.073t.079-.08q.032-.036.139-.158.108-.122.423-.367.315-.244.532-.39.216-.145.566-.441.35-.295.621-.52.271-.224.503-.384.232-.159.516-.339.285-.181.585-.398.3-.218.531-.387.231-.169.581-.366.35-.198.499-.277.15-.08.573-.376.423-.295.623-.459.2-.164.306-.274.106-.11.143-.163.037-.052.121-.208.083-.156.139-.278.056-.122.078-.216.023-.095.019-.242-.005-.147-.061-.36t-.093-.307q-.038-.094-.137-.251-.099-.156-.16-.239-.06-.084-.144-.212-.084-.128-.41-.531-.326-.403-.518-.613-.193-.209-.366-.439-.174-.23-.372-.475-.198-.246-.32-.383t-.353-.438q-.23-.301-.447-.64-.216-.338-.349-.569-.132-.23-.189-.351-.058-.121-.186-.501t-.249-.862q-.122-.482-.145-.759-.024-.277 0-.526t.047-.404q.023-.154.044-.31.022-.156.096-.444.074-.288.145-.478.072-.19.116-.276.044-.086.068-.139.025-.054.068-.143.042-.089.096-.177t.131-.215q.078-.128.099-.159.021-.03.056-.073.035-.042.112-.136t.119-.145q.041-.051.064-.081.023-.03.121-.153.099-.123.277-.319.178-.196.354-.453.177-.256.265-.443.089-.186.127-.308.038-.122.068-.254.029-.132.035-.179.005-.047.009-.058.003-.012 0-.244-.003-.233-.018-.44-.014-.207-.017-.303-.002-.096-.005-.195-.002-.098-.004-.108-.001-.01-.035-.224t-.052-.306q-.017-.092-.033-.156t-.022-.092q-.005-.029-.067-.262-.462.007-.926.015t-.922.014q-.457.006-.902.009-.444.003-.873.002t-.842-.005q-.413-.005-.813-.012-.399-.008-.788-.018-.388-.01-.769-.022-.381-.012-.756-.026-.375-.013-.747-.027-.371-.014-.741-.029-.37-.014-.738-.029l-.737-.03-.735-.03-.735-.03-.735-.03-.735-.03-.735-.03-1.469-.06q-.735-.03-1.471-.059-.735-.029-1.471-.056-.737-.027-1.475-.051-.738-.023-1.48-.04-.741-.018-1.487-.028-.746-.009-1.496-.013Z"/>
    <path fill="#71311e" stroke="#71311e" stroke-width=".5" d="M-294.932 865.875q.096-.068.132-.085.036-.017.362-.164.326-.146.523-.236.197-.089.808-.363.611-.273.946-.419.335-.146.622-.297t.874-.455q.586-.304.892-.464.306-.16.484-.257.179-.097.314-.161.135-.063.563-.22.427-.158.653-.24.225-.082.424-.12.198-.038.275-.036.076.002.292.009.005 0 .021.112.017.112-.015.261-.032.149-.085.304-.052.154-.227.665-.174.51-.374 1.037-.199.527-.345.961-.145.433-.249.716-.103.283-.301.754-.198.47-.318.788-.119.317-.241.653-.122.337-.351.867-.228.53-.359.837-.131.306-.226.496t-.278.562q-.183.372-.331.698-.148.327-.299.642-.151.314-.277.597-.126.282-.256.529-.131.248-.22.427-.089.178-.173.381-.085.202-.27.517-.184.314-.354.523-.171.21-.549.492-.378.281-.605.402-.226.12-.423.211-.196.092-.314.135-.117.043-.209.067-.091.025-.353.087-.261.063-.367.082-.107.018-.391.038-.283.02-.377.019-.093 0-.26-.014-.166-.013-.311-.035-.145-.021-.212-.038-.067-.017-.158-.039-.091-.023-.117-.035-.026-.013-.062-.04-.036-.027-.058-.051l-.066-.059q-.047-.068-.087-.114-.039-.047-.052-.078-.013-.03-.028-.1-.015-.071-.028-.082-.013-.011-.015-.205"/>
    <path fill="#71311e" stroke="#71311e" stroke-width=".5" d="M-297.22 876.525q.137.002.545-.068.408-.069.797-.18.39-.112.824-.188.435-.075.87-.085.436-.009.657-.002.222.007.472.013.25.005.55.131.046.064.1.287.055.223.022.506-.034.283-.156.697-.122.415-.24.733t-.27.654q-.152.335-.333.645-.181.31-.387.63l-.489.758q-.281.437-.484.766-.203.329-.401.658-.198.328-.524.82-.325.492-.474.71-.149.217-.328.487-.18.271-.384.557-.204.286-.363.51-.159.223-.261.369-.103.145-.189.257-.085.112-.107.137-.021.025-.041.052-.021.028-.191.205-.171.177-.373.355-.202.178-.255.225-.053.046-.231.163-.178.116-.328.188-.149.072-.231.109-.082.037-.204.083-.122.046-.147.055-.024.009-.195.054t-.478.064q-.307.019-.471.007-.164-.012-.257-.03-.094-.018-.33-.083-.237-.065-.352-.103-.116-.038-.166-.064-.05-.026-.21-.124-.159-.098-.227-.147-.067-.05-.122-.095-.055-.046-.099-.078-.045-.032-.064-.044-.02-.013-.093-.07-.073-.057-.142-.127l-.105-.017q.189-.312.38-.621.191-.31.385-.615.193-.305.389-.607.195-.303.39-.605.196-.303.389-.609t.381-.619q.188-.314.372-.635.183-.321.358-.655.175-.335.346-.675.171-.341.339-.686.169-.345.337-.69.169-.346.34-.689.171-.344.346-.683.175-.339.357-.673t.371-.663q.189-.329.385-.655Z"/>
    <path fill="#71311e" stroke="#71311e" stroke-width=".5" d="m-302.534 886.328-.053.027q-.014.022-.15.168-.136.145-.261.267-.125.121-.341.372-.216.25-.567.595-.352.346-.55.532-.198.186-.284.274-.086.089-.245.252t-.316.314q-.156.151-.405.366-.248.214-.891.79-.321.286-.575.51-.254.224-.535.469-.282.245-.628.518-.347.274-.509.4-.162.126-.502.369-.34.242-.665.458-.325.216-.589.415-.263.2-.456.34-.193.139-.533.375-.34.235-.786.515t-.669.399q-.222.119-.444.24-.222.12-.558.26-.336.139-.562.228-.225.088-.471.186-.246.097-.576.23-.329.133-.515.218-.186.084-.349.165-.163.081-.533.247-.369.167-.821.309-.452.141-.696.22-.244.078-.507.152-.262.074-.626.17-.363.095-.657.167-.294.073-.628.147-.334.075-.899.13-.565.054-1.08.123-.516.069-.731.107-.214.038-.448.074-.234.037-.56.086-.325.048-.608.088-.283.04-.644.086-.36.046-.666.084-.306.038-.565.069-.258.032-.528.041-.27.009-.636.008-.367-.002-.649-.004-.281-.001-.576-.004-.296-.004-.7-.012-.405-.008-.738-.019-.333-.012-.488-.008-.155.005-.412.007t-.669.003q-.411 0-.762-.009-.35-.009-.785-.041-.434-.031-.739-.077-.305-.045-.712-.106t-.735-.106q-.327-.045-.659-.111-.333-.065-.61-.125-.278-.059-.612-.133-.333-.074-.628-.139-.294-.065-.677-.148-.383-.083-.785-.169-.402-.085-.705-.171-.302-.086-.639-.2-.337-.115-.6-.212-.262-.097-.45-.177-.188-.081-.456-.187-.268-.107-.616-.241-.348-.133-.629-.246-.282-.113-.603-.252-.322-.14-.87-.474-.549-.334-.964-.56-.416-.227-.698-.389t-.569-.335q-.573-.346-.916-.587-.343-.241-.907-.63-.563-.389-1.067-.815-.503-.426-1.039-.979-.536-.552-.794-.826-.257-.273-.529-.668-.271-.394-.512-.744-.242-.349-.39-.539-.147-.19-.291-.38-.143-.19-.487-.58-.344-.39-.643-.727l-.516-.585q-.218-.248-.333-.378-.115-.129-.295-.363-.18-.234-.374-.457-.193-.223-.357-.459-.165-.236-.229-.369-.065-.132-.098-.241-.034-.108-.054-.226-.019-.118-.023-.154-.004-.036-.012-.186-.007-.151-.01-.206-.002-.055-.014-.129-.011-.075-.01-.097-.018-.009.009.244.026.253.05.529.024.275.027.493.004.219.001.563-.003.345-.046.807-.043.463-.222 1.105-.18.642-.361 1.088-.182.446-.288.739-.105.293-.145.45-.039.157-.066.293-.027.136-.029.219-.003.082.002.148.004.066.009.138.005.073.026.225.02.152.144.46.123.309.307.672.184.363.302.592.117.23.272.476.155.246.491.566.336.319.688.549.352.229.76.547.407.317.835.717.427.401.89.78.462.38.758.577.295.197.509.326.214.129.949.545.736.417 1.19.678.454.262.7.409.245.148.641.395.396.247.889.549.492.301.76.442.268.141 1.3.5 1.031.359 1.596.55.565.191 1.13.38t.917.301q.352.112.985.252.632.14 1.238.211.605.071.963.105.357.035.909.104.553.069 1.066.15.513.081.852.128.339.047 1.8.165 1.461.119 2.209.193.748.075 1.162.116.414.042.655.059.241.017 1.601.042 1.361.026 2.099.057.738.031 1.239.004.501-.027 1.361-.216.859-.189 2.262-.436 1.403-.248 2.52-.393 1.118-.145 1.66-.194.543-.05.772-.07.229-.02.684-.068.454-.048.847-.13.393-.082.925-.265t1.201-.52q.668-.336 1.085-.599.416-.263.743-.459.326-.196.487-.281.161-.085.268-.137.107-.051.359-.176.251-.124.607-.316.357-.192.601-.311.244-.12.762-.38.518-.259 1.201-.684.684-.424 1.036-.677.352-.252.861-.664.509-.411.772-.608t.42-.317q.157-.12.619-.467.462-.347.719-.551.258-.204.405-.344.147-.139.351-.407.204-.267.374-.483.17-.215.309-.371.138-.157.319-.4.181-.243.345-.445.164-.203.258-.317.095-.114.289-.362.194-.247.302-.384.108-.137.372-.417l.371-.392q.105-.113.175-.195.069-.083.132-.157l.153-.18q.09-.105.29-.408.199-.303.295-.454.096-.15.159-.235.062-.084.063-.089.001-.005.14-.23-.526-.126-1.048-.258-.521-.132-1.042-.267-.52-.136-1.045-.266-.525-.129-1.059-.248ZM-206.901 841.436q.023-.027.029-.032.053-.03.211-.052.159-.022.291-.03.133-.008.209-.012.077-.005.638.066.561.07 1.078.199.518.129.828.233.31.105.635.263.325.157.621.319.297.161.672.377.375.216.666.388.291.171.605.363.315.193.537.322.222.129.798.49.575.361.879.559.303.197.831.461.528.263.858.436.33.172.742.323.413.151.723.222.31.07.416.092.105.021.62.15.514.128.95.235.435.107.779.167.344.06.888.165.543.105.874.166.331.061.844.136.514.075.792.111.278.035.537.027.259-.009.658-.006.399.003.591.015.192.012.33.009.139-.002.324.013.184.014.375.034.19.019.469.088.279.07.35.109.071.04.135.084.065.044.126.103.062.059.086.089.024.031.061.093.036.062.077.149.04.087.06.157.02.071.027.11.006.04.007.087.002.047-.01.176-.011.129-.007.335.003.206.006.32.003.114.001.163-.002.05-.022.31-.019.26-.019.581-.001.322.005.502t-.038.556q-.043.376-.102.744-.059.367-.087.552-.029.184-.09.361-.06.178-.124.391-.063.213-.137.368-.073.155-.125.23-.052.075-.084.116-.031.041-.1.128-.069.086-.119.14-.049.054-.147.146-.098.091-.236.206-.138.116-.327.244-.19.129-.354.221-.164.091-.579.333-.415.241-.908.5-.493.26-.867.447t-.589.3q-.214.112-.563.331-.35.219-.633.404-.284.185-.474.306-.191.12-.452.306-.26.186-.396.285l-.387.281q-.253.184-.523.403-.27.22-.48.402-.21.181-.403.354-.194.173-.439.403-.246.23-.424.408-.179.179-.348.364-.169.184-.333.358-.163.174-.325.354-.162.181-.433.508t-.411.499q-.141.172-.229.285-.089.113-.23.29-.141.177-.238.291-.098.114-.126.147-.028.032-.069.071-.041.039-.138.133-.096.095-.15.144-.054.049-.122.095-.068.045-.233.119l-.061-.007q-.018-.055-.024-.092-.007-.036-.011-.065-.003-.029-.001-.129.003-.101-.02-.265-.022-.164-.03-.296-.007-.131-.015-.33-.007-.199-.024-.539-.017-.339-.04-.636-.023-.298-.06-.655-.037-.357-.106-.739-.07-.381-.214-.859-.145-.479-.266-.864-.122-.385-.219-.749-.097-.363-.194-.68-.098-.318-.211-.631-.114-.313-.273-.716-.16-.402-.285-.698-.125-.296-.268-.599-.142-.303-.312-.573-.17-.27-.379-.612-.209-.341-.389-.684-.179-.343-.282-.547-.104-.205-.15-.325-.046-.12-.17-.353-.123-.233-.177-.315-.053-.083-.292-.361-.238-.279-.425-.484-.187-.205-.398-.433-.21-.228-.391-.413-.181-.185-.243-.244-.063-.058-.114-.101-.052-.044-.206-.181-.189-.492-.371-.984-.181-.491-.354-.983-.174-.493-.332-.999-.158-.505-.306-1.014t-.284-1.021q-.135-.511-.259-1.019-.124-.509-.235-1.006-.112-.498-.218-.988Z"/>
    <path fill="#71311e" stroke="#71311e" stroke-width=".5" d="M-210.626 845.322q.036.005.044.013.009.009.079.041.071.032.199.085.129.053.138.057.008.005.229.093.22.088.606.324.385.236.566.368.181.133.443.294.261.162.531.361.269.199.443.351.174.152.304.26.131.108.451.32.32.213.567.368.247.155.529.321.281.166.496.29l.437.25q.222.127.368.22.145.094.251.157.105.063.398.185l.028.016.053.014q.065.006.097.001.032-.006.077-.036.045-.031.079-.068.034-.037.073-.206.039-.17.039-.334 0-.163-.021-.471-.021-.308-.06-.501-.039-.193-.116-.387-.077-.193-.173-.367-.095-.174-.192-.358-.097-.185-.309-.507t-.355-.496q-.143-.175-.32-.352-.365-.028-.733-.052-.368-.025-.739-.047-.37-.022-.743-.041-.373-.02-.748-.038-.376-.018-.753-.034-.376-.017-.754-.033t-.755-.031l-.754-.03ZM-198.34 862.841q-.02.073-.014.087.006.013.017.063.012.05.012.077.001.026.024.236.023.211.069.615.047.404.086.762.039.358.072.67.032.312.054.637.023.325.035.664.013.34.018.637.006.297.004.677-.003.381-.025.664-.023.284-.079.817-.056.533-.105.895-.05.362-.092.595-.043.232-.114.596-.07.365-.109.664l-.06.459q-.021.161-.067.484-.047.324-.078.572-.032.249-.059.437-.028.188-.094.521t-.143.728q-.077.396-.15.731-.073.335-.105.502-.033.166-.08.617-.047.452-.033.572.014.12.027.136.318.091.475.076.157-.014.534-.119.377-.106.619-.196.242-.089.529-.237.288-.148.532-.265.244-.117.453-.217.208-.101.341-.189.133-.089.349-.287.215-.198.436-.439t.394-.497q.172-.255.23-.379.057-.125.114-.264.056-.139.214-.568.158-.429.336-.936.179-.508.27-.809.092-.301.152-.571.06-.27.125-.579.064-.308.143-.671.079-.363.168-.884l.138-.798q.049-.277.113-.555t.293-1.135q.228-.856.361-1.303.132-.447.234-.8.102-.353.167-.589.064-.236.192-.679.128-.442.213-.764.086-.322.129-.513.042-.191.275-.869.232-.677.34-1.001.109-.323.158-.61.05-.288.081-.503.03-.216.084-.502.053-.287.111-.558.059-.271.129-.612.069-.34.117-.58.049-.24.072-.487.023-.247.044-.456.022-.21.068-.612l-.023-.189q-.272.22-.545.44l-.545.439q-.272.22-.545.439-.272.22-.545.44l-.545.439-.545.439q-.273.22-.545.44-.273.219-.545.439l-.545.439q-.273.22-.545.44-.273.219-.545.439l-.546.44-.545.439q-.272.22-.545.439-.272.22-.545.44-.272.22-.545.44ZM-251.307 845.595l-.052.022q-.015.012-.269.08-.254.069-.753.186-.499.117-.916.185-.418.069-.896.137-.478.067-.801.121-.324.053-.469.076-.145.022-.356.045-.212.023-.537.055-.649.068-1.201.172-.553.104-.98.221-.427.117-.98.219-.552.101-.965.18-.413.079-.645.138-.232.059-.527.125-.295.067-.803.111t-.791.056q-.283.013-.743.119-.461.106-.74.172-.279.066-.407.085-.128.019-.377.044-.25.025-.548.075-.298.051-.564.086-.266.035-.384.039-.117.003-.261-.001-.145-.003-.308-.012-.164-.008-.5-.002-.335.006-.538.023-.204.018-.351.056-.147.038-.213.056-.066.018-.665.312.006.034.014.049.007.014.029.05.022.036.141.155.118.12.761.99t.72 1.016q.077.146.176.418.099.272.127.381.029.109.093.567.064.457.058.766-.006.309-.038.475-.032.166-.121.449-.088.282-.368.734-.281.452-.453.679-.172.227-.317.404-.144.176-.253.298-.11.121-.215.233-.104.111-.235.261-.131.149-.279.305-.147.157-.26.266-.112.109-.234.226-.121.117-.375.433t-.629.686q-.375.369-.596.557-.221.188-.336.283-.115.095-.231.212-.116.117-.198.2t-.158.159q-.076.076-.188.235-.112.158-.133.208-.02.05-.034.144.021.128.045.196.024.068.159.31.136.242.314.426.177.183.418.354.241.171.41.286.169.115.373.26.204.145.48.292t.551.28q.274.133.562.242.288.11.442.15.154.041.433.086.278.044.583.085.305.041.489.055.185.013.443.019.257.005.415.022.158.016.308.041.149.024.439.035.289.011.556.035.267.024.43.031.163.008.295-.008.132-.016.137-.018.005-.001.074-.021.07-.02.14-.066.071-.046.073-.052.003-.006.021-.037.019-.031.073-.207.054-.176.1-1.029.016-.42.074-.831.059-.411.162-.815.103-.404.192-.731.09-.328.206-.706.117-.379.175-.602.057-.223.156-.552.099-.33.251-.766t.226-.677q.074-.24.195-.616.12-.375.269-.704.149-.329.276-.551.126-.223.329-.536.202-.314.296-.462.095-.148.359-.535.265-.387.463-.691.199-.304.306-.446.107-.142.199-.238.091-.096.167-.169.076-.074.134-.13.058-.056.113-.107.056-.052.315-.3t.385-.362q.127-.114.252-.246.125-.133.2-.211.075-.077.148-.148.074-.071.268-.278.42-.276.837-.561.416-.286.835-.576.419-.291.847-.579.429-.288.874-.566.445-.278.91-.546t.946-.525q.481-.257.969-.511.489-.254.975-.513Z"/>
    <path fill="#71311e" stroke="#71311e" stroke-width=".5" d="M-264.45 863.224q-.099-.014-.113-.013-.014.001-.184-.031-.17-.031-.503-.091-.334-.059-.631-.117-.298-.057-.689-.142-.391-.085-.676-.14-.286-.055-.829-.188-.544-.133-1.106-.302-.563-.169-1.024-.273-.462-.105-.708-.165-.246-.06-.481-.145-.235-.084-.569-.165-.335-.081-.568-.082-.232-.001-.372.06l-.053.141q-.007.011.337 1.322.344 1.311.57 2.039.227.729.361 1.1.134.371.348.906.214.536.327.828.112.293.242.671.129.379.314.991.184.612.451 1.29.267.679.47 1.123.202.443.321.713.12.27.254.648.134.377.303.881.169.505.349.937.179.433.271.644.093.21.216.505.124.295.201.484.078.188.226.521.148.333.332.718.184.385.307.649.122.264.28.591l.395.823q.239.496.466.962.228.465.559 1.127.332.661.618 1.179t.561.953q.137.218.331.504.194.286.444.64.25.355.479.661.229.307.437.565.208.258.389.466.181.208.411.443.23.236.553.514.323.277.553.444.229.168.335.231.106.063.187.101.08.038.156.067.077.028.519.175.442.148.836.209.394.062.689.039.295-.023.418-.047.122-.024.44-.168.318-.143.473-.248.156-.105.294-.272.138-.166.197-.34.06-.174.055-.261-.004-.087-.015-.119t-.046-.069q-.035-.036-.042-.042-.008-.007-.098-.057-.09-.051-.237-.153-.147-.102-.333-.271-.187-.169-.287-.284-.1-.114-.139-.161-.038-.046-.207-.28-.169-.235-.367-.539-.197-.305-.305-.464-.108-.159-.349-.521-.24-.362-.296-.454-.056-.091-.171-.277-.116-.185-.308-.497t-.361-.598q-.169-.286-.384-.679-.215-.393-.423-.823-.208-.43-.515-1.098-.149-.336-.299-.689-.151-.352-.303-.713-.153-.361-.284-.666-.132-.306-.243-.559-.11-.253-.246-.553-.136-.301-.298-.649-.162-.348-.311-.694-.148-.347-.283-.698-.135-.351-.227-.631-.093-.281-.17-.568-.078-.288-.209-.878l-.018-.059q-.074-.376-.144-.74l-.137-.712q-.068-.348-.131-.678-.063-.329-.121-.641-.058-.313-.11-.614t-.118-.741q-.066-.44-.124-1.019-.059-.579-.081-1.177-.022-.598-.026-1.203-.004-.605-.003-1.209.002-.603 0-1.198Z"/>
    <path fill="#71311e" stroke="#71311e" stroke-width=".5" d="M-198.898 876.541q.072-.022.09-.025.019-.004.587-.19t.904-.282q.335-.096.516-.144.181-.048.494-.141.312-.093.437-.138.125-.044.435-.151t.523-.167q.214-.059.41-.091.197-.032.278-.023.08.009.107.019.026.011.049.025.022.014.053.081.032.067.048.188.016.12.013.146-.003.027-.068.323-.065.297-.195.872-.129.576-.239 1.04-.11.463-.244.989t-.426 1.437q-.292.911-.578 1.603-.286.691-.437 1.077-.151.387-.303.804-.152.417-.235.634-.083.216-.238.545-.155.329-.246.512-.091.184-.209.441-.117.257-.311.591-.194.333-.415.768-.222.435-.333.663-.11.228-.161.312-.051.085-.339.526-.288.441-.703.946-.415.504-.645.769-.23.264-.366.427-.136.162-.224.276-.088.114-.29.363-.201.25-.532.614-.33.365-.548.613-.218.248-.582.623-.365.376-.632.621-.267.246-.534.479l-.688.598q-.422.366-.732.644-.31.277-.452.388-.142.111-.229.176-.086.064-.187.136-.101.072-.403.291-.302.219-.574.398-.271.179-.404.259-.132.081-.292.201-.16.12-.277.199-.116.08-.236.153-.12.074-.215.134-.095.059-.104.069-.009.01-.268.16t-.622.318q-.363.169-.672.314-.308.146-.808.3-.501.155-.849.268-.348.114-1.001.305-.653.191-1.106.335-.453.145-.946.271-.494.126-.856.204-.362.078-.969.182-.608.104-1.262.159-.655.056-1.241.119-.585.063-.85.097t-.438.05q-.173.017-.772.12t-1.077.185q-.478.081-.825.15-.348.069-.585.128-.237.058-.399.094-.161.036-.198.044-.037.009-.852.078-.816.068-1.278.114-.462.046-.679.068-.217.023-.613.073-.395.049-1.1.043-.706-.007-1.069-.025-.363-.018-.765-.006-.402.012-.754.016t-.744.004q-.392 0-.585-.002-.192-.002-.714-.035t-1.005-.043q-.484-.01-.728-.017-.243-.007-.589-.037-.345-.031-.75-.019-.406.013-.651.026-.246.014-.576-.028-.331-.042-.669-.091-.337-.049-.559-.07-.221-.02-.449-.055-.227-.035-.549-.128-.322-.093-.693-.196-.371-.102-.761-.258-.39-.156-.821-.294-.432-.139-.682-.212-.25-.073-.412-.132-.162-.059-.607-.255-.445-.196-.736-.326-.292-.13-.427-.181-.136-.051-.31-.097-.174-.046-.446-.11-.271-.063-.853-.242-.582-.178-.919-.289-.337-.111-.551-.18l-.39-.124q-.176-.055-.426-.146-.249-.091-.417-.158-.169-.066-.347-.136-.179-.07-.284-.131-.104-.062-.191-.124-.086-.062-.274-.207-.188-.145-.368-.246-.18-.102-.413-.199-.234-.097-.399-.186t-.414-.294q-.248-.206-.503-.433t-.389-.356q-.134-.13-.25-.248-.115-.118-.232-.239t-.126-.128q-.008-.008-.137-.147l-.209-.225q-.146-.156-.373-.399-.227-.242-.401-.427-.175-.184-.358-.374-.184-.189-.356-.418-.172-.228-.278-.392-.107-.163-.186-.269-.079-.106-.166-.214-.087-.107-.115-.138-.027-.031-.155-.225-.127-.193-.228-.348-.101-.155-.201-.277-.1-.122-.183-.227-.084-.104-.196-.298-.112-.193-.205-.335-.093-.143-.173-.249-.079-.107-.127-.18-.048-.072-.105-.147-.058-.075-.184-.199-.126-.124-.208-.23-.083-.105-.116-.147-.033-.041-.118-.173-.085-.132-.137-.218-.052-.086-.119-.206t-.119-.198q-.052-.077-.146-.21t-.121-.18q-.028-.048-.05-.16.325-.387.499-.519.175-.133.242-.173.066-.04.141-.077.075-.037.107-.047.033-.01.381-.165.348-.154.534-.223.187-.069.451-.084.265-.016.386.01.121.026.181.052t.069.035q.008.008.073.052.064.044.146.119.083.076.155.167.073.09.126.166.054.075.162.215.107.139.198.243.091.104.273.29.182.186.31.329.128.142.28.325.151.182.454.464.303.282.604.583.301.3.47.484.168.184.292.302.125.118.307.256.182.139.348.258.166.119.483.389.316.269.522.444.205.174.564.394.359.219.589.359.23.14.496.36.267.221.408.346.141.125.571.355.43.231.679.343.249.111.503.247.253.137.488.239.234.102.565.198.33.095.515.15.185.055.47.187t.607.33q.322.198.846.434t.892.375q.368.139.894.364.527.224.914.365.388.14.984.24.595.1.921.146.325.046.513.091t.761.187q.285.071.667.142.383.072.861.146.479.075.845.133.365.058.744.118.38.06.909.104.529.045.963.099.435.053.773.084.338.03.723.054.385.024.917.03.532.006 1.21-.006.688-.014 1.209-.031.521-.017 1.048-.046.528-.03.999-.064.471-.033.76-.061.288-.027 1.167-.217.879-.191 1.782-.349.903-.159 1.333-.218.431-.059.6-.084.169-.025.419-.079.249-.055.636-.147.386-.093.731-.197.345-.103.649-.218.304-.114.572-.218.269-.105.618-.245.349-.141.88-.357.531-.215.931-.365t.799-.289q.399-.138.616-.225.217-.086.376-.17.159-.084.483-.289.323-.206.8-.511.476-.305.682-.445.205-.14.379-.262.173-.123.674-.468.5-.346.762-.56.261-.213.51-.441.249-.227.574-.532.325-.305.562-.551.237-.247.499-.533.261-.286.475-.52.215-.235.465-.51.251-.276.4-.457.148-.181.368-.449t.327-.391q.106-.123.148-.165.042-.041.092-.094.051-.054.096-.097.045-.042.516-.607l.075-.092q.182-.312.37-.626.189-.314.384-.631.195-.316.393-.638t.395-.65q.197-.329.389-.664.191-.336.367-.683.176-.346.341-.7.165-.355.322-.716t.308-.724q.15-.364.301-.727.15-.364.302-.723.152-.36.307-.714.156-.355.312-.701.157-.346.312-.685.156-.339.31-.67.154-.332.304-.656Z"/>
    <path fill="#f9f9f1" stroke="#f9f9f1" stroke-width=".5" d="m-369.286 850.382-.044.017-.042.003q-.031-.006-.155.013t-.218.066q-.094.047-.15.1-.055.053-.092.099-.037.047-.039.053-.003.006-.025.036-.022.03-.072.143-.051.113-.075.24-.024.126-.03.245-.005.119.003.173.008.054.022.097.015.042.033.091.018.05.022.058.003.008.039.087.035.078.068.138.033.059.076.115.042.056.076.092.035.036.08.074.045.037.128.082.082.045.146.07.064.026.153.044.09.019.163.029.073.009.185.007.112-.002.164-.01.051-.008.08-.015l.081-.023q.052-.015.111-.042.059-.026.107-.055.047-.03.089-.063.042-.033.101-.094.06-.062.107-.119.046-.057.065-.086.019-.028.077-.179.057-.151.069-.315.011-.164.004-.24-.008-.077-.033-.17-.026-.094-.074-.191-.049-.097-.091-.156-.041-.059-.096-.116-.055-.057-.092-.086-.036-.029-.11-.086-.074-.057-.221-.15l-.027-.046M-365.355 850.01q-.054.012-.095.024-.04.013-.103.044t-.109.06q-.046.028-.096.065-.05.036-.178.167-.127.13-.204.252l-.079.125q-.002.003-.023.079-.02.075-.03.159-.009.084-.011.13-.002.045.003.112.004.067.016.117.012.049.028.097.017.048.034.094t.067.128q.05.082.167.193t.168.142q.051.032.107.055.057.023.111.043.055.02.192.058.137.037.244.043.107.005.223-.017.117-.022.142-.027.026-.004.089-.023.062-.019.125-.048.063-.03.113-.067.049-.036.075-.06.026-.023.089-.088.062-.065.094-.111t.065-.13q.033-.084.049-.214t.011-.201q-.006-.072-.04-.191-.034-.12-.06-.192-.027-.072-.049-.129-.023-.057-.07-.124-.046-.067-.08-.105-.033-.038-.064-.076-.031-.039-.059-.067-.029-.028-.033-.03-.005-.002-.092-.06l-.182-.119-.059-.029M-194.864 850.646l-.011-.001q-.003-.019-.015-.048-.012-.028-.028-.046t-.019-.018q-.003 0-.028-.008-.026-.009-.088-.013-.063-.003-.134-.001-.072.002-.231.073-.159.072-.273.176-.113.103-.158.161-.044.057-.109.35-.065.294-.067.468-.002.174.008.241.009.066.078.234t.118.246q.049.078.122.158.074.081.101.1.027.02.071.041.043.021.054.026.011.005.116.044.104.038.219.051.115.014.244 0 .128-.014.216-.032.087-.018.128-.03.041-.013.103-.039.062-.027.173-.082.111-.056.141-.079.03-.023.059-.049.029-.026.127-.172.099-.146.107-.158.007-.013.025-.055.018-.041.043-.108.025-.067.04-.19.016-.122.009-.229-.007-.107-.014-.134-.007-.026-.065-.174-.057-.148-.122-.246t-.12-.161q-.055-.062-.077-.081-.023-.02-.088-.062l-.101-.05M-190.99 850.968q-.045.02-.164.046-.119.026-.2.046-.08.02-.15.047-.069.027-.126.058-.057.031-.093.058-.036.028-.054.045-.017.017-.084.101t-.131.177q-.063.092-.089.147-.027.056-.044.112-.017.057-.039.168-.023.111-.028.213-.005.101.034.224.039.124.055.165.017.041.033.07.015.028.036.058.021.029.097.104.075.076.114.105.038.029.09.057.052.029.167.067.115.038.186.062.071.025.155.044.084.019.158.02.075.001.152-.002.078-.003.144-.014.066-.011.072-.013.005-.003.075-.029.071-.027.166-.07.095-.043.155-.082.059-.039.101-.077.042-.037.065-.062.023-.026.081-.098.059-.072.111-.189.051-.117.067-.205.016-.088.019-.126.003-.038.007-.159.004-.12-.024-.261-.027-.14-.05-.214-.024-.073-.077-.162-.054-.088-.088-.138-.035-.051-.067-.091-.032-.041-.082-.09-.05-.049-.081-.077-.031-.028-.135-.105l-.074-.046"/>
    <path fill="none" stroke="#381d1d" stroke-width="1.41" d="M-351.13 840.127q.949-.011 1.436-.016.487-.006.84-.01t.735-.008q.382-.004.733-.008t.831-.008q.48-.004.918-.008l.885-.006q.447-.003.874-.005l.835-.004.8-.002q.392-.002.771-.002.38-.001.748-.001.369-.001.908-.001.538-.001 1.231-.001H-220.21q.408 0 .809.001h.747q.346.001.78.001.434.001.96.003.526.001 1.055.003.529.002 1.007.005.478.003 1.008.007.529.004.743.005.214.002.545.006.332.003.863.009.531.006 1.304.016.774.01 1.798.024l-.656.021"/>
    <path fill="none" stroke="#381d1d" stroke-width=".834" d="M-298.43 878.871q-.158.354-.323.704t-.336.697q-.171.346-.349.688-.177.342-.36.679-.184.338-.373.671-.19.332-.385.66t-.396.65q-.202.323-.408.64-.207.317-.42.628-.212.311-.43.617-.218.305-.441.604-.224.299-.453.592-.228.293-.463.58-.234.286-.473.566-.239.28-.484.553-.244.272-.494.538t-.504.525q-.255.259-.514.51-.26.252-.524.496-.265.244-.534.48-.269.237-.543.466-.274.229-.552.45-.278.222-.561.435-.283.214-.57.42t-.578.404q-.292.198-.587.389-.296.19-.595.373-.3.183-.603.358-.304.175-.611.342-.307.168-.618.328t-.625.312q-.315.153-.633.298t-.639.283q-.321.137-.645.268-.325.131-.652.254-.328.124-.658.24-.33.117-.664.227-.333.11-.669.213-.335.103-.674.2-.338.097-.679.187-.341.091-.684.175-.343.084-.688.162-.345.078-.692.15t-.696.138q-.349.067-.7.127t-.703.115q-.353.055-.706.104-.354.049-.709.092t-.712.081q-.356.038-.713.071-.357.032-.716.059-.358.026-.717.047t-.718.037q-.359.015-.719.025-.36.009-.72.013t-.72.002q-.36-.002-.72-.01t-.72-.023q-.359-.014-.719-.035-.359-.02-.718-.047-.358-.027-.716-.061-.358-.033-.715-.074-.356-.04-.712-.087-.356-.048-.71-.102-.354-.054-.707-.115-.353-.062-.703-.131-.351-.069-.7-.145-.349-.076-.696-.16t-.691-.175q-.345-.092-.686-.191-.342-.1-.681-.207-.339-.107-.676-.223-.336-.115-.668-.238-.333-.124-.663-.255-.329-.132-.655-.271-.326-.14-.648-.288-.322-.147-.64-.303t-.632-.32q-.314-.164-.623-.337-.31-.172-.614-.352-.305-.18-.605-.369-.3-.188-.595-.384-.295-.197-.585-.401-.29-.204-.574-.416t-.563-.432q-.279-.219-.552-.447-.273-.227-.541-.461-.267-.235-.528-.477t-.516-.491q-.256-.249-.504-.505-.249-.256-.491-.519-.243-.263-.478-.532-.236-.27-.465-.545-.229-.276-.452-.559-.222-.282-.437-.57-.216-.288-.424-.583-.209-.294-.41-.594-.202-.299-.396-.605-.195-.305-.382-.615-.187-.311-.367-.626-.18-.316-.353-.636t-.338-.645q-.166-.325-.324-.655-.158-.329-.309-.663-.151-.333-.294-.67-.144-.338-.28-.679-.137-.341-.265-.686-.129-.344-.251-.692-.121-.348-.235-.699-.115-.351-.221-.704-.107-.354-.207-.71-.099-.356-.191-.715t-.177-.719q-.085-.361-.163-.724-.077-.362-.147-.727-.07-.364-.133-.73t-.119-.733q-.055-.367-.104-.735-.048-.368-.089-.736-.041-.369-.074-.738-.034-.37-.06-.739-.026-.369-.045-.739-.019-.369-.031-.738-.011-.369-.015-.738-.005-.369-.001-.737.003-.367.014-.734t.029-.732q.018-.366.044-.729.026-.364.059-.726.034-.361.075-.72.041-.36.09-.716.049-.357.105-.711.057-.354.121-.704.065-.35.137-.697.072-.346.152-.689.08-.342.168-.68.088-.339.184-.672t.201-.662q.104-.328.216-.65.112-.323.232-.64.12-.317.248-.628.128-.31.264-.614.136-.305.28-.602.144-.297.296-.588.152-.29.312-.572.16-.283.328-.558.168-.275.343-.542.176-.267.359-.526.184-.259.375-.509.19-.251.389-.493.198-.242.404-.475.206-.234.419-.458.214-.225.434-.441.221-.215.448-.422.228-.207.462-.405.235-.198.476-.387t.489-.369q.248-.18.503-.352.254-.171.515-.334t.528-.317q.268-.155.541-.301.273-.145.553-.283.279-.138.564-.268.285-.13.576-.251.29-.122.587-.237.296-.114.597-.221.302-.107.608-.207.307-.1.619-.193.311-.093.627-.179.317-.087.638-.167.32-.08.646-.154.325-.074.654-.142.33-.068.663-.13t.67-.119q.337-.057.678-.108.341-.052.685-.099.344-.046.691-.088.347-.042.697-.078t.703-.07q.352-.034.708-.063.355-.029.713-.054.357-.024.717-.046.36-.021.721-.039.362-.018.726-.032.363-.015.728-.027.365-.011.732-.02.366-.009.734-.016.367-.006.736-.011.369-.004.738-.006.37-.003.74-.003.371-.001.742 0t.742.004q.372.002.743.006.372.004.744.009.372.005.744.012.372.006.743.014.372.007.743.016.372.008.743.018.371.01.741.021.371.012.741.025.369.012.738.027.369.014.737.031.368.016.735.036l.732.04q.366.019.73.043.364.023.727.05.363.026.724.056.361.029.72.062t.717.069q.357.037.713.077.355.041.708.086.354.044.705.094.351.049.699.103.349.054.695.114.346.059.69.124.343.065.684.135.34.071.678.147t.672.159q.335.083.666.173.332.089.659.186.328.096.653.2.324.103.645.215.32.111.637.23.316.119.628.246.313.128.62.263.308.135.611.279.304.144.602.297t.591.314q.293.162.58.332.288.171.569.351.282.179.557.368.276.189.545.386.269.198.531.405.262.207.517.423t.503.441q.248.225.488.459.239.234.471.477.232.242.455.493.223.252.437.511.215.26.42.527.205.268.401.543.195.276.381.559.186.284.362.574.176.291.342.589.165.298.321.603.155.305.299.616.145.312.278.63.134.317.256.641.123.324.235.653.112.329.211.665.1.335.189.675.089.341.166.686.078.345.144.694.066.35.122.703.055.354.099.711.043.358.076.719t.055.725q.022.364.033.731.012.367.012.736.001.369-.009.741-.01.372-.03.745-.02.373-.05.748-.03.375-.07.751-.039.375-.088.752-.05.377-.108.754-.059.377-.126.754-.068.377-.144.754-.076.377-.161.753t-.178.752q-.093.375-.194.75-.101.374-.21.746-.109.373-.225.744-.117.371-.241.74-.124.369-.255.735-.131.367-.269.73-.139.364-.284.725-.145.361-.297.718-.152.358-.31.712Z"/>
    <path fill="none" stroke="#381d1d" stroke-width="1.41" d="M-351.197 840.146q-.44-.003-1.009.098-.57.101-.991.237-.421.136-.631.21-.21.073-.681.273-.47.199-.961.447t-.71.36q-.22.112-.53.278-.309.167-.776.437t-.804.475q-.337.205-.655.396-.318.191-.662.401-.345.21-.769.45-.424.24-.681.383-.258.143-.735.383-.478.24-.822.398-.344.159-.531.233-.187.074-.348.137-.162.063-.369.13-.206.068-.493.158-.287.09-.785.202-.498.112-.844.182-.347.07-.647.114-.301.044-.471.07-.171.027-.609.079-.437.052-.725.085-.287.034-.44.047-.154.013-.579.051-.424.038-.676.068-.251.03-.678.069-.427.039-.638.063-.21.024-.538.052-.327.029-.666.064-.338.036-.73.088-.392.052-.648.082-.256.029-.468.059-.212.029-.78.097M-375.357 847.559q-.007.151.003.837.011.687.029 1.19.018.503.036.705.019.202.043.507.024.305.061.78.037.475.071.873.034.398.079.881.044.482.063.678.018.195.065.511M-286.084 859.864q-.412-.368-.705-.601-.293-.232-.562-.463-.269-.231-.534-.479-.265-.248-.611-.563-.346-.315-.85-.932-.505-.617-.611-.744-.106-.127-.218-.29-.112-.163-.348-.595-.237-.432-.281-.518-.044-.086-.165-.455-.121-.369-.178-.695-.056-.326-.075-.495-.018-.169-.001-.581.017-.412.188-1.013.172-.6.361-.888.188-.289.404-.518.217-.229.389-.375.173-.145.686-.451.513-.306.729-.394.216-.089.719-.258.504-.17.703-.214.2-.045.527-.119.326-.074.631-.128.305-.055.472-.075l.567-.068q.401-.048.67-.063.27-.015.504-.023.233-.009.509-.019.276-.011.377-.017.1-.007.39-.015.29-.009 1.053-.006.763.003 1.592.008.829.005 1.253.011.425.005.688.017.263.012.704.017.44.005 1.964.04M-286.062 859.99q-.06.216-.191.678-.13.462-.335 1.176-.205.713-.369 1.262-.164.548-.342 1.114-.179.567-.32 1.004-.141.436-.411 1.256-.27.82-.341 1.011-.071.19-.216.579-.145.39-.393 1.042-.247.651-.444 1.15-.197.498-.412 1.016-.215.518-.361.859-.145.34-.267.625-.122.286-.499 1.093-.377.807-.678 1.421-.301.614-.651 1.305-.351.69-.605 1.184-.255.493-.492.941-.237.448-.52.95-.282.503-.567 1.01-.286.507-.601 1.042t-.757 1.267q-.442.732-.73 1.199-.288.467-.486.769-.197.303-.692 1.058-.495.754-.897 1.331-.402.576-.69.965-.287.389-.708.952t-.975 1.231q-.553.668-.957 1.112-.405.445-.518.571-.113.125-.645.681-.531.555-.832.855-.301.3-.589.556-.288.256-.633.572-.345.316-.609.54-.265.224-.434.351-.169.126-.625.482-.457.356-.687.512-.231.157-.433.3-.202.144-.286.206-.083.062-.363.235-.279.174-.782.48-.504.307-.834.5-.331.194-.568.316-.237.122-.52.27-.283.147-1.022.447-.739.299-.949.386-.209.087-.379.15-.17.064-.355.124-.185.061-.401.133-.217.071-.324.109-.108.038-.329.122-.221.084-.85.261-.628.176-1.13.293-.501.116-.77.177-.27.06-.504.121-.235.062-.732.152t-.642.128q-.146.037-.732.129t-.769.122q-.183.031-.317.058-.134.027-.403.065-.269.037-.684.079-.414.041-1.138.133-.725.091-.91.1-.186.009-.716.051-.531.043-1.226.073t-1.085.028q-.389-.001-.79.012-.401.012-.673.012-.273-.001-.578-.019-.305-.019-.508-.028-.202-.009-.533-.018-.331-.008-.838-.051-.506-.042-1.017-.055-.511-.013-1.117-.059-.606-.045-.888-.077-.282-.031-.581-.054-.3-.022-.394-.035-.095-.013-.512-.055-.416-.041-.44-.041-.024-.001-.45-.044t-.583-.063q-.158-.02-.679-.078-.521-.059-1.056-.135-.535-.077-.925-.137-.39-.06-.577-.102-.187-.041-.694-.131-.507-.091-1.348-.288-.841-.197-1.14-.266-.298-.068-.885-.231-.586-.164-1.23-.374-.644-.209-.942-.331-.298-.122-.671-.266-.373-.143-.688-.281-.315-.137-.524-.244-.208-.107-.538-.267-.329-.161-.711-.372-.383-.212-.911-.538-.529-.326-.759-.485-.231-.158-.397-.27-.165-.112-.358-.237-.193-.125-.639-.484-.445-.359-.693-.57-.249-.21-.441-.38-.192-.169-.428-.393-.235-.224-.578-.558-.343-.334-.541-.532-.199-.197-.28-.289-.081-.091-.442-.477t-.571-.635q-.211-.249-.478-.592-.267-.343-.639-.813-.371-.47-.823-1.121-.452-.651-.853-1.272-.402-.621-.474-.744-.072-.124-.217-.387-.145-.264-.392-.738-.247-.474-.643-1.249-.396-.775-.648-1.289-.251-.514-.372-.795-.12-.281-.254-.605-.133-.323-.32-.783t-.317-.786q-.13-.325-.24-.612-.11-.287-.331-.957-.221-.671-.33-1.016-.11-.346-.284-.888t-.266-.856q-.092-.315-.218-.808-.126-.492-.221-.858-.094-.366-.249-1.024t-.257-1.138q-.101-.48-.201-1-.099-.521-.171-.905-.071-.384-.136-.755-.066-.37-.129-.705-.063-.334-.135-.735-.073-.402-.176-.983-.103-.582-.199-1.092-.096-.511-.231-1.171-.135-.659-.212-1.032-.078-.373-.23-1.002-.153-.629-.272-1.073-.118-.443-.254-.91-.135-.467-.274-.877-.138-.41-.352-.939-.213-.53-.471-1.049-.257-.519-.362-.702-.105-.183-.136-.239-.032-.055-.453-.602-.422-.546-.524-.64-.103-.093-.358-.337-.256-.244-.683-.548-.428-.305-.714-.456-.287-.151-.407-.215-.121-.064-.46-.21-.34-.145-1.186-.451"/>
    <path fill="none" stroke="#381d1d" stroke-width=".814" d="M-261.251 878.937q.158.353.323.704.165.35.336.696.171.347.348.689.178.342.361.679.183.338.373.67.189.333.385.661.195.328.396.65t.408.639q.207.317.419.629.212.311.43.616.218.306.442.605.223.299.452.592t.463.58q.234.286.474.566.239.279.483.552.245.273.495.539.249.266.504.525.254.258.514.51.26.251.524.495t.533.481q.27.237.543.466.274.229.552.45.279.221.561.435.283.214.57.42t.579.404q.291.198.587.389.295.19.595.373.299.183.603.358.303.175.61.342.308.168.619.328t.625.312q.314.152.632.297.318.146.639.283.322.138.646.269.324.13.652.254.327.123.658.24.33.117.663.227.333.109.669.213.336.103.674.2.339.097.679.187.341.09.684.174.343.085.688.163.346.078.693.15t.696.138q.349.066.7.127.35.06.703.115.352.055.706.104.354.049.709.092t.711.081q.356.038.714.07.357.033.715.059.358.027.717.048t.719.037q.359.015.719.025.359.009.719.013t.721.002q.36-.002.72-.011.36-.008.719-.022.36-.014.719-.035.36-.02.718-.047.359-.027.717-.061.357-.034.714-.074.357-.04.713-.087.355-.048.709-.102.355-.054.707-.116.353-.061.704-.13t.7-.145q.349-.076.696-.16.346-.084.691-.175.344-.092.686-.191.342-.1.681-.207.339-.107.675-.223.336-.115.669-.238.333-.124.662-.255.33-.132.656-.271.326-.14.648-.288.322-.148.64-.303.318-.156.632-.321.313-.164.623-.336.309-.172.614-.352.305-.181.605-.369t.595-.385q.295-.196.584-.4.29-.204.575-.416.284-.212.563-.432.279-.22.552-.447t.54-.462q.268-.234.529-.476.261-.242.516-.491t.504-.505q.249-.256.491-.519t.478-.532q.236-.27.465-.546.229-.276.451-.558.222-.282.438-.57.215-.289.424-.583.208-.294.41-.594.201-.3.396-.605.194-.305.381-.616.188-.31.368-.625.18-.316.352-.636.173-.321.339-.646.165-.325.323-.654.159-.329.31-.663.15-.333.294-.671.144-.337.28-.678.136-.341.265-.686.129-.344.25-.692.122-.348.236-.699.114-.351.221-.705.107-.353.206-.709.1-.357.192-.715.092-.359.177-.72.085-.36.162-.723.078-.363.148-.727.07-.364.133-.73t.118-.733q.056-.367.104-.735.048-.368.089-.736.041-.369.075-.738.033-.37.06-.739.026-.369.045-.739.019-.369.03-.738.012-.37.016-.738.004-.369.001-.737t-.014-.734q-.011-.367-.029-.732-.019-.366-.045-.729-.025-.364-.059-.726-.033-.361-.074-.721-.042-.359-.09-.716-.049-.356-.106-.71-.056-.354-.121-.704-.064-.35-.136-.697-.073-.346-.153-.689-.08-.343-.168-.681-.088-.338-.184-.671t-.2-.662q-.104-.328-.216-.651-.112-.322-.232-.639-.12-.317-.248-.628-.128-.31-.264-.615-.137-.304-.281-.601-.144-.298-.296-.588t-.312-.573q-.16-.282-.327-.557-.168-.275-.344-.542-.175-.267-.359-.526-.183-.259-.374-.51-.191-.25-.389-.492-.199-.242-.405-.476-.206-.233-.419-.457-.213-.225-.434-.441-.22-.215-.448-.422-.227-.207-.462-.405-.234-.198-.475-.387-.242-.189-.49-.369-.248-.181-.502-.352-.255-.171-.516-.334t-.528-.318q-.267-.154-.54-.3-.274-.146-.553-.283-.279-.138-.564-.268-.285-.13-.576-.252t-.587-.236q-.296-.114-.598-.221-.301-.107-.608-.207-.306-.1-.618-.193-.311-.093-.628-.18-.316-.086-.637-.166-.321-.08-.646-.154t-.655-.142q-.329-.068-.662-.13-.334-.062-.671-.119-.337-.057-.678-.109-.34-.051-.684-.098-.344-.046-.691-.088-.347-.042-.697-.078t-.703-.07q-.353-.034-.708-.063-.355-.029-.713-.054-.358-.025-.717-.046-.36-.021-.722-.039t-.725-.032q-.364-.015-.729-.027-.365-.011-.731-.021-.366-.008-.734-.015-.368-.007-.737-.011-.368-.004-.738-.007-.37-.002-.74-.003-.37 0-.741.001t-.743.004q-.371.002-.743.006t-.743.009q-.372.005-.744.011l-.744.014-.743.016q-.371.009-.742.019t-.742.021q-.37.011-.74.024-.37.013-.739.028-.369.014-.737.031-.367.016-.734.036-.367.02-.733.039-.365.02-.729.044-.365.023-.727.049-.363.027-.724.056-.361.03-.721.063-.359.033-.716.069-.358.037-.713.077-.356.041-.709.085-.353.045-.704.095-.351.049-.7.103-.348.054-.695.114-.346.059-.689.124-.344.064-.684.135-.341.07-.678.147-.338.076-.673.159-.334.083-.666.173-.331.089-.659.185-.328.097-.652.201-.325.103-.645.215-.321.111-.637.23-.317.119-.629.246t-.62.263q-.308.135-.611.279-.303.144-.601.297t-.591.314q-.293.162-.581.332-.287.171-.569.35-.281.18-.557.369-.275.188-.544.386t-.531.405q-.263.207-.518.423t-.503.441q-.247.225-.487.459t-.471.476q-.232.243-.455.494t-.438.511q-.214.259-.419.527t-.401.543q-.196.276-.382.559-.186.283-.362.574t-.341.589q-.166.298-.321.603t-.3.616q-.144.312-.278.629-.133.318-.256.642-.122.324-.234.653-.113.329-.212.665-.099.335-.188.675t-.167.685q-.077.345-.144.695-.066.349-.121.703-.055.354-.099.711-.044.358-.077.719t-.055.725q-.022.363-.033.73-.011.367-.012.737 0 .369.01.741.009.371.029.745.02.373.05.748.03.375.07.75.04.376.089.753.049.376.108.753.058.378.126.755.067.377.143.754.077.376.161.753.085.376.178.752.093.375.194.749t.21.747q.109.373.226.744.116.371.24.74.124.368.256.735.131.366.269.73t.283.725q.146.361.297.718.152.358.311.712Z"/>
    <path fill="none" stroke="#381d1d" stroke-width="1.41" d="M-208.599 840.148q.448.004 1.028.111.579.108 1.008.249.429.141.643.216.214.076.693.28.478.204.976.456.498.251.721.364.222.113.535.282.314.168.784.439.471.272.81.478.339.205.658.397.319.192.665.402.345.211.77.451.425.241.682.383.258.143.736.383.478.24.822.399.344.159.531.232.187.074.349.137.161.063.368.131.206.068.494.158.287.089.785.201.498.113.844.183.346.07.647.114.301.043.471.07.17.027.608.079.438.051.725.085.287.033.441.047.154.013.578.051.425.038.676.067.252.03.679.069.427.04.637.064.211.024.538.052.327.028.666.064.339.036.731.088.392.052.648.082.256.029.468.058.212.03.779.098M-184.325 847.624q.007.151-.003.838-.01.687-.028 1.19-.018.503-.037.705-.018.202-.042.507-.024.305-.062.78-.037.474-.071.873-.034.398-.078.881-.045.482-.063.678-.018.195-.065.511M-273.598 859.93q.413-.368.706-.601.294-.232.564-.464.269-.231.535-.478.266-.248.527-.485.26-.236.475-.469.214-.233.469-.542.254-.308.408-.495.155-.186.236-.281.08-.096.194-.259t.358-.595q.243-.432.289-.518.045-.086.174-.456.129-.369.193-.696.064-.326.088-.495.023-.169.018-.582-.004-.414-.152-1.016-.149-.602-.322-.891-.174-.29-.376-.521-.203-.23-.365-.376-.161-.147-.647-.456-.485-.309-.691-.399-.206-.089-.689-.263-.483-.173-.676-.218-.193-.046-.511-.123-.317-.076-.617-.133-.299-.057-.464-.078l-.561-.072q-.397-.051-.666-.067-.27-.017-.503-.027-.234-.01-.509-.022-.275-.012-.374-.019-.1-.006-.316-.014-.215-.007-.475-.01-.26-.002-.631-.001t-.754.003l-.782.004q-.398.003-.701.005-.303.003-.614.007-.31.004-.569.016-.259.012-.586.015-.328.003-.845.015-.517.011-1.43.028M-273.619 860.056q.06.216.19.678.131.462.336 1.176.205.713.369 1.261.164.549.342 1.115.178.567.319 1.003.141.437.412 1.257.27.82.341 1.01.071.191.216.58.145.39.392 1.041.248.652.444 1.151.197.498.412 1.016.216.518.361.858.145.341.268.626.122.285.499 1.093.377.807.678 1.421.301.614.651 1.304.35.691.605 1.184.254.494.492.942.237.447.519.95.283.503.568 1.01t.6 1.041q.316.535.758 1.267.442.732.73 1.2.288.467.485.769.198.303.693 1.058.495.754.897 1.331.402.576.689.965.288.388.709.952.421.563.974 1.231.553.668.958 1.112.404.445.518.57.113.126.644.682.531.555.832.855.302.299.589.556.288.256.633.572.345.316.61.54.264.224.433.351.169.126.626.482.457.356.687.512.23.156.432.3.203.144.286.206.084.061.363.235.28.174.783.48t.834.5q.331.194.568.316.237.122.52.269.283.148 1.022.448.739.299.948.386.21.087.38.15.169.064.354.124.185.061.402.132.216.072.324.11.107.038.329.122.221.084.849.261.629.176 1.13.292.502.117.771.177.269.061.504.122.234.061.731.152.497.09.643.128.145.037.731.129t.769.122q.184.03.318.058.134.027.403.065.269.037.683.079.415.041 1.139.132.724.092.91.101.185.009.716.051.53.043 1.225.073.695.029 1.085.028.39-.001.791.011.4.013.673.012.273 0 .578-.018.305-.019.507-.028.203-.009.534-.018.331-.008.837-.051.507-.042 1.018-.055.511-.013 1.116-.059.606-.045.888-.077.282-.032.582-.054.299-.022.394-.035.095-.013.511-.055.417-.042.441-.042.023 0 .449-.043t.584-.063q.157-.02.678-.079.522-.058 1.057-.134.535-.077.925-.137.39-.06.577-.102.187-.041.694-.132.507-.09 1.348-.287.84-.198 1.139-.266.299-.068.885-.232.586-.163 1.23-.373.645-.21.943-.332.298-.121.671-.265.373-.144.688-.281.314-.137.523-.244.209-.107.538-.268.33-.16.712-.372.382-.211.911-.537.528-.327.759-.485.231-.159.396-.271.166-.112.359-.237.193-.124.638-.483t.694-.57q.248-.21.44-.38.193-.169.428-.393.236-.224.579-.558.342-.334.541-.532.198-.197.279-.289.081-.091.442-.477t.572-.635q.211-.249.478-.592.267-.343.638-.813.372-.47.823-1.121.452-.651.854-1.272.401-.621.473-.744.072-.124.218-.387.145-.264.392-.738.247-.474.643-1.25.396-.775.647-1.288.252-.514.372-.795.121-.281.254-.605.134-.323.321-.783.187-.461.317-.786.13-.326.24-.612.11-.287.33-.958.221-.67.331-1.016l.283-.887q.174-.542.266-.857.092-.314.219-.807.126-.493.22-.858.094-.366.25-1.024.155-.659.256-1.138.102-.48.201-1.001.1-.52.171-.904.072-.384.137-.755.065-.37.128-.705.063-.334.136-.735.073-.402.176-.983.103-.582.199-1.093.096-.51.23-1.17.135-.659.213-1.032.077-.374.23-1.003.153-.629.271-1.072.119-.443.254-.91.136-.467.274-.877.139-.41.352-.94.214-.529.471-1.048.258-.519.363-.702.105-.183.136-.239.031-.056.453-.602.422-.546.524-.64.102-.093.358-.337.255-.244.683-.548.427-.305.714-.456.286-.152.407-.215.12-.064.46-.21t1.186-.452"/>
    <path fill="none" stroke="#381d1d" stroke-width=".509" d="M-367.839 851.305q.002.015.003.03.002.015.003.03l.002.029q0 .015.001.03v.03q.001.015 0 .03 0 .015-.001.03 0 .015-.001.03l-.002.03q-.002.014-.003.029l-.004.03-.004.03q-.002.014-.005.029-.002.015-.005.029-.003.015-.007.03-.003.014-.006.029-.004.014-.008.029-.004.014-.008.029-.004.014-.009.028-.004.014-.009.029l-.01.028q-.006.014-.011.028-.006.013-.012.027-.005.014-.012.028-.006.013-.012.027-.007.013-.013.027l-.014.026q-.007.013-.015.026-.007.013-.015.026-.007.013-.015.026-.008.012-.016.025-.009.012-.017.025-.009.012-.017.024l-.018.024-.018.024q-.01.011-.019.023-.01.011-.02.023l-.02.022-.02.022-.021.021-.021.021-.022.02q-.011.01-.023.02l-.022.02q-.012.009-.023.019l-.024.018-.024.018q-.012.009-.024.017-.013.009-.025.017-.013.008-.025.016l-.026.016q-.013.007-.026.015l-.026.014-.026.014q-.014.006-.027.013-.014.006-.027.013l-.028.012q-.014.005-.027.011-.014.005-.028.011-.014.005-.029.01-.014.005-.028.009-.014.005-.028.009-.015.004-.029.008-.015.004-.029.008-.015.003-.029.007-.015.003-.029.006-.015.003-.03.005-.015.003-.029.005l-.03.004-.03.004q-.015.002-.029.003l-.03.002-.03.002h-.03q-.015.001-.03.001-.015-.001-.03-.001t-.03-.001l-.03-.002-.029-.002-.03-.004q-.015-.001-.03-.004l-.029-.004q-.015-.003-.03-.005-.014-.003-.029-.006-.015-.003-.029-.007-.015-.003-.029-.007-.015-.004-.029-.008-.014-.004-.029-.008-.014-.005-.028-.009l-.028-.01q-.014-.005-.028-.011-.014-.005-.028-.011-.014-.005-.028-.011-.013-.006-.027-.013-.014-.006-.027-.013-.013-.006-.027-.013l-.026-.014q-.013-.007-.026-.015-.013-.007-.026-.015t-.025-.016-.025-.016q-.012-.009-.025-.017l-.024-.018-.024-.018q-.012-.009-.023-.019-.012-.009-.023-.019t-.023-.019q-.011-.01-.022-.021-.011-.01-.021-.02l-.021-.021q-.011-.011-.021-.022l-.02-.022q-.01-.011-.02-.023-.01-.011-.019-.023-.01-.011-.019-.023l-.018-.024q-.009-.012-.017-.024-.009-.012-.017-.025-.009-.012-.017-.025-.008-.012-.016-.025-.007-.013-.015-.026-.007-.013-.015-.026l-.014-.026q-.007-.013-.013-.027-.007-.013-.013-.027-.006-.013-.012-.027t-.012-.027q-.006-.014-.011-.028-.006-.014-.011-.028-.005-.014-.009-.029l-.01-.028q-.004-.014-.008-.029l-.008-.028q-.004-.015-.007-.029-.004-.015-.007-.03-.003-.014-.006-.029-.002-.015-.005-.029l-.004-.03-.004-.03q-.002-.014-.003-.029-.002-.015-.003-.03l-.002-.03q-.001-.015-.001-.03v-.03q-.001-.015 0-.03 0-.015.001-.03 0-.014.001-.029l.002-.03q.002-.015.003-.03l.004-.03.004-.029q.002-.015.005-.03.002-.015.005-.029.003-.015.007-.029l.006-.03.008-.028q.004-.015.008-.029.004-.015.009-.029.004-.014.009-.028l.01-.028q.006-.014.011-.028l.012-.028q.005-.014.012-.027.006-.014.012-.027.007-.014.013-.027.007-.014.014-.027t.015-.026.015-.026q.007-.013.015-.025l.016-.026q.008-.012.017-.024.008-.013.017-.025l.018-.024q.009-.012.018-.023l.019-.023q.01-.012.02-.023t.02-.023q.01-.011.02-.021.01-.011.021-.022.011-.01.021-.021l.022-.02.022-.02.023-.019.023-.019q.012-.01.024-.019t.024-.017l.024-.018q.013-.008.025-.016.013-.009.025-.017.013-.008.026-.015.013-.008.026-.015.013-.008.026-.015.013-.007.026-.013.014-.007.027-.014.014-.006.027-.012l.028-.012q.014-.006.027-.012l.028-.01q.014-.006.028-.01.015-.005.029-.01.014-.004.028-.009.015-.004.029-.008.015-.004.029-.007.015-.004.029-.007.015-.004.029-.007.015-.002.03-.005t.029-.005l.03-.004.03-.004q.015-.001.029-.003l.03-.002q.015-.001.03-.001.015-.001.03-.001h.06q.015.001.03.001l.03.002q.014.001.029.003.015.001.03.003l.03.004.029.004.03.006q.014.002.029.005.015.004.029.007.015.003.029.007.015.004.029.008.014.004.029.009.014.004.028.009.014.004.028.009l.028.011q.014.005.028.011l.028.012q.013.006.027.012t.027.013.027.013l.026.014q.013.008.026.015.013.008.026.015.013.008.025.016.013.008.025.017.012.008.025.017.012.008.024.017l.024.018.023.019q.012.009.023.019t.023.02l.022.02q.011.01.021.021.011.01.021.021.011.01.021.021l.02.022q.01.012.02.023t.019.023l.019.023.018.024q.009.012.017.024.009.013.017.025.009.012.017.025.008.013.016.025.007.013.015.026.007.013.015.026l.014.026q.007.014.013.027.007.013.013.027.006.014.012.027l.012.028q.006.014.011.028.006.013.011.028.005.014.009.028l.01.028q.004.015.008.029.004.014.008.029.004.014.007.029.004.014.007.029.003.015.006.029.002.015.005.03l.004.029.004.03ZM-363.956 851.015q.002.015.003.03.002.015.003.03l.002.03q0 .015.001.03v.059q0 .015-.001.03 0 .015-.001.03l-.002.03q-.002.015-.003.03l-.004.029-.004.03q-.002.015-.005.03-.002.014-.005.029-.003.015-.007.029-.003.015-.006.029-.004.015-.008.029-.004.015-.008.029-.004.014-.009.029-.005.014-.009.028-.005.014-.011.028l-.01.028-.012.028q-.005.013-.012.027-.006.014-.012.027-.007.014-.013.027-.007.013-.014.027-.007.013-.015.026-.007.013-.015.026-.007.012-.015.025-.008.013-.016.025-.009.013-.017.025-.009.012-.017.024-.009.013-.018.024-.009.012-.019.024-.009.012-.018.023-.01.012-.02.023l-.02.022-.02.022q-.01.011-.021.022-.011.01-.021.02-.011.011-.022.021-.011.01-.023.02-.011.01-.022.019l-.023.019-.024.018-.024.018q-.012.009-.025.017-.012.009-.024.017-.013.008-.025.016l-.026.016q-.013.008-.026.015l-.026.014q-.013.007-.027.014-.013.007-.026.013-.014.007-.028.013-.013.006-.027.012t-.028.011q-.013.006-.027.011-.014.005-.029.01l-.028.01q-.014.004-.029.008-.014.005-.028.009-.015.004-.029.007-.015.004-.029.007l-.03.006q-.014.003-.029.006-.015.002-.029.005l-.03.004q-.015.002-.03.003-.015.002-.03.003-.014.002-.029.002l-.03.002q-.015.001-.03.001h-.06l-.03-.002q-.015 0-.03-.001-.015-.002-.029-.003-.015-.001-.03-.003l-.03-.004q-.015-.002-.029-.005-.015-.002-.03-.005-.014-.003-.029-.006-.015-.003-.029-.006-.015-.004-.029-.007-.015-.004-.029-.008-.015-.004-.029-.009-.014-.004-.028-.009-.014-.005-.029-.01l-.028-.01q-.014-.006-.027-.011l-.028-.012q-.014-.006-.027-.012-.014-.006-.027-.013-.013-.007-.027-.014-.013-.006-.026-.014l-.026-.014-.026-.016q-.013-.007-.025-.016-.013-.008-.025-.016-.013-.008-.025-.017l-.024-.018q-.012-.008-.024-.018-.012-.009-.023-.018l-.023-.019q-.012-.01-.023-.02l-.022-.02q-.011-.01-.021-.021-.011-.01-.022-.021l-.02-.022-.02-.022-.02-.022-.019-.023q-.01-.012-.019-.024-.009-.011-.018-.023t-.017-.025q-.009-.012-.017-.024-.009-.013-.017-.025-.008-.013-.016-.025-.008-.013-.015-.026-.008-.013-.015-.026-.007-.013-.014-.027-.007-.013-.013-.026-.007-.014-.013-.027-.007-.014-.013-.027-.006-.014-.011-.028-.006-.014-.011-.028-.006-.014-.011-.028l-.01-.028q-.004-.014-.009-.029l-.008-.028q-.004-.015-.008-.029-.004-.015-.007-.029-.004-.015-.007-.029l-.006-.03q-.002-.014-.005-.029l-.004-.029-.004-.03q-.002-.015-.003-.03-.002-.015-.003-.03l-.002-.029q-.001-.015-.001-.03t-.001-.03q0-.015.001-.03v-.03l.002-.03.002-.03q.001-.015.003-.03l.004-.029.004-.03q.002-.015.005-.029.002-.015.005-.03.003-.014.006-.029.004-.015.007-.029.004-.015.008-.029.004-.014.008-.029.004-.014.009-.028.004-.015.009-.029l.01-.028q.006-.014.011-.028.006-.014.011-.027l.012-.028q.007-.013.013-.027.006-.013.013-.027l.014-.026q.007-.013.014-.027.008-.013.015-.025l.016-.026q.008-.013.016-.025.008-.013.017-.025.008-.012.017-.024l.018-.024.018-.024.019-.023q.01-.012.02-.023.009-.011.02-.022l.02-.022q.01-.011.021-.021.01-.011.021-.021.011-.011.022-.021l.022-.02q.012-.009.023-.019l.023-.019.024-.018.024-.018q.012-.009.024-.017.013-.009.025-.017.013-.008.025-.016l.026-.016q.013-.007.026-.015l.026-.014.026-.014q.014-.007.027-.013.014-.007.027-.013l.028-.012q.013-.006.027-.011.014-.006.028-.011l.028-.01q.015-.005.029-.009.014-.005.028-.009.015-.005.029-.008.015-.004.029-.008.015-.004.029-.007.015-.003.029-.006l.03-.006.029-.004q.015-.003.03-.005t.03-.003q.014-.002.029-.003l.03-.002.03-.002q.015 0 .03-.001h.03q.015 0 .03.001.015 0 .03.001l.029.002.03.002q.015.002.03.003l.03.004q.014.002.029.005.015.002.03.005.014.003.029.006.015.003.029.006.015.004.029.008.015.003.029.008.014.004.029.008.014.004.028.009l.028.01.028.01q.014.006.028.011l.028.012q.013.006.027.012.013.007.027.013.013.007.027.014l.026.014q.013.007.026.015.013.007.026.015.012.008.025.016.013.008.025.016.012.009.025.017l.024.018.024.018q.011.009.023.018.012.01.023.02l.023.019.022.02.021.021.021.021q.011.011.021.022l.02.022.02.022.019.023q.009.012.019.024l.018.024q.009.012.017.024.009.012.017.024.009.013.017.025l.016.026q.007.012.015.025.007.013.015.026.007.014.014.027t.013.026q.007.014.013.027l.012.028q.006.013.012.027t.011.028.011.028q.005.014.009.028.005.014.009.029.005.014.009.028.004.015.008.029.004.015.007.029.003.015.007.029.003.015.005.03.003.014.006.029l.004.03.004.029ZM-192.396 851.882q-.001.015-.003.03l-.002.03-.002.029q-.001.015-.001.03-.001.015-.001.03v.03q0 .015.001.03l.002.03.002.03q.001.014.003.029.001.015.003.03l.004.03q.003.014.005.029l.006.03q.003.014.006.029.003.014.007.029.003.014.007.029.004.014.009.029l.008.028q.005.014.01.029l.01.028q.005.014.011.028.005.013.011.027l.012.028q.006.013.013.027.006.013.013.027l.014.026.014.026q.007.013.015.026l.016.026q.008.012.016.025.008.012.016.025l.018.024.018.024.018.024.019.023.019.023.02.022q.01.011.021.022.01.011.02.021.011.011.022.021l.022.02q.011.011.022.02.011.01.023.02l.023.019q.012.009.023.018.012.009.025.018.012.009.024.017.012.009.025.017.012.008.025.016.013.008.025.016.013.007.026.015l.026.014q.014.007.027.014t.027.013.027.013q.014.006.027.012.014.005.028.011.014.005.028.011l.028.01q.014.005.028.009.015.005.029.009.014.004.029.008.014.004.029.008.014.003.029.007.014.003.029.006.015.003.029.005.015.003.03.005.015.003.029.004l.03.004q.015.002.03.003l.03.002.03.002h.029q.015.001.03.001t.03-.001.03-.001l.03-.002.03-.002.03-.004q.014-.001.029-.003.015-.003.03-.005.014-.003.029-.005.015-.003.029-.006.015-.003.03-.007.014-.003.029-.007.014-.004.029-.008l.028-.008q.014-.005.029-.009l.028-.01q.014-.005.028-.011.014-.005.028-.011.014-.005.027-.011.014-.006.027-.013.014-.006.027-.012.014-.007.027-.014t.027-.014q.013-.007.026-.015.012-.007.025-.015l.026-.016q.012-.008.025-.016.012-.009.024-.017l.024-.018.024-.018q.012-.009.024-.019l.023-.019q.011-.009.022-.019t.022-.021l.022-.02q.01-.011.021-.021.01-.011.021-.022l.02-.022q.01-.011.019-.023.01-.011.02-.023.009-.011.018-.023l.018-.024.018-.024q.008-.012.017-.025.008-.012.016-.025.008-.012.016-.025.008-.013.015-.026.008-.013.015-.026l.014-.026q.007-.013.014-.027.006-.013.013-.027.006-.013.012-.027t.012-.027q.005-.014.011-.028l.01-.028.01-.028q.005-.015.009-.029.004-.014.009-.029.004-.014.007-.028.004-.015.008-.029l.006-.03q.003-.014.006-.029.003-.015.005-.029.003-.015.005-.03l.004-.03q.001-.014.003-.029l.002-.03.002-.03q.001-.015.001-.03.001-.015.001-.03v-.03q0-.015-.001-.03l-.002-.029-.002-.03q-.001-.015-.003-.03-.001-.015-.003-.03l-.004-.029q-.003-.015-.005-.03-.003-.014-.006-.029-.003-.015-.006-.029-.003-.015-.007-.03-.003-.014-.007-.028-.004-.015-.009-.029-.004-.015-.008-.029l-.01-.028-.01-.028q-.005-.014-.011-.028-.005-.014-.011-.028-.006-.014-.012-.027-.006-.014-.013-.027-.006-.014-.013-.027-.007-.014-.014-.027l-.014-.026q-.007-.013-.015-.026t-.016-.025-.016-.025-.016-.025q-.009-.013-.018-.025l-.018-.024q-.009-.012-.018-.023-.009-.012-.019-.023-.009-.012-.019-.023t-.02-.023q-.01-.011-.021-.021l-.02-.022q-.011-.01-.022-.021l-.022-.02-.022-.02q-.011-.01-.023-.019-.011-.01-.023-.019-.012-.01-.024-.019-.011-.009-.024-.017l-.024-.018q-.012-.008-.025-.016-.012-.009-.025-.017-.013-.008-.025-.015-.013-.008-.026-.015-.013-.008-.026-.015-.014-.007-.027-.013-.013-.007-.027-.014-.013-.006-.027-.012t-.027-.012l-.028-.012-.028-.01q-.014-.006-.028-.01l-.028-.01q-.015-.004-.029-.009-.014-.004-.029-.008-.014-.004-.029-.007-.014-.004-.029-.007-.014-.004-.029-.006-.015-.003-.029-.006-.015-.003-.03-.005l-.029-.004-.03-.004q-.015-.001-.03-.003l-.03-.002q-.015-.001-.03-.001-.015-.001-.03-.001h-.059q-.015.001-.03.001l-.03.002q-.015.001-.03.003-.015.001-.03.003l-.029.004-.03.004q-.014.003-.029.006-.015.002-.03.006-.014.003-.029.006-.014.003-.029.007-.014.004-.029.008-.014.004-.028.009-.015.004-.029.009-.014.004-.028.01l-.028.01q-.014.005-.028.011-.014.006-.027.012l-.028.012q-.013.006-.027.013-.013.006-.026.013-.013.007-.027.014-.013.008-.026.015-.013.008-.025.015l-.026.016q-.012.008-.025.017-.012.008-.024.017-.012.008-.024.017l-.024.018q-.012.01-.024.019l-.023.019-.022.02-.022.02q-.011.01-.022.021l-.021.021-.021.021-.02.022-.019.023q-.01.011-.02.023-.009.012-.018.023l-.018.024-.018.024q-.008.013-.017.025-.008.012-.016.025-.008.013-.016.025-.008.013-.015.026-.008.013-.015.026l-.014.026q-.007.014-.014.027-.006.013-.013.027-.006.014-.012.027l-.012.028q-.005.014-.011.028l-.01.028-.01.028q-.005.014-.009.028-.004.015-.009.029-.004.014-.007.029-.004.014-.008.029-.003.014-.006.029-.003.015-.006.029-.003.015-.005.03-.003.015-.005.029l-.004.03ZM-196.279 851.593q-.001.014-.003.029l-.002.03-.002.03q-.001.015-.001.03-.001.015-.001.03v.03q.001.015.001.03l.002.029.002.03q.001.015.003.03.001.015.003.03l.004.029q.003.015.005.03.003.014.006.029.003.015.006.029.003.015.007.029.004.015.007.029.004.015.009.029.004.014.008.029l.01.028.01.028q.005.014.011.028.005.014.011.028.006.014.012.027.006.014.013.027.006.014.013.027.007.013.014.027l.014.026q.008.013.015.026.008.013.016.025.008.013.016.025.008.013.017.025.008.012.017.025l.018.024q.009.012.018.023.009.012.019.023.009.012.019.023l.02.022q.01.011.021.022.01.011.021.022l.021.021.022.02.022.02q.011.01.023.019.011.01.023.019.012.01.024.019t.024.017l.024.018q.012.008.025.016.012.009.025.017.013.007.025.015.013.008.026.015.013.007.027.015.013.007.026.013.013.007.027.014.013.006.027.012t.027.012l.028.012.028.01.028.01.028.01q.015.004.029.009.014.004.029.008.014.004.029.007.014.004.029.007.014.003.029.006.015.003.029.006.015.003.03.005l.03.004.029.004.03.002q.015.002.03.003t.03.001.03.001h.059q.015-.001.03-.001l.03-.002q.015-.001.03-.003.015-.001.03-.003l.029-.004.03-.004q.015-.003.029-.006.015-.002.03-.006.014-.003.029-.006.014-.004.029-.007.014-.004.029-.008.014-.004.028-.009.015-.004.029-.009.014-.004.028-.01l.028-.01q.014-.005.028-.011.014-.006.027-.012l.028-.012q.013-.006.027-.013.013-.006.026-.013.014-.007.027-.015l.026-.014q.013-.008.025-.016.013-.007.026-.015.012-.008.025-.017.012-.008.024-.017.012-.008.024-.017l.024-.018q.012-.01.024-.019l.023-.019.022-.02.022-.02q.011-.01.022-.021.011-.01.021-.021.01-.011.021-.021.01-.011.02-.023.01-.011.019-.022.01-.011.02-.023.009-.012.018-.023l.018-.024.018-.024q.009-.013.017-.025.008-.012.016-.025.008-.013.016-.025l.016-.026.014-.026.014-.026q.007-.014.014-.027.006-.014.013-.027.006-.014.012-.027l.012-.028q.005-.014.011-.028l.01-.028.01-.028q.005-.014.009-.028.005-.015.009-.029.004-.014.007-.029.004-.014.008-.029.003-.014.006-.029.003-.015.006-.029.003-.015.005-.03.003-.015.005-.029l.004-.03q.002-.015.003-.03l.002-.03q.002-.014.002-.029l.002-.03v-.06q0-.015-.001-.03l-.002-.03q0-.015-.002-.03-.001-.015-.003-.029-.001-.015-.003-.03l-.004-.03q-.003-.014-.005-.029l-.006-.03q-.003-.014-.006-.029-.003-.014-.007-.029-.003-.014-.007-.029-.004-.014-.008-.029-.005-.014-.009-.028-.005-.014-.01-.029l-.01-.028q-.005-.014-.011-.028-.005-.013-.011-.027l-.012-.028q-.006-.013-.013-.027-.006-.013-.013-.027l-.014-.026-.014-.026q-.007-.013-.015-.026l-.016-.026q-.007-.012-.016-.025-.008-.012-.016-.025l-.018-.024q-.008-.012-.017-.024-.01-.012-.019-.024l-.019-.023-.019-.023-.02-.022-.02-.022-.021-.021q-.011-.011-.022-.021l-.022-.02q-.011-.011-.022-.02-.011-.01-.023-.02l-.023-.019q-.012-.009-.023-.018l-.024-.018q-.013-.009-.025-.017-.012-.009-.025-.017-.012-.008-.025-.016-.012-.008-.025-.016-.013-.007-.026-.015l-.026-.014q-.014-.007-.027-.014t-.027-.013-.027-.013q-.013-.006-.027-.012-.014-.005-.028-.011-.014-.006-.028-.011l-.028-.01q-.014-.005-.028-.009-.015-.005-.029-.009-.014-.004-.029-.008-.014-.004-.029-.008-.014-.003-.029-.007-.014-.003-.029-.006-.015-.003-.029-.005-.015-.003-.03-.005-.015-.003-.029-.004l-.03-.004q-.015-.002-.03-.003l-.03-.002-.03-.002h-.029q-.015-.001-.03-.001t-.03.001-.03.001l-.03.002-.03.002-.029.004q-.015.001-.03.003-.015.003-.03.005-.014.002-.029.005-.015.003-.029.006-.015.003-.03.007-.014.003-.029.007l-.028.008q-.015.004-.029.008-.014.005-.029.009l-.028.01q-.014.005-.028.011-.014.005-.028.011-.013.005-.027.011-.014.006-.027.012-.014.007-.027.013-.014.007-.027.014l-.026.014q-.014.007-.026.015-.013.007-.026.015l-.026.016-.024.016q-.013.009-.025.017l-.024.018-.024.018q-.012.009-.024.019-.011.009-.022.019-.012.009-.023.019t-.022.021l-.022.02q-.01.011-.021.021-.01.011-.021.022l-.02.022q-.01.011-.019.023-.01.011-.019.023-.01.011-.019.023l-.018.024-.018.024q-.008.012-.017.025-.008.012-.016.025-.008.012-.016.025-.008.013-.015.026-.008.013-.015.026l-.014.026q-.007.013-.014.027-.006.013-.013.027-.006.013-.012.027t-.012.027q-.005.014-.011.028l-.01.028-.01.028q-.005.015-.009.029-.004.014-.008.029-.005.014-.008.028-.004.015-.008.029l-.006.03q-.003.014-.006.029-.003.015-.005.029-.003.015-.005.03l-.004.03Z"/>
  </g>
</svg>
