<svg xmlns="http://www.w3.org/2000/svg" width="182.804" height="261.9493" viewBox="-95.096 738.465 137.103 196.462">
  <g stroke-linecap="round" stroke-linejoin="round">
    <path fill="#85d7f5" stroke="#85d7f5" stroke-width=".5" d="m-81.745 741.022.062.005.154-.012q.271.011.466.011.195-.001.642.021.447.022.984-.013.537-.035 1.102-.096.565-.061 1.449.006.883.066 1.646.105.763.039 1.145.048.382.009 1.088.143.706.133 1.47.106.763-.026 1.292-.064.528-.037 1.19-.043.662-.006 1.085-.025.424-.019.802-.047.379-.029.684-.032.305-.003.557.029.252.031.443.054.191.022 1.194.065l.32.102q.092.037.446.028.355-.008.684-.024.329-.017.482-.008.153.01.232.011.079.002.4.07l.171.128.185.09q.191.101.222.125.031.025.08.278.049.254.124.751.074.497.109.935.035.438.031 1.002-.005.564.035 1.125.04.562.061 1.004.02.443.032.95.012.507.024.943.012.436.032.984.019.548.012 1.134-.008.585-.018 1.048-.011.462-.022.997-.01.535-.015.988-.006.454-.008 1.011-.002.558-.019 1.184-.016.626-.025 1.41-.008.783-.006 1.662.002.878.049 1.473.048.595.1 1.079.052.484.081.988.029.504.045 1.188.017.684.018 1.203 0 .518-.012 1.05-.012.531-.018 1.077-.006.546-.002.999.004.452.011.913.006.46.034 1.079.028.619.045 1.174.018.555.036 1.252t.029 1.184q.011.488.015.904.004.417 0 .765-.004.347-.057 1.2-.053.853-.139 1.42-.086.567-.154.939-.067.372-.132.778-.066.406-.123.841-.057.435-.144 1.179-.088.745-.121 1.157-.034.412-.053.868-.019.457-.038 1.095-.019.638-.026 1.113-.007.475.003.943.01.468.03.76.019.292.041.505.023.214.038.312.016.098.044.42.029.323.057.782.029.459.072.916t.119 1.16q.075.702.157 1.302.081.599.113.977.033.378.053.602.019.224.03.316.01.091.044.436.034.344.069.807.034.464.039.483.006.02.068.758.063.739.097 1.384.034.646.047 1.42.013.774-.012 1.872-.011.55-.023.968-.013.418-.034.849-.022.43-.048 1.145-.013.358-.029.695-.015.336-.032.653-.018.316-.042.805-.024.489-.047.986t-.036.839q-.012.342-.023.696-.01.353-.018.717-.008.365-.015.741l-.012.75q-.007.374-.013.746-.007.372-.013.742-.007.37-.015.738-.007.369-.014.665-.007.296-.016.629-.009.334-.011.479-.003.146-.023.678-.02.533-.04 1.032-.02.5-.042 1.143-.023.643-.033 1.145-.009.502-.004 1.041.005.538.01.705.006.166.025.514.019.348.073.866.053.519.13.966.077.447.142.734.066.287.142.557.076.271.19.618.113.347.272.762.159.415.354.901.195.487.357.911.161.424.284.79.123.367.212.675.088.309.18.683.093.373.167.757.073.384.144.778.071.393.154.809.082.416.155.726t.169.649q.096.34.172.576.076.237.144.447.068.21.109.393.042.183.054.342.013.159.005.185-.008.026-.09.609-.369.269-.425.33-.057.061-.473.343-.416.282-.794.558-.378.275-.878.6-.501.324-.921.583-.42.26-.906.56-.485.3-.982.64-.497.341-.99.715-.493.375-.864.672-.37.298-.77.625-.4.328-.784.626-.383.298-.741.597-.359.298-.8.71-.442.411-.782.738-.341.327-.592.619-.252.292-.448.557-.196.265-.429.593-.233.327-.394.548-.162.22-.244.345-.082.125-.285.425-.203.3-.549.769-.346.468-.822.887t-.957.833q-.482.415-.85.719t-.594.499q-.226.196-.57.515-.344.318-.624.591-.28.274-.602.608-.322.334-.624.668-.301.335-.582.667-.281.333-.545.663-.263.33-.51.658t-.457.619q-.21.29-.473.671-.262.381-.495.742-.232.36-.465.747-.234.386-.467.802-.232.415-.424.773-.192.359-.424.808-.232.45-.388.749-.155.299-.454.851-.299.552-.629 1.146-.331.593-.532.92-.201.326-.467.705-.266.379-.359.51-.093.132-.232.23-.14.098-.204.121-.065.022-.155.018-.032.005-.295-.218.076-.563.165-1.188.09-.625.167-1.141.077-.515.132-.873.054-.357.112-.728l.118-.757q.061-.385.126-.783.064-.399.13-.802.066-.404.135-.812.068-.408.139-.821.072-.413.147-.831.076-.417.155-.832.078-.414.16-.825.083-.411.169-.819.086-.407.176-.812.089-.404.179-.799.091-.396.179-.782t.173-.763q.084-.377.162-.745.078-.367.146-.723.069-.355.155-.87.085-.515.164-1.153.079-.637.13-1.223.05-.586.083-1.12.033-.534.058-1.022.025-.487.046-.927l.04-.843q.02-.402.037-.766.017-.364.032-.699.015-.336.035-.796.02-.461.036-.997.016-.536.026-1.022.009-.486.014-.943.005-.456.008-.896.002-.44.003-.872l.002-.858v-3.397q-.001-.424-.001-.848v-1.694q-.001-.424-.001-.848v-1.694q-.001-.424-.001-.848v-1.694q-.001-.424-.001-.848v-1.694q-.001-.424-.001-.848V819.823q-.001-.423-.001-.847v-1.694q-.001-.424-.001-.848v-1.694q0-.424-.001-.848v-1.694q0-.424-.001-.848v-1.694q0-.424-.001-.848v-1.694q0-.424-.001-.848v-1.694q0-.424-.001-.848v-1.694q0-.424-.001-.848v-1.694q0-.424-.001-.848v-1.694q0-.424-.001-.848v-2.542q-.001-.423-.001-.847V791.014q-.001-.423-.001-.847V788.472q-.001-.423-.001-.847V785.93q-.001-.423-.001-.847V783.388q-.001-.423-.001-.847V780.846q-.001-.423-.001-.847V778.304q-.001-.423-.001-.847V775.762q-.001-.423-.001-.847V773.22q-.001-.423-.001-.847V770.678q0-.423-.001-.847V768.136q0-.423-.001-.847V765.594q0-.423-.001-.847V763.052q0-.423-.001-.847V760.51q0-.423-.001-.847V757.968q0-.423-.001-.847V755.426q0-.423-.001-.847V752.884q0-.423-.001-.847V750.342q0-.423-.001-.847v-2.542q-.001-.424-.001-.847V744.411q-.001-.424-.001-.847V741.869q-.001-.424-.001-.847Z"/>
    <path fill="#85d7f5" stroke="#85d7f5" stroke-width=".5" d="m-60.321 824.194-.012.026q-.013.054-.027.694-.014.64.011 1.118.026.478.05.708.024.229.04.369.017.139.039.68.022.54.087 1.082.065.541.134 1.044t.13 1.131q.062.628.173 1.314.111.687.186 1.033.074.345.223.887.15.542.248.879.098.337.244.871.065.146.078.19.013.044.367.683l.122-.003q.006-.001.22.001.213.001.333-.019.12-.019.335-.042.215-.023.262-.039.046-.016.168-.067.121-.052.209-.087.089-.034.242-.082t.239-.079q.087-.031.218-.096.13-.064.192-.103.062-.039.377-.208.315-.169.545-.296.229-.126.437-.273.207-.147.427-.3.219-.152.537-.345.319-.194.404-.242.084-.049.534-.345.45-.297.888-.576.438-.278.731-.453.292-.175.625-.374.332-.198.813-.431.481-.232.918-.46.437-.229.872-.434.434-.205.747-.346.314-.142.506-.237t.427-.212q.234-.117.553-.241.318-.124.505-.174.187-.049.364-.121.177-.071.28-.116.104-.045.199-.085.096-.039.135-.063.039-.024.363-.128.323-.105.606-.188.282-.084.522-.169.24-.085.425-.147.184-.062.378-.099.193-.037.585-.18.393-.143.621-.23.228-.087.437-.142.21-.055.333-.083.123-.029.287-.083.164-.054.406-.14.242-.086.395-.137.154-.052.25-.083.096-.031.174-.059.079-.029.284-.111.204-.082.321-.109.116-.028.47-.131.354-.103.541-.146.188-.043.33-.061.142-.018.21-.023.068-.006.66-.11.591-.104.908-.115.317-.01.857-.083.54-.073.832-.119.291-.047.59-.074.299-.028.606-.027.307.001 1.077-.117.77-.117 1.166-.198.397-.081.981-.101.585-.019 1.072-.032.487-.014 1.025-.046.538-.032 1.888.078 1.35.111 1.799.115.448.004 1.238-.026.79-.029 2.293-.067 1.502-.038 2.769-.057 1.267-.019 2.254.012.986.032 1.836.042.849.011 1.579.084.73.073 1.099.121.368.049 1.177.022.809-.027 1.341-.059.532-.031.811-.029.279.001.747-.049.469-.049 1.086-.185.617-.136.917-.227.299-.09.473-.209.173-.119.265-.22.092-.101.157-.198.066-.097.135-.225.069-.129.266-.463.196-.334.336-.647.139-.312.2-.563.062-.251.113-.511.052-.26.105-.451.054-.19.109-.374.056-.183.071-.251.016-.068.085-.487.068-.419.094-.552.025-.134.019-.53-.006-.396-.026-.603-.02-.206-.039-.278-.02-.071-.06-.277-.04-.206-.085-.353-.045-.146-.082-.228-.037-.081-.18-.319-.143-.239-.288-.391-.145-.152-.251-.234-.106-.081-.113-.09-.007-.009-.21-.134-.203-.126-.477-.249-.274-.123-.469-.206-.195-.084-.28-.126-.085-.043-.422-.201-.337-.157-.745-.31-.408-.152-.8-.293-.391-.142-.832-.315-.44-.173-1.164-.38-.723-.207-1.118-.307-.395-.1-.776-.192t-1.063-.136q-.682-.044-1.466-.141-.785-.096-1.384-.222-.599-.126-.892-.197-.293-.07-.682-.185-.388-.115-1.01-.235-.623-.121-1.19-.211-.567-.091-.917-.13-.351-.039-.733-.055-.383-.016-.882-.07-.499-.054-1.084-.09-.584-.037-.968-.064-.385-.027-.808-.089-.423-.061-.732-.099-.309-.038-.804-.045-.495-.008-1.04-.033t-.857-.025q-.312 0-.552.021-.239.021-.742.079-.503.058-.812.071-.309.013-.502-.005-.193-.019-.405-.054-.211-.035-.954.005-.744.04-1.267.104-.524.064-.983.139-.459.075-.981.129-.521.054-.894.098-.374.044-.73.129t-.807.159q-.451.073-.802.144-.352.07-.509.114-.157.043-.354.115-.197.073-.789.305-.592.232-.898.341-.307.11-.444.152-.137.042-.463.125-.327.083-1.028.37-.702.287-1.159.473-.458.186-1.111.404-.653.218-1.067.325-.413.107-.664.141-.252.034-.892.198t-1.1.291l-.666.184q-.206.056-.544.189-.338.133-.503.196-.165.062-.714.306-.55.243-.856.41-.306.166-.788.432-.482.266-.696.376-.214.11-.456.236-.242.126-.372.195t-.511.224q-.382.154-.622.244-.239.089-.488.149l-.251.013"/>
    <path fill="#85d7f5" stroke="#85d7f5" stroke-width=".5" d="m-3.232 816.681-.052-.018q-.016-.003-.29-.016-.274-.014-.742-.037-.468-.024-.728-.055-.26-.03-.517-.065-.258-.036-.805-.131t-1.047-.218q-.499-.124-1.101-.207-.603-.083-.952-.127-.35-.045-.775-.165-.426-.12-.745-.205-.32-.085-.698-.143-.378-.059-.578-.087-.199-.028-.447-.078t-.449-.095q-.201-.046-.459-.083-.258-.037-.444-.089-.186-.053-.33-.126-.145-.073-.376-.144-.231-.072-.338-.103-.106-.032-.136-.04-.03-.008-.176-.067-.147-.058-.236-.113l-.128-.079q-.038-.024-.108-.06-.071-.036-.113-.058-.043-.021-.106-.077-.063-.055-.081-.137.006-.018.186-.148.18-.131.33-.217.149-.086.282-.18.132-.094.405-.31.272-.215.742-.522.47-.307.803-.529.332-.223.732-.519.4-.297.779-.56.379-.264 1.662-.93 1.283-.665 1.947-.989.664-.323 1.094-.51.431-.187.675-.283.244-.096.676-.275.431-.179.825-.332.395-.153.916-.327.522-.174 1.134-.421.613-.247 1.203-.448.59-.201.955-.308.365-.108.99-.306.626-.199.995-.326.368-.128.736-.286.367-.158 1.18-.43.814-.272 1.409-.458.595-.186.896-.281.302-.095 1.373-.388 1.071-.293 1.662-.45.591-.156 1.034-.279.444-.124.869-.215.424-.09.868-.196.444-.106.685-.152.24-.047.572-.094.332-.047.712-.086.379-.038.634-.072.255-.034.559-.063.304-.028.656-.054.353-.025.463-.034.111-.009.156-.017.045-.007.34-.025.294-.018.867-.011.573.007.882.028.309.021.681.035.372.014.604.03.232.015.311.023.079.008.417.029.337.021.533.039t.284.021q.088.003.316.022.227.019.441.032.215.012.365.007.151-.004.338.003.187.008.388.028.201.019.527.06.326.04.554.085.229.045.616.073.387.028.58.048.192.021.316.042.124.022.303.064.179.043.46.129.281.086.564.173.283.087.701.218.419.132.802.269.383.137.995.427t.896.448q.284.158.44.251.156.093.178.113.022.021.66.397t.75.444q.113.067.319.213.207.146.305.219.097.073.166.142.07.069.221.215.152.145.402.383.25.237.328.312.078.075.153.158.076.083.142.159.067.077.095.105.028.027.381.453t.51.673q.156.246.479.698.323.452.512.725.188.272.32.531.133.259.465.772t.538.808q.206.295.403.683.198.389.27.587.073.198.318.935.246.737.459 1.561.213.824.303 1.294.09.47.1.685.011.215.007.365-.004.15-.041.447-.038.298-.063.54-.026.242.046.807.072.564.137.882.064.318.055.83-.008.512-.041.8-.033.288-.053.639-.019.351-.05.631-.03.28-.083.506-.052.227-.107.48t-.09.508q-.034.255-.074.443-.04.187-.068.292-.029.105-.093.237-.065.132-.113.211-.049.079-.126.188-.078.109-.137.284-.06.175-.108.378-.048.204-.107.386-.059.182-.16.314-.1.133-.171.214-.071.08-.111.145-.041.064-.123.229-.081.164-.171.335-.09.17-.168.265-.078.095-.178.192-.099.096-.123.131-.024.035-.146.199t-.181.226l-.095.098q-.035.037-.062.083-.026.046-.089.19-.062.144-.074.176-.012.032-.046.116t-.064.128q-.03.044-.052.069-.022.026-.041.061-.01-.06-.001-.123.009-.063.028-.178.02-.115.05-.209.031-.093.077-.246.045-.153.09-.427.044-.274.087-.591.042-.318.132-.685.09-.366.188-.856.098-.489.157-.77t.101-.44q.043-.159.09-.314.046-.154.098-.379.052-.224.064-.568.013-.345.021-.498.008-.153.02-.317.012-.163.115-.513.103-.349.191-.563.087-.215.144-.421.057-.206.112-.403.055-.198.086-.355.032-.156.037-.234.006-.078.016-.219.01-.141.009-.2-.001-.06-.023-.216-.023-.155-.231-.925-.209-.77-.457-1.372-.248-.603-.398-.91-.15-.307-.28-.522-.131-.214-.223-.358-.091-.144-.19-.332-.099-.188-.231-.414-.132-.227-.349-.501-.217-.273-.392-.497-.176-.224-.281-.36-.106-.137-.169-.214-.062-.077-.175-.207-.113-.13-.236-.254-.123-.124-.305-.314-.181-.19-.386-.458-.204-.268-.373-.486-.17-.218-.236-.309-.065-.091-.113-.16-.049-.07-.08-.118-.032-.048-.053-.074-.021-.027-.025-.039-.005-.011-.432-.482t-.736-.737q-.309-.266-.47-.38-.162-.115-.436-.265-.275-.149-.674-.343-.399-.193-.644-.289-.244-.096-.574-.223-.33-.127-.679-.216-.35-.088-.811-.193-.46-.105-.7-.158-.24-.053-.343-.066l-.35-.047q-.246-.033-.47-.066-.224-.033-1.079-.163-.854-.129-1.333-.189-.479-.059-.829-.077-.35-.018-.764-.025-.413-.007-.736-.036-.323-.028-.725-.022-.402.007-.992.04-.589.033-1.058.073-.47.04-.993.108-.523.069-.885.126-.363.058-.743.121-.381.064-.858.139-.476.075-1.194.241-.719.165-1.137.281-.419.117-1.043.367-.623.25-.972.4-.348.15-.634.284-.285.134-.478.236-.193.102-.318.157-.125.055-.54.195-.414.141-.476.161-.063.019-.526.148-.284.081-.48.143-.593.322-1.186.645t-1.188.648q-.595.326-1.192.655-.596.328-1.195.66-.598.331-1.198.665-.6.333-1.201.669-.601.335-1.202.671-.602.336-1.204.673Z"/>
    <path fill="#85d7f5" stroke="#85d7f5" stroke-width=".5" d="M-20.14 894.984q.01.087.009.219-.002.133.012.379.013.246.042.65.028.403.054.74.026.337.063.742.036.405.058.705.022.301.088.979.065.677.239 1.705.174 1.027.259 1.554.084.526.206 1.306.123.78.216 1.25.092.471.187 1.048.095.578.236 1.517.142.938.18 1.368.038.43.08 1.416.042.987.096 1.667t.051.695q-.003.015.071.728.074.712.19 1.297.115.585.191.887.077.301.287 1.024.21.723.337 1.216.126.492.764 1.581.016.021.311.056.295.034.32.043.024.008.507-.061.482-.069.96-.155t.77-.144q.291-.058.496-.116.204-.058.336-.099.132-.041.409-.115.277-.074.637-.134.359-.061.845-.133.485-.073 1.511-.397 1.027-.325 2.047-.607 1.02-.282 1.617-.427.597-.144 1.344-.452.747-.307 1.417-.576.671-.268.97-.358.3-.091.77-.259.469-.167.94-.39.471-.222 1.018-.424.547-.201 1.256-.503t1.249-.51q.539-.208.825-.298.286-.09.864-.327.578-.236 1.124-.51.546-.274.855-.413.309-.139 1.142-.513.833-.375 1.257-.588.425-.212.92-.484.495-.271 1.013-.552.517-.28 1.053-.645.536-.365.926-.665.391-.3.954-.678.564-.379 1.048-.766.484-.388.715-.603.23-.215.402-.365.171-.151.226-.194.055-.043.366-.279.311-.237.582-.478.27-.241.393-.386.123-.145.793-.787.671-.641 1.053-1.014.382-.374.57-.556.188-.182.535-.557.347-.375.756-.849.41-.473.993-1.145.582-.673 1.194-1.541.611-.869.924-1.337.313-.468.501-.76.188-.291.326-.513.137-.222.298-.476.16-.254.695-1.126.534-.872.98-1.565.446-.692.653-1.014.207-.322.36-.611t.347-.638q.194-.349.259-.452.066-.103.404-.826.339-.722.548-1.193.209-.471.321-.69.111-.218.331-.799.22-.582.414-1.101.195-.52.451-1.136.257-.617.385-.974.129-.358.195-.588.067-.23.253-.762.186-.533.333-1.014.146-.481.192-.722.045-.242.189-.828.143-.587.247-1.079.104-.492.134-.686.029-.193.122-.425.094-.232.282-.899.188-.668.286-1.094.098-.425.138-.703.04-.278.067-.448.026-.17.077-.41.05-.24.118-.563.068-.322.12-.828.053-.505.121-.922.068-.417.131-.887.063-.47.09-1.611.026-1.14 0-1.95-.026-.811-.035-1.203-.009-.393-.041-.729-.032-.337-.11-1.123-.079-.786-.192-1.388-.113-.601-.198-1.319t-.156-1.386q-.071-.668-.181-1.241-.111-.573-.238-1.188-.127-.616-.21-1.123-.083-.507-.188-.969-.106-.462-.281-1.002-.175-.54-.351-1.207-.175-.667-.341-1.153-.166-.485-.36-.865-.194-.38-.305-.579-.11-.199-.202-.376-.091-.177-.139-.275-.047-.098-.188-.444-.141-.346-.295-.751-.154-.404-.474-.936-.319-.532-.513-.807-.193-.274-.464-.795t-.45-.885q-.178-.363-.372-.664-.194-.3-.404-.627-.209-.327-.35-.64-.141-.314-.371-.957t-.515-1.312q-.285-.67-.588-1.255-.303-.586-.465-.854-.162-.267-.284-.442-.121-.174-.483-.636t-.836-1.184q-.474-.722-.765-1.153-.291-.43-.874-1.139-.583-.708-.972-1.277t-.643-.905q-.254-.337-.374-.48-.12-.143-.412-.456-.292-.312-.568-.603-.276-.29-.633-.662-.357-.372-.647-.664-.291-.291-.626-.607-.336-.315-.787-.626-.452-.311-.899-.621-.447-.309-.669-.482-.223-.173-.749-.637-.526-.463-.819-.714-.293-.251-.664-.497-.372-.246-1.013-.642-.642-.396-1.218-.801-.577-.406-1.072-.682-.495-.277-.864-.435-.369-.159-.607-.272-.239-.114-.677-.384-.437-.27-.681-.434-.244-.163-.52-.311-.276-.149-.328-.172-.053-.024-.445-.206-.392-.183-1.132-.553-.74-.371-1.331-.675-.591-.304-1.037-.53-.895-.443-1.486-.735-.59-.293-.873-.405-.283-.112-.461-.172-.178-.06-.204-.073-.025-.013-.485-.124-.461-.112-.909-.176-.448-.065-.567-.085-.12-.02-.312-.046-.192-.025-.377-.042-.186-.017-.274-.021-.088-.004-.804-.049-.716-.045-1.114-.05-.397-.005-.898.01-.501.016-.72.036-.219.021-.741.143-.523.121-1.094.257-.57.135-1.166.346-.596.21-1.214.51-.618.3-1.202.711t-1.18.932q-.596.52-1.366 1.239-.77.718-1.197 1.149-.426.431-.861.884-.436.453-1.217 1.346-.78.893-.931 1.061-.152.169-1.221 1.548-1.069 1.379-1.629 2.134-.56.754-.926 1.351-.365.597-.94 1.589-.574.991-.696 1.223-.122.232-.183.361-.062.13-.305.666t-.369.886q-.125.35-.187.563-.061.213-.182.794-.12.581-.123 2.48.067.049.275.228.209.18.665.345.456.166.912.239.455.073 1.366.308t1.544.405q.632.169.914.237.281.068.452.119.171.05.238.06.067.01.987.422.92.413 1.45.706.531.293 1.035.646.504.353.937.622.434.27.957.624.524.354.941.67.416.316.625.49.208.174.246.212.039.038.602.667.563.63.909 1.144.347.515.618.974.271.458.577.939.305.481.736 1.312.43.83.853 1.733.424.903.657 1.406.233.503.445.878.211.374.448.849.238.474.436 1.069.197.595.41 1.176.212.581.458 1.352.246.77.338 1.157.092.387.159.677.067.29.109.439.042.149.185.758.144.609.226 1.108.083.499.125.762.041.262.099.749t.094 1.139q.036.653.063 1.637.027.985.031 1.733.004.747-.016 1.507-.019.76-.058 1.257-.038.497-.088.839-.05.342-.291 1.509-.121.584-.219 1.039-.099.456-.215.947-.116.491-.202.865-.087.375-.262 1-.176.626-.312 1.134-.136.509-.225.8-.089.291-.174.489-.085.197-.145.342-.06.145-.133.323-.073.178-.223.482-.149.304-.259.487-.11.183-.488.733t-.77 1.058q-.391.508-.745.978-.355.471-.554.739-.2.269-.35.446-.15.178-.624.727-.473.549-.76.91-.288.362-.57.662-.283.299-.495.544-.211.245-.426.49-.214.245-.622.781-.409.536-.564.683-.156.147-.257.26-.101.114-.201.229-.099.115-.242.233-.142.118-.237.201-.095.082-.145.131-.051.049-.142.115t-.183.112q-.092.046-.112.053-.019.008-.179.06-.159.052-.439.165l-.209-.011q-.568.274-1.13.556-.562.281-1.118.569-.556.289-1.109.582-.553.292-1.106.588Z"/>
    <path fill="#85d7f5" stroke="#85d7f5" stroke-width=".5" d="M-22.932 840.801q.024-.103.12-.4.095-.298.264-.786.169-.488.316-.884.147-.397.334-.858.187-.462.294-.703.107-.241.298-.666.192-.425.504-1.112t.541-1.197q.23-.51.451-1.011.22-.501.312-.75.092-.25.229-.583.137-.333.35-.834.213-.5.383-.902.169-.403.296-.708.252-.61.387-1.006t.227-.697q.093-.302.24-.861.146-.56.16-.852.013-.293-.021-.428-.035-.136-.09-.195-.056-.059-.098-.08-.042-.022-.068-.029-.026-.008-.246-.038-.221-.031-.466-.044-.246-.013-.528-.003-.282.011-.436.027-.154.016-.48.023-.326.007-.67-.021-.344-.027-.563-.049-.219-.022-.508-.048-.289-.025-.411-.038-.122-.013-.376-.049-.253-.036-.813-.059-.559-.023-1.007-.011-.447.011-.936.02-.49.008-.73.02-.241.011-.56.065-.32.053-.801.145-.481.093-.85.163-.368.07-.749.149-.382.08-.987.107-.605.028-1.282.064-.676.036-1.205.099t-.791.113q-.261.05-.563.119-.301.07-.832.198-.531.127-1.122.365-.59.238-.99.449-.399.211-.583.33-.184.118-.393.279-.209.162-.403.326-.194.164-.23.204-.036.04-.197.191-.161.152-.689.689-.529.536-.827.856-.298.32-.661.666-.363.346-.651.623-.287.278-.621.6-.334.322-.689.648-.356.326-.734.657-.378.332-.662.587-.283.256-.565.533-.281.277-.531.513-.251.236-.421.393-.17.157-.295.292-.125.135-.18.2-.055.064-.212.24-.158.175-.437.482-.279.308-.585.628-.305.321-.638.655-.332.334-.598.591-.267.257-.567.528-.3.271-.633.57-.334.299-.595.553-.262.254-.612.564-.351.311-.58.52-.23.209-.659.696-.429.487-.716.798-.287.311-1.011 1.062-.725.75-1.111 1.16-.386.409-.879.853-.492.443-.849.792-.356.348-.705.722-.348.373-.669.704-.321.33-.96.988-.64.657-1.014 1.054t-.56.582q-.186.186-.338.318-.153.133-.602.611-.449.478-.71.768-.261.289-.592.649-.331.361-.614.718-.283.356-.543.669-.26.312-.877 1.103-.617.792-1.078 1.381-.461.589-.713.925-.252.335-.68.913-.427.578-.725.952-.297.374-.65.853-.353.479-.615.858-.263.38-.49.704-.227.324-.378.543-.15.219-.386.557-.235.339-.353.505-.118.165-.562.722-.445.558-.668.846-.223.289-.503.632-.279.343-.649.78-.371.438-.66.808-.289.37-.57.727-.141.178-.39.533-.248.355-.605.886t-.651.963q-.294.432-.642.931-.348.499-.559.818-.211.319-.53.81-.319.491-.77 1.147-.452.656-.794 1.2-.342.544-.718 1.196-.376.651-.653 1.146-.277.494-.546.999-.269.506-.54 1.355t-.355 1.519q-.085.67-.045 1.56.04.889.34 1.966.3 1.076.564 1.695.263.619.488 1.125.225.506.355.786.13.281.46.912.329.63.674 1.162.346.532.603.861.256.329.641.863.384.535.73 1.039.346.504 1.094 1.443.365.474.651.856.285.383.602.814.316.432.744.939.428.507.631.73.203.223.657.759.455.537.936 1.025.482.489 1.039 1.01.557.521.847.786.289.265.482.428.192.164.258.212.067.049.511.433t.824.769q.381.386.705.706.324.32.52.508.197.188.5.448.303.259.801.756.498.498.769.779t.733.681q.462.399.946.821.484.422.855.697.37.276.591.414.221.138.521.302.3.164.737.441.437.278.679.446.242.169.528.355.286.186.529.327.243.141.636.342.394.201.939.51l.951.54q.406.23.851.49.445.26.779.466.335.206.67.419.336.213.919.616t1.037.664q.453.26 1.113.4.66.139 1.218.026.558-.113.785-.223.227-.11.806-.517.579-.407.942-.803.362-.395.605-.75t.404-.625q.16-.27.452-.833.291-.563.588-1.173.297-.611.574-1.156.277-.545.51-.965.233-.42.516-.885.283-.465.545-.879.261-.414.619-.972.357-.558.723-1.085.367-.527.718-.997.352-.47.7-1.17.347-.7.542-1.192.194-.492.54-1.232.345-.74.501-1.089.156-.349.344-.914.189-.565.311-.926.121-.36.274-.768.153-.408.261-.81.109-.402.187-.913.078-.512.148-1.078.07-.565.096-.807.025-.242.02-.455-.006-.213-.024-.398-.018-.185-.038-.271-.02-.087-.032-.112-.013-.025-.037-.093-.025-.068-.115-.297-.091-.228-.195-.391-.105-.163-.164-.234-.06-.071-.157-.189-.098-.117-.135-.168-.036-.051-.425-.468-.388-.417-.797-.883-.41-.466-.602-.684-.192-.219-.274-.304-.082-.085-.176-.19-.093-.105-.393-.49-.299-.386-.499-.628-.2-.243-.388-.532-.187-.289-.427-.706-.241-.417-.402-.685-.161-.269-.289-.449-.128-.181-.261-.379-.132-.198-.299-.509-.167-.31-.26-.486t-.221-.44q-.128-.264-.316-.674-.189-.41-.329-.728-.141-.318-.286-.656-.146-.338-.272-.642-.126-.305-.233-.595-.107-.29-.24-.668-.134-.377-.243-.697-.109-.319-.19-.581-.084-.261-.181-.646-.097-.384-.226-.893-.13-.509-.233-.877-.102-.368-.174-.623-.071-.254-.136-.566-.065-.312-.151-.766t-.162-.892q-.075-.438-.135-.86-.059-.421-.102-.787-.042-.366-.067-.678-.026-.311-.048-.674-.022-.362-.038-.776-.016-.414-.023-.748-.007-.334-.007-.716-.001-.382.029-.802.03-.421.059-.675.028-.254.042-.433.014-.179.054-.473t.115-.761q.074-.467.146-.846.073-.379.177-.818.103-.438.265-.964.161-.527.33-1.198.168-.671.314-1.229t.605-1.691l.369-.933q.144-.364.243-.599l.21-.498q.11-.263.325-.79.214-.527.406-1.006.191-.48.568-1.185.377-.706.628-1.095t.446-.666q.194-.277.328-.461t.36-.499q.226-.316.426-.569.2-.254.398-.479.198-.226.613-.642.416-.417.705-.67.288-.254.54-.477.252-.223.462-.403.21-.18.434-.368.225-.189.337-.285.112-.097.501-.404.389-.308.857-.69.467-.382.744-.585.277-.202.446-.304l.548-.331q.379-.23.576-.338.198-.107.348-.174.151-.067.535-.262.383-.196.726-.35.343-.154.513-.222.169-.067.375-.157.207-.09 1.398-.392.07.026.221.021.404-.017.807-.038.402-.021.802-.046.401-.024.802-.049.4-.025.802-.047.401-.022.805-.04.403-.018.809-.03t.815-.018q.408-.007.818-.008Z"/>
    <path fill="#85d7f5" stroke="#85d7f5" stroke-width=".5" d="M-50.059 914.835q-.017.096.134.453.15.356.327.585.177.229.403.404.226.175.602.336.376.161.699.294.323.134.633.29.31.157.644.289.334.132.783.24.448.108.744.185.295.078.652.227.357.148.589.236.233.087.36.123.127.037.491.105t.567.11q.203.041.388.096t.469.142q.285.086.714.171.43.084.736.166.307.082.452.134.145.052.431.175.287.123.827.273.541.15.845.221.304.071.676.195.371.123.627.203.256.079 1.156.157.9.077 1.658.147.759.07 1.38.095.621.024 1.295-.001.675-.025 1.382.005.708.029 1.211.069.503.039 1.088.088.585.049.855.063.271.014 1.401-.102 1.129-.117 2.155-.242 1.027-.125 1.497-.193.471-.069.718-.113.246-.044.522-.105.276-.062.768-.162.492-.101 1.035-.229.544-.128.878-.204.334-.077.717-.193.384-.116.526-.176.142-.06.288-.144.147-.083.228-.141.081-.058.104-.075.023-.017.085-.092.063-.075.109-.16.047-.085.101-.295.053-.21.086-.429.033-.219.022-.579-.012-.36-.043-.578-.032-.217-.119-.551-.087-.334-.165-.819-.077-.486-.187-1.138-.11-.653-.181-1.049-.071-.397-.094-.625-.023-.228-.049-.797-.026-.569-.06-.987-.033-.418-.125-.943-.092-.525-.15-.944-.058-.419-.105-.803-.048-.384-.082-.631-.033-.247-.187-.91-.154-.664-.222-1.164-.068-.5-.119-.803-.051-.303-.085-.457-.035-.153-.111-.433-.076-.279-.154-.792-.079-.513-.14-1.32-.061-.806-.161-1.538-.1-.733-.182-1.12-.081-.386-.169-.719-.087-.332-.187-.829-.101-.497-.152-.775-.052-.279-.079-.43-.026-.152-.068-.412-.041-.259-.063-.441t-.027-.281q-.006-.098-.005-.144.001-.045-.005-.133-.006-.087-.02-.146-.015-.059-.116-.252-.012-.006-.064-.075-.064.002-.205.003-.141.002-.274.017-.133.015-.153.017-.021.001-.233.018-.212.017-.599.1-.386.083-.589.135-.203.052-.424.099-.221.047-.346.075-.125.028-.429.11-.304.081-.441.113-.136.032-.302.06-.166.027-.328.051l-.407.06q-.244.035-.622.042-.378.008-.575.002-.197-.005-.346-.002-.149.003-.243.006-.094.002-.271-.009-.177-.012-.513-.029-.337-.018-.62-.026-.284-.008-.72-.064t-.666-.102q-.229-.047-.437-.103-.208-.055-.347-.078-.139-.022-.268-.04-.129-.017-.326-.067-.198-.051-.257-.065-.059-.014-.237-.055-.177-.041-.328-.08-.15-.038-.255-.075-.105-.036-.325-.081-.22-.044-.333-.068-.112-.023-.184-.045-.071-.022-.136-.046l-.176-.065q-.11-.04-.309-.115-.199-.074-.286-.115-.087-.042-.3-.151-.214-.108-.435-.193t-.392-.166q-.171-.081-.272-.143-.101-.061-.243-.143-.141-.083-.302-.184-.16-.101-.332-.204-.172-.103-.261-.159-.089-.057-.212-.14-.124-.084-.166-.108-.041-.025-.234-.098-.192-.074-.251-.104-.06-.03-.11-.057-.051-.027-.108-.052-.058-.026-.197-.077-.138-.051-.229-.094-.091-.043-.158-.074-.066-.032-.164-.07-.098-.038-.106-.04-.008-.002-.06-.022-.052-.02-.182-.099-.129-.079-.223-.128-.094-.05-.152-.079-.057-.028-.119-.071l-.127-.055M-81.27 879.179q-.001.02-.031.105-.03.085-.041.155-.011.069-.022.165-.011.095-.033.616-.023.521.031 1.067.053.546.133.919.081.372.243.893.163.52.288 1.017.126.496.248.906.121.41.298.889.178.48.349.901.171.422.483 1.034l.467.916q.155.304.331.685.177.381.322.683.145.303.404.93.26.627.288.825.028.199.035.271.008.073.009.218.002.144-.01.232-.012.088-.069.271-.057.182-.149.448-.093.265-.24.642t-.257.615q-.11.239-.508 1.067-.398.829-.61 1.191-.212.361-.409.763-.198.401-.441.966-.243.566-.374.91-.131.344-.183.5-.052.155-.162.45-.111.295-.253.614-.142.318-.245.571-.102.254-.305.802-.202.549-.363.959-.16.41-.301.924-.141.513-.211.751-.069.238-.185.53-.116.292-.238.815-.123.522-.238 1.069-.116.546-.197 1.036-.082.489-.134.767-.053.277-.099.417-.046.141-.177.35-.131.21-.234.322-.104.112-.154.139-.05.027-.141.057-.091.03-.176.032-.086.002-.468-.006-.383-.009-.759-.065-.375-.056-.751-.163-.376-.107-.728-.205-.353-.099-.712-.241-.359-.143-.589-.266-.231-.124-.419-.224-.187-.1-.404-.199-.217-.099-.526-.326-.309-.227-.607-.48-.297-.253-.487-.439-.189-.186-.389-.465-.199-.279-.273-.414-.074-.134-.139-.278-.064-.144-.115-.305-.051-.161-.09-.401-.039-.241-.026-.825.013-.584.05-.968.038-.384.064-.605.026-.221.083-.519.058-.298.11-.503.053-.205.159-.568.106-.364.205-.967.099-.603.188-1.097.088-.494.209-.928.122-.435.196-.702.075-.268.201-.903.127-.636.203-.966.076-.33.187-.67.11-.34.279-.761.169-.42.33-.999.161-.58.375-1.228.215-.648.338-.963.123-.316.238-.713.115-.398.258-.831.144-.434.396-.895t.441-.8q.19-.34.31-.618.121-.278.195-.445.074-.167.247-.481.173-.314.411-.629.239-.315.409-.562.169-.247.345-.54.176-.293.495-.837.476-.676.953-1.352.477-.675.955-1.351.478-.675.956-1.351.479-.675.957-1.351Z"/>
    <path fill="#85d7f5" stroke="#85d7f5" stroke-width=".5" d="M-91.492 906.91q-.024.026-.054.066-.03.04-.083.148-.054.107-.134.328-.08.221-.12.368-.039.148-.044.165-.005.017-.083.436-.077.418-.105.94-.028.522-.008 1.071.02.548.04 1.441.019.893.042 1.615.022.721.042 1.189.02.467.099 1.35.08.884.178 1.427.099.544.175.823.077.278.236.668.16.39.357.986.197.595.335.977t.423.928q.284.545.504.983.221.438.441.893t.478.869q.257.413.468.687.21.274.507.602.297.327.592.586.295.259.612.465.318.205.494.31.177.105.272.163.095.059.458.315.363.255.678.468.315.213 1.011.663.695.449 1.265.808.571.359.898.552.326.194.465.276.138.083.495.307.356.223.762.444.405.221.61.307.205.086.418.16.214.074.643.219.43.146.669.223.239.077.534.139.295.063.933.071.637.008 1.562.07.926.061 1.605.085.679.024 1.406-.006.726-.031 1.205-.043.479-.012.921-.012.442-.001 1.054-.022.613-.021 1.107-.087.495-.067 1.146-.247.65-.179 1-.281.349-.101.529-.141.18-.039.381-.076.2-.037.799-.122.599-.086 1.383-.291t1.426-.37q.642-.165 1.166-.281.523-.115 1.049-.294.525-.179 1.058-.386.532-.207 1.044-.377.513-.171.96-.314.447-.142 1.298-.516.852-.374 1.611-.678.759-.304 1.149-.467.39-.163.905-.442.514-.278.795-.425.28-.148.737-.352.457-.204.772-.357.316-.153.925-.516.61-.364 1.073-.635.463-.272.705-.421.241-.15.701-.495.461-.345.893-.617.432-.271.769-.471.338-.201.661-.43.323-.229.495-.348.171-.119.419-.276.248-.156.38-.233.131-.077.409-.316.278-.24.509-.448.231-.208.256-.23.025-.023.097-.087.073-.064.14-.135.068-.07.108-.128.041-.057.061-.1.052-.105.133-.351l-.089-.108q-.028-.034-.092-.105-.065-.071-.115-.106t-.063-.047q-.013-.013-.435-.151-.422-.137-.672-.191-.251-.053-.449-.089t-.279-.055q-.08-.018-.154-.044-.074-.025-.089-.027-.015-.001-.189-.045-.174-.043-.257-.062-.083-.019-.229-.012-.145.006-.275.03-.129.024-.213.052-.084.028-.242.125-.158.097-.272.184-.114.087-.182.144-.067.057-.228.186-.162.13-.346.239-.185.11-.413.248-.229.137-.482.305-.253.168-.391.253-.138.085-.224.136-.086.051-.25.157-.165.107-.524.334-.36.227-.562.337-.203.11-.59.286-.387.176-.704.338-.317.162-.541.278-.223.117-.767.356-.545.239-.914.388-.37.15-.601.231-.231.08-.479.15-.249.069-.811.288-.562.219-1.043.407-.481.189-.81.321-.329.132-.484.198-.154.066-.546.235-.391.168-.762.335-.37.167-.501.235l-.283.146q-.153.078-.374.16-.22.082-.43.158t-.359.144q-.148.068-.473.185-.325.117-.496.186-.171.069-.483.157-.311.087-.703.201-.393.113-.602.176-.209.062-.368.097-.159.034-.724.161t-.765.17q-.2.043-.505.085-.305.042-.623.108-.317.065-.58.118-.263.053-.615.072-.351.02-.499.02-.147.001-.269-.008-.122-.009-.655.019-.532.027-.814.046-.282.018-.505.015-.223-.004-.393-.015-.17-.012-.363.01-.193.023-.385.048-.193.025-.495.02-.302-.005-.518-.009-.216-.003-.295.003-.079.007-.391-.006-.312-.012-.583-.027-.271-.014-.446-.035-.174-.021-.36-.055-.187-.033-.486-.063t-.44-.039q-.141-.009-.397-.068-.256-.058-.443-.094-.188-.036-.302-.054-.114-.018-.287-.042-.174-.024-.301-.054-.127-.029-.448-.174-.321-.144-.665-.293-.344-.149-.704-.352-.36-.203-.528-.322-.168-.12-.613-.456-.446-.336-.665-.525-.219-.19-.57-.559-.351-.37-.521-.558-.171-.187-.319-.336-.148-.148-.286-.299-.138-.15-.364-.469-.226-.32-.528-.782-.303-.461-.557-.981-.253-.519-.388-.829-.135-.309-.235-.508-.099-.198-.343-.695-.244-.496-.467-1.175-.224-.679-.296-.998-.073-.318-.117-.487-.044-.169-.087-.409-.042-.241-.05-.418-.007-.177-.007-.421-.001-.244-.015-.552-.015-.308-.064-1.041-.05-.733-.082-1.158-.033-.424-.047-.688-.014-.263-.026-.416-.011-.152-.022-.233-.011-.081-.023-.134-.012-.052-.034-.198-.022-.146-.036-.269-.015-.123-.035-.28-.02-.158-.028-.275-.007-.117-.005-.237.002-.119.004-.218.002-.1 0-.192-.003-.093.017-.2.02-.106.088-.46-.996-.229-1.991-.459l-1.99-.46q-.995-.23-1.99-.461-.994-.23-1.989-.46Z"/>
    <path fill="none" stroke="#381d1d" stroke-width="1.434" d="M-85.515 869.155q-.041-.615-.059-1.175-.017-.561-.013-1.067.004-.506.026-1.011.022-.505.058-1.01.037-.504.088-1.007.05-.503.12-1.066.07-.564.132-.999.063-.436.142-.932.078-.495.162-.988.085-.493.175-.982.091-.49.188-.978t.201-.973q.104-.486.216-.97.113-.485.234-.968.12-.484.235-.905.114-.422.276-.962.162-.54.322-1.018t.338-.951q.179-.474.373-.934.194-.46.401-.908"/>
    <path fill="none" stroke="#381d1d" stroke-width="1.497" d="M-60.458 824.437q.313-.211.622-.416.31-.205.617-.404.307-.198.614-.393.308-.195.617-.387.31-.192.62-.379.31-.188.62-.372.311-.184.622-.364.312-.18.624-.356.311-.176.624-.348.312-.172.624-.339.313-.168.626-.332.312-.163.625-.323.313-.159.627-.314.313-.156.626-.307.314-.151.628-.298.313-.147.628-.29.314-.143.628-.281.315-.139.629-.274.315-.135.631-.266.315-.13.631-.257.315-.127.632-.25.316-.123.633-.243.317-.119.635-.234.317-.116.635-.228.319-.111.638-.22.319-.108.638-.212.32-.104.64-.205.321-.101.642-.198t.643-.191q.323-.094.645-.184.323-.09.647-.176.324-.087.648-.17.325-.083.65-.163.325-.079.651-.155t.653-.149q.327-.073.654-.142.328-.069.656-.135.329-.066.658-.128.328-.062.658-.121t.66-.115q.33-.055.661-.107.33-.052.662-.101.331-.048.662-.093.332-.046.664-.087.332-.042.664-.08.332-.039.664-.074.333-.035.665-.066.332-.032.665-.06.332-.029.664-.054.332-.024.664-.046t.663-.04q.331-.018.662-.034.331-.015.66-.026.33-.012.659-.021.329-.009.657-.014.327-.006.654-.008.326-.002.651-.002.324.001.648.005.323.004.644.011.321.006.641.016.319.01.637.023.317.013.633.029.315.016.629.035.313.019.625.041.311.022.621.047t.618.053q.309.028.616.06.306.031.612.066t.487.058M-4.073 816.791q.459.142.766.24.308.098.614.2.306.102.611.207.306.106.61.214.304.109.608.222.303.112.606.228t.605.236q.301.119.602.243.301.123.639.266.337.143.598.257.262.115.559.249.298.134.594.272.297.138.592.279.295.141.588.286.294.144.586.293.292.148.582.3.29.151.578.306.289.155.575.314.287.158.572.319.284.162.567.327.282.165.563.333.28.168.559.339.278.171.554.346.276.174.55.351t.545.358q.272.18.541.363.269.184.536.37t.532.375q.264.189.526.381t.522.387q.259.195.516.392.257.198.512.398.254.2.506.403t.502.408q.249.206.496.414t.491.419q.244.211.486.424.241.213.48.429t.475.434q.236.219.469.439.234.221.464.444.231.223.459.449.228.225.453.453t.447.459q.222.23.442.462.219.233.435.468.217.234.43.471.214.237.424.477.211.239.419.48.207.242.412.485.204.243.406.489.202.246.4.493.199.248.394.498.195.249.388.501.192.252.381.506.19.253.376.509t.369.513q.183.258.362.517.18.259.356.521.177.261.35.524t.343.528q.17.265.337.531.167.267.33.535.164.268.324.538t.317.542q.156.271.31.545.153.273.303.547.15.275.297.552.146.276.289.554.143.277.283.556.14.28.276.56.136.281.269.563.133.282.262.565.129.284.255.568.126.285.248.571t.241.573q.118.287.233.576.116.288.227.578.112.289.219.58.108.291.213.582.104.292.205.585.1.293.197.587t.191.588q.093.295.183.591t.176.592q.086.297.168.594.083.298.161.596.079.299.154.598t.146.599q.071.299.139.6.067.3.131.602.064.301.124.603.06.301.116.604.056.302.109.605t.101.606q.049.304.094.608.045.303.086.608.041.304.079.609.037.304.07.609.034.306.064.611t.056.611q.025.305.048.611.022.306.04.612.018.306.033.612.014.306.025.612.011.306.018.612.006.306.009.612.003.306.003.612-.001.306-.006.612-.005.307-.013.613-.009.306-.021.611-.012.306-.028.612-.017.306-.037.611-.02.305-.043.611-.024.305-.052.609-.027.305-.059.61-.031.304-.067.608-.035.304-.074.608-.039.303-.082.606-.043.303-.09.606t-.097.604q-.051.302-.105.604-.055.301-.113.602t-.12.601q-.062.3-.127.599-.066.299-.136.598-.069.298-.142.596-.073.298-.15.595-.077.296-.158.592t-.165.591q-.085.295-.173.589-.088.294-.18.587t-.187.585q-.096.292-.195.583t-.202.58q-.103.29-.209.579-.107.288-.217.576-.11.287-.224.573t-.231.571q-.117.285-.238.568-.121.284-.246.566-.124.282-.252.562-.128.281-.26.56-.131.28-.266.557-.135.278-.274.554-.138.277-.28.551-.142.275-.287.548t-.294.545q-.149.271-.301.541t-.307.538q-.156.268-.315.535-.158.266-.32.531t-.328.528q-.165.262-.334.524-.168.261-.34.52-.172.259-.347.517-.174.257-.353.512-.178.256-.359.509-.181.254-.365.505-.185.252-.372.501-.187.25-.377.497-.191.248-.384.493t-.39.489q-.196.243-.395.484t-.401.48q-.203.239-.408.476-.204.237-.412.472-.208.234-.418.467-.211.232-.424.462-.214.23-.43.458t-.434.453q-.219.226-.44.449-.222.223-.445.444-.224.221-.451.439-.226.219-.455.435t-.461.429q-.231.214-.465.425t-.471.42q-.236.208-.475.414t-.48.41q-.241.204-.485.405-.243.201-.489.399-.245.198-.493.394t-.499.389q-.25.193-.502.383-.253.191-.507.379-.254.187-.511.372t-.515.368q-.259.182-.519.361-.261.18-.524.357-.262.176-.527.35-.264.174-.531.345-.266.171-.535.339-.268.168-.538.333t-.542.327q-.272.162-.546.321t-.549.315q-.276.156-.553.309t-.556.303q-.279.15-.559.297-.281.146-.563.29-.282.144-.566.284-.283.14-.568.277-.286.138-.572.272-.287.134-.575.264-.288.131-.578.258-.289.128-.58.252t-.584.245q-.292.121-.586.238-.294.118-.589.232-.295.115-.591.226-.297.111-.595.219-.297.107-.597.212-.299.105-.599.206-.3.101-.602.2-.302.098-.605.193t-.607.187q-.304.093-.61.182-.305.089-.612.175t-.615.169q-.308.083-.617.164-.31.08-.62.158-.311.077-.623.152t-.625.148q-.313.072-.627.141-.315.07-.63.137-.316.067-.633.132-.316.065-.635.127-.318.062-.637.122-.319.059-.64.117-.32.057-.642.112t-.645.108q-.323.053-.647.103-.323.05-.649.098-.325.048-.651.094-.327.046-.654.089-.327.044-.656.085-.328.04-.616.074-.288.034-.66.075-.371.04-.702.073-.332.034-.664.064-.332.031-.664.059-.333.028-.667.054-.333.025-.667.047-.334.023-.669.042-.335.02-.67.036-.335.017-.671.03-.335.013-.671.023-.337.011-.673.018-.336.007-.673.01-.337.004-.674.004t-.674-.003q-.337-.003-.674-.01-.337-.006-.674-.016-.337-.011-.674-.024-.337-.014-.674-.032-.337-.017-.674-.038-.337-.021-.673-.046-.337-.025-.673-.053-.337-.029-.673-.061t-.671-.068q-.336-.036-.671-.075-.335-.04-.67-.083-.335-.044-.669-.091t-.668-.097q-.333-.051-.666-.106-.333-.054-.666-.112-.332-.058-.664-.12-.331-.062-.662-.127-.331-.066-.661-.135t-.659-.142q-.329-.072-.657-.149-.329-.076-.656-.156-.327-.079-.653-.163-.327-.083-.652-.17-.325-.087-.649-.177-.324-.091-.647-.184-.323-.094-.645-.191-.322-.098-.642-.198-.321-.101-.64-.205-.319-.104-.637-.212-.318-.107-.635-.218-.316-.111-.631-.226-.315-.114-.629-.231-.313-.118-.625-.239t-.623-.245q-.31-.124-.619-.252-.309-.127-.616-.258-.307-.13-.612-.264-.306-.134-.609-.272-.304-.137-.606-.277t-.602-.284q-.3-.144-.598-.29-.298-.147-.594-.297t-.59-.303q-.294-.153-.586-.309t-.582-.315q-.29-.159-.578-.321-.287-.163-.573-.328t-.569-.334q-.283-.168-.565-.339-.281-.171-.56-.346-.279-.174-.59-.373-.311-.2-.551-.358-.239-.158-.511-.341-.272-.183-.541-.369-.27-.186-.537-.374-.267-.189-.531-.381-.265-.191-.527-.386-.261-.194-.521-.392-.259-.197-.516-.397t-.511-.402q-.254-.203-.506-.409-.252-.205-.501-.413-.249-.209-.495-.42-.247-.211-.49-.424-.244-.214-.485-.43t-.48-.435q-.238-.219-.474-.441t-.469-.446q-.233-.224-.463-.451-.231-.227-.459-.457-.227-.23-.453-.462-.225-.232-.447-.467-.223-.235-.443-.472-.22-.238-.437-.478-.218-.24-.432-.483-.215-.243-.427-.488-.213-.246-.422-.494-.21-.248-.417-.499-.207-.25-.412-.504-.204-.253-.406-.509-.202-.256-.402-.514-.199-.258-.396-.519t-.391-.525q-.194-.263-.385-.529-.192-.266-.381-.534-.188-.268-.374-.538-.186-.271-.369-.543-.183-.273-.363-.548-.18-.274-.357-.551-.177-.276-.348-.55-.171-.273-.335-.544"/>
    <path fill="none" stroke="#381d1d" stroke-width="1.264" d="m-82.112 741.21.001.146.004.538q.002.393.005.808.002.415.005.84.002.425.004.719t.003.599q.002.305.003.574.002.268.003.616.002.349.004.741.001.392.003.673l.002.581.002.62.002.658.002.695q.001.356.001.732l.002.768q0 .393.001.805.001.411.001.82.001.408.001.815 0 .406.001.81v1.61q.001.401.001.801V814.255q0 .472.001.911v5.483q.001.371.001.782V822.817q.001.257.001.532v.566q.001.292.001.602v.636q.001.328.001.672.001.345.001.68.001.335.001.661.001.325.001.64.001.316.001.621l.002.602q0 .296.001.581.001.286.001.562.001.276.002.675.002.398.003.901l.004.977.004.919.004.86q.003.414.005.784.002.369.004.634.001.265.003.549l.004.585q.002.302.005.621.002.319.005.655l.006.687q.003.352.006.677.003.325.006.624t.005.572l.007.644q.004.371.009.769.004.397.01.853.006.456.011.908.006.452.011.759.004.307.009.65l.009.626q.005.282.01.609t.01.599q.004.273.01.596.005.324.012.693.006.37.009.499"/>
    <path fill="none" stroke="#381d1d" stroke-width="1.255" d="M-60.902 741.221q.002.142.006.517.005.374.008.661.003.286.007.609.004.324.007.634l.006.608q.003.297.006.554.002.256.005.579.003.323.006.787.004.463.008.957l.006 1.017q.004.522.006 1.021.003.499.005.976.002.476.003.93.002.455.003.888l.002.846.002.808q.001.394.001.771.001.377.001.782.001.405.001.704 0 .299.001.628v.644q0 .315.001.615V761.801q.001.431.001.831V799.432q.001.397.001.773V801.803q.001.423.001.869 0 .447.001.88v.852l.002.827q0 .406.001.8t.001.68q.001.285.002.518 0 .234.001.51l.002.586.002.652q.002.342.003.672.002.33.003.647l.004.621q.002.304.003.595l.004.568q.002.278.006.675.003.397.008.872.004.475.009.92.005.446.011.862.005.416.01.802l.012.783.012.675q.004.275.01.562.005.286.01.538.004.251.011.575l.015.703q.008.379.017.745.008.366.015.646l.015.598q.008.318.012.462.005.144.006.1.002-.044.01.279.009.323.014.52.005.197.016.56.01.362.015.568"/>
    <path fill="none" stroke="#381d1d" stroke-width="1.231" d="M-82.017 741.189h9.044q.474 0 .914-.001h4.545q.444-.001.775-.001h1.371q.395 0 .754-.001H-62.79q.21-.001.448-.001h.994-.051l.383-.001"/>
    <path fill="none" stroke="#381d1d" stroke-width=".958" d="M-3.794 867.632q.002.312 0 .623-.003.312-.011.624-.009.311-.022.623-.014.311-.033.622-.019.311-.043.621-.025.31-.055.619-.03.31-.065.618-.036.308-.076.616-.041.307-.087.613-.046.306-.098.611-.051.304-.108.607t-.119.605q-.062.301-.129.601-.067.299-.14.596-.072.298-.15.593t-.161.588q-.083.293-.171.583-.088.291-.181.578-.093.288-.191.573t-.201.567q-.103.282-.211.561-.108.279-.22.554-.113.276-.231.548-.117.273-.24.541-.122.269-.249.535-.127.265-.259.526-.131.262-.267.519-.136.258-.277.511-.141.254-.286.503t-.294.494q-.149.245-.303.486-.153.24-.311.476t-.32.468q-.162.231-.327.458-.166.226-.336.448t-.343.439q-.174.216-.351.428-.178.211-.359.418-.181.206-.365.407-.185.201-.373.397-.188.195-.38.385-.191.19-.386.375-.194.184-.392.363-.198.178-.399.351t-.405.34q-.204.167-.411.328t-.416.316q-.21.155-.422.303-.212.149-.427.292-.215.142-.432.278-.217.136-.437.266-.219.13-.441.253-.222.124-.446.241-.224.117-.449.227-.226.11-.454.214t-.457.201q-.23.097-.461.187t-.464.174q-.232.083-.466.16t-.47.146q-.235.07-.471.133-.237.063-.474.119-.238.056-.476.106-.239.049-.478.091-.239.042-.479.077-.24.035-.481.063-.24.029-.481.05t-.482.035q-.242.014-.483.021-.241.007-.483.007-.241 0-.483-.007-.241-.007-.482-.021-.242-.014-.482-.035-.241-.021-.482-.05-.24-.028-.48-.063t-.479-.077q-.24-.042-.478-.091-.239-.05-.476-.106-.238-.056-.474-.119-.237-.063-.472-.133-.235-.069-.469-.146-.234-.077-.467-.16-.233-.084-.464-.174-.231-.09-.46-.188-.23-.097-.458-.2-.227-.104-.453-.214t-.45-.227q-.224-.117-.446-.241-.221-.123-.441-.253-.219-.13-.437-.266-.217-.136-.432-.278-.214-.143-.427-.292-.212-.148-.421-.303-.21-.155-.417-.316t-.411-.328q-.203-.167-.404-.34-.201-.173-.399-.351-.198-.179-.393-.363-.195-.185-.386-.375t-.379-.385q-.189-.196-.373-.397-.185-.201-.366-.407-.181-.207-.358-.418-.177-.212-.351-.429-.174-.216-.344-.438-.169-.222-.335-.448-.166-.227-.328-.458-.162-.232-.319-.468-.158-.236-.312-.476-.153-.241-.303-.486-.149-.245-.294-.494-.145-.25-.286-.503-.14-.253-.276-.511-.136-.257-.268-.519-.132-.261-.259-.527-.127-.265-.249-.534-.122-.268-.24-.541-.117-.272-.23-.548-.113-.275-.221-.554t-.211-.561q-.103-.282-.201-.567-.098-.285-.191-.573-.093-.287-.181-.578-.088-.29-.171-.583-.083-.293-.16-.588-.078-.295-.151-.593-.072-.297-.139-.596-.068-.3-.13-.601t-.119-.604q-.056-.304-.108-.608-.051-.305-.097-.611-.047-.306-.087-.613-.041-.308-.076-.616-.036-.308-.066-.618-.03-.309-.054-.619-.025-.31-.044-.621-.019-.311-.032-.622-.014-.312-.022-.623-.008-.312-.011-.624-.003-.311 0-.623t.011-.624q.008-.311.022-.622.013-.312.032-.623.019-.31.044-.621.024-.31.054-.619t.066-.618q.035-.308.076-.616.04-.307.087-.613.046-.306.097-.611.052-.304.108-.607.057-.303.119-.605.062-.301.13-.6.067-.3.139-.597.073-.298.151-.593.077-.295.16-.588t.171-.583q.088-.29.181-.578t.191-.573q.098-.285.201-.567.103-.282.211-.56.108-.279.221-.555t.23-.548q.118-.272.24-.541t.249-.534q.127-.265.259-.527.132-.261.268-.519.136-.257.276-.511.141-.253.286-.503.145-.249.294-.494.15-.245.303-.486.154-.24.312-.476.157-.236.319-.468.162-.231.328-.458.166-.226.336-.448.169-.222.343-.438.174-.217.351-.429.177-.211.358-.417.181-.207.366-.408.184-.201.373-.396.188-.196.379-.386t.386-.374q.195-.185.393-.364.198-.178.399-.351t.405-.34q.203-.167.41-.328.207-.161.417-.316.209-.154.421-.303.213-.149.427-.291.215-.143.432-.279.218-.136.437-.266.22-.13.442-.253.221-.124.445-.24.224-.117.45-.228.226-.11.453-.214.228-.103.458-.2.229-.097.46-.188.231-.09.464-.173.233-.084.467-.161.234-.076.469-.146.235-.07.472-.133.236-.063.474-.119.238-.056.476-.105.238-.049.478-.092.239-.042.479-.077.24-.035.48-.063.241-.028.482-.05.241-.021.482-.035.241-.014.482-.021.242-.007.483-.007.242 0 .483.007.242.007.483.021.241.014.482.036.241.021.481.049.241.028.481.063t.479.077q.239.043.478.092.238.049.476.105.237.056.474.119.236.063.472.133.235.07.469.146.234.077.467.161.232.083.463.173.231.091.461.188.229.097.457.2.228.104.454.215.226.11.449.227.224.117.446.24.222.123.441.253.22.13.437.266t.432.279q.215.142.427.291t.422.304q.21.154.416.315.207.161.411.328t.405.34q.201.173.399.352.198.178.392.363.195.184.387.374.191.19.379.386.188.195.373.396.184.201.365.408.181.206.359.418.177.211.351.428.173.217.343.438.17.222.336.449.166.226.327.458.162.231.32.467.158.236.311.477.154.24.303.485.15.245.295.495.145.249.285.503.141.253.277.511.136.257.268.518.131.262.258.527t.25.534q.122.269.239.541.118.273.231.548.112.276.22.555t.211.561q.103.282.201.567.098.285.191.572.093.288.181.579.088.29.171.583.083.292.161.588.078.295.15.592.073.298.14.597.067.3.129.601t.119.604q.057.303.108.608.052.305.098.611.046.306.087.613.04.307.076.616.035.308.065.617.03.31.055.62.024.31.043.621.019.311.033.622.013.311.022.623.008.312.011.623Z"/>
    <path fill="none" stroke="#381d1d" stroke-width="1.231" d="M-85.286 869.143q.355-.974.599-1.603.243-.63.435-1.066.192-.435.46-.971.268-.537.664-1.279.395-.742.708-1.269.312-.527.559-.925.247-.398.532-.842.285-.443.528-.815.244-.371.547-.822.303-.45.661-.96.358-.51.753-1.038t.719-.945q.324-.417.58-.742.256-.326.553-.7.297-.373.557-.696.26-.323.595-.732.334-.409.787-.945.454-.536.8-.938.347-.402.783-.883.436-.48.725-.792.29-.312.575-.609.284-.297.66-.682.376-.385.666-.679.29-.295.597-.603.307-.309.739-.714.431-.406.778-.718.346-.313.751-.669.406-.355.744-.647.338-.292.643-.551.305-.258.587-.492.282-.233.643-.528.36-.294.712-.575.352-.281.695-.548.343-.267.603-.469.261-.203.528-.41.267-.206.669-.504.402-.298.439-.322.037-.024.386-.275.35-.251 1.025-.737.675-.486 1.295-.919.619-.432 1.183-.812.563-.38 1.133-.755.57-.375 1.147-.745.577-.371 1.006-.641.429-.27.849-.523.42-.254.45-.275.03-.02.34-.195.31-.175.913-.514.604-.339 1.114-.616.511-.278 1.137-.6.626-.323 1.084-.537.458-.214 1.128-.52.669-.306.98-.451.311-.145.565-.254.255-.108.697-.281.442-.173.752-.3.31-.126.482-.197.171-.071.502-.198.33-.126.878-.334.547-.207.981-.368.435-.162.914-.335.48-.173.775-.274.294-.1.346-.114.051-.013.732-.231.68-.218 1.184-.383.503-.165 1.507-.479M-77.282 892.671q-.137.231-.313.538l-.282.489q-.106.183-.217.369t-.499.928q-.388.742-.737 1.434-.349.691-.643 1.326-.295.634-.513 1.154-.219.52-.459 1.138-.241.619-.458 1.223-.218.605-.411 1.196-.193.59-.379 1.24-.185.651-.363 1.361-.177.71-.306 1.311-.129.6-.25 1.336-.12.735-.176 1.249-.055.514-.08.932-.025.419-.037.913-.012.494-.003.951.009.457.039.877.031.42.08.847.05.426.118.86.069.434.139.809.071.374.181.848t.312 1.158q.202.685.397 1.246.194.562.475 1.22.28.659.619 1.289l.376.698q.037.066.186.284.149.219.422.611t.545.741q.271.349.677.808.405.458.675.716.27.257.645.546.375.289.705.534.33.246.673.453.343.207.725.38.382.174.918.382.535.208.957.353.422.145.886.267.464.123 1.225.234.761.112 1.528.172.768.06 1.221.078.454.017.878.007.424-.009.969-.04.546-.03 1.087-.075.542-.044 1.079-.103.538-.058.944-.107.407-.049.819-.109.413-.059 1.109-.207.697-.148.828-.182.131-.033.416-.111.284-.078.766-.21.483-.132.878-.246.396-.114.705-.211.309-.096.764-.262.456-.165 1.058-.4.602-.234 1.014-.398.411-.165.741-.308.33-.142.546-.238.215-.095.542-.251.328-.157.841-.406.512-.249 1.027-.507.515-.258 1.032-.525t.907-.469q.39-.202.781-.406.392-.204.973-.523.58-.319.901-.487.321-.168.785-.412.465-.243.992-.52.527-.277.866-.446.34-.169.493-.24.153-.072 1.716-.862"/>
    <path fill="none" stroke="#381d1d" stroke-width="1.231" d="m-36.178 827.633-.378.288q-.272.189-.579.415-.307.226-.648.49-.34.264-.547.428-.206.163-.319.254-.113.091-.47.376-.357.284-.958.767-.6.483-1.212.997-.612.513-1.067.899-.456.385-.96.811-.504.426-.864.731-.36.304-.651.551-.291.247-.632.537-.342.29-.72.616-.379.325-.793.685l-.777.676q-.361.315-.824.721-.464.405-.926.823-.463.418-.776.704-.314.285-.632.578-.319.293-.662.618-.343.326-.71.684-.368.359-.663.651-.295.293-.631.634-.335.34-.874.907-.54.568-.914.973-.375.405-.764.837-.39.432-.688.768-.298.337-.607.7-.309.364-.701.821-.392.456-.902 1.046-.509.59-.94 1.087-.43.497-.782.902-.351.404-.754.88-.404.476-.859 1.022-.455.546-.911 1.084-.455.538-.909 1.068-.454.529-.819.949-.364.42-.639.731-.274.311-.655.76-.381.45-.866 1.036-.486.586-.945 1.145-.46.559-.893 1.091-.434.532-.809 1.002-.376.47-.851 1.083-.476.613-.818 1.071-.341.458-.81 1.086-.47.627-.833 1.126-.363.499-.777 1.078-.414.58-.756 1.068-.343.488-.582.832-.239.344-.49.706-.25.362-.472.683-.222.32-.512.739-.29.419-.699 1.008-.409.59-.827 1.25-.418.661-.739 1.168-.321.506-.685 1.078-.365.572-.748 1.196t-.787 1.298q-.403.675-.731 1.228-.329.553-.713 1.201-.384.649-.692 1.177-.308.529-.65 1.176-.343.648-.595 1.125-.251.478-.526 1-.274.522-.478.914-.204.392-.406.789-.201.396-.461.959-.259.563-.435.946-.176.384-.354.776t-.329.734q-.15.341-.334.777-.185.436-.269.658-.084.222-.328.863-.245.642-.438 1.215-.194.574-.347 1.043-.153.469-.334 1.032-.181.562-.338 1.064-.158.502-.358 1.165-.201.663-.368 1.291-.167.628-.273 1.035-.106.406-.155.612-.049.205-.108.484t-.146.699q-.087.42-.168.828-.081.409-.157.805-.076.397-.151.842-.075.445-.148.939-.074.493-.127.894-.053.401-.103.863-.05.463-.103 1.108-.054.646-.058 1.311-.004.666.002 1.222.006.556.021 1.223.016.668.035 1.211.019.543.052 1.174.033.63.085.985.052.355.159.874.106.519.268 1.201.162.682.306 1.214.144.532.27.916.126.383.335.895.209.512.501 1.152.292.64.523 1.108.231.468.486.912.255.445.716 1.099.461.655.913 1.221.451.567.766.906.315.339.708.69.393.351.696.604.304.253.648.525.344.272.629.474.285.201.622.399.337.197.684.383.347.185.981.499.633.313 1.089.5.455.187.719.276.264.09.751.221.488.132 1.111.294.623.163 1.162.271.539.108 1.377.189.837.081 1.36.102.523.02 1.147.045.624.026 1.097.024.473-.001 1.003-.021.53-.02.996-.05.465-.029.867-.069.402-.039.9-.096.498-.058 1.093-.133.595-.075 1.111-.151.517-.075.954-.151.437-.075.716-.126.279-.05.399-.074.12-.024.478-.111.359-.087.957-.238.599-.151 1.11-.282.511-.13.934-.241.423-.11.901-.253.479-.142 1.014-.317.536-.174.944-.312.409-.138.829-.288.42-.151 1.13-.398.711-.248 1.259-.453.549-.205 1.041-.411.492-.206 1.254-.573t1.376-.663q.613-.297 1.382-.676.77-.379 1.448-.747.679-.369 1.2-.655.521-.286 1.046-.562.524-.276.851-.459.328-.183.915-.543.587-.361 1.25-.744.662-.383 1.031-.59.369-.207.941-.547.573-.341 1.043-.602.47-.261.794-.444.324-.183.432-.246.107-.063.177-.098M35.646 831.02q.251-.881.341-1.194.091-.313.181-.679.09-.366.188-.85.098-.483.166-.84t.119-.651q.05-.294.084-.554.033-.26.067-.584.033-.323.064-.678.032-.356.062-.744.031-.387.05-.684.02-.296.034-.605.014-.309.004-.631-.009-.322-.022-.566-.012-.245-.031-.519-.019-.275-.043-.516-.024-.241-.067-.552-.043-.311-.133-.774-.089-.464-.174-.827-.085-.363-.205-.758-.12-.396-.298-.867-.177-.472-.346-.798-.169-.325-.309-.573-.14-.247-.307-.524-.166-.277-.329-.524-.162-.247-.398-.573-.236-.327-.531-.643-.296-.316-.629-.619t-.703-.593q-.37-.29-.667-.501-.297-.211-.521-.342-.223-.132-.572-.308t-.824-.396q-.474-.22-.897-.394-.422-.174-.7-.27-.278-.096-.532-.166-.254-.071-.577-.148-.322-.077-.713-.16-.391-.084-.85-.175-.46-.09-.87-.163-.41-.073-.77-.128-.361-.056-.673-.094-.311-.039-.573-.06-.262-.021-.538-.035-.276-.014-.566-.021-.29-.008-.594-.009-.303-.001-.621.005t-.661.024q-.344.017-.713.046-.369.029-.764.069-.394.04-.815.092-.42.051-.812.106-.392.055-.756.113t-.699.12q-.336.061-.643.125-.307.065-.575.123-.269.058-.614.136-.344.078-.65.156-.306.079-.672.184-.366.104-.656.189-.29.085-.625.185-.336.1-.693.212-.358.112-.737.236-.379.124-.78.261-.402.136-.825.285-.423.149-.767.271-.344.123-.609.219-.265.095-.477.175-.212.079-.451.174-.24.095-.601.248-.36.152-.613.261-.252.11-.516.228-.264.118-.58.262-.316.143-.685.313-.368.169-.691.319-.323.15-.6.28-.277.13-.508.241-.231.11-.51.246-.278.136-.704.345-.426.208-.908.444-.482.236-.851.42-.37.184-.756.382-.385.198-.992.519"/>
    <path fill="none" stroke="#381d1d" stroke-width="1.231" d="M35.713 831.051q.152-.157.19-.19.038-.033.142-.151.103-.119.273-.35.17-.231.298-.438.129-.206.267-.466.139-.259.218-.412.079-.153.202-.404.123-.252.232-.513.108-.262.243-.616.135-.355.23-.617.095-.263.178-.517.083-.255.189-.593.107-.339.244-.79.136-.452.213-.779.076-.327.126-.594.05-.267.099-.583.049-.315.09-.671.04-.355.072-.75.032-.394.049-.682.017-.287.02-.467.004-.179-.006-.477t-.033-.715q-.024-.417-.059-.843-.036-.426-.083-.86-.048-.433-.097-.793-.05-.36-.101-.645-.051-.284-.095-.499-.043-.214-.098-.43-.054-.216-.164-.569-.111-.354-.284-.868-.173-.515-.318-.909-.145-.394-.277-.702-.131-.307-.268-.579-.137-.272-.322-.611-.186-.338-.338-.6-.153-.263-.273-.449-.12-.187-.272-.412-.151-.225-.335-.488-.183-.263-.342-.477-.159-.215-.362-.463-.202-.247-.319-.371-.117-.124-.261-.265-.145-.141-.355-.339-.21-.198-.419-.384-.209-.185-.417-.358t-.449-.366q-.241-.194-.516-.407-.275-.213-.516-.394-.241-.18-.551-.402-.311-.222-.623-.408-.313-.186-.571-.326-.257-.141-.564-.298-.307-.157-.637-.31-.331-.152-.684-.3-.354-.149-.609-.249-.254-.1-.487-.178-.232-.079-.598-.179-.365-.1-.889-.23-.523-.13-.926-.208-.403-.078-.675-.123t-.548-.084q-.275-.038-.571-.07-.296-.033-.612-.059-.317-.027-.653-.047-.337-.02-.694-.035-.357-.014-.66-.024-.303-.011-.677-.021-.374-.009-.656-.007-.283.003-.672.022-.39.019-.709.037-.319.018-.698.042-.378.023-.77.054t-.798.069q-.405.038-.824.084-.419.045-.851.097-.433.052-.816.102-.383.049-.717.095-.334.046-.619.089t-.52.083q-.236.04-.517.095-.282.055-.609.125t-.7.156q-.373.086-.792.187-.419.101-.808.199-.389.098-.748.192-.359.095-.688.187-.329.091-.628.179-.299.089-.556.165-.256.077-.575.174-.32.096-.573.178-.254.081-.579.193-.325.112-.588.204-.262.092-.569.201-.308.11-.598.216t-.564.21q-.274.104-.53.204-.257.101-.616.248t-.729.303q-.371.156-.566.244l-.388.175q-.193.087-.448.204-.256.116-.495.226-.24.109-.463.211l-.474.218q-.25.114-.527.242-.277.127-.538.248l-.505.233q-.244.113-.526.244-.281.131-.599.28-.318.149-.624.292-.305.144-.596.284l-.546.26q-.253.122-.575.277-.323.156-.734.358-.411.201-.822.409-.411.209-.79.401-.379.192-.863.439t-.905.467q-.42.22-.688.365-.268.145-.527.289-.258.143-.597.334-.338.191-.756.429-.419.238-.917.523"/>
  </g>
</svg>
