<svg xmlns="http://www.w3.org/2000/svg" width="208.144" height="117.141" viewBox="-107.632 1026.096 156.108 87.856"><g stroke-linecap="round" stroke-linejoin="round"><path fill="#a7de98" stroke="#a7de98" stroke-width=".5" d="m-104.397 1028.979-.082.151-.068.21-.059.233q-.011.12-.136.911t-.147 1.196q-.022.405.015 1.103t.046 3.418q.01 2.72-.037 4.219-.047 1.5-.101 2.253-.054.752-.084 1.299-.029.546-.092 3.446-.063 2.901-.112 4.47-.048 1.57-.065 2.619-.017 1.049-.035 1.985-.018.936-.044 1.688-.025.752-.033 2.27-.007 1.519.03 2.458.037.94.061 2.176.023 1.236.031 2.794t.032 2.567q.024 1.009.046 1.497.022.487.099 1.435.078.947.233 3.361.154 2.413.211 4.282.057 1.869.099 3.113.041 1.243.054 2.099.013.855.004 1.576-.009.721-.008.878 0 .157-.034 1.388-.035 1.231-.165 2.924-.13 1.694-.164 2.733-.034 1.039-.043 2.334-.009 1.295-.062 2.531-.053 1.236-.09 2.232-.036.996-.049 1.5-.012.503-.013.815-.002.312 0 .579l.006.876q.004.609-.035 1.126-.039.516-.078.835-.039.319-.011.724.027.405.071.603.045.199.107.426.062.227.107.33.046.102.142.3.096.198.147.274.051.076.151.149.101.073.239.142.139.069.6.121.462.052 1.006.05.543-.001 1.057-.051.513-.049.855-.103.343-.054 1.489-.087 1.147-.034 1.883.027.736.062 1.419.135.683.074 1.412.174.365.051 1.152.112.786.061 1.994.132 1.208.072 2.45.083 1.241.012 2.515-.038 1.275-.054 2.214-.113.938-.059 1.843-.162.904-.102 2.161-.151 1.257-.049 1.743-.051.487-.003 1.176.003.69.007 1.297.004t1.353.022q.747.025 1.379.017.632-.009 1.414-.048.782-.039 1.702-.07.92-.031 1.485-.013.566.017.682.042.117.025.506.068.39.044 1.104.149.714.105 1.665.142.951.036 2.113-.054t2.002-.159q.841-.068 1.627-.002.786.067 1.318.133.533.066 1.004.111.471.046.709.055.239.01.714.024.475.013 1.298-.027.823-.04 1.649-.12.827-.081 1.629-.152 1.583-.127 2.397-.112.813.015 1.671.067.859.053 1.957.173 1.099.121 1.972.157.873.037 1.507.032.634-.004 1.311-.027.677-.023 1.396-.053.719-.03 1.478-.065t1.375-.063l1.091-.048 1.248-.052 1.846-.077q2.145-.09 3.434-.105 1.289-.016 2.652-.026 1.364-.011 2.236-.036.872-.026 1.689-.055.817-.03 1.991-.053 1.174-.024 1.761-.029.587-.005 2.583-.051 1.996-.046 4.025-.053 2.029-.008 3.678-.059 1.648-.05 2.767-.073 1.119-.022 3.119.019 2 .042 3.553.131t6.374.211q4.82.123 6.212.11 1.393-.013 3.029-.007 1.636.006 3.365.051 1.73.045 3.152.107 1.423.061 3.597.143 2.173.082 3.359.07 1.186-.012 2.427-.048 1.241-.036 2.087-.094l1.28-.088q.434-.029.619-.027.184.003.756-.019.571-.021 1.28-.044.709-.024 1.512-.129.803-.105 1.179-.17.376-.064.902-.14.527-.076.814-.156.288-.08.726-.224.438-.144 1.124-.486.067-.04.301-.432.233-.391.341-.807.107-.415.156-1.041.05-.625.047-.872-.003-.247-.02-.401-.017-.154-.04-.541t-.046-.816q-.024-.43-.039-.62-.014-.19-.033-.383-.019-.193-.047-.845-.028-.653-.037-1.489-.008-.836-.104-2.735-.096-1.9-.163-2.975-.066-1.075-.111-1.541-.044-.465-.039-1.511.005-1.046.049-1.796.043-.75.036-1.4-.007-.65.054-2.048.061-1.397.097-3.516.036-2.118.067-3.204.03-1.086.019-1.501-.012-.415-.127-1.557-.115-1.143-.172-1.833-.057-.691-.111-1.154-.054-.462-.075-.625-.021-.163-.034-.641-.012-.478.039-1.302.052-.823.071-1.555.019-.731.003-1.141l-.028-.788q-.014-.377.049-1.048.063-.67.07-1.577.006-.908-.009-1.539l-.023-.949q-.008-.319-.047-.864-.039-.546-.077-1.255-.037-.708-.05-1.048-.013-.34.087-1.873.101-1.534.204-2.524.102-.991.127-2.113.025-1.121.06-2.497.035-1.375.007-1.721-.028-.346-.05-1.054-.022-.708-.064-1.552-.042-.844-.06-1.295-.018-.45-.025-.838-.008-.388-.005-.537.002-.149.001-.536-.001-.388-.009-.954t-.012-1.016q-.003-.45-.083-1.367-.081-.918-.148-1.571-.067-.653-.081-1.292-.014-.639-.042-1.069-.028-.43-.1-.933-.072-.503-.137-1.069l-.108-.93-.085-.724q-.043-.361-.048-.743-.005-.382-.003-.48.002-.097-.015-.274-.017-.178-.037-.303-.021-.125-.042-.346-.022-.221-.034-.39l-.018-.303q-.007-.135-.033-.265-.025-.129-.086-.42-.061-.29-.114-.379-.053-.089-.394-.511-2.366.002-4.7.001-2.335 0-4.661-.002l-4.651-.003-4.65-.004-4.649-.003-4.65-.004-4.65-.003-4.65-.003-4.649-.004-4.65-.003-4.65-.004-4.65-.003-4.649-.004-4.65-.003-4.65-.003-4.649-.004-4.65-.003-4.65-.004-4.65-.003-4.649-.003-4.65-.004-4.65-.003-4.65-.004-4.649-.003-4.65-.004-4.65-.003-4.65-.003-4.649-.004-4.65-.003-4.65-.004-4.649-.003-4.65-.004Z"/><path fill="#e6f8e7" stroke="#e6f8e7" stroke-width=".5" d="M-95.606 1034.804q-.021.025-.052.069-.031.043-.047.075-.017.032-.093.43t-.092.662q-.017.265-.012.69.005.425-.005.995-.01.569-.047 1.247-.037.678-.053 1.046-.016.369-.048.885-.033.516-.122 1.292t-.138 1.43q-.049.653-.055.985-.007.333.053.81.06.477.145.876.085.399.119.605.035.206.042.31l.016.266q.01.161.021.582.011.42.031.65.021.23.049.322.029.094.133.38l.112.064q.154.066.374.064.22-.002.559-.019.339-.017.586-.052.247-.035.615-.115.368-.081.704-.129.336-.048.812-.053.477-.005 1.166-.026.689-.021 1.07-.018.381.003.721.039.34.036.87.106.53.071 1.043.092.513.021.823.011.309-.01 1.933-.085 1.624-.075 2.498-.108.874-.033 1.561-.023.687.011 1.934.013 1.247.003 2.16.088.912.085 1.568.132.657.048 1.299.092.642.045 1.288.126t1.304.149q.658.067 1.003.085.345.019 1.182.052.837.032 1.417.056.58.023 1.262.018.683-.006 1.653-.043.971-.038 1.795-.055t1.369-.047q.545-.03.976-.057.432-.027 1.114-.035.682-.009 1.481.024.798.033 1.534.021l1.268-.024q.533-.011 1.05.028.517.038.895.07.377.032.906-.004.529-.036 1.244-.055.716-.019 1.271-.042.555-.022.799-.039.245-.016.89-.032.645-.017 1.511-.048.866-.032 1.375-.034.509-.002.95.032.442.035 1.213.041.771.007 1.261.016.49.009.913.02.424.01.716-.009t.898-.038q.605-.019.936-.012.331.006.768-.005.438-.012.777-.043.339-.031 1.132-.016.793.014 1.229.032.436.018 1.063-.017.626-.034.801-.037.174-.002.635-.018t1.031-.032q.571-.016.87-.032.299-.015.693-.08.394-.065.686-.095.293-.031.714-.049.421-.018.794-.014.373.004.71.025l.404.025q.068.004.286.026.218.022.649.03.431.008 1.103-.133.052-.072.086-.122.035-.05.1-.156.064-.107.111-.322.048-.214.069-.52.02-.307.018-.411-.003-.104-.012-.308-.01-.203.001-.527.012-.323.012-.468 0-.145-.007-.237l-.013-.134q-.005-.043-.013-.155-.009-.113-.013-.252-.004-.14-.017-.289-.013-.149-.035-.321-.022-.173-.027-.247-.006-.074-.008-.082-.002-.009.003-.235.006-.226.005-.432 0-.206-.021-.429-.021-.222.002-.575t.059-.88q.035-.526.072-.961.038-.435.042-.814.004-.379-.009-.714-.012-.336.014-.656.027-.32.095-.642.069-.323.093-.486.025-.162.035-.378.009-.217.008-.292-.001-.075.006-.134.007-.06.003-.275-.003-.214-.02-.345l-.023-.171q-.005-.04-.003-.056.002-.017-.017-.19-.018-.173-.037-.27-.019-.098-.03-.17l-.033-.204q-.021-.131-.061-.338l-.052-.199"/><path fill="#67d488" stroke="#67d488" stroke-width=".5" d="m-95.632 1058.304.001.025q-.02.041-.014.779.007.738.022 1.273.016.536.039.834.022.298.076.894.055.596.067 1.269l.02 1.274.014 1.026q.005.428.012.765t-.017.673q-.024.336-.059.534-.034.198-.053.361-.02.163-.026.309-.007.146-.006.315t.015.281q.014.113.117.377l.078.077.061.039q.159.069.637.122.478.053.938.064.46.01 1.075-.024.614-.035 1.263-.046.65-.011 1.012-.006.363.005.676.013l.48.012q.168.005.542-.021.374-.025.607-.043.232-.018.405-.028.174-.01.731-.027l.927-.029q.37-.012.614-.017.245-.004.399.005.155.009.345-.013.189-.021.27-.044l.114-.033q.035-.009.154-.07.016-.053.055-.17.04-.117.039-.236-.001-.118-.015-.401-.015-.282-.043-.723-.028-.441-.046-.64-.017-.199-.02-.499-.003-.3-.027-.659-.023-.359-.026-.633-.003-.275.001-.453t.002-.38v-.275q.001-.073.007-.176t.02-.272q.014-.169.017-.403l.004-.375q.001-.142.004-.247.003-.106.004-.241.002-.136-.009-.455-.01-.318-.008-.504.001-.185.014-.661.012-.475.008-.655-.005-.181-.005-.374.001-.193-.007-.282l-.019-.239q-.012-.149-.014-.209-.002-.059-.006-.085-.004-.026-.024-.299-.718-.026-1.434-.049l-1.431-.047-1.43-.047-1.43-.046-1.429-.046-1.429-.046-1.43-.046-1.429-.047Zm.069 16.016q-.006.018-.028.044 0 .013-.008.024-.009.011-.036.49-.027.479-.002.831.024.351.04.702.016.35.013.554-.003.203-.014.687-.01.484.005.93.015.446.019.666.005.221-.001.606t-.002.61q.003.224-.011.649-.015.424-.026.817-.01.393-.02.908-.011.515-.02.749-.009.235-.024.43-.014.195.014.746.003.014.149.402l.102.025q.022.005.08.022.057.017.091.023l.096.012q.062.006.137.007.074.001.294.038.219.037.412.062.193.024.291.029.098.005.47.038.373.032.658.036.285.003.585.017.301.015.687-.012.386-.026.624-.053t.399-.044q.161-.018.553-.091.391-.073.59-.112.2-.038.603-.072.403-.033.626-.042.224-.009.425.002l.344.019q.143.008.435.002l.456-.01q.163-.003.268.002l.135.009.433.046q.403.043.589.061l.319.031q.133.013.226.009.093-.005.126-.011l.076-.017q.042-.01.055-.011.012 0 .232-.11.017-.02.032-.047t.03-.075q.016-.047.04-.298t.024-.403v-.203l.001-.285q0-.233.008-.425.009-.191-.003-.461-.012-.271-.024-.427-.011-.157-.006-.472.006-.315.007-.566.001-.25-.015-.624-.015-.373-.028-.634-.013-.26-.011-.575.003-.315-.007-.491t-.019-.368q-.008-.192 0-.415.009-.222.012-.546.003-.324.021-.556.018-.232.021-.35.004-.118-.007-.243-.01-.125-.013-.373-.003-.248-.012-.443-.009-.195-.024-.322-.014-.128-.017-.26-.004-.131-.002-.14.001-.01-.013-.167-.014-.158-.021-.262-.007-.105-.008-.177-.002-.073-.036-.246l-.018-.082m-11.369 15.995q.022.002.028.006.006.003.077.017.071.013.289.019.218.005.424-.004.205-.009.5-.04.295-.03.871-.041.576-.01.906-.033.33-.022.56-.055.229-.032.369-.059.139-.026.572-.074.433-.048.863-.018.429.03.702.051.274.021.677.063.403.041.693.074.289.033.431.043.143.009.559.01.416.001.654-.005.237-.005.795-.066.557-.06.758-.084.202-.023.261-.026.06-.002.095.001l.083.005.077.004h.062q.031-.001.135.03.105.03.183.069.078.038.119.068.05.113.066.159.016.047.03.167.013.121.017.172.004.05.001.795-.002.744-.005 1.141t-.019.635l-.028.402q-.01.164-.021.279-.01.115-.016.246-.006.132-.009.255-.003.123-.008.214-.004.091-.014.493-.01.403 0 .763l.015.544.009.351.008.282q.004.114-.001.337-.004.222 0 .332.004.11.001.514-.002.404-.005.607l-.006.322-.009.236-.009.205-.004.117q-.001.03-.031.264-.031.233-.059.358-.028.125-.045.19-.017.065-.049.14-.032.075-.067.133-.036.059-.056.078l-.043.044q-.024.025-.054.044-.031.019-.086.039-.055.019-.115.032-.061.012-.131.015-.069.003-.218-.007-.148-.01-.341-.009-.192.001-.557-.005-.365-.006-.593-.014-.229-.009-.34-.015-.112-.005-.379.019l-.428.039q-.16.014-.283.018-.122.003-.247.013-.124.009-.239.021-.115.011-.549-.009l-.695-.035q-.261-.013-.387-.012-.126.002-.189.006t-.167.009l-.34.01q-.237.006-.503.016-.266.011-.4.003-.135-.009-.378-.01-.243-.001-.467-.015-.224-.015-.339-.026-.114-.011-.197-.013t-.288.001l-.236.002q-.031.001-.076-.002-.044-.002-.405.002-.361.004-.545.003-.183-.002-.349.017-.165.018-.253.03-.087.011-.148.014-.061.002-.127.009-.066.006-.11.019-.043.013-.071.025-.028.012-.058.02-.03.008-.151.094l.007-1.384.006-1.383.007-1.384.007-1.384.006-1.383.007-1.384.007-1.385.006-1.391Zm19.665-31.601q-.011.02-.051.196-.041.176-.052.51-.011.333-.007.694.004.361-.005.594l-.025.672q-.017.438.005.836.021.399.037.647.016.247.009.514l-.012.55q-.006.283.003.501.01.218.029.414.019.196.035.436.016.24-.028.951-.044.71-.072 1.107-.029.397-.045.552-.017.155-.055.405-.039.249-.052.383-.014.135-.01.297.003.163.015.254t.026.14q.014.05.027.116t.07.206l.05.09q.005.013.134.085.13.072.218.098.088.025.164.034.077.008.338.018.261.01.387.008.127-.002.403-.035.277-.033.46-.05t.448-.013q.265.004.605-.021.339-.025.605-.032.267-.006.404.005t.507-.015q.37-.025.63-.052.261-.027.457-.031.197-.004.805-.024.608-.02.944-.034.335-.014.52-.009.184.004.349.002.165-.001.468-.021.303-.02.589-.022.286-.002.529-.007.244-.005.583.003.339.007.54-.019.2-.026.227-.038.027-.012.099-.049l.065-.097q.014-.047.053-.339.04-.292.039-.453-.001-.16.015-.299.016-.139.028-.275.013-.135.017-.225l.011-.305q.007-.216.022-.569.015-.354.024-.616.009-.263.028-.468.019-.205.024-.308.005-.103-.004-.321-.009-.219-.013-.381-.003-.161-.017-.38-.014-.218-.015-.336 0-.117.01-.292.009-.174-.002-.47-.012-.297-.031-.491-.02-.194-.026-.391-.005-.197-.014-.394-.009-.197-.023-.359-.014-.162-.006-.377.008-.216.008-.381.001-.165-.001-.289-.002-.123.009-.251.01-.128.019-.199.009-.071.006-.286-.004-.214-.011-.285-.007-.071-.012-.16l-.01-.13q-.004-.041-.013-.105t-.02-.175l-.015-.139q-.004-.029-.006-.092-.003-.062-.006-.243l-1.429.004-1.43.004-1.43.005-1.43.004-1.429.005-1.43.004-1.43.004-1.43.005Zm.025 15.675-.009.015q-.022.077-.032.104-.009.027-.089.336-.079.308-.127.691-.048.383-.052.603-.004.219.011.414.014.195.063.742.049.546.083.88.034.333.074.55.039.217.055.559.016.341.005.563-.012.222-.027.372t-.036.582q-.022.432-.031.788-.01.355-.034.707t-.049.678q-.025.326-.044.619-.02.294-.023.426-.002.132-.001.198.002.067.002.139l.001.098q0 .025.069.695-.003.025.168.43.142.055.164.054.022-.001.431.003.408.004.652-.008.244-.012.371-.029.127-.016.257-.037.13-.02.42-.057l.431-.055.311-.04q.169-.021.256-.03.086-.009.23-.012.143-.004.303.006l.222.013q.063.004.144.013.082.009.529-.035.447-.043.656-.039.208.003.509.001.302-.003.492 0 .191.003.346.016.156.012.469.023l.462.016q.148.006.35.036.202.029.546.068.345.039.586.075.242.036.481.062.24.025.481.037.24.012.421.012t.287-.016q.105-.016.237-.044.131-.029.19-.04.059-.012.404-.224.007-.005.079-.209t.087-.34q.016-.135.02-.341.004-.205-.004-.446-.007-.24-.013-.348l-.007-.13-.016-.128q-.015-.105-.027-.241-.013-.136-.026-.382t-.034-.466q-.021-.22-.035-.406-.013-.186-.021-.333-.008-.147-.031-.354-.023-.206-.04-.422t-.018-.497q-.001-.281-.003-.341t-.006-.096q-.004-.035-.007-.176l-.007-.25q-.004-.11-.01-.189t-.024-.202q-.018-.122-.023-.299-.005-.177-.013-.305-.009-.128-.021-.245-.013-.118-.007-.29.007-.172.025-.382.018-.212.016-.424-.003-.213-.012-.36-.009-.147-.009-.268 0-.121-.002-.201l-.007-.256q-.004-.176-.009-.261-.004-.084-.012-.115l-.017-.072q-.008-.042-.013-.083-.005-.04-.01-.141l-.006-.174q-.002-.073-.005-.092-.003-.018-.016-.052l-.017-.048q-.004-.013-.02-.158-.006-.008-.03-.119l-.107-.139m-8.382 15.82-.043-.019-.215-.059q-.12-.033-.526-.034-.405 0-.647.021-.241.021-.387.046-.147.024-.236.047l-.14.035-.145.037-.156.055-.034.025-.058.087q-.034.073-.086.464-.053.391-.054.96l-.002.859v.651l-.004.565q-.002.205-.021.865-.018.66-.03 1-.011.339-.006.494.005.154.005.377 0 .222-.007.356-.008.135-.012.261-.004.127-.004.58.001.453.008.692.007.239.006.438l-.003.32q-.002.121.013.404.015.282.029.474.014.192.03.286.016.094.028.149l.022.095q.011.04.026.071.016.03.031.05.015.02.023.028l.097.089q.088.081.145.112.057.031.114.048.056.017.211.034l.272.029q.117.013.316.021.199.008.317.007.119 0 .185-.003.066-.002.319.003t.431.006q.177.001.34-.019.162-.02.403-.034.242-.014.391-.025.148-.01.333-.037.185-.027.314-.029.128-.002.348.004.221.007.577.022t.627.027l.552.023q.28.012.452.023l.379.02.604.028.611.027q.213.01.331.004.118-.005.254-.019l.352-.035q.217-.021.484-.034l.516-.024.327-.016q.078-.005.226.006.148.011.267.016.119.005.241.002.121-.003.181-.018.059-.015.118-.037.004-.01-.021-.301-.024-.292-.083-.547-.059-.256-.081-.451l-.055-.457q-.032-.263-.048-.529-.017-.267-.016-.437 0-.17-.013-.376-.012-.205.003-.475.015-.269.035-.436.019-.168.025-.375.006-.207.015-.373.009-.167.055-.437.046-.271.096-.634.049-.364.075-.582.025-.219.084-.532.058-.314.085-.607.026-.293.029-.422.002-.129-.009-.235l-.022-.217q-.011-.11-.012-.268l-.005-.277q-.003-.118-.009-.17-.006-.051-.009-.104-.003-.052-.003-.089.001-.037-.001-.043-.001-.006.008-.149.008-.143.014-.215.007-.071-.009-.264-.015-.193-.036-.297-.02-.103-.037-.152-.018-.049-.027-.088-.01-.04-.018-.084-.008-.045-.032-.114-.024-.07-.026-.08-.001-.01-.104-.298m8.37-31.048q.112-.013.25-.032.138-.019.346-.015l.362.007q.154.003.32-.01.166-.013.34-.018.174-.005.323.002.148.007.316-.001.168-.007.332-.036.164-.028.339-.052.174-.024.348-.027.174-.003.296-.003t.446-.042l.506-.066q.181-.024.33-.03.148-.006.552-.003.403.004.629-.006.226-.01.786-.014l.915-.005.549-.003q.192-.001.52.025.328.027.673.035.345.007.597.024.251.017.46.055.209.038.335.066l.145.033.13.03q.109.025.172.045.063.019.102.034.039.015.06.028.021.013.082.08.06.067.078.098.019.03.03.054t.012.031l.042.32q.04.312.048.51.007.198 0 .432-.007.234-.015.405l-.031.686q-.023.514-.04.765t-.019.399q-.002.147.009.23l.027.217q.016.132.013.339-.003.206.011.393.013.187.028.369.016.182.014.303-.001.121.023.258.023.137.052.292.029.154.035.314l.012.283q.006.124.018.262.012.138.008.221l-.007.224q-.003.142-.001.275.002.133-.007.26-.009.127-.01.325-.001.197-.008.32-.008.122.004.261.012.14.009.348-.002.209-.008.318l-.006.15q-.001.041.004.091l.01.097q.005.046.005.072l-.002.084q-.003.059.004.131.006.072-.105.422-.009.015-.221.101-.212.086-.327.117l-.289.082-.182.054q-.007.004-.316.05-.308.047-.533.061-.225.014-.329.017-.104.003-.152.006l-.215.018q-.168.014-.366.007-.199-.007-.307-.019l-.17-.02q-.061-.009-.187-.022-.125-.014-.243-.021l-.435-.031q-.317-.024-.505-.026-.189-.001-.347.005-.158.006-.37.01-.211.005-.799.003-.587 0-1.062-.025-.475-.025-.708-.044l-.417-.034q-.184-.014-.48-.017-.296-.003-.474.003-.177.007-.471-.037-.295-.043-.469-.075-.175-.032-.295-.042-.119-.009-.17-.011-.051-.001-.082-.004-.031-.002-.051-.006-.02-.005-.093-.007-.072-.003-.115 0-.043.002-.158.017-.114.015-.13.015t-.109.034q-.093.035-.145.062l-.063.033q-.01.006-.042.031-.032.024-.088.061.018-.351.028-.692.011-.341.015-.675.005-.334.007-.67t.003-.676l.004-.683.005-.688.005-.691.005-.692.006-.692.005-.692.006-.693.006-.692.005-.692.006-.693.006-.692.005-.693Zm.117 15.53q-.035.058-.05.097-.016.038-.021.062-.006.023-.012.084l-.007.069-.016.593q-.017.585-.015.928.002.343-.007.541-.008.198-.03.563-.021.366-.016.676.004.311.032.832.028.522.041 1.138.013.616.01 1.023-.003.407-.01.593-.006.187-.006.397 0 .21.022.521.022.312.033.511l.025.416q.013.218.034.506.021.288.02.536 0 .249.032.48.032.231.12.445l.09.055q.086.054.192.08.106.026.508.037.403.011.643.008.24-.003.412.011.173.014.272.026.099.012.273.029.174.018.375.025.201.007.617-.029.417-.036 1.099-.066.683-.029 1.08-.029.398.001.635.017.238.017.509.024.271.008.647-.009.377-.016.573-.02l.307-.006q.11-.002.366.013.257.015.434.023.178.009.386.002.208-.008.323-.008.115 0 .33-.017.215-.017.334-.037l.215-.036q.094-.016.226-.035.132-.019.462-.146.007-.003.068-.207.062-.205.071-.302.01-.097.013-.201.002-.103 0-.258l-.007-.363q-.004-.207-.03-.381-.026-.174-.06-.3-.034-.127-.055-.394-.021-.268-.031-.441-.009-.173-.019-.256-.01-.083-.017-.114-.007-.031-.011-.262-.005-.231.001-.411.005-.18.011-.533l.01-.539q.003-.185.016-.344.013-.16.02-.317.007-.158.005-.285-.001-.128-.007-.236-.005-.108-.002-.278.004-.17-.001-.544t-.003-.565v-.269q-.001-.079.024-.255t.041-.3q.016-.124.02-.188.004-.063-.001-.138-.004-.075 0-.175.004-.099.008-.148l.011-.111q.006-.062.003-.31t-.017-.4q-.014-.152-.024-.209-.01-.058-.016-.168-.006-.11-.024-.222-.019-.112-.021-.116l-.012-.052q-.011-.046-.016-.074-.005-.027-.017-.059-.012-.031-.029-.057.007-.023.006-.131l-.027-.05m-6.205 15.926q-.09-.014-.099-.018-.01-.004-.178-.007-.168-.004-.37-.023l-.317-.032q-.115-.013-.422-.004-.307.008-.821.035-.514.027-.829.035-.314.008-.423.005-.108-.003-.331-.019-.223-.015-.488-.014-.265 0-.387.024-.123.023-.215.069-.042.033-.125.342-.082.308-.098.513-.016.204-.022.301-.005.098-.019.567-.014.468-.019.714-.004.246.004.372.008.127.02.192t.048.453q.036.387.043.907l.01.862q.003.344.01.636.007.293-.003.542l-.021.525q-.01.276-.044.678-.034.402-.049.63-.015.227-.006.577.008.35.036.6.028.251.054.431.025.179.041.315.016.135.034.209.017.075.039.132l.028.078q.007.022.135.256l.042.031.054.04.09.057q.047.02.237.079.19.058.296.08.106.022.401-.004.296-.026.611-.057.314-.03.483-.035.168-.005.524-.033.356-.029.569-.043.213-.015.665-.043l.693-.042q.241-.013.514.004l.416.027q.144.009.609.022.464.013.738.017.274.004.53-.019.256-.022.537-.02.281.002.465.015.184.014.329.017.145.003.328.011l.426.02q.244.012.386.029l.27.031q.128.015.144.015.016-.001.152.009.137.01.221.012.085.002.216-.026l.138-.03q.006-.001.063-.032.057-.03.092-.062.036-.032.058-.065.022-.033.027-.036.004-.003.042-.086.039-.083.051-.164.011-.082.045-.285.034-.203.051-.333.018-.13.022-.266l.017-.391.017-.384q.005-.129-.005-.258l-.018-.231-.026-.423q-.019-.323-.022-.406-.002-.084-.018-.307l-.026-.385q-.011-.162.016-.58.028-.417.022-.615-.006-.199-.016-.427-.01-.229-.015-.404-.005-.174-.011-.301-.005-.127.003-.628.007-.502.016-.772.008-.27.022-.482.014-.211.015-.364.001-.154-.02-.286l-.038-.247q-.016-.115-.022-.227l-.015-.302q-.008-.19-.004-.374.005-.184.009-.271.003-.088-.001-.135-.005-.048-.013-.079t-.006-.053q.002-.023 0-.089-.001-.067-.005-.078l-.011-.04q-.008-.029-.023-.167l-.011-.01-.031-.075-.816.009-.816.009-.816.01-.816.009-.817.009-.816.009-.816.009-.818.009Zm16.111-31.454-.042.047-.031.06q-.018.026-.086.21-.068.185-.096.309-.027.125-.036.282-.008.158-.001.641.008.483.001.77-.007.288-.023.545l-.055.841-.062.997q-.024.413-.028.817-.003.404.038 1.136.04.732.068 1.043.028.311.032 1.028.004.718.004 1.071t.014.527q.013.173.255.718.173.084.282.098l.266.036q.159.022.3.019.141-.002.255-.008.115-.005.208-.011.093-.006.402.004.309.01.501.019.193.009.445-.004t.561-.004q.309.009.73.001.42-.009.654-.019.233-.009.559.015.326.023.6.023.275 0 .434-.02.159-.02.453-.048.294-.029.606-.012l.625.037.501.032q.188.013.411.051.223.039.645.061.422.023.722.005.299-.019.438-.044.139-.026.293-.076.155-.05.233-.089.078-.038.091-.043.014-.004.044-.02.031-.016.074-.053.042-.037.057-.056.015-.02.084-.201.069-.181.101-.542.032-.362.034-.497.002-.135-.003-.176-.006-.041-.019-.279-.013-.238-.01-.393l.01-.402q.008-.247.021-.524.013-.277.009-.84-.004-.562.049-.974l.08-.645q.027-.233.023-.406-.004-.173-.029-.396-.025-.224-.028-.445-.003-.22.012-.508.015-.288-.005-.557-.02-.268-.037-.429-.018-.16-.023-.333-.005-.173-.004-.283 0-.111-.021-.272-.021-.162-.028-.409-.008-.246-.002-.368.005-.121-.001-.295t-.009-.239q-.003-.065-.013-.106-.009-.041-.014-.075l-.016-.128q-.017-.038-.022-.057-.006-.019-.014-.036-.009-.016-.015-.021-.006-.004-.035-.085m-11.351 15.43-.048.061q-.013.03-.119.354-.106.324-.143.651-.037.327-.041.502l-.017.939q-.013.763.003 1.297.015.535.035.85.019.315.018.602-.002.288.03.678.032.39.033.801.001.41-.01.625-.01.214.014.604t.029.716q.005.326-.004.547-.009.221-.005.495.003.275.016.625.012.35.042.5.029.15.122.306l.113.046q.018.008.05.015.031.008.1.015.068.007.156.008.088.002.233-.015.145-.017.193-.027.047-.01.23-.03.184-.02.505-.031t.546-.021q.225-.011.672.017.447.028.692.013.245-.015.436-.021.191-.006.429.009.237.014.588-.007.35-.02.643-.022.293-.002.444.007.15.009.239.016.089.008.415.006.327-.002.531-.012.204-.009.391-.002.187.007.401.007h.452q.238.001.421.023.182.021.323.032.14.011.268.027.129.017.228.037l.113.022q.015.002.046.013.032.01.324.018.291.007.437-.014.147-.021.209-.04.062-.018.102-.037.04-.019.196-.102.021-.011.112-.224t.126-.446q.035-.233.049-.445.014-.213.01-.321-.005-.107-.007-.2-.003-.093-.003-.158.001-.066-.001-.117-.001-.052-.013-.211-.013-.159-.014-.227l.002-.269q.001-.201.019-.433.018-.231.03-.45.012-.22.011-.294 0-.074.016-.277.016-.202.005-.488-.011-.285-.014-.567-.003-.282-.001-.397l.003-.167q.001-.053-.005-.138-.006-.085-.009-.306-.004-.22-.019-.428-.016-.207-.037-.399-.021-.193-.026-.311l-.011-.23q-.01-.091.001-.268.011-.177.018-.32l.01-.208q.004-.066.035-.323.031-.258.035-.341.005-.082.007-.095l.01-.128q.007-.115.006-.2-.002-.086.001-.174t.006-.129q.003-.041-.002-.175-.005-.134-.012-.215-.008-.08-.017-.123-.009-.043-.017-.107-.009-.063-.018-.113-.01-.05-.021-.071-.011-.021-.021-.062-.01-.042-.029-.071-.018-.03-.074-.147m-11.085 15.918.003.001.029.012q.002.013-.048.389-.051.377-.09.954t-.047.88q-.008.304-.057.73-.048.427-.071.694-.024.268-.031.626-.008.358-.032.743t-.005.914l.029.839q.011.31.012.569.001.259.015.543.014.284.047.523.033.239.044.422.011.184.014.392.004.208.012.333.009.125.011.233.002.107.011.235.009.129.049.278.041.149.079.223.038.074.098.133l.039.012q.189.072.295.089.106.017.217.029.112.012.186.011.074-.001.304-.027.23-.026.439-.033.209-.007.388.005.178.013.457.009.278-.005.557-.005.28 0 .686-.033.405-.033.678-.053.272-.019.405-.024.134-.006.426-.033.292-.027.445-.039.153-.011.319-.008.166.002.401.03.235.028.445.042.21.015.319.009.109-.005.321-.003.213.003.337.014.125.012.351.045.226.032.601.075.376.042.622.06l.404.027q.158.009.229.01.071 0 .129-.002l.133-.003.275-.001q.202-.001.329-.019t.189-.035q.061-.016.105-.032.043-.016.122-.062l.088-.05q.009-.004.091-.176t.109-.273q.027-.101.035-.362.007-.26.004-.313l-.006-.103-.003-.129.002-.259q.002-.18-.005-.325-.007-.146-.016-.255-.008-.11-.009-.277-.001-.167-.026-.464-.026-.297-.043-.451-.018-.154-.016-.363.003-.209.007-.306.004-.098-.01-.372l-.022-.426q-.007-.152-.009-.279-.002-.127-.009-.287-.007-.159-.035-.374-.027-.214-.044-.439-.018-.226-.019-.407V1094.173l.006-.185q.006-.167.029-.375.022-.208.03-.446l.014-.362q.005-.126.018-.259.013-.134.024-.225.01-.092.015-.156.006-.064.007-.13l.004-.112q.003-.047.016-.175.013-.127.024-.399.011-.272.026-.401l.025-.232q.01-.101.018-.162.008-.061.015-.139m8.554-31.323q-.001.011-.031.044-.031.032-.065.164-.033.132-.075.596-.042.463-.042.89-.001.427.006.66.006.232-.013.485-.02.253-.042.452-.022.199-.031.434-.009.234.012.464.021.23.018.611l-.006.622q-.003.24.038.525.041.285.07.507.029.222.036.569.006.347.013.534l.02.48q.013.293-.04.818-.052.524-.083.893-.03.368-.031.516-.002.149.027.26.029.112.047.15.019.037.056.088.037.052.062.073l.113.091q.087.07.104.077.018.008.119.03.1.021.199.031.1.011.119.011l.09.003q.071.002.328-.017.256-.019.419-.037.162-.017.239-.022.077-.006.213-.012.135-.005.199-.005t.321-.01l.491-.018q.233-.008.4-.005l.313.009q.147.006.558-.014.41-.019.691-.036.281-.017.573-.011.293.007.646-.003.354-.009.794.008.44.017.805.023l.563.008q.199.002.444.025.245.024.386.036.141.011.332.012.192.002.431.024.24.022.375.041.135.018.249.028l.225.018q.11.008.275-.012.165-.02.243-.043.079-.023.125-.055.045-.033.065-.057.019-.025.116-.272.097-.247.136-.42.039-.174.059-.367.02-.193.037-.32.017-.127.023-.315.007-.188.012-.43t-.012-.435q-.016-.192-.039-.355-.023-.163-.027-.371-.005-.207-.013-.359-.009-.151-.035-.317-.026-.165-.039-.404-.014-.239-.018-.365-.003-.126-.019-.253-.016-.128-.026-.246-.011-.118.007-.382.019-.263.033-.387.015-.124.02-.306.005-.182.026-.468.02-.285.009-.651-.01-.365-.02-.586-.009-.221.004-.445t.018-.436q.004-.212-.06-.528-.063-.315-.11-.483-.047-.169-.068-.287-.021-.117-.027-.198-.005-.082-.01-.106-.006-.025-.007-.085-.001-.06-.004-.084l-.005-.044q-.003-.021-.007-.111-.006-.008-.022-.052m-11.513 15.926q.021.006.38-.011t.665-.052q.306-.035.434-.053.128-.018.312-.022.185-.005.351.014.167.019.369.053.202.033.546.052.344.018.629.028l.457.016q.172.007.594-.025l.749-.06q.328-.028.545-.031.217-.004.678-.054.461-.051.705-.084.243-.033.556-.044.313-.011.702-.038.389-.028.587-.038.198-.01.468-.009l.466.004q.197.002.289.011.093.009.395.057.302.048.437.086.135.038.194.065.059.028.08.041.021.013.042.037.02.024.034.038.015.013.088.491.074.477.072.773-.001.295-.007.416t-.021.28q-.015.158-.023.431t-.023.521q-.015.249-.02.459-.006.21-.027.449-.021.239-.038.391-.018.153-.024.24-.007.087-.006.132.001.046-.008.302-.009.256-.01.428-.001.171.002.208.002.037.021.212.019.175.018.454-.002.279-.007.414-.005.135-.005.268 0 .132-.012.342-.011.211-.012.403-.001.191-.004.363l-.006.243-.002.112.004.127q.004.086.003.129 0 .043-.005.167-.005.124-.004.194t0 .119q-.002.048-.009.125l-.023.219q-.015.142-.022.228-.007.086-.004.139.002.054.001.105-.002.051-.001.104t-.002.117q-.004.065-.031.191t-.061.214q-.034.087-.178.246-.136.034-.184.04l-.104.015q-.055.009-.065.012-.009.003-.15.008-.14.005-.326-.002-.185-.007-.306-.016-.121-.01-.355-.021-.234-.01-.368-.018l-.333-.016q-.2-.009-.334-.011-.135-.002-.32-.021-.186-.018-.408-.046l-.375-.046q-.154-.019-.234-.027-.081-.008-.12-.007-.04 0-.083.003-.042.003-.139.005-.096.003-.223.002t-.31.013q-.183.015-.312.03l-.226.025q-.097.01-.151.023-.054.012-.193.03-.139.017-.266.019-.126.001-.261.011-.134.01-.228.019-.093.008-.25-.006-.156-.014-.372-.038-.215-.024-.349-.035-.134-.011-.295-.011-.161 0-.236-.005-.074-.005-.303-.033-.228-.028-.414-.032-.186-.004-.527.02-.34.023-.437.033l-.234.022q-.137.012-.214.014-.076.002-.148-.001-.073-.002-.172.002-.099.005-.17.006-.071.002-.1 0-.03-.002-.044-.005-.013-.003-.12-.003h-.162q-.053 0-.074.003-.02.004-.051.007l-.06.005q-.028.001-.048.006l-.127.021m.396 3.912-.006.019q-.015.072-.045.297-.03.225-.009.637.021.412.036.758.016.345.007.765-.01.42-.041.986-.03.564-.042.867-.011.302-.003.504.009.201.021.63.012.428.036.819.024.392.038.576.013.183-.002.449-.015.265-.021.649-.006.383-.028.715-.022.332-.04.527-.018.196-.044.38-.025.185-.035.332-.01.147-.008.257l.007.229.004.127q0 .007.118.546l.059.103.135.085q.012.01.288.035.277.026.464.012.187-.013.271-.025.084-.012.362-.043.278-.031.642-.084.364-.053.554-.076.189-.023.357-.018.168.006.331.021.164.015.4.013.236-.001.538.018.302.019.841.04.54.022 1.043.048.504.025.9.055t.829.077q.434.048.944.061.51.012.798.014.287.001.476.016t.419.037q.23.023.734.027t1.066.024q.561.021.958.021.396-.001.669-.013.273-.013.437-.014.164-.001.346.005l.483.017q.301.01.683-.025.382-.035.897-.057t.778-.023q.262 0 .694-.046.432-.046.717-.068.284-.021.434-.028.149-.006.439-.011.291-.005.682.02l.596.038q.205.012.586.022.381.01.593.01.212.001.316-.002l.177-.007q.074-.003.298-.004.224-.001.425.012l.302.019q.103.007.422-.013.32-.02.506-.026l.227-.005q.041.001.11-.002.069-.002.251-.03.181-.028.398-.039.216-.011.306-.007.09.005.324-.026.234-.032.417-.052.183-.019.324-.022.14-.002.367-.024l.43-.042q.202-.02.466-.016.263.003.481-.004l.469-.014q.251-.007.386-.003t.282.007q.148.004.387 0 .238-.005.491-.002.254.002.376-.004.123-.007.196-.016l.117-.014q.045-.004.156-.042.11-.037.186-.082l.037-.024.033-.031q.065-.098.068-.1.004-.003.047-.132.043-.13.056-.233.013-.103.014-.149 0-.046-.002-.084-.002-.038-.006-.071l-.017-.127q-.013-.094-.016-.135-.003-.042-.02-.17-.017-.129-.059-.276-.042-.148-.069-.265-.028-.118-.048-.224l-.031-.167q-.011-.061-.03-.113-.019-.053-.037-.113-.017-.059-.026-.145-.01-.085-.015-.173l-.013-.187q-.007-.1-.008-.17 0-.071.003-.142.002-.071.013-.2.01-.129.007-.339-.003-.211.004-.338.006-.128.01-.329.004-.202-.002-.323t-.003-.217q.002-.095-.003-.223-.005-.129-.001-.224.004-.096.01-.16l.011-.106q.005-.042.008-.085l.003-.081q.001-.037-.007-.079-.008-.041-.008-.305 0-.263-.004-.414-.004-.151-.001-.207.002-.057.009-.125.008-.067.017-.264.01-.197.021-.321.011-.124.041-.279.03-.155.041-.225l.017-.12.006-.07.036-.268q.034-.245.043-.41.009-.164.021-.298.012-.133.014-.189.003-.055.002-.077t-.006-.079q-.005-.057-.007-.124-.002-.068-.007-.127-.006-.059-.019-.132-.014-.073-.019-.139-.005-.066-.01-.1-.005-.035-.01-.057-.006-.021-.013-.096-.007-.075-.014-.115-.007-.04-.019-.081-.013-.04-.026-.097-.014-.057-.025-.087-.011-.031-.022-.051-.011-.02-.02-.049-.009-.03-.014-.066l-.006-.039q-.001-.003-.086-.103m-11.382-14.871-.03.029q-.062.065-.11.583-.048.519-.031.854.017.336.02.478.004.142-.041.574-.045.432-.073.77-.028.338-.02.775.007.437.002.754-.006.316-.013.499-.008.183.009.905.016.722.032 1.115.016.392.01.613-.006.221-.004.578.003.356.008.523.004.166-.021.405-.025.238-.034.368-.009.131-.01.172-.001.042.005.099l.028.23q.021.173.041.275.02.102.322.579l.026.004q.091.026.119.032.027.005.038.009.012.003.111.007t.2.003q.101-.001.16.002l.147.012q.088.008.264.017.176.01.37-.001.195-.011.36-.028.166-.017.511-.005.346.012.537.028.192.017.495-.004.304-.021.55-.03.246-.009.461.012l.392.039q.177.017.359.01.182-.007.536-.033l.551-.042q.197-.015.454-.06.257-.044.581-.05.324-.005.484.009.161.015.418.007.256-.007.61.012.354.02.505.036.152.015.323.043.171.027.276.036.105.009.152.008.046-.001.113-.009.067-.009.268-.03l.295-.032q.096-.011.245-.044t.271-.078q.122-.046.155-.072l.038-.029q.004-.003.049-.105.044-.103.053-.19.008-.087.004-.134l-.006-.07-.016-.231-.026-.35q-.011-.14-.018-.301-.006-.161-.007-.24-.001-.078-.005-.155-.003-.078.002-.347l.009-.52q.004-.25.004-.379 0-.13.005-.177.005-.048.025-.388.02-.341.031-.603.01-.262.01-.388-.001-.126-.008-.237-.007-.111.008-.365t.023-.396q.008-.142-.001-.29-.009-.148-.018-.397-.009-.248-.016-.361l-.023-.328q-.017-.215-.022-.341-.006-.127-.014-.215-.007-.089-.036-.206-.029-.117-.044-.232-.016-.114-.009-.3.007-.186-.001-.415-.008-.229-.018-.393-.011-.164-.027-.236-.016-.072-.031-.176-.014-.103-.016-.224-.002-.12.019-.319.02-.199.033-.286.014-.088.017-.119l.02-.131q.015-.098.018-.161m-11.568-15.897q-.005.023-.045.064-.012.047-.052.272-.041.224-.054.784-.012.559-.03.961-.017.401-.024.78-.008.379-.049.899-.042.521-.054.892-.013.372-.014.619-.001.247-.009.456l-.015.433-.01.359q-.004.135-.005.265-.002.13.001.288.002.158-.005.472-.008.313.008.574.016.261.035.399.018.138.003.398-.014.26-.026.45-.011.189-.009.337.001.147-.004.272-.005.125-.004.219t.046.31q.045.217.081.297.036.08.06.107l.044.048.049.057.031.038.027.029q.026.028.21.104.183.077.491.113.307.035.411.04.104.005.193.002.089-.004.149-.01.059-.006.43-.004t.616.008q.245.006.427.015.181.009.443.048t.466.059q.204.02.424.009.221-.011.537-.021l.552-.017q.237-.007.643-.065.405-.057.68-.088.275-.032.47-.04l.355-.014q.161-.007.39-.052.229-.046.411-.068.182-.022.462.009.281.032.44.054l.242.033q.083.012.2.015.117.003.194-.003t.216-.002q.139.004.35-.003.212-.007.346-.019.134-.012.253-.042.119-.031.259-.074.139-.043.201-.07.062-.026.082-.039l.079-.057q.061-.044.118-.104l.06-.134q.001-.018.023-.178t.023-.254q.002-.093.012-.219t.014-.208l.004-.108q0-.028.016-.176.016-.149.024-.261.007-.111.009-.192.002-.081.013-.282.01-.2.004-.31-.006-.109.009-.352.015-.242.026-.372.01-.131.008-.177l-.003-.179q-.001-.133.011-.355.012-.222.013-.34l.007-.441q.006-.323.006-.489.001-.165-.023-.4-.023-.235-.036-.346l-.022-.207q-.01-.098-.043-.322l-.059-.388-.043-.261q-.016-.095-.019-.226-.002-.13-.006-.257-.005-.127-.018-.226-.014-.1-.024-.187-.01-.086-.022-.223-.013-.137-.061-.335-.048-.199-.056-.245-.009-.046-.015-.099-.007-.054-.023-.154-.016-.101-.04-.209l-.035-.152q-.009-.044-.031-.312-.023-.269-.005-.678-.004-.076-.003-.08l.018-.063q.015-.059.033-.175l.006-.094"/><path fill="none" stroke="#381d1d" stroke-width="1.692" d="m-105.069 1028.658 150.982.001v82.73h-150.982Z"/><path fill="none" stroke="#381d1d" stroke-width="1.277" d="M-96.143 1034.673h73.113v15.021h-73.113Z"/><path fill="none" stroke="#381d1d" stroke-width=".549" d="M-95.807 1058.371h11.77v11.111h-11.77Zm0 15.703h11.77v11.111h-11.77Zm.214 15.806h11.77v11.11l-11.77.001Zm19.447-31.353h11.77v11.111h-11.77Zm0 15.704 11.77-.001v11.111h-11.77Zm.215 15.805h11.769v11.11l-11.769.001Zm20.064-31.279h11.77v11.111h-11.77Zm0 15.704h11.77v11.111h-11.77Zm.214 15.805h11.77v11.111h-11.77Z"/><path fill="none" stroke="#381d1d" stroke-width=".549" d="M-55.867 1058.757h11.77v11.111h-11.77Zm0 15.704h11.77v11.111h-11.77Zm.214 15.805h11.77v11.111h-11.77Zm20.927-31.457h11.769v11.111h-11.769Zm0 15.704h11.769v11.111h-11.769Zm.214 15.805h11.769v11.111h-11.769Z"/><path fill="none" stroke="#381d1d" stroke-width=".549" d="M-34.726 1058.809h11.769v11.111h-11.769Zm0 15.704h11.769v11.111h-11.769Zm.214 15.805h11.769v11.111h-11.769Zm20.09-31.265h11.77v11.111h-11.77Zm0 15.704h11.77v11.111h-11.77Z"/><path fill="none" stroke="#381d1d" stroke-width=".549" d="M-14.422 1059.053h11.77v11.111h-11.77Zm0 15.704h11.77v11.111h-11.77Zm20.639-15.676 11.77-.001v11.111H6.217Zm0 15.703h11.77v11.111H6.217Z"/><path fill="none" stroke="#381d1d" stroke-width=".549" d="m6.217 1059.081 11.77-.001v11.111H6.217Zm0 15.703h11.77v11.111H6.217Zm-20.399 14.817h32.343v11.458h-32.343Z"/></g></svg>