<svg xmlns="http://www.w3.org/2000/svg" width="211.052" height="175.4093" viewBox="148.107 1000.437 158.289 131.557">
  <g stroke-linecap="round" stroke-linejoin="round">
    <path fill="#3dd4cf" stroke="#3dd4cf" stroke-width=".5" d="M163.871 1003.288q-.046-.01-.076-.014-.031-.004-.052-.008-.02-.004-.284.035-.263.039-.445.107-.181.067-.197.072-.016.005-.33.171-.313.167-.617.456-.304.288-.795 1.078-.492.79-.913 1.533-.422.743-.619 1.089-.196.345-.36.751-.165.406-.298.906-.132.5-.322 1.136-.19.636-.304 1.27-.115.634-.179 1.414-.065.78-.167 1.513-.102.733-.169 1.085-.066.352-.08 1.803-.014 1.451.015 2.377.029.927.079 1.525.051.599.096.901.045.303.086.57.04.267.063.357.023.089.074.212t.073.194q.021.07.16.247l.079.033.089.07q.087.076.183.124.095.047.219.057.125.01.435.02t.66-.024q.349-.034.753-.087.404-.054.998-.032t1.189.034q.596.013 1.007 0 .412-.013.952.019.54.033 1.482-.007.943-.039 1.54-.097.598-.058 1.128-.062.53-.003 1.474.074.944.078 1.514.107.57.029 1.027.033.457.005 1.069.002.611-.004 1.183-.002.571.002 1.553-.031t1.597-.096q.616-.062 1.768-.174 1.153-.112 2.566-.094 1.413.019 2.679.028 1.266.01 2.291.047t1.657.048q.631.012 1.219.012.588 0 1.285-.029.696-.028 1.313 0 .618.027 1.325.089.707.061 1.606.08.9.019 1.359.032.46.013 1.233.082.773.069 1.545.058.772-.011 1.747-.078.976-.067 1.565-.115.589-.047.898-.061.309-.014.946-.016.636-.002 1.774.011 1.137.013 1.765.023.627.01 1.766.064t1.71.083q.571.029.893.037.322.007 3.69-.043 3.367-.051 6.093-.084.681-.008 1.322-.007.641 0 1.243.009.601.01 1.162.028.561.018 1.082.045.521.026.98.052.459.025 1.055.061.595.035 1.141.076.546.041.999.072.453.03.812.049.36.019.797.049.437.029.952.062.516.032.908.05.392.018.792.032.399.015 1.14.007.741-.008 1.247-.039.505-.031 1.016-.062.511-.03.92-.041.409-.012.872-.002t.786.028q.324.019.567.036.244.017.851.068.608.05 1.158.075.551.025 1.245.035.694.009 1.233.015.538.006 1.11.029.572.022 1.022.03.45.008 1.103-.002.654-.011 1.221.011.567.021 1.273.059.706.038 1.237.064.532.026.881.053.7.052 1.167.076.467.025 1.094.005.626-.021 1.114-.058.488-.038 1.046-.099.559-.061 1.011-.118.452-.057.799-.111.693-.106 1.05-.173.357-.066 1.164-.224.807-.158 1.718-.284.911-.127 1.463-.178.552-.052 1.405-.067.852-.015 2.372.117 1.519.132 2.466.201.948.069 1.636.107.687.038 1.216.079.529.041 1.266.052.736.011 1.579-.054.844-.065 1.663-.084.818-.019 1.251-.02.432-.002 1.217-.024.392-.011.725-.021.334-.01.746-.022.413-.012.903-.065.491-.053.97-.066.48-.013.905.044.425.058.582.105.156.046.548.075.392.03.694.048.301.019.431.031t.462.048q.332.036.538.054.207.017.541.001.335-.017.506-.043.171-.026.486-.159.251-.178.28-.206.03-.028.168-.266.139-.237.206-.442.068-.205.086-.464.018-.258.026-.48.009-.222.011-.229.001-.007.005-.207.003-.201-.018-.421-.02-.221-.037-.315-.016-.094-.048-.375-.031-.28-.07-.413-.039-.134-.074-.278-.035-.144-.04-.199-.005-.055-.02-.174-.014-.118-.062-.463-.047-.344-.069-.639-.021-.295-.02-.462.001-.166-.017-.362-.018-.196-.023-.467-.005-.271 0-.41.004-.14-.01-.619t-.021-.628q-.008-.149-.011-.162-.003-.014 0-.217.002-.203.016-.371.015-.167.021-.275.007-.108-.011-.356-.017-.249.007-.525t.035-.482q.011-.207.024-.327.013-.119.031-.373.019-.253.013-.283-.005-.03.065-.456.07-.426.135-.703.065-.278.113-.582.047-.304.108-.551.061-.247.114-.531.052-.284.082-.507.03-.224.038-.327.007-.103.025-.826.018-.724.04-1.003.022-.278.028-.401.007-.123-.003-.279-.009-.156.005-.301.014-.146.028-.249.014-.104.021-.128.007-.024.018-.248.011-.225.006-.371-.004-.147.058-.655l.036-.209q-.006-.186-.035-.309l-.089-.411M299.985 1022.732l.018-.021q.07-.058.084-.062.095-.051.107-.058.012-.007.167-.091.156-.084.437-.164.282-.081.538-.154.256-.074.73-.247t.722-.29q.248-.116.404-.245.156-.128.249-.259.018-.054.041-.121.023-.068.035-.111.013-.043.022-.088.008-.044.029-.233.021-.19.022-.761.001-.572.007-.958.005-.386.014-.588.009-.201.055-.652.046-.452.092-1.025t.064-.824q.019-.25.044-.552.026-.301.044-.653.019-.352.023-.524.005-.171.003-.256-.003-.086-.006-.108-.004-.022-.023-.327-.02-.305-.036-.479-.015-.174-.049-.386-.033-.212-.057-.491t-.046-.491q-.021-.212-.04-.39-.019-.177-.047-.546-.027-.368-.063-.66-.037-.293-.053-.729t-.028-.666q-.012-.23-.024-.331t-.033-.306q-.02-.205-.028-.455-.008-.251-.012-.332-.005-.081-.038-.327-.033-.247-.066-.5-.034-.252-.064-.399-.03-.147-.052-.229-.021-.083-.031-.114-.01-.03-.036-.125-.026-.094-.077-.249-.05-.155-.091-.252-.04-.098-.129-.226-.088-.129-.18-.251-.092-.123-.157-.19-.066-.067-.165-.133l-.115-.077q-.016-.01-.064-.043-.047-.033-.325-.162-.278-.13-.406-.182-.129-.052-.228-.094t-.14-.063q-.041-.022-.077-.036-.035-.015-.088-.031-.052-.017-.199-.054-.147-.038-.16-.04-.013-.002-.103-.021l-.406-.086-.138-.019q-.02-.006-.103-.012-.083-.007-.177-.007-.095.001-.173.005-.078.005-.17.009-.092.004-.171.014-.078.01-.187.031-.109.021-.153.027-.043.007-.144.028-.101.021-.117.022l.092 1.212.094 1.212q.046.606.096 1.213.05.606.114 1.215.065.609.164 1.223.099.614.226 1.233.126.619.214 1.231.089.613.087 1.211-.002.598-.035 1.192-.034.593-.036 1.191-.003.598.027 1.202.031.603.074 1.209.044.605.09 1.211.046.606.094 1.213.047.607.101 1.218.054.612.122 1.234Z"/>
    <path fill="#3dd4cf" stroke="#3dd4cf" stroke-width=".5" d="M295.828 1003.299q-.022.004-.43-.058t-.704-.09q-.296-.027-.442-.028-.147-.001-.401.019-.254.019-.406.041-.151.022-.394.075-.243.053-.43.111-.186.057-.348.132-.162.075-.25.137-.088.062-.156.139-.069.078-.112.173-.043.095-.055.202-.013.108-.014.162-.001.053-.031.672t-.04.997q-.009.378.008.597.018.22.106.725.088.506.258 1.336.17.829.273 1.299.102.471.144.659l.057.263q.015.075.035.124.02.05.032.069.013.019.038.054 0 .001.091-.133t.15-.26q.059-.125.193-.403.135-.278.229-.459.093-.18.132-.257.039-.078.185-.34.147-.262.336-.55.189-.289.33-.464.14-.175.205-.246.065-.072.171-.18.106-.109.271-.257.165-.148.299-.23.134-.082.172-.101.038-.018.056-.024l.171-.048q.153-.043.373-.055.221-.013.334-.012.113.001.247.013.133.012.594.137.46.125.677.206.217.081.33.135.113.055.175.089.061.034.105.059.044.026.139.094.095.068.16.129t.103.106q.038.044.129.169.092.124.16.216.069.092.113.14.044.047.078.079.034.031.063.046.028.015.043.016.014.002.054-.022t.083-.08q.043-.057.147-.399.103-.341.195-.699.092-.358.147-.684.054-.326.095-.603.04-.278.073-.548.032-.27.061-.538.029-.267.033-.423.004-.155.007-.324.002-.168.001-.211-.001-.043-.004-.075t-.009-.088q-.005-.055-.03-.274-.004-.02-.048-.067"/>
    <path fill="#fbfac6" stroke="#fbfac6" stroke-width=".5" d="m159.173 1025.038-.01.035q-.023.056-.04.31t-.028.716q-.011.462-.013.95-.003.489-.002.85.002.361.005.758.008.793.019 1.505.012.713.025 1.375.013.663.027 1.285.014.622.029 1.206.015.583.029 1.106.014.523.027.986.013.463.025.865.012.402.023.744.046 1.366.056 2.277.01.911.016 2.099.006 1.187.005 3.585-.001 2.399-.02 3.693-.02 1.295-.052 2.342-.033 1.048-.043 2.419-.011 1.372-.042 2.327-.031.956-.09 1.842-.059.886-.077 1.597-.018.711-.025 1.958-.007 1.247.003 1.739.011.493.028 1.315.018.823.032 1.476.015.652.051 1.877.037 1.225.083 4.236.046 3.011.04 4.554-.006 1.544-.017 2.289-.01.745-.036 1.515-.027.769-.042 1.77-.016 1.001-.02 2.178-.003 1.176-.045 3.517-.042 2.341-.057 2.621-.015.281-.125.939-.111.659-.169.921-.059.261-.066.274-.007.013-.145.519-.138.506-.322 1.064-.183.557-.337.898-.154.341-.357.763-.204.423-.393.835-.189.413-.361.832-.173.419-.453 1.038-.281.619-.612 1.426-.332.807-.53 1.242-.199.434-.518 1.224-.32.789-.494 1.233-.174.444-.417.943-.242.5-.251.527-.01.026-.142.289-.131.264-.401.726-.27.462-.505.91-.235.447-.345.649-.109.201-.251.418-.142.218-.172.273-.029.055-.128.267-.099.213-.151.331-.052.118-.104.214-.052.097-.076.174-.023.078-.08.244-.057.167-.074.205-.016.039-.009.139.007.1.111.128.105.027.338.009.233-.018.475-.092.242-.074.529-.163.286-.089.425-.135.138-.046.946-.129.809-.084 1.736.022.928.106 1.404.165.476.06 1.108.153.633.093 1.565.142.931.048 1.402.047.471-.002.68.011.21.013.897.021.686.009 1.567-.103.881-.112 1.285-.177.404-.066.992-.109.587-.044 1.493-.088 1.812-.087 3.025-.034 1.213.053 1.862.143.65.091 1.273.178.623.086 1.438.195.815.109 1.377.178.562.068 1.024.116.462.048 1.117.121t1.345.072q.691-.001 1.643-.072.952-.072 1.783-.143.832-.071 1.525-.096.693-.026 1.533.044.84.069 1.5.17.661.101 1.453.189.793.088 1.539.086.746-.002 1.789-.126 1.042-.124 2.035-.269.994-.146 1.885-.231.891-.084 1.637-.038.746.046 1.323.14l1.033.168q.458.068 1.225.157.766.09 1.898.113 1.133.023 2.187-.039 1.054-.061 1.993-.152.939-.091 1.699-.166.76-.075 1.631-.159t2.05-.203q1.179-.119 2.13-.226.951-.106 2.82-.238 1.869-.131 3.065-.151 1.196-.019 1.872-.017.675.003 4.235.036 3.56.033 6.011.117t5.076.264q2.625.181 4.532.242 1.906.062 3.538.043 1.632-.019 2.645-.087 1.012-.069 1.828-.145.817-.077 2.571-.161 1.754-.085 3.35-.009 1.597.076 2.927.192 1.329.117 3.348.14 2.019.024 3.501-.064 1.482-.089 3.472-.257 1.989-.169 3.057-.185 1.068-.016 1.624.026.556.041 1.227.156.672.115 1.041.186.37.071.524.113.155.041.254.06.099.019.349.043.25.024.547.018.296-.007.32-.005.024.002.81-.273.786-.274.939-.398.154-.123.497-.606.342-.483.941-1.616t1.176-2.272q.577-1.138.884-1.772.307-.635.655-1.4.348-.766.666-1.434.318-.667.608-1.311.29-.644.485-1.055.195-.41.269-.574.074-.165.304-.631.229-.467.388-.795.16-.329.358-.838.199-.509.502-1.351.304-.842.504-1.592.2-.749.491-2.351.019-.047.041-1.152.022-1.106.066-2.108.043-1.002.078-1.706.034-.703.09-1.647.056-.943.099-2.859.042-1.917.052-3.054.01-1.138.022-1.552.013-.414-.008-1.495-.021-1.081-.177-2.491-.155-1.41-.419-3.082t-.448-3.421q-.046-.438-.083-.827-.037-.39-.066-.732-.029-.341-.049-.635t-.032-.54l-.027-.553-.035-.674q-.018-.367-.04-.795-.022-.427-.041-.915-.019-.488-.018-.978.002-.49.046-.981.043-.49.127-.982.083-.491.169-.986.085-.496.044-1.044-.04-.549-.138-1.147t-.155-1.079q-.056-.481-.067-.811-.01-.33.002-.67t.034-.658q.023-.318.062-.764.039-.445.088-.956.05-.511.094-.939.045-.428.083-.773.038-.346.071-.653.032-.307.072-.711.039-.404.068-.791.03-.388.084-.91.054-.523.133-1.18.078-.658.147-1.266.069-.608.118-1.166.049-.559.07-1.002.022-.444.022-.938 0-.494.002-.938.002-.444-.039-.889t-.02-1.042q.021-.597.065-1.054.044-.456.057-.926.013-.469.001-.977-.012-.509-.022-.726-.009-.217-.007-.234.001-.017-.012-.27-.013-.253-.047-.747-.035-.494-.073-.916-.038-.422-.076-.773-.037-.351-.065-.602-.027-.25-.044-.399-.034-.299-.068-.449-.033-.149-.123-.876-.089-.727-.138-.908-.049-.181-.06-.218-.012-.037-.186-.56-.509.002-1.018.003-.509.002-1.019.003-.509.001-1.018.003-.509.001-1.018.003l-1.019.002q-.509.002-1.018.003t-1.019.003q-.509.001-1.018.003l-1.018.002q-.509.002-1.019.003-.509.001-1.018.003-.509.001-1.019.003l-1.018.002q-.509.002-1.018.003t-1.019.003q-.509.001-1.018.003l-1.018.002q-.51.002-1.019.003-.509.001-1.018.003-.509.001-1.019.003l-1.018.002q-.509.002-1.018.003-.51.002-1.019.003-.509.001-1.018.003-.509.001-1.018.003l-1.019.002q-.509.002-1.018.003t-1.019.003l-1.018.002q-.509.002-1.018.002-.51.001-1.018-.001-.509-.001-1.017-.012-.508-.01-1.014-.042-.506-.031-1.008-.092-.503-.061-1.001-.14-.498-.079-.988-.156-.491-.076-.969-.111-.477-.035-.934-.075-.458-.041-.911-.078-.454-.038-.939-.034-.485.004-1.014.063-.53.06-1.072.124t-1.053.065q-.511.002-.983-.068-.473-.071-.93-.177-.457-.106-.968-.14-.51-.033-1.042-.043-.532-.01-1.085.035-.554.045-1.118.157-.565.112-1.115.211-.551.098-1.076.129-.526.03-1.029-.012-.503-.042-.994-.126-.492-.085-.993-.138-.501-.052-1.005-.102-.504-.049-1.011-.082-.508-.033-1.014-.064-.507-.031-1.021-.016-.514.015-1.025-.003-.51-.018-1.028-.052t-1.057-.022q-.54.011-1.089.046-.549.035-1.084.072-.536.038-1.035.086-.499.049-.965.06-.467.011-.918-.014-.452-.025-.913-.065-.462-.039-.971.007-.509.046-1.032.091-.523.046-1.034.039-.51-.006-.992-.087-.482-.08-.936-.203-.454-.122-.916-.165-.462-.043-.934-.039-.472.004-.987.084-.515.079-1.088.21-.573.13-1.165.216-.592.086-1.168.09-.576.003-1.119-.038-.542-.041-1.053-.083-.51-.041-.995-.027-.485.014-.95.001-.464-.014-.929-.037-.466-.024-.955-.019-.49.005-1.021.086-.53.081-1.06.15-.53.069-1.036.08-.505.011-.993-.024-.487-.035-.985-.053-.498-.018-1.025.02-.528.039-1.062.087-.535.048-1.047.045-.513-.003-.999-.065-.485-.061-.956-.151t-.968-.108q-.497-.019-.996-.03l-1-.022q-.502-.011-1.007-.042-.505-.031-1.027-.062-.523-.031-1.052-.066t-1.059-.056q-.53-.022-1.067.045-.538.066-1.061.135-.524.068-1.033.119-.51.05-1.012.079-.502.029-.995.04t-.988.053q-.494.041-.965.045-.471.004-.94-.004t-.963-.001q-.494.008-1.028.045-.534.038-1.073.063-.538.025-1.056.01-.518-.015-1.016-.058-.498-.043-.994-.084-.496-.041-1.021-.03-.525.011-1.065.043-.539.031-1.1.091-.562.059-1.118.084-.556.025-1.099.01-.542-.016-1.068-.058-.527-.041-1.044-.015-.517.027-1.029.067-.511.041-1.019.066-.507.026-1.012.009-.505-.018-1.011-.051-.505-.033-1.013-.041-.508-.008-1.022.071Z"/>
    <path fill="#fbfac6" stroke="#fbfac6" stroke-width=".5" d="M164.669 1110.94q-.046.03-.078.043-.032.014-.26.291-.228.277-.412.648-.185.371-.284.624-.1.252-.157.452-.057.2-.129.416-.071.216-.185.512-.113.296-.248.611-.136.314-.291.649-.154.334-.335.693-.18.358-.383.741l-.324.611q-.121.228-.178.336-.058.107-.175.321-.117.214-.191.36-.075.146-.079.159-.005.013-.138.296-.134.283-.295.62-.162.337-.27.642-.109.304-.125.389-.016.084-.027.168-.01.084.005.181.023.033.121.061.098.028.321.053.222.025.651-.024.43-.05.654-.073.225-.023.327-.025.102-.002.31-.013.208-.011.556-.032.348-.021.678-.038.33-.017.644-.031.313-.014.62-.017.307-.003.608.004t.672.001q.372-.005.814-.024.442-.018.93-.027.489-.008 1.025-.007.535.001.94.004.405.003.816.009.411.006.684.018.274.011.532.031.259.02.594.052.335.032.733.063.398.03.744.052.346.021.64.026.293.004.648-.002.356-.006.774-.021.418-.016.899-.04.48-.023.902-.043.422-.02.786-.034.363-.014.668-.022.305-.007.551-.01.247-.003.519.008.272.012.567.041.296.029.616.077.319.048.664.109.345.061.651.109.306.047.712.081.407.034.787.038.38.003.711-.03.331-.034.727-.072.396-.037.891-.09.495-.054 1.043-.154.548-.1.949-.145.401-.045.773-.071.372-.026.845-.043.473-.016.841-.02.367-.003.764 0 .397.004.817-.016.419-.02 1.01-.018.59.003.811.019.221.017.455.024.235.008.556.016.322.009.745.024.423.015.945.051.523.036.966.085.444.049.812.092.368.042.644.063.276.021.458.027.183.007.493.016.31.01.757-.011.446-.021.847-.05.4-.029.752-.053.351-.024.634-.035.282-.012.601-.012t.531.008q.211.008.502.017.29.01.723.022.433.011.778.007.344-.004.609-.015.264-.012.643-.032.378-.019.871-.045t.896-.036q.404-.011.717-.01.632.012 1.192.023.561.011 1.108.026t1.267.036q.721.022 1.431.047.71.026 1.409.055.699.029 1.227.048.529.02.886.03.715.02 1.147.028.433.007 1.626-.017 1.193-.024 2.738-.018 1.545.006 2.503.009.958.002 2.078.01 1.12.008 2.175.016 1.055.008 2.784-.019 1.73-.027 2.929-.077 1.199-.051 1.794-.085.594-.035.98-.053.387-.019 1.079-.04.693-.021 1.393-.024.7-.003 2.294-.028 1.594-.026 2.503-.013.908.013 1.318.036.41.023 1.312.075.901.053 1.697.09.796.038 1.27.055.475.017 1.336.031.862.013 1.42.009.557-.003 1.762-.051 1.205-.048 2.157-.067.952-.019 1.483-.01.265.004.698-.001.432-.006 1.032-.02.599-.014 1.054-.029.454-.015.917-.037t.73-.034q.268-.013.576-.03.154-.008.711-.005.557.003 1.512.073.475.049.897.085.421.036.789.044.367.009.68-.013.313-.022.693-.051.38-.028.764-.041.384-.013.656-.007.271.012.592.04.321.029.59.037.269.008.594.005.324-.003.628-.001t.728.009q.425.007.92.023.509.009.893.011.384.003.68-.011.297-.015.578-.02.281-.004.645-.002.364.001.635.001t.541-.005q.269-.005.579-.014.309-.01.682-.036l.634-.046.498-.038q.236-.018.336-.021.1-.002.467-.003.367 0 .624.009.257.01.55.039.294.029.498.038.205.008.465-.043.261-.051.423-.127.163-.076.223-.123t.071-.054q.011-.006.078-.109.067-.102.109-.254.041-.151.048-.411.006-.261-.057-.544-.064-.283-.207-.853-.144-.57-.217-.868-.073-.299-.12-.467-.046-.168-.092-.538-.045-.37-.078-.645-.033-.274-.068-.421-.035-.146-.137-.458-.102-.313-.172-.58-.071-.268-.188-.532-.116-.264-.193-.475-.077-.212-.099-.306-.022-.094-.035-.151-.014-.057-.087-.279-.072-.222-.072-.236 0-.014-.057-.252-.058-.237-.277-1.14l-.06-.16q-.467.002-.934.003l-.935.004q-.467.002-.935.003l-.934.004q-.468.001-.935.003t-.935.003l-.934.004q-.468.002-.935.003l-.935.004q-.467.001-.934.003l-.935.004q-.467.001-.935.003-.467.002-.935.003l-.934.004q-.468.001-.935.003l-.935.004q-.467.001-.934.003l-.935.004q-.467.001-.935.003-.467.002-.934.003l-.935.004q-.467.001-.935.003-.467.002-.934.003l-.935.004q-.468.002-.935.003l-.935.004q-.467.001-.934.003l-.935.004q-.467.001-.935.003-.467.002-.934.003l-.935.004q-.467.002-.935.003l-.934.004q-.468.001-.935.003t-.935.003l-.934.004q-.468.002-.935.003l-.935.004q-.467.001-.935.003-.467.002-.934.003l-.935.004q-.467.002-.935.003l-.934.004q-.468.001-.935.003l-.935.004q-.467.001-.934.003-.468.002-.935.003l-.935.004q-.467.002-.935.003l-.934.004q-.468.001-.935.003t-.935.003l-.934.004q-.468.002-.935.003l-.935.004q-.467.001-.934.003l-.935.004q-.467.001-.935.003-.467.002-.934.003l-.935.004q-.468.001-.935.003l-.935.004q-.467.001-.934.003-.468.002-.935.003l-.935.004q-.467.002-.934.003l-.935.004q-.467.001-.935.003-.467.002-.934.003l-.935.004q-.467.002-.935.003l-.935.004q-.467.001-.934.003-.468.002-.935.003l-.935.004q-.467.002-.934.003l-.935.004q-.467.002-.935.003l-.934.004q-.468.001-.935.003t-.935.003l-.934.004q-.468.001-.935.003l-.935.004q-.467.001-.935.003-.467.002-.934.003l-.935.004q-.467.002-.935.003l-.934.004q-.468.001-.935.003l-.935.004q-.467.001-.934.003-.468.002-.935.003l-.935.004q-.467.001-.934.003l-.935.004q-.468.001-.935.003t-.935.003l-.934.004q-.468.002-.935.003-.467.002-.935.003l-.934.004-.935.004q-.467.001-.935.003-.467.002-.934.003l-.935.004q-.467.001-.935.003l-.934.004q-.468.001-.935.003-.468.002-.935.003l-.935.004q-.467.001-.934.003l-.935.004q-.467.001-.935.003l-.934.004q-.468.001-.935.003t-.935.003l-.934.004q-.468.001-.935.003l-.935.004q-.467.001-.935.003-.467.002-.935.003-.467.002-.937.003-.469.001-.946 0-.476-.001-.972-.008-.495-.006-1.018-.021-.523-.015-1.058-.034-.535-.018-1.052-.031Z"/>
    <path fill="#fbfac6" stroke="#fbfac6" stroke-width=".5" d="M290.287 1025.007q.016.006.054.004.018-.011.313.022.295.032.714.011.418-.021.815-.08.396-.06.625-.114.229-.053.359-.095.129-.042.268-.086.14-.044.362-.126.223-.083.239-.093.016-.011.368-.155.352-.145.881-.308.53-.162.801-.183.271-.022.584-.066.313-.045.606-.118.294-.073.423-.123l.38-.147q.25-.096.464-.165.214-.069.6-.156.386-.088.639-.139.252-.051.355-.071.103-.02.248-.059.145-.038.369-.108.224-.071.394-.14.169-.068.376-.189.207-.12.505-.302.297-.181.383-.238.087-.056.125-.076.039-.019.224-.13t.227-.129q.041-.018.335-.112.029.023.1.228.072.206.143.675.071.47.088.934.016.465.003.877-.013.413-.029.857-.016.445-.031.914-.007.454-.007.886 0 .433.005.852.005.418.007.711.001.293-.002.463-.002.17-.011.417-.009.247-.025.572-.015.324-.052.784t-.096 1.056q-.118 1.191-.19 2.044-.072.852-.095 1.334-.023.482-.061 1.338-.038.856-.054 1.755-.016.9-.019 1.859-.003.96.005 1.705.008.746.047 1.602.039.856.054 1.228.014.373.023 3.02l.014 4.089q.004 1.443.007 2.073.002.63.006 1.065.004.434.009 1.348.005.913.019 2.091.013 1.178.039 1.799.025.621.037 2.987.011 2.367-.019 4.473-.029 2.107-.039 3.083-.011.975.001 1.569.011.594.052 2.893.04 2.298.034 3.493-.006 1.196-.033 1.912-.026.717-.05 1.203-.024.487-.096 2.139-.073 1.652-.092 2.492-.019.84-.02 1.998-.002 1.158.004 1.911.007.754.033 1.493.027.739.022 1.385-.004.647-.039 1.971t-.004 2.788q.032 1.463.15 2.666.118 1.202.195 1.816.076.614.138.963.063.349.279 2.123.216 1.775.286 2.666.07.891.053 1.312-.018.421-.04.593-.023.172-.053.313-.03.141-.072.257-.042.117-.149.362-.159.399-.256.603-.098.205-.158.333-.06.128-.121.239-.061.11-.243.378-.182.267-.257.364-.074.097-.229.365-.137.237-.197.339-.06.102-.147.268-.087.165-.135.266-.048.101-.193.353-.144.253-.29.519-.146.267-.49.92-.345.654-.663 1.221-.319.566-.476.821-.156.254-.419.74-.262.487-.414.776-.151.289-.317.572-.083.141-.245.442-.162.302-.402.763l-.427.817q-.187.357-.386.735-.2.378-.377.678-.178.301-.319.555-.14.254-.273.531-.132.277-.29.68-.158.402-.255.704-.097.301-.147.48-.05.178-.18.669-.131.491-.392 1.219-.07.095-.157.265-.087.169-.166.277-.08.107-.165.18-.086.074-.264.217l-.054.014-.121-.01q-.034.012-.597-.412t-.992-.915q-.429-.491-.666-.823-.236-.332-.381-.532-.144-.2-.276-.39-.132-.19-.274-.379-.143-.189-.34-.441-.197-.252-.374-.467-.176-.215-.41-.483-.234-.268-.676-.645-.442-.377-.722-.581-.28-.204-.661-.639-.381-.434-.662-.784-.281-.35-.562-.611-.28-.261-.601-.526-.32-.265-.663-.629-.342-.364-.503-.561-.16-.198-.449-.526-.288-.328-.842-1.129-.553-.8-.812-1.259-.258-.459-.359-.688-.1-.229-.209-.7-.108-.47-.186-.884-.077-.412-.189-.846-.112-.433-.159-.693-.047-.26-.093-.497-.046-.236-.09-.494t-.048-.354q-.005-.096.014-.271.018-.175.025-.19.006-.015.156-.377.149-.362.371-.777.221-.414.311-.554.089-.141.455-.636.366-.496.776-1.24.409-.744.579-1.124.17-.38.459-1.073.289-.694.564-1.4.275-.707.667-1.432.391-.725.612-1.128.221-.403.54-1.24.319-.837.553-1.505.234-.668.437-1.195.202-.526.519-1.262t.658-1.48q.34-.744.497-1.228.157-.484.472-1.529-.005-.042.073-1.119.077-1.077.12-1.719.042-.642.118-1.395.077-.753.096-1.644.02-.89-.007-1.449-.026-.558-.119-1.2-.093-.642-.177-1.198-.084-.555-.12-.857-.036-.302-.149-1.038-.112-.736-.177-1.154-.064-.418-.086-.649-.021-.231-.051-1.592-.029-1.361-.093-2.837-.063-1.476-.098-2.209-.036-.732-.022-1.488.013-.755.035-1.322.021-.568.027-.883.007-.315.042-1.324.035-1.009.087-2.795.051-1.787.09-2.654t.035-1.84q-.004-.973-.034-1.942-.03-.969-.031-1.425 0-.455.005-1.008.005-.553-.026-1.009-.03-.455-.068-1.84-.038-1.386-.043-2.339-.004-.952 0-1.559t.001-.883q-.002-.276-.002-.993.001-.716.052-1.324.051-.608.085-.876.034-.269.045-.372.012-.102.023-.164.011-.062.066-.593.055-.532.07-1.427.016-.896-.001-1.872-.016-.975-.009-1.507.007-.532.022-1.5.014-.967.002-1.376-.012-.41-.059-1.016-.048-.606-.07-.984-.022-.377-.025-.551-.003-.174-.015-1.071t-.022-1.407q-.011-.51-.029-.802-.019-.292-.028-.743-.008-.452-.002-.775.007-.324-.002-.629-.009-.304.003-.584.012-.28.009-.405-.002-.125-.011-.224t-.009-.161q.001-.063-.066-.314.395-.244.79-.489Z"/>
    <path fill="#fbfac6" stroke="#fbfac6" stroke-width=".5" d="M295.101 1007.449q-.225.069-.229.071-.004.002-.182.102-.179.101-.315.2-.136.1-.316.341-.179.241-.297.426t-.243.39q-.124.204-.214.394-.09.191-.146.338-.055.146-.088.261-.033.116-.053.199-.02.083-.05.217-.03.134-.134.683-.104.55-.166.897-.063.347-.102.565-.04.217-.06.421-.02.203-.032.312-.011.108-.029.51-.017.402-.024 1.049-.006.647-.001 1.321.004.674.02.996.016.322.025.637.009.314.015.568.007.253.015.422.009.169.014.251.005.082.01.24.006.159.016.462.009.302.014.44.004.138.005.336t-.001.355q-.001.157-.005.63-.004.474-.014.735-.009.261-.024.487-.014.225-.017.377-.003.152-.001.448.003.296.011.474.009.178.022.392.013.213.028.424.015.211.188.673l.032.028.053.025q.014.004.05.017.036.013.264.028.227.015.578-.027.35-.041.57-.072.22-.03.37-.059.15-.028.269-.055.119-.027.412-.071.294-.045.612-.064.318-.02.49-.034.171-.014.4-.063.23-.05.516-.167.285-.117.514-.198.229-.081.394-.124t.28-.084q.115-.041.228-.108.113-.068.188-.121.076-.052.123-.101.047-.049.058-.066.011-.016.072-.103.06-.088.103-.164.042-.076.052-.093.01-.017.053-.145t.053-.169q.011-.04.022-.096t.063-.475q.051-.42.069-.687.018-.268.031-.613.013-.345.022-.512.009-.167.025-.442.016-.276.028-.407.012-.13.002-.415l-.017-.489q-.008-.205-.022-.381-.015-.177-.023-.318-.008-.14-.014-.556-.007-.416-.002-.605.005-.188.009-.417.004-.23.019-.516.014-.286.029-.451.016-.165.019-.309.004-.144.015-.344.011-.199.007-.546-.005-.346-.023-.619-.017-.274-.027-.407-.01-.133-.018-.221-.008-.088-.02-.235-.011-.146-.021-.263-.009-.116-.013-.243-.004-.128-.003-.224t.005-.176q.004-.08-.001-.277t-.011-.338q-.005-.141-.006-.207 0-.067-.024-.296-.023-.23-.08-.54-.057-.31-.088-.47-.031-.159-.047-.213-.016-.054-.03-.092-.013-.038-.028-.084-.015-.046-.05-.182-.036-.136-.071-.232-.035-.096-.081-.187-.045-.092-.088-.184-.044-.092-.061-.123-.017-.03-.061-.102-.044-.073-.068-.114-.023-.041-.047-.083-.023-.041-.025-.045-.001-.004-.041-.074-.04-.069-.074-.115-.033-.046-.065-.084-.033-.038-.072-.101-.039-.063-.129-.168-.089-.105-.159-.184-.07-.078-.122-.135-.052-.057-.082-.083-.029-.025-.138-.105-.108-.079-.121-.093-.013-.013-.043-.037t-.069-.05q-.039-.027-.09-.056-.051-.03-.106-.062-.055-.031-.088-.046-.032-.015-.093-.038-.061-.024-.161-.066-.101-.043-.174-.069-.073-.026-.109-.043-.036-.017-.071-.029-.035-.011-.08-.022-.044-.011-.057-.015-.014-.004-.127-.027l-.131-.001q-.633.192-1.267.385ZM175.862 1120.643l-.018.019q-.098.125-.349.538-.252.413-.557.942-.304.53-.813 1.591-.509 1.062-.824 1.759-.316.696-.558 1.194-.242.498-.294.628-.053.13-.207.515-.153.386-.224 1.026l.039.221q.125.132.197.181.073.05.147.101.075.052.283.103.209.052.428.081.219.029.398.044.179.014.365.021.186.008.483.013.297.005.419.012.122.008.312.023.19.016.408.043.218.027.862.039.644.013.984-.001.341-.014.664.009.324.024.573.039.25.015.598.026t.448.011q.1.001.53.012.429.012.765.029.335.017.719.043.384.026.688.042.305.016.641.025.336.009.846-.016.509-.026.972-.074.462-.048 1.051-.134.589-.087 1.061-.144.472-.056.824-.068.351-.011.761.023.41.034.883.099.473.066.852.114.378.048.666.069.287.021.68.049.393.028.893.057t1.04.037q.539.008 1.116.004.576-.005 1.009-.011.434-.007.724-.015.58-.018 1.356.038.775.057 1.699.036.924-.02 1.442-.063.518-.042 1.018-.058t1.437-.024q.938-.007 1.423-.013.485-.006 1.24.023.754.029 1.461.052.707.024 1.249.008.542-.016 1.094-.015.552 0 1.054-.018.501-.018.757-.049.257-.03 1.162-.108.905-.078 1.55-.093.645-.014 1.458-.042.812-.029 1.788-.089t1.478-.098q.502-.039 1.742-.059 1.24-.021 2.198-.018.958.003 1.443-.004.485-.008 2.029.04 1.543.049 2.444.104.901.055 2.406.036l2.285-.029q.78-.009 1.322-.004.542.005 2.382.069t3.071.073q1.23.009 2.018.021.788.013 1.381.037.593.023 1.776.096 1.183.073 2.166.059.982-.013 1.636-.072.654-.059 1.783-.152 1.129-.094 1.779-.133.649-.039.954-.067.304-.027 2.016-.18 1.711-.153 2.699-.208.989-.054 1.513-.061.523-.008 1.094.01.572.018.887.046.316.027 1.033.059.718.031 1.532.026.814-.005 1.262.006.448.012.778.039.329.026 1.663.016 1.335-.011 2.597-.048 1.261-.037 1.879-.053.619-.016 1.022-.004.404.012 1.136.066.733.053 1.502.048.768-.005 1.188-.016.42-.011.928-.003.508.007 1.005.04.498.032 1.15-.005.653-.037 1.403-.105.75-.067 1.492-.08.742-.012 2.085 0 1.344.012 1.961.035.617.023 1.145.034.528.011.972.021.443.01.873-.013t1.184-.047q.753-.024 1.616-.055.052-.015.52-.112.467-.097.77-.32.057-.036-.329-.663-.385-.626-.736-1.041-.351-.415-.504-.595-.154-.18-.355-.406-.201-.225-.429-.53-.227-.305-.44-.587t-.37-.459q-.158-.177-.253-.278-.096-.1-.269-.347-.174-.248-.349-.479-.175-.232-.304-.392-.13-.161-.206-.281-.075-.12-.178-.267-.103-.147-.274-.39-.171-.244-.334-.497-.164-.254-.211-.334-.048-.081-.098-.151-.05-.07-.107-.162-.058-.092-.086-.143-.028-.05-.077-.154"/>
    <path fill="none" stroke="#381d1d" stroke-width="1.41" d="M162.189 1003.102H280.314q.63 0 1.22.001h5.753q.37.001.87.001h2.373q.602.001 1.021 0h.748q.329-.001.707-.001l.746-.002q.368-.002.905-.004.537-.003 1.161-.009.624-.007 1.022-.014l.401-.006.014-.001q.013 0 1.075-.023M150.726 1110.454l-.054.002q.125.008.325.022.201.013.489.03.287.017.684.034.397.018.791.029.394.012.697.017.303.006.642.011.339.004.715.007.375.004.784.006.41.002.852.003l.914.002q.473 0 .974.001H276.916q.435-.001.774-.001h.684q.347 0 .786-.001h1.061q.623-.001.909-.001h.844"/>
    <path fill="none" stroke="#381d1d" stroke-width=".5" d="M159.831 1120.686q.006.002.017.004.012.003.045.006t.114.006q.082.003.245.007.163.003.438.006t.57.005q.295.002.53.004l.501.002q.267.002.562.003l.617.002.644.002.641.002q.319 0 .632.001h.619q.305.001.603.001t.732.001H277.336q.422 0 .81-.001h.741q.353-.001.671-.001.318-.001.741-.002l.939-.002q.515-.002.974-.004.459-.002.851-.003.392-.002.865-.005l.956-.006q.483-.003.966-.007.483-.003.555-.004"/>
    <path fill="none" stroke="#381d1d" stroke-width="1.41" d="M172.007 1129.382h-.746H288.274q.491.001.935.001.444 0 .841.001.397 0 .787.001.39 0 .771.001h.751q.37 0 .725-.001l.694-.002q.34-.001 1.154-.004M157.451 1024.483q.437.001.866.001.428.001.848.001h.823l.789-.002.753-.002q.367-.001.713-.003.347-.001.674-.003.327-.001.788-.003t1.009-.004q.547-.002 1.041-.003.494-.002.949-.003.454-.001.879-.001.426-.001.83-.001.404 0 .793-.001H283.383q.421-.001.67-.001H285.62q.567 0 .971-.001h.723q.32 0 .791.001h1.496q.39.001.589.001l.185.001h.055q.069 0 .465.001h.389q.072 0 .924.002"/>
    <path fill="none" stroke="#381d1d" stroke-width="1.413" d="M303.741 1008.412q.005.138.009.291.005.153.009.331.004.177.008.391.004.214.007.475.003.26.006.575.002.316.004.691l.002.81q.001.434.001.923.001.489.001.921V1016.606q-.001.369-.001.757V1019.849q0 .441-.001.9v2.907q-.001.51-.001 1.038v2.149q0 .53-.001 1.044v2.945q0 .467-.001.918v3.363q-.001.389-.001.762v2.737q-.001.311-.001.754v3.064q-.001.48-.001.924v2.331q0 .333-.001.779v2.999q0 .197-.001.528v3.191q-.001.366-.001.766v2.698q-.001.499-.001 1.032v2.218q0 .551-.001 1.086v3.067q-.001.487-.001.959v2.688q-.001.424-.001.832v3.014q-.001.345-.001.674v2.938q-.001.521-.001.988V1078.624q-.001.463-.001.867v2.589q0 .316-.001.654v3.019q0 .405-.001.82v2.586q0 .447-.001.905V1093.573q-.001.393-.001.761v2.683q-.001.403-.001.881V1099.566q0 .357-.001.653v1.259q0 .332-.001.681v.715l-.002.765q0 .4-.001.83-.002.43-.003.884-.002.454-.004.806-.003.352-.005.614-.002.261-.005.544l-.008.577q-.005.293-.012.585-.006.292-.016.568-.009.276-.02.504"/>
    <path fill="none" stroke="#381d1d" stroke-width="1.41" d="M289.82 1024.601q.001-.011.004.175.003.187.008.569.005.383.009.72l.009.776.01.878q.005.44.01.921.004.48.009.988l.008 1.034.006 1.06q.003.536.005 1.082l.002 1.108.002 1.147q.001.586.001 1.05V1074.667v-.187 5.26q.001.342.001.574v1.199q0 .371.001.827 0 .457.001.882t.002.749q0 .323.001.687l.002.724.002.715.002.676q0 .321.001.605v.595q.001.309 0 .643 0 .334-.002.693-.002.359-.005.742-.004.383-.01.783t-.014.815q-.013.554-.01.859M158.64 1025l.002.282q.002.289.005.88.004.592.007 1.238t.005 1.123q.003.477.005.993.002.515.003 1.059.002.545.003 1.113l.002 1.163v1.065q.001.471.001.793V1081.316q0 .453.001.864v2.92q0 .402.001.869v1.013q.001.546.001 1.188 0 .642.001 1.395t.001 1.608q.002.168.003.962 0 .034.001.15"/>
    <path fill="none" stroke="#381d1d" stroke-width=".5" d="M174.901 1024.931q.001-.032.002-.103.001.131.006.539.006.408.01.78l.009.842q.005.469.01 1.028.005.558.009 1.199.004.642.007 1.183.002.541.003.919l.002.777q.001.399.001.795.001.396.001.79 0 .395.001.788v45.977q0 .495-.001.996v1.016l-.002.961q-.001.446-.002 1.011l-.003.846q-.001.281-.003.724-.002.443-.005 1.005-.004.562-.007 1.043-.003.48-.008 1.078-.004.598-.01 1.329-.006.732-.014 1.591-.002.204-.019.274M194.755 1024.967q-.001.771-.001 1.321-.001.551-.001.882-.001.331-.001.688 0 .357-.001.74 0 .383-.001.782v.816q-.001.415-.001.84v.858q-.001.433-.001.845v.803q0 .391-.001.768V1079.886q0 .351-.001.852v1.095l-.002 1.125-.002.994q-.001.462-.002 1.065-.002.603-.004 1.145-.002.543-.005 1.258l-.006 1.407q-.002.691-.004 1.208t-.003 1.073q-.002.556-.003 1.216M213.757 1024.614q-.003 1.022-.003.949l-.003.85-.002 1.101q-.002.507-.003 1.109l-.002 1.117q0 .514-.001.871v.733q-.001.375-.001.768v48.375q0 .49-.001 1.026v3.837q-.001.435-.001.827 0 .393-.001.919-.001.527-.002 1.209t-.002.903l-.001.21v.161q0 .171-.001.526l-.003.988q-.002.632-.005 1.502M233.625 1024.628q0 .032.001.273 0 .242.001.692.002.45.003.885l.002.855.002.82.002.782.002.701q0 .321.001.711.001.39.002.917t.001 1.055l.002 1.052v1.053q.001.528.001 1.065v47.115q0 .512.001 1.05V1085.958q.001.622.001 1.317l.002 1.486.002 1.688.004 1.873q.001-.145.002-.249M251.789 1024.769q.015 1.21.018.983.001.024.004.524t.004.955q.002.455.002.891v59.047q.001.327.001.645V1090.433q.001.448.001 1.025 0 .578.001 1.137 0-.444.001-1.027M271.898 1024.707q.001.042.007.545t.015 1.209q.008.706.014 1.262.007.557.013 1.178.007.622.013 1.281.006.659.011 1.33.005.671.008 1.256.004.584.006 1.103.002.52.003.992l.002.911q0 .438.001.853v1.586q.001.381.001.747V1092.441v-.748"/>
    <path fill="none" stroke="#381d1d" stroke-width=".5" d="M160.124 1039.285h-.747H280.859q.418 0 .866-.001h.783q.336-.001.651-.001.315-.001.76-.002.445 0 .946-.002.502-.001.823-.003.322-.001.507-.002.184 0 .652-.003.467-.002.44-.002-.027 0-.067-.001-.04 0 .53-.003.57-.003 1.794-.011M159.214 1057.527q.094-.001.386-.002.292-.002.78-.005.487-.003.992-.005.504-.003.88-.004l.791-.004q.414-.001.863-.003l.93-.002.993-.002 1.057-.002h1.121q.578-.001 1.038-.001H272.787q.599 0 1.172-.001h1.124q.552 0 1.088-.001.537 0 1.028-.001l.938-.002q.447-.002.846-.003.398-.002.737-.004l.821-.005q.483-.003.842-.006t.755-.006q.396-.004.766-.007.37-.004.715-.007.345-.004.735-.008.389-.004.822-.008.434-.005.915-.011.482-.005 1.012-.011.53-.007 1.101-.013.571-.007 1.184-.015l.194-.01M158.858 1074.125q-.332-.031.16-.041-.03-.003-.08-.006-.025-.002.193-.006.217-.005.731-.014.513-.01 1.094-.019.58-.01 1.013-.016.434-.006.908-.012.475-.006.941-.01.467-.005.928-.008.461-.004.918-.006l.916-.004q.458-.002.921-.003.462-.001.932-.001.47-.001.95-.001h.974q.492-.001.957-.001H275.26q.361 0 .838-.001h.936q.459-.001.735-.001.276-.001.623-.001.347-.001.777-.003.429-.001.958-.004.529-.002 1.024-.006.495-.003.866-.006.372-.004.785-.007.413-.004.88-.009.467-.005.986-.012.52-.006 1.099-.013.578-.008 1.215-.016.638-.009 1.319-.018.682-.01 1.407-.02M158.692 1092.636q-.02-.001.126-.001t.304-.001h.821q.216.001.424.001l.444.002.505.002q.268.002.561.003l.613.004q.319.001.615.003.295.001.697.002.402.002.765.002l.732.002q.371.001.749.001t.765.001H170.124q.445.001.91.001H279.214q.424 0 .781.001h.77q.413 0 .872.001h.977q.518.001 1.129.001l.624.001h.342q.328 0 .724.001h.826q.43.001.776.001.346.001.751.001.406 0 .871.001.465 0 .989.001"/>
    <path fill="none" stroke="#381d1d" stroke-width="1.41" d="M158.535 1092.804q-.095.201-.195.41-.1.209-.186.388-.087.179-.156.324-.07.145-.153.319-.084.175-.178.372-.093.197-.202.429-.109.231-.234.5-.124.269-.264.574-.14.305-.287.627-.147.322-.299.659-.153.336-.311.688-.158.351-.322.716t-.313.698l-.282.63q-.132.297-.247.554-.114.257-.258.581-.144.325-.299.674-.156.349-.331.746-.176.396-.18.406-.005.011-.171.387t-.107.243q.06-.134-.113.26l-.206.469q-.034.076-.125.285-.091.209-.254.585-.164.376-.286.658-.121.283-.238.555-.116.271-.351.825l-.229.542q-.331.793-.282.694-.299.722-.761 1.844.005-.008.203-.374"/>
    <path fill="none" stroke="#381d1d" stroke-width=".5" d="M173.385 1092.964q.177-.377.056-.094-.121.284-.251.59-.131.306-.24.562-.11.255-.242.562l-.256.595q-.125.288-.3.693-.176.405-.384.879-.207.475-.389.889-.182.414-.34.774-.159.359-.292.66-.134.302-.296.671-.163.368-.343.775-.18.406-.369.831-.188.426-.339.766-.151.341-.271.611-.12.27-.259.584-.139.313-.274.618-.135.304-.267.6l-.259.583q-.128.288-.317.71-.188.423-.358.802-.17.379-.293.654-.124.274-.235.521-.112.246-.086.186.026-.06-.247.539-.272.598-.234.508-.457.992-.376.796l-.331.715q-.2.43-.174.366.026-.063-.017.029M194.108 1092.903q.002-.005-.081.183-.084.188-.211.474-.126.286-.258.583-.131.296-.31.699-.178.402-.347.783-.169.381-.293.662-.125.281-.261.588-.136.308-.267.601l-.316.715q-.187.42-.412.929l-.43.967q-.203.46-.387.872-.183.413-.356.801-.172.389-.334.753l-.312.701q-.151.337-.358.802-.207.464-.49 1.097-.283.634-.573 1.281-.289.647-.732 1.635-.442.987-1.039 2.318M212.518 1092.786l-.047.105M212.398 1093.003q-.21.478-.392.894-.182.415-.356.811-.173.395-.299.681-.126.287-.261.596-.136.308-.267.607-.131.298-.258.585-.127.288-.249.566-.123.278-.301.682-.179.404-.405.916-.227.512-.447 1.01-.221.499-.41.923-.188.424-.347.781l-.288.647-.228.509q-.098.22-.236.527l-.321.716q-.184.408-.422.934-.237.525-.539 1.188-.301.662-.591 1.298-.291.636-.556 1.213-.265.577-.523 1.135"/>
    <path fill="none" stroke="#381d1d" stroke-width=".5" d="M204.897 1109.882q-.069.146-.157.325-.087.178-.168.34.011-.027.287-.672M232.988 1092.707q-.396.862-.3.637-.039.086-.2.438l-.31.68q-.148.327-.336.743-.188.415-.362.803-.173.387-.299.668-.126.282-.262.587t-.282.633q-.146.329-.303.681-.156.352-.323.728l-.345.777q-.178.4-.342.771l-.315.711-.289.651-.325.733-.384.867q-.197.445-.342.772l-.295.665q-.15.338-.304.686l-.313.707q-.159.359-.323.728t-.326.735q-.162.366-.323.728-.16.362-.319.721t-.317.715M251.396 1092.869q-.984 2.348-7.276 17.369M271.655 1092.957q-.008.017-.013.03-.006.012-.238.539-.232.526-.205.464-.274.62-.25.566.102-.229-.003.008-.104.238-.237.538l-.327.738q-.193.438-.356.806-.163.368-.297.67-.134.302-.238.538-.105.237-.182.41-.077.174-.183.412-.105.239-.24.543-.135.305-.299.674-.164.369-.356.804l-.369.83q-.176.396-.334.753-.159.358-.302.677-.142.319-.329.74-.188.421-.426.952-.238.531-.461 1.028-.224.498-.297.659-.072.162-.01.017.063-.144-.023.048-.086.191-.18.399-.093.207-.22.489-.127.282-.282.628-.154.345-.287.644-.133.298-.224.503-.091.206-.185.418-.093.212-.189.43t-.195.445q.191-.398.286-.514"/>
    <path fill="none" stroke="#381d1d" stroke-width="1.41" d="M289.796 1092.743q.053-.109-.021.072-.073.182-.227.559-.153.378-.288.707-.135.328-.302.73-.167.402-.366.873-.199.47-.429 1.005-.229.535-.447 1.036-.219.502-.426.975-.208.474-.406.924-.199.449-.389.88-.19.43-.373.845t-.362.818q-.178.404-.353.8t-.348.788q-.173.392-.351.796-.177.403-.361.82-.183.417-.325.739-.142.323-.262.599l-.269.611-.318.727q-.172.391-.367.838-.196.447-.386.881-.19.435-.375.857"/>
    <path fill="none" stroke="#381d1d" stroke-width=".5" d="M296.195 1098.128q-.252.628-.468 1.164-.216.535-.394.972-.178.438-.331.81-.154.373-.299.722-.145.35-.263.629l-.254.603-.25.589q-.112.263-.242.566-.13.303-.26.604l-.276.636q-.145.335-.294.675-.148.34-.3.687-.152.347-.288.656-.136.31-.317.72-.18.41-.392.891-.211.481-.37.842-.158.361-.335.763-.176.402-.328.748l-.294.672q-.143.326-.263.602-.12.275-.265.608-.145.332-.298.685-.153.353-.315.725-.161.373-.308.711l-.277.641q-.131.304-.255.59-.123.287-.298.692-.174.404-.341.793-.167.388-.347.805-.179.417-.369.859-.189.441-.39.907"/>
    <path fill="none" stroke="#381d1d" stroke-width="1.41" d="M303.632 1109.547q-.3.682-.436.99-.135.309-.104.241-.092.208-.279.634-.188.426-.183.414.006-.012-.007.018l-.109.245q-.095.217-.277.631l-.29.656q-.107.243-.152.346l-.204.461q-.157.357-.277.629-.121.272-.256.579-.136.307-.253.572l-.265.6q-.148.336-.363.82-.214.485-.444 1.005-.23.52-.477 1.076-.246.556-.449 1.016-.204.46-.45 1.016-.246.556-.425.96l-.393.892q-.215.488-.385.876-.17.387-.366.835-.195.448-.323.741-.127.294-.222.513-.094.22-.198.46-.104.241-.187.435-.084.194-.181.42-.097.226-.202.469-.104.243-.225.522-.12.278-.287.661M171.235 1129.21q-.004.008-.014.03.003-.008.22-.51t.374-.866q.157-.363.274-.635.118-.273.249-.574.13-.302.251-.581.122-.28.288-.664.167-.384.317-.727.149-.343.3-.689.15-.345.3-.689.15-.345.299-.689.149-.343.299-.69.15-.347.306-.707"/>
    <path fill="none" stroke="#381d1d" stroke-width=".5" d="M159.882 1120.573q.183-.408.503-1.125.319-.717.582-1.305.262-.587.559-1.255.298-.667.538-1.208.241-.54.401-.901.161-.36.322-.723.162-.364.325-.731t.328-.738l.333-.751q.169-.379.343-.771"/>
    <path fill="none" stroke="#381d1d" stroke-width="1.41" d="M161.951 1003.086q-.254.507-.459.905-.205.398-.325.635-.12.237-.261.524-.141.287-.264.538-.124.251-.277.562-.154.31-.282.573-.128.263-.28.583-.152.32-.297.653-.146.333-.334.845-.187.513-.329.96-.142.448-.251.867-.11.419-.203.824-.092.404-.154.723-.061.319-.122.687-.061.368-.121.786-.061.417-.122.885-.06.467-.108.853-.047.385-.099.841-.052.456-.07.733-.018.277-.035.651-.017.373-.03.681-.012.307-.026.673-.014.367-.025.693-.011.326-.023.75-.012.425-.016.808-.004.383-.007.711l-.004.633q-.001.305.003.713.003.408.012 1.007"/>
    <path fill="none" stroke="#381d1d" stroke-width=".5" d="M299.779 1006.659q-.565-.074-1.025-.118-.46-.044-.815-.058-.355-.015-.613-.012-.258.002-.502.029-.244.027-.564.115-.321.088-.561.195-.239.106-.501.27-.262.164-.458.326t-.411.385q-.215.222-.405.48-.191.259-.414.7-.222.442-.367.861-.144.418-.238.827-.094.408-.154.812-.061.405-.091.724-.03.32-.05.688-.02.367-.031.781-.012.413-.018.87l-.011.832q-.005.374-.013.816-.009.443-.005.712.004.27.011.636.007.367.01.67.003.303.003.669.001.365 0 .692-.001.326-.003.756-.001.429.003.822.005.393.01.739.005.345.01.64.006.295.02.799.013.504.034 1.222"/>
    <path fill="none" stroke="#381d1d" stroke-width="1.41" d="M296.796 1003.084q.256-.01.658-.022.402-.011.691-.012.289-.002.599.002.31.005.59.022.281.018.658.064.377.047.605.098.229.051.729.267.5.216.683.334.183.117.408.322.225.206.313.305.087.1.187.224t.226.344q.126.221.19.366t.107.251q.042.106.073.213.03.107.093.403.062.296.081.564.018.267.025.46.006.193.011.412.004.22.055 1.007"/>
    <path fill="none" stroke="#381d1d" stroke-width=".5" d="M294.487 1007.667q.476-.243.696-.321.221-.079.388-.123.167-.045.437-.093.269-.048.469-.051.199-.003.402.025.202.028.706.308.503.281.625.398.121.117.34.457.218.341.319.566.101.226.147.34.046.114.12.371.074.258.177.72.103.463.161.807.059.345.091.654.032.31.058.748.027.438.041.813.013.374.023.831.011.457.017.819.006.363.01.762t.005.988q.001.59.002.86.001.269 0 .696-.002.426-.001.751t.003.689q.002.364.004.656.003.291.008.622.004.331.006.565.002.234.032 1.087l-.001.194M299.811 1022.962q.294-.148.587-.297t.537-.266q.244-.118.391-.191.146-.073.402-.203.256-.131.432-.223l.301-.158q.125-.065.183-.098.059-.032.149-.082t.253-.133q.164-.084.352-.185.188-.101.512-.276"/>
    <path fill="none" stroke="#381d1d" stroke-width=".5" d="M296.201 1098.028V1024.349q0-.525-.001-1.112V1020.598q0-.374-.001-.927 0-.553-.001-1.168-.001-.615-.002-.968 0-.353-.001-.429 0-.076-.001-.357 0-.281-.001-.653-.002-.372-.004-.953t-.005-1.118l-.007-1.236q-.004-.698-.01-1.562-.006-.865-.012-1.629-.007-.765-.011-1.305-.005-.541-.009-1.018"/>
    <path fill="none" stroke="#c84557" stroke-width=".982" d="m242.34 1069.466 5.008-3.403q.479-.524.526-.599.047-.075.183-.402.136-.326.159-.425.022-.099.034-.501.011-.402-.095-.775-.107-.374-.316-.696-.209-.323-.506-.572-.297-.249-.665-.401-.368-.153-.439-.168-.071-.016-.455-.03-.383-.015-.742.079-.358.093-.673.281-.314.189-.525.409l-.212.219q-.305-.666-.544-.944-.24-.278-.553-.48-.313-.203-.616-.299-.303-.096-.705-.107-.402-.012-.776.095-.373.106-.696.316-.322.209-.571.506-.249.296-.402.664-.152.369-.168.44-.015.071-.031.443-.016.373.069.719.084.346.157.498l.073.153 3.481 4.98Z"/>
    <path fill="none" stroke="#381d1d" stroke-width=".5" d="M174.975 1121.743q.024-.071.125-.313t.262-.623"/>
  </g>
</svg>
