<svg xmlns="http://www.w3.org/2000/svg" width="180.292" height="208.324" viewBox="-580.94 1348.213 135.219 156.243">
  <g stroke-linecap="round" stroke-linejoin="round">
    <path fill="#fff780" stroke="#fff780" stroke-width=".5" d="M-576.197 1454.532q-.075.291-.103.691-.028.401-.091 1.493-.062 1.093-.023 1.971.039.878.217 1.699.177.82.492 2.56.314 1.74.431 2.569.116.83.426 3.193.311 2.363.439 3.497.128 1.135.221 1.671.094.536.297 1.558.203 1.023.473 2.778.27 1.755.646 3.662t.454 2.3q.079.393.247.86.168.466.294.711.127.245.227.417.101.173.203.314.112.086.342.314.231.228.339.295.107.068.282.138.175.071.223.079.048.009.71.144.662.136 1.397.173.735.037 1.621-.087.885-.125 1.412-.216.527-.092 1.646-.22 1.119-.129 1.886-.251.767-.122 1.536-.279.768-.157 1.376-.242.609-.085 1.538-.171.929-.086 1.497-.174.567-.087 1.542-.33.975-.243 1.918-.442.942-.199 2.297-.585 1.355-.385 2.083-.64.729-.254 2.01-.638 1.281-.383 2.471-.874 1.19-.49 1.802-.802.612-.312 1.261-.639.65-.327 1.702-.743 1.051-.417 1.974-.791.922-.375 2.253-1.061 1.331-.686 2.068-1.119.736-.433 1.603-1.102t1.329-1.028q.461-.358 1.24-.842.779-.484 1.959-1.241 1.179-.757 1.929-1.278.75-.522 1.24-.908.489-.386 1.007-.864.517-.477.907-.806.391-.329.809-.672.418-.344.655-.582.238-.238 1.003-1.101.765-.864 1.182-1.337.416-.474.727-.865t.46-.548q.15-.158.294-.341.145-.183.228-.331.084-.148.236-.452.153-.305.217-.465.065-.161.097-.257.031-.097.063-.301t-.004-.293q-.035-.088-.257-.802-.221-.715-.621-1.486-.399-.771-.904-1.622-.505-.851-.932-1.651-.426-.799-.949-2.154-.523-1.356-.781-1.996-.258-.64-.431-1.001-.173-.36-.324-.627-.151-.266-.238-.414-.088-.149-.195-.342-.107-.193-.454-.969-.347-.776-.546-1.263-.199-.488-.604-1.207-.405-.718-1.094-1.924-.689-1.205-.783-1.342-.093-.137-.373-.477-.28-.34-.571-.691-.291-.352-.492-.612t-.553-.706q-.351-.447-.928-.992-.578-.545-1.088-1.041-.511-.496-.836-.805-.325-.309-.595-.491-.27-.181-.627-.408-.357-.227-.365-.229-.007-.002-.379-.28-.371-.277-.644-.487-.272-.209-.414-.315-.142-.107-.338-.297-.197-.19-.452-.395-.256-.205-.553-.424-.298-.219-.593-.32-.294-.101-.452-.095-.048.049-.456.494-.407.446-.693.868-.286.423-.619.914-.333.49-1.176 1.773-.843 1.282-1.482 2.117t-.989 1.209q-.349.374-.536.564-.186.191-.757.726-.57.535-1.074.924-.505.389-1.201.801-.696.413-1.245.74-.55.327-.947.556-.396.229-1.272.667-.876.438-1.306.651-.43.213-.635.323-.205.11-.593.304t-.633.315q-.246.12-1.064.514-.819.394-1.664.697-.846.303-2.684.92"/>
    <path fill="#fff780" stroke="#fff780" stroke-width=".5" d="m-487.487 1499.811.087.041q.305-.005.351.006.045.011 1.007-.148.961-.159 1.936-.502.974-.342 1.559-.601.584-.259 1.109-.502.526-.242 1.028-.469.502-.227 1.072-.473.571-.245 2.753-1.01 2.183-.765 2.72-.987.537-.222 1.229-.545.693-.322 1.452-.691.759-.368 1.83-.795 1.072-.426 2.581-.707 1.509-.281 2.301-.402.792-.122 1.407-.324.614-.203 1.534-.71.92-.508 1.282-.724.362-.217.722-.389.36-.172.481-.225.121-.053 1.027-.978.02-.033-.011-.383-.031-.349-.09-.585-.058-.235-.08-.388-.021-.152-.046-.26-.025-.108-.096-.524-.072-.416-.333-1.084-.26-.669-.454-1.086-.193-.418-.427-1.199-.233-.781-.348-1.195-.115-.414-.234-.699-.119-.284-.301-.574-.182-.289-.344-.543-.161-.254-.332-.65-.17-.396-.344-1.094-.175-.699-.268-1.111-.093-.411-.288-.894-.195-.483-.315-.76t-.331-.837q-.211-.56-.479-1.103-.267-.544-.573-1.002-.306-.457-.637-1.12-.331-.662-.583-1.19-.252-.529-.524-.99-.271-.461-.646-1.101-.376-.641-.854-1.559-.479-.917-1.097-2.001-.618-1.084-.963-1.719t-.76-1.416q-.415-.782-.851-1.472-.435-.689-.956-1.521-.521-.832-.878-1.473-.358-.64-.905-1.435-.548-.796-.893-1.227-.346-.43-.761-1.073-.414-.644-.77-1.322-.356-.679-1.028-1.753-.672-1.074-1.215-1.961-.544-.888-.78-1.256-.236-.369-.622-.865-.386-.495-.636-.823-.25-.328-.581-.857-.331-.528-.777-1.168-.447-.64-.669-.961-.221-.321-.385-.594-.164-.272-.399-.668-.235-.395-.555-.874-.32-.478-.56-.796-.24-.317-.57-.972-.329-.655-.565-1.098-.236-.444-.376-.635-.139-.19-.229-.294-.089-.104-.238-.249-.149-.145-.25-.241-.101-.097-.185-.181-.083-.084-.16-.164t-.247-.223q-.171-.142-.409-.295-.238-.152-.637-.348-.4-.196-.724-.312-.325-.116-.532-.161-.207-.045-.363-.087-.156-.042-.184-.058-.028-.015-.415-.071-.387-.055-.804-.091-.417-.037-.653-.059-.235-.023-.383-.03-.149-.008-.33-.011-.18-.004-1.186-.083-1.007-.078-2.275-.068-1.269.01-2.063.102-.793.092-1.215.17-.423.078-.684.144-.26.066-.562.156-.302.09-1.272.416-.969.325-2.879 1.069-1.91.743-3.679 1.856-1.769 1.112-2.681 1.732-.912.619-1.326.958-.414.339-1.059.87-.646.532-1.693 1.532-1.048 1-1.55 1.558-.502.559-.812.931-.309.373-.644.793-.334.42-.485.635-.15.215-.347.539-.198.324-.432.746-.233.422-.634 1.094-.4.671-1.027 1.935-.626 1.264-.918 1.976-.291.712-.444 1.586-.152.874-.155 1.233-.003.359.034.594.038.234.122.464.084.23.231.471.147.241.62.877t.942 1.149q.469.514 1.016 1.086.546.573 1.064 1.026.518.454 1.184 1.042.666.589 1.047.902.382.314.944.642.563.328 1.118.714.556.387 1.061.786.504.399.846.658.342.26 1.273.699.931.44 1.669.758t1.148.494q.41.176.722.307.312.132.704.346.391.214 1.141.801.75.587 1.624 1.471.875.884 1.302 1.397.428.512.761.879t.699.828q.367.462.633.808.267.347.696.787.43.44.927 1 .498.559.887.964.389.405 1.014 1.266.625.86.938 1.397.314.537.689 1.294.375.757.676 1.408.3.65.506 1.138.205.488.532 1.286.327.797.548 1.454.695 1.608 1.385 3.212.69 1.605 1.369 3.203.679 1.598 1.357 3.197l1.358 3.196Z"/>
    <path fill="#fff780" stroke="#fff780" stroke-width=".5" d="m-454.685 1401.937.026.114q-.009.048.116.936t.37 1.872q.244.984.605 2.143.361 1.16.588 1.931.228.771.571 2.676.344 1.905.536 3.266.191 1.36.482 3.025.291 1.665.433 2.447.142.782.228 1.431.086.649.155 1.427.068.777.188 2.112.119 1.336.167 1.986.048.65.056.884.009.234-.027.631-.036.398-.229 1.04l-.133.128q-.129.126-.291.286-.163.161-.44.337-.277.176-.644.37t-.644.322q-.277.128-.898.356-.62.228-1.431.4-.811.172-1.35.3t-.862.228q-.322.1-1.417.495-1.094.395-1.698.611-.605.216-1.3.427-.695.211-2.605.623-1.91.411-3.112.601-1.202.19-1.875.251-.673.062-1.849.108-1.175.047-2.367.142-1.192.095-1.793.129-.602.034-1.517-.001-.916-.034-1.487-.028-.571.006-1.486.153-.916.146-1.778.269-.863.122-1.39.154-.526.033-1.464.027-.938-.007-1.193-.019-.256-.013-.379-.028-.123-.016-.788-.057-.664-.04-1.238-.083-.574-.043-.759-.066-.185-.023-.66.024-.475.046-.686.041-.212-.004-.248 0-.037.005-.442-.032-.405-.036-.646-.08-.24-.043-.489-.135-.25-.091-.476-.174-.226-.084-.77-.483-.543-.399-1.065-1.019-.522-.621-1.062-1.502-.54-.882-.99-1.955-.451-1.073-.932-2.485-.482-1.412-.886-2.496-.404-1.085-.683-1.879-.28-.794-.535-1.546t-.629-1.795q-.373-1.043-.641-2.97-.267-1.927-.268-3.012 0-1.085.047-1.828.047-.743.16-1.405t.743-2.643q.631-1.981 1.048-2.789.418-.807.642-1.104.223-.298.425-.502.202-.204.401-.31.199-.107.67-.362.472-.255 1.089-.56.617-.306 1.191-.496.574-.19 1.275-.227.7-.037 1.317-.036.618.001 1.308-.036.69-.037 1.268-.047.579-.011 2.128.279 1.548.289 2.495.535.946.245 2.169.392 1.223.148 1.81.177.586.029 1.558.224.971.194 1.568.339.598.144 1.554.186.957.041 1.766.005.81-.037 1.178-.057.368-.021 1.624-.044 1.255-.023 1.536-.049.281-.026.648-.019.368.008.617-.012t.604-.117l.443-.185q1.595-.279 3.189-.554 1.594-.276 3.187-.547 1.594-.271 3.187-.537 1.593-.266 3.186-.529Z"/>
    <path fill="#fff780" stroke="#fff780" stroke-width=".5" d="M-514.871 1393.908q-.135.051-.3.141-.164.09-.603.372-.439.282-.564.369-.125.087-.349.223-.223.135-1.146.953-.922.818-1.453 1.389-.531.571-1.468 1.773-.937 1.203-1.594 2.264-.658 1.061-1.007 1.77-.349.709-.802 1.456-.453.746-.823 1.349-.371.603-.803 1.645-.432 1.041-.749 1.763-.317.721-.678 1.558-.36.837-.518 1.304-.158.468-.503 1.549-.346 1.082-.868 3.015-.522 1.934-.744 2.891-.221.957-.35 1.553-.13.597-.493 1.664-.363 1.068-.616 1.703t-.484 1.33q-.231.695-.509 1.596-.279.902-.421 1.58-.141.679-.216 1.097-.074.419-.226 1.125-.153.707-.249 1.099-.097.392-.161.709-.063.316-.153.844t-.181 1.077q-.091.548-.121 1.098-.03.549-.014.937.016.389.184 1.385.168.997.444 1.825.275.828.921 2.106.646 1.277 1.295 2.168.648.891 1.114 1.347.466.457.952.838.486.381 1.266.849.78.468 1.746.8.965.332 1.63.539.665.208 1.487.632.823.424 1.545.778.721.353 2.495.484t2.869.024q1.096-.107 2.136-.369t2.212-.742q1.171-.48 2.837-1.401 1.666-.921 2.513-1.481.846-.559 1.602-1.075.755-.516 1.186-.785.431-.269 1.852-1.242 1.42-.972 2.203-1.566.783-.595 1.953-1.614 1.171-1.02 1.772-1.623.6-.602.907-.935.307-.333.482-.538.175-.205.478-.573.302-.367.717-.996.415-.628.911-2.022.496-1.393.839-2.55.343-1.156.512-2.502.17-1.346.189-2.354.019-1.008.04-2.144.02-1.136-.163-2.617t-.434-3.073q-.251-1.591-.43-2.379-.179-.787-.299-1.523-.119-.736-.227-1.382-.109-.646-.222-1.083-.114-.436-.184-.636-.07-.199-.224-.912-.154-.712-.217-1.059-.063-.346-.149-.717t-.182-.69q-.095-.319-.12-.405-.024-.087-.1-.446-.076-.359-.169-.914-.093-.556-.112-.815-.02-.26-.011-.469.009-.209.149-.762.104-.042.215-.108"/>
    <path fill="#fff780" stroke="#fff780" stroke-width=".5" d="M-496.111 1352.156q-.334-.193-.416-.22-.083-.026-.444-.095-.361-.07-.549-.088-.188-.019-.687-.071-.498-.051-1.176.006-.678.058-1.321.267-.643.208-1.887.574-1.244.365-2.016.591-.771.225-1.7.575-.929.349-2.119 1.101-1.189.753-1.901 1.319t-1.163.935q-.452.368-.941.978-.488.61-1.377 2.124-.889 1.513-1.347 2.383-.457.87-.871 1.912-.414 1.043-.844 2.183-.43 1.139-.984 3.045-.553 1.907-.747 3.106-.193 1.199-.245 3.147-.051 1.949.031 3.394.082 1.445.161 2.121.078.675.323 1.919t.701 2.504q.457 1.26.806 2.176.348.917.532 1.46.183.544.507 1.271.324.728 1.123 1.869.8 1.141 1.289 1.777.49.635 1.389 1.532.899.896 1.916 1.827 1.017.931 1.512 1.339.495.409 1.238.787.742.378 2.077.926t2.052.793q.718.244 1.189.346.472.101 1.651.19 1.179.09 1.923.137.744.048 1.616.227.873.179 1.845.298.972.118 1.896.051.923-.068 2.13-.226 1.207-.158 1.639-.273.432-.115 2.173-.835 1.74-.72 2.092-.909.351-.188 1.1-.641.749-.454 1.167-.717.419-.262 1.189-.75.771-.487.86-.556.09-.068 1.073-.771.983-.703 1.593-1.156.61-.452 1.449-1.491.84-1.039 1.422-1.816.581-.777.947-1.356.365-.58.913-1.806.548-1.227.882-2.054.333-.827.541-1.511.209-.685.357-1.239.149-.555.36-1.587.212-1.032.482-1.994.269-.963.412-1.533.144-.569.217-1.559.074-.991.042-1.595-.032-.605-.156-1.272t-.265-1.534q-.142-.866-.312-1.522-.171-.656-.427-1.273-.257-.616-.465-1.213-.208-.597-.458-1.186t-.402-.884q-.152-.296-.362-.832-.21-.537-.417-.97-.207-.432-.506-.896-.3-.463-.651-1.004-.35-.54-.758-1.064-.408-.524-.802-1.09-.394-.566-.598-.873-.204-.307-.415-.547-.211-.24-.333-.378-.123-.137-.393-.447-.269-.309-.39-.438-.122-.129-.131-.145-.009-.016-.355-.314-.346-.297-.472-.419-.127-.122-.243-.251-.116-.129-.223-.266t-.377-.387q-.27-.251-.464-.43-.195-.179-.332-.336-.137-.158-.552-.87"/>
    <path fill="#d9c1d5" stroke="#d9c1d5" stroke-width=".5" d="M-518.764 1385.946q.803.09 1.263.057.459-.033 1.014-.155.555-.122 1.364-.35.809-.227 1.403-.458t1.402-.727q.809-.495 1.724-1.039.915-.545 1.873-1.069.958-.525 1.501-.802.542-.278 1.085-.555.543-.278 1.267-.644.724-.367 1.324-.67.6-.303 1.311-.668.71-.366 1.341-.656.632-.29 1.217-.575.585-.286 1.066-.517.481-.23 1.056-.5.575-.27 1.092-.536.517-.265 1.212-.652t1.479-.8q.784-.414 1.372-.716.588-.302 1.179-.59.592-.287 1.414-.739.821-.452 1.613-.912.791-.46 1.88-.979 1.089-.52 1.968-.938.879-.417 1.627-.761.747-.344 1.609-.794.862-.45 1.727-.984.865-.534 1.761-1.158.895-.624 1.284-.968.388-.344.779-.75.392-.407.785-.832.393-.424.63-.694.238-.27.352-.441.114-.171.267-.576-.102-.117-.532-.52-.429-.403-.723-.624-.294-.221-.498-.385-.203-.163-.67-.503-.467-.339-1.106-.698-.639-.359-1.508-.783-.869-.424-1.457-.751-.589-.327-1.127-.7-.538-.372-1.012-.657-.474-.284-1.494-.731t-1.939-.839q-.919-.392-1.961-.772-1.041-.381-1.729-.593-.687-.213-1.047-.321-.36-.108-1.535-.44-1.175-.332-1.814-.488-.638-.157-1.046-.212-.407-.054-1.017-.074-.61-.021-1.533.085-.923.106-1.764.28-.841.174-1.594.335-.753.161-1.056.23-.303.069-.838.273-.534.204-1.404.572-.869.368-1.537.667-.668.3-1.365.642-.697.343-1.178.618-.481.274-.794.485-.313.211-1.116.804-.803.594-1.29 1.03-.487.436-.813.796-.327.36-.648.775-.321.416-.86 1.152-.539.737-.994 1.462-.454.725-.697 1.166-.242.441-.562 1.054-.32.613-.58 1.205-.261.593-.498 1.267-.237.674-.521 1.647-.285.974-.462 1.665-.178.692-.306 1.245-.129.554-.262 1.2-.133.647-.239 1.24-.106.593-.227 1.403-.121.81-.22 1.492-.098.681-.198 1.517-.1.836-.116 1.359-.015.523.044 1.301.075.679.151 1.346.075.668.151 1.326l.151 1.309.149 1.291Z"/>
    <path fill="none" stroke="#381d1d" stroke-width="3.484" d="M-469.68 1376.89q.003.289 0 .578t-.013.578q-.009.289-.025.578-.016.288-.038.576-.023.289-.051.576-.029.288-.064.575-.035.286-.076.572-.041.286-.089.571-.048.285-.101.569-.054.284-.114.566-.061.282-.127.564-.066.281-.139.56-.072.279-.151.557-.078.277-.163.553t-.176.55q-.091.273-.187.545-.097.271-.2.541-.103.269-.211.536-.109.266-.224.53-.114.265-.235.526-.12.261-.246.52t-.258.514q-.132.256-.269.509-.137.252-.28.501-.143.249-.291.495-.149.246-.303.489-.153.242-.312.481t-.324.473q-.164.235-.333.467-.17.231-.344.458-.175.227-.354.45t-.364.442q-.184.219-.373.433-.189.215-.383.425t-.392.416q-.198.205-.401.406-.203.201-.41.397-.208.196-.419.388-.212.191-.427.377-.216.187-.436.368-.219.181-.443.358-.224.176-.451.347-.227.171-.459.336-.231.166-.466.326-.234.161-.473.315-.238.155-.48.305-.241.149-.486.292-.245.144-.493.282-.248.138-.499.27t-.504.258q-.254.126-.511.247-.256.12-.515.235-.259.114-.521.222-.261.109-.525.211t-.53.198q-.266.096-.534.186t-.538.174q-.27.084-.542.161-.272.078-.545.149-.274.071-.549.136-.275.064-.551.123-.276.058-.554.11-.277.052-.556.098-.278.045-.558.084-.279.039-.56.072-.28.033-.561.059-.281.026-.562.045-.282.02-.564.033-.281.013-.563.02-.283.006-.565.006t-.564-.006q-.282-.007-.564-.02-.281-.013-.563-.033-.281-.019-.562-.045t-.562-.059q-.28-.033-.559-.072-.28-.039-.558-.084-.279-.046-.556-.098-.278-.052-.554-.11-.277-.059-.551-.123-.275-.065-.549-.136-.273-.071-.545-.149-.272-.077-.542-.161t-.538-.174q-.268-.09-.534-.186t-.53-.198q-.264-.102-.525-.211-.262-.108-.521-.222-.259-.115-.516-.235-.256-.12-.51-.247-.254-.126-.505-.258-.25-.132-.498-.27t-.493-.282q-.245-.143-.487-.293-.241-.149-.48-.304-.238-.154-.473-.314-.234-.161-.466-.326-.231-.166-.458-.337-.228-.171-.451-.347-.224-.177-.444-.358-.219-.181-.435-.367-.216-.187-.427-.378-.212-.191-.419-.388-.207-.196-.41-.397-.203-.201-.401-.406-.198-.206-.392-.416t-.383-.425q-.189-.214-.373-.433-.185-.219-.364-.442-.18-.223-.354-.45t-.344-.458q-.169-.231-.333-.467-.165-.234-.324-.473-.159-.239-.313-.481-.153-.243-.302-.489-.148-.245-.291-.495-.143-.249-.28-.501-.137-.253-.269-.509-.132-.255-.258-.514-.126-.258-.247-.52-.12-.261-.234-.526-.115-.264-.224-.53-.108-.267-.211-.536-.103-.27-.2-.541-.096-.272-.187-.545-.091-.274-.176-.55-.085-.275-.163-.553-.079-.278-.151-.557-.073-.279-.139-.56-.067-.281-.127-.564-.06-.282-.114-.566-.053-.284-.101-.569-.048-.285-.089-.57-.041-.286-.076-.573-.035-.287-.064-.575-.028-.287-.051-.576-.022-.288-.038-.576-.016-.289-.026-.578-.009-.289-.012-.578-.003-.289 0-.578t.013-.578q.009-.289.025-.577.016-.289.038-.577.023-.288.051-.576.029-.288.064-.574.035-.287.076-.573.041-.286.089-.571.048-.285.101-.569.054-.284.114-.566.061-.282.127-.563.066-.281.139-.561.072-.279.151-.557.078-.277.163-.553t.176-.549q.091-.274.187-.546.097-.271.2-.54.103-.27.211-.536.109-.267.224-.531.114-.264.235-.526.12-.261.246-.52.126-.258.258-.514t.269-.508q.137-.253.28-.502.143-.249.291-.495.149-.246.302-.488.154-.243.313-.481.159-.239.324-.474.164-.235.333-.466.17-.232.344-.459.175-.227.354-.45t.364-.442q.184-.219.373-.433.189-.215.383-.425t.392-.416q.198-.205.401-.406.203-.201.41-.397.207-.196.419-.388.211-.191.427-.377.216-.187.435-.368.22-.181.444-.357.223-.177.451-.348.227-.171.459-.336.231-.166.466-.326.234-.16.473-.315.238-.155.479-.304.242-.149.487-.293t.493-.281q.248-.138.499-.271.25-.132.504-.258t.511-.247q.256-.12.515-.234.259-.115.521-.223.261-.108.525-.211.264-.102.53-.198.266-.096.534-.186t.538-.174q.27-.083.542-.161.272-.077.545-.149.274-.071.549-.136.275-.064.551-.123.276-.058.554-.11.277-.052.556-.098.278-.045.558-.084.279-.039.56-.072.28-.032.561-.059.281-.026.562-.045.282-.02.564-.033.281-.013.563-.02.283-.006.565-.006t.564.006q.282.007.564.02.281.013.563.033.281.019.562.045.281.027.562.059.28.033.559.072.28.039.558.084.279.046.557.098.277.052.553.11.277.059.552.124.275.064.548.135.273.072.545.149.272.078.542.161.27.084.538.174.268.09.534.186t.53.198q.264.103.525.211.262.108.521.223.259.114.516.234.256.121.51.247t.505.258q.251.133.499.271.247.137.492.281.245.144.487.293.241.149.48.304.238.155.473.315.234.16.466.326.231.165.458.336.228.171.451.348.224.176.444.357.219.181.435.368.216.186.427.378.212.191.419.387t.41.397q.203.201.401.407.198.205.392.415t.383.425q.189.214.373.433.185.219.364.442.18.223.354.451.175.227.344.458.169.231.334.466.164.235.323.474t.313.481q.153.242.302.488.148.246.291.495.143.25.28.502.138.253.269.508.132.256.258.514.126.259.247.52.12.262.234.526.115.264.224.531.108.267.211.536t.2.541q.097.271.187.545.091.274.176.549.085.276.163.554.079.277.151.557.073.279.139.56.067.281.127.563.06.283.114.567.053.283.101.568.048.285.089.571.041.286.076.573.035.287.064.575.028.287.051.575.022.288.038.577t.025.577q.01.289.013.578Z"/>
    <path fill="none" stroke="#381d1d" stroke-width="2.903" d="M-577.755 1455.122q.922-.112 1.037-.133.116-.021.475-.072.359-.051.978-.137l1.084-.149q.464-.064.791-.107.327-.044.666-.099.339-.055.692-.121.352-.067.655-.125.302-.058.683-.132.381-.075.82-.144.439-.068.83-.129.391-.06.88-.136.489-.075.887-.139.398-.063.859-.141.46-.078.917-.182t.855-.192q.399-.089.891-.197.491-.107.94-.212.448-.105.853-.208.404-.103.832-.224.427-.122.878-.262.45-.14.821-.257.37-.117.661-.212.29-.094.675-.23.385-.136.744-.27.359-.133.625-.236.265-.103.557-.221.291-.117.608-.249.318-.132.661-.278.343-.146.644-.275.301-.13.69-.301.389-.171.739-.335t.694-.334q.343-.171.598-.3.256-.13.539-.275l.535-.275q.253-.131.588-.304.335-.173.581-.301.246-.128.488-.264.242-.137.561-.324.319-.187.716-.425.397-.238.871-.527.474-.289.888-.547.413-.257.766-.483.353-.225.645-.419.291-.194.638-.437.347-.243.68-.484.333-.241.538-.399.204-.158.476-.383.271-.225.61-.518.339-.293.649-.569.31-.275.592-.534.281-.259.611-.587.329-.329.706-.729.377-.399.695-.755.317-.356.575-.668.257-.312.478-.595.22-.284.404-.54.183-.255.345-.49.162-.236.302-.45.14-.215.322-.509.183-.293.407-.665.225-.371.425-.721.2-.349.375-.676.176-.327.313-.596.138-.269.239-.48.1-.211.263-.596.164-.386.391-.946.226-.561.373-.947.147-.386.214-.598.067-.212.158-.518.09-.307.205-.709.115-.401.191-.677.077-.276.115-.427.039-.151.118-.497.079-.347.149-.656.07-.309.156-.695.086-.387.17-.755.084-.368.165-.717.081-.35.16-.68.078-.33.154-.642t.152-.615q.076-.304.189-.747.113-.442.263-1.001.15-.558.296-1.072t.288-.984q.142-.47.233-.769.091-.3.131-.428.039-.128.131-.407.091-.278.173-.525.082-.246.184-.553.103-.307.229-.666.125-.359.275-.77.149-.41.322-.873.173-.462.37-.977.197-.514.372-.969.176-.455.331-.852.154-.396.288-.733.134-.338.304-.755.169-.417.409-.974.241-.557.496-1.114.254-.557.445-.963.191-.405.317-.659.127-.254.349-.66.222-.405.412-.748.191-.342.424-.757.233-.414.426-.755.194-.34.425-.74.231-.4.381-.637.15-.238.374-.57.225-.333.412-.606.187-.273.411-.597.224-.325.421-.606.197-.281.452-.638t.488-.659q.232-.302.418-.535.185-.232.394-.476.209-.244.405-.459.196-.215.407-.433.211-.218.502-.512.291-.294.536-.537.246-.243.445-.434.199-.192.578-.546.379-.353.937-.868M-572.874 1487.401q-.023-.164-.054-.395-.031-.23-.059-.427-.027-.197-.062-.444-.035-.248-.089-.617-.054-.369-.111-.749l-.101-.673q-.044-.293-.095-.623-.05-.33-.106-.696l-.117-.766q-.062-.4-.12-.778-.058-.378-.113-.733-.054-.354-.105-.684l-.122-.789q-.07-.459-.149-.973-.08-.514-.144-.931-.064-.416-.119-.777-.056-.361-.126-.819-.071-.457-.131-.846-.059-.388-.116-.754-.056-.366-.109-.709-.053-.344-.095-.615-.041-.271-.087-.569-.046-.299-.111-.719-.064-.419-.131-.852-.067-.432-.157-1.017-.09-.586-.163-1.058-.072-.473-.128-.834l-.128-.839q-.074-.478-.136-.886-.063-.407-.142-.933-.08-.527-.163-1.072-.082-.545-.166-1.112-.085-.567-.149-.997-.064-.431-.116-.787-.053-.357-.116-.784l-.128-.866q-.065-.439-.131-.892-.066-.452-.13-.883l-.123-.839q-.06-.409-.114-.781-.055-.372-.104-.706M-515.518 1463.098q-.454.522-.591.682-.137.159-.289.328-.151.169-.366.404-.215.234-.39.424-.175.189-.377.4-.201.212-.443.464-.242.251-.54.543-.298.291-.733.708t-.793.754q-.358.337-.637.592-.279.255-.5.451-.22.196-.38.333-.161.137-.385.32-.223.182-.51.41l-.575.457q-.289.229-.507.402-.217.173-.423.329-.206.156-.473.354-.267.197-.595.435-.328.238-.717.517-.389.28-.702.504-.313.225-.67.48-.356.256-.528.378-.173.123-.405.28-.232.156-.523.347-.292.19-.589.384-.298.193-.602.389t-.561.362q-.256.165-.57.369-.313.203-.606.386-.293.182-.569.348-.277.165-.634.375-.357.209-.7.401-.343.193-.597.334-.253.14-.532.292-.279.153-.576.309-.298.157-.615.317-.316.161-.652.326-.336.164-.691.333-.355.169-.678.321-.323.152-.615.287-.291.135-.551.253-.26.118-.603.27-.342.151-.792.345-.45.193-.893.378-.442.184-.774.323l-.553.23q-.221.092-.489.204-.269.112-.584.244-.316.132-.664.269-.347.137-.726.28-.379.142-.673.249-.293.107-.501.179-.209.072-.466.16-.257.088-.563.192-.307.104-.551.185-.245.081-.428.139-.184.059-.465.14-.282.082-.663.187-.38.105-.811.221-.43.115-.911.241-.481.127-.829.215-.348.089-.672.165-.323.077-.741.169-.419.092-.734.163-.315.072-.666.153-.351.082-.72.16t-.756.151q-.387.074-.826.149-.439.075-.931.153-.492.077-.896.136-.404.06-.721.103-.317.042-.648.085-.331.044-.683.089-.351.046-.776.09-.425.044-.818.077-.392.033-.818.07l-.758.066q-.332.029-.713.062-.381.033-.751.064l-.726.061q-.357.03-.776.064-.418.034-.899.071-.48.037-1.031.076-.551.038-1.019.066-.469.028-.797.044-.328.016-.671.03-.344.014-.703.026-.359.011-.732.023M-515.463 1463.082l.296.22q.09.059.521.372.432.313.827.595.394.282.871.618t.92.65q.442.314.848.608.406.294.781.574.375.279.727.55.353.271.662.514.308.243.582.465.274.222.519.426t.573.485q.327.282.69.601.364.32.656.583.292.264.627.577.334.314.617.586.282.272.491.475.209.204.439.428.23.225.481.471.251.246.523.514.271.268.513.511.242.242.559.568.318.326.621.66t.571.633q.269.3.502.565.233.266.444.51.21.245.397.469.188.223.451.561.263.339.479.621.217.282.474.621t.473.628q.216.288.479.646.263.357.448.633.186.275.331.493.144.217.248.377.103.16.29.469.186.308.457.766.27.457.527.916t.501.92q.243.462.428.823.185.361.311.622.126.262.271.565l.31.648q.165.345.288.608.123.263.246.535t.256.589q.134.316.241.59.108.274.234.61.127.337.291.76.164.423.366.933.202.51.382.973.179.463.337.878.158.416.282.75.125.333.215.584.091.251.196.549.105.297.224.642.12.346.281.797.16.452.317.879.157.426.266.72.109.295.222.6l.229.618q.116.313.234.635l.117.327M-488.566 1436.078q.275.257.565.535.289.278.589.572.301.294.627.608.327.314.677.645.35.33.624.591.274.261.477.461.203.199.433.429.229.231.485.493t.531.547q.275.285.569.594.295.309.569.611.273.302.473.526.2.224.417.472.217.248.414.474.197.227.462.534.265.308.536.632.272.324.517.627.245.302.463.584.219.281.478.624.26.343.56.748.301.404.523.706.223.302.439.602t.444.629q.229.329.441.638.211.311.414.611.202.301.36.538.159.238.34.512.181.275.386.586.204.311.431.659l.42.643q.192.295.426.656.234.361.404.628.169.267.367.593.198.327.353.586.155.26.333.561.179.302.349.596.171.293.334.579.163.285.318.562.154.278.375.681.221.404.436.803.216.399.353.658.137.26.314.603.176.343.392.769.215.426.375.746t.263.533q.103.214.243.502.14.288.317.651.176.363.328.679.151.315.341.718.19.403.305.658.116.255.244.538.129.282.31.676.181.394.303.66l.186.402q.063.137.179.394.115.258.283.636.168.378.347.797.179.418.316.742.138.324.293.693.155.369.291.696.137.327.313.755.177.428.337.832.161.404.285.717.125.314.257.649.133.334.229.59.095.256.242.664.147.408.307.851.159.443.34.963.18.519.296.866.116.348.259.782.143.434.267.812.124.379.28.853.155.474.294.901.138.427.262.81.123.382.23.717.107.335.24.761.134.426.255.812.121.386.214.682l.198.633q.106.336.283.911.178.575.428 1.389M-487.461 1501.281q.404-.16.784-.31t.737-.292q.358-.142.687-.274.329-.131.629-.252.301-.12.575-.231.274-.11.647-.261.372-.15.785-.317l.759-.307q.347-.14.78-.316.433-.175.813-.329.381-.154.706-.286.326-.132.735-.298.41-.166.749-.303.34-.138.729-.295.389-.158.693-.281.304-.123.652-.265l.683-.276.651-.264q.319-.129.622-.252.303-.122.735-.298.432-.174.838-.339.405-.164.641-.26.236-.095.572-.231.336-.136.612-.248.277-.112.606-.246.33-.134.619-.251.289-.117.663-.268.374-.152.712-.289l.706-.286q.368-.149.767-.31.399-.162.721-.292.322-.131.567-.23.245-.099.642-.259l.738-.298q.342-.137.77-.308.428-.171.843-.336.416-.166.82-.325.404-.159.793-.311t.943-.367l.942-.364.4-.155M-488.471 1436.03q.138.016.579.047.441.03.829.057.389.027.872.061.482.033.919.062.437.029.829.054.391.025.745.045.354.021.671.037l.593.03q.275.013.626.029.351.017.694.027.342.01.694.013.352.003.717-.001.364-.004.831-.023.467-.019 1.037-.054.57-.035 1.049-.069.478-.035.867-.07.389-.036.762-.075.372-.039.729-.083.357-.044.736-.099.379-.054.779-.119.401-.065.871-.147.47-.082 1.009-.18.539-.098 1.015-.189.476-.09.89-.172.413-.083.8-.162.387-.079.747-.155.361-.076.735-.161.374-.084.761-.177.387-.093.762-.185.376-.091.739-.181t.698-.178q.334-.089.639-.176.306-.087.529-.152.224-.065.438-.13t.353-.104q.139-.039.397-.119.258-.079.681-.212.423-.133.76-.24.337-.108.712-.23.375-.123.831-.279.456-.156.902-.322.446-.165.828-.303.382-.138.909-.343.527-.204 1.004-.405.476-.201.899-.377.422-.175.802-.346.38-.171.649-.295.27-.125.555-.259.286-.134.52-.245.235-.111.511-.243.275-.132.762-.356.486-.223.665-.314.179-.09.602-.294M-487.666 1401.987l.064.029q.237.094.258.104.021.009.388.141.367.132.873.292.506.159 1.036.323.531.164.948.258.418.094 1.024.224.607.13.932.197.326.066.575.103.249.037.694.087.445.05.916.096.471.045.777.072.307.026.385.035.079.009.293.023.214.014.591.037.376.023.676.038.3.015.634.024.334.009.692.016.358.008.663.007.305-.001.676-.007.371-.007.79-.022.419-.015.885-.038.466-.024.844-.046.379-.023.816-.054.436-.031.852-.068.415-.037.784-.076.368-.04.646-.071.277-.03.551-.059l.635-.065q.362-.036.738-.081.376-.044.767-.097.391-.053.729-.1.338-.046.766-.107.428-.062.915-.135.487-.074.838-.138.351-.064.54-.102.189-.037.509-.104.319-.066.847-.178.527-.113.879-.193.352-.079.588-.139.235-.06.355-.094.121-.034.412-.118.291-.083.831-.241.541-.157.874-.258.333-.101.458-.144.125-.043.234-.084.109-.041.389-.135t.336-.115q.055-.02.48-.166.425-.145 1.017-.348M-454.233 1400.575q.131.637.255 1.242l.237 1.157q.113.552.212 1.045.1.493.187.929.088.437.164.824.077.388.178.903.101.515.215 1.106l.208 1.081q.093.488.171.896.078.407.141.739.064.332.138.721.074.389.144.759.071.37.134.702.064.332.087.457l.065.338q.04.214.106.558.066.344.135.71.07.366.124.647l.113.596q.06.317.117.615.057.299.138.721.08.422.174.914.094.493.174.916.081.423.149.777l.126.665q.059.31.136.713.076.403.145.761.068.359.12.635.053.277.106.559.054.283.139.733.085.45.102.542.017.093.073.386.055.294.16.853.105.559.186.994.082.436.162.866.08.429.108.578"/>
    <path fill="none" stroke="#381d1d" stroke-width=".5" d="m-519.385 1378.798 40.859-21.242"/>
    <path fill="none" stroke="#381d1d" stroke-width="1.407" d="m-517.441 1386.768 44.026-23.476"/>
  </g>
</svg>
