<svg xmlns="http://www.w3.org/2000/svg" width="157.9747" height="132.228" viewBox="-556.641 1191.061 118.481 99.171">
  <g stroke-linecap="round" stroke-linejoin="round">
    <path fill="#6aa6d7" stroke="#6aa6d7" stroke-width=".5" d="M-545.504 1264.363q.002-.03-.082-.792-.084-.763-.201-2.457M-545.779 1260.494q-.015-.167.116-2.718"/>
    <path fill="#85b2d6" stroke="#85b2d6" stroke-width=".5" d="M-554.404 1194.137q.031.003.82-.128.789-.13 1.387-.221.597-.091 1.51-.145.912-.053 1.443-.052.531.001.956.05.426.049.82.098.394.05.805.1.412.05.582.093.171.043.219.064.047.021.112.076.066.055.173.169.106.114.293 1.011.186.896.283 1.935.097 1.038.193 1.886.096.848.167 2.208.07 1.361.069 2.017-.001.655.001.875.003.219-.032.886t-.086 1.42q-.051.752-.203 2.307-.151 1.555-.232 2.367-.081.812-.121 1.217-.04.405-.103 1.431t-.097 1.684q-.034.657-.063 1.366-.03.708-.03 1.501-.001.793-.063 2.72t-.083 3.122q-.021 1.196-.015 1.668.005.472.012.739t.008.47q.001.203.011.761.011.558.077 2.245.034.843.055 1.464.02.62.033 1.216.012.597.021 1.131.009.535.045 1.523.036.987.077 2.31.04 1.322.047 2.056.007.734.023 1.456.015.722.042 1.677.026.955.04 1.708.014.753.016 1.579t-.004 1.457q-.006.63-.005.857.001.226-.005 1.068-.007.842-.021 2.375-.014 1.532-.035 2.765-.02 1.232-.048 2.164-.027.932-.038 1.638-.012.705-.006 1.423.006.718.023 1.093.018.374.033.629.015.255.017.967.002.712-.004 1.965-.006 1.254-.015 2.238-.01.984-.028 2.056-.019 1.072-.027 1.678-.007.606-.011.861-.005.255-.013.899-.009.644-.013 1.002-.005.358.012 1.12.016.762.053 2.082l.068 2.369q.031 1.048.063 2.153.031 1.105.034 1.732.002.628-.004 1.264-.005.636-.05 1.2-.045.563-.127.92-.082.358-.153.502-.071.144-.19.295-.118.152-.173.216-.055.064-.214.207-.159.144-.325.242-.166.097-.314.129-.149.032-.469.15-.319.118-.605.197-.286.08-.49.109-.203.028-.601.097-.399.069-.804.088-.406.018-.782.003-.376-.016-.713-.021-.337-.005-.679-.017-.342-.013-.591.004-.248.016-.386.034-.139.018-.315.031-.176.012-.418.034-.242.023-.354.029-.112.007-.518.062l-.306.08q.004-1.513.009-3.001.004-1.487.01-2.964l.01-2.953q.005-1.475.011-2.951l.01-2.951q.006-1.476.011-2.952.005-1.475.011-2.951l.01-2.951q.006-1.476.011-2.952.005-1.475.011-2.951l.01-2.951q.006-1.476.011-2.952.005-1.475.011-2.951l.01-2.951q.006-1.476.011-2.952.005-1.475.011-2.951l.01-2.951q.006-1.476.011-2.952.005-1.475.011-2.951l.01-2.951q.006-1.476.011-2.952.005-1.475.011-2.951.005-1.476.011-2.951l.01-2.952q.006-1.475.011-2.951l.01-2.951q.006-1.476.011-2.952.005-1.475.011-2.951l.01-2.951q.006-1.476.011-2.952.006-1.475.011-2.951.005-1.476.011-2.951Z"/>
    <path fill="#85b2d6" stroke="#85b2d6" stroke-width=".5" d="M-545.927 1277.124q-.105.119-.324.996-.22.877-.276 2.586-.056 1.709-.072 2.568-.017.86-.059 1.644-.042.784-.033 1.166.008.382.08.615.072.233.131.335.06.102.165.207.105.106.142.135.036.028.21.12.174.091.303.132.13.04.974.153.844.113 1.795.172.951.06 1.726.115.776.056 1.283.06.506.003.884-.003t1.1-.005q.722 0 1.293.029.57.028.872.056.302.028 1.385.161 1.082.133 2.784.15 1.701.017 2.979-.016 1.277-.032 2.069-.064.791-.032 1.251-.068.46-.036 1.866-.096 1.405-.06 2.438-.09 1.033-.03 1.621-.068.588-.039 1.512-.133t2.227-.081q1.304.013 2.107.079.803.066 2.263.176 1.46.109 2.531.138 1.07.029 1.569.032.499.002 2.4.099 1.901.098 2.869.145.968.048 1.431.046.464-.001 1.247-.032.784-.032 2.826.051 2.042.082 3.291.117 1.249.036 2.478-.02 1.228-.055 2.012-.053.784.002 2.482-.039 1.698-.04 2.529-.1.831-.06 1.662-.113.83-.053 1.333-.086.503-.033 1.044-.047.54-.013.997-.022.456-.008 1.01-.015.553-.007 1.052-.013.499-.006.944-.011.446-.005.837-.009l.898-.009q.506-.005.998-.017.493-.012.956-.039.464-.028 1.011-.058.546-.03.832-.046.286-.016.617-.028.332-.013.803-.027.472-.014.929-.027.456-.014.898-.027t.798-.021q.356-.008.761-.014.406-.006.886-.031.481-.025.744-.049t.803-.008q.54.015.947.027.406.013.882.02.476.008.709.017.233.01.302.016.069.005.413.011.344.005.606.004.261 0 .48.013.218.014.368.018.15.004.697-.014.546-.018 1.292-.024.745-.006 1.363-.024.617-.018 1.211-.031.593-.013 1.369-.027.776-.013 1.369-.028.592-.015 1.002-.03.409-.016.838-.035.429-.019.877-.04.448-.022.829-.04.381-.019.854-.039t1.111.039q.638.059 1.16.143.523.085 1.142.208.62.124.963.182.344.058.451.071.108.013.393-.009.285-.022.458-.072.172-.05.272-.115.101-.065.136-.101.036-.036.096-.087.06-.052.162-.152.102-.101.181-.221.022-.104.06-.324.039-.22-.022-.655-.06-.434-.168-1.14-.107-.706-.171-1.211-.065-.506-.151-1.01-.085-.504-.12-.835-.034-.331-.03-.545.004-.215.016-.497.012-.283.031-.504.019-.222.109-.925.091-.702.122-1.165.031-.464.024-.735-.006-.27-.046-.447t-.098-.301q-.058-.125-.166-.32-.109-.196-.317-.491-.019-.03-.617-.272-.632.05-1.243.097-.612.047-1.208.091t-1.137.077q-.541.032-1.028.053-.972.041-1.814.054-.842.013-1.65.019-.809.006-1.613.011-.805.006-1.609.011l-1.608.01-1.608.01-1.608.01-1.608.01-1.608.01-1.607.01-1.608.01q-.804.006-1.608.011l-1.608.01-1.608.01-1.608.01-1.608.01-1.608.01-1.608.01-1.608.01-1.608.01-1.608.01q-.804.006-1.608.011l-1.608.01-1.608.01-1.608.01-1.608.01-1.608.01-1.608.01-1.608.01-1.608.01q-.804.005-1.608.011l-1.608.01-1.608.01-1.608.01-1.607.01-1.608.01-1.608.01-1.608.01-1.608.01-1.608.01q-.804.005-1.608.011l-1.608.01-1.608.01-1.608.01-1.608.01-1.608.01-1.608.01-1.608.01-1.608.01-1.608.01q-.804.006-1.608.011l-1.608.01-1.608.01-1.608.01-1.608.01-1.608.01-1.608.01-1.608.01q-.803.005-1.608.011l-1.607.01-1.608.01-1.608.01Z"/>
    <path fill="#83b1d6" stroke="#83b1d6" stroke-width=".5" d="M-457.87 1193.586q.029-.008.073.01.053.029.496.013.443-.017 1.399-.001.957.016 1.931.075.975.06 2.374-.001.7-.031 1.291-.053.592-.022 1.076-.036.484-.015.935-.006.451.009.869.033.417.023.76.025.342.002.61-.011.267-.013.56-.065.294-.052.613-.139.319-.086.619-.156.299-.069.717-.13t.653-.027q.234.035.409.053.175.017.792.096t.681.118q.065.038.309.129.244.09.343.156.1.066.144.126.044.06.082.141.037.081.103.248.066.168.104.384.038.216.051.486.013.271-.006.611-.019.34-.064.823-.045.483-.085.845-.04.362-.096.743-.057.38-.103.638-.046.257-.116.601-.07.343-.126.616-.055.272-.12.589-.064.317-.125.771-.061.455-.117 1.049-.088 1.195-.067 1.782.021.588.06.841.039.254.078.514t.085.609q.046.349.07.624.024.275.032.478.007.203-.005.556-.013.352-.047.836-.033.484-.006.997.027.513.117 1.103.09.59.129 1.1.039.51.028.89-.011.379-.044.825-.033.447-.087.784-.054.337-.109.716-.056.379-.071.711-.016.332.04.768.055.436.152.841.197.815.284 1.315.087.501.043.947-.044.446-.051.887-.008.441.015 1.022t-.029 1.002q-.051.422-.097.703-.118.556-.221 1.078-.102.523-.124.681-.022.157-.042.384-.021.228-.031.58-.01.352-.007.69.004.34.01.664.018.649.025 1.006.007.356.009.733.002.377.002.892-.001.515.013.994.013.479.041.921.055.886.069 1.909.014 1.022.009 1.538-.006.517.011 1.136.017.62.026 1.511.009.891.033 1.54.025.648.043 1.349.018.701.001 1.314-.017.612-.01 1.13.008.518.037.985.029.468.084 1.615.055 1.147.095 1.936.04.789.068 1.485.028.695.047 1.05.019.356.022.605.003.25 0 .89-.003.641.036 2.235.04 1.595.045 2.53.005.935.001 1.303-.004.369-.004.876-.001.507.002 1.163.002.656-.01 1.27-.013.614-.016.907-.003.294.03.959.033.666.041 1.112.008.446-.014 1.031-.022.586-.006 1.217.015.631.02 1.436.005.806-.011 1.537-.016.73-.047 1.159-.031.43-.191 1.753-.161 1.323-.202 1.737-.042.415-.142 1.313-.1.899-.173 1.304-.074.405-.152.63-.078.226-.169.399-.09.174-.347.439-.257.264-.614.5-.356.236-.57.339-.215.104-.421.188-.205.084-1.075.324-.869.241-1.383.361-.514.121-1.382.324-.868.204-1.297.295-.429.092-.769.151-.34.058-.981.211-.641.152-1.128.258-.488.105-.88.154t-.638.059q-.246.011-.395.026-.15.014-.287.023-.136.009-.579.047-.442.039-.687.077-.245.038-.431.069l-.357.059q-.17.027-.312.063-.142.037-.389.116-.247.078-.327.114-.079.035-.424.172-.004-.345-.009-.691-.004-.345-.009-.691l-.008-.691q-.005-.345-.009-.691-.005-.345-.009-.691-.004-.346-.009-.691-.004-.346-.009-.691-.004-.346-.009-.691l-.008-.691q-.005-.346-.009-.692-.005-.345-.009-.691-.004-.345-.009-.691-.004-.345-.009-.691-.004-.345-.009-.691l-.008-.691q-.005-.346-.009-.691-.005-.346-.009-.691-.004-.346-.009-.691-.004-.346-.009-.691-.004-.346-.009-.692l-.008-.691q-.005-.345-.009-.691-.005-.345-.009-.691-.005-.346-.009-.691-.004-.345-.009-.691-.004-.346-.009-.691l-.008-.691q-.005-.346-.009-.692-.005-.345-.009-.691-.005-.345-.009-.691-.004-.345-.009-.691-.004-.345-.009-.691l-.008-.691q-.005-.346-.009-.691-.005-.346-.009-.691-.005-.346-.009-.691-.004-.346-.009-.691-.004-.346-.009-.692l-.008-.691q-.005-.345-.009-.691-.005-.345-.009-.691-.005-.345-.009-.691-.004-.345-.009-.691-.004-.346-.009-.691l-.008-.691q-.005-.346-.009-.691-.005-.346-.009-.692-.005-.345-.009-.691-.004-.345-.009-.691-.004-.345-.009-.691l-.008-.691q-.005-.346-.009-.691-.005-.345-.009-.691-.004-.346-.009-.691-.004-.346-.007-.691-.003-.346-.005-.691-.001-.346.003-.691.005-.345.018-.69.013-.345.037-.689t.056-.689q.032-.344.061-.688.028-.344.043-.69.014-.345.01-.692-.003-.346-.012-.695-.01-.349-.009-.699.002-.349.02-.699.018-.35.042-.698.024-.348.037-.692.012-.344.007-.681-.006-.337-.018-.666-.011-.329-.013-.653-.002-.323.007-.645.009-.323.026-.649.017-.325-.002-.67-.019-.344-.042-.693-.023-.349-.042-.697-.018-.348-.015-.688.004-.34.03-.67t.063-.655q.037-.325.08-.646.043-.321.059-.652t.022-.667q.005-.336-.014-.685-.019-.348-.073-.718l-.111-.744q-.056-.374-.089-.744-.033-.37-.026-.726.007-.356.046-.699.04-.343.081-.681.041-.339.056-.683.016-.344-.021-.704-.037-.36-.085-.729-.049-.368-.077-.74-.029-.371-.017-.739t.054-.73q.042-.362.088-.719.045-.357.042-.709-.003-.352-.03-.702-.028-.35-.067-.698-.038-.347-.062-.692t-.023-.687q0-.342.022-.683.021-.34.039-.68.018-.339.013-.677-.004-.338-.051-.671-.046-.332-.1-.655-.053-.322-.086-.627-.033-.305-.028-.592.006-.287.042-.567.036-.28.078-.578.042-.297.075-.634.033-.337.032-.745-.001-.407.002-.851.003-.445.022-.893.02-.449.046-.866.026-.418.027-.794.001-.376-.065-.712-.066-.335-.165-.652-.099-.316-.203-.629-.103-.312-.183-.632-.08-.319-.128-.649-.049-.33-.075-.669-.025-.338-.037-.681-.013-.343-.02-.687-.006-.345-.011-.69l-.01-.691q-.005-.346-.009-.691-.004-.346-.009-.691ZM-545.639 1193.439l90.436.077"/>
    <path fill="#83b1d6" stroke="#83b1d6" stroke-width=".5" d="m-545.877 1193.831-.042.063q-.009.027-.017.465-.008.438-.011.853-.003.415-.006.929-.004.513.03 1.276t.122 1.324q.088.561.186.823.099.262.232.553.219.128.472.222.254.094.705.175.451.081.628.094.177.014.581.031.404.016.528.025.125.009.557.048.431.039.645.056.214.016.854-.024.64-.041 1.251-.061.612-.02.974-.008t.833-.003q.47-.016 1.537-.072 1.067-.056 1.684-.068.616-.011 1.502-.048.886-.036 1.523-.093.637-.058 1.319-.092.682-.034 1.033-.045.351-.01.848-.03.497-.02 1.154-.033.657-.013 1.034-.003.377.011 1.384.035 1.007.024 1.753.017.746-.008 1.216-.006t.846.005q.376.004 1.425.063 1.049.06 1.829.078.779.019 1.186.018.407-.001.829.001.421.002.528.002.106 0 .367.003.262.003.865-.007.604-.01 1.949-.056 1.344-.046 2.196-.049.851-.002 1.317-.008.465-.006 1.22-.013.754-.006 1.615.032t1.684.071q.823.032 1.63.061.808.029 1.286.032.478.004 2.194-.002 1.715-.005 3.089-.029 1.374-.024 2.267-.042.893-.019 1.492-.004t.951.03q.352.015.826.033.475.018.94.036.466.017 1.91.049 1.444.031 3.546.062t3.362.044q1.26.012 1.836.023.576.009 1.72.03 1.144.021 1.705.014.561-.008 1.426-.037.864-.03 1.613-.071.749-.041 1.397-.075.647-.033 1.606-.062.959-.029 1.884-.066.925-.037 1.476-.034.552.003 1.013.021.462.017.899.027.436.01.738.006t1.146-.01q.845-.007 1.268-.002.424.006 1.176-.056.751-.061 1.217-.1.465-.039.779-.081.068-.016.694-.325.011-.034.135-.313.123-.279.17-.454.047-.175.062-.271.014-.096.043-.437.029-.34.066-.73.037-.39.119-.959.082-.569.116-.882.034-.312.044-.391.01-.079.025-.277.015-.197.007-.331t-.019-.374q-.011-.241-.012-.357-.002-.116.01-.294t.015-.342l-.015-.033.012-.063"/>
    <path fill="#e4e8e2" stroke="#e4e8e2" stroke-width=".5" d="m-544.861 1200.734.425-.017q.08.01.373.017.293.007.692.049.4.042.68.059.28.017.574.021.294.004.59-.022.297-.027.6-.067.303-.039.563-.071.26-.033.591-.037.332-.004.61.001.278.004.588.031.31.027.648.056.338.03.66.043.322.014.629.019.307.005.715-.033t.925-.043q.517-.004.951.024.435.029.784.062.349.033.62.057.272.024.562.05.291.026.546.037.255.012.645.006.39-.007.699-.019.309-.012.667-.03.358-.018.649-.027.292-.01.629-.009.337 0 .726.021.389.02.788.033.398.014.732.022.333.009.735.013.401.004.752-.003.351-.008.803-.045.452-.038.858-.106.407-.068.807-.138.401-.069.803-.113.403-.043.912-.063.508-.02 1.104-.012.596.007 1.141.01.546.003.884.041.338.037.622.054.283.018.632.02.349.001.777-.023.427-.025.918-.034.491-.01.904.057.412.066.776.135.363.07.696.103.333.033.673.023.341-.009.613-.036.271-.026.588-.075.317-.048.583-.077.266-.029.59-.042.324-.014.636.001.313.015.662.034.35.019.754.011t.861-.036q.458-.025.857-.03.4-.005.744.004.343.009.639.013.296.005.675.003.379-.001.818-.014.439-.014.799.013.727.032 1.013.05.286.019.6.039t.752.032q.439.011.887.005.447-.006.785-.017.338-.011.716-.024.377-.014.741-.028t.713-.027q.35-.014.686-.027.336-.013.658-.025.322-.013.63-.025.309-.011.75-.028.442-.017.975-.038 2.133-.082 3.1-.09.968-.009 2.181-.018 1.214-.008 1.962-.018.748-.01 1.795-.005 1.046.006 2.994.068 1.947.062 2.934.096.987.034 3.57.008 2.583-.025 4.431-.028 1.848-.002 2.815.033.484.017 1.008.034.524.016 1.09.03.565.014 1.079.018.514.004.985-.013.471-.016.861-.047.391-.031.852-.092.461-.061.945-.117.484-.055 1.258-.078.313.093.62.507.307.413.324.95.017.538-.011.94-.027.403-.082.839-.056.435-.095.788-.039.352-.069.632-.029.279-.041.652-.011.373 0 .833.012.46.018.732.005.272-.002.364-.007.093-.011.373-.003.28-.005.536-.002.257-.003.583l-.002.632q-.001.306-.003.732-.002.427-.004.913-.006.971-.012 1.431-.006.459.041 1.158.047.699.058 1.064.011.364-.051 1.603-.061 1.238-.094 2.014-.033.775-.044 1.593-.01.817-.023 1.28-.014.462-.059 1.715-.045 1.252-.012 2.888t.054 2.418q.02.781.027 1.62.006.838.031 1.478t.068 1.433q.044.793.037 1.232-.007.439-.06 1.913-.053 1.475-.034 2.531.018 1.056.077 2.018.06.962.144 1.623.085.661.232 2.368.147 1.707.193 3.188.046 1.482.084 2.438.037.957.045 1.431.007.474.009 1.384.001.911-.037 1.725-.038.813-.087 1.226-.048.412-.132 1.027t-.122 1.425q-.038.81-.093 1.962t-.072 1.689q-.016.537-.084 1.481-.069.944-.106 2.206-.037 1.261-.039 1.921-.001.659.018.951.018.292.028.535.009.243.011.516.003.273-.004.6-.007.326-.002.614.006.288.025.649.02.36.043.651.023.29.061.621.039.331.077.57.037.239.073.523.036.283.078.602.042.32.043.584 0 .264-.047.48-.048.215-.164.444t-.234.346q-.118.117-.276.252-.048.032-.985.103-.456.021-.852.028-.396.008-.727-.033-.331-.04-.554-.071-.223-.03-.434-.054-.211-.023-.452-.042-.24-.019-.454-.027-.214-.008-.625.026-.411.034-.983.068-.572.035-.911.022-.34-.013-.675-.028-.335-.014-.627-.013-.292 0-.675.034-.383.034-.738.062-.354.029-.822.039-.469.011-.935-.025-.467-.035-.87-.066-.403-.03-.772-.015-.368.015-.734.045-.365.03-.723.06-.357.031-.956.07-.598.039-1.416.023-.402-.024-.785-.048-.382-.024-.746-.035-.365-.011-.71.005-.345.017-.676.039-.66.052-1.154.073-.494.022-.823.011-.328-.01-.739-.029-.411-.019-.903-.053-.245-.024-.549-.065-.303-.041-.669-.092-.365-.051-.809-.038-.445.012-.962.045-.523.044-1.038.079-.515.034-1.002.05-.486.017-.929.038-.442.022-.846.01-.404-.012-.776-.041t-.741-.045q-.369-.016-.732-.017-.362-.001-.695-.004-.333-.003-.593-.011-.26-.008-.555-.016-.295-.007-.484-.015t-.468-.015q-.279-.006-.668.017-.39.023-.741.052-.351.029-.784.063-.433.035-.887.057-.455.022-.918.021-.463-.001-.939-.021-.475-.02-.975-.05-.5-.03-.938-.056-.438-.026-.817-.045-.38-.02-.701-.034-.32-.013-.582-.02-1.049-.028-1.794-.05-.745-.021-1.717-.034-.973-.014-2.128-.078-1.155-.065-1.738-.093-.583-.028-2.509-.049-.482-.006-.948-.005-.466.001-.916.008-.45.008-.885.021-.435.014-.854.033-.419.02-.824.046-.406.026-.798.059-.393.032-.771.07-.378.037-.742.08-.724.081-1.278.124t-.937.046q-.384.003-.751-.025-.367-.027-.643-.049-.276-.022-.594-.037-.319-.014-.615-.011-.297.003-.686.006-.39.003-.747-.009-.357-.011-.723-.033-.365-.022-.752-.036-.386-.015-.694.005-.307.02-.508.038-.2.019-.513.054-.312.034-.73.078-.417.043-.801.065-.384.022-.735.024-.351.001-.595-.006t-.462-.016q-.217-.009-.377-.007-.16.002-.72-.039-.561-.041-.915-.087-.355-.046-.779-.106-.423-.06-.867-.077-.444-.018-1.142.01-.698.028-1.327.034-.629.006-1.262.017-.633.011-1.16-.04-.527-.051-.951-.147-.424-.096-.653-.127-.229-.031-.439-.052-.21-.021-.314-.038-.103-.016-.249-.049-.146-.032-.367-.071-.221-.04-.371-.053-.151-.013-.204-.009-.053.004-.3-.001-.246-.004-.427-.004t-.448.069q-.148-.023-.252-.007l-.184-.002-.546.106q.007-.583.013-1.167l.012-1.168q.007-.584.013-1.167l.012-1.168q.007-.584.013-1.168.006-.583.013-1.167l.012-1.168q.007-.583.013-1.167l.012-1.168q.007-.584.013-1.167l.012-1.168q.007-.584.013-1.167.006-.584.013-1.168l.012-1.168q.006-.583.013-1.167l.012-1.168q.007-.584.013-1.167.006-.584.013-1.168l.012-1.167q.006-.584.013-1.168l.012-1.168q.006-.583.013-1.167l.012-1.168q.007-.583.013-1.167l.012-1.168q.007-.584.013-1.167.006-.584.013-1.168l.012-1.168q.006-.583.013-1.167l.012-1.168q.007-.583.013-1.167l.012-1.168q.007-.584.013-1.167l.012-1.168q.007-.584.013-1.167.006-.584.013-1.168l.012-1.167q.006-.584.013-1.168l.012-1.168q.007-.583.013-1.167.006-.584.013-1.168l.012-1.167q.006-.584.013-1.168l.012-1.168q.006-.583.013-1.167l.012-1.168q.007-.583.013-1.167l.012-1.168q.007-.583.013-1.167.006-.584.013-1.168l.012-1.167q.006-.584.013-1.168l.012-1.167.012-1.168q.006-.584.009-1.167.002-.583-.009-1.165-.011-.582-.049-1.16-.039-.578-.096-1.154-.058-.576-.124-1.151-.067-.576-.1-1.162t-.053-1.203q-.019-.618.02-1.327.031-.356.06-.733.029-.376.039-.771.011-.395.002-.779-.008-.384-.027-.758Z"/>
    <path fill="none" stroke="#381d1d" stroke-width="1.692" d="M-554.509 1193.193h114.216l.001 94.906-114.217.001Z"/>
    <path fill="none" stroke="#381d1d" stroke-width=".982" d="M-545.092 1200.474h88.222v76.113h-88.222Z"/>
    <path fill="none" stroke="#381d1d" stroke-width="3.58" d="M-537.512 1236.919h2.208v2.18h-2.208ZM-502.085 1205.442h2.207v2.18h-2.207ZM-465.565 1237.12h2.207v2.18h-2.207ZM-502.035 1267.604h2.208v2.18h-2.208Z"/>
    <path fill="none" stroke="#381d1d" stroke-width=".982" d="m-500.994 1213.254.075 35.029M-510.71 1238.392q.332-.001.214-.001h.269q.414-.001.277-.001h.201q.359-.001.296-.001l3.819-.007q3.85-.007 6.354-.011 2.504-.005 5.063-.009 2.56-.005 4.472-.008 1.912-.004 3.938-.008 2.026-.003 3.328-.006 1.301-.002 2.403-.004l2.179-.004h-.119q-.384.001-.246.001h-.118"/>
    <path fill="none" stroke="#381d1d" stroke-width=".5" d="M-492.973 1231.04q-.113.099-.111.097-.153.134-.98.861-.828.726-2.035 1.787-1.208 1.061-4.809 4.225-3.602 3.163-5.576 4.898-1.975 1.734-4.137 3.634-2.163 1.899-3.382 2.971-1.22 1.071-1.912 1.679-.693.608-1.337 1.174t-1.883 1.654l-2.253 1.98q-1.014.89-1.585 1.392-.571.501-1.443 1.267-.873.767-1.719 1.51"/>
  </g>
</svg>
