<svg xmlns="http://www.w3.org/2000/svg" width="137.7427" height="109.236" viewBox="-363.958 231.903 103.307 81.927">
  <g stroke-linecap="round" stroke-linejoin="round">
    <path fill="#e6f8e7" stroke="#e6f8e7" stroke-width=".5" d="M-344.538 246.808q-.101.069-.154.099-.054.029-.11.054-.055.025-.113.045-.058.02-.117.034-.059.015-.12.024-.06.01-.121.013-.06.004-.121.003-.061-.002-.121-.008-.06-.007-.119-.02-.059-.012-.117-.029-.058-.018-.169-.062-.11.072-.163.107-.053.036-.11.119-.057.083-.177.373-.119.291-.165.491-.046.2-.08.487t-.07.732q-.035.445-.051.775-.016.33-.013.645.004.316.013.501.01.186.024.416.014.231.036.568.022.337.042.629.02.292.047.661.026.369.054.725.027.357.05.711.586.037 1.173.071.586.034 1.172.062.585.028 1.17.05.584.022 1.166.039.583.017 1.163.029.58.011 1.158.019t1.153.013q.575.005 1.147.009.572.004 1.141.007l1.137.006q.566.004 1.131.007l1.127.008 1.124.01 1.12.01 1.117.012q.559.006 1.116.013l1.114.012 1.113.014q.557.007 1.113.013l1.111.014q.556.006 1.111.013.556.007 1.111.013l1.111.014q.555.007 1.11.013.555.007 1.111.013l1.11.014q.555.006 1.11.013.555.006 1.11.013.556.007 1.111.013l1.11.014q.555.006 1.11.013.555.006 1.11.013.556.006 1.111.013.555.007 1.11.013.555.007 1.11.013.555.007 1.11.013l1.111.014q.555.006 1.11.013.555.006 1.11.013.555.007 1.11.013.555.007 1.11.013.556.007 1.111.013l1.11.014q.555.006 1.11.013.555.006 1.11.013.555.007 1.111.013.555.007 1.11.013.555.007 1.11.013l1.11.014q.555.006 1.11.013.556.006 1.111.013.555.007 1.11.013.555.007 1.11.013.555.007 1.11.013l1.111.014q.555.006 1.11.013.555.006 1.11.013.555.007 1.11.013.555.007 1.111.013.555.007 1.11.013l1.11.014q.555.006 1.11.013.555.006 1.11.013.556.007 1.111.013.143.358.165.409.022.051.067.195l.04.096.053.109q.206.854.212.869.005.014.035.184.031.17.064.346.032.176.061.37.029.195.052.422.023.226.076.598.052.372.087.73.034.357.101.813.067.456.145.855.077.398.13.782.053.384.105.655.053.27.101.451.049.181.191.839.143.659.298 1.261.155.602.22.883t.123.501q.059.22.156.534.098.315.133.452t.14.499q.105.363.187.587.082.223.156.433t.112.343q.037.132.168.613.131.482.21.709.078.227.182.546.104.319.171.608.067.29.114.48t.17.658q.122.468.205.905.084.436.223 1.165.139.728.186.936.046.207.1.52.054.313.172.993.117.68.19.996.072.316.078.354.005.038.078.419.072.38.154.688.083.308.091.33.009.022.062.188.053.165.111.366.057.2.157.589.1.389.274.975.175.587.186.611.011.023.219.647.208.623.373 1.133.166.51.282.94.116.429.218.74t.139.427q.036.117.102.406.066.289.162.737t.116.506q.019.058.036.125.016.066.045.207.029.14.063.387.033.248.062.656.029.408.031.611.002.203.004.208.001.005-.001.109-.002.103-.017.198-.014.094-.02.106.001-.065.007-.163.007-.098.025-.248.018-.15.037-.274.019-.125.071-.497.052-.372.117-.878.066-.506.136-.976.071-.469.102-.73.031-.26.066-.605t.083-.861q.049-.517.091-1.019.043-.503.079-.989.036-.487.062-1.055.026-.568.042-1.213.016-.646.024-1.099.008-.453.009-.853 0-.4-.003-1.028-.002-.629-.018-1.263-.016-.634-.059-1.301-.043-.666-.089-1.418-.023-.374-.042-.675-.018-.301-.039-.644-.02-.342-.076-.953-.055-.611-.085-.899-.029-.289-.071-.84-.042-.552-.057-1.017-.014-.465-.017-.868-.004-.403-.002-.899.002-.497.004-.822.001-.326.002-.482.001-.155-.001-.422-.003-.267-.007-.646-.005-.378-.018-.844-.014-.466-.03-.881t-.03-.748q-.014-.333-.031-.724-.016-.39-.035-.838-.018-.448-.038-.956-.019-.508-.034-.914-.014-.405-.028-.858-.014-.453-.024-.629-.009-.175-.019-.444-.011-.268-.021-.631-.011-.363-.017-.699-.006-.336-.007-.798-.002-.461-.004-1.115-.003-.654.014-1.271.017-.617.035-.892.018-.275.038-.615.019-.341.05-.803.031-.461.074-.91.044-.449.109-1.105.065-.655.083-.974.018-.318.006-.622-.012-.303-.05-.695-.038-.391-.066-.597-.027-.207-.049-.248-.021-.041-.071-.077-.172-.063-.23-.073-.059-.01-.168-.032-.109-.021-.213-.036-.103-.016-.26-.042-.156-.027-.321-.036-.166-.009-.367-.022-.201-.012-.499-.023-.297-.01-.478-.006t-.443.002q-.189.041-.255.05-.186.023-.365.03l-.007.001h-.003q-.197-.004-.295-.013-.097-.01-.194-.027-.097-.018-.287-.069l-.009.002q-.06.008-.126.014-.066.007-.198.019l-.091.007q-.078.005-.235.013-.064.004-.246.007l-.132.01q-.015.001-.207.016-.05.004-.22.012-.003.001-.176.018-.106.012-.31.029-.144.012-.341.025-.07.007-.275.022-.032.004-.135.007-.104.004-.313.009-.173.002-.366 0-.102.001-.297-.002-.111 0-.309-.005-.058 0-.254-.003h-.222q-.09.003-.281.009-.06.003-.271.013-.178.012-.37.026-.013.001-.11.01-.098.009-.295.026-.055.006-.158.016-.102.011-.312.03-.026.004-.13.014-.105.011-.317.031-.153.013-.256.021-.104.008-.314.022-.074.006-.178.012t-.315.016q-.071.005-.179.009-.108.003-.328.01-.023.002-.131.006-.108.005-.329.014-.203.009-.415.019-.19.009-.399.018-.159.011-.36.024-.198.019-.399.036-.051.006-.154.014-.103.008-.313.024-.119.009-.218.016-.099.007-.301.018-.134.008-.237.011-.103.004-.312.008-.081.003-.186.004-.105 0-.318-.001-.075.001-.182-.003t-.324-.013q-.138-.005-.343-.014-.018 0-.123-.008t-.316-.026l-.292-.019q-.066-.003-.277-.012-.106-.002-.309-.005-.177.002-.378.005-.015.001-.115.003-.1.003-.303.006-.024.002-.125.004-.101.003-.306.005-.073.003-.179.004-.107.002-.325.003-.139-.001-.239-.004-.101-.003-.306-.011-.051 0-.152-.005-.101-.004-.305-.015-.081-.003-.184-.011-.102-.007-.311-.024-.005 0-.105-.007l-.302-.024q-.209-.013-.43-.028l-.103-.007-.313-.018q-.032-.001-.133-.005-.1-.004-.305-.013-.098-.003-.195-.007l-.297-.012q-.082-.002-.188-.005-.107-.004-.325-.011-.115-.003-.218-.005t-.313-.007q-.162-.004-.261-.007-.099-.002-.301-.008-.081 0-.184-.001-.102 0-.312-.002l-.208.002q-.094.001-.286.002-.018.001-.112 0l-.19-.004q-.096-.001-.291-.005-.018 0-.108-.004l-.18-.008-.274-.012-.183-.015q-.473.015-.977.028-.503.013-.978.022-.476.01-.923.015-.447.006-.803.012-.355.006-.748.011-.394.006-.624.002-.231-.005-.701-.012-.471-.008-.974-.022-.165.015-.332.029-.063.006-.138.012l-.225.018q-.162.012-.354.024-.032.003-.128.005t-.29.001q-.051.001-.247 0-.028 0-.228-.003l-.131-.001-.042.001-.076.008q-.008.001-.167.014l-.026.003q-.074.012-.162.019-.088.007-.264.01h-.009q-.037.003-.129.004-.091 0-.274-.012l-.054-.002q-.034.006-.233.022l-.134.008q-.005 0-.101.004-.096.003-.288-.007-.139-.011-.342-.046l-.035-.005-.027-.005-.01-.001-.05-.004q-.018.001-.111.003t-.279-.01l-.028-.001-.021-.001q-.036.005-.125.01-.088.005-.267.002l-.147-.006-.051-.001q-.135-.005-.319-.025l-.169-.024-.027-.002h-.07l-.072.002q-.038.004-.218.016l-.095.007-.09.01q-.001.001-.003.001h0l-.179.017-.055.007q-.031.005-.227.019l-.079.01-.134.016-.047.007-.056.01-.009.002q-.003.001-.092.019-.088.018-.267.041l-.172.017-.184.009-.184.001h-.191q-.065.002-.26-.006l-.154-.008-.101-.004q-.014-.001-.213-.018h-.011l-.19-.013h-.081l-.131.003-.142.006q-.017.002-.203.012-.134.006-.334.01-.021.001-.212.013-.015.002-.122.004t-.322 0q-.032.001-.241.002-.018 0-.22.002-.132.001-.346-.004-.118-.002-.313-.007-.035 0-.244-.001-.137-.001-.351-.005-.132.004-.344.011-.192.005-.409.011-.002.001-.098.006-.096.004-.291.013-.063.004-.165.007-.103.003-.31.007-.028.002-.136-.001-.107-.002-.214-.011l-.325-.027q-.188-.017-.401-.038-.144-.013-.351-.033-.096-.008-.314-.029-.09-.007-.301-.025-.125-.007-.329-.017-.131-.003-.349-.009h-.007l-.005-.001q-.204-.007-.422-.014h-.105q-.103-.001-.313-.001-.022.001-.12.002-.099.002-.299.004-.089.002-.186.002h-.297q-.205.001-.419 0-.125-.001-.219-.004l-.285-.009q-.004 0-.103-.004-.099-.005-.299-.014l-.18-.006q-.982.091-1.32.108-.338.016-.78.046-.441.029-.777.057-.336.027-.802.071-.466.043-1.089.082-.623.039-1.033.051-.41.013-.717.017-.306.005-.646.006-.34.002-.635-.002-.294-.004-.669-.016-.375-.013-.854-.058-.479-.045-.972-.111-.492-.067-.873-.126-.38-.059-.728-.107-.349-.048-.792-.104-.444-.056-.857-.096-.414-.04-.798-.063-.383-.023-.645-.037-.111.031-.167.041-.057.011-.074.012-.103.012-.202.016h-.005q0 0 0 0-.112-.002-.168-.008-.055-.005-.073-.009l-.006-.001-.071-.008-.013-.002q-.102-.007-.106-.008l-.012-.001q-.098.003-.147.002-.049 0-.086-.003-.098-.007-.13-.012-.089-.011-.132-.017-.044-.006-.052-.008-.063-.009-.087-.014-.062-.011-.123-.023-.101-.001-.463-.01l-.185.021q-.061.007-.186.02-.093.01-.183.016-.091.006-.273.017-.155.011-.319.022-.156.009-.338.018-.024.002-.197.011l-.066.016q-.024.006-.105.021-.082.016-.246.037-.021.003-.118.011-.096.009-.194.009-.097 0-.194-.007t-.29-.037l-.09-.013q-.035-.006-.131-.028-.096-.023-.284-.084-.033.012-.062.02l-.077.02q-.186.082-.283.115-.096.032-.185.055l-.067.016q-.042.011-.064.015l-.128.021q-.2.089-.304.125-.104.035-.211.062-.106.026-.197.04l-.053.008q-.074.012-.126.015-.065.005-.13.009-.037.002-.067.002-.089-.001-.178-.004-.011 0-.021-.002l-.012-.001-.007-.001-.012-.001q-.169-.017-.203-.023-.047.039-.095.077Z"/>
    <path fill="#bd8ae6" stroke="#bd8ae6" stroke-width=".5" d="M-361.363 255.657q-.013.138-.031.269.493 3.684.901 5.407.408 1.723.829 3.491.422 1.767.662 2.81.24 1.043.417 1.804.088.381.211.95.123.568.28 1.324.158.757.281 1.388.123.632.256 1.392.133.76.22 1.262.086.501.197 1.119.111.618.222 1.218.112.6.261 1.39.149.789.269 1.388.12.599.255 1.212t.223.972q.045.179.107.432.063.253.125.499.061.245.119.488.057.244.131.567.074.324.165.727.091.404.198.888.107.483.213.981t.211 1.011q.105.512.209 1.039.104.526.208 1.067.103.54.192 1.01.089.47.163.869.074.399.145.792.072.392.14.778.068.386.132.752.065.367.126.713.06.347.123.673.063.326.127.631l.134.628q.069.322.143.663.074.341.162.752.089.41.191.89l.196.915q.092.433.175.819.083.386.173.797.089.41.185.845l.173.784q.077.35.163.744.087.395.149.699.062.303.064.326.002.022.103.531.102.51.218 1.008.115.499.18.756.066.256.114.45.049.193.225.674.175.481.312.756t.312.498q.175.224.273.313.098.09.259.204.16.114.256.168.096.053.179.09.083.037.357.119.274.082.628.118.353.036.663.056.309.02.691.035.383.016.74.023.358.008.69.009.331.001.707-.006.376-.008.795-.024.42-.016.793-.026.374-.011.702-.015.327-.005.801-.013.473-.008 1.09-.018.618-.01 1.16-.02.542-.011 1.008-.023.467-.012.894-.02.427-.007.815-.01.388-.004.815-.004.426.001.89.005.465.004.922.01.457.007.907.016.45.009.893.02.443.012.879.025.436.013.821.024.385.011.718.019.334.008.673.013.34.004.687.004.346.001.613-.003.268-.003.551-.015.283-.011.68-.047.397-.036.732-.068.334-.032.738-.072.404-.04.805-.077.401-.036.8-.067.398-.032.793-.06.395-.028.787-.052.392-.024.791-.041.398-.017.803-.028.81-.021 1.646-.017.835.005 1.535.009.699.004 1.544.008.845.004 1.639.016.795.012 1.421.04.627.029 1.352.077.724.048 1.492.119.768.07 1.579.163.811.092 1.664.164.852.073 1.746.125.894.051 1.525.075.632.023 1.186.02.554-.004 1.312-.004.758.001 1.393-.005.635-.005 1.399-.017.764-.011 1.446-.026.681-.015 1.58-.041.898-.026 2.201-.073 1.302-.046 2.101-.086.8-.039 1.732-.089.933-.05 1.42-.082.486-.031 1.839-.079 1.353-.049 2.112-.066.759-.018 2.034-.082 1.275-.063 2.586-.153 1.311-.089 1.997-.092.687-.003 1.061.038.374.041.602.087.227.046.881.24.328.096.651.185.323.088.643.167.319.079.522.13.204.05.334.081.131.032.44.088.309.057.588.094.279.036.631.072t.591.059q.239.022.365.03.126.009.38.024.254.016.635.038.381.023.7.041.32.018.706.038.386.02.726.036.34.015.525.004.186-.011.529-.027.344-.017.581-.059.236-.043.305-.066.069-.023.093-.027.024-.004.158-.061.134-.057.231-.125.096-.068.157-.257.06-.189.116-.522.057-.332.039-.705-.018-.373-.05-.663-.031-.29-.083-.621-.051-.331-.104-.638-.053-.306-.134-.729-.082-.422-.197-.887-.116-.465-.203-.818-.088-.354-.179-.717t-.155-.606q-.065-.244-.129-.497t-.148-.597q-.085-.343-.196-.819-.111-.476-.248-1.084-.137-.608-.247-1.094-.11-.486-.195-.851-.084-.364-.186-.779-.101-.414-.183-.738-.081-.323-.176-.693-.095-.371-.189-.75t-.187-.768q-.093-.388-.185-.785t-.184-.803q-.092-.406-.184-.808-.092-.401-.184-.799t-.184-.792q-.091-.394-.182-.784-.09-.39-.17-.733-.08-.344-.183-.79-.103-.447-.192-.857-.09-.411-.179-.806-.089-.395-.156-.688-.066-.292-.139-.613-.073-.321-.141-.621-.068-.299-.16-.714-.093-.416-.196-.881l-.212-.957q-.109-.491-.225-1.008t-.221-.968q-.106-.451-.202-.836-.097-.386-.187-.814-.089-.428-.155-.759-.065-.332-.136-.711-.071-.378-.133-.713-.063-.335-.143-.773-.081-.438-.154-.849-.074-.411-.162-.842-.088-.431-.19-.883-.102-.452-.198-.849-.096-.397-.186-.739-.09-.341-.173-.668-.082-.326-.158-.637-.075-.311-.151-.671-.077-.36-.154-.768-.078-.409-.156-.79-.077-.38-.155-.732-.077-.352-.149-.678-.072-.326-.138-.626-.133-.602-.222-1.118-.09-.516-.149-.899-.059-.382-.112-.682-.054-.3-.117-.721-.064-.42-.091-.613-.027-.194-.083-.635-.057-.442-.123-.778-.068-.335-.147-.702-.079-.367-.14-.744-.06-.377-.111-.65-.051-.273-.132-.633-.081-.36-.092-.418-.01-.059-.239-1.008-.022-.048-.237-1.057-.029-.082-.131-.433-.341-.012-.683-.019-.341-.008-.683-.012-.341-.005-.683-.007-.342-.001-.683 0-.342.001-.683.005t-.683.01q-.341.006-.683.014-.341.008-.682.017-.341.009-.682.019l-.682.02q-.341.011-.682.021-.341.011-.681.021-.341.01-.681.019l-.681.018q-.34.008-.68.015-.34.007-.68.013-.339.006-.679.011-.34.005-.679.008t-.678.005q-.34.002-.678.003-.339.001-.678.001t-.677-.001q-.339-.001-.677-.003-.339-.002-.677-.005l-.676-.006q-.338-.004-.676-.007l-.675-.008q-.338-.005-.675-.009-.338-.005-.675-.009l-.675-.01-.674-.01q-.337-.004-.674-.009l-.674-.01-.674-.01-.673-.01-.673-.01-.673-.01-.673-.01-.672-.01q-.337-.005-.673-.009l-.672-.01q-.336-.005-.672-.009-.336-.005-.672-.009l-.672-.01-2.687-.036-2.687-.034q-1.343-.018-2.687-.035-1.344-.017-2.688-.033l-2.689-.034-2.692-.034q-1.347-.018-2.695-.035-1.348-.017-2.697-.035-1.35-.017-2.701-.035-1.351-.018-2.703-.037l-2.707-.036q-1.354-.019-2.708-.037l-2.71-.038q-1.355-.018-2.71-.037t-2.709-.037l-2.707-.036-2.704-.034q-1.351-.017-2.7-.033-1.348-.016-2.694-.031-1.346-.015-2.689-.028-1.344-.013-2.685-.025ZM-266.063 234.615l-.003.065q.001.261.035.892.035.631.125 1.857.09 1.227.133 1.909.043.682.054 1.158.011.477.017.866.006.39.008.743.001.354-.002 1.21-.003.857-.023 1.672-.019.815-.039 1.383-.02.568-.039 1.177-.019.608-.029 1.178-.011.569-.012.827-.001.257.001.834t.013 1.014l.021.839q.01.403.014.649.004.245.017.811.013.567.028 1.013.015.447.035.965.021.519.056 1.368.036.848.074 1.557.039.708.057 1.015.018.308.076 1.93.058 1.622.069 2.458.011.837.009 1.282-.003.446-.017 1.079-.014.634-.039 1.891-.025 1.257-.027 1.912-.002.655-.002 1.073 0 .418.001 1.219.001.8-.005 2.139-.003.669-.015 1.234-.012.564-.032 1.024-.02.459-.041.828-.02.369-.051.788-.03.418-.06.814-.031.397-.053.801-.023.404-.04.742-.017.339-.037.746-.02.407-.036.77-.016.362-.028.681-.013.318-.021.592-.009.274-.016.619-.008.344-.014.674-.007.331-.012.632-.004.302-.017.759-.014.458-.017.813-.004.356-.005.677 0 .321.002.726.002.406.006.816.003.409.007.824.004.414.006.778.003.364.003.833.001.469.001.802 0 .334.013.807.013.474.026.73.014.257.022.363.009.106.033.364.024.257.06.528.037.271.093.642.057.37.105.647.047.276.085.458.038.181.101.453t.151.635q.087.363.173.716.086.352.171.693.084.341.161.644.076.304.18.701.103.398.198.766.095.368.237.913.141.545.235.895.093.35.134.502.041.152.079.279.037.128.15.525.112.398.159.534.046.137.068.175.021.038.071.08.011 0 .051-.364.039-.364.059-.663.02-.298.034-.654.014-.355.029-.671.015-.315.039-.728.023-.413.035-.671.013-.259.023-.61.011-.351.019-.658.009-.308.019-.69l.02-.759q.01-.379.019-.754l.02-.745q.009-.371.019-.738.009-.366.016-.689.007-.323.013-.742.007-.42.006-.812-.001-.393-.009-.803-.007-.409-.022-.836-.014-.427-.024-.774-.011-.347-.017-.615-.006-.269-.016-.742-.01-.474-.019-.879-.008-.404-.019-.897-.01-.493-.018-.936-.008-.443-.013-.837-.006-.394-.009-.74-.003-.345-.004-.791v-.882q.001-.437.003-.715.002-.278-.002-.661-.003-.383-.008-.696-.004-.313-.01-.684-.006-.372-.013-.7-.006-.328-.016-.756t-.025-.827q-.014-.399-.024-.773-.009-.374-.014-.723-.01-.699-.012-1.083-.003-.384.002-1.612.006-1.229.029-2.472.023-1.243.031-1.787.008-.544.009-.91.001-.365-.003-1.09-.003-.726.014-1.544.016-.818.029-1.235.013-.417.017-.75.003-.333-.006-.98-.009-.647-.003-1.477.007-.831.027-1.474.021-.643.05-1.09.028-.447.054-.74.025-.294.049-.905.024-.61.029-.954.004-.343-.015-.63-.018-.287-.006-.935.013-.648.038-1.042.024-.393.035-.685.011-.293.043-.615.033-.322.062-.856.028-.534.032-.806.005-.273-.001-.559-.007-.286-.016-.605-.009-.319-.034-.641-.025-.323-.045-.579l-.038-.512q-.018-.257-.032-.358-.013-.101-.064-.599-.051-.498-.097-.801-.045-.303-.105-.84-.059-.536-.088-.783l-.061-.516q-.031-.269-.048-.458-.017-.188-.033-.658-.017-.469-.021-.722t-.01-.46q-.006-.206-.027-.663-.022-.457-.026-.799-.005-.343-.004-.923 0-.58.01-.919.01-.338.038-.92.028-.582.045-.806.017-.224.027-.622.01-.398.02-.621.01-.224.016-.414.007-.191.021-.383.015-.191.021-.346.007-.155.006-.24-.001-.085 0-.166.001-.082.011-.332.01-.249-.006-.946.006-.039.009-.261M-346.643 242.966q.002-.083.009-.164-4.584-.151-4.595-.13-.01.022-.148.533-.138.512-.223 1.055-.084.542-.124.995-.04.452-.081.892-.04.44-.064.674-.024.234-.061.628-.036.395-.056.681-.019.286-.045.957-.026.67-.034.991-.007.321-.009.654-.002.333.03.808.033.476.111.958.078.483.154.83t.119.495q.042.147.159.391.118.245.161.309.044.065.083.113.039.048.079.085.04.038.216.139t.432.166q.256.064.86.146.604.083.925.11.321.028.593.027.272-.001.454-.021.181-.02.368-.065.187-.046.35-.102.164-.056.225-.085.061-.028.15-.103.089-.074.119-.11.029-.036.092-.22.063-.185.102-.559.039-.375.04-.599.001-.224.006-.876t.016-1.035l.029-.927q.017-.543.011-.905-.006-.363-.004-.731.002-.369.006-.571.005-.202.015-.657.01-.455.02-.758-.092-.093-.133-.144-.041-.051-.077-.105-.036-.055-.067-.113-.03-.058-.055-.118-.024-.061-.043-.124-.019-.063-.031-.127t-.016-.1q-.012-.116-.014-.184l.001-.051q-.003-.115 0-.169-.004-.11-.001-.163l-.001-.032q-.01-.116-.01-.146v-.034l.001-.123v-.003l.003-.061q.002-.104.003-.125l.003-.04q.006-.11.011-.149l.001-.019v-.013l-.005-.062-.001-.015q-.009-.113-.009-.156v-.025q-.005-.115-.004-.158 0-.119.002-.16l-.002-.039-.005-.046-.01-.1q-.009-.12-.008-.148-.003-.123-.003-.138l-.002-.111.002-.095q.004-.118.011-.198l.001-.02v-.009l-.001-.01-.007-.047q-.014-.1-.018-.169-.004-.084-.004-.089M-338.36 246.342l-.056-.005-.15.024q-.167.028-.42.061-.193.024-.455.046-.052.007-.314.03-.083.01-.336.029l-.201.017h-.001l-.059.015q-.124.031-.319.065.253-.007 1.574.015 1.322.022 2.373.046 1.051.025 1.698.036.647.011 1.199-.003.552-.014 1.548-.109.997-.096 1.394-.123.397-.028.985-.051.588-.023.718-.027-.136-.024-.271-.052-.161-.031-.416-.096l-.189-.047-.114-.021-.22-.031q-.055-.005-.31-.039-.041-.004-.295-.032-.077-.005-.329-.025-.016 0-.272-.013h-.325q-.18-.001-.423-.006-.198-.008-.443-.027l-.058-.004q-.09.003-.127.002l-.008.004-.02.009q-.108.053-.164.074-.056.022-.098.033l-.049.014q-.025.007-.041.01l-.028.005-.067.024q-.116.038-.175.052-.06.014-.114.021l-.056.008q-.011.001-.015.001l-.005.001-.016.003q-.116.021-.142.024l-.01.001-.032.003q-.119.012-.236.014h-.002l-.076-.003-.045-.002h-.003l-.03-.001h-.021l-.054.003-.07.006q-.117.01-.209.012-.114.001-.171-.004-.056-.004-.064-.005l-.03-.004-.096-.011-.017-.002-.02-.002-.04-.003h-.048q-.115.005-.12.005-.119.005-.133.004l-.063-.001q-.114 0-.128-.001-.108-.005-.142-.009l-.04-.003-.041.004-.019.001-.039.004-.109.014-.108.009q-.11.004-.146.002l-.088-.002q-.116.044-.176.061-.06.017-.127.029-.119.019-.207.025-.113.003-.169 0-.056-.003-.092-.008l-.008-.001-.072-.006-.013-.002-.105-.005h-.013q-.112.006-.168.006-.056 0-.065-.001-.096-.005-.129-.008-.105-.011-.183-.02l-.087-.011q-.08-.013-.12-.019-.039-.007-.041-.007l-.06-.01-.047-.004M-287.368 246.683l.136.004q-1.094-.005-2.288-.042-1.194-.037-2.298-.093-1.105-.056-1.915-.085-.81-.029-1.496-.043-.685-.014-.982-.016-.297-.003-.974-.005-.678-.002-1.794.01-1.117.013-1.302.015l.024-.003q.227-.016.314-.023.23-.01.431-.021.241-.016.409-.029.239-.016.395-.027l.462-.027.012-.001q0 0 0 0l.397-.029q.236-.011.433-.022.236-.01.403-.018.238.001.337.001.233.013.401.021.235.019.358.028.244.024.423.042.234.026.349.039.115.013.131.014.236.025.352.036.115.012.258.019.244.013.364.018.12.005.198.005.243.007.362.009.119.002.232 0 .237 0 .353-.001.116-.002.132-.002l.359.003h.145l.364.009q.119.003.198.003.243.008.362.01.119.003.169.003.242.009.361.013.118.003.153.003.24.011.358.015.117.005.133.005.24.01.463.018.236.015.384.023.242.017.425.029.242.018.42.031.242.019.362.028.12.009.133.009l.457.019M-266.643 245.453q.044.002.001 0M-341.409 246.633l-.066-.009-.115-.017q-.045-.007-.135-.027-.09-.021-.265-.075l-.044.013-.099.03q-.065.032-.132.062.277.026.531.031.254.005.392.001"/>
    <path fill="#bd8ae6" stroke="#bd8ae6" stroke-width=".5" d="M-347.324 242.886q-.011.079-.004.541.006.462.021.784.014.323.056.743.042.421.109.688.067.267.168.505.102.238.18.353.078.115.161.191.082.077.149.11.066.034.101.051.035.017.234.068.199.051.316.067.117.017.224.032.107.016.464.013.358-.003.633-.024.275-.022.538-.038t.585-.049q.321-.033.47-.049.149-.015.339-.026.189-.011.265-.016.076-.005.36-.03.283-.024.489-.038.206-.013.304-.024.097-.011.409-.034.312-.023.632-.037.32-.013.686-.031.366-.018.598-.025.233-.006.506-.031t.821-.053q.548-.027.687-.038.138-.011.394-.036.255-.024.582-.052.327-.028.645-.067.318-.04.836-.098.519-.057.845-.085.325-.029.622-.04.296-.012.447-.015.15-.002.336-.009.185-.007.413-.018.228-.011.491-.015.262-.004.533.002.27.006.636.021.366.015.647.03.282.015.578.038.296.022.776.046.48.024 1.029.066.549.042 1 .066.45.024.682.025.232.002.549.002.317 0 .59.006.273.007.541.019t.621.031q.353.019.626.033.273.015.563.03l.542.028q.252.013.379.015.127.003.232.002.105-.001.315-.012.209-.012.558-.034.349-.022.74-.037.392-.015.826-.024.434-.008.821-.002.387.007.727.028.34.022.652.045t.738.059q.426.036.768.06.342.025.914.038.572.014 1.117.003.545-.01 1.102-.031.556-.021.974-.034.418-.013.757-.021.339-.009.739-.016.399-.008.751-.014.353-.007.659-.012.305-.005.691-.012.386-.006.852-.014.465-.008.907-.025.443-.017.861-.043.418-.026.733-.049.315-.023.632-.053.316-.03.824-.077.508-.048.775-.075.267-.027.643-.067.377-.04.709-.071.333-.03.747-.066.413-.035.771-.061.357-.025.657-.041.3-.015.647-.021.346-.006.74-.002.786.009 1.172.024.387.014.755.031.367.016.779.026.205.004.529.002.324-.002.596-.006.273-.003.602-.008.329-.006.619-.011.291-.005.668-.012.378-.007.726-.015.348-.009.638-.011.289-.003.635 0 .346.004.587.012.241.007.379.014t.454.015q.315.008.58.012.264.004.637.013t.566.007q.192-.001.292-.005.1-.004.368-.01t.738-.016l.895-.017q.425-.009.806-.015.381-.007.656-.01t.445-.003q.169 0 .521.004.353.004.889.013t.911.011q.374.002.693-.008.319-.009.874-.031.556-.022.962-.032.405-.011.506-.014.101-.003.162-.006t.537-.012q.475-.009.832.008.357.016.635.029.278.013.595.027.318.015.597.03.279.016.64.041.362.025.774.066.411.04.828.064.416.023.787.037.372.013.841.021.469.008.891.008.422 0 .733-.013.31-.013 1.419-.327.171-.124.313-.313.141-.19.206-.336.065-.146.122-.449.057-.303.098-.802.04-.499.043-.806.002-.307.01-.605.008-.299-.009-.69-.016-.392-.038-.706-.022-.314-.033-.617-.011-.304-.064-.745-.052-.441-.086-.658-.034-.218-.041-.289-.008-.071-.022-.185-.014-.114-.054-.412-.041-.298-.1-.774-.06-.475-.1-.693-.039-.218-.064-.346-.025-.128-.039-.21-.013-.082-.078-.313-.065-.231-.118-.353-.053-.122-.122-.24-.07-.119-.123-.202-.053-.083-.095-.134-.043-.051-.069-.076-.026-.025-.062-.052-.035-.027-.164-.096-.129-.07-.236-.114-.106-.044-.36-.117-.253-.072-.285-.076l-.328-.031q-.297-.028-.868-.08-.571-.051-1.05-.087-.48-.036-.869-.057-.39-.021-.847-.042-.457-.022-.982-.043-.525-.022-.953-.033-.429-.012-.76-.014-.331-.003-.623-.001-.293.002-.547.009-.255.006-.619.008-.363.003-.836.001t-.85-.003q-.377-.002-.799-.005-.421-.003-.975.024-.555.027-1.144.055-.589.029-1.133.045-.545.017-1.082.05-.536.033-.999.064-.462.031-.72.042-.257.012-.874.04-.617.029-.93.048-.314.02-.558.036-.244.015-.504.019-.259.005-.474.012-.216.008-.466.027-.251.019-.456.03-.205.01-.305.019t-.367.052q-.268.042-.519.085-.251.043-.355.066-.104.022-.266.072-.161.05-.168.051-.007.001-.232.097-.226.096-.418.212-.192.115-.491.37-.299.254-.6.555-.3.301-.478.49t-.41.44q-.232.252-.418.453-.187.201-.525.538-.339.336-.661.639t-.519.476q-.197.173-.336.288-.139.115-.531.409-.393.294-.739.519-.347.225-.647.413-.301.188-.526.317-.224.129-.385.218-.162.09-.452.263-.289.172-.396.234-.108.061-.317.177-.21.115-.404.221l-.302.165q-.108.06-.186.093-.077.033-.125.052-.049.019-.181.084t-.207.095q-.075.03-.37.147l-.714-.004q-.358-.002-.715-.005l-.714-.004q-.357-.003-.714-.005l-.715-.004q-.357-.003-.714-.005l-.714-.004q-.358-.003-.715-.005t-.714-.005l-.714-.004q-.357-.002-.715-.005l-.714-.004q-.357-.002-.714-.005l-.715-.004q-.357-.003-.714-.005l-.714-.004q-.357-.003-.715-.005l-.714-.004q-.357-.003-.714-.005t-.714-.005l-.715-.004q-.357-.002-.714-.005l-.714-.004q-.358-.002-.715-.005l-.714-.004q-.357-.003-.714-.005l-.715-.004q-.357-.003-.714-.005l-.714-.004q-.357-.003-.715-.005l-.714-.004q-.357-.003-.714-.005l-.715-.004q-.357-.003-.714-.005l-.714-.004q-.358-.003-.715-.005l-.714-.004-.715-.004q-.357-.003-.715-.005l-.715-.004q-.357-.002-.715-.003l-.715-.004q-.358-.001-.716-.003l-.716-.002-.717-.002q-.359-.001-.718-.001t-.718.001q-.36 0-.72.001-.361.001-.722.003t-.723.005q-.362.003-.725.008-.363.004-.727.009-.364.005-.73.012-.365.007-.731.015-.367.008-.735.017l-.737.02q-.369.011-.739.023t-.741.025l-.743.026-.744.028-.745.028q-.372.015-.744.028-.372.014-.743.027-.37.013-.741.024Z"/>
    <path fill="none" stroke="#381d1d" stroke-width="1.416" d="m-362.032 255.53.368 1.663q.357 1.614.912 4.125t.908 4.105l.403 1.825q.051.231.142.639l.427 1.931q.337 1.525.81 3.663.472 2.139.924 4.18l.687 3.107q.235 1.067.407 1.843.172.777.504 2.28.333 1.504.996 4.502l.994 4.496q.331 1.496.485 2.193.154.697.256 1.16.103.464.226 1.02l.352 1.595q.23 1.037.468 2.114.238 1.077.591 2.673.353 1.597.6 2.713.246 1.116.402 1.82.156.704.224 1.014.069.31.098.442l.035.158q.006.026.054.245l.03.136q.004.016.028.128l-.033-.15"/>
    <path fill="none" stroke="#381d1d" stroke-width="1.434" d="M-274.65 256.052q.216.936.396 1.722.18.786.345 1.516.166.73.313 1.387t.261 1.176q.115.519.207.94.092.421.167.767.075.345.137.628l.156.723q.095.439.191.884.097.446.169.781.073.336.154.711.081.375.17.789.09.414.188.868l.19.881q.092.428.179.829.087.401.168.776.081.375.156.724.076.349.145.672l.166.767q.096.445.202.933.105.489.2.926.094.438.178.825.083.387.156.723.073.336.134.622l.137.633q.076.348.164.759.089.41.191.882l.217 1.007q.116.535.226 1.045.11.51.215.995.105.486.205.947l.193.897q.095.436.201.927.106.492.224 1.038.118.547.216.998.097.451.165.766l.139.643.137.635q.066.306.158.731t.195.902q.103.477.186.864.084.387.18.832.097.446.212.981.116.535.219 1.011l.211.978q.108.501.222 1.027.113.526.178.826l.081.375q.016.075.081.372l.124.575q.06.278.137.637.078.359.15.693.073.335.14.646l.129.597.147.681.178.826q.093.431.166.768.073.338.151.698.078.361.138.637.059.276.127.589.067.312.132.611.064.298.157.726.092.429.204.946.112.517.195.902l.165.763q.081.378.127.589.046.211.071.33.026.119.033.149.006.031-.016-.074-.023-.104.127.589l-.132-.608"/>
    <path fill="none" stroke="#381d1d" stroke-width="1.424" d="M-351.676 254.968q0 .067-.001-.146-.002-.212-.004-.598l-.011-1.399q-.007-1.015-.013-1.913-.007-.898-.009-1.131-.001-.233-.052-7.293"/>
    <path fill="none" stroke="#381d1d" stroke-width="1.441" d="M-349.475 311.3q.221.001 3.072.02 2.851.018 4.852.032 2.001.013 4.5.029 2.5.017 5.766.038 3.267.021 5.354.035l3.899.026q1.812.012 3.973.026 2.161.014 3.282.021 1.122.008 3.632.024 2.51.017 4.27.028 1.759.012 2.963.02 1.203.007 1.945.012l1.359.009 3.979.026q3.36.022 6.504.043 3.145.021 5.501.036 2.356.016 5.389.035l4.873.032q1.841.012 3.114.021l2.984.019q1.712.012 2.631.018.918.006 1.469.009.551.004.908.006.356.003.394.003h.041l.116.001.115.001q.035 0-.641-.005"/>
    <path fill="none" stroke="#381d1d" stroke-width="1.466" d="M-361.901 255.449q-.213-.002 1.192.008 1.405.009 3.7.024 2.295.015 3.696.025 1.401.009 5.613.037 4.211.028 13.4.09 9.189.061 14.508.097l7.886.052q2.567.017 7.754.052 5.188.035 7.75.052 2.561.017 6.279.041 3.718.025 5.593.038 1.875.012 2.704.018.829.005 2.51.017 1.682.011 2.406.016.724.005 1.117.007.393.003 1.087.007"/>
    <path fill="none" stroke="#381d1d" stroke-width="1.437" d="m-351.622 242.43.294.002q.461.004.371.003l1.722.012q1.574.011 7.196.051 5.623.04 8.76.062 3.137.022 4.797.034 1.66.012 5.539.039 3.878.028 6.401.046 2.523.018 3.556.025 1.033.007 2.099.015 1.067.007 3.042.021 1.975.014 3.196.023t1.676.012q.455.003.57.004.116.001.287.002l.328.002.146.001.165.001q.177.002.135.001-.041 0 .086.001l.235.002q.106 0 .605.004"/>
    <path fill="none" stroke="#381d1d" stroke-width="1.41" d="M-262.726 234.083q-.088-.001-.399-.002-.311-.001-.844-.003l-1.101-.004q-.568-.002-1.002-.003-.433-.002-.923-.004-.49-.002-.966-.003l-.94-.004q-.463-.001-.914-.003-.45-.002-.887-.003-.438-.002-.862-.003-.424-.002-.835-.003-.411-.002-.809-.003-.398-.002-.975-.004-.578-.002-1.264-.004-.686-.003-1.289-.005-.602-.002-1.121-.004t-.955-.004q-.435-.001-.807-.003-.372-.001-.835-.003-.463-.001-.826-.003-.363-.001-.783-.003-.42-.001-.895-.003-.476-.002-1.062-.004-.586-.002-1.282-.005l-1.182-.005q-.485-.002-.897-.005-.412-.002-.515-.002-.102-.001-.598-.004-.496-.002-1.419-.008"/>
    <path fill="none" stroke="#381d1d" stroke-width="1.74" d="m-289.942 234.009-10.351 8.609"/>
    <path fill="none" stroke="#381d1d" stroke-width="1.034" d="m-345.997 246.653.127-.001q.196-.002.156-.001.018-.001 3.075-.025 3.057-.025 4.747-.038 1.689-.014 2.724-.022 1.034-.008 1.817-.015.782-.006 5.386-.043l8.215-.066 6.118-.049 5.398-.043q2.891-.023 5.378-.043 2.487-.02 4.065-.033 1.577-.012 3.985-.032 2.408-.019 4.118-.033 1.71-.013 4.181-.033 2.471-.02 3.727-.03l2.38-.019q1.124-.009 2.068-.017.945-.007 2.379-.019 1.435-.011 2.703-.022l1.889-.015q.621-.005 1.022-.008l.658-.005q.257-.002.691-.006.435-.003.823-.006.389-.003.829-.007.44-.003 1.293-.01"/>
    <path fill="none" stroke="#381d1d" stroke-width=".982" d="M-265.964 246.065V295.48q.001.343 0 .39v.212q.001.165.001.447"/>
    <path fill="none" stroke="#381d1d" stroke-width="1.363" d="M-262.638 234.103v77.765"/>
    <path fill="none" stroke="#381d1d" stroke-width="1.034" d="M-346.144 246.78v-.082V255.67v-.086"/>
  </g>
</svg>
