<svg xmlns="http://www.w3.org/2000/svg" width="229.9147" height="176.104" viewBox="-139.484 390.709 172.436 132.078">
  <g stroke-linecap="round" stroke-linejoin="round">
    <path fill="#f9f57f" stroke="#f9f57f" stroke-width=".5" d="m-71.405 410.598-.071.04q-.388.322-1.082 1.25-.693.928-1.095 1.624-.403.697-.632 1.124-.229.428-.66 1.104-.431.675-.966 1.844-.269.586-.511 1.195-.242.609-.458 1.243-.217.634-.389 1.178-.172.544-.363 1.223-.191.68-.273 1.072-.083.392-.148.789-.065.397-.12 1.004-.056.607-.128 1.558-.072.951-.105 1.675-.033.725-.026 1.221.008.497.049 1.193.04.695.119 1.591.078.895.153 1.586.075.692.179 1.421.104.73.274 1.436.169.707.266.978.097.272.229.669.132.396.333 1.007.202.611.411 1.206.209.596.532 1.468.322.871.848 1.895t.81 1.424q.284.399.422.548.139.149.507.432.042.023.904.474.862.45 1.6.677.737.226 1.138.308.4.081 1.215.374.815.292 1.501.546.687.253 1.656.394.97.14 1.609.174.638.034 1.136.146.498.111 1.005.198.506.086 1.547.176 1.04.09 1.523.111.484.021.865.082.382.061 1.158.144.776.082 1.375.083.6 0 1.482-.092.883-.091 1.504-.145.621-.053 1.354-.039.732.014 1.225.092.494.079 1.253.23.759.151 1.209.208.449.057 1.016.067.566.009 1.399-.016.833-.025 1.612-.093.779-.067 1.506-.17.726-.103 1.275-.178.55-.075.921-.126.371-.051.902-.093t1.222-.071q.692-.029 1.301-.043.61-.013 1.399-.013.79 0 1.324-.021.535-.022 1.462-.194.927-.173 1.663-.362.737-.189 1.208-.324.472-.135.9-.292.429-.157.721-.279.292-.121.474-.213t.666-.396q.485-.304.729-.474.243-.17.421-.356.178-.186.3-.337.121-.15.296-.451.174-.301.229-.401.055-.101.239-.446.185-.346.308-.578.123-.233.21-.49t.359-1.228q.273-.97.443-1.657.171-.688.237-.967.066-.279.248-.991.182-.711.264-1.162.082-.452.102-.648l.155-1.606q.136-1.41.203-2.738t.068-2.22q0-.892-.024-1.425t-.049-.791q-.025-.259-.122-.673-.097-.414-.168-.785-.071-.37-.122-.569-.052-.199-.121-.393-.068-.193-.152-.43-.083-.236-.147-.391-.064-.155-.374-1.09t-.473-1.479q-.163-.544-.254-.968-.09-.424-.195-.87-.104-.445-.303-.928-.198-.484-.367-1.113-.169-.63-.232-.954-.063-.323-.126-.54-.062-.217-.107-.449-.046-.232-.071-.399-.024-.168-.078-.443t-.098-.477q-.043-.202-.129-.399-.086-.197-.146-.409-.06-.212-.087-.304-.026-.091-.077-.312-.052-.222-.129-.47-.077-.249-.349-.868-.272-.62-.455-.988-.182-.368-.268-.546-.086-.177-.184-.387-.097-.211-.216-.401-.119-.191-.206-.364t-.161-.292q-.075-.119-.286-.398l-.212-.209-1.364.03q-.683.014-1.365.029l-1.364.03q-.682.014-1.364.029-.682.015-1.365.029l-1.364.03q-.682.015-1.364.029l-1.364.03q-.683.014-1.365.029l-1.364.03q-.682.014-1.364.029-.682.015-1.365.029l-1.364.03q-.682.015-1.364.029l-1.364.03q-.683.014-1.365.029l-1.364.03q-.682.014-1.364.029-.682.015-1.365.029l-1.364.03q-.682.015-1.364.029l-1.364.03q-.683.014-1.365.029l-1.364.03q-.682.014-1.364.029-.682.015-1.365.029l-1.364.03q-.682.015-1.364.029l-1.365.03q-.682.014-1.364.029l-1.364.03q-.682.014-1.365.029Z"/>
    <path fill="#dfc34d" stroke="#dfc34d" stroke-width=".5" d="M-17.705 495.38q.135.022.266.06-.02-.418-.074-.99-.054-.571-.234-1.281-.181-.709-.313-1.135-.132-.427-.186-.601-.054-.174-.123-.381-.068-.207-.198-.617-.131-.409-.248-.74-.118-.331-.181-.588-.062-.258-.083-.407-.021-.149-.05-.343-.029-.193-.067-.481-.038-.287-.055-.465-.017-.178-.025-.351-.007-.173-.011-.258-.005-.085.018-.646.022-.562.059-1.046.036-.484.059-.802.023-.318.032-1.04.009-.722.032-1.339.023-.618.045-.894.022-.277.035-.572.013-.296.019-.568.006-.273.001-.853t-.011-.883q-.007-.303-.009-.58-.002-.276-.005-.759-.002-.482.024-1.012.026-.529.071-.829.045-.3.121-.557.075-.258.218-.674.143-.416.25-1.051.107-.635.145-.983.037-.349.147-.781.109-.431.192-.884t.068-.913q-.016-.461-.046-.733-.029-.273.007-.996.036-.723.099-1.553.062-.83.109-1.271.046-.44.107-.934.061-.493.09-.886.03-.394.05-.662.021-.269.064-.637l.108-.923q.065-.556.109-1.006.043-.451.08-.971.037-.52.058-.955.02-.434.038-.581.017-.147.059-.458.042-.311.045-.561.004-.25-.008-.429-.013-.179-.035-.468-.022-.288-.032-.494-.009-.207-.024-.398-.014-.192-.075-.686-.062-.495-.079-.549-.017-.053-.037-.141-.02-.088-.052-.308-.032-.221-.047-.574-.016-.353-.029-.851-.013-.499-.076-1.09-.063-.592-.139-.952-.075-.359-.166-.725-.091-.366-.158-1.048-.067-.683-.086-1.387-.019-.703-.057-1.142-.039-.438-.157-.914-.119-.476-.198-.739-.079-.263-.158-.632-.078-.369-.208-.711-.131-.342-.376-.808t-.471-.974q-.226-.508-.38-.839-.155-.331-.277-.536-.121-.204-.182-.308-.06-.104-.091-.17-.031-.066-.068-.133-.036-.068-.068-.116-.031-.048-.081-.106-.05-.058-.09-.107-.041-.049-.086-.11-.044-.062-.061-.082-.016-.021-.086-.032-.011.03-.285.715-.273.685-.48 1.295-.207.61-.408 1.126-.2.516-.464 1.141-.526 1.251-.913 2.061-.387.811-.571 1.158-.184.346-.364.635-.181.288-.327.513-.146.224-.31.421-.164.197-.316.352-.152.155-.201.2-.05.045-.229.181-.18.137-.318.232-.137.095-.274.185-.136.09-.321.185-.186.096-.345.175-.16.079-.46.225-.3.145-.783.339-.483.194-.807.286-.324.092-.538.124-.213.031-.928.163-.714.132-1.372.321-.657.19-1.217.368-.559.177-1.393.407-.834.23-1.231.326-.397.097-1.321.316-.924.22-1.323.322-.4.102-.704.173-.305.07-.55.124-.246.055-.766.108-.521.053-.836.061-.316.007-.5.008t-.454-.02q-.269-.022-1.1-.061-.83-.04-1.225-.062-.394-.021-.635-.045-.24-.024-.527-.056-.287-.033-.571-.05t-.77-.029q-.487-.011-.828-.008-.342.003-.62-.001-.277-.005-.588-.023-.31-.018-.568-.03-.259-.012-.933-.068-.675-.056-1.101-.071-.427-.015-.599-.028-.171-.013-.317-.036-.145-.024-.285-.05-.141-.025-.157-.03-.016-.005-.499-.059t-.772-.087q-.289-.033-.526-.069-.237-.035-.25-.034-.013.002-.172-.021-.158-.023-.298-.035-.139-.013-.447-.101-.307-.088-.507-.164l-.291-.111q-.092-.035-.239-.088-.148-.053-.332-.114-.185-.061-.785-.218-.6-.157-.917-.178-.318-.021-.539-.03-.22-.008-.38-.029-.159-.021-.333-.049-.174-.029-.31-.043-.136-.014-.306-.035-.171-.021-.286-.041-.116-.021-.178-.024-.062-.003-.293-.028-.232-.024-.695-.051-.462-.027-.654-.059t-.48-.022q-.287.009-.584.023t-.576.017q-.279.004-.563.009-.284.005-.499.01-.215.005-.382-.013-.168-.017-.37-.126-.203-.108-.277-.148-.075-.041-.316-.17-.242-.129-.495-.22-.254-.09-.483-.139-.229-.049-.534-.087-.304-.039-.531-.075-.227-.036-.322-.07-.096-.035-.217-.089-.122-.054-.219-.094-.098-.04-.329-.097-.232-.057-.4-.085-.168-.029-.312-.086-.143-.056-.5-.118-.358-.062-.911-.109-.03-.014-.249-.094-.214-.016-.397-.02-.184-.004-.393-.026-.21-.023-2.329-5.443-2.12-5.421-2.154-5.386-.033.035-.077.071l-.056.047q-.011.01-.464.487-.452.477-.904 1.084-.452.606-.761 1.151-.309.544-.619 1.314-.31.769-.468 1.241-.159.473-.288.826-.129.353-.225.648-.096.295-.164.56-.068.265-.127.629-.06.364-.167 1.13-.108.766-.15 1.53-.041.764-.05 1.274-.008.51-.043 1.018-.035.507-.057.97-.022.462-.008.841.013.379.028.616.016.236.02.324.005.087.012 1.169.007 1.081.014 1.668.007.586.036 1.175.029.588.059.885.03.296.045.434.015.137.087.649t.234 1.426q.163.913.243 1.389.079.475.125.727.045.253.066.383.02.13.116.952t.213 1.487q.116.664.267 1.43.152.766.258 1.462.107.695.223 1.569.117.874.205 1.517.089.643.172 1.27.082.628.117 1.162.035.533.051 1.023.016.49.019.598.004.107.024.911.02.803.037 1.466.016.662.03 1.043.014.382.036.866.022.485.032 1.159.01.673-.002.989-.012.316-.046 1.02-.034.705-.044 1.105-.01.4-.064.887-.054.488-.081.742-.028.254-.07.532-.042.279-.109.666-.068.387-.124.677-.056.289-.119.578t-.101.501q-.038.212-.149.746-.111.535-.282 1.204-.171.67-.351 1.201-.179.532-.316.923-.138.39-.221.811-.083.421-.099.664-.007.121-.006.367t.027.612q.026.366.057.648.03.282.074.584.043.301.088.657.046.356.077.548.031.191.105.498t.338.667q.015.024.146.041.131.016.34-.023.21-.04.394-.108.185-.068.327-.158.142-.089.316-.25.173-.161.515-.614.342-.453.496-.752.154-.299.271-.687.117-.389.134-.695.017-.306.007-.41-.01-.103-.011-.405-.002-.301.027-.42.029-.12.043-.161.013-.041.087-.089.161.176.195.228.034.052.141.335.106.282.277.993.075.003.149.013.011.001.024.004.06.015.118.034.024.006.05.02.042.019.082.04.035.018.077.049l.038.028q.049.037.103.096.055.059.097.127.043.068.072.143.03.074.038.117v.001l.028.053.017.029.024.034.017.024.039.056.057.087.061.096q.078.121.095.155l.036.062.037.055.051.068.001.001.003.003.017.015.069.042q.133.09.147.103l.048.045.032.003.084.002.075.002q.244.003.376.042.214.076.27.114l.003.003.056-.004.049-.002q.237-.007.353.021.115.029.162.056l.025-.001.037-.002.028-.002.073-.002.074-.001.03-.001.076-.033.035-.016.052-.028.051-.026q.223-.106.258-.112l.048-.01.136-.032.023-.004.051-.011.066-.025.122-.056.07-.031.07-.035.077-.036q.164-.079.211-.091.151-.049.164-.05l.021-.004.005-.001.001-.001.014-.008.059-.042.059-.043.068-.053q.127-.104.184-.137l.004-.002q.123-.081.161-.098l.06-.029.034-.015.012-.005.002-.002.07-.065.058-.055.1-.101q.115-.106.131-.117l.008-.005.091-.067.038-.026.021-.02q.104-.103.108-.106l.025-.02.032-.024q.035-.028.07-.054l.012-.009.032-.034.035-.036.01-.011q.043-.047.089-.092.001 0 .002-.001.116-.087.16-.11l.049-.025q.035-.018.064-.028.045-.015.09-.028.019-.007.036-.009.06-.011.084-.013l.024-.003.014-.002h.033q.113 0 .168.007.056.007.11.022.055.014.107.036.052.021.149.077.133-.11.211-.162.079-.052.122-.07.044-.018.092-.023.048-.004.103.007.056.011.171.146.115.135.119.138.005.002.089.264.084.262.148.817.064.555.11 1.021.092.03.136.049.045.02.086.045.042.025.119.085.01.007.105.099l.039.039.061.06.063.061.03.025h.007l.083-.005.109-.002.006-.001q.029-.003.164-.006.002-.001.119-.008.07-.006.206-.004l.13.004q.028-.001.151.009l.046.001.075-.07.099-.078h.001q.107-.069.119-.074l.043-.021q.107-.048.164-.063.057-.016.115-.023.058-.006.073-.006h.027l.016.001q.09.001.178.013.017-.098.032-.246t.039-.295q.023-.146.038-.203.015-.057.074-.193.058-.137.104-.205.046-.068.118-.123.072-.056.161-.111l.155-.001q.063-.002.267.05.204.052.323.109.119.058.327.112.208.055.205.073l.018.008q-.004.064-.062.218-.057.154-.092.301-.036.147-.035.221.001.074.002.277.118.053.232.118.052.026.182.109l.031.021h.002q.017.011.151.116l.057.045.061.053q.061.052.205.22l.023.027q.005.006.013.019.037.057.072.115l.001.002.038.061q.003.005.01.02l.04.087q.046.1.067.179.132.157.193.233l.123.147.101.124q.104.122.155.181.05.06.051.06l.101.117.068-.057.055-.049q.08-.076.285-.221l.227-.145.239-.125.169-.086.186-.087.19-.08.219-.078.104-.041.145-.057.094-.041.11-.05.065-.03.145-.06.095-.043.154-.07.033-.017.032-.019.118-.1.035-.037q.008-.008.197-.175l.06-.065q.008-.009.171-.162l.018-.019q.064-.221.091-.277l.04-.089.015-.033.016-.033q.105-.22.176-.319t.157-.185q.087-.086.185-.154l.017-.011q.085-.06.146-.088.057-.028.115-.053.045-.021.084-.032.087-.026.175-.047.022-.006.041-.008.111-.014.223-.02h0q.059-.083.211-.185.151-.102.203-.108.051-.006.112.043.061.049.137.172.075.123.148.321l.079.063.047.038q.043.033.061.053.147.159.207.249.061.09.107.188t.077.202q.03.104.034.131.028.147.035.221.007.074.006.13l.002.083v.017l.001.001.031.056.021.035.032.029.036.028.033.024.122.079.037.029.072.052.05.036.098.064.071.048.105.066q.144.084.148.088l.141.09q.145.091.162.105l.116.078.11.075.052.034.015.007.024.009.018.004.045.005.124.005.083.003.052.001q.205-.011.228-.011l.01-.004.012-.006q.143-.106.186-.135.128-.098.182-.132.134-.094.181-.121.138-.088.202-.121.14-.079.207-.115.066-.035.147-.073.133-.065.166-.079l.044-.02.023-.012.057-.043.007-.008.061-.075.066-.095q.084-.114.111-.142l.009-.01.033-.038.004-.004.045-.053q.009-.011.014-.015.084-.075.13-.107t.096-.057q.05-.026.103-.045.052-.019.162-.043.013-.072.051-.342.039-.271.074-.559.034-.288.068-.481.033-.193.08-.335.047-.142.098-.241.051-.098.18-.28.129-.182.183-.206.055-.023.141-.033.086-.01.111-.003.024.006.053.021.029.016.17.17.155-.011.233-.003.077.009.151.031.075.021.144.056.07.035.132.082.062.046.115.103.053.057.095.122t.054.094l.017.037.015.032.039.07.041.071q.072.105.078.116.065.101.075.117.067.1.093.141.07.104.09.143l.051.091q.061.111.1.187.06.115.094.185.049.094.094.185.05.093.094.177.067.12.067.121l.047.065.017.02.002.002.029.02.105.068.124.083h0q0 0 0 0 .123.09.128.094l.116.089.103.081q.129.096.129.097.13.098.147.114.125.1.13.105l.088.076.041.031.042.027.101.056.119.061q.152.076.162.082.153.081.209.118.146.088.214.139.133.097.147.108.132.101.165.13.125.101.131.107l.089.076.08.064.095.072.077.058.101.075.057.043.114.079.09-.041q.168-.092.197-.102.155-.073.196-.087.156-.065.237-.089.156-.048.157-.048.145-.042.181-.05.147-.041.163-.044l.142-.037.122-.035.098-.035.089-.041.063-.035.05-.037.108-.099q.114-.1.144-.124.109-.096.183-.155.117-.091.203-.15l.07-.046q.122-.081.211-.136l.089-.055.08-.05.067-.041.043-.025.014-.007q.096-.058.147-.08.051-.022.092-.034l.036-.01q.03-.009.052-.012.039-.008.079-.013l.01-.001q.284-.478.428-.76.143-.282.288-.51.145-.228.371-.546.225-.318.562-.755.338-.437.634-.595.079.083.182.477.103.393.192.745.089.351.236.656h0q.173.01.257.032.084.022.139.048.144.069.208.115.064.047.103.088l.084.084q.105.114.116.128.112.114.215.22.11.11.112.111.114.109.138.136.112.108.146.148.102.106.155.173l.098.122q.087.114.113.156l.048.07.003.004.096.081.077.057q.132.085.15.1.133.093.195.138.062.044.087.065l.09.068.067.049.021.012.028.011.055.013.141.02q.176.018.189.02.204.021.297.031.094.01.184.029.177.033.181.035l.087.021.043.008.037.003.048-.001.031-.008.163-.063q.256-.114.286-.121l.177-.064.224-.072.09-.023q.172-.051.232-.06l.097-.018.015-.003.078-.02.01-.002.029-.011.017-.008q.126-.1.154-.121l.119-.109q.121-.111.124-.113l.09-.082.041-.038.058-.057q.112-.112.155-.149.115-.106.129-.115.115-.088.146-.105l.091-.059q.12-.078.14-.088.129-.077.163-.093l.085-.046.116-.064.11-.058.02-.009.047-.053.084-.098q.088-.095.092-.098l.093-.09.06-.053.06-.049.027-.021.02-.016.008-.006.021-.019.054-.053.068-.071.08-.081.064-.063q.091-.087.115-.105l.056-.049.055-.048q.073-.088.115-.128.043-.039.05-.044l.003-.012q.013-.054.029-.106.006-.022.017-.047.016-.037.034-.074.015-.033.042-.072l.024-.035q.031-.046.081-.098.05-.052.109-.096.058-.043.122-.076.065-.033.203-.077.076-.113.159-.228.084-.115.155-.163.072-.047.166-.062l.011.042q.017.003.014.446.105.047.154.078.048.03.092.067.045.037.084.079.039.042.105.136.008.009.083.122l.017.025q.007.011.066.138l.029.056.002.003q.01.013.07.132.008.014.034.085.026.072.04.147.014.075.015.227v.026q.054.139.079.211.054.148.097.27.148.027.219.053.072.026.137.063.065.038.123.087.058.048.107.106.049.058.077.106l.036.061q.012.021.017.034.044.114.046.12l.012.017q.085.104.093.116.072.09.104.138.072.106.106.158.034.052.053.087.041.07.061.105.019.034.057.101l.051.011.19.026.204.039.16.047q.073-.044.148-.087.05-.03.098-.056.048-.027.148-.079.039-.022.095-.049.057-.026.175-.079.071-.032.123-.051.052-.019.16-.058l.046-.017h.001l.05-.045.058-.055.07-.077q.096-.107.153-.152.056-.045.134-.089l.017-.01q.031-.017.04-.02.099-.04.139-.051l.035-.009q.029-.008.049-.011l.077-.011q.01-.001.017-.001.05-.003.1-.002.106-.244.333-.657.227-.414.379-.667.151-.253.228-.396.077-.143.119-.241.043-.098.081-.21.039-.112.128-.321.09-.209.162-.319.072-.111.111-.14.039-.029.094-.049.055-.019.107-.027t.062-.002q.01.006.141.288.13.282.198.541.067.259.196.76.129.5.228.855.099.356.191.58l.11.272q.159.069.233.115.073.045.139.101.066.056.18.186l.04.045.08.1.099.148.021.028q.002.002.064.094l.048.062.068.086q.052.044.157.161l.062.072q.043.047.142.183.008.009.085.127l.078.089.015.014.008.007.086-.07.07-.055.074-.06.085-.064.019-.015.004-.004.047-.042.009-.009.099-.105.073-.08.039-.042q.159-.162.166-.168l.011-.008.025-.035q.054-.081.074-.107l.035-.04.013-.016.006-.007.018-.021.013-.017.012-.015.017-.02.035-.044.016-.019.017-.023.066-.098.009-.014.011-.016.049-.071.051-.075.009-.013.034-.044.046-.062.042-.057.054-.073q.039-.052.08-.09l.01-.009.006-.007.015-.014.012-.012.001-.001.005-.006.013-.012.101-.1.026-.036.003-.005h0l.008-.02.014-.038.024-.066.022-.061.015-.039.015-.04.017-.068.004-.013q.051-.223.066-.257l.008-.02.01-.025.007-.015.005-.013q.076-.19.085-.205l.012-.025.027-.058.01-.02q.087-.186.146-.27.059-.083.112-.136l.045-.045q.047-.047.091-.078.043-.032.087-.061.037-.026.071-.042.062-.031.126-.059.025-.012.049-.018.079-.025.161-.044.013-.003.025-.004.095-.013.191-.018h.001"/>
    <path fill="#f9f57f" stroke="#f9f57f" stroke-width=".5" d="m-78.638 400.625.205-.137q.203.095.28.147.076.053.139.085.062.032.554.523.491.492.782.907.291.416.411.621.121.206.535.939.414.732.643 1.191.23.459.389.934.159.474.394 1.162.236.688.331 1.074.096.387.214.898.119.51.136.639.018.129.036.806.018.676.002.876-.016.2-.04.42-.024.221-.174.685-.149.464-.166.496l-.432.862q-.415.83-.772 1.491-.357.661-.541 1.006-.183.346-.476 1.086-.293.741-.539 1.562-.245.822-.413 1.376-.168.555-.279.899-.11.343-.304 1.138-.194.796-.289 1.33-.095.533-.197 1.268-.103.734-.193 1.267-.091.534-.215 1.211t-.196 1.213q-.072.537-.182 1.251-.11.714-.141 1.471-.03.757-.02 1.043.011.285.108.971.098.685.157 1.034.06.35.126.721.067.372.103.622.037.25.053.684.017.434-.085.669-.101.236-.217.47-.116.233-.144.281-.028.048-.115.206-.086.158-.264.537-.178.38-.316.67-.138.291-.351.734-.213.442-.494 1.054-.282.613-.539 1.243-.257.63-.378 1.001-.121.37-.188.612t-.154.59q-.088.348-.207.949-.12.601-.204 1.042-.085.441-.238 1.711-.153 1.27-.197 2.055-.045.785-.074 1.406-.029.621-.039 1.306l-.019 1.187q-.009.503-.001 1.375.007.872.09 1.79.082.918.166 1.564t.19 1.323q.106.678.221 1.271.115.594.194.979.08.385.195.813.115.428.368 1.389.253.961.442 2.407.188 1.446.271 2.73.083 1.283.147 2.286.065 1.002.105 1.951.039.948.097 1.918.059.971.116 2.333.058 1.362.052 2.086-.006.724-.023 1.315-.018.591-.031.942-.014.351-.043 1.179-.03.829-.053 1.452-.023.624-.038.976t-.05.839q-.036.486-.128 1.26-.092.775-.2 1.54-.107.765-.364 1.746-.257.982-.447 1.6-.19.619-.353 1.197-.162.578-.416 1.464-.254.885-.449 1.451-.195.566-.297.843-.103.278-.432.985-.328.707-.657 1.286-.329.578-.733 1.364-.403.786-.716 1.34-.313.553-.782 1.394-.469.84-.668 1.256-.2.415-.533 1.082-.334.667-.586 1.075-.252.408-.444.688-.191.28-.339.482-.149.201-.448.573-.299.371-.786 1.024-.487.654-.725.966-.238.313-.487.613t-.819.981q-.57.681-1.003 1.122-.432.44-.626.587-.193.146-.397.288-.204.142-.362.248-.158.106-.329.209-.171.104-.226.14-.055.036-.484.344-.428.308-.893.635-.464.327-.686.49-.222.162-.394.288-.172.126-.535.335-.364.209-.746.349-.383.14-.544.172-.16.031-.411.057-.25.026-.551.052-.3.026-.45.007-.15-.019-.162-.019-.013-.001-.185-.025-.172-.025-.34-.032-.168-.007-.287-.009-.12-.001-.224-.006-.105-.004-.301-.026-.195-.022-.494-.03t-.427-.007q-.129.001-.152-.002-.023-.004-.184.001-.161.006-.357.03-.195.024-.399.029-.204.005-.381.004-.177-.002-.187-.003-.009-.001-.377.029-.367.03-.683.074-.316.044-.455.071-.138.027-.277.039-.138.013-.725.03-.474.157-.486.163-.012.006-.299.052-.286.045-.636.075-.351.03-.717-.013-.367-.042-.459-.044-.092-.001-.225 0t-.29-.009q-.156-.011-.431-.044-.274-.034-.543-.053-.269-.018-.628-.084-.359-.067-.687-.119-.329-.053-.521-.063-.193-.009-.371-.037-.179-.027-.361-.087t-.427-.13q-.244-.07-.443-.118-.199-.048-.318-.093-.118-.044-.271-.121-.153-.078-.445-.19-.293-.111-.597-.252-.304-.14-.477-.213-.174-.073-.249-.095-.076-.022-.207-.053t-.351-.116q-.22-.086-.525-.151-.305-.065-.544-.115-.238-.049-.318-.08-.08-.032-.406-.116-.079-.007-.297-.066-.218-.058-.372-.112-.155-.054-.274-.087-.119-.034-.213-.091-.094-.057-.166-.121-.073-.065-.123-.127.072-.064.165-.106.093-.041.311-.101.218-.06.392-.123.174-.063.347-.152.174-.089.843-.263.67-.175 1.006-.267.337-.092.597-.193.26-.101.601-.287.341-.185.485-.29.144-.105.667-.334.523-.229.846-.391.324-.161.63-.382.306-.222.502-.375.196-.155.441-.3.245-.146.367-.227.123-.082.143-.093.02-.012.26-.199.24-.187.434-.343.195-.156.355-.277.16-.12.441-.343.282-.223.409-.312.127-.088.237-.146.109-.058.153-.073.045-.015.385-.273.341-.258.541-.444.201-.186.406-.368.204-.182.317-.293.112-.111.185-.191.074-.079.105-.109.031-.029.326-.398.295-.368.523-.71.229-.342.459-.723.23-.381.43-.744.199-.364.377-.729.178-.364.296-.656.117-.292.155-.404.039-.113.246-.656t.323-.848q.116-.305.156-.472.041-.167.195-.758t.333-1.606q.179-1.015.245-1.542.066-.527.127-1.026.062-.499.073-.578.011-.079.051-.498.041-.419.071-.644.029-.225.045-.297.016-.071.076-.485.044-.273.063-.421.019-.147.031-.39.372-1.47.74-2.942.368-1.472.728-2.947.359-1.476.701-2.959.343-1.483.656-2.979.312-1.496.581-3.011.269-1.516.483-3.056.213-1.54.37-3.105.156-1.565.272-3.149.116-1.583.224-3.169.109-1.587.252-3.158.143-1.572.341-3.119.197-1.548.497-3.051.299-1.503.639-2.988.339-1.485.691-2.966.351-1.481.677-2.973.326-1.493.618-3 .293-1.507.588-3.012.295-1.506.629-2.994.333-1.487.831-2.902.497-1.414 1.091-2.785.593-1.371 1.274-2.702.681-1.332 1.391-2.65.711-1.319 1.394-2.65.683-1.33 1.303-2.689.62-1.359 1.166-2.751.547-1.391 1.028-2.812.482-1.421.916-2.864.434-1.442.838-2.897.404-1.456.793-2.918.388-1.463.768-2.93.38-1.466.757-2.934.376-1.468.403-1.572l.101-.049q.3-.135.445-.202.144-.068.233-.122.289-.158.427-.237.138-.078.265-.163"/>
    <path fill="#f9f57f" stroke="#f9f57f" stroke-width=".5" d="M-80.138 401.609q-.119.495-.484 2.018-.364 1.522-.727 3.054-.363 1.531-.724 3.071-.362 1.54-.722 3.085-.361 1.546-.721 3.094-.359 1.549-.719 3.099l-.72 3.102q-.359 1.551-.719 3.102l-.72 3.102q-.359 1.551-.719 3.102l-.72 3.102q-.359 1.551-.719 3.103l-.72 3.102q-.359 1.551-.719 3.102l-.72 3.102q-.359 1.551-.719 3.102-.36 1.552-.72 3.103-.359 1.551-.719 3.102l-.72 3.102q-.359 1.551-.719 3.102t-.72 3.103q-.359 1.551-.719 3.103-.359 1.551-.719 3.104-.359 1.553-.717 3.108-.359 1.555-.715 3.115-.357 1.56-.71 3.13-.353 1.57-.701 3.155-.348 1.586-.689 3.191-.341 1.606-.675 3.234-.333 1.627-.661 3.27l-.656 3.287q-.328 1.643-.66 3.274-.348.353-.402.387-.054.034-.136.104-.083.07-.192.158-.109.087-.204.153-.095.065-.205.15-.11.085-.276.221-.165.136-.326.259-.161.124-.377.305t-.537.44q-.322.26-.632.502-.311.241-.484.357-.173.115-.316.201-.144.086-.449.267-.305.181-.605.335-.299.154-.6.34-.3.185-.789.468-.489.283-.618.324-.13.04-.312.115-.182.075-.543.234-.362.158-.799.344-.436.185-.71.218-.274.033-.701.093-.427.06-.977.136-.55.076-.827.068-.278-.007-.417-.011-.139-.005-.356-.001-.218.003-.567-.011-.35-.015-.877-.123-.526-.109-1.024-.291-.498-.181-.852-.257-.354-.075-.696-.106-.342-.031-1.055-.097-.713-.067-1.585-.198-.871-.131-1.368-.195-.496-.063-.73-.1-.234-.036-.524-.103-.289-.066-.439-.113l-.391-.12q-.241-.075-.517-.151-.275-.076-.683-.204-.407-.127-.813-.333-.406-.205-.699-.377-.293-.172-.873-.543-.581-.37-.94-.647-.36-.277-1.03-.902t-1.149-1.147q-.479-.523-.904-.991-.426-.468-.82-1.119-.393-.652-.361-.685.032-.033.031-.059.165-.083.241-.1.075-.018.382-.02.307-.003.616.012.308.015.394.026.087.012.178.025.092.013.227.027.134.014.377.018.243.003.699-.008.456-.011.973-.069.518-.058.684-.102.165-.045.418-.099.253-.053.765-.221.512-.167.939-.378.426-.211 1.227-.625.802-.414 1.345-.707.543-.294.858-.508.315-.214.51-.36.195-.147.648-.489.293-.013.294-.014.309-.04.476-.085.273-.077.366-.12.282-.119.386-.172.274-.127.392-.2l.125-.079q.257-.153.34-.217.248-.175.427-.327.219-.199.287-.268.235-.215.343-.317.109-.102.111-.105.227-.202.329-.294l.124-.105q.252-.19.263-.2.285-.19.416-.278.131-.087.182-.126.293-.19.54-.354.29-.184.454-.315.3-.239.435-.352.135-.113.263-.236.257-.238.371-.361.245-.249.339-.36.231-.249.329-.377.216-.266.243-.3l.157-.061q.201-.085.34-.159.217-.12.301-.173.204-.122.398-.248.15-.11.224-.164.073-.053.118-.089.108-.083.215-.167l.073-.055q.027-.017.237-.177.105-.079.28-.223.142-.109.347-.265.201-.165.41-.343.043-.033.124-.114.082-.081.243-.25l.095-.094.079-.086q.078-.086.231-.264.084-.093.168-.194t.261-.315q.149-.184.308-.382l.227-.291q.12-.121.139-.142.145-.157.208-.228.203-.218.297-.32.094-.103.157-.178.209-.229.307-.339.097-.11.133-.159.255-.305.373-.459.296-.36.38-.484.337-.425.403-.545.309-.444.343-.52.282-.46.323-.566.248-.474.259-.511l.163-.386.06-.202q.175-.492.181-.542l.043-.199.074-.346q.09-.542.089-.651l.016-.221.025-.291.048-.528v-.125l.036-.389q.083-.68.107-.989.072-.517.069-.554l.015-.266.082-.134q.132-.244.177-.376.045-.131.051-.164l.041-.171q.065-.26.081-.401l.021-.167.011-.095q.038-.109.073-.218.006-.014.031-.112t.04-.198q.014-.101.039-.304.016-.144.025-.256.008-.112.024-.344.014-.208.021-.342.008-.134.023-.424.01-.135.018-.246.008-.111.016-.228.008-.118.024-.375.009-.154.014-.259.006-.106.016-.327.008-.161.013-.274.005-.112.01-.232.005-.119.011-.25.006-.131.016-.43.004-.057.004-.152l-.002-.192-.002-.198q0-.102-.001-.211l-.002-.231q-.001-.121-.003-.26l-.002-.303q-.002-.165-.003-.369-.002-.204-.009-.737-.007-.184-.016-.301-.008-.116-.017-.239l-.019-.256q-.01-.134-.021-.287-.011-.153-.041-.518-.002-.059-.02-.185-.019-.126-.038-.256-.02-.131-.066-.41-.021-.131-.032-.184.126-.262.165-.402.039-.14.05-.242.036-.278.034-.364.004-.288.003-.428-.002-.14-.003-.148-.021-.296-.03-.433-.01-.137-.023-.271-.012-.134-.019-.162-.081-.469-.14-.804.078-.208.102-.316.025-.108.046-.33.009-.143.007-.403.002-.13 0-.375.001-.027-.01-.268 0-.034-.01-.17-.011-.135-.037-.416-.013-.159-.03-.294-.017-.135-.054-.424-.025-.192-.043-.322-.018-.13-.06-.409-.019-.146-.065-.411-.013-.1-.036-.232-.024-.131-.037-.209l-.002-.11q.002-.302.002-.438v-.262q0-.128-.003-.23.003-.311.003-.451v-.27q0-.13-.005-.304-.012-.325-.018-.471-.007-.146-.013-.284-.006-.137-.017-.228-.025-.346-.039-.498l-.025-.294q-.013-.141-.021-.207-.021-.308-.041-.537-.035-.391-.051-.561-.016-.169-.043-.449.014-.236.024-.45.006-.305.009-.44.003-.136.005-.262l.005-.309.002-.134q.15-.193.21-.299.06-.106.105-.22.044-.113.071-.232.028-.119.04-.261l.005-.057q.003-.044.003-.057l-.001-.056q-.001-.191-.004-.216-.011-.179-.021-.255-.027-.23-.041-.339-.014-.11-.019-.143-.015-.163-.022-.241-.007-.079-.014-.149l-.005-.142V444.143q0-.108-.001-.126.037-.351.053-.501.015-.151.03-.289.014-.138.04-.391.024-.298.036-.435.011-.137.027-.377.013-.344.018-.493.005-.149.01-.285.004-.136.012-.376.007-.287.01-.419.004-.131.009-.368.004-.275.006-.402t.005-.366q.001-.264.001-.386 0-.123-.001-.307.008-.266.011-.39.004-.124.007-.303.006-.28.008-.411.002-.13.002-.268l.007-.27q.206-.225.292-.351.085-.126.152-.264.066-.137.112-.283.046-.145.062-.245l.025-.152q.008-.049.008-.081l.005-.087.007-.146q.027-.236.027-.237.04-.319.052-.464.036-.312.058-.586l.012-.212q.025-.254.045-.463.034-.319.049-.469.015-.149.028-.281.043-.272.079-.502.05-.318.087-.562.051-.32.098-.62l.084-.514q.027-.164.031-.2.061-.335.089-.495.028-.159.037-.23.059-.328.085-.484.027-.155.035-.219.066-.354.122-.668.066-.34.097-.503.031-.162.033-.181.063-.362.09-.538.069-.35.082-.428.084-.349.099-.42.098-.343.106-.374.117-.306.144-.379.138-.327.202-.485.155-.341.272-.604.129-.296.152-.361l.121-.291q.14-.338.256-.625.118-.31.195-.525.114-.326.143-.424l.074-.215.03-.077.063-.131.07-.136q.17-.274.18-.294.175-.294.238-.408.183-.298.288-.478.179-.296.283-.477.177-.298.3-.518.162-.292.223-.409.165-.29.237-.428.175-.315.194-.357l.084-.153q.178-.307.183-.317.181-.287.266-.423l.063-.095q.2-.265.203-.27.238-.291.381-.475l.021-.027q.253-.272.258-.28l.234-.273q.22-.26.239-.291l.068-.102.076-.107.192-.257.058-.088.005-.007.04-.049.159-.167.184-.191.087-.093.231-.217.176-.184.117-.128q.225-.231.379-.434l.049-.076.136-.184.086-.116.184-.209q.229-.274.307-.375l.211-.249q.215-.254.287-.351l.113-.143q.202-.247.299-.379l.101-.133q.191-.239.265-.338.211-.262.219-.273l.21-.238.153-.172.222-.225.169-.187.13-.158.086-.105q.202-.23.213-.247.174-.228.212-.284l.164-.22q.206-.248.219-.265l.175-.213.145-.154.203-.207.149-.148q.225-.195.25-.221l.13-.119q.215-.198.255-.237.192-.165.24-.214.192-.179.365-.345.219-.202.38-.35.19-.159.281-.237.092-.077.15-.128.091-.074.179-.147.286-.201 1.327-.98.238-.138.316-.186.244-.137.449-.254.259-.15.385-.224l.131-.076.238-.152q.296-.178.527-.321.256-.162.496-.315.269-.165.438-.269.315-.167.416-.222.3-.136.496-.227l.118-.053q.318-.11.344-.12.339-.1.357-.107.359-.093.618-.161.329-.079.434-.109.328-.075.573-.144.291-.087.432-.132.141-.045.349-.137.031-.013.063-.026ZM1.188 438.076v.119q0 .01-.015.187-.015.178-.028.322-.012.144-.022.269l-.021.24q-.009.115-.023.289-.033.462-.045.639-.013.177-.023.327-.011.149-.02.286-.01.137-.01.205-.051.82-.066 1.082l-.026.455-.02.352q-.01.158-.018.301-.008.143-.01.299-.01.377-.012.546-.003.17.001.205.001.442.003.63.002.187.026.496.05.327.096.474.082.297.144.436.063.139.089.175.162.222.217.273 0 .326.002.547-.002.339-.002.629V448.828q0 .156.004.293-.001.858 0 1.129.001.272.001.469.001.197.001.355.001.158.001.295.001.137.001.266.001.128.005.184.014.533.021.731l.011.363q.006.165.016.462l.018.369q-.126.191-.183.318l-.085.194q-.076.209-.11.312-.034.103-.036.111-.062.24-.086.373-.049.256-.07.375-.02.12-.043.282-.034.264-.049.387-.015.124-.018.181-.028.226-.033.298-.031.272-.044.397-.013.125-.023.247-.031.284-.044.413-.013.13-.024.282-.023.251-.027.371-.016.25-.017.355-.014.291-.019.423-.005.132-.008.319-.006.345-.007.488l-.002.27-.002.247q-.001.12.001.141-.002.279-.002.405t.001.336q.005.258.009.382l.004.125q.037.468.052.647.014.178.027.329l.023.29q.011.138.014.155.019.311.028.366.03.399.054.656l.025.357q.037.523.058.675.026.625.051.944l.012.29q.019.497.04.637.023.476.039.558l.025.287.031.304q.061.488.096.625.07.483.098.579.119.715.204 1.178.084.502.113.611.067.487.09.575.083.6.135.889l.035.254.053.429.068.442.044.186.009.031.017.059q.034.142.081.279.011.037.029.065.084.155.186.298l.008.01.038.035q.082.085.103.104.023.146.035.221.012.074.039.227.003.025.023.129.019.103.04.211.02.108.068.342.028.14.054.246.025.107.052.22.027.114.09.365.024.104.056.213t.066.224q.034.116.111.374.001.007.036.107.035.1.072.202.037.102.121.319.025.077.072.178.047.101.146.309l.064.122q.008.143.019.214.011.071.046.21.007.038.035.139.027.101.085.311 0 .001.032.101.031.1.064.203.033.104.069.215.035.112.117.363.032.103.064.197.031.095.064.194.033.1.069.21.036.11.121.364.044.135.105.319.04.169.082.337.041.169.066.241.082.34.123.496.041.156.048.173.098.319.157.481.098.291.142.387.106.259.127.292l.014.024q.06.107.129.208.004.006.008.011.19.206.226.231.019.088.039.177.02.098.048.232.025.111.066.267.004.021.063.216l.036.123q.008.035.051.138.043.103.16.293l.036.06h0l.034.065.021.042.034.082q.019.05.129.253l.088.154q.013.027.156.224l.007.048.014.108.013.112q.003.029.033.149.031.119.082.231.052.112.191.316l.02.029.036.052.053.077.159.385.092.222q.044.106.087.208.042.103.057.129.099.21.099.211.1.212.106.222.109.218.164.322.055.105.065.118.137.226.202.332.065.105.127.194l.102.156q.116.2.165.268l.01.016q.118.207.122.213l.079.147q.105.196.123.226.106.218.129.258.112.232.165.333l.076.16.06.129q.105.239.128.287.099.251.111.272.113.236.196.398.122.235.233.44l.106.182.089.158.093.178.098.193.064.129q.109.243.113.25l.068.123.084.162.08.153q.121.242.123.245l.13.236h0l.001.001q.134.231.227.384.135.22.144.231.151.212.259.362l.137.195.107.138.136.177.11.135q.086.125.131.19.044.065.139.202.092.129.154.213.061.084.194.261.063.084.122.156.059.073.183.222.104.12.233.261.06.069.202.192.112.092.199.143.087.052.273.13.019.008.051.016.062.017.124.031.071.017.097.019l.015.015q.153.178.192.213.176.177.2.195.192.166.386.313.202.128.298.174l.083.037q.204.093.239.102l.217.069q.188.041.307.051l.086.007.064.005q.022.002.031.001h.01l.098-.002.035.015.102.044.003.001q.054.024.071.029.165.05.204.056l.109.019q.022.004.039.005.078.006.156.008.566.395.88.612.315.218.426.277.111.06.125.065.014.005.105.05.092.044.308.132.215.089.409.18.195.091.41.175.215.083.382.135.166.052.578.114.411.062.97.08.559.017.705.014.145-.003.434-.016.289-.013.683-.056.395-.042.67-.116.276-.074.396-.117.121-.044.387-.135.266-.091.666-.249.401-.157.846-.383.445-.226.846-.506.401-.279.632-.411.231-.131.306-.182.076-.052.157-.111.081-.06.268-.158.097.422.075.717-.021.295-.097.615-.075.319-.156.596-.082.276-.127.479-.045.203-.214.644-.169.441-.324.66-.155.219-.255.366-.1.148-.156.244-.056.096-.146.265t-.223.381q-.133.212-.404.623-.272.41-.608.844-.337.433-.415.527-.079.093-.147.18-.068.086-.204.241-.136.156-.234.255-.097.099-.315.328-.219.229-.436.449-.217.221-.332.325-.116.104-.354.301-.238.196-.662.507-.424.31-.727.557-.303.248-.868.707-.565.46-.978.735-.413.276-1.088.675t-1.125.626q-.45.227-.966.419-.516.192-1.072.316t-1.075.182q-.52.058-.733.095-.214.036-.885.067-.672.031-.991.035-.319.003-.99-.021-.672-.024-1.307-.105-.635-.082-.692-.084-.057-.002-.22-.025-.162-.023-.878-.22-.717-.196-.891-.249-.173-.053-.378-.138-.205-.086-.514-.239-.308-.153-.408-.203-.1-.05-.341-.168-.242-.119-1.18-.669-.937-.551-1.028-.616-.09-.064-.303-.235-.212-.172-.44-.383-.227-.211-.43-.385-.202-.173-.615-.576-.413-.404-.936-1.071-.524-.667-.954-1.307-.431-.64-.788-1.204-.357-.564-.783-1.265-.427-.7-.758-1.203-.331-.502-.684-.958-.353-.457-.366-.469-.025.214-.024.218 0 .005.014.071.015.067.043.246.029.18.086.401.057.222.101.454.045.233.106.589.062.355.181.921.119.566.159.791.041.225.15.689.109.463.146.57.037.108.062.198.026.091.073.236.047.146.099.329l.15.521q.098.337.273.843.175.506.293.812.117.305.247.601.131.297.389.778.259.482.547.921.288.439.649.931.361.492.56.757.199.265.511.621.313.355.714.702.401.347.779.72.377.374.449.487.072.112.137.234.064.121.056.204-.314.08-.342.077-.029-.003-.163-.014-.135-.012-.263-.015-.128-.004-.186-.003-.058 0-.158-.012t-.406-.037q-.307-.025-.912-.098-.606-.074-.806-.144-.201-.07-.485-.132t-.627-.122q-.344-.06-.516-.105-.173-.046-.358-.111-.184-.065-.343-.113-.159-.048-.222-.064-.064-.016-.297-.069-.233-.054-.38-.095-.148-.04-.338-.115-.19-.075-.59-.253-.4-.177-.639-.304t-.528-.338q-.288-.21-.722-.582-.433-.371-.858-.704-.425-.333-1.099-.913-.673-.579-.93-.842-.257-.264-.727-.76-.469-.496-.959-1.13-.491-.635-.744-1.028-.254-.394-.673-1.104-.42-.709-.771-1.385-.352-.676-.635-1.336-.141-.33-.336-.796-.195-.467-.443-1.071-.247-.603-.505-1.298-.258-.696-.527-1.482-.268-.787-.437-1.303-.169-.516-.275-.884-.106-.368-.198-.718-.091-.351-.302-1.096-.212-.745-.483-1.636-.271-.891-.351-1.188-.081-.296-.151-.578-.07-.283-.206-.93-.135-.648-.303-1.727-.169-1.079-.258-1.585-.089-.507-.176-1.011-.088-.504-.183-1.126-.094-.622-.151-1.091-.057-.469-.142-1.225-.085-.756-.137-1.386-.051-.63-.1-1.387-.049-.757-.063-1.312-.014-.554.025-1.084t.102-1.083q.063-.554.135-1.489.071-.936.088-1.799.017-.862.016-1.516-.002-.654.013-1.177.015-.524.029-.735.013-.212.047-.668.033-.457.131-1.124.097-.668.16-1.221t.151-1.122q.087-.569.155-.895.068-.326.196-.957.129-.63.292-1.582.162-.952.266-1.625.103-.673.191-1.382.089-.708.151-1.283.063-.574.112-1.235.049-.662.114-1.436.065-.775.066-1.383.001-.608.009-1.724.007-1.115.036-1.927.03-.811.015-1.194-.015-.383-.042-.891-.027-.507-.042-.765-.015-.258-.075-.973-.06-.714-.194-1.569-.133-.855-.174-1.153-.041-.298-.112-.632-.07-.334-.177-.757-.107-.422-.274-1.012-.166-.589-.343-1.058-.177-.469-.308-.77-.131-.301-.222-.487-.09-.185-.177-.361-.086-.176-.351-.635-.264-.459-.55-.899-.286-.44-.603-.946t-.35-.563q-.033-.057-.069-.145-.036-.089-.048-.154-.012-.065-.015-.146-.002-.08-.004-.351-.001-.271.006-.37.007-.098.014-.338.007-.24.013-.769.006-.53-.039-1.358-.044-.827-.059-.944-.015-.117-.027-.241-.011-.124-.029-.312-.018-.188-.061-.53-.042-.342-.109-.934-.067-.592-.178-1.63-.112-1.039-.302-2.057-.191-1.018-.351-1.551-.161-.533-.259-.887t-.331-1.101q-.232-.748-.47-1.574-.238-.826-.307-1.066-.07-.24-.199-.688-.13-.447-.222-.732-.092-.286-.219-.619-.126-.333-.399-1.057-.272-.724-.409-1.078-.137-.354-.22-.525-.084-.171-.337-.696-.253-.526-.554-1.146-.301-.62-.501-.984t-.36-.718q-.159-.355-.478-.989-.319-.635-.475-.885-.156-.25-.247-.494t-.209-.701q-.119-.456-.125-.758-.007-.301.012-.457.018-.155.039-.306.02-.151.088-.463.067-.312.126-.55.06-.237.112-.413.052-.175.101-.319.05-.144.115-.31.064-.165.149-.373.085-.207.23-.514.145-.308.385-.707.239-.4.353-.57.114-.17.277-.364.163-.194.545-.554.383-.36.841-.679.458-.318.887-.583.429-.264.737-.45.309-.187.813-.394.275.116.383.145.278.086.422.121.317.083.411.101.282.072.349.086.318.087.483.125.244.063.35.087l.258.075.171.064.072.031.022.013q.204.133.26.164l.099.058.118.08.117.093.229.219q.216.194.225.201.225.214.374.336.262.213.356.273.249.176.35.233.282.169.364.205.234.117.384.173l.193.071.077.094.197.257q.215.261.267.311l.22.24q.226.22.351.315.125.095.186.128l.091.053q.279.163.43.223.15.059.225.076l.148.053.01.004.047.019.02.009.124.075.138.086.217.147.197.13.218.148q.241.163.312.204.226.145.262.165l.232.144.186.126q.229.174.235.178l.099.08q.006.249.023.372.018.123.05.244.032.12.125.352.009.028.153.318.005.011.176.274l.042.066q.081.126.301.374.111.125.242.231.131.106.423.274l.017.016q.013.014.269.225.078.064.366.232.069.042.422.177.06.025.096.032.213.219.222.227.221.234.246.258.222.252.227.258.198.244.223.273l.207.265q.216.294.232.313l.21.281.122.167.119.209.157.294.103.185q.168.324.225.405l.12.187q.181.274.309.417.219.24.403.392l.211.163.034.034.022.033.052.089.108.206.131.236.078.13q.178.303.348.508l.09.099.169.19.009.009.018.032.088.197q.152.319.193.377l.167.256q.204.253.232.278l.025.025.069.142.083.169.142.273.107.162.067.097.04.072.023.046.034.072.051.125.062.172.058.165.049.147q.104.344.154.453l.043.106.082.227q.115.323.13.352l.071.173.067.189q.108.331.13.38.115.309.122.323l.064.151q.112.304.117.315l.021.047.004.016.063.274.052.221q.08.343.12.445l.096.269.091.218.032.069.072.169.08.171.034.068.02.042.067.159.017.041.039.105q.107.323.111.33l.111.254.003.005q.105.305.112.319l.034.073.02.092.024.134q.066.347.067.348l.025.081q.089.308.155.454.066.146.072.154l.037.082v.002l.026.168.024.275.025.251q.031.333.062.481l.055.286q.074.325.138.498l.073.199.028.073.037.135.044.192.052.265.049.296.055.311q.062.317.063.321l.064.27.083.308.034.103.019.069.03.141.021.176q.027.353.032.382l.029.262.024.312.019.232.015.248.011.213q.012.312.019.358l.021.256q.026.341.034.388.031.32.032.324.031.316.058.506l.049.336q.041.315.071.474l.042.244q.047.319.079.467.045.236.046.239.05.289.051.293l.044.235q.024.221.025.228.019.21.03.325l.006.292q.002.096.003.121"/>
    <path fill="#f9f57f" stroke="#f9f57f" stroke-width=".5" d="M-20.854 401.442q.292.324.494.627.201.304.332.655.132.351.177.555.045.203.063.323.018.12.129.67.112.55.165.88.053.331.068.527.015.196.018.491.002.295-.07.78-.072.485-.263 1.015-.191.53-.379.865-.189.336-.351.558-.162.223-.688.71-.526.487-.867.749-.342.263-.908.579-.566.316-1.14.548-.574.232-.965.392t-.913.333q-.523.173-.836.253-.313.079-.869.188-.555.109-1.236.198-.68.09-1.119.135-.439.045-.749.084-.31.039-.917.141-.606.102-1.018.167-.411.066-.803.113-.392.048-.583.068-.192.019-.675.069-.483.049-1.492.102-1.008.052-2.029.067-1.021.015-2.046.056-1.025.042-1.508.076-.483.034-1.364.126-.88.091-1.921.175-1.04.085-1.702.123-.662.038-1.291.046-.63.008-1.124.011-.494.004-1.209.012-.714.007-1.209.01-.495.003-1.908-.044-1.413-.048-2.184-.097-.772-.049-1.247-.083-.475-.034-.887-.058-.411-.025-.938-.05-.527-.025-.804-.036-.278-.01-.948-.055-.671-.045-1.215-.099-.545-.054-1.195-.137-.65-.083-1.253-.186-.604-.103-.943-.169-.34-.067-.885-.145-.546-.078-1.876-.102-1.33-.023-2.009-.018-.68.004-.985.022-.304.018-1.18.113-.876.095-1.684.129-.809.033-1.221.029-.413-.004-.62-.004-.207-.001-.696-.02-.489-.02-.985.006-.496.027-.728.052-.232.024-.437.037-.206.012-.37.03t-1.613-12.45l.239-.096q.312-.142.461-.213.15-.07.218-.113.294-.161.433-.241.14-.079.258-.159.297-.192.439-.286.141-.095.196-.141.246-.181.456-.341.277-.185.478-.324.231-.162.327-.231.241-.147.321-.197l.401-.221q.292-.143.363-.18.301-.132.5-.222.251-.11.385-.169l.259-.101.004-.002h.001q.271-.116.403-.175.131-.058.192-.093.121-.062.239-.126.695-.202 1.097-.333.402-.13.833-.226.431-.096 1.069-.209.637-.113 1.015-.206.378-.094 1.135-.23.756-.136 1.383-.244.626-.109.921-.166.294-.057.669-.098.375-.041.843-.086.467-.046.777-.096.309-.051.593-.104.283-.052.947-.156.663-.104 1.039-.179.376-.074.918-.182.542-.107 1.274-.192t1.684-.16q.953-.075 1.59-.098.636-.024 1.044-.051.409-.027.596-.033.188-.007.474-.005.285.002.478-.004t.453-.037q.261-.031.484-.07.223-.04.411-.081.187-.041.313-.071.125-.03.36-.071.235-.042.503-.068.268-.027.944-.02.676.007 1.574.131.897.123 1.316.185.419.061 1.026.144.608.082 1.391.176.783.094 1.499.214.716.12 1.502.203.786.083 1.203.117.417.034.88.044.464.009.988.021.524.012.993.073.468.06.821.14.352.08 1.087.304.735.225 1.202.35.467.126.721.185.254.059.618.156.364.096.837.213.473.117.972.206.498.088.714.121.216.033.575.101t.572.118q.212.05 1.089.273.877.224 1.535.419.658.196 1.41.482.752.287 1.122.448.37.161.847.42.153.322.256.468.102.146.228.272.126.126.271.23.146.103.152.106.275.153.28.155.256.123.387.175.131.053.197.069.286.086.422.118.251.067.411.105"/>
    <path fill="none" stroke="#381d1d" stroke-width="1.574" d="M.744 442.405q-.056-1.699-.099-3.122-.042-1.424-.087-2.555-.045-1.132-.109-2.241-.063-1.109-.146-2.205-.083-1.097-.17-1.958-.087-.861-.226-1.861t-.241-1.506q-.101-.505-.228-1.001-.127-.495-.312-1.146-.186-.651-.358-1.192-.172-.541-.411-1.189-.238-.647-.485-1.241-.248-.594-.581-1.309-.334-.716-.722-1.336-.388-.62-.726-1.12-.339-.501-.753-1.092-.414-.592-.785-1.114-.372-.522-.865-1.2-.493-.679-1.038-1.361-.546-.682-.974-1.19-.427-.507-.921-1.066-.495-.56-1.04-1.084t-.97-.907q-.425-.384-.912-.801-.487-.417-.947-.794-.46-.378-1.111-.884-.65-.507-1.399-1.031-.748-.524-1.422-.944-.673-.42-1.156-.717-.484-.298-1.002-.613t-1.013-.609q-.495-.294-1.204-.703-.708-.409-1.562-.86-.853-.451-1.555-.813-.702-.362-1.255-.63-.552-.268-1.189-.552-.636-.284-1.357-.582-.721-.297-1.342-.524-.621-.228-1.402-.468-.781-.239-1.696-.466-.914-.226-1.655-.39t-1.614-.339q-.873-.175-1.656-.317-.783-.142-1.475-.254-.693-.112-1.327-.203-.634-.09-1.498-.194-.863-.103-1.683-.163-.819-.059-1.447-.095-.628-.037-1.337-.069-.709-.033-1.326-.058-.616-.026-1.401-.053t-1.544-.037q-.76-.009-1.432.005-.673.015-1.512.052-.838.036-1.715.102-.877.066-1.792.162-.915.097-1.712.204-.798.107-1.366.191-.569.085-1.174.183-.606.099-1.172.202-.567.104-1.359.268-.791.163-1.692.4-.9.237-1.749.496-.848.258-1.643.535-.796.277-1.497.541-.701.263-1.611.631t-1.809.773q-.898.404-1.626.739-.728.334-1.586.725-.858.39-1.742.803-.884.413-1.795.847-.91.435-1.59.743t-1.126.531q-.445.223-1.048.548-.604.324-1.361.747-.758.422-1.295.732-.536.311-1.013.615-.478.304-1.065.79-.587.486-1.059.914-.472.429-1.021.967-.549.539-1.018 1.035-.469.496-1.064 1.167-.594.67-1.108 1.332-.515.662-.995 1.359-.481.697-.851 1.218-.37.522-.782 1.104-.411.583-.805 1.157-.395.575-.768 1.135t-.797 1.247q-.425.687-.894 1.502-.469.816-.822 1.507t-.711 1.538q-.359.848-.606 1.626-.248.779-.413 1.366-.165.587-.33 1.242-.165.656-.291 1.193-.126.536-.257 1.163t-.238 1.257q-.107.631-.207 1.332-.1.701-.186 1.41t-.158 1.429q-.072.719-.14 1.429-.068.709-.133 1.411-.064.701-.107 1.569-.043.867-.065 1.909-.022 1.041-.025 1.953-.004.912.011 1.688.015.776.025 1.6.009.824.016 1.698.008.873.005 1.594-.002.722.001 1.579.002.858.011 1.313.008.456.013 1.086.004.631.013 1.592.009.962.015 1.972.006 1.011.017 2.073.011 1.063.039 2.101.029 1.038.07 2.05.041 1.011.081 1.853.039.842.063 1.508t.026 1.371q.003.705-.023 1.447-.026.742-.099 1.671-.073.929-.22 2.034-.146 1.105-.361 2.032-.215.928-.468 1.689-.252.761-.468 1.296-.217.536-.466 1.01-.249.474-.656 1.155-.407.682-.825 1.269-.419.588-.784 1.034-.366.445-.773.879-.408.434-.845.864-.436.431-1.039 1.002-.602.572-1.128 1.042-.526.469-.973.839-.447.37-1.011.797-.564.426-1.238.914-.674.488-1.256.893-.583.405-1.138.768-.556.362-1.024.65-.467.287-1.032.621t-1.056.61q-.491.277-.908.496-.416.22-.93.47-.513.25-1.124.53-.61.28-1.181.522-.571.242-1.102.445-.531.203-1.034.374-.502.171-1.214.379-.713.208-1.356.352-.643.144-1.153.205t-.9.096q-.389.035-1.081.135-.691.101-1.813.279"/>
    <path fill="none" stroke="#381d1d" stroke-width="1.677" d="M.501 435.432q.002.58.011 1.167.009.588.02 1.023.012.436.027.911.016.474.032.907.016.433.04 1.017.025.584.053 1.224l.056 1.282q.029.641.056 1.284.028.644.051 1.232.022.587.04 1.13.017.543.029 1.008.011.466.017.796.005.329.008.679.004.349.005.73.001.38 0 .791-.001.412-.006.855-.005.444-.013.92-.008.476-.016.876-.009.4-.021.884-.012.484-.018.82-.006.336-.014.721-.007.384-.013.685l-.013.647q-.007.345-.013.682-.007.338-.013.666-.006.329-.011.649-.005.32-.009.632-.004.311-.007.642-.003.33-.005.678-.001.349-.001.716.001.367.004.752t.009.749q.006.364.015.708t.02.667q.011.323.024.626.014.303.03.616.016.312.036.634.021.322.045.653.024.331.052.672.029.34.06.664.031.325.082.787.051.462.122 1.017.072.554.166 1.122.095.567.214 1.147.118.58.228 1.075.11.494.208.905.098.411.188.772.09.361.17.674.08.313.167.645.087.332.181.684.095.352.184.679.09.328.175.631.084.304.183.647.098.343.209.727.111.384.245.818.133.434.288.919.155.485.31.958.155.472.311.932.155.461.294.86.138.4.26.739.122.338.256.677.134.338.281.676.147.338.283.647.137.31.263.591.127.281.268.59.14.309.296.646.156.337.324.68.169.343.35.692.18.349.377.703.196.354.405.714.208.36.431.725.222.365.458.736.237.372.487.748.25.377.513.759.264.382.507.728t.464.656q.222.31.468.643.245.333.514.689.269.356.544.674.275.318.556.598.281.279.541.518.259.24.497.438.238.199.596.459.359.26.837.581.478.321.92.573.442.253.849.438.406.184.87.352.464.167.985.318.522.15.993.239.47.09.89.118.42.029.909.002.488-.028 1.048-.113t.955-.165q.395-.08.735-.192.341-.112.898-.352.557-.239.713-.312.157-.072.378-.188.222-.117.699-.374t1.284-.694"/>
    <path fill="none" stroke="#381d1d" stroke-width="1.659" d="M28.976 500.563q-.244.405-.457.853-.212.447-.465.92-.253.473-.47.872-.218.4-.484.883-.267.483-.482.87-.216.387-.464.824-.247.437-.438.729-.191.291-.358.512-.168.22-.382.474-.214.255-.531.617-.317.362-.604.68-.287.318-.672.729-.385.411-.644.666-.259.255-.585.505-.326.251-.805.583-.48.331-.883.591-.404.259-.895.538t-1.044.541q-.554.261-.993.428-.439.167-.947.327-.509.16-.962.28-.452.12-1.047.239-.594.119-1.221.182-.627.064-1.357.075-.731.011-1.247-.01-.515-.021-.842-.064-.326-.042-.655-.101-.328-.06-.768-.151-.439-.091-.832-.196-.393-.106-.74-.226-.347-.12-.724-.275-.377-.156-.783-.348-.407-.192-.74-.368-.333-.177-.723-.416-.39-.24-.775-.516-.385-.277-.809-.622-.425-.345-.772-.671-.348-.326-.753-.782-.406-.456-.839-1.022-.434-.565-.817-1.134-.384-.568-.679-1.047-.295-.479-.63-1.062-.335-.583-.711-1.282-.376-.698-.791-1.507"/>
    <path fill="none" stroke="#381d1d" stroke-width="1.716" d="m-135.536 498.34.41.454q.143.088.492.356.35.268.907.716.556.449 1.001.8.445.35.945.728.499.378 1.156.799.657.421 1.644.963.987.542 2.068 1.083 1.08.541 1.562.757.483.216.86.361.377.146.842.278.465.132 1.147.296.682.165 1.228.276.546.112.955.173.408.061 1.047.132.639.07 1.512.144.874.074 1.595.084.721.01 1.286-.041.566-.05 1.183-.149.618-.099 1.289-.255.672-.155 1.264-.326.593-.172 1.364-.455.77-.284 2.93-1.347"/>
    <path fill="none" stroke="#381d1d" stroke-width="1.557" d="m-103.579 493.41-.058.19q-.08.374-.23 1.063-.149.689-.374 1.68-.226.992-.459 1.845-.234.854-.414 1.452-.179.598-.383 1.226-.203.627-.417 1.227-.213.6-.55 1.457-.337.858-.82 1.895-.482 1.037-.885 1.795-.402.758-.761 1.33-.358.571-.696 1.018-.338.446-.778.957-.44.511-.882.956-.442.446-1.108 1.017-.667.571-1.301.977-.635.405-1.67.861-1.035.456-1.98.759-.945.303-1.526.446-.582.143-1.091.209-.51.065-.811.091-.302.027-1.576.122"/>
    <path fill="none" stroke="#381d1d" stroke-width="1.544" d="m-122.139 516.471.454.073q.258.063 1.357.406 1.1.342 1.632.498.533.156 1.13.315.598.159 1.439.374.841.215 1.863.401 1.022.187 2.224.346 1.202.159 2.183.25.98.091 1.74.113.759.023 1.533-.011.774-.035 1.56-.126.786-.09 1.438-.192.651-.102 1.428-.271.776-.168 1.735-.487.959-.319 1.481-.563.523-.243 1.131-.52.607-.278 1.366-.719.759-.441 1.37-.923.61-.481 1.009-.813.4-.331.696-.59.296-.258.604-.566.308-.309.72-.751t.922-1.015q.51-.573 1.12-1.279"/>
    <path fill="none" stroke="#381d1d" stroke-width="1.359" d="M-3.805 502.613q-.017.017-.06.143-.043.127-.047.296-.004.17.027.422.031.251.103.601.072.349.166.716.095.366.197.73.101.364.209.71.107.346.218.665.11.318.226.632.115.313.235.619.12.306.276.673.157.367.352.795.195.429.355.76.159.332.343.682.184.35.446.762.262.413.565.826.303.414.604.815.301.4.378.511.077.111.404.518.327.407.534.638.206.231.343.364.137.133.332.305.194.173.362.337.168.165.695.673.527.508 1.474 1.413"/>
    <path fill="none" stroke="#381d1d" stroke-width="1.409" d="M4.75 518.32q-.498-.12-.56-.136-.062-.016-.487-.127-.426-.111-.762-.22t-.665-.212q-.329-.102-.763-.23t-.826-.259q-.393-.131-.676-.228-.284-.097-.59-.204-.306-.107-.591-.209-.285-.103-.682-.249-.397-.147-.846-.33-.449-.184-.936-.418-.488-.234-1.014-.518-.526-.284-.968-.544-.443-.26-.802-.497-.359-.238-.721-.511-.361-.273-.726-.583-.365-.309-.713-.619-.349-.309-.682-.619-.333-.31-.641-.627-.308-.318-.591-.644-.283-.325-.472-.554-.189-.228-.284-.36-.095-.131-.253-.354-.158-.224-.379-.539-.222-.315-.402-.568-.18-.254-.388-.542-.209-.287-.446-.678-.237-.391-.491-.916-.255-.525-.418-.889-.163-.364-.284-.641-.12-.277-.253-.588-.132-.311-.26-.631t-.252-.65q-.123-.33-.243-.67-.119-.34-.234-.689-.115-.349-.21-.643-.095-.295-.208-.654-.113-.359-.219-.749-.106-.389-.21-.753t-.119-.402q-.016-.038-.067-.214-.051-.177-.142-.505-.092-.328-.19-.723-.098-.395-.203-.858-.104-.463-.185-.821l-.165-.738q-.084-.381-.177-.782-.092-.401-.19-.879-.098-.477-.171-.888-.073-.411-.128-.743-.056-.333-.119-.723-.064-.391-.122-.766-.057-.376-.11-.736-.052-.361-.099-.706-.048-.346-.089-.676-.042-.33-.077-.707-.035-.378-.063-.801-.028-.424-.05-.81-.021-.385-.036-.733-.015-.347-.027-.73-.012-.382-.021-.8-.009-.418-.013-.82-.005-.403-.005-.79t.007-.85q.007-.463.022-1.002.014-.54.042-1.091.028-.552.069-1.117.041-.565.083-1.07.042-.504.085-.947.043-.443.082-.813.04-.369.075-.665.035-.295.083-.667.048-.371.108-.818.061-.448.115-.837.055-.39.103-.721.048-.331.099-.678.052-.347.107-.711.055-.363.107-.709.052-.345.102-.673.05-.327.107-.709.057-.381.122-.817.064-.437.132-.91.067-.474.137-.986t.128-.953q.057-.442.102-.813.045-.371.088-.757t.083-.786q.041-.401.078-.817.037-.417.07-.85.033-.433.059-.882.027-.449.047-.915.02-.465.032-.957.012-.493.015-1.014.003-.52-.008-1.067-.011-.547-.037-1.121t-.072-1.174q-.046-.601-.112-1.227-.066-.627-.141-1.194-.074-.568-.157-1.075-.083-.506-.161-.933-.079-.427-.152-.774-.073-.347-.155-.697t-.172-.704q-.091-.354-.191-.711t-.21-.716q-.109-.358-.229-.719-.12-.36-.251-.722-.131-.361-.273-.722-.142-.361-.295-.721-.154-.359-.319-.717t-.342-.714q-.178-.356-.368-.71-.191-.353-.395-.704-.204-.35-.421-.698-.218-.348-.447-.695"/>
    <path fill="none" stroke="#381d1d" stroke-width="1.362" d="M-90.651 511.195q.351-.514.666-.922.314-.408.563-.766.248-.357.559-.853.311-.495.616-.992.305-.496.548-.895.243-.398.464-.763.222-.365.382-.644t.418-.78q.257-.501.481-.954.224-.454.497-1.026.274-.573.514-1.099.239-.525.471-1.064.231-.539.418-1.009.186-.47.406-1.051.219-.581.4-1.105.181-.524.397-1.225.215-.701.449-1.505.234-.804.507-1.791.273-.986.466-1.759.193-.773.314-1.331.12-.559.256-1.378.136-.82.245-1.636.109-.815.169-1.429.059-.613.105-1.297.046-.683.076-1.443.029-.76.042-1.595.013-.836.014-1.576.001-.74-.01-1.383-.011-.644-.036-1.296-.025-.651-.065-1.31-.04-.66-.085-1.251-.046-.592-.125-1.378-.078-.785-.182-1.798t-.199-1.874q-.095-.862-.216-1.907-.121-1.046-.238-2.001-.116-.955-.225-1.821t-.204-1.623q-.095-.756-.188-1.486-.094-.73-.166-1.344-.072-.614-.154-1.357-.083-.743-.158-1.54t-.139-1.652q-.064-.856-.098-1.63-.034-.774-.035-1.465-.001-.691.025-1.41.027-.719.084-1.468.058-.749.117-1.302.059-.553.134-1.072.075-.52.209-1.246.135-.726.322-1.476t.388-1.36q.201-.61.53-1.383.33-.774.914-1.828.584-1.054 1.541-2.476"/>
    <path fill="none" stroke="#381d1d" stroke-width="1.356" d="M-73.591 412.038q-.154.297-.432.861-.278.564-.688 1.392-.41.828-.711 1.51t-.583 1.49q-.281.809-.642 2.012-.362 1.204-.614 2.09-.252.885-.482 1.798-.229.913-.351 1.512-.123.599-.228 1.466-.105.866-.224 2.149-.12 1.282-.158 2.255-.038.973-.012 1.681.026.709.103 1.388.076.68.201 1.338.125.659.259 1.222.133.562.344 1.266.211.704.459 1.436.248.731.595 1.575t.718 1.709q.37.866.605 1.41.236.544.512 1.061.277.517 1.188 2.228"/>
    <path fill="none" stroke="#381d1d" stroke-width="1.494" d="M-73.361 447.049q.095.039.323.121.228.081.621.192.392.111 1.065.343.672.232 1.449.497.776.264 1.869.534t1.94.426q.847.156 1.61.295.763.139 1.496.257.732.117 1.358.195.626.079 1.391.156t1.396.134q.631.057 1.127.095t1.054.092q.558.055 1.177.125.62.071 1.451.143.83.072 1.869.147 1.038.075 1.801.126.763.051 1.495.085.731.035 1.744.107 1.012.071 1.887.112.876.04 1.982.021 1.106-.019 1.867-.053.762-.034 1.571-.086.81-.052 1.39-.106.581-.055 1.105-.132.524-.078 1.402-.281.877-.203 2.002-.491 1.125-.289 2.253-.666 1.127-.378 1.707-.601.579-.223.92-.345.34-.121.684-.24.344-.12.756-.283.412-.164.687-.283.274-.12.541-.241.267-.122.596-.26.329-.139.514-.212.185-.072.456-.16"/>
    <path fill="none" stroke="#381d1d" stroke-width="1.405" d="M-26.376 412.42q.305.61.558 1.122.253.512.456.928.203.417.379.788.176.371.399.859.223.488.538 1.248.315.761.581 1.498.266.737.489 1.446.223.71.439 1.532.216.823.422 1.75.205.927.352 1.695.146.768.244 1.389.097.62.167 1.274.069.655.117 1.342.047.688.072 1.194.025.506.03.997.006.492-.027 1.502-.034 1.011-.095 2.02-.061 1.008-.158 1.936-.097.927-.182 1.439-.084.511-.165.932-.081.422-.187.92-.105.498-.214.929-.11.431-.279.98-.17.549-.339.997-.169.447-.262.654-.093.206-.214.425t-.168.307q-.047.087-.225.423-.178.336-.447.759-.269.424-.33.512-.062.088-.319.478"/>
    <path fill="none" stroke="#381d1d" stroke-width=".982" d="M-82.447 494.85q.657 1.605.876 2.011.219.407.43.67.21.262.389.404.145.046.244.058.099.011.214-.004.116-.015.354-.143t.436-.331q.199-.203.359-.438.161-.235.265-.424.104-.19.21-.429.107-.239.249-.606.143-.367.286-.798.144-.431.305-.946M-77.711 493.976q.74 1.091 1.012 1.466.273.375.626.77.354.396.697.64.343.244.698.384.269.029.7-.072.431-.102.883-.397.453-.295.887-.718.434-.422 1.36-1.461l.532-.619M-70.21 493.988q.354.707.577 1.1.222.394.653.975.431.58.566.713.136.132.28.235.144.103.326.188.182.085.285.112.103.027.376-.024.272-.052.525-.199.252-.147.521-.406t.597-.701q.327-.443.85-1.233M-58.017 495.367q.478.585.795.937.318.352.682.688.364.337.683.555.319.218.525.31.206.092.444.152.239.06.308.065.069.004.22-.004.151-.009.365-.074.215-.065.366-.139.15-.074.316-.181.165-.108.434-.35.269-.243.526-.563.257-.319.538-.769.281-.449.964-1.717M-50.785 494.325q.243.316.479.613t.464.574q.228.276.447.532.22.256.535.608.316.352.576.627.26.276.418.407.157.132.348.27.191.139.393.254.203.116.383.197.181.082.433.155.253.074.456.096.203.021.335.012.133-.009.437-.088.305-.079.593-.219.289-.141.606-.37.316-.23.561-.471.245-.242.48-.524.236-.282.466-.585.231-.302.405-.541.173-.24.367-.516.193-.277.406-.592.214-.314.447-.666M-40.711 494.038q.234.346.717 1.021.483.674 1.027 1.279.543.605.94.927.396.323.596.448.201.125.43.23.228.106.484.185.256.08.512.107.256.027.733-.065.478-.093.755-.211.278-.119.678-.384.399-.265.629-.457.23-.193.551-.539.321-.345.565-.632.243-.287.514-.629.272-.342.609-.779.336-.437.737-.968M-30.152 493.705q.49 1.305.687 1.756.197.451.39.8.193.35.387.613t.349.42q.155.157.337.278.182.122.532.248.069.008.222-.002t.308-.056q.155-.046.342-.152.186-.106.489-.364.302-.259 1.302-1.583l.997-1.722M-23.739 493.963q.053.147.234.622.181.475.356.878.175.404.357.755.183.351.28.512.097.161.238.364.141.203.245.334.103.13.26.309.157.179.213.236.055.057.593.581M-20.849 498.587q.566-.56.751-.752.185-.192.479-.525.293-.333.505-.609.211-.275.383-.529.172-.255.47-.77.299-.515.84-1.583M-64.585 494.743q.009.088.043.343.033.255.07.454.037.2.074.349.037.15.164.517.128.366.252.63.125.264.285.533.16.269.299.453.139.183.249.302.111.119.292.276.181.156.412.325l.129.087M-62.218 498.973q.04-.023.227-.127.187-.103.349-.197.162-.093.398-.24.236-.147.435-.284.199-.137.471-.353.272-.215.513-.448.241-.232.398-.409.156-.177.321-.389.164-.213.303-.419.139-.205.226-.345.088-.141.35-.577"/>
    <path fill="none" stroke="#381d1d" stroke-width=".5" d="M-64.767 449.135q-1.163-1.376-1.451-1.74-.289-.364-.594-.778-.305-.413-.535-.749-.23-.336-.926-1.538-.696-1.202-.972-1.786-.276-.584-.581-1.325-.305-.741-.548-1.419-.243-.678-.426-1.249-.183-.57-.386-1.283-.202-.712-.348-1.318-.146-.606-.286-1.325-.139-.718-.248-1.504-.109-.786-.17-1.483-.06-.698-.091-1.553-.032-.855-.016-1.911.017-1.056.105-2.753M-55.08 450.486q-.339-.408-.993-1.232-.653-.824-1-1.311-.347-.486-.556-.807-.209-.322-.674-1.143-.464-.821-.881-1.748t-.597-1.419q-.179-.491-.34-1.015-.161-.524-.335-1.242-.173-.719-.276-1.357-.104-.639-.161-1.437-.058-.799-.045-1.475.014-.675.162-2.356M-40.826 450.593q.473-.889.659-1.254.186-.364.476-.977t.524-1.176q.234-.564.47-1.23.236-.666.395-1.201.16-.536.315-1.164.156-.628.279-1.245.123-.618.543-3.569M-33.436 449.832q.197-.302.472-.734.275-.433.817-1.379.543-.946.81-1.494.266-.548.378-.8.111-.251.302-.726.192-.476.439-1.177.246-.701.393-1.181.146-.479.255-.886.109-.406.213-.847.104-.441.242-1.171.138-.731.202-1.172.064-.441.137-1.165.073-.723.118-1.528.045-.804.055-1.221.01-.418.006-1.114-.005-.696-.03-1.368-.026-.672-.066-1.293-.04-.62-.071-1.001-.031-.382-.078-.912-.048-.53-.125-1.281-.077-.75-.215-1.986M-119.919 516.622q2.884-.082 4.122-.149 1.238-.067 2.242-.172 1.005-.104 1.881-.244.875-.14 1.634-.306.758-.167 1.668-.431.91-.265 1.488-.474.577-.208.865-.328.288-.12.723-.326.436-.205 1.065-.547.629-.342 1.21-.713.58-.371 1.367-.972.786-.6 1.409-1.174.622-.574 1.391-1.435.768-.861 1.295-1.566.526-.706 1.203-1.777.677-1.07 1.036-1.736.358-.666.663-1.3.304-.635.661-1.478.357-.843.605-1.506.248-.662.495-1.408.248-.746.631-2.127.383-1.381.615-2.437.232-1.056.391-1.936.158-.88.309-1.916.15-1.036.241-1.821.091-.784.162-1.568.072-.783.142-1.842.07-1.058.111-2.036.042-.979.075-2.653.034-1.675.028-6.908M-102.438 487.97q.381-1.063.678-1.929.296-.865.509-1.523.213-.659.43-1.394.218-.735.485-1.773.266-1.037.446-1.892t.408-2.334q.228-1.478.369-2.957.142-1.48.185-2.243.044-.764.064-1.371.02-.607.023-1.91.003-1.304-.072-2.989-.076-1.684-.197-3.04-.121-1.355-.224-2.194-.103-.839-.236-1.74-.133-.902-.325-2.023-.192-1.122-.574-3.156M-134.476 498.693q1.445.387 2.359.614.913.227 1.787.415.874.188 1.39.285.516.097 1.413.237.898.14 1.52.214.622.074 1.531.146.909.071 2.039.082 1.129.01 1.69-.023.56-.032.93-.072.37-.039.618-.074.248-.035.74-.126.491-.092 1.083-.242t1.023-.293q.432-.144.653-.231.222-.087.743-.335.521-.247 1.001-.543.48-.295.847-.583t.641-.547q.274-.259.418-.414.144-.156.343-.393.199-.237.931-1.215M3.998 517.609q-1.072-.705-1.973-1.31-.901-.605-1.614-1.118-.714-.512-1.451-1.087-.737-.575-1.242-1.008-.505-.433-.92-.821-.415-.387-.799-.775-.383-.387-.892-.95-.508-.563-.941-1.097-.433-.535-.81-1.051-.377-.517-.847-1.249-.469-.733-1-1.709-.531-.977-.926-1.846-.395-.869-.827-2.027-.433-1.158-.773-2.301-.34-1.142-.571-2.091-.232-.949-.464-2.12-.232-1.171-.39-2.17-.158-.999-.26-1.772-.102-.773-.19-1.558-.087-.784-.168-1.661-.081-.877-.154-1.836-.074-.959-.138-1.969-.065-1.011-.138-2.249M28.412 501.059q-1.084 1.004-1.808 1.671-.723.667-1.418 1.269-.694.602-1.098.923-.403.321-.854.651-.451.33-.844.591-.394.261-1.111.661t-.99.528q-.273.128-.671.285-.399.158-.895.314-.497.156-1 .271-.503.114-.99.183-.487.068-.851.094-.364.026-.627.031-.263.004-1.001-.048-.738-.052-1.396-.173-.659-.121-1.233-.29-.575-.168-1.086-.373-.511-.205-1.364-.67-.852-.465-1.05-.599-.197-.134-.681-.51-.484-.376-.699-.565-.215-.188-.38-.347-.165-.159-.671-.703-.507-.544-1.654-1.904M-84.541 424.339q-1.205 1.511-1.594 2.031-.389.52-.897 1.27t-1.107 1.811q-.6 1.06-1.118 2.26-.518 1.2-.735 1.842-.217.643-.544 1.906-.327 1.264-.566 2.762-.24 1.497-.313 2.26-.073.764-.162 2.735-.089 1.971-.095 3.344-.006 1.374.017 2.914.024 1.54.117 4.807M-43.077 411.876q.243.793.419 1.386.176.594.318 1.108.141.514.296 1.146.154.632.242 1.04.087.408.188.987.101.578.208 1.435.106.857.156 1.689.049.833.046 1.631-.003.798-.065 1.703-.061.906-.192 1.892-.132.986-.288 1.816-.156.831-.311 1.499-.155.668-.343 1.387-.187.718-.614 2.245M-61.379 423.969q.006-.788.015-1.302.009-.515.023-.967.013-.453.04-1.048.027-.595.064-1.146.038-.551.111-1.295.072-.745.148-1.327.077-.582.165-1.135.088-.552.227-1.271.139-.718.342-1.606.202-.888.541-2.271M-100.745 437.707q.098-1.397.205-2.541.107-1.143.187-1.778.081-.634.234-1.529.154-.895.41-1.98t.541-1.997q.285-.913.541-1.585.256-.672.526-1.278.27-.607.49-1.047.22-.441.454-.868t.846-1.392q.613-.965 1.3-1.869t2.115-2.564M-2.82 431.235q-.162-.581-.337-1.167-.174-.586-.357-1.143-.184-.556-.353-1.016-.169-.459-.374-.959-.206-.501-.538-1.205-.333-.704-.612-1.23-.28-.527-.606-1.087-.325-.56-.643-1.066-.318-.505-.768-1.161-.451-.656-.913-1.261-.462-.605-.879-1.093t-.735-.827q-.318-.339-.538-.556-.22-.218-.472-.45t-.592-.521q-.339-.288-.655-.531-.316-.243-.613-.451-.297-.208-.652-.435-.355-.228-1.188-.742M-12.827 427.647q.554.675.792.968.239.294.676.858.437.564.641.844.204.28.427.602.223.322.477.716.254.393.561.91.306.516.532.928.225.412.738 1.473.512 1.06.776 1.684.265.624.402.976t.422 1.167q.285.814.456 1.374.171.56.294 1.013.123.453.224.879.102.426.212.961.109.536.185.982.077.447.148.981.072.534.107.879.035.344.082 1.067t.061 1.507q.013.785.003 1.269-.01.485-.053 1.223-.042.738-.094 1.281-.051.544-.119 1.088-.067.543-.151 1.093-.083.551-.21 1.265-.127.714-.234 1.25-.107.537-.626 2.891-.519 2.355-.646 2.93-.126.575-.266 1.232-.139.657-.357 1.772-.219 1.115-.288 1.502-.069.388-.158.922t-.243 1.573q-.154 1.039-.288 2.105-.135 1.066-.204 1.697-.069.63-.124 1.191-.055.561-.138 1.616-.082 1.055-.112 1.602-.029.546-.044.97-.014.424-.02.879-.006.454.005 1.086.012.632.036 1.1.024.468.065.967.041.499.097.99.057.491.124.954.067.464.148.927.08.462.174.935.095.474.277 1.263.181.789.403 1.636.223.847.496 1.794.273.947.876 2.929M-14.415 442.535q.673 1.284.946 1.836.274.552.531 1.131t.404.952q.147.372.426 1.223.279.851.431 1.468.152.617.24 1.092.089.475.161 1.009.072.533.111.993.04.46.057.849.017.388.018.829.002.44-.016.927-.018.488-.045.873t-.069.795q-.042.41-.155 1.213-.113.802-.299 1.845-.187 1.043-.316 1.703-.129.661-.225 1.148-.096.488-.221 1.126-.125.638-.323 1.691-.198 1.052-.253 1.373-.055.321-.123.757t-.121.823q-.052.387-.106.89t-.088.932q-.034.429-.06.989-.027.559-.051 2.155M.709 495.723q-.076-.073-.612-.665-.535-.592-.849-1.044-.314-.452-.584-.956-.271-.504-.475-1.016-.205-.513-.408-1.235-.203-.723-.341-1.535-.137-.812-.216-1.461-.078-.649-.145-1.4-.067-.751-.112-1.413-.044-.661-.085-1.498-.041-.837-.064-1.664t-.027-1.38q-.005-.553.002-1.146.008-.593.023-1.042.015-.45.042-.952.028-.502.118-1.478t.286-2.568"/>
  </g>
</svg>
