<svg xmlns="http://www.w3.org/2000/svg" width="170.8973" height="191.9413" viewBox="-547.831 792.478 128.173 143.956">
  <g stroke-linecap="round" stroke-linejoin="round">
    <path fill="#d9c1d5" stroke="#d9c1d5" stroke-width=".5" d="M-544.387 882.265q-.317 2.436-.386 3.217-.069.782-.016 1.86.053 1.079.068 1.315.015.235.036.738.022.503.021.715-.002.212.003.702.006.49.014 1.326.008.836.014 1.534l.011 1.536q.005.84-.06 1.822-.065.983-.112 1.936-.047.954-.069 1.559-.022.604-.081 1.345-.06.74-.085 1.095-.025.354-.035.576-.01.223-.014.611-.005.387-.025.954-.019.567-.046 1.13-.026.563-.072 1.313t-.077 1.447q-.03.698-.04 1.343-.011.645-.011 1.156-.001.511.018 1.076.018.564.023.918.004.353.021 1.172t.008 1.41q-.009.591-.036 1.226-.028.635-.042 1.162-.014.528-.026 1.16-.012.633-.034 1.226-.022.594-.041.847-.019.253-.068.796t-.062 1.081q-.014.539-.007 1.246t.019 1.218q.013.511.039.998.027.486.049.959.023.474.041.855.019.381.114 1.218.096.838.191 1.311t.536 1.837l.2.306.159.077.224.071q.017.016.445-.023.429-.038 1.281-.107.852-.069 1.553-.127.701-.059 1.513-.154.812-.096 1.581-.126.768-.029 1.443.018.674.046 1.233.061.56.015 1.226.006.666-.009 1.233-.02.567-.011 1.271-.021.704-.01 1.743.085 1.039.094 2.23.159 1.19.065 2.351.021 1.16-.045 2.111-.074.95-.03 1.657-.038.707-.007 1.121-.002.415.006 1.495-.036 1.079-.042 2.212-.203 1.133-.162 2.325-.375 1.192-.213 1.695-.272.504-.06 1.075-.115.57-.055 1.373-.131.803-.076 1.658-.17.855-.094 1.764-.203.908-.109 1.606-.193.698-.083 1.428-.167.731-.084 1.253-.176.522-.093 1.308-.187.785-.095 1.528-.199.742-.103 1.708-.238.965-.136 1.698-.242.733-.105 1.473-.236.739-.132 1.411-.25.671-.119 1.154-.189.483-.069.978-.126.494-.056 1.189-.112.694-.055 1.837-.138 1.143-.083 2.035-.07.893.013 1.685.066.792.053 1.423.057.63.005 1.363-.022.732-.027 1.569-.007.837.021 1.779.088.941.068 1.653.131.711.063 1.193.122.482.059 1.079.087.596.029 1.307.027.711-.002 1.298.001.588.002 1.052.01.928.014 2.035.139 1.108.125 2.598.189.746.032 1.412.067.667.035 1.254.074.588.038 1.076.086.488.048.877.106.39.057.965.099.576.042 1.339.066.762.025 1.38.043.618.018 1.09.031.473.013 1.102.076.629.064 1.418.164.789.1 1.483.157.694.058 1.29.084.596.025 1.269.009.673-.016 1.42-.06.747-.045 1.305-.058.558-.014.929-.008.372.006.795.026.424.02.897.068.473.048.916.1.443.052.857.104t.973.106q.558.055 1.013.097.454.042.993.083.539.041 1.006.068.466.028 1.058.05.591.023 1.083.032.491.009.895.003.404-.007.877-.033.472-.026.856-.06.384-.033.494-.037.109-.005.492-.045t1.077-.12q.693-.081 1.298-.148.606-.067 1.122-.12.517-.052.924-.08.407-.027.705-.03.298-.002.737-.004.438-.002 1.018-.004.58-.001 1.309-.083t1.608-.243q.057-.028.892-.785.008-.049.113-.348.106-.299.121-.399.015-.101.008-.318-.006-.217-.017-.33-.01-.114-.018-.496-.008-.383-.027-.888t-.032-.651q-.014-.146-.084-.508-.069-.363-.098-.578-.029-.215-.034-.345-.005-.131-.002-.564.003-.432-.003-1.369-.005-.936-.04-1.598-.035-.661-.093-1.012-.057-.351-.106-.825-.049-.473-.109-.884-.06-.411-.122-.681-.062-.27-.103-.417-.041-.146-.089-.355-.049-.209-.117-.704-.069-.495-.16-.986-.091-.492-.199-.881-.109-.389-.17-.647-.06-.258-.091-.438-.032-.181-.047-1.294-.015-1.112-.037-2.066-.022-.954-.105-1.669-.083-.714-.144-1.072-.062-.359-.007-1.155t.106-1.122q.051-.326.18-1.475.128-1.15.173-1.963.046-.813.048-1.169.001-.356-.002-.843t-.061-.865q-.057-.378-.113-.623-.055-.245-.229-1.174-.174-.93-.302-1.814-.127-.885-.18-1.392-.053-.508-.087-.673-.033-.165-.056-.232t-.112-.426q-.088-.359-.134-.622-.046-.264-.087-.661-.042-.397-.121-.916-.079-.518-.107-1.216-.028-.699-.031-1.014-.003-.315-.053-.652-.05-.336-.107-.683-.056-.346-.141-.884-.085-.538-.165-.84-.08-.302-.127-.507-.048-.204-.198-.479-.15-.275-.153-.289-.003-.015-.114-.191-.112-.177-.165-.237-.053-.061-.133-.135-.08-.075-.139-.133-.058-.059-.194-.208-.137-.149-.274-.317-.909-.002-1.819-.003l-1.819-.002-1.82-.002-1.819-.002q-.909-.002-1.819-.003l-1.819-.002q-.91-.001-1.819-.001-.91-.001-1.819-.001h-1.818q-.909.001-1.817.004-.909.003-1.816.008-.907.006-1.812.017-.906.01-1.809.028-.903.017-1.803.043-.9.026-1.796.061-.896.036-1.789.081-.893.046-1.784.098-.89.053-1.78.109-.89.055-1.781.108-.891.053-1.786.097-.895.043-1.795.079-.899.036-1.81.047-.91.011-1.825.016-.916.006-1.836.006-.921.001-1.844.004-.924.003-1.848.016-.924.012-1.846.036-.923.023-1.842.056l-1.837.064q-.917.033-1.832.057-.915.023-1.828.031-.914.009-1.829-.016-.915-.024-1.83-.07-.915-.046-1.831-.112-.916-.067-1.832-.145-.916-.079-1.833-.16-.916-.081-1.832-.157-.915-.075-1.83-.138-.915-.064-1.828-.114-.914-.049-1.826-.085-.913-.036-1.824-.061-.912-.024-1.823-.04-.91-.015-1.821-.025-.91-.009-1.82-.016-.91-.006-1.82-.01t-1.819-.009q-.91-.004-1.82-.011-.91-.006-1.82-.016t-1.82-.027q-.91-.017-1.821-.043-.91-.027-1.822-.065-.911-.038-1.823-.088-.912-.051-1.826-.111-.914-.061-1.83-.125-.916-.065-1.836-.124-.92-.06-1.845-.105-.926-.046-1.861-.07-.934-.024-1.88-.022-.945.002-1.902.025t-1.923.059q-.966.037-1.936.077-.971.04-1.936.076t-1.915.065q-.95.03-1.906.047Z"/>
    <path fill="#d9c1d5" stroke="#d9c1d5" stroke-width=".5" d="M-539.66 883.198q.237-.103.352-.143.114-.04.312-.067.197-.027.35-.052.154-.026.818-.116.664-.089.986-.103.322-.014 1.139-.021.817-.008 1.458-.017.642-.01 1.533.086.891.096 1.459.155.569.059 1.366.022.797-.036 1.436-.064.638-.027 1.724-.044 1.087-.017 1.816-.074.728-.057 1.332-.066.604-.009.987.009t.868.017q.484-.001 1.358-.045.874-.043 1.461-.105.587-.062.941-.055.353.006.897.03.544.023 1.573-.025 1.029-.049 1.493-.067.464-.017.918-.029.453-.012 1.051-.021.598-.01 1.105-.007.508.002.924.013.417.013.974.016.558.003 1.255.001.698-.001 1.396.031.699.033 1.398.104.699.072 1.25.143t.955.133q.403.063.877.113t1.017.096q.543.045 1.117.123.574.077 1.18.186.605.11 1.055.207.45.097.744.172.295.074.78.207.485.133 1.164.312.678.179 1.267.301.589.121 1.338.221.748.1 1.223.106.476.007.908.016.433.009.904.022.472.012 1.128.009.657-.002 1.216-.023.558-.021 1.247-.056.689-.035 1.123-.09.434-.056.736-.108.302-.053.404-.076.103-.023.416-.078t.87-.146q.556-.092 1.183-.182.628-.091 1.327-.172.699-.081 1.377-.149.679-.068 1.337-.123.659-.055 1.213-.082.553-.027 1.226-.034.674-.008 2.161-.049.743-.011 1.601 0 .857.011 1.827.045.971.034 1.735.055.763.022 1.319.027.557.006 1.135.003.579-.003 1.18-.013.6-.011 1.269-.043.669-.032 1.405-.083.737-.052 1.308-.102.57-.05.975-.1.406-.049 1.083-.122.678-.072 1.628-.158.95-.086 1.576-.132.627-.046 1.085-.071.458-.026 1.579-.032 1.121-.006 2.232.035 1.11.041 1.703.057.592.017 1.417-.011.826-.028 1.483-.054.657-.027 1.42-.064.763-.037 1.476-.075.712-.038 1.371-.05.658-.011 1.132-.022.475-.011.908-.013.433-.003 1.188.01.754.012 1.157.012.404 0 .855-.037.452-.038.807-.054.356-.016.741-.013.385.003.576.005.191.001.391.011.201.009.601.01.401.002.586-.003.186-.006.363-.022t.635-.16l.199-.153q.036-.015.155-.246.119-.231.196-.601.077-.37.105-.575.028-.205.036-.33.009-.125.01-.243.001-.118.005-.134.004-.016-.011-.233-.014-.217-.04-.687-.026-.47-.005-1.057.02-.587.036-1.029.017-.442.048-.915.031-.474.032-.975.002-.502-.073-.982-.075-.479-.199-1.077-.124-.599-.222-1.018-.097-.418-.131-.588-.035-.17-.051-.277-.017-.108-.055-.286-.038-.179-.113-.896-.075-.718-.084-1.189-.009-.47-.03-.99-.02-.521-.014-1.17.007-.648-.036-1.433t-.086-1.154q-.043-.369-.129-1.114-.085-.745-.182-1.203-.096-.458-.365-1.339-.27-.88-.405-1.324-.136-.445-.304-.835-.169-.39-.293-.796-.124-.406-.197-.723-.072-.317-.134-.545-.062-.228-.093-.359-.031-.132-.079-.406-.048-.275-.08-.687-.033-.412-.131-.966-.098-.553-.189-1.1-.09-.547-.137-1.079-.046-.532-.08-.95-.035-.418-.031-.866.005-.449.027-1.07t.03-1.109q.008-.488.013-1.016.004-.529.034-1.584.031-1.054.058-1.621.028-.566.04-1.564.013-.997-.004-1.596-.017-.598-.06-.887-.042-.289-.2-1.135-.159-.845-.233-1.254-.074-.408-.091-.564-.017-.157-.134-.792t-.205-1.026q-.089-.392-.14-.719-.051-.327-.129-.84-.079-.513-.122-.934-.043-.421-.093-.749t-.1-.521q-.05-.192-.107-.42-.056-.227-.067-.247-.011-.02-.101-.418-.09-.398-.172-.709-.082-.31-.2-.556-.118-.247-.4-.688-.282-.44-.455-.678-.172-.239-.382-.51-.211-.272-.223-.299-.013-.026-.613-.684-.601-.658-1.016-1.124-.414-.466-.607-.726-.192-.26-.618-.864-.425-.603-.723-1.023-.297-.42-.41-.593-.112-.173-.441-.677t-.731-1.215q-.402-.71-.602-1.057-.2-.346-1.059-1.307-.858-.961-1.584-1.668-.726-.708-1.083-1.046-.356-.339-1.103-1.163-.746-.825-1.05-1.183-.304-.357-.593-.681-.29-.324-.833-.856-.544-.532-.9-.887-.356-.354-.96-.897-.604-.542-1.034-.913-.43-.371-.472-.4-.042-.03-.467-.388-.426-.358-.758-.695-.332-.337-.735-.686-.402-.35-.877-.667-.474-.317-.763-.521-.289-.203-.692-.576-.402-.372-1.118-.91-.717-.538-.989-.709-.273-.172-.415-.249-.142-.077-.297-.166-.155-.088-1.771-.778-1.615-.689-2.685-1.044-1.071-.355-1.846-.544-.775-.189-1.2-.291-.425-.102-1.743-.557-1.318-.456-2.053-.758-.736-.302-2.146-.867-1.41-.564-1.771-.661-.361-.097-.717-.204-.355-.107-.92-.221-.564-.115-.818-.152-.254-.037-.674-.083-.419-.045-.624-.075-.206-.03-.431-.071-.224-.042-1.07-.15-.845-.108-1.404-.088-.56.021-.765.065-.206.044-.301.071-.095.026-.316.104-.222.079-.42.143-.198.064-.407.107-.209.043-.563.09-.353.047-.529.029-.176-.017-.546-.112-.369-.096-.841-.236-.471-.141-.583-.184-.112-.044-.506-.154-.394-.109-.6-.15-.206-.042-.439-.078-.233-.037-1.137-.084-.905-.048-2.115-.216-1.21-.169-2.137-.285-.927-.115-1.383-.132-.456-.016-.763-.014-.306.002-.784.021-.478.018-.659.036-.181.017-.427.066-.246.048-1.339.348-1.094.299-1.984.646-.889.347-1.346.572-.458.224-.62.297-.161.073-1.342.691-1.181.617-2.036 1.183-.855.566-1.236.852-.381.286-1.087.783-.706.498-1.132.818-.427.32-.747.608-.32.287-.64.58-.321.293-.785.694-.465.402-1.185 1.005-.719.602-1.266 1.043-.547.441-1.098.879t-1.2.858q-.65.42-1.618 1.155-.969.735-1.573 1.264-.605.528-.891.776-.286.248-.5.415-.215.167-.896.823-.681.656-1.228 1.278-.546.623-.836.959-.289.337-.953 1.212-.663.875-1.457 1.79t-1.238 1.373q-.444.458-.859.981-.415.523-.682.87-.266.346-.628.848-.362.501-1.034 1.543-.672 1.042-1.014 1.621-.342.579-.483.823-.141.243-.26.432-.12.189-.357.581-.237.391-.39.619-.153.227-.282.397-.129.17-.229.324-.1.155-.239.367-.139.212-.36.591-.221.378-.382.717-.161.339-.188.389-.027.05-.117.32-.089.27-.165.756-.075.487-.164 1.284-.089.798-.164 1.443-.075.645-.169 1.379-.094.733-.267 2.026-.172 1.293-.258 1.883-.085.59-.196 1.248-.11.659-.157 1.056-.046.397-.189 1.435-.144 1.038-.216 1.733-.072.695-.159 1.622-.087.928-.143 1.734-.057.805-.078 1.292-.021.486-.02.645.001.158.007.291.006.132.073.769-.013 1.011-.027 2.021-.013 1.011-.027 2.021-.013 1.011-.027 2.022t-.029 2.022q-.014 1.012-.031 2.026-.016 1.014-.036 2.032-.02 1.018-.047 2.044t-.064 2.065q-.038 1.038-.088 2.096-.051 1.057-.115 2.136-.064 1.08-.136 2.182-.072 1.103-.141 2.224-.069 1.121-.125 2.256-.056 1.136-.076 2.263-.02 1.127-.015 2.252.005 1.125.026 2.243Z"/>
    <path fill="none" stroke="#381d1d" stroke-width="1.41" d="M-544.828 883.057q-.001.2.014.54.016.341.03.782.014.441.023.82.009.38.015.84.005.461.005.901 0 .441-.004.863-.005.421-.012.827-.007.406-.016.797l-.015.732q-.007.342-.014.78-.007.439-.013.833-.006.393-.009.702-.002.308-.003.532-.001.224-.004.501-.004.278-.008.526-.005.249-.007.566-.003.318-.005.669-.002.352-.008.626-.005.275-.013.587-.008.313-.019.665-.012.352-.027.744t-.031.747q-.015.354-.029.67-.014.316-.026.592-.012.277-.026.634-.014.357-.025.676-.01.319-.017.563-.006.244-.013.649-.007.405-.011.889-.004.484-.008.914-.003.429-.006.738-.002.308-.005.639-.002.331-.005.629-.004.299-.009.699-.006.399-.017.804-.01.404-.019.787t-.017.744q-.008.361-.02.811-.013.449-.023.808-.011.36-.024.778-.013.419-.024.804-.012.385-.022.736-.01.351-.018.668-.009.317-.019.742l-.024.935q-.013.51-.026.963-.013.454-.025.818-.011.363-.028.775-.017.412-.026.702-.009.29-.015.6-.007.31-.013.735-.006.426-.016.871-.009.446-.022.911t-.021.809q-.009.343-.013.565-.005.221-.003.56.003.339.012.796.009.457.015.799l.012.686q.006.343.008.61.002.267.031.85.03.582.056.939.026.357.048.83.023.474.058.832t.072.797q.037.438.088.875.052.437.154 1.533"/>
    <path fill="none" stroke="#381d1d" stroke-width="1.009" d="M-545.024 882.828q.564-.066 1.09-.103l.271-.014q.334-.034.925-.098.591-.065.908-.095.317-.031.773-.076.456-.046 1.157-.117.701-.071 1.165-.116.463-.045.802-.075.338-.03.645-.057.306-.027.723-.055t.783-.052q.365-.023.819-.051.453-.029.895-.05.441-.021 1.086-.043.644-.022 1.455-.024.811-.002 1.462.008.651.009 1.143.031.492.021.987.053t.994.074q.499.042.997.09.499.048.997.102.498.053.944.103.446.049.84.095.394.045.87.095.476.049 1.035.102.559.054 1.048.098.489.045 1.116.099.627.054 1.22.085.593.031 1.071.05.478.018 1.039.035.561.016 1.021.024.46.007 1 .004t1.015-.014q.475-.01.603-.01.127 0 .426-.008t.811-.024q.512-.016.978-.032.466-.015 1.096-.039.63-.023 1.079-.041.45-.019.611-.031.162-.011.623-.017.461-.006.894-.011.434-.004.994-.008t1.064-.003q.503.001 1.174.012.671.01 1.34.047.668.036 1.319.082.65.045 1.283.1.632.054 1.21.105.577.051 1.1.099.523.047.999.096.476.048.906.097.429.049 1.049.116.619.067 1.226.131t1.05.104q.443.041.924.079.481.039 1.001.076.52.037 1.077.072.558.035 1.053.063.495.029 1.142.061.647.033 1.258.051.611.018 1.155.029.545.01 1.023.013.478.003 1.059.003.58 0 1.042-.001.461-.002.997-.004.535-.002 1.054-.005.519-.004 1.021-.01.502-.006.987-.014.486-.007.954-.017.469-.009.911-.018.443-.009 1.068-.022.624-.012 1.353-.027.729-.014 1.394-.026.664-.012 1.265-.022.6-.01 1.213-.021.613-.011 1.082-.021.469-.009.85-.018l.828-.022.964-.028q.516-.015 1.1-.034.584-.018 1.095-.035l1.17-.041q.658-.024 1.245-.051.588-.026 1.12-.053.533-.026 1.01-.053.478-.026.97-.052.493-.027 1-.053.508-.027 1.166-.057.658-.031 1.189-.055.532-.023 1.156-.051.624-.027 1.216-.052.592-.026 1.151-.049.56-.023 1.088-.045.528-.021 1.024-.041t.93-.037l.996-.039q.561-.022 1.065-.042.504-.02 1.037-.039.532-.019 1.091-.037.559-.018 1.047-.032.487-.014.903-.024.416-.011.895-.022.478-.012 1.016-.026.539-.013 1.198-.027.658-.013 1.43-.026.772-.013 1.466-.023.693-.011 1.309-.018.615-.008 1.12-.011.504-.004.902-.003.399 0 .867.005.468.005 1.003.015.534.01.979.024.446.014.988.04.542.027 1.257.097l.42.034"/>
    <path fill="none" stroke="#381d1d" stroke-width="1.41" d="M-425.725 883.303q.104.349.302 1.187.197.837.312 1.367.115.53.208.978.093.448.202.989.108.541.199 1.037.091.496.201 1.172.109.675.216 1.544.106.869.174 1.55.069.682.115 1.225.047.544.081 1.035.035.491.072 1.109.037.618.065 1.132.027.515.044.928.018.413.041 1.08.023.667.041 1.229.018.561.039 1.24.02.678.036 1.272.017.593.028 1.103.012.509.02.935.008.426.014.941l.013 1.109q.007.594.012 1.098.006.504.008.887.002.384 0 .779-.001.396 0 .863.001.468.006 1.033.005.564.014 1.382.009.819.019 1.435.01.617.02 1.032.01.416.028.857.019.441.045.908.026.466.047.824.02.358.042.73.021.373.034.613.012.239.06.827.049.588.068.767.019.179.061.604.043.425.1.931.056.506.104.961.048.455.085.775.037.32.117.957.08.636.128 1.033.048.398.131 1.232.084.833.091.868.006.035.065.773.059.738.097 1.055M-545.003 933.606q.311.002.588.02.278.019.309.024.032.005.208.02t.509.041q.332.026.735.052.403.025.877.049.475.024.919.043.444.019.857.033.413.015.726.022.313.007.525.007.212-.001.635-.004.423-.003.793-.006.37-.003.829-.006.458-.004.932-.012.474-.008.964-.02.49-.013.997-.029.506-.017 1.028-.038.522-.021.986-.04.465-.019.873-.037.408-.017.759-.033.351-.016.791-.037.441-.022.937-.045.495-.023.899-.041.404-.017.823-.036.419-.018.744-.033.325-.014.594-.027.269-.014.59-.031l.694-.039.798-.047q.425-.026.81-.05.385-.024.73-.047t.65-.044q.305-.021.702-.051.398-.03.955-.074.557-.043 1.143-.091.584-.047 1.139-.098.555-.05 1.079-.104.524-.054.968-.1.443-.046.755-.078.312-.033.64-.068.329-.034.681-.073.351-.039.727-.083.375-.043.773-.092.399-.048.821-.1.422-.053.793-.1.372-.046.693-.087.322-.041.593-.075.272-.035.604-.078.332-.043.707-.091.376-.047.686-.083.309-.037.63-.078.321-.042.654-.088.333-.045.783-.108.451-.063 1.02-.144.568-.08 1.049-.144.482-.064.875-.112.394-.048.784-.093l.68-.077q.291-.033.613-.068.323-.036.612-.068l.673-.072q.383-.042.762-.08.378-.039.844-.082.465-.043.88-.078t.743-.06q.328-.024.708-.05.38-.025.812-.051.431-.027.915-.054.483-.027.926-.049.444-.022.847-.039.404-.016.768-.028.363-.011.687-.017.324-.006.618-.01.294-.005.69-.008.396-.003.805 0 .408.004.858.011.449.008.939.02.489.013.939.024.449.011.859.02.409.01.787.019.379.008.727.016t.785.022q.438.013.964.032.527.019 1.096.039.57.02 1.029.035.459.016.878.031l.818.031.694.028q.294.011.616.024.323.013.673.028.351.014.73.03.379.015.731.03l.678.027q.326.014.626.026.299.012.709.029.409.016.849.033.441.018.775.031.334.012.626.023l.663.025q.372.014.696.026.324.012.709.022.384.01.83.018.445.008.842.016l.746.015q.349.008.786.017l.963.022q.525.012.896.02.37.008.584.011.215.002.552.004.338.001.621.001.284 0 .626.001.343 0 .659-.001.315 0 .749-.001.433-.001.904-.004.471-.004.839-.005.367-.001.63-.001.263.001.657.001h.921q.526-.001.975 0h.822q.373 0 .661.001.287.002.489.004.202.001.557.005.354.004.86.01t.984.013q.479.007.93.015.451.008.808.016.357.007.749.019.393.011.736.031.342.021.635.034.294.014.652.027.358.014.625.025.268.012.534.027.265.014.479.034.214.019.624.038.41.02.764.039.354.019.79.045.436.026.85.045t.807.032q.393.013.837.031.445.017.941.04.496.023.869.04.374.017.752.032t.921.03q.542.016.854.036.312.021.635.029.322.007.593.011.27.005.595.008.326.003.625.005.3.001.709.001.41 0 .853-.006.443-.007.82-.015.377-.009.689-.019.313-.01.568-.024.256-.014.555-.04.298-.026.708-.06.409-.033.875-.084.466-.051.679-.074.213-.023.565-.057.353-.034 1.139-.146.476-.111.762-.165M-539.996 881.699l-.025-.227q.007-.122.006-.558-.002-.436-.012-1.186-.009-.751-.014-1.365-.004-.615-.002-1.332.002-.718.01-1.337t.029-1.317q.021-.699.058-1.683.037-.984.067-1.673.03-.69.065-1.282.034-.593.074-1.318.04-.726.107-1.744.067-1.019.107-1.929.039-.91.047-1.655.008-.746.019-1.485.01-.74.018-1.127.007-.388.009-.616.002-.228 0-1.332t-.008-1.999q-.007-.896.01-1.933.018-1.037.043-1.627.024-.591.034-1.323.009-.733.021-1.302.011-.569.069-1.407.058-.838.11-1.487.052-.649.117-1.387.065-.739.128-1.38.064-.641.156-1.455.093-.815.207-1.579.114-.764.177-1.24.062-.476.106-.811.044-.334.163-1.048.12-.713.21-1.203.089-.489.159-.898.071-.41.162-.875.091-.465.225-1.12.133-.656.26-1.246.126-.591.306-1.38.18-.79.291-1.217.112-.426.182-.739.07-.312.185-.75.115-.437.248-.912.133-.474.205-.708.073-.234.272-.904M-429.753 882.139q.018-.143.03-.452.011-.309.018-.583.007-.274.013-.615.006-.341.008-.671t0-.807q-.003-.477-.021-1.066-.019-.589-.04-1.032-.021-.443-.045-.739l-.05-.642q-.026-.346-.055-.742t-.067-.839q-.038-.443-.085-.934-.046-.49-.097-.944-.051-.453-.106-.869l-.102-.772q-.046-.355-.103-.797-.057-.442-.147-1.092-.089-.649-.17-1.124-.082-.476-.167-.973-.086-.497-.142-.79-.057-.292-.13-.656-.073-.364-.181-.897t-.166-.812q-.058-.279-.065-.305-.008-.026-.057-.25-.049-.223-.14-.644-.091-.422-.168-.78-.077-.359-.172-.804-.094-.444-.172-.81-.077-.365-.113-.562-.037-.197-.09-.549-.053-.351-.135-.922-.083-.571-.138-1.014-.055-.443-.083-.757-.028-.315-.057-.735-.028-.421-.057-.947-.028-.527-.047-.943-.018-.417-.029-.878-.012-.461-.026-.862-.014-.402-.014-.876-.001-.474.002-.946.003-.473.004-.816 0-.344-.002-.717l-.002-.681q-.001-.309 0-.676 0-.368.007-.649.007-.282.015-.469.008-.188.013-.528.005-.341.007-.758.003-.418 0-.743t-.011-.696q-.008-.372-.021-.79-.013-.419-.032-.886-.019-.466-.037-.853-.018-.387-.042-.846-.024-.459-.054-.884t-.082-.88l-.081-.722q-.03-.267-.059-.544-.028-.277-.064-.507-.036-.23-.096-.638-.06-.409-.135-.906-.075-.497-.127-.845-.052-.347-.107-.71-.054-.363-.111-.741-.056-.379-.115-.774l-.053-.27M-535.364 826.572q.06-.087.195-.288.135-.201.346-.516.21-.316.405-.601.195-.286.376-.542.18-.256.362-.511.183-.254.368-.507.185-.252.354-.483l.401-.545q.231-.313.601-.812.37-.499.678-.91.308-.41.678-.894.369-.483.652-.822l.505-.607q.222-.269.478-.58l.529-.642q.273-.329.562-.678.29-.348.543-.642.253-.294.47-.535.218-.24.439-.486.221-.247.446-.499.226-.253.491-.55.264-.298.569-.641.304-.344.585-.656.28-.312.535-.593.256-.281.487-.531.232-.251.543-.581.311-.33.589-.622.277-.292.434-.454.157-.162.408-.406.25-.244.646-.623.395-.38.737-.698.342-.318.63-.574.288-.257.542-.479.255-.222.476-.409.221-.188.457-.383.236-.195.486-.399.251-.203.477-.385.227-.182.531-.423.305-.241.771-.596.466-.354.828-.632.362-.279.615-.469.252-.191.516-.387.264-.195.579-.427.316-.232.682-.5.367-.268.687-.5.319-.232.591-.428.273-.196.498-.357.225-.16.491-.347.267-.187.606-.419.339-.233.589-.404.251-.17.525-.356.274-.186.516-.347.241-.161.554-.367.313-.205.635-.402.322-.197.592-.353.271-.155.597-.335.326-.179.674-.354.347-.174.717-.343.369-.169.698-.31.328-.141.758-.312.43-.17.707-.261.278-.092.434-.134.156-.041.514-.109l.69-.129q.332-.062.758-.142.426-.079.783-.142.356-.064.786-.134.43-.07.756-.096.326-.025.593-.047l.583-.048q.317-.027.556-.047.24-.02.483-.04.243-.019.569-.033.325-.015.542-.014.218.001.498.001.281-.001.699-.001.418 0 .735.001.317.002.638.006t.808.027q.488.023.886.045.398.023.744.053t.773.077q.427.047.778.086.351.039.755.112.404.073 1.344.694M-484.676 796.281q.114-.075.41-.251.295-.175.736-.338.44-.163.776-.208.336-.046.71-.034.373.013.752.08.379.066.765.13.386.063.788.146.401.083.627.129.227.047.542.1.315.054.651.116.336.061.662.121.325.06.749.143.425.083.791.157.367.075.832.169.465.095 1.003.197.538.102.882.185t.667.166q.324.082.739.191l.717.186q.3.078.488.128.187.049.454.132.268.083.614.198t.602.202q.255.086.42.147.164.06.423.159.258.098.61.233t.747.304q.395.17.835.372.439.202.928.449.49.246 1.03.536.541.29.965.521.424.231.731.406.308.174.659.384.351.21.745.457.395.246.774.486.379.239.659.417.281.178.589.374.308.196.583.373.276.177.641.414.366.236.723.475.358.238.654.441.295.203.529.371.233.168.481.349.249.181.512.375t.51.379q.247.185.593.449.347.264.808.637.461.372.634.52.172.148.415.363l.456.405.479.427q.266.237.521.47.256.233.501.463.245.229.48.454.236.225.461.447.225.221.423.418.197.197.453.457.256.259.488.508.232.248.468.507.236.26.476.529.24.27.512.597.271.328.574.714.304.386.591.757t.558.728q.27.357.507.673.236.317.437.593.201.277.372.516.171.24.383.544.211.305.379.542.167.238.372.532.204.295.503.726.298.431.553.801.255.369.466.677.21.308.423.616.214.309.43.617.217.309.391.56.174.25.37.539.196.288.458.713t.44.706q.177.28.342.53.164.25.375.563.211.313.382.576.172.264.368.586.196.322.378.612t.393.616q.21.326.28.457.07.131.176.299l.522.827"/>
    <path fill="none" stroke="#381d1d" stroke-width=".5" d="M-485.146 796.417q.072.15.276.655.204.505.334.895.13.39.272.829.143.438.272.854.128.417.244.811.115.394.2.697.085.304.142.519.056.215.161.616.105.401.254.979.148.577.271 1.089.122.513.221.966.098.453.166.793.069.34.109.572.041.231.094.567.054.335.097.611.043.277.093.605.051.328.096.629.045.301.105.713t.12.861q.061.448.113.879.052.43.095.843.043.413.085.825.043.412.085.824.042.411.087.811.045.4.093.789.049.388.101.783.053.394.109.795.056.4.107.771.051.372.096.713.045.342.086.704.042.363.079.745.038.382.078.787t.083.832q.042.427.084.842.041.415.071.724l.065.647q.033.34.069.75.036.41.075.891.038.481.079 1.032t.084 1.172"/>
    <path fill="none" stroke="#381d1d" stroke-width=".485" d="M-535.071 933.6q-.365-.635-.592-1.046-.226-.412-.367-.685-.14-.273-.274-.554-.134-.28-.276-.596-.142-.316-.239-.546-.098-.229-.155-.376-.057-.148-.134-.375-.078-.227-.174-.531-.097-.303-.177-.595-.081-.293-.147-.576-.066-.282-.128-.618-.061-.336-.119-.723-.059-.388-.099-.724-.041-.335-.064-.62-.022-.284-.038-.599-.015-.315-.023-.661-.008-.346-.009-.678-.001-.333.006-.652t.027-.729q.021-.409.054-.909.034-.501.07-.923.036-.422.075-.766.038-.344.086-.714.049-.369.093-.666.044-.297.089-.567.044-.269.107-.612.062-.342.144-.761.082-.418.187-.916.106-.499.2-.921.095-.422.175-.763.079-.34.143-.599l.128-.518q.065-.258.162-.659.098-.401.175-.718.078-.317.169-.685.091-.367.174-.707.084-.34.197-.808.114-.468.227-.973.113-.505.202-.921.09-.415.185-.9.096-.486.169-.901.073-.416.125-.745.053-.328.109-.708.057-.38.109-.799.053-.42.09-.745.037-.324.077-.692.04-.368.074-.715.034-.346.076-.833.043-.488.08-1.054.037-.566.06-1.027.022-.46.034-.78.012-.319.022-.65.01-.331.017-.65.007-.32.013-.782.006-.462.004-1.033-.001-.572-.009-1.098-.008-.526-.022-1.007-.013-.481-.024-.796-.011-.314-.019-.461l-.023-.488q-.016-.341-.032-.648-.017-.307-.041-.694-.025-.388-.048-.698-.024-.309-.055-.655-.032-.346-.042-.443-.01-.097-.046-.412-.035-.315-.092-.746-.056-.431-.11-.788-.053-.357-.124-.786-.071-.429-.16-.932-.088-.503-.188-1.078"/>
    <path fill="none" stroke="#381d1d" stroke-width=".484" d="M-530.71 933.61q-.188-.245-.403-.533-.215-.288-.458-.619-.242-.331-.457-.633-.214-.303-.399-.575-.185-.273-.423-.671t-.529-.927q-.292-.529-.498-.943-.206-.415-.384-.86-.177-.444-.273-.752-.095-.307-.197-.751-.102-.443-.163-.855-.061-.411-.109-.945-.048-.535-.054-1.143-.006-.609.047-1.315t.133-1.346q.08-.64.184-1.207.103-.566.202-1.038.099-.472.187-.841.089-.369.23-.917.141-.548.343-1.28.201-.731.377-1.349.177-.618.321-1.117.145-.498.288-1.011.142-.512.248-.899.106-.386.221-.815.116-.429.213-.8.098-.37.217-.838.12-.468.213-.87.093-.402.194-.881.1-.479.206-1.031.105-.553.198-1.102.094-.549.175-1.095.081-.547.151-1.127.07-.58.116-1.02.047-.44.092-.934.046-.494.083-.979.038-.485.068-.963.031-.478.054-.949.023-.472.04-.937.016-.466.027-.89.01-.424.016-.999t-.003-1.179q-.009-.605-.023-1.071-.015-.467-.03-.796-.016-.329-.049-.802-.033-.474-.065-.866t-.075-.862q-.044-.47-.087-.882-.044-.413-.106-.945-.062-.533-.126-1.007-.065-.474-.126-.9-.061-.426-.146-.993-.085-.566-.145-.95-.061-.383-.094-.585-.033-.201-.184-1.183"/>
    <path fill="none" stroke="#381d1d" stroke-width=".476" d="M-539.536 933.741q-.049-.245-.111-.548-.063-.304-.145-.669-.083-.366-.17-.758-.087-.393-.178-.811-.092-.419-.183-.885t-.182-.979q-.09-.513-.172-1.095-.083-.582-.157-1.231-.073-.65-.125-1.147-.052-.498-.076-.842-.025-.345-.043-.893-.018-.548-.035-1.3-.018-.753-.023-1.349-.005-.596.008-1.036.014-.44.028-.787.014-.347.039-.728.025-.382.053-.687.028-.306.087-.81t.112-.904q.053-.399.119-.863.066-.463.15-1.003.084-.539.185-1.154.101-.615.201-1.207.101-.592.201-1.163.1-.57.178-1.006.077-.436.131-.738.055-.303.135-.76.081-.456.147-.838.067-.381.147-.838.081-.458.148-.843.067-.386.148-.856.081-.471.136-.811.054-.34.114-.758.06-.418.126-.914.066-.496.117-.929.051-.434.087-.806.036-.371.062-.672.027-.3.043-.529.016-.23.032-.615.017-.385.03-.712.013-.328.03-.726.016-.399.03-.758.014-.359.032-.838.018-.479.028-.96.01-.48.012-.973.002-.494.003-.867l.002-.792v-.795q-.001-.377-.003-.881-.003-.505-.015-1.013-.012-.508-.036-1.107-.025-.6-.067-1.303-.041-.703-.071-1.129-.03-.426-.042-.555-.011-.128-.083-.909-.071-.781-.198-2.261"/>
    <path fill="none" stroke="#381d1d" stroke-width=".47" d="M-433.331 931.427q.041-.056.24-.346.199-.289.485-.771.286-.481.513-.962.227-.482.421-.987.194-.505.328-.898.133-.394.261-.814.128-.42.223-.765.095-.345.28-1.098.186-.752.286-1.204.1-.453.181-.862.08-.41.173-.926.092-.517.157-.913.065-.397.126-.813.06-.415.091-.636.031-.22.07-.529.039-.31.095-.781.056-.472.112-1.06.056-.587.112-1.29.055-.703.092-1.321.037-.617.058-1.15.02-.532.029-1.105.008-.574.005-1.188-.002-.614-.009-1.062-.007-.448-.024-.87-.017-.423-.038-.753-.02-.329-.064-.805-.044-.477-.112-1.211-.069-.734-.126-1.32-.057-.586-.105-1.021-.049-.436-.124-1.087-.075-.65-.165-1.521-.089-.871-.147-1.562-.057-.691-.091-1.198-.035-.506-.057-.951-.021-.445-.032-.828-.01-.383-.008-.909.002-.525.019-1.194.018-.669.039-1.17.022-.501.045-.832.022-.33.071-.871.049-.541.126-1.291.076-.751.14-1.362.064-.611.116-1.082.052-.471.106-.985.054-.513.11-1.068.055-.556.124-1.297.068-.741.149-1.668"/>
    <path fill="none" stroke="#381d1d" stroke-width=".481" d="M-436.957 930.875q.45-.841.786-1.506.336-.664.567-1.151.231-.487.485-1.069.253-.582.524-1.259.27-.677.501-1.326.231-.649.426-1.271.195-.622.338-1.138.144-.516.242-.925.099-.41.2-.889.101-.479.201-1.027.1-.549.195-1.252.096-.702.179-1.559.083-.857.127-1.602.044-.745.057-1.377.012-.632.014-1.099.002-.467-.007-.92-.01-.453-.033-.973-.022-.52-.067-1.122-.044-.602-.114-1.459-.069-.857-.113-1.408-.043-.552-.068-.799-.024-.248-.082-.783-.059-.536-.143-1.359-.084-.824-.159-1.651-.075-.827-.141-1.658-.065-.831-.098-1.388-.033-.558-.042-.841-.01-.284-.002-.936.007-.653.023-1.237.015-.584.046-1.32.03-.736.065-1.335.034-.599.086-1.291.052-.691.12-1.217.068-.527.108-.784.041-.258.111-.634.069-.375.185-.957.115-.583.208-1.016.092-.433.192-.853.099-.421.185-.763.086-.343.214-.984t.21-1.758"/>
    <path fill="none" stroke="#381d1d" stroke-width=".471" d="M-428.61 931.377q.041-.128.125-.413.083-.284.205-.756.122-.472.24-1.027.118-.554.23-1.187.111-.633.194-1.175.082-.541.137-.978.055-.437.097-.807.042-.37.071-.672.03-.302.061-.746.03-.444.054-.814.024-.37.051-.815.028-.446.051-.851.023-.404.052-.952.03-.547.05-1.109l.035-.985q.015-.423.027-.845.011-.421.024-1.234.012-.812.026-1.512.015-.699.021-1.223.007-.523.012-1.259.006-.736.007-1.371.001-.634 0-.933-.002-.3-.008-.713-.007-.414-.016-1.041-.01-.628-.029-1.326-.02-.699-.049-1.467-.029-.768-.054-1.348-.025-.579-.059-1.166-.035-.587-.069-1.072-.034-.485-.073-1.055-.04-.57-.068-1-.027-.429-.056-.908-.029-.478-.05-.859t-.034-.665q-.012-.284-.024-.672-.012-.387-.025-.879-.012-.491-.02-.876-.008-.386-.011-.808-.004-.422.003-1.253.007-.832.018-1.356.011-.525.023-.938l.026-.888q.015-.475.035-.98.02-.505.046-1.04.025-.535.044-.948.019-.414.043-.853.024-.439.101-1.797l.036-.723"/>
    <path fill="none" stroke="#381d1d" stroke-width=".478" d="M-542.513 933.42q-.012-.054-.019-.098-.007-.043-.077-.344-.071-.301-.157-.682-.087-.38-.148-.692-.062-.312-.152-.89-.09-.577-.177-1.276-.087-.699-.129-1.216-.042-.517-.074-.975-.031-.457-.06-1.287-.029-.829-.051-1.478-.023-.649-.027-.944-.005-.294-.001-.721.003-.428.008-1.092.005-.664.008-1.179.004-.515.01-1.057.007-.542.04-1.315.032-.772.069-1.464.036-.692.115-1.814.079-1.121.134-1.733.055-.612.109-1.112l.158-1.464q.104-.963.176-1.678t.161-1.524q.089-.809.14-1.328.05-.52.09-1.061.04-.541.093-1.178.053-.637.119-1.557.066-.919.098-1.39.032-.471.054-1.147.022-.675.067-1.51.044-.834.076-1.27.031-.436.051-.808.02-.371.053-.889t.071-1.101q.038-.583.053-1.018.016-.436.036-1.39.02-.955.025-1.334.004-.379-.007-.835-.012-.457-.033-1.117-.021-.66-.033-1.099-.012-.44-.024-.767t-.042-.725q-.03-.399-.06-.829-.03-.43-.041-.626-.01-.197-.03-.369-.019-.172-.063-1.262"/>
    <path fill="none" stroke="#381d1d" stroke-width=".486" d="m-425.732 883.862.001.106q.002.023.005.363.002.34.003.997 0 .658.003 1.229.002.572.007 1.057t.011.864q.006.38.016.792.011.411.023.912.011.501.014.761.003.261.014.703.011.441.029 1.151l.03 1.249q.014.539.03 1.087.016.548.028.858.012.31.028.629.016.32.041.96.026.64.058 1.456t.039 1.214q.008.398.007.972-.001.575-.017 1.366-.017.792-.028 1.254-.012.461-.022 1.02-.009.558.001 1.168.011.61.041 1.186.031.576.099 1.225.068.65.142 1.301.074.65.148 1.393.073.742.13 1.522.057.78.094 1.397.037.616.045.831.008.215.015.589.007.374.019.977.011.604.02 1.198.008.594.013 1.177.006.582.008 1.025.003.442 0 .902t-.009.828q-.005.368-.039 1.121-.033.753-.066 1.255-.033.501-.075.997-.041.495-.068.907-.028.412-.058.895-.03.482-.052.826t-.046.669q-.024.325-.072.703-.048.378-.075.575-.027.196-.048.422-.02.225-.03.37-.01.145-.009.256.001.111.004.21.002.099.008.155.006.056.009.1.003.044.026.148"/>
  </g>
</svg>
