<svg xmlns="http://www.w3.org/2000/svg" width="204.0587" height="169.7693" viewBox="-361.395 1002.602 153.044 127.327">
  <g stroke-linecap="round" stroke-linejoin="round">
    <path fill="#e4e8e2" stroke="#e4e8e2" stroke-width=".5" d="m-358.943 1024.258-.027.185q-.02.065.02.566.04.501.047.882.007.381.012.624t.048.786q.042.542.097 1.173.056.631.051 1.28-.004.648-.048 1.347-.043.7-.028 1.725.016 1.026.019 2.012.004.987.003 1.503-.002.515.052 1.312.055.797.044 2.204-.01 1.407-.027 2.494-.016 1.086-.074 2.264-.057 1.178-.116 1.785-.059.608-.085.979-.027.371-.04.698-.014.328-.012.762.003.433.001 1.306t.013 1.346q.015.474.074 1.422t.117 2.401q.057 1.454.102 2.362.046.907.072 1.269.026.362.044.539.018.176.036 1.326.019 1.151.078 3.096.059 1.947.133 3.198.075 1.251.069 1.847-.006.596-.053 1.812-.047 1.217-.056 1.968-.01.752.007 1.16.017.408.019 2.723.002 2.314-.019 3.759-.02 1.444-.032 2.116-.013.671-.041 1.545-.006.218-.019.503-.012.286-.029.638-.017.352-.04.771-.022.419-.05.904-.028.486-.053.956-.024.469-.047.923-.022.453-.041.89-.02.438-.036.859-.017.421-.03.779-.014.357-.029.798-.014.44-.02.774-.006.333-.02.745t-.036.902q-.023.489-.031 1.019-.007.529-.001 1.096.006.568.011 1 .004.432.009.73.004.298-.004.746t-.018.82q-.011.372-.027.817-.016.444-.028.862-.012.419-.018.813-.007.394-.008.765-.001.37.004.718.006.347.015.647.01.301.03.68.02.38.058.696.039.316.073.537.034.222.076.411.042.188.235.642.193.455.274.554.082.1.14.143.057.044.265.039.207-.005.349-.05.142-.046.416-.119t.729-.184q.456-.111.865-.195t.77-.143q.361-.06.748-.072.388-.013.685-.01.298.003.633.016l.647.025q.311.013.74.029.428.016.902.033.473.017.922.063.45.045.78.086.331.04.692.09.361.05.691.095l.781.104.812.108q.361.048.666.075.305.026.673.047.369.02.801.034.433.015.929.023.496.008.989.019.494.011.985.026.491.014.98.032.489.018.975.04.487.022.915.04.427.018.797.032.369.015.68.025.311.011.689.022.379.01.987.009.608-.002 1.319-.02 1.423-.035 3.452-.003 2.03.032 3.643.001 1.614-.031 2.583-.095.485-.031 1.174-.082.689-.051 1.582-.12.893-.07 1.572-.116.68-.045 1.145-.067.466-.022.99-.04.524-.018.96-.029l.838-.021q.401-.01.912-.023.511-.014 1.133-.03.622-.015 1.355-.033l1.379-.034 1.209-.03q.561-.015 1.037-.027.475-.013 1.06-.03.584-.018 1.348-.04.763-.021 1.512-.041.749-.019 1.185-.029.435-.009.614-.018.18-.008.732-.028.553-.021 1.012-.029.459-.009.925.002.467.011.857.025.39.014.86.034l.892.04q.424.019.988.044.564.026 1.127.049.563.023 1.095.023.532-.001 1.032-.025.5-.025.96-.053.459-.027 1.089-.07.629-.042 1.464-.104.835-.062 1.289-.061.453.001.998.031.544.03 1.329.091.785.061 1.495.11.711.048 1.348.086.637.038 1.399.054.762.017 1.648.011.886-.006 1.551-.017.664-.01 1.329-.037.664-.027 1.195-.056.53-.028 1.112-.042.582-.014 1.382-.047.801-.032 1.4-.073.598-.04 1.198-.097t1.13-.114q.53-.057 1.15-.134.62-.077 1.151-.147.531-.07 1.181-.16.649-.089 1.288-.166.64-.077 1.27-.139.631-.062 1.253-.106.622-.043 1.236-.068.614-.025 1.186-.04.571-.014 1.1-.02.528-.006 1.013-.005.485.001.925.007 1.766.04 2.584.035.817-.004 1.516.005.349.006.797.042.448.036.993.103.546.068.954.124.407.056.676.099.268.044.687.079.419.035.989.063.57.028 1.027.047.457.018.973.031.517.013 1.128.032.61.02 1.204-.004.594-.025 1.105-.037.512-.011 1.138-.017.627-.005 1.109.005.482.009.819.032.337.023.824.064.487.041.965.089.479.048.857.074.378.027.815.05.437.023.934.045.496.022 1.051.046.556.023 1.058.047.503.024.954.045.45.021.849.036.399.015.92.027.52.012 1.034.012.514.001 1.014-.023t.91-.053q.41-.03 1.196-.062.394-.02.906-.014.512.007.928.007.416 0 .908.002.491.001.928-.005.437-.005 1.01-.02.573-.014 1.107-.032.535-.019 1.086.021.55.039.968.083.418.045.887.109.469.064.85.117l.82.114q.439.062.783.105.345.044.697.084.352.041.741.054.388.013.541-.003.154-.016.321-.056.168-.041.389-.091.042 0 .228-.042.043-.016.24-.289.198-.273.301-.597.104-.323.184-.785.081-.462.127-.863.047-.401.065-.91.018-.509-.042-1.255-.06-.747-.074-1.233-.015-.487-.028-1.255-.003-.383.002-.788t.016-.832q.012-.428.051-.889.04-.461.104-.957.064-.497.104-.943.041-.446.058-.842.017-.396.01-.796-.008-.4-.041-.804-.033-.403-.062-.813-.03-.409-.055-.823t-.029-.896q-.004-.482.01-1.034.015-.552.02-1.006.006-.453.008-.806.003-.352.001-.785-.001-.433-.007-.946-.006-.513-.008-1.126-.001-.613.002-1.325.002-.712-.003-1.246-.005-.535-.016-.894-.011-.358-.019-.863-.007-.505-.013-1.155-.005-.649-.019-1.256-.015-.607-.039-1.171-.023-.564-.052-1.024-.029-.459-.08-.993-.051-.533-.06-.831-.008-.297-.006-.702.002-.405.008-1.016.005-.61.003-1.17-.003-.561-.014-1.071-.011-.511-.024-1.017-.013-.506-.027-1.007-.014-.501-.034-1.057-.019-.557-.035-.987-.017-.431-.035-.921-.018-.49-.033-.922-.014-.433-.028-.995-.015-.562-.022-1.084-.008-.522.007-1.058.016-.537.056-1.088.041-.551.076-1.024.035-.473.061-.87l.047-.716q.021-.319.035-.56.013-.242.023-.594.009-.351.016-.812.007-.46.004-.808-.003-.349-.017-.585-.015-.237-.038-.738-.022-.502-.049-1.268-.027-.766-.043-1.33-.016-.564-.027-1.109-.01-.544-.045-.988-.035-.445-.061-.89-.027-.445-.056-1.039-.029-.593-.064-1.145t-.075-1.062q-.04-.51-.07-.876-.029-.366-.048-.589-.037-.447.04-1.289.077-.843.142-1.356.065-.513.071-.643.005-.13.004-.433t-.015-.78q-.015-.476.036-1.179.05-.703.102-1.039.052-.337.121-1.093.07-.755.086-1.208.016-.453.023-.784.007-.331.003-.483-.004-.151-.044-.432-.039-.281-.104-.602-.064-.32-.158-1.036-.095-.716-.137-1.098-.041-.383-.081-.686-.04-.303-.069-.589-.03-.285-.047-.915-.017-.63-.013-.98.004-.35.057-.694.053-.343.216-1.208.05-.409.271-1.336"/>
    <path fill="#93d3df" stroke="#93d3df" stroke-width=".5" d="M-307.212 1059.84q-.019.046-.035.246-.016.201-.035.552-.019.351-.039.781-.02.431-.031.712-.011.282-.02.529-.008.246-.011.597-.002.35.024.614.027.265.048.384.022.119.063.253.042.134.092.221.009.014.122.073.112.059.212.112.099.053.222.076.122.023.347.077.224.053.375.085.15.031.432.034.281.003.581-.023.3-.026.633-.032.334-.007.645-.011.311-.004.71-.007.4-.003.774 0 .373.002.722.011.349.008.603.013.255.005.497.007.241.002.519.017.278.014.651.02.372.006.655.001.282-.004.598-.018.316-.013.603-.023t.675-.02q.387-.01.755-.044.368-.033.806-.081.438-.048.855-.069.416-.02.957-.031.541-.011 1.021-.02.48-.008.899-.013.419-.005.743-.01.325-.005.555-.007.23-.001.665.007.434.008.81.013.375.005.835.008.461.002.868.002l.762-.002q.356-.002.66-.003h.683q.38.001.784-.006.405-.008.86-.032.456-.024.784-.043.328-.019.717-.027.389-.009.79-.02.402-.012.808-.025.406-.013.698-.002.293.01.608.041.315.03.636.055.322.024.649.043.327.019.662.024.335.005.679-.005.344-.009.601-.018t.428-.018q.17-.009.49-.029.32-.019.789-.05.469-.03 1.011-.042.541-.011 1.155-.003.613.008 1.148.022.535.014.991.034.456.019.794.031t.669.017q.33.005.608-.003.277-.009.63-.01.352-.002.871.004t.962.009l.756.005q.313.003.644.005.33.003.62.007.289.003.662.009.373.006.706.011.333.004.646.017.313.012.751.042.438.029.845.048.407.018.626.023.22.004.574.009.355.005.596.007.24.002.556.001.317 0 .732-.009.415-.008 1.037-.03.621-.023 1.088-.046.467-.024.778-.042.311-.018.643-.032.332-.013.685-.022.353-.008.724-.011.371-.002.761.003.389.005.755.014.365.008.706.019.341.012.616.02.276.008.593.014.317.006.598.008.282.003.551.005.269.002.618.005.35.004.675.008.326.005.777.015.452.011.995.016.544.004.932.015.387.01.629.024.241.014.635.04.394.026.741.026t.78-.018q.432-.018.766-.034.334-.016.686-.038.352-.021.935-.054.583-.033.911-.038.328-.005.676.013.348.018.84.026.492.009.846-.004.355-.012.782-.022.427-.011.664.001.236.012.568.009.332-.003.568-.001.237.002.301-.002l.103-.008q.04-.004.109 0t.677-.177q.131-.153.18-.25.049-.098.05-.101 0-.003.049-.2.048-.196.081-.583.033-.387.037-.591.004-.203-.01-.368-.014-.166-.014-.18.001-.014-.034-.317-.036-.304-.055-.457-.02-.154-.031-.255-.011-.102-.032-.19-.021-.087-.041-.22-.02-.132-.027-.164-.008-.031-.024-.126-.017-.095-.032-.162t-.021-.083q-.006-.016-.067-.325l-.039-.192q-.62-.024-1.238-.042-.618-.019-1.234-.031-.615-.013-1.228-.021-.612-.007-1.221-.012-.61-.004-1.216-.006-.607-.003-1.211-.004-.604 0-1.207-.001h-1.203q-.6 0-1.2.001h-1.199q-.599 0-1.198.001h-1.197q-.598 0-1.197.001h-1.196q-.598 0-1.197.001h-2.392q-.598.001-1.197.001h-1.196q-.598.001-1.196.001h-1.196q-.599.001-1.197.001h-1.196q-.598.001-1.196.001h-1.197q-.598 0-1.196.001h-2.393q-.598.001-1.196.001h-1.196q-.598.001-1.197.001h-1.196q-.598.001-1.196.001h-1.196q-.599.001-1.197.001h-1.196q-.598.001-1.196.001h-1.197q-.598 0-1.196.001h-1.196q-.598 0-1.197.001h-1.196q-.598 0-1.196.001h-2.393q-.598.001-1.196.001h-1.196q-.599.001-1.197.001h-1.196q-.598 0-1.196.001h-1.197q-.598 0-1.196.001h-1.196q-.598 0-1.197.001h-2.392q-.598.001-1.196.001h-1.197q-.598.001-1.196.001h-1.196q-.599.001-1.197.001h-1.196q-.598 0-1.196.001h-1.197ZM-306.802 1070.634l-.014.025-.065.245q-.021.077-.051.278-.03.2-.077.531t-.096.629q-.05.298-.123.694-.074.395-.127.676-.052.28-.074.561-.023.281-.009.471.013.191.13.438.118.248.195.343.077.095.167.147.089.053.163.081.073.028.144.043.071.016.199.044.128.029.284.048.155.02.195.025.04.005.261-.007.222-.013.634-.036.411-.024.774-.037.363-.015.834-.024.47-.009.917-.014.448-.006.798.003.351.008.756.025.405.016.755.022.349.005.799.014.45.009.994-.01.544-.02.915-.035.37-.014.769-.005.398.01.942.025.544.016.98.012.436-.003.769-.015.333-.013.673-.033.341-.02.691-.048.349-.027.62-.044.27-.018.463-.024.192-.007.59-.012.398-.005 1.001-.009.603-.004 1.081-.012.477-.008.829-.021.351-.013.608-.022t.419-.014q.163-.005.41-.006.247-.001.577.006.329.007.631.011.303.005.713.014.409.009.773.02.364.011.58.023.216.012.374.035.159.024.652.011.494-.013.865-.015.186-.003.431-.005t.552-.002q.307 0 .583.008.276.008.651.026t.653.046q.141.012.432.032.29.02.558.021.267 0 .621-.032.354-.033.642-.066.287-.034.606-.066.32-.031.558-.051.239-.019 1.247-.015.483.034.939.011.456-.022.811-.027.354-.005.638-.005.284.001.596.011.312.01.541.024.229.014.641.028.412.014 1.077.02.68-.051 1.258-.057.579-.006 1.074.026.502.037.907.047.406.011.864-.013.458-.024.857-.057.399-.033.694-.053.296-.02.631-.027.334-.008.764.009t.77.041q.34.025.624.041.283.017.491.028.208.01.4.023.192.013.478.039.286.026.841.085.555.058.95.058.395.001.764-.038.37-.04.679-.084.308-.044.667-.089.359-.046.663-.07.304-.023.679-.031.376-.007.702.002.327.009.609.011t.513.008q.232.006.506.019.275.012.593.031.318.018.578.03.261.012.566.017.305.006.566-.001.261-.006.643-.038t.97-.085q.588-.053 1.113-.068.525-.015.991.001.466.016.966.043.499.027 1.04.052.54.024 1.053.039.513.016.999.023.486.007.952.02.465.013.907.039.442.025.831.043.388.017.887.033.498.017.891.008.393-.009.762-.006.369.002.603.025.234.023.595.043.361.019.745.015.384-.005.648-.019.265-.015.313-.019.049-.004.272.001.224.006.437.02.213.015.38.018.166.003.289.009.124.006.254.007.131.001.24 0 .11-.002.141-.003l.059-.002q.027-.002.595-.143.094-.083.134-.121.041-.039.116-.155.075-.117.163-.447.088-.33.105-.834t.004-.79q-.013-.286-.018-.405-.004-.12-.021-.258-.017-.139-.025-.337t-.01-.316q-.002-.119-.016-.195-.014-.077-.02-.221-.007-.143-.012-.307t-.026-.385q-.051-.117-.052-.132l-.048-.106q-.587-.098-1.037-.161-.45-.064-.754-.091-.303-.027-.609-.048-.307-.02-.615-.031t-.619-.013q-.311-.001-.624.005-.312.006-.627.018-.314.013-.629.03-.316.017-.67.039-.355.023-.63.042-.276.018-.59.04-.315.021-.628.041-.314.02-.625.039-.312.019-.622.035-.31.017-.618.032-.309.014-.615.026-.307.013-.764.027-.458.015-1.062.028-.604.012-1.204.02-.6.007-1.198.011-.598.003-1.194.005-.596.001-1.192.001-.595 0-1.19-.001t-1.19-.003l-1.189-.002-1.19-.004q-.594-.001-1.189-.003-.595-.002-1.189-.003-.595-.002-1.19-.003l-1.189-.004q-.595-.001-1.189-.003-.595-.001-1.19-.003-.594-.002-1.189-.003l-1.189-.004q-.595-.001-1.19-.003-.594-.001-1.189-.003-.595-.002-1.189-.003l-1.19-.004q-.594-.001-1.189-.003-.595-.002-1.189-.003-.595-.002-1.19-.003l-1.189-.004q-.595-.001-1.189-.003-.595-.002-1.19-.003l-1.189-.004q-.595-.001-1.189-.003-.595-.001-1.19-.003-.594-.002-1.189-.003l-1.189-.004q-.595-.001-1.19-.003-.594-.001-1.189-.003-.595-.002-1.189-.003l-1.19-.004q-.594-.001-1.189-.003-.595-.002-1.189-.003-.595-.002-1.189-.003l-1.19-.004q-.594-.001-1.189-.003-.595-.002-1.189-.003-.595-.002-1.19-.003l-1.189-.004q-.595-.001-1.189-.003-.595-.002-1.19-.003l-1.189-.004q-.595-.001-1.189-.003-.595-.001-1.19-.003-.594-.002-1.189-.003l-1.189-.004q-.595-.001-1.19-.003-.594-.001-1.189-.003-.595-.002-1.191-.002-.596-.001-1.197.003ZM-307.179 1081.847l-.153.123q-.036.128-.115.507-.079.379-.074.655.005.276.001.568-.004.292-.03.696-.026.404-.053.679-.027.274-.04.491-.013.216.003.442.016.227.039.31.023.083.077.181.055.098.056.103.002.004.061.061.06.057.07.067.01.011.232.083.222.072.525.088.302.016.762.001t.834-.025q.374-.01.66-.015.287-.006.644.003.357.009.777.033.42.024.745.037.325.013.565.013.239.001.571-.006.331-.006.755-.02.424-.013.756-.019.331-.007.57-.006.239 0 .516.014.278.014.594.041.316.027.633.044.318.018.637.026t.569.008q.25.001.521-.009.27-.011.658-.021.388-.01.747-.027.358-.017.652-.033.294-.015.643-.035.349-.019.656-.037.308-.018.708-.042.399-.025.767-.051.368-.025.64-.04.271-.015.447-.018.351-.007.831-.008t1.21.02q.729.021 1.96-.012.615-.017 1.072-.035.457-.018.905-.047.447-.029 1.042-.007.594.022 1.073.04.48.019 1.088.005.608-.014 1.069-.013.461.001 1.005.02.545.018.815.026.27.008.505.007.234-.001.552-.008.319-.007.494-.014t.558-.009q.382-.003.68.011.298.013.641.049.343.036.637.078.293.042.651.087.359.044.716.05.356.006.66-.021.305-.027.678-.081.374-.054.763-.095.388-.041.794-.051.828.044 1.314.068.486.024.849.033.363.01.75-.024.387-.035.741-.082.353-.047.688-.079.336-.031.621-.028.286.002.514.027.467.068.924.141.457.073.821.085.364.013.488-.007t.278-.065q.154-.046.209-.078.055-.032.084-.058.029-.026.056-.054.028-.028.027-.033 0-.005.045-.127-.05-.122-.334-.386-.283-.263-.573-.433-.289-.17-.722-.432-.433-.261-.664-.413-.232-.152-.361-.259-.13-.108-.261-.216-.132-.108-.29-.232-.157-.125-.472-.343-.315-.217-.514-.356-.199-.139-.285-.222-.086-.082-.123-.121-.037-.039-.073-.071-.037-.032-.057-.046-.021-.013-.113-.096-.092-.084-.139-.135-.046-.052-.082-.1-.036-.047-.093-.131t-.139-.246l-.062-.222q-.354.012-.717.029l-.726.034q-.363.016-.715.028-.352.013-.691.02-.338.007-.665.009-.327.003-.647.003-.321 0-.638-.001t-.634-.003l-.632-.004q-.315-.001-.631-.003l-.631-.004q-.316-.002-.632-.003l-.631-.004-.631-.004-.631-.004q-.316-.001-.632-.003l-.631-.004-.631-.004q-.316-.002-.631-.003l-.632-.004-.631-.004-.631-.004q-.316-.001-.632-.003l-.631-.004-.631-.004q-.316-.001-.631-.003l-.632-.004-.631-.004q-.316-.002-.631-.003l-.631-.004-.632-.004-.631-.004q-.316-.001-.631-.003l-.631-.004-.632-.004q-.315-.001-.631-.003l-.631-.004-.632-.004q-.315-.002-.631-.003l-.631-.004-.631-.004-.632-.004q-.315-.001-.631-.003l-.631-.004-.631-.004q-.316-.002-.632-.003l-.631-.004-.631-.004q-.316-.001-.632-.003l-.631-.004-.631-.004q-.316-.002-.631-.003l-.632-.004-.631-.004-.631-.004q-.316-.002-.632-.003l-.633-.004q-.317-.002-.636-.005-.319-.002-.643-.005t-.656-.007q-.332-.004-.674-.009-.342-.005-.693-.011-.351-.007-.704-.013-.354-.005-.703-.009Z"/>
    <path fill="#ff8897" stroke="#ff8897" stroke-width=".5" d="m-238.595 1031.241-.009.012q-.024.031-.073.088l-.028.084q-.038.09-.084.507-.046.416-.069.791-.024.374-.091.766-.066.391-.097.711-.03.32-.049 1.243-.02.924-.03 1.606-.011.683-.01.982.001.299-.001.493t.022.936q.023.742.07 1.442.046.7.069 1.362.023.662.036 1.731.013 1.069.023 1.595.009.526.021.995.012.469.058.712.045.243.064.302.019.058.053.108.034.048.067.072.032.023.036.03.004.006.366.046t.609.008q.246-.033.495-.082t.41-.079q.16-.03.889-.019t1.19.017q.461.006.689 0 .228-.005.412-.023.184-.016.581-.015.397.001.644.021.246.02.494.043.247.024.541.036.294.013.746-.039.451-.051 1.003-.082.552-.031 1.343.002.791.033 1.464.087.673.055 1.131.092.459.038.884.037.424-.001.633.006.209.006.713.031.504.026.75.044.247.019.389.043.142.023.316.064.175.041.291.062.116.021.338.044.221.023.323.025.101.003.202.009.101.007.189-.007.088-.013.144-.03.057-.016.118-.047.06-.031.152-.109l.055-.112q.023-.08-.005-1.013-.027-.933-.051-1.544-.024-.612-.023-.918l.003-.462q.002-.155.007-.462.004-.307.071-.865.066-.559.105-1.033.039-.474.042-.731.004-.258.007-.521.002-.262.005-.705.003-.443.001-.865-.001-.422-.018-.738-.017-.316-.043-.487-.026-.171-.086-.625-.06-.453-.119-.884-.06-.43-.088-.758-.029-.327-.022-.577.007-.251.017-.466.011-.215.022-.575t.025-.578q.014-.218.014-.497-.001-.28.001-.528t.007-.374q.006-.126-.001-.173-.007-.046-.03-.223-.019-.02-.027-.029l-.02-.02q-.013-.011-.129-.252"/>
    <path fill="#b5d7ac" stroke="#b5d7ac" stroke-width=".5" d="m-343.354 1021.818.026.047.025.128q.013.124.034.253.021.128.067.369.045.24.067.37.022.13.034.213.012.082.045.263t.089 1.05q.056.87.068 1.328.012.459.11 1.078.099.62.158 1.075.059.455.092.799.033.344.096.798.064.454.174 1.025.11.571.245 1.288.135.717.212 1.145.077.427.165.99.089.562.205 1.26.116.697.194 1.205.077.507.136.95.058.444.212 1.552.153 1.108.232 1.718.078.61.137 1.022.058.413.164 1.358.105.944.124 1.151.019.206.057.696.038.49.108 1.416.07.925.133 1.413.064.487.158 1.118.094.631.214 1.234.119.603.309 1.564.19.96.585 1.828.044.055.543.036.5-.018.852-.094.352-.075.533-.103.182-.028.777-.051.596-.022 1.064-.038.467-.016.839-.073.371-.058.663-.115.292-.057.784-.118.493-.06 1.129-.141.636-.082 1.015-.117.379-.035.833-.008.453.028 1.05.029.597.002 1.179-.058.583-.06 2.077-.111 1.494-.05 2.569-.105 1.075-.054 1.899-.137.824-.083 1.267-.135.442-.053 1.019-.068.576-.016 1.11-.053.534-.038 1.335-.089.8-.051 1.214-.071.413-.02 1.078-.141.666-.121 2.146-.333 1.481-.212 2.219-.32.738-.108 1.054-.163.315-.055.691-.122.375-.068.758-.11.382-.042.56-.059.178-.018.47-.044.291-.026.51-.03.219-.004.337-.004.118 0 .317-.001.198-.002.312-.005.113-.003.234-.002.121.001.166-.004.046-.005.286-.028-.618-.45-1.235-.899-.617-.449-1.235-.899-.617-.449-1.235-.898-.617-.449-1.234-.899-.618-.449-1.235-.898-.618-.45-1.235-.899-.618-.449-1.235-.899-.617-.449-1.235-.898-.617-.45-1.235-.899l-1.234-.898q-.618-.45-1.235-.899-.618-.449-1.235-.899-.618-.449-1.235-.898-.617-.449-1.235-.899-.617-.449-1.235-.898-.617-.45-1.235-.899-.617-.449-1.234-.899-.618-.449-1.235-.898-.618-.45-1.235-.899-.617-.449-1.235-.898-.617-.45-1.235-.899-.617-.449-1.235-.899l-1.234-.898q-.618-.45-1.235-.899-.618-.449-1.235-.898-.617-.45-1.235-.899-.617-.449-1.235-.899-.617-.449-1.235-.898-.617-.449-1.236-.898-.618-.448-1.239-.895-.621-.446-1.249-.888-.628-.441-1.264-.876ZM-291.515 1017.678q.097-.176.156-.253.059-.078.099-.133.039-.056.128-.162.089-.105.203-.222.114-.117.384-.364.269-.247.519-.428t.838-.569q.588-.388 1.058-.702.47-.314.929-.558.459-.244.985-.49.526-.247.768-.356.241-.11.491-.184l.612-.181q.361-.107.637-.199.276-.092.543-.16.267-.069.652-.115.386-.045.759-.09.373-.044.622-.054.249-.01.502.018.253.029.434.051.18.023.526.053.347.031.827.149.479.117.73.196.252.08.558.184.307.105.514.202.206.097.346.182.14.085.658.393l.795.471q.276.164.589.359.313.195.662.389.35.194.629.371.278.177.794.709.515.531.824.944.31.414.526.751.216.338.335.52.12.182.323.42.204.238.307.341.103.103.29.315.188.212.312.417.125.204.26.383.134.178.229.284.094.105.248.325.154.22.328.569.175.349.249.46.075.111.103.16.028.049.096.195.069.145.121.285.052.139.088.248.035.109.062.176.026.066.054.134.027.067.034.088.008.02.024.086.016.065.025.106.008.04.024.094t.024.119q.008.065-.005.155l-.07.052q-.006.017-.515.097t-1.075.123q-.566.044-.815.066-.248.022-.392.023-.143 0-.356-.007t-.339-.024q-.127-.018-.293-.05-.166-.032-.219-.048-.053-.016-.147-.058-.094-.041-.197-.087-.102-.046-.136-.06-.034-.014-.119-.083-.085-.069-.137-.119-.053-.049-.158-.144-.104-.095-.117-.106-.013-.01-.309-.358-.295-.348-.469-.515-.173-.168-.326-.343-.154-.175-.246-.28-.092-.106-.276-.276-.184-.17-.302-.29-.118-.119-.206-.202-.088-.083-.248-.207-.16-.124-.306-.263t-.298-.263q-.153-.124-.258-.193-.105-.07-.276-.188-.17-.118-.296-.226-.125-.108-.251-.228-.127-.12-.458-.371t-.54-.384q-.208-.133-.371-.209-.163-.075-.324-.147t-.251-.116q-.091-.043-.148-.076-.058-.032-.252-.157-.195-.124-.382-.226-.188-.103-.325-.175-.137-.071-.318-.18t-.284-.165q-.102-.056-.335-.154l-.356-.152q-.123-.053-.2-.092-.077-.039-.221-.092-.145-.054-.224-.078-.079-.024-.191-.066-.113-.042-.185-.064-.071-.023-.094-.029-.023-.005-.089-.025t-.386-.073q-.32-.052-.555-.069-.235-.018-.37-.03-.136-.013-.295.012-.159.024-.348.047-.189.022-.409.035-.221.013-.362.033-.142.021-.237.032-.096.011-.145.013-.049.003-.101.001-.052-.001-.099-.007-.047-.006-.053-.008-.006-.001-.39-.008-.647.127-1.296.255-.649.129-1.31.266-.661.136-1.353.294-.693.158-1.419.34Z"/>
    <path fill="#b5d7ac" stroke="#b5d7ac" stroke-width=".5" d="M-315.52 1042.022q-.152-.064-.19-.085-.039-.021-.046-.027-.007-.007-.451-.233-.445-.226-1.053-.577-.608-.35-.925-.537-.318-.186-.501-.287-.184-.1-.743-.403-.56-.303-1.495-.904-.935-.602-1.453-.939-.517-.338-.861-.619-.173-.14-.418-.316t-.563-.387q-.318-.211-.567-.377-.249-.166-.519-.348-.27-.181-.628-.483-.358-.301-.54-.468-.181-.166-.325-.297-.143-.131-.414-.41-.271-.278-.435-.454-.164-.177-.315-.331-.151-.155-.336-.287-.186-.131-.41-.297-.224-.167-.378-.279-.153-.113-.194-.143-.04-.03-.2-.119-.159-.089-.282-.148-.122-.06-.285-.207-.162-.147-.384-.349-.222-.202-.325-.318-.103-.115-.132-.164-.028-.048-.11-.182-.042-.112-.049-.142-.006-.03-.002-.09t.023-.112q.019-.052.074-.19.056-.139.407-.613.35-.474.81-.941.459-.467.68-.681.221-.213.339-.351.119-.137.347-.432.229-.295.562-.622.332-.328.527-.492.194-.165.429-.43.235-.264.343-.397.109-.134.219-.257.109-.122.184-.199.075-.077.16-.159.086-.082.149-.141.062-.058.347-.365t.442-.482q.158-.174.299-.312.141-.137.397-.348.255-.21.425-.363.169-.153.245-.223.076-.07.526-.462.45-.393.781-.72.331-.328.558-.528.228-.201.377-.315.149-.114.257-.188.107-.074.31-.242.203-.169.476-.417.273-.247.417-.368.144-.12.572-.458.428-.337.789-.64.36-.303.846-.723.486-.419.709-.6.224-.18.356-.277.132-.097.279-.184.148-.087.448-.318.3-.231.543-.432.242-.201.558-.449.317-.248.777-.623.461-.375.721-.567.259-.192.813-.62.554-.428.843-.658.289-.23.41-.326.122-.096.284-.235.162-.139.483-.396.32-.257.519-.398.199-.14.422-.307.224-.167.636-.457.412-.29.814-.545.402-.255.74-.47.338-.216.672-.393.333-.177.581-.301.248-.124.566-.305.319-.18.686-.338.368-.157.655-.265.287-.108.694-.281.406-.172.647-.264.24-.092.659-.216.419-.124.982-.32.562-.197 1.306-.441.743-.244 1.126-.384.383-.139.828-.295.445-.155 1.005-.333.561-.179.803-.249t.936-.212q.695-.143 1.078-.211.384-.069 1.035-.083.651-.014 1.167-.032.516-.017.989-.046.473-.029 1.327.078.853.108 1.336.177.484.07.723.098.239.028.686.081.447.053 1.019.193.572.139.973.247.4.108.71.183.309.076.524.148.215.072.378.162.164.089.386.185.223.096.424.154l.454.131q.252.073.443.145.19.072.349.141.158.07.261.113.103.043.218.082.115.04.226.073.111.033.726.188.614.156 1.044.348.429.192.662.317.234.126.748.301.515.175.933.332.419.158.717.329.299.171.831.563.532.393.813.623.281.23.515.483.234.253.559.582.326.33.491.488.166.159.386.475.219.317.355.515.136.197.569.615.434.418.608.624.174.206.362.419.188.214.419.442.232.227.432.491.199.264.302.479.103.215.247.523.144.308.269.545.124.237.202.401.079.163.186.471.107.308.274.731.167.423.233.607.066.185.123.389.057.205.1.324.042.119.075.244.033.125.05.216t.052.216q.034.124.056.191.021.067.054.141.034.073.053.133.019.059.059.202.04.143.065.213t.09.223q.064.153.112.258.047.105.069.195.022.089.118.436.097.346.133.515.036.169.038.252.001.083.003.147.001.064-.014.056-.016-.009-.037-.014-.022-.006-.086-.028-.063-.023-.068-.023-.006.001-.136-.106-.13-.106-.209-.192-.079-.086-.117-.133-.037-.047-.097-.122-.06-.076-.072-.086-.012-.011-.195-.235-.183-.224-.469-.52-.286-.296-.52-.513-.235-.218-.505-.522-.27-.305-.358-.411-.087-.106-.405-.514-.318-.407-.56-.679-.242-.273-.37-.424-.128-.152-.209-.265-.082-.114-.196-.289t-.406-.57q-.291-.394-.552-.689-.261-.295-.433-.463-.172-.167-.595-.609-.423-.441-.739-.77t-.48-.496q-.164-.166-.264-.253-.099-.086-.236-.209-.138-.124-.222-.2-.083-.077-.342-.284-.258-.207-.532-.377-.273-.17-.392-.24-.119-.07-.472-.235-.353-.166-.581-.271-.229-.106-.388-.176-.158-.071-.229-.097-.071-.025-.568-.164-.497-.139-.769-.201-.271-.062-.496-.11-.224-.048-.37-.077-.146-.029-.359-.054-.214-.025-.325-.029-.112-.005-.197-.008-.086-.003-.377.009-.291.012-.748.091-.456.079-.948.172-.492.093-.793.169-.301.076-.448.123-.147.047-.576.172-.429.125-1.002.338-.574.213-1.072.458-.499.246-.743.377-.244.132-.4.202-.155.071-.45.24-.295.169-.67.425-.374.255-.8.591-.427.335-.671.52-.243.185-.604.457-.36.273-.523.412-.164.138-.605.553-.441.414-.735.679-.295.264-.493.451-.199.187-.487.443-.289.255-.449.391-.16.137-.364.349-.204.213-.417.415-.214.202-.389.373-.174.17-.264.27-.091.099-.169.191-.079.091-.352.369-.273.277-.434.425-.162.147-.286.276-.124.128-.193.195-.068.066-.312.262M-265.511 1082.291l.015.037q.017.04.405.393.388.352.882.694.494.341.941.684.447.344.678.524.232.18.488.325.256.146.535.321.279.176.409.26.131.084.22.138.09.053.113.059.023.007.657.435.633.429.874.61.241.182.367.272.126.091.342.233.216.143.515.387.298.245.626.514.328.27.505.412.176.142.536.408.36.266.578.42.218.155.318.222.101.067.24.152.138.084.543.361.405.277.694.467.289.19.668.461.379.271.998.687.619.417 1.266.847.648.43 1.043.685.395.254.866.559.47.304.722.47.252.166.412.277.16.112 1.11.78.474.337.842.603.368.266.761.56.393.295.64.489.247.193.589.469.342.275.659.563.317.287.878.728.561.441.933.7.373.259.674.459.3.199.651.434.352.235.973.693.621.459 1.006.761.385.303.654.52.269.217.454.348.185.131.268.185.084.054.297.203.213.15.591.399.379.25.687.452.308.202.655.445.347.244.811.607.463.364.699.578.236.213.437.408.2.195.382.372.181.176.438.394.257.218.651.537.394.32.719.585.326.265.714.584.388.319.686.579.297.26.511.431.213.171.347.274.135.103.346.267.211.165.645.48.434.316.624.43.19.114.259.144.07.029.128.044.058.015.062.014.005 0 .012-.16.007-.159-.016-.327-.023-.167-.054-.365-.031-.198-.05-.442-.02-.244-.032-.419t-.075-.467q-.063-.292-.151-.785-.088-.494-.152-.794-.063-.301-.193-.887-.129-.586-.189-.909-.061-.323-.091-.484-.03-.161-.041-.231-.011-.069-.081-.537-.069-.468-.096-.813-.027-.345-.033-.593-.007-.249-.048-.594-.041-.344-.039-.706.001-.361.007-.557.006-.195-.002-.306-.008-.111-.022-.227-.014-.117-.139-.74-.126-.623-.202-.992-.075-.369-.102-.66-.027-.29-.067-.568-.04-.277-.142-.756-.103-.479-.196-.987-.092-.508-.169-.889-.077-.381-.164-1.055-.087-.674-.134-1.118-.048-.444-.118-.869-.07-.424-.122-.83-.052-.406-.072-.716-.02-.309-.065-.734-.044-.425-.071-.711-.026-.287-.064-.785-.038-.497-.105-.954-.066-.457-.101-.74-.035-.282-.069-.593-.034-.312-.111-.884-.078-.573-.146-1.075-.069-.501-.109-.804-.04-.302-.114-.68-.073-.378-.125-.674-.051-.296-.078-.559-.028-.262-.065-.56-.038-.298-.061-.458-.024-.16-.032-.258-.008-.099-.017-.177-.009-.079-.039-.251-.029-.171-.042-.271-.013-.1-.022-.154-.01-.053-.023-.103-.013-.05-.026-.137 0-.064-.003-.08-.002-.017-.003-.107-.567.068-1.123.131-.555.063-1.101.122-.547.059-1.09.117-.543.058-1.086.115-.543.058-1.085.115-.542.058-1.085.115-.542.057-1.085.115l-1.084.114q-.543.058-1.085.115-.542.058-1.085.115-.542.057-1.084.115l-1.085.114q-.543.058-1.085.115-.542.058-1.085.115-.542.057-1.084.115-.543.057-1.085.115l-1.085.114q-.542.058-1.085.115-.542.057-1.084.115-.543.057-1.085.115l-1.085.114q-.542.058-1.085.115-.542.058-1.084.115-.543.057-1.085.115-.542.057-1.085.115l-1.085.114q-.542.058-1.084.115-.543.057-1.085.115-.542.057-1.085.115l-1.084.114q-.543.058-1.085.115-.543.058-1.085.115ZM-297.033 1108.34q-.048-.001-.197-.027-.148-.026-.382-.034-.235-.009-.383-.009-.148-.001-.384-.005-.236-.005-.549.001-.314.007-.643.042-.329.036-.576.044-.247.007-.539-.002-.291-.01-.613.037-.321.046-.568.092-.248.045-.427.077-.179.031-.422.145-.018.022.019.132.037.111.085.184.047.073.107.156t.179.238q.119.154.309.402.19.248.347.482.157.235.246.38.089.145.14.227.051.082.168.283.118.2.148.254.029.054.271.445.242.391.384.609.142.218.333.472.191.254.313.394t.196.218q.073.079.345.292.271.212.427.324.157.113.257.19.101.076.159.122.059.047.192.141.133.095.252.174.119.078.229.176.111.097.239.241t.294.298q.165.153.278.257.112.103.223.227.111.124.232.28.121.157.278.34.158.182.246.272.088.09.174.162.086.073.303.272.217.2.431.39.214.191.358.296.144.104.313.213.168.109.34.217.172.108.29.192.119.084.458.275t.58.312q.241.121.393.19.152.069.373.133t.508.154q.288.089.559.143.271.054.416.066.146.012.538.06t.77.092q.378.045.602.054.223.008.523.01.3.003.66 0 .361-.004.599-.025.238-.022.506-.071.268-.049.48-.093.212-.045.498-.132.287-.087.421-.133.135-.046.359-.146.225-.099.584-.267.36-.169.632-.301.272-.131.548-.275.276-.144.44-.238.165-.093.392-.23.228-.137.532-.304.304-.167.641-.406.337-.238.485-.357.148-.118.383-.28.235-.162.402-.279.167-.117.328-.248.162-.131.245-.203.083-.073.183-.156.1-.083.289-.236.189-.152.35-.309.162-.158.278-.29.117-.133.271-.297.154-.163.285-.306.132-.143.184-.203.053-.06.075-.091.022-.032.027-.045-.014.016-.272.154-.258.139-.641.335-.383.197-.583.287-.201.091-.31.131-.109.041-.257.091-.147.049-.346.112-.199.063-.343.111-.144.048-.461.134-.317.086-.636.133-.319.046-.737.12t-.636.109q-.218.034-.44.057t-.542.067q-.32.045-.684.069-.365.025-.556.034-.19.01-.439.008-.249-.001-.358-.011-.11-.009-.338-.021-.229-.011-.363-.018-.134-.007-.35-.013-.216-.006-.424-.025-.209-.02-.405-.052-.197-.032-.287-.057-.09-.024-.222-.053-.131-.03-.261-.059-.129-.028-.219-.059-.09-.031-.225-.079-.135-.047-.316-.097-.182-.05-.376-.125t-.332-.145q-.139-.071-.316-.201t-.369-.273q-.192-.143-.394-.302-.202-.158-.256-.195-.053-.037-.112-.069-.058-.033-.194-.107-.136-.075-.167-.095-.031-.019-.102-.066-.071-.046-.136-.092-.065-.046-.103-.07-.037-.025-.103-.073-.066-.048-.127-.102-.06-.053-.092-.08-.032-.026-.058-.043-.025-.017-.096-.086l-.078-.095"/>
    <path fill="#b5d7ac" stroke="#b5d7ac" stroke-width=".5" d="m-254.109 1090.391.016.012.091.095q.026.037.137.132.11.094.336.205.227.112.644.373.417.262.857.562.439.299.687.451.247.152.788.463.54.31 1.21.695.671.384 1.396.836.724.453 1.121.722.397.27.967.661t.921.665q.351.275.558.431.208.157.886.703.678.547 1.079.873.402.326 1.007.921.605.595.975.939.37.343.561.493.19.15.35.287.161.137.259.237.098.101.175.192.076.092.288.491.007.018-.471.757-.479.739-.887 1.179-.409.44-.586.623-.176.184-.653.636-.477.451-.765.728-.288.276-.555.554-.267.278-.566.582-.299.304-.805.833-.506.528-.966 1.039-.461.51-.863.898-.403.388-.901.824-.498.435-.887.766t-.808.67q-.419.339-.838.674-.42.335-.632.512-.212.177-.419.331-.206.153-.67.512-.463.359-.835.68-.372.321-.776.616-.404.296-.88.674-.477.379-1.002.841-.526.462-1.049.886-.523.423-1.15.91-.628.486-1.662 1.246-1.034.76-1.699 1.204-.665.444-1.168.748-.504.305-1.102.701-.599.396-1.021.68-.423.284-.64.425-.217.141-.528.319-.311.177-.844.469-.533.292-.919.478-.385.187-.804.359-.419.173-.986.464-.566.29-.87.441-.305.15-.527.25-.223.1-.674.265-.452.164-.74.241-.289.077-1.024.318-.735.24-1.089.319-.354.079-.953.211-.599.131-.98.197t-1.307.052q-.926-.014-1.389-.04-.463-.027-.813-.042-.35-.016-.695-.045-.345-.028-.692-.086-.347-.058-.686-.131-.34-.074-1.12-.187t-1.229-.158q-.449-.045-1.147-.225-.697-.18-1.329-.356-.633-.175-1.04-.283-.407-.107-.61-.163-.204-.055-.538-.202-.333-.146-.759-.305-.425-.158-1.015-.393-.59-.235-1.183-.498-.594-.264-.887-.407-.294-.143-.78-.525-.486-.382-.746-.61-.26-.228-.524-.398-.263-.17-.551-.353-.288-.184-.925-.696-.636-.512-1.089-.897-.454-.385-.672-.568-.219-.184-.362-.291-.144-.107-.291-.217-.146-.11-.318-.271-.172-.162-.49-.538-.318-.377-.516-.62-.199-.244-.379-.518-.179-.275-.403-.618-.223-.344-.478-.661-.255-.317-.437-.557-.182-.24-.349-.522-.166-.282-.26-.486-.093-.204-.331-.632-.239-.428-.364-.661-.126-.232-.239-.583-.114-.35-.169-.608-.055-.257-.172-.609-.116-.352-.24-.764-.124-.413-.191-.679-.068-.267-.098-.412-.03-.145-.059-.259-.03-.113-.08-.284-.051-.17-.089-.314-.039-.144-.047-.184-.008-.039-.039-.132t-.056-.147q-.025-.053-.051-.095-.026-.042-.056-.107-.031-.064-.037-.074-.005-.01-.028-.036-.023-.027-.04-.04-.017-.013-.024.011-.006.023-.001.072.005.049.011.071.006.023.054.123t.054.106q.006.006.344.439.338.433.583.717.244.285.468.572.224.288.52.648.296.36.42.523.124.163.437.593.312.429 1.022 1.163.71.733 1.12 1.114l.735.683q.325.301.483.464.158.163.434.486.276.324.761.766.486.442.887.818.402.375.628.593.227.217.464.365.238.148.417.248.18.101.468.269.288.169.673.329.386.16.89.342.505.182.831.272.327.09.65.135.324.045.68.059.357.014.845.055.489.042.773.073.283.031 1.042-.052.759-.082 1.458-.284.699-.203 1.073-.362.373-.159.626-.287.254-.128.42-.224.167-.096.233-.136.065-.04.464-.248t.846-.449q.447-.24 1.178-.683.731-.442 1.208-.763.476-.321.896-.637.421-.316.715-.525.295-.21.51-.376.214-.167.509-.459.295-.292.634-.654.339-.361.627-.692.288-.331.409-.473.12-.141.171-.211.052-.071.242-.299l.1-.112q.634-.696 1.268-1.391l1.268-1.39q.635-.695 1.269-1.39.634-.696 1.268-1.391l1.268-1.39 1.268-1.39q.634-.696 1.268-1.391l1.268-1.39 1.268-1.39q.634-.696 1.268-1.391.634-.695 1.269-1.39.634-.695 1.268-1.391l1.268-1.39 1.268-1.39q.634-.695 1.268-1.391.635-.695 1.27-1.391Z"/>
    <path fill="none" stroke="#381d1d" stroke-width="1.705" d="m-338.802 1024.323 13.208-.053M-298.812 1024.37l87.926-.094v83.57h-15.153M-231.225 1107.895l-12.495-.049M-270.249 1107.845l-88.61.001v-83.57h15.046"/>
    <path fill="none" stroke="#381d1d" stroke-width=".982" d="M-238.981 1030.992h19.017v17.08h-19.017Z"/>
    <path fill="none" stroke="#381d1d" stroke-width=".5" d="M-307.451 1059.848h77.191v5.032h-77.189ZM-307.193 1070.632h77.191v5.031h-77.189ZM-260.271 1086.819h-47.135l-.002-5.031 42.996.053"/>
    <path fill="none" stroke="#381d1d" stroke-width=".982" d="m-315.254 1042.016 11.44 8.319-35.296 3.489-4.495-32.319 12.36 8.895"/>
    <path fill="none" stroke="#381d1d" stroke-width=".982" d="M-315.308 1042.037q.066-.083.311-.393.244-.311.662-.842.417-.531.839-1.057.422-.525.846-1.042.424-.516.721-.874.296-.358.497-.595l.412-.486.496-.588q.286-.338.582-.682.295-.343.602-.692.306-.35.534-.609.228-.26.453-.515.226-.255.505-.565.278-.31.636-.705.357-.394.665-.73.308-.337.697-.755.389-.419.599-.647.209-.229.568-.607.358-.377.681-.716l.73-.764.75-.783q.343-.358.658-.686.314-.327.534-.554.219-.227.449-.462.229-.236.472-.484.244-.247.501-.506.258-.26.469-.473.212-.213.461-.464.249-.25.555-.559.307-.308.699-.702.393-.394.702-.7.309-.306.648-.632.339-.327.658-.619l.562-.518q.243-.224.517-.478t.523-.479q.249-.225.586-.521.337-.295.465-.398.129-.103.372-.304.244-.201.646-.535.402-.333.719-.583.316-.25.662-.499.347-.25.557-.409.21-.159.573-.415.363-.255.741-.482.377-.227.664-.394.287-.168.769-.437.482-.269.603-.322.122-.052.363-.152t.643-.265q.401-.165.725-.285.323-.12.692-.232.368-.111.609-.173.24-.062.383-.095.143-.034.358-.071.215-.037.467-.06.251-.023.612-.044.361-.022.577-.033.216-.012.323-.013.107-.002.418.035.311.037.584.082.273.044.611.108.338.063.56.113.222.049.38.101.159.053.405.148.246.096.756.31t.663.292q.153.079.521.309.368.231.46.286.091.055.311.195t.436.301q.216.162.5.392.285.23.503.414.218.185.446.392.228.208.485.471.256.263.46.46.203.196.387.385.183.188.499.578.315.389.559.69.244.301.341.419.098.117.228.287.131.17.328.43.197.261.353.467.156.205.272.356.115.15.288.385.173.234.404.553.231.319.391.538.16.219.294.398.135.179.285.371.15.192.388.522.239.33.563.787"/>
    <path fill="none" stroke="#381d1d" stroke-width=".982" d="M-331.112 1030.446q.084-.079.268-.269.184-.189.467-.487l.551-.58.52-.545q.252-.263.475-.497.223-.233.442-.461.219-.229.403-.42.184-.191.405-.422.222-.231.434-.45l.513-.53q.302-.311.669-.684.366-.372.619-.627.254-.255.454-.454l.433-.431q.232-.23.48-.473.248-.243.512-.499.263-.256.506-.489.243-.233.576-.549.333-.316.712-.673.378-.357.733-.69.355-.333.666-.62.311-.288.697-.641.386-.354.708-.647.322-.294.708-.644.387-.35.766-.683.379-.332.793-.686.414-.354.716-.608.303-.255.551-.461.248-.207.542-.45.294-.244.512-.421.219-.178.431-.345.213-.167.553-.417.34-.25.83-.602.491-.352.81-.573.319-.221.561-.384.241-.162.511-.341.27-.178.507-.332.238-.155.444-.286.205-.132.464-.289.26-.157.573-.34.313-.183.667-.387.355-.203.751-.427.396-.225.767-.423.372-.199.718-.372.346-.174.704-.35.357-.176.726-.355t.697-.33q.328-.152.615-.276.287-.123.59-.25t.622-.256q.319-.129.568-.227.249-.098.519-.197.269-.1.657-.225t.924-.286q.536-.162.988-.292.452-.13.866-.239.414-.11.714-.175.299-.065.622-.121.323-.057.606-.101.282-.045.646-.095.364-.049.905-.106.54-.057.975-.095.435-.038.929-.067.495-.029.955-.015.46.015.862.038.402.023.899.059.498.036.916.075.418.039.758.081.34.043.63.087.29.045.532.092.241.048.523.102l.605.116q.322.061.696.15.374.089.8.206.426.117.758.217.333.101.694.227.36.126.763.254.402.128.899.298.497.169.919.35.423.181.807.379.385.198.695.354.309.156.53.265.22.109.382.199.163.089.485.294.323.204.601.405.279.202.675.465t.684.479q.288.217.446.352.158.134.223.198l.358.341q.293.279.446.423.152.144.298.28.146.135.198.18.053.044.19.191.137.146.376.41t.421.477q.182.213.371.455.188.242.513.633.325.392.603.771.278.38.616.889.337.509.562.892.226.383.4.706.175.322.375.711.199.388.354.705.155.317.32.685.165.368.308.729.143.362.29.796.147.434.299.919.153.486.23.765.077.279.146.537.07.257.243.901"/>
    <path fill="none" stroke="#381d1d" stroke-width=".982" d="M-293.418 1018.596q.083-.04.436-.197t.969-.425q.615-.268 1.091-.465t.989-.39q.513-.193.766-.273.252-.08.731-.195t.897-.182q.419-.066.781-.103.362-.037.806-.066.445-.029.801-.036.356-.006.625.008.269.015.579.064.309.049.658.131.35.083.613.156t.528.168q.265.095.544.2.278.104.573.237.296.134.574.287.278.153.638.372.36.218.665.409.305.192.681.44.376.248.664.457.288.209.76.589.472.38.751.611.279.231.737.608.457.378.875.815.417.437.738.793.322.357.522.582.201.225.316.367.115.142.322.466M-254.478 1090.515l-11.439-8.319 35.295-3.489 4.496 32.319-12.361-8.895"/>
    <path fill="none" stroke="#381d1d" stroke-width=".982" d="M-254.423 1090.494q-.066.083-.311.393-.245.311-.662.842-.418.531-.84 1.057-.422.525-.846 1.042t-.72.874q-.297.358-.498.595t-.411.486q-.211.25-.497.588-.286.338-.581.682-.296.343-.602.693-.306.349-.535.608-.228.26-.453.515t-.504.565q-.279.31-.636.705-.357.394-.665.73-.309.337-.697.755-.389.419-.599.647-.21.229-.568.607l-.682.716-.73.764q-.406.425-.75.783l-.657.686q-.315.327-.534.554l-.449.463q-.229.235-.473.483-.243.247-.501.506-.257.26-.469.473-.212.213-.46.464-.249.251-.556.559-.307.308-.699.702-.392.394-.701.7-.309.306-.648.632-.339.327-.658.62-.319.292-.562.517-.243.224-.517.478t-.523.479q-.25.225-.587.521-.337.295-.465.398-.128.103-.372.305-.244.201-.646.534t-.718.583q-.317.25-.663.499-.346.25-.556.409-.211.159-.574.415-.363.255-.74.482-.378.227-.665.394-.287.168-.769.437-.481.269-.603.322-.121.052-.363.152-.241.101-.642.266-.402.165-.725.284-.324.12-.692.232-.369.112-.609.173-.241.062-.384.095-.143.034-.357.071-.215.037-.467.06t-.613.044q-.36.022-.576.033-.217.012-.323.013-.107.002-.418-.035-.312-.037-.584-.082-.273-.044-.611-.108-.339-.063-.56-.113-.222-.049-.381-.101-.158-.053-.404-.148-.247-.096-.757-.31t-.663-.292q-.152-.079-.52-.309-.368-.231-.46-.286-.092-.055-.312-.195-.22-.139-.435-.301-.216-.162-.501-.392-.284-.23-.502-.414-.219-.185-.447-.392-.228-.208-.484-.471t-.46-.46q-.204-.196-.387-.385-.184-.188-.499-.578-.315-.389-.56-.69-.244-.301-.341-.419-.097-.117-.228-.287-.131-.17-.328-.43-.197-.261-.353-.466-.156-.206-.271-.357-.116-.15-.289-.385-.173-.234-.403-.553-.231-.319-.391-.538-.16-.219-.295-.398-.134-.179-.284-.371-.15-.192-.389-.522-.238-.33-.444-.62-.206-.289-.463-.656"/>
    <path fill="none" stroke="#381d1d" stroke-width=".982" d="M-238.62 1102.085q-.083.079-.267.269-.185.189-.468.488-.283.298-.551.579-.268.281-.519.545-.252.263-.475.497-.223.233-.442.461-.219.229-.403.42-.184.191-.406.422-.222.231-.434.45-.211.219-.513.53-.302.311-.668.684-.367.372-.62.627t-.454.455q-.2.2-.432.43-.233.23-.481.473-.248.243-.511.499-.264.256-.507.489-.243.233-.576.549-.333.316-.711.673-.379.357-.734.69-.354.333-.666.62-.311.288-.697.641-.385.354-.707.647-.322.294-.709.644-.387.35-.765.683-.379.332-.793.686-.414.354-.717.608-.302.255-.55.461-.248.207-.543.45-.294.244-.512.421-.218.178-.431.345-.212.167-.552.417-.34.25-.831.602-.491.352-.81.573-.319.221-.56.384-.241.162-.511.341-.27.178-.508.332-.238.155-.443.286-.206.132-.465.289-.259.157-.572.34-.313.183-.668.387-.354.203-.751.428-.396.224-.767.423-.371.198-.718.372-.346.173-.703.349-.358.176-.727.355-.368.179-.696.33-.328.152-.615.276-.288.124-.591.25-.303.127-.622.256-.318.129-.568.227-.249.098-.518.197-.27.1-.658.225-.387.125-.923.286-.536.162-.988.292-.452.13-.866.24-.415.109-.714.174-.3.065-.623.121-.322.057-.605.101-.283.045-.647.095-.364.049-.904.106-.541.057-.975.095-.435.038-.93.067-.494.029-.955.015-.46-.015-.862-.038-.402-.023-.899-.059t-.915-.075q-.419-.039-.758-.081-.34-.043-.631-.087-.29-.045-.531-.092-.241-.048-.523-.102-.282-.054-.605-.115-.323-.062-.697-.151-.374-.089-.8-.206-.425-.117-.758-.217-.333-.101-.693-.227-.36-.126-.763-.254t-.9-.298q-.497-.169-.919-.35-.422-.181-.807-.379-.385-.198-.694-.354-.309-.156-.53-.265-.221-.109-.383-.199-.162-.089-.485-.293-.322-.205-.601-.406-.278-.202-.675-.465-.396-.263-.684-.479-.288-.217-.445-.352-.158-.134-.224-.198-.065-.063-.358-.341-.293-.279-.445-.423-.153-.144-.299-.28-.146-.135-.198-.18-.052-.044-.189-.191-.137-.146-.376-.41t-.421-.477q-.183-.212-.371-.455-.189-.242-.514-.633t-.603-.771q-.278-.38-.615-.889-.338-.509-.563-.892-.225-.383-.4-.706-.175-.322-.374-.711-.2-.388-.354-.705-.155-.317-.321-.685-.165-.367-.307-.729-.143-.362-.29-.796-.147-.434-.3-.919-.152-.486-.229-.765-.077-.279-.147-.537-.07-.257-.157-.585-.088-.328-.206-.772"/>
    <path fill="none" stroke="#381d1d" stroke-width=".982" d="M-276.014 1113.794q-.036.028-.217.127-.18.1-.409.209-.229.11-.585.266-.357.155-.676.288-.32.133-.74.3-.419.167-1.001.381-.581.214-.854.3t-.77.207q-.496.12-.919.188-.423.068-.787.105-.363.037-.807.066-.445.029-.801.036-.356.006-.626-.008-.269-.015-.578-.064-.309-.049-.659-.131-.35-.083-.612-.156-.263-.073-.529-.168-.265-.095-.543-.199-.279-.105-.574-.238-.295-.134-.574-.287-.278-.153-.638-.371-.36-.219-.665-.41-.305-.192-.681-.44-.376-.248-.664-.457-.288-.209-.76-.589-.471-.38-.751-.611-.279-.231-.736-.608-.458-.378-.875-.814-.418-.437-.739-.794-.321-.357-.522-.582-.2-.225-.315-.367-.115-.142-.349-.507-.235-.366-.263-.414"/>
    <path fill="none" stroke="#381d1d" stroke-width=".5" d="M-339.965 1023.798q.151.009.229.012.077.003.147.004.069.001.161.003.092.003.16.004.068.002.162.003.093 0 .163.004t.16.003q.09-.001.104-.002.013-.001.136-.001.123-.001.197-.001.074-.001.112.001.038.001.354-.005M-328.639 1023.792q.55-.006.992-.015.441-.01.912-.021.47-.01.479-.011.009-.001 1.444-.038l.449-.015M-298.549 1024.85q-.069.006-.105.005-.036-.001-.2.011-.164.013-.308.019-.143.006-.258.012-.114.007-.215.015-.101.008-.268.017-.167.009-.329.023M-270.608 1107.384q.158-.013.164-.014.007-.001.117-.006.111-.005.15-.004.039 0 .234-.015t.259-.018q.064-.003.387-.027M-244.869 1108.299q.038-.002.14-.003.103 0 .305-.006.201-.006.554-.006.353-.001.973-.005"/>
    <path fill="none" stroke="#381d1d" stroke-width=".5" d="M-244.816 1108.339q.027 0 .256-.016.229-.015.459-.026.23-.012.499-.02.269-.009 1.28-.049M-231.477 1108.362q.338.016.552.016l.397-.002q.182-.002.228.001.046.003.217.003l.169.006"/>
  </g>
</svg>
