<svg xmlns="http://www.w3.org/2000/svg" width="143.356" height="144.124" viewBox="167.67 578.728 107.517 108.093">
  <g stroke-linecap="round" stroke-linejoin="round">
    <path fill="#f6c1cf" stroke="#f6c1cf" stroke-width=".5" d="m222.99 598.227-.137-.02-.24-.014q-.118.008-.63.011-.512.004-1.15.136-.638.133-1.274.385-.635.253-1.219.593-.584.34-1.309.756-.725.417-1.212.756-.488.34-1.034.902-.545.562-1.01 1.284-.465.721-.741 1.338-.276.617-.44 1.228-.165.612-.228 1.039-.064.427-.248 2.026-.185 1.6-.228 2.015-.044.415-.068.96-.025.545-.086 1.886-.062 1.341-.148 2.888-.087 1.547-.117 2.348-.03.801-.004 1.739.026.939.042 1.473.016.535.019.807.002.273 0 .806t.061 2.304q.064 1.77.118 2.719.055.949.076 1.437.02.489.034 1.081.014.592.042 2.385.028 1.793.194 3.796t.242 2.973q.019.242.04.571.021.328.044.741.023.414.048.913.025.5.052 1.085.027.585.051 1.1.024.516.045.962.021.447.039.824.018.377.041.839.022.461.062 1.06.039.599.085 1.18.046.581.074 1.218.028.637.034 1.331-.001.346-.009.695t-.024.7q-.016.352-.04.706-.025.355-.058.713t-.087.776q-.055.418-.132.897-.078.479-.168 1.021-.09.542-.188 1.147-.085.607-.134 1.14-.05.533-.063.992-.012.459.004.844.017.384.044.693.027.31.067.682.039.373.085.808.045.435.076.933.032.498.023 1.058-.01.56-.055 1.071-.046.511-.099.975-.054.463-.092.879-.039.416-.056.785-.017.369-.011.695.006.326.038.749t.083.808q.051.385.097.685.045.3.096.621.051.321.121.714.07.392.148.766.079.374.188.855.11.482.211.862.101.379.269.792.168.413.289.65.121.238.348.588.227.35.408.627.18.276.574.849.393.572.629.871.236.3.426.494.189.194.588.532.399.337.974.698.575.361 1.123.652.547.29.857.419.309.128.54.204.231.077.664.216.433.139.934.364.502.225.809.371.307.145.72.228.412.084 1.031.154.62.07 1.164.116.544.046 1.013.068.937.043 1.401.086.465.042 1.526.03 1.062-.011 2.346-.074.641-.031 1.276-.035.634-.004 1.261.02.627.024 1.248.042.62.018 1.234.03.614.011 1.078.019.464.007.778.01.315.004.751.024.437.021.795.035.358.015.783.025.425.01.829.002.404-.008.787-.034.382-.026.744-.067.361-.041.701-.092.34-.052.698-.11.359-.058.736-.116.377-.057.773-.105.395-.048.81-.077.415-.03.779-.028.364.002.833.032t.887.081q.418.052.762.104.344.051.614.097.271.046.646.095.375.05.854.097.479.048.96.051.48.003.839-.011.36-.014.759-.04.398-.026.795-.05l.792-.046.794-.048q.397-.025.797-.053.4-.027.761-.055t.844-.066q.483-.039.964-.069.482-.031.891-.062.409-.031.742-.065.336-.031.717-.095.381-.065.81-.16.429-.096.752-.181.323-.085.645-.205.322-.12.496-.201.174-.08.586-.305.411-.224.803-.47.393-.246.626-.406.233-.16.343-.235.11-.074.333-.226.223-.151.702-.552.48-.401.837-.735.358-.334.536-.52.178-.185.341-.399.163-.214.227-.299.064-.086.288-.419.224-.333.373-.608.149-.274.297-.602.149-.327.26-.582.112-.255.221-.532t.191-.533q.083-.255.115-.418.032-.162.146-.658.114-.496.16-.758.046-.261.036-.668-.01-.406-.047-.597-.037-.191-.073-.274-.036-.082-.081-.117-.045-.036-.051-.049-.006-.014-.13-.076-.125-.063-.417-.105-.291-.042-.5-.044-.209-.002-.589-.001-.379.001-.696.01-.317.009-.698.029-.381.019-.68.042-.298.022-.623.057-.325.036-.732.125-.407.088-.787.191-.38.102-.871.257-.49.155-.914.324-.423.169-.724.296-.3.127-.62.27-.32.142-.603.263-.282.121-.651.27-.368.148-.879.324-.51.176-.831.233-.321.058-.607.089-.286.032-.722.053-.437.021-.833.029-.396.009-.893.015-.498.005-.925.009-.428.003-.785.002-.357 0-.658.003-.301.004-.662.002-.361-.001-.781.005-.421.006-.602.006-.182 0-.449-.005-.267-.004-.681-.009-.413-.006-.871-.002-.457.004-.961.016-.505.012-.896.021-.392.009-.662.002-.271-.006-.606-.02-.335-.013-.733-.038-.398-.028-.819-.047-.421-.02-.867-.028t-.805-.014q-.36-.007-.767-.019-.408-.012-.619-.024-.211-.011-.452-.023-.241-.011-.582-.024-.342-.013-.57-.018-.228-.005-.341-.004-.226.002-.424 0-.198-.002-.559.017-.361.02-.951.061-.59.042-1.053.083-.463.041-.799.082-.337.04-.692.057-.355.016-.73.01-.375-.007-.704-.031-.328-.024-.61-.065-.565-.081-.837-.127-.272-.045-.54-.094t-.717-.073q-.449-.024-1.144-.004-.694.019-1.261.049-.567.029-1.056-.012-.488-.041-.816-.058-.328-.016-.502-.009-.173.007-.683.075-.51.068-.836.101-.326.032-.649.062-.322.029-.509.036-.187.007-.276-.005-.089-.011-.178-.032t-.32-.038q-.231-.017-.448-.051-.217-.034-.391-.083-.175-.048-.407-.107-.232-.059-.308-.074-.077-.015-.194-.06t-.207-.069q-.089-.025-.125-.04-.036-.015-.093-.029-.056-.014-.18-.059-.123-.045-.138-.056-.015-.011-.133-.054l-.33-.039q.026-.639.016-1.264-.009-.625-.049-1.235-.039-.609-.085-1.208-.047-.599-.083-1.193-.037-.595-.057-1.188-.021-.594-.027-1.189-.006-.595-.002-1.192.004-.596.012-1.193.009-.597.02-1.194.011-.598.023-1.196l.024-1.195q.013-.597.025-1.195l.024-1.196q.013-.597.025-1.195l.024-1.195q.013-.598.025-1.196l.024-1.195q.013-.598.025-1.196l.024-1.195q.013-.598.025-1.195l.024-1.196.024-1.195q.012-.597.02-1.194.009-.597.009-1.19 0-.594-.02-1.181-.02-.587-.067-1.166-.047-.578-.108-1.151-.061-.574-.109-1.15-.047-.576-.023-1.168.024-.593.069-1.178.045-.584.075-1.141.031-.556.03-1.088-.001-.531-.022-1.058-.02-.527.011-1.142.031-.615.065-1.257.034-.641.04-1.275.007-.633-.044-1.218t-.133-1.13q-.082-.544-.141-1.079-.058-.535-.063-1.082-.005-.547.018-1.116.023-.57.042-1.182.019-.612.041-1.291.022-.68.036-1.357.014-.678.033-1.326.02-.648.072-1.256.052-.607.049-1.158-.003-.55-.04-1.078-.036-.528-.058-1.084-.022-.557.028-1.2.05-.642.111-1.338.06-.696.076-1.398.015-.702-.015-1.369t-.035-1.293q-.005-.627.089-1.224t.234-1.183q.141-.586.267-1.172.126-.586.205-1.176.079-.591.118-1.186.04-.595.06-1.192.021-.596.035-1.194.014-.597.026-1.195.013-.598.025-1.196.012-.597.025-1.195Z"/>
    <path fill="#f6c1cf" stroke="#f6c1cf" stroke-width=".5" d="m222.347 598.316-.058.115q.001.021-.028.416-.03.396-.093 1.186-.063.79-.103 1.488-.04.697-.053 1.292-.014.595-.009 1.084.004.488.049 1.013.044.525.155.89.111.364.193.492.083.128.16.203.077.075.095.128.017.052.71.125.692.074 1.352.016.66-.059 1.189-.107.53-.049 1.141-.074.611-.026 1.308-.062.696-.036 1.485-.121.789-.084 1.494-.165.705-.08 1.316-.104.61-.024 1.273.077.663.1 1.396.231.733.131 1.316.189.583.059 1.012.063.429.004.91-.043.481-.047 1.016-.137.535-.09.961-.163.425-.074.775-.137.35-.064.691-.096.341-.032.791-.055.449-.022.886-.023.436-.001 1.072.033.637.033 1.155.073.518.039.941.044.424.006.936.011.513.004 1.146.051.634.048 1.379.105.746.058 1.321.074.575.016.972-.041.806-.04 1.531-.044.725-.004 1.062.017.337.022.733.052.396.03.985.045.588.015 1.12-.035l1.221-.117q.689-.066 1.329-.061.641.006 1.063.135.423.129.792.418.368.288.588.57.22.281.393.953.173.673.156 1.123-.018.45-.012.666.006.215.028.526.022.311.071.81.048.499.096 1.013.048.515.084 1.045.031.571.019 1.223-.013.651-.05 1.229-.038.577-.091 1.139t-.087.947q-.035.384-.069.779-.034.394-.066.791-.032.398-.063.799-.03.401-.055.788-.024.388-.054.955t-.044 1.253q.032.575.077 1.123.046.548.098 1.082.053.534.095 1.087.043.553.082 1.111.029.562.02 1.085-.01.523-.032.911t-.059.816q-.037.428-.073.837-.036.41-.084.991-.049.582-.038 1.044.011.462.077.592.066.129.124.186.057.056.103.097.046.04.095.111.048.07.075.293.027.223.016.554-.013.198-.043.551-.03.353-.086.907-.055.554-.132 1.27-.077.715-.125 1.392-.048.677-.012 1.125.037.448.115.683.079.236.134.387.055.152.096.331.04.179.05.413.01.233-.012.519-.107.65-.276 1.298-.168.647-.209 1.023-.042.375-.034.619.007.245.04.397.033.152.067.28.034.129.066.322t.043.419q.01.225-.009.527-.018.302-.037.559-.019.257-.047.573-.028.315-.048.605t-.033.677q-.012.386-.018.756.012.754.018 1.109.005.355-.004.709-.009.353-.013.657-.004.304-.006.683-.003.378.001.75.003.372.014.918.01.547.028 1.198.012.665.03 1.301.018.635.026 1.105.008.469.015.977.007.508.012.948.004.441.01 1.002.005.561.009 1.074.003.513-.006.948-.008.435-.028.797l-.053.833q-.03.472-.076 1.053-.045.581-.074 1.08-.029.499-.031.913-.001.413.01.777.012.364.045.67.033.307.076.675.042.368.101.79.158.815.198 1.156.04.342.041.543.002.202-.051.386-.054.184-.105.354-.052.171-.092.314t-.119.416q-.079.274-.104.459-.024.186-.022.272.002.087.082.218.079.132.726-.012.646-.143 1.215-.338.569-.195.775-.256.207-.06.55-.134.344-.073.75-.148.405-.074.827-.143.422-.069.988-.153.566-.083 1.27-.178.705-.094 1.549-.2.047-.016.273-.794.226-.778.363-1.502.138-.724.319-1.449.182-.726.259-1.348.077-.621.081-1.057.005-.436.044-1.135.04-.7.061-1.165.02-.464.035-1.138.014-.673.108-1.737.094-1.065.218-2.2.124-1.135.082-2.924-.041-1.788-.098-2.693-.057-.906-.07-1.894-.013-.988-.037-1.747-.024-.76-.112-1.833-.088-1.074-.092-2.349-.004-1.275-.127-2.695-.061-.71-.115-1.28-.054-.57-.099-1-.046-.43-.073-.874-.026-.443-.034-.899-.008-.457-.024-.967-.016-.511-.04-1.075t-.046-1.01q-.022-.445-.054-.935-.031-.489-.051-1.074-.021-.586-.025-1.078-.005-.492-.012-1.009-.007-.517-.004-1.225.002-.708.015-1.297.014-.588.023-1.055.01-.466.028-.961.019-.494.036-1.015.016-.521.007-.912-.009-.392-.034-.788-.025-.397-.084-.945-.058-.549-.092-.932-.035-.384-.056-.787-.022-.402-.04-.738-.019-.335-.038-.738-.019-.403-.036-.689-.006-.143-.007-.426 0-.282.042-.704.043-.421.116-.842.074-.421.155-.843.081-.421.139-.811.058-.39.059-.75.001-.36-.043-.733-.045-.374-.109-.759t-.112-.779q-.048-.393-.037-.796.011-.402.06-.722.049-.321.137-.68.089-.359.209-.96.119-.602.136-1.06.016-.459.039-.958.022-.498.02-1.046-.003-.547-.069-1.075-.065-.528-.217-.916t-.322-.71q-.169-.322-.361-.647-.192-.325-.368-.689-.176-.364-.324-.722-.148-.359-.359-.865-.212-.506-.554-.984-.343-.477-.666-.898-.322-.421-.736-.728-.414-.306-.749-.486-.336-.179-.505-.281-.169-.103-.439-.296l-.38-.273q-.111-.08-.276-.19-.166-.109-.565-.301-.399-.191-.699-.324-.299-.134-.47-.24-.17-.107-.366-.201-.196-.095-.377-.153-.181-.059-.279-.093-.098-.035-.165-.061-.068-.026-.128-.053-.06-.026-.479-.108-.09.025-.46.11l-1.267.026-1.266.026-1.267.026-1.266.026-1.267.026q-.633.013-1.266.025l-1.267.026-1.266.026-1.267.026-1.267.026-1.266.026-1.267.026-1.266.026q-.633.012-1.267.025l-1.266.026-1.267.026-1.266.026-1.267.026-1.267.026q-.633.012-1.266.025l-1.267.026-1.266.026-1.267.026-1.266.026-1.267.026q-.633.013-1.266.025l-1.267.026-1.266.026-1.267.026-1.267.026-1.266.026-1.267.028ZM211.313 658.662l-.001.008q-.023.053.074.913.098.861.233 1.514.134.653.198 1.001.064.348.09.543.026.195.034.628.009.432.009.813.001.381.044.895.044.514.027.815-.016.3-.077.68-.06.381-.135.61-.074.229-.157.4-.082.172-.427.548-.057.016-.206.035-.148.019-.887.113-.738.095-1.191.164-.454.069-.698.092-.244.023-.295.029-.052.005-.776-.031t-1.24-.061q-.516-.026-.871-.018-.356.009-.792.003-.437-.005-1.29-.156-.852-.151-1.313-.237-.46-.087-.704-.124-.244-.037-.656-.09-.412-.054-.715-.074-.303-.021-.746.001-.443.021-.693.031-.25.011-.81-.099-.559-.11-.998-.185-.439-.075-.676-.096-.237-.021-.519-.004-.282.017-.684.069-.403.052-.72.068-.317.016-.713-.02-.395-.035-.974-.035-.578 0-.873.017-.295.016-.804-.005-.509-.021-.853-.03-.344-.008-.555 0-.212.009-.47.011-.259.002-.54-.011-.282-.014-.364-.023-.081-.009-.641.026-.559.036-1.044.059-.484.024-.711.034-.227.01-.437.009-.209 0-.45.012-.24.013-.426.026-.185.014-.919.009-.733-.005-1.139-.03-.406-.025-.603-.04-.198-.015-.675-.034-.476-.02-.813-.058-.337-.038-.553-.076-.216-.038-.484-.082-.268-.045-.463-.091-.196-.046-.406-.116-.21-.069-.326-.111-.116-.042-.29-.084-.173-.041-.352-.094-.179-.052-.543-.24-.363-.188-.554-.284-.192-.096-.342-.185-.149-.09-.272-.189-.123-.1-.42-.302-.297-.203-.469-.31-.172-.108-.419-.345-.247-.238-.487-.487-.241-.249-.425-.454-.185-.204-.559-.692-.373-.488-.562-.687-.189-.198-.367-.397-.178-.198-.264-.312-.087-.113-.229-.317-.143-.204-.395-.574-.252-.369-.399-.663-.148-.295-.266-.597-.117-.302-.206-.604-.088-.303-.122-.554-.035-.252-.007-.788.027-.535.105-.855.078-.32.146-.488.068-.168.248-.378t.441-.36q.261-.151.551-.218.291-.068.544-.07.253-.002.565.023.313.025.616.083.304.058.532.127.229.069.548.194.32.124.778.329.458.205.758.344.301.139 1.044.465.744.325 1.352.522.607.196 1.181.36.575.165.847.255.273.089.443.152.171.062.516.205.345.142.804.242.459.1.758.149.3.05.517.1.216.049.483.099t.586.06q.319.009.715.021.396.011.891.026.496.014.772.019.277.006.558-.023.281-.029.482-.051.2-.022.299-.017.099.005.494.026.394.021.587.03.194.008.276.014.082.007.26-.011.009.005.075.011.687-.015 1.374-.029.687-.015 1.374-.029l1.373-.03q.687-.014 1.374-.029.687-.014 1.374-.029.687-.014 1.374-.029.687-.014 1.374-.029.686-.014 1.373-.029.687-.014 1.374-.029.687-.014 1.374-.029.687-.014 1.374-.029.687-.014 1.374-.029.687-.015 1.373-.029.687-.015 1.374-.029.687-.015 1.374-.029.687-.015 1.374-.029Z"/>
    <path fill="#f6c1cf" stroke="#f6c1cf" stroke-width=".5" d="m182.247 581.25.003.034q-.002.022.015.554t.197 1.855q.179 1.323.294 1.999.114.675.14.952.027.277.013.697-.015.419.004.803.002.017-.098.336t-.303.94q-.1.04-.229.064t-.161.033q-.032.008-.106.013-.074.005-.22.019-.146.014-.402.053-.257.039-.323.055-.067.015-.192.058-.124.043-.254.098-.129.056-.246.136-.116.081-.275.236-.158.154-.229.244-.07.089-.116.15-.046.062-.222.428t-.239.568q-.064.201-.12.506-.055.305-.072.615-.018.31-.022.567-.005.258-.002.566.004.309.014.578.009.27.029.617.021.347.052.663.031.316.054.587.023.27.041.609.019.338.042.661.023.322.043.678.02.356.023.866.003.511-.013.954-.015.444-.04.816-.024.371-.042.819-.018.447-.022.968-.004.521-.006 1.083-.002.561-.006 1.15-.005.589-.002 1.093.002.503.005.922.002.419.007.79.005.37.013.697.009.327.016.628.007.301.014.579.007.278.014.588.008.311.018.656.009.345.025.748.015.403.035.864.023.465.045.986.023.521.046 1.1.023.579.033 1.157.01.578.006 1.154t-.014 1.152q-.01.576-.027 1.151-.017.576-.034 1.057t-.035.866q-.035.772-.065 1.353-.03.582-.042 1.216-.012.633-.014.937-.002.304-.002.465 0 .162-.013 1.013-.012.851.048 2.085.061 1.234.119 2.007.058.772.069 1.277.012.504.011.87-.002.366-.004.583-.003.218-.015 1.275-.013 1.057-.031 1.764-.019.708-.058 1.433-.038.726-.061 1.298-.023.572-.041 1.204-.018.632-.005 1.178.014.546.02.833.005.288.011.76.006.472.017 1.221.038 1.484.067 2.125.03.642.034 1.414.005.772.001 1.885-.005 1.112-.003 1.949.001.836.007 1.678.006.843.024 1.316.017.473.024.682.007.209.051.886.043.677.092 1.088.049.412.086 1.17.036.758-.143 1.439-.01.006-.158.104-.148.097-.221.14-.073.042-.178.053-.106.012-.284-.003-.177-.014-.651-.043-.473-.029-.924-.07-.451-.04-1.093-.127-.642-.086-1-.131-.358-.045-.578-.074-.22-.029-.898-.134-.679-.106-1.053-.191-.374-.086-.557-.153-.183-.067-.405-.196-.222-.129-.417-.282-.195-.154-.286-.228-.092-.075-.171-.153-.078-.078-.089-.094-.01-.016-.109-.117-.098-.101-.421-.833-.324-.733-.452-1.208-.128-.476-.207-.905-.079-.43-.128-.801-.049-.37-.083-1.064-.033-.693.005-1.295.038-.601.091-1.059.053-.458.09-1.715.038-1.258.013-2.285-.024-1.028-.044-1.604-.02-.576-.056-1.075-.036-.499-.108-1.05-.072-.551-.118-1.239-.047-.689-.045-1.238.002-.549.081-1.477.078-.928.154-1.545.075-.617.109-.921.034-.303.231-1.51t.328-1.85q.13-.643.226-1.217.095-.573.147-1.435.052-.863.061-1.355.009-.492.058-1.612.049-1.119.071-1.758.021-.64.02-.968-.001-.328-.075-1.269-.074-.941-.313-2.143-.239-1.201-.375-1.809-.136-.609-.198-1.043-.063-.434-.087-3.13-.024-2.695-.011-4.161.013-1.467.007-2.227-.006-.76.012-1.391.018-.631.02-1.542.002-.912-.024-2.324-.026-1.413-.033-2.421-.006-1.007-.033-1.553-.028-.545-.06-.955-.032-.41-.053-1.166-.022-.757-.004-1.203.018-.447.07-.985.052-.538.069-1.192.018-.654.067-1.176.05-.523.137-.986.086-.463.246-.961.159-.499.282-.781.124-.282.507-1.131.384-.848.602-1.297.217-.449.35-.695.132-.247.375-.691.244-.445.375-.672.131-.227.324-.493.193-.265.302-.406.108-.141.192-.255.083-.115.235-.334.151-.22.304-.409.153-.189.242-.282.089-.094.443-.424.355-.329.641-.524.286-.194.452-.282.166-.088.49-.271.325-.183.526-.281.202-.097.364-.161.163-.064.32-.138l.233-.112q.076-.037.294-.149l.133-.032"/>
    <path fill="#f6c1cf" stroke="#f6c1cf" stroke-width=".5" d="M181.753 581.626q-.068.075-.216.469-.148.395-.215.757-.068.362-.111 1.211-.043.849-.044 1.367-.002.517.002.784.005.266.014.876.01.61.033.915.024.305.16.616.137.311.182.351.045.04.098.072.053.032.191.1.138.069.371.122.234.052.374.081.14.029.192.04.052.011.384.098.331.086.676.13.345.044.761.009.416-.034.78-.078.363-.044.94-.019.576.025.907.056.331.03.828-.001.497-.03.769-.059.272-.03.966.004.695.033 1.097.102.402.069 1.262.02.86-.048 1.328-.105.468-.057.96-.063.493-.006 1.053.053.56.059 1.032.106.471.047 1.108.038.637-.008 1.016-.035.38-.028 1.073-.065.693-.038 1.55-.009.858.029 1.485.024.628-.004.938-.016.311-.011.453-.02.141-.008.874-.013.732-.005 1.235.014.503.02 1.34.014.837-.005 1.372-.034.535-.03 1.085-.062.55-.033 1.003-.039.453-.006 1.118.019.666.024 1.133.056.468.032 1.387.045.918.012 1.459.025.542.013.856.036.314.023.958.066.644.043 1.125.062.48.019.763.056.282.037.461.105.178.068.272.134.093.066.136.131.044.065.07.171.026.106.044.299.018.192.024.315.006.123.009.191.003.068.018.343.014.276.027.821.014.546.038.888.024.341.078.582.054.24.131.697.077.457.119.849.043.393.093.777t.141.967l.036.094q.09.107.23.229.141.121.795.175.654.055 1.038.014.384-.04.752-.091.367-.05.815-.066.448-.016.849.034.401.05.825.132.425.083.966.138.542.055.937.05.395-.006.63-.047.234-.042.346-.08.113-.037.284-.154.171-.117.252-.187.082-.069.113-.109.031-.04.066-.105.036-.065.044-.089.009-.025.144-.345.134-.319.2-.527.065-.208.086-.354.02-.146.016-.251-.004-.104.006-.41.011-.306.005-.526-.007-.22-.086-.592-.08-.372-.132-.659-.052-.287-.109-.729-.057-.443-.13-.943-.072-.5-.113-.747-.04-.248-.131-.559-.091-.312-.153-.479-.061-.167-.14-.445-.079-.279-.16-.518-.08-.239-.168-.414-.088-.175-.226-.495t-.225-.509q-.087-.19-.19-.35-.102-.161-.219-.323-.117-.161-.337-.491-.221-.331-.34-.513-.119-.182-.227-.324-.108-.143-.28-.349-.172-.207-.389-.494-.218-.287-.556-.643-.338-.357-.717-.69-.379-.332-.569-.502-.189-.169-.533-.413-.345-.245-.51-.341-.165-.096-.398-.216-.232-.121-.429-.216-.196-.095-.542-.24-.346-.144-.825-.228-.48-.084-.738-.11-.258-.026-.758-.131-.501-.105-.809-.164-.308-.06-.587-.084-.278-.024-.453-.041-.004-.023.006-.124-.578.017-1.157.035l-1.157.034q-.578.018-1.157.035l-1.157.034q-.579.018-1.157.035-.579.017-1.157.035l-1.158.034q-.578.017-1.157.035l-1.157.034q-.578.018-1.157.035l-1.157.034q-.579.018-1.157.035-.579.017-1.157.035l-1.158.034q-.578.017-1.157.035l-1.157.034q-.578.018-1.157.035l-1.157.034q-.579.018-1.157.035-.579.017-1.157.035l-1.157.034q-.579.017-1.158.035l-1.157.034q-.578.017-1.157.035l-1.157.034q-.579.018-1.157.035l-1.157.034q-.579.018-1.157.035-.579.017-1.157.035l-1.158.034-1.157.034-1.157.034Z"/>
    <path fill="#ff8897" stroke="#ff8897" stroke-width=".5" d="m179.814 590.39.182-.035q.246-.053.263-.058.018-.006.387-.08.368-.075.845-.138.477-.063 1.089-.183t1.115-.181q.502-.061.98-.067.479-.005 1.062-.05.583-.045 1.088-.043.505.001.871.032.365.031.785.041.419.009.898-.025.48-.035 1.261-.033.39.001.686.003.297.003.603.009.306.007.591-.014.284-.021.585-.048.301-.026.713-.063.411-.037.786-.05.376-.013.716-.004.34.009.665.031.326.021.637.054.311.034.655.047.344.014.721.007.377-.008.757-.015l.762-.016q.382-.009.673-.008.292 0 .492.01t.521.018q.322.008.595.011.272.003.604.002.331-.001.624-.005.294-.003.68-.018.387-.015.747-.034.36-.019.661-.023.301-.004.544.009.242.013.534.028.292.015.632.034.341.019.614.027.273.008.481.003.207-.005.52-.013.313-.008.736-.02.422-.011.757-.02.334-.009.573-.012.239-.004.547-.012l.687-.018q.379-.01.712-.023.333-.013.618-.029.286-.016.604-.025.319-.008.67-.011.351-.002.631-.001.28.002.593.01.313.008.859.029t.907.03q.361.009.538.008.177-.002.339.009.161.01.258.017.097.007.299.084.201.078.336.131.135.053.205.077.069.024.487.272.417.249.661.518.243.269.386.498.143.228.196.336.052.108.117.305t.092.354q.027.156.045.256t.048.322q.03.223.037.342.007.119.008.359v.55q-.001.308.007.745.008.436.016.717.008.28-.028.565-.036.284-.079.477-.042.192-.236.444-.194.252-.495.495-.302.242-.565.413-.264.171-.621.37-.358.199-.69.443-.332.244-.688.479-.356.236-.693.445-.336.209-.589.407-.253.198-.533.479-.279.28-.4.409-.121.129-.404.421-.283.293-.457.485-.174.191-.296.344-.123.153-.382.549t-.451.77q-.192.374-.265.546-.074.172-.185.438-.11.265-.21.503-.099.237-.224.534-.125.297-.224.548-.098.252-.17.457-.144.411-.265.829-.121.418-.304 1.085-.183.666-.279 1.254-.095.589-.133 1.146-.039.558-.103 1.174-.065.615-.083 1.209-.018.593-.047 1.225-.029.632-.062.932-.032.301.006 1.205.039.905.124 1.646.086.742.116 1.073.031.331.039.856.007.526-.003.924-.011.399.017.824.028.425.097.949.068.523.125 2.227.057 1.703.065 1.981.007.278-.001.873t-.001 1.303q.007.708.069 1.51.062.802.044 1.982-.018 1.18-.051 2.16-.033.98-.016 2.174.018 1.194.041 1.755.023.561.027.932.004.372.042.874.038.503.074.875.036.373.044 1.063.007.69-.055 1.424-.063.734-.103 1.162-.02.214-.061.538-.04.323-.101.755-.061.433-.11.755-.05.322-.087.535-.037.212-.064.488-.027.277-.044.616-.017.34-.029.623-.012.284-.024.623-.011.339-.023.545-.012.206-.044.586-.016.19-.033.496-.018.307-.031.731-.013.425-.014.764 0 .338.011.714.012.376.013.622.001.246-.01.853t-.006.927q.004.32.012.444.007.125.037.314t.045.333q.014.145.012.317-.001.173-.003.295-.001.122-.003.223t-.022.187q-.02.085-.259.598-.236.087-.331.111-.096.025-.227.036-.131.012-.366.042-.235.029-.383.037-.148.007-.4.001t-.653-.027q-.401-.021-.75-.049t-.798-.073q-.45-.044-.825-.081-.375-.038-.728-.044-.353-.007-.743.002-.391.008-.765.01-.375.001-.829-.063-.454-.064-1.069-.166-.615-.103-1.028-.141-.413-.038-1.148.01-.363.02-.758.033-.395.012-.818.015-.424.003-.86.015t-.886.034q-.45.023-.818.045-.368.023-.798.06-.431.036-.682.05-.25.013-.627.022-.377.01-.776.036-.2.012-.465.035-.265.023-.595.055-.331.032-.583.054-.251.021-.512.04-.26.018-.493.027-.233.01-.813.033-.579.024-1.146-.009-.567-.034-1.145-.031-.578.002-.865.018-.287.016-.503.002-.215-.015-.615-.038-.4-.024-.855-.034-.455-.009-.631-.025-.175-.016-.385-.045-.21-.029-.513-.078-.302-.048-.589-.097-.287-.048-.694-.122-.408-.074-.564-.094-.156-.02-.275-.04-.119-.02-.161-.025-.041-.006-.288-.07l-.181-.074q-.032.001-.231-.131-.011-.009-.047-.046-.005-.521-.018-1.041-.012-.52-.028-1.041-.016-.521-.03-1.043-.013-.522-.023-1.044-.011-.522-.019-1.043-.009-.521-.022-1.036-.012-.515-.033-1.022t-.051-1.006q-.029-.499-.063-.994-.033-.496-.058-.998-.026-.502-.033-1.02-.008-.517.008-1.056.017-.538.049-1.091.033-.552.069-1.107.036-.556.061-1.103.025-.547.033-1.078.007-.532-.004-1.049-.01-.516-.034-1.021-.023-.506-.053-1.004l-.062-.997q-.03-.498-.054-1.001-.025-.503-.034-1.019-.01-.515-.004-1.044.007-.528.032-1.073.025-.544.051-1.09.026-.546.047-1.087.02-.542.032-1.076.013-.534.013-1.058.001-.525 0-1.047-.002-.523-.014-1.036-.013-.512-.031-1.021-.019-.508-.035-1.019-.017-.511-.029-1.028t-.009-1.049q.003-.532.008-1.07t.012-1.081l.012-1.09q.005-.547.001-1.095-.004-.548-.015-1.101-.01-.552-.041-1.098t-.072-1.083q-.041-.538-.077-1.066-.037-.529-.055-1.048-.018-.52-.008-1.033.009-.513.039-1.022t.073-1.019q.043-.51.083-1.02.04-.509.075-1.024.034-.515.035-1.016.002-.501-.025-.99-.027-.489-.066-.975-.039-.487-.067-.988-.028-.5-.043-1.016-.014-.515.007-1.063.021-.549.035-1.095.014-.547.02-1.091.006-.544.004-1.086-.003-.542-.009-1.086-.007-.544-.012-1.097-.004-.553 0-1.121t.027-1.156q.022-.588.057-1.189.035-.6.113-1.22.079-.62.155-1.228ZM225.554 606.529l-.079-.012-.307.013q-.161-.004-.506.056-.346.059-.521.098-.176.038-.375.079-.198.041-.27.062-.072.02-.214.079-.143.058-.56.302-.37.328-.468.464-.097.136-.225.387-.127.251-.215.476-.087.226-.169.628-.081.403-.112.631-.031.229-.078.467-.046.239-.06.689-.013.45.005.912.017.462.018.656.002.194.004.417.001.223.003.538.002.316 0 .701-.002.385-.01.84-.007.455-.005.836.003.381.021.841.018.461.049.768.032.308.045.415.012.108.032.354.019.245.044.668.025.424.032.794.008.37-.004.843t-.005 1.048q.007.575.016 1.176.01.602-.02 1.045-.029.442-.046 1-.017.558-.006.918.012.36.016.665.003.305.008.675.004.37.017.718.013.349.029.681.016.331.04.583.025.252.053.512.029.261.075.781t.092 1.61q.006.548.007 1.062.002.514-.001.992-.003.479-.013.807-.009.328-.015.506t-.015.507q-.008.328-.018.808-.009.48-.009.877-.001.397.008.867.009.47.01.863 0 .393.002.717.002.324.007.71.004.386.007.735.002.35.004.663.004.625-.018 1.402-.018.389-.025.787-.007.398-.006.805.002.407.003.726.002.319.011.666.008.347-.005.651-.014.305-.032.706-.017.402-.044.789-.027.386-.053.891-.026.506-.046.886t-.048.764q-.028.383-.041.915-.013.532-.01.97.003.437.013.958.01.521.017 1.133.007.612.009 1.315.001.704.004 1.284.003.58.013 1.035.01.455-.002.982-.011.526-.011 1.117-.001.59.011 1.082.012.492.026.889.014.398.03.691.016.294.029.484.014.19.033.491.02.3.037.715.018.414.026.827t.004.826q-.004.413-.014.744l-.019.702q-.011.37-.03 1.028-.02.657-.044.969-.024.312-.035.623-.011.312-.018.725-.008.414-.001.718.006.304.037.599t.053.416q.021.122.064.276.042.154.067.22.024.066.092.19t.081.143q.013.019.036.071.023.052.148.23.125.178.234.289.109.111.165.175.056.064.061.072.006.008.102.093.096.085.195.138.099.053.163.079.065.027.13.053t.153.06q.088.034.188.068.1.035.266.063.166.028.918.039.752.012 1.466.005t1.488.005q.774.011 1.251.019.477.007.95-.008.472-.015.966-.009t1.518.062q.508.025 1.014.03.507.006 1.012-.01.505-.015.968-.039.463-.025.886-.057.423-.031 1.05-.073.626-.041 1.457-.092.415-.025.857-.048.443-.024.913-.043.47-.02.967-.032.497-.013 1.02-.016.523-.003.984.007.462.009.861.027.4.017.739.04.338.022.756.059.417.037.82.071.403.034.652.051.249.016.628.024t.889.008q.509 0 1.018-.018t1.015-.039q.506-.02.949-.039.444-.019 1.014-.045.57-.027 1.089-.046.52-.02.824-.03.305-.01.457-.018.152-.007.405-.013.253-.005.659-.022.406-.017.785-.038.379-.021.907-.048t1.068-.039q.539-.013.829-.004.29.009.461.026.17.016.457.01.287-.007.782-.01l.112-.021q.032.002.704-.309l.066-.093q.129-.19.215-.321.087-.132.23-.547.144-.415.184-.588.04-.173.075-.443.036-.27.08-.689.043-.419.08-.768l.082-.773q.045-.424.065-.742.02-.319.064-.975.043-.656.066-1.019.023-.364.026-.766.003-.403-.037-.832-.04-.43-.053-1.099-.007-.335.006-.71.012-.375.043-.79.032-.415.049-.829.018-.414.021-.828.003-.413-.016-.868-.018-.454-.059-.95-.04-.496-.07-.917-.029-.421-.057-.941t-.056-1.033q-.029-.512-.068-.913-.039-.4-.043-.884-.004-.485.011-.821.016-.336.031-.882.015-.545.032-.913.018-.368.049-.742.031-.374.044-.78.014-.406.018-.848.005-.442.002-.828-.003-.386-.002-.888.001-.501-.029-.926-.03-.424-.061-.624t-.058-.492q-.027-.292-.055-.744-.029-.453-.047-.797-.019-.344-.031-.58-.012-.235-.002-.567.01-.332.037-.759.026-.428.038-.898.011-.471.003-.983t-.024-.929q-.016-.416-.045-.899-.028-.483-.037-1.064-.009-.581-.005-.883.005-.302.028-.584.022-.282.046-.632.024-.35.057-.861.032-.512.051-.936.019-.424.026-.93.007-.505.011-.877.003-.373.012-1.407.01-1.035.037-3.092.027-2.057.061-3.776.033-1.719.044-2.525.011-.805-.014-1.214-.025-.41-.11-1.037-.084-.628-.116-1.107-.016-.239-.021-.608-.005-.369-.006-.678-.001-.309.001-.682l.002-.698q.001-.326.002-.747t0-.799q0-.377-.001-.646 0-.268-.001-.507 0-.238-.019-.443-.018-.205-.031-.642-.013-.436-.025-.873-.012-.437-.014-1.035-.002-.598.01-1.089.012-.49.01-.712-.003-.222-.027-.383-.024-.162-.035-.209-.01-.048-.047-.142-.036-.095-.057-.152-.021-.058-.047-.146t-.054-.144q-.029-.055-.062-.104-.033-.048-.044-.062-.011-.014-.223-.31l-.193-.175-.074-.049q-.131-.094-.227-.147-.097-.052-.158-.075t-.14-.044q-.078-.022-.184-.046-.105-.025-.471-.076-.557-.002-1.114.01t-1.114.035q-.556.022-1.113.048-.557.026-1.114.047t-1.114.035q-.557.014-1.114.022-.556.007-1.113.01-.557.003-1.114.004t-1.114.001q-.557 0-1.114-.001-.557 0-1.113-.001-.557 0-1.114-.001-.557 0-1.114-.001h-1.114q-.557-.001-1.114-.001-.556-.001-1.113-.001-.557-.001-1.114-.001-.557-.001-1.114-.001-.557-.001-1.114-.001-.557-.001-1.113-.001-.557-.001-1.114-.001-.557-.001-1.114-.001-.557-.001-1.114-.001-.557-.001-1.114-.001-.556-.001-1.113-.001-.557-.001-1.114-.001-.557-.001-1.114-.001-.557-.001-1.114-.001-.557-.001-1.113-.001-.557-.001-1.114-.001-.557-.001-1.114-.001-.557-.001-1.114-.001Z"/>
    <path fill="none" stroke="#381d1d" stroke-width="1.695" d="M169.727 654.877V602.9q.001-.592.003-1.15.002-.557.005-1.082.004-.524.01-1.015.005-.49.01-.945.005-.455.008-.872t.002-.795q-.002-.378-.005-.72-.003-.341-.008-.798-.006-.458-.011-.921-.006-.463-.01-.939-.004-.475-.004-.519M230.815 591.975l.128 5.347"/>
    <path fill="none" stroke="#381d1d" stroke-width=".601" d="M179.291 599.869q.035.672.062 1.303.027.631.04 1.202.014.57.017 1.085.003.515-.001.997-.003.482-.008.96-.004.477-.007.965t-.005.986l-.002.999v44.271M221.264 597.801l.079.282"/>
    <path fill="none" stroke="#381d1d" stroke-width="1.695" d="M181.441 667.976q.642.001 1.37.007.728.006 1.417.013.688.007 1.307.012.618.005 1.186.008.567.002 1.124.003h1.083q.527.001 1.034.001h15.01q.523 0 1.042.001.52 0 1.032.002.511.003 1.005.009.493.007.96.019.466.012.876.027.41.014.76.025.349.012.607.019.257.007.385.017.128.011.26-.059M180.468 580.787h38.682"/>
    <path fill="none" stroke="#381d1d" stroke-width="1.695" d="M182.196 667.995q-.768-.016-1.398-.074-.631-.058-1.11-.14-.479-.082-.85-.164-.372-.083-.793-.2-.42-.117-1.056-.362-.635-.245-.796-.324-.16-.078-.395-.21-.235-.131-.488-.297-.253-.166-.493-.337-.239-.171-.478-.367-.24-.197-.428-.372t-.502-.487q-.314-.311-.513-.535-.198-.225-.549-.689-.352-.464-.614-.874-.262-.409-.477-.809-.216-.4-.351-.697-.135-.297-.234-.533-.1-.237-.272-.767-.172-.531-.264-.914-.092-.383-.133-.585-.041-.202-.09-.57-.049-.369-.076-.599-.027-.23-.044-.393-.016-.164-.025-.307-.009-.143-.025-.494-.017-.351-.031-.86-.014-.51-.005-1.226.008-.717.027-1.837M182.765 580.775q-.979-.031-1.72.002t-1.254.108q-.512.074-.893.155-.382.081-.806.197-.424.116-1.061.361-.636.244-.797.323-.16.079-.395.21-.236.131-.488.298-.253.166-.493.337-.239.171-.479.367-.239.196-.427.371-.188.176-.502.487t-.513.536q-.198.224-.55.688-.351.464-.613.874t-.478.81q-.215.4-.35.697-.135.297-.235.533-.099.237-.272.769-.173.532-.266.918-.093.385-.135.59-.041.204-.093.579t-.082.611q-.029.236-.047.404-.019.169-.03.316-.011.148-.031.51-.021.361-.041.883-.019.522-.006 1.229.013.706.066 1.742M216.896 580.796q1.129-.013 1.875-.012.747.001 1.207.017.46.015.778.035.317.02.655.072.338.052.664.127.325.076.694.186.369.111.959.351.589.24.744.318.155.078.385.209t.48.297q.25.165.488.336.239.171.478.367.238.196.426.372.188.175.502.486.314.312.513.536.198.224.55.689.351.464.613.873.262.41.478.81.215.4.35.697.135.297.235.534.099.237.271.771.172.534.264.925.092.391.133.6.04.21.088.601.048.391.074.643.025.251.04.433t.023.344q.007.162.018.563.01.401.008.854-.003.453-.012.795-.01.342-.028.723-.018.381-.034.793-.017.413-.033.857"/>
    <path fill="none" stroke="#381d1d" stroke-width=".601" d="M184.733 589.617H210.368q.472 0 .904-.001h1.417q.351 0 .742-.001.391 0 .834-.001.442-.001.95-.003.507-.001 1.092-.003.585-.003 1.25-.006.664-.003 1.386-.006M181.68 658.828h26.96q.427 0 .764-.001l.699-.002q.363-.002.671-.006.308-.003.538-.008.231-.006.918-.037"/>
    <path fill="none" stroke="#381d1d" stroke-width=".601" d="m179.35 605.381.044.528q.004.02-.003-.159l-.016-.415-.02-.586q-.013-.349-.022-.679-.01-.33-.017-.643-.006-.314-.011-.605-.005-.291-.009-.701-.003-.409-.006-.627-.002-.218-.002-.637 0-.42.001-.625l.008-.813q.006-.607.009-1.044.003-.437.011-.941.007-.504.01-.855.004-.351.007-.653.002-.302.001-.66-.002-.359-.003-.592 0-.233-.001-.413-.001-.18 0-.418.001-.239.019-.725.017-.486.031-.648.013-.161.032-.334.019-.172.046-.337.028-.165.063-.321t.08-.297q.044-.141.143-.346.098-.204.142-.267.044-.064.104-.135.06-.071.116-.122.056-.052.105-.088.05-.036.136-.093.085-.057.171-.099.086-.043.186-.08.1-.038.181-.066.082-.029.136-.046.053-.016.159-.041.107-.025.292-.05.186-.025.368-.047.181-.022.293-.03.112-.008.229-.008.117.001.279-.001.162-.002.287-.005.125-.003.252 0 .126.002.171.004.045.003.191.001.146-.001.282-.009.135-.009.393-.014.258-.006.636-.013.378-.008.882-.016.504-.007.701-.013.198-.007.303-.008.105-.002.331.003.226.005.323.007.098.002.35.001.253 0 .435.001.182.002.285.006.103.004.229.007.125.003.395.004.27.002.505.007.234.006.403.01.169.005.431-.001.261-.006.567-.009.305-.003.39-.005.084-.002.434-.008.351-.007.995-.018M221.421 598.214q-.036-.326-.052-.579-.016-.252-.029-.621-.013-.369-.016-.665-.004-.296-.005-.566-.002-.27.002-.605l.005-.556q.002-.221.003-.394.002-.173.002-.405 0-.232-.014-.711-.015-.479-.027-.639-.011-.161-.027-.333-.016-.173-.039-.338-.023-.166-.053-.323-.029-.156-.066-.299-.037-.143-.119-.349-.083-.206-.121-.271-.037-.064-.088-.136-.051-.072-.098-.125-.048-.053-.09-.089-.042-.037-.114-.096-.072-.059-.144-.104t-.155-.086q-.082-.041-.149-.072-.067-.032-.111-.051-.044-.019-.13-.048-.087-.029-.241-.062-.153-.032-.309-.058-.156-.026-.256-.035-.101-.008-.208-.009-.107-.002-.267.002-.159.004-.286.002-.126-.002-.26.002-.133.004-.182.007-.048.002-.208.002-.161 0-.315-.007-.153-.007-.451-.01-.299-.004-.738-.005-.44-.002-1.002.003t-.774.003q-.211-.002-.322-.002-.11 0-.345.009-.234.008-.334.011-.099.003-.356.004-.256.001-.44.004-.184.002-.287.006-.103.005-.229.008t-.397.005q-.27.001-.505.007t-.403.01q-.169.005-.431-.001-.261-.006-.567-.009-.305-.003-.418-.006-.113-.003-1.401-.025M179.376 637.813l.043.136q.005.008.009.855.004.847.007 1.531.003.685.003 1.162.001.477 0 .972t-.002.897q-.002.403-.004.884l-.007 1.155q-.004.674-.006 1.293-.001.618-.002.847-.002.228-.002.652 0 .424.001.617 0 .194.002.757t.002.958q0 .395.003.85.003.455.003.776l.002.6q0 .28-.004.618-.004.338-.006.561-.002.223-.003.396-.002.173-.002.405.001.232.017.71t.029.638q.014.16.032.332.019.171.046.335.028.164.063.319t.079.296q.045.141.143.345.099.204.143.267.044.064.104.134.059.071.115.123.057.052.106.088.049.035.135.092.086.057.171.1.086.042.186.079.1.038.182.066.081.029.135.045.053.017.16.042.106.024.292.049t.367.048q.181.022.293.029.112.008.23.008.117 0 .279.002.162.002.286.004.125.003.252.001t.171-.005q.045-.002.191-.001.146.002.282.01.136.008.393.014.258.005.636.013t.882.015q.504.007.703.014.198.006.303.008.105.001.333-.004.227-.005.325-.007.099-.002.355-.002t.444-.002q.187-.003.294-.007.107-.005.24-.009.132-.003.425-.008.293-.004.562-.014.269-.01.475-.018.205-.009.551-.011.346-.003.812-.012.465-.009.61-.01.145-.001.856-.003.71-.002 2.187.024"/>
    <path fill="none" stroke="#381d1d" stroke-width=".601" d="M212.038 658.948q-.028-.006-.133-.021-.105-.016-.194-.027-.089-.011-.146-.02-.058-.009-.137-.016-.079-.008-.285-.015-.206-.008-.431-.015-.225-.007-.417-.011-.192-.004-.549.004-.358.008-.92.011-.562.004-.714.004-.153.001-.504.005-.352.003-.77.001-.419-.003-.734-.006-.316-.002-.667-.005-.352-.003-.76-.005-.409-.002-.874-.003t-.932 0q-.467 0-.936.001l-.895.004q-.425.002-.735.004-.309.001-.646.003-.336.002-.709.004-.373.003-.791.006-.418.003-.901.007-.482.003-.921.007l-.771.007q-.334.003-.711.006-.378.003-.829.006-.451.004-1 .007-.549.002-1.264.002t-1.431-.004q-.716-.004-1.285-.01-.569-.005-1.22-.013-.652-.008-1.377-.018-.725-.01-1.495-.022"/>
    <path fill="none" stroke="#381d1d" stroke-width="3.488" d="M195.172 618.888q.074-.156.337-.644t.419-.748q.156-.26.25-.399t.535-.659q.441-.52.72-.77.279-.249.549-.441.27-.191.93-.476.661-.285 1.088-.397.428-.112.729-.162t.779-.072q.477-.022.966.034.489.057 1.028.218.539.16 1.03.423.492.262.938.673.446.41.678.725.232.315.36.548.127.234.236.529.109.294.2.992.09.697.068 1.094-.023.396-.111.819-.087.424-.273.887-.186.464-.359.751t-.349.515q-.176.228-.452.492-.275.264-.661.538-.386.275-.929.563-.542.289-.821.412-.279.124-.434.186-.154.061-.354.134-.2.073-.483.17-.283.097-.708.253l-.652.24q-.227.084-.377.135-.149.051-.333.109-.183.057-.294.093-.111.036-.504.177M198.503 625.991l-.004.059q.003.081.007.286.005.204.009.451.005.247.01.524.004.277.01.669.007.393.014.903.008.51.017 1.139l.003.158M198.93 636.944q-.04.043-.043.092"/>
    <path fill="none" stroke="#381d1d" stroke-width="1.695" d="M211.993 671.647v-50.862q0-.523.001-1.115 0-.592.002-1.15.002-.558.006-1.082t.009-1.015q.006-.491.011-.945.005-.455.007-.872.003-.417.002-.796-.001-.378-.004-.719-.003-.341-.009-.799-.006-.457-.011-.92l-.01-.939q-.004-.476-.004-.519M273.081 608.745V671.576"/>
    <path fill="none" stroke="#381d1d" stroke-width=".601" d="M221.617 612.277q.005.605.009 1.147.003.542.004 1.018.002.477.003.9.001.422.001.799l.002.71q0 .333.001.768.001.434.003.841l.002.777.002.703.002.628q.001.295.002.682.002.387.003.818.001.431.001.777.001.346.001.655.001.308.001.716 0 .407-.001.914v33.905M263.531 614.57v1.01q0 .498-.001.987l-.002.98q-.002.491-.006 1.001-.004.511-.011 1.048-.007.538-.015 1.083-.008.544-.014 1.045-.007.5-.009.93-.003.43.001.75t.011.725q.008.406.018.88.01.475.016.955.005.48.008.953.002.474.003.937 0 .463.001.898V671.166"/>
    <path fill="none" stroke="#381d1d" stroke-width="1.695" d="M223.707 684.746q.642.001 1.37.007.728.006 1.417.013.689.007 1.307.012.619.005 1.186.007t1.124.003q.557.001 1.084.001H255.197q.574 0 1.208-.001t1.143-.003q.509-.003.991-.008.482-.004 1.167-.015.684-.011 1.403-.022.718-.011 1.086-.013.368-.002.432-.002M222.734 597.556h38.682"/>
    <path fill="none" stroke="#381d1d" stroke-width="1.695" d="M224.463 684.765q-.768-.017-1.399-.075-.631-.058-1.11-.139-.478-.082-.85-.165t-.792-.199q-.421-.117-1.056-.362-.636-.245-.796-.324-.161-.079-.396-.21-.235-.131-.488-.298-.253-.166-.492-.337-.24-.171-.479-.367-.239-.196-.427-.371-.188-.176-.503-.487-.314-.311-.512-.536-.199-.224-.55-.688-.352-.464-.614-.874t-.477-.81q-.215-.399-.35-.696-.135-.297-.235-.534-.1-.236-.272-.767-.172-.531-.264-.914-.092-.383-.133-.585-.04-.201-.089-.57-.049-.368-.077-.598-.027-.23-.043-.394-.017-.163-.026-.306-.009-.144-.025-.494-.017-.351-.031-.861-.014-.509-.005-1.226.009-.716.028-1.836M258.59 684.782q.439.003.826.004.386.002.72.001.334-.001.618-.003.285-.002.637-.008.353-.006.714-.015.362-.009.771-.026.408-.017.765-.048.356-.031.574-.065.218-.034.441-.091.224-.057.448-.135.224-.078.503-.186.279-.109.733-.339.454-.23.576-.305.121-.075.307-.202.186-.126.398-.288.212-.162.425-.331.213-.168.436-.362.223-.195.404-.369.18-.175.489-.485.308-.311.506-.536.197-.224.548-.688.35-.464.613-.874.262-.409.477-.809.215-.4.35-.697.135-.297.235-.533.099-.237.271-.767.173-.531.265-.914.092-.383.132-.585.041-.202.09-.571.049-.368.077-.599.027-.23.043-.394.017-.164.026-.308.009-.145.027-.5.017-.356.03-.756.013-.399.017-.742.005-.343.003-.788-.002-.444-.011-1.156t-.026-1.761M225.031 597.545q-.979-.031-1.72.002t-1.253.107q-.513.075-.894.156-.381.08-.805.196-.425.116-1.061.361-.637.245-.798.324-.16.078-.395.21-.235.131-.488.297-.253.166-.492.337-.24.171-.479.368-.24.196-.428.371t-.502.487q-.314.311-.512.535-.199.225-.55.689-.352.464-.614.874-.262.409-.477.809-.215.4-.351.697-.135.297-.234.534-.1.236-.273.768-.172.532-.265.918-.093.386-.135.59-.042.204-.094.58-.052.375-.081.611-.03.236-.048.404-.019.168-.029.316-.011.148-.032.509-.021.362-.04.884-.02.522-.007 1.228.014.707.066 1.743M259.162 597.565q1.129-.012 1.876-.011.746 0 1.207.016.46.016.777.036.317.019.655.071.338.053.664.128.326.075.695.186.368.111.958.351t.745.318q.155.078.384.209.23.13.48.296.25.166.489.337.238.171.477.367.239.196.427.371t.502.487q.314.311.512.536.199.224.55.688.352.464.614.874t.477.81q.215.399.35.697.136.297.235.534.1.236.272.771.172.534.264.925.091.39.132.6.041.21.088.601.048.391.074.643.026.251.041.433.015.182.022.344.007.161.018.563.011.401.008.854-.002.453-.012.795-.01.341-.027.722-.018.381-.035.794-.017.412-.033.856"/>
    <path fill="none" stroke="#381d1d" stroke-width=".601" d="M227 606.386H253.603q.44 0 .76-.001.319 0 .668-.003.349-.002.739-.008.391-.007.868-.022.476-.016.972-.033.496-.018.9-.021.403-.004.834-.001.43.002.742.019.313.017.548.05M223.946 675.598h35.53"/>
    <path fill="none" stroke="#381d1d" stroke-width=".601" d="M221.617 612.433q0-.155-.004-.493-.004-.338-.006-.561-.002-.223-.003-.396-.002-.173-.002-.405.001-.232.017-.71t.029-.638q.014-.16.032-.331.019-.172.046-.336.028-.164.063-.319t.079-.296q.045-.141.143-.345.099-.204.143-.267.044-.063.104-.134.059-.071.116-.123.056-.052.105-.087.049-.036.135-.093.086-.057.172-.099.085-.043.185-.08.101-.038.182-.066.081-.028.135-.045.054-.017.16-.042.106-.024.292-.049t.367-.047q.181-.022.293-.03.113-.008.23-.008t.279-.002q.162-.001.286-.004.125-.003.252-.001.127.003.172.005.044.002.19.001.146-.002.282-.01.136-.008.393-.013.258-.006.636-.014t.882-.015q.504-.007.702-.014.197-.006.302-.008.105-.002.331.004.226.005.324.006.097.002.35.002.252-.001.435.001.182.002.285.006.103.004.228.007.126.002.396.004.27.001.504.007.235.006.404.01.169.005.43-.001.261-.007.567-.009.305-.003.39-.005.085-.003.435-.009l.994-.017M263.517 620.974l-.026.822q-.004.03.008-.156t.038-.776q.027-.591.035-1.178.008-.587.006-1.102-.002-.515-.003-.716-.001-.2-.007-.579-.006-.378-.009-.555-.002-.176-.009-.712-.006-.537-.004-.942.002-.406.005-.894.002-.488.006-.838t.008-.652q.003-.303.011-.662.007-.36.011-.592l.007-.411q.003-.179.005-.416.001-.237-.012-.719-.014-.482-.026-.642-.013-.16-.03-.332-.017-.171-.044-.335-.026-.165-.06-.32-.033-.155-.076-.296t-.138-.347q-.096-.205-.139-.269-.043-.064-.101-.136-.058-.072-.113-.125-.055-.053-.103-.09-.048-.037-.132-.096-.083-.059-.167-.104t-.181-.086q-.098-.041-.177-.072-.08-.031-.132-.05-.053-.019-.157-.048-.103-.029-.286-.062t-.363-.063q-.18-.03-.292-.042-.113-.013-.232-.017-.118-.004-.285-.009-.166-.006-.295-.011-.129-.005-.262-.003-.133.003-.181.005-.047.003-.201.003-.154 0-.297-.005-.144-.005-.414-.002t-.657.01q-.387.006-.887.014-.499.007-.693.004-.194-.003-.297-.004-.103 0-.325.006-.222.007-.318.009-.096.003-.346.003-.249 0-.43.002t-.284.006q-.102.004-.227.007-.126.002-.395.004-.27.001-.504.007-.234.006-.403.01t-.43-.002q-.262-.006-.567-.009-.306-.003-.39-.005-.085-.002-.435-.008l-.995-.017M221.641 658.706q.009.552.003.997-.006.446-.012.798-.006.352-.006.623l.002.565q.001.294.01.766.008.472.019 1.024t.016.918q.004.365.005.547.002.181.003.463.002.282.003.663.002.382.002.679.001.296.001.614-.001.317.002.778t.004.782q0 .322.001.601 0 .28-.003.618-.004.339-.006.561-.002.223-.004.397-.001.173-.001.405 0 .232.016.71t.03.638q.013.16.032.331.018.171.046.336.027.164.062.319t.08.296q.044.141.142.344.099.204.143.268.044.063.104.134.06.071.116.122.056.052.105.088.049.036.135.093.086.057.172.099t.186.08q.1.037.181.066.081.028.135.045.054.017.16.041.106.025.292.05t.367.047q.182.022.294.03.112.008.229.008t.279.001q.162.002.287.005.124.003.251 0 .127-.002.172-.004.045-.003.191-.001.146.002.281.01.136.008.394.013.257.006.636.014.378.007.882.015.504.007.702.013.198.007.303.008.106.002.333-.003.227-.006.326-.007.098-.002.354-.002.257 0 .444-.003.187-.002.295-.007.107-.004.239-.008t.425-.008q.293-.004.562-.014.269-.01.475-.019.206-.009.552-.011.346-.002.811-.011.466-.009.575-.01.108-.001.322-.002.214 0 .569-.002.355-.001.902.005t1.285.02"/>
    <path fill="none" stroke="#381d1d" stroke-width=".601" d="M263.548 655.991q-.047.778-.036 1.402.011.625.022 1.099t.018.922q.007.448.011.808.005.36.008.691.003.331.006.602.002.27.004.592.003.321.005.633.001.312.002.767.001.454.003.681.002.226.002.647 0 .421-.001.614 0 .193-.002.756-.003.563-.004.959t-.008.854q-.006.458-.013.784-.006.326-.014.612t-.014.634q-.007.347-.011.576-.005.229-.007.405-.002.177-.006.413-.004.235-.015.708-.01.473-.019.629-.009.157-.023.323-.013.167-.035.327-.022.16-.052.311t-.07.29q-.04.138-.133.339-.093.2-.135.263-.042.063-.1.134-.058.07-.113.122-.054.052-.102.088-.048.036-.132.094t-.169.102q-.084.043-.182.082-.099.039-.179.069-.08.031-.133.049-.053.017-.157.045-.105.026-.288.056-.184.029-.363.055t-.29.036q-.111.01-.228.012-.116.001-.277.004-.162.003-.286.006-.125.003-.252 0t-.172-.006q-.045-.002-.192-.003-.147 0-.284.005-.137.006-.397.005t-.643-.002q-.382-.001-.89-.002t-.707.004q-.199.005-.305.007-.106.001-.335-.005-.228-.005-.327-.006-.099-.002-.358 0t-.448.002q-.19 0-.299-.003-.109-.003-.245-.004-.135-.001-.438.002-.304.004-.59.003-.285-.001-.511-.002-.226-.001-.53.007-.304.008-.569.012-.265.004-.592.006-.326.003-.537.004-.21.002-.351.002-.14.001-.48.004-.339.003-.647.003t-.697-.001q-.389-.001-.851-.003-.461-.002-.861-.004-.401-.002-.695-.003l-.618-.002q-.322 0-.672-.001h-1.49q-.383 0-.771.001-.389 0-.783.001l-.792.002q-.399.001-.844.003-.445.002-.936.003-.491.002-1.027.005-.537.002-.974.004-.436.002-.742.003-.305.001-.625.003-.319.001-.653.003-.333.002-.681.003l-.71.004-.738.004-.766.004-.794.004q-.403.003-.819.005-.415.002-.84.003-.425.002-.86.002-.434.001-.875 0t-.885-.005q-.444-.004-.889-.012t-.892-.02q-.446-.012-.898-.026"/>
    <path fill="none" stroke="#381d1d" stroke-width="3.488" d="M237.439 635.657q.074-.156.337-.644.262-.488.418-.748.157-.26.25-.399.094-.139.535-.659.441-.52.72-.769.28-.25.549-.441.27-.191.931-.476.66-.286 1.088-.397.427-.112.729-.162.301-.051.778-.073.478-.022.967.035.489.056 1.028.217.538.161 1.03.423.491.263.937.673.447.411.679.726.232.314.359.548.128.233.236.528.109.295.2.992.091.698.068 1.094-.022.397-.11.82-.088.423-.274.887-.186.463-.359.75-.173.288-.349.516-.176.228-.451.491-.276.264-.662.539-.386.274-.928.563-.543.288-.822.412-.279.124-.433.185-.155.062-.355.134-.2.073-.483.171-.283.097-.707.253-.425.156-.652.24-.228.084-.377.135-.149.051-.333.108-.184.057-.295.094-.111.036-.504.176M240.724 642.768l-.003.058q.004.081.012.284.008.203.017.449.008.245.016.521.009.277.019.668.011.392.022.902.012.511.024 1.141l.005.159M241.196 653.714q-.039.042-.043.092"/>
  </g>
</svg>
