<svg xmlns="http://www.w3.org/2000/svg" width="184.7773" height="187.492" viewBox="-103.347 1164.654 138.583 140.62">
  <g stroke-linecap="round" stroke-linejoin="round">
    <path fill="#736bab" stroke="#736bab" stroke-width=".5" d="m-41.371 1185.41-.091.043q-.416-.007-.42-.005-.004.002-.44.096t-1.035.182q-.6.088-1.648.376-1.048.288-1.993.532-.944.244-1.746.475-.802.231-1.77.475-.968.244-1.65.498-.683.254-1.301.582-.619.328-1.63.745-1.011.416-1.674.685-.663.268-1.588.871-.926.603-1.86 1.201-.934.598-1.368.861-.434.262-1.224.849-.79.588-1.722 1.2-.931.613-1.724 1.198-.793.585-1.409 1.14-.616.555-1.166 1.031-.55.477-.788.68-.239.204-.755.709-.517.505-1.474 1.59-.462.54-.818 1.009-.356.469-.745 1.065-.388.596-.792 1.204-.403.608-.631 1.007-.229.399-.586 1.058-.357.658-.457.81-.101.152-.676 1.064-.574.911-1.03 1.615-.457.703-.909 1.454t-1.039 1.69q-.587.938-.983 1.663-.396.725-.584 1.057-.188.333-.618 1.5-.431 1.166-.663 2.34-.233 1.174-.539 2.508-.307 1.333-.49 2.09-.184.756-.322 1.38-.063.307-.193.966t-.205 1.608q-.075.949-.1 1.563-.025.614-.048.928-.023.314-.056.862-.034.548-.13 1.351-.097.804-.183 1.478-.086.674-.146 1.47-.06.796.083 1.964.143 1.168.293 1.865.151.696.434 1.792.141.548.273 1.009.133.461.257.835.124.374.285.854.16.48.354 1.069.195.588.369 1.159.175.571.316 1.13.141.56.248 1.062.107.503.218.936.112.433.224.737.111.304.191.489.079.185.192.446.112.26.253.597.141.337.242.601.102.264.201.55.099.285.198.523.1.238.257.644.156.406.314.775.158.37.371.838.213.468.38.813.168.346.29.568.244.446.505.89.261.445.503.939.243.495.551 1.188.308.694.506 1.143.199.45.34.755.142.305.386.682.244.377.505.734.26.358.651.976.39.617.619.923.228.306.909 1.119.681.814 1.365 1.479.684.665 1.18 1.036.496.372 1.287 1.094.791.723 1.269 1.143.478.419.904.776.426.357.873.791.447.434.776.708.328.274.393.32.066.047.646.61.581.562 1.138 1.045.557.484 1.037.902.481.418.91.766.429.349 1.176.824.748.476 1.274.766.526.291 1.066.583.54.293.804.425.263.132.575.267.313.136 1.283.563.97.428 1.786.613.815.186 1.382.31.566.124 1.653.414 1.087.291 2.393.69 1.306.4 2.407.529 1.1.13 2.252.309 1.153.179 1.914.304.762.126 1.495.201.732.075 1.653.175.921.101 1.593.189.673.088 1.355.166.682.077 1.301.143.619.066 1.577.089.957.022 1.9.054.944.032 1.543.091.6.059 1.642-.267 1.042-.326 2.058-.671 1.016-.346 2.041-.577 1.024-.232 1.668-.385.644-.153 1.033-.261.389-.109 1.194-.414.805-.305 1.558-.568.753-.263 1.295-.494.542-.23 1.354-.619.813-.388 1.284-.588.472-.2.632-.26.16-.061.818-.291.658-.231 1.669-.746 1.011-.515 1.629-.856.617-.341.922-.504.304-.163.713-.382.408-.219 1.234-.605.825-.386 1.379-.6.553-.215 1.318-.531.765-.317 1.448-.807.684-.489 1.146-.916.462-.427.951-.849.489-.423 1.141-1.018.653-.596 1.135-1.065.483-.47.976-.94.493-.469.961-1.005.467-.535.732-.922.265-.387.794-1.181.529-.795.889-1.263.359-.469 1.048-1.556.689-1.088 1.222-2.004.533-.916.693-1.237.161-.322.555-1.081.394-.758.642-1.213.249-.455.686-1.22.437-.765.704-1.193.266-.429.363-.597.098-.169.134-.239.036-.071.415-.896.379-.824.75-1.569.37-.746.544-1.111.173-.365.319-.7.146-.335.237-.545.092-.21.405-.95.312-.74.531-1.297.219-.557.419-1.513.201-.957.365-1.972.165-1.015.237-1.825.072-.81.118-1.376.046-.567.196-1.417.15-.851.229-1.531.079-.68.153-1.264.074-.585.119-.854.045-.27.112-.896.066-.626.067-1.892.001-1.266-.011-1.897-.013-.631-.103-1.472-.089-.841-.14-1.436-.05-.596-.114-1.598-.065-1.003-.251-1.981-.185-.978-.329-1.483-.144-.505-.244-.876-.1-.372-.205-.69-.105-.317-.319-.875-.213-.558-.496-1.306-.282-.748-.495-1.237-.213-.49-.621-1.15-.409-.659-.655-1.128-.247-.469-.433-.964-.187-.495-.416-1.086-.23-.592-.368-.997-.139-.406-.337-.907t-.538-1.084q-.341-.584-.633-1.114-.292-.531-.484-.889-.191-.358-.45-.743-.26-.386-.668-1.212-.409-.826-.613-1.303-.203-.478-.495-1.208-.293-.731-.538-1.278-.245-.547-.681-1.241-.436-.694-.9-1.22t-.918-.953q-.455-.426-.822-.799-.367-.373-.792-.83-.86-.893-1.544-1.532-.685-.639-1.546-1.24-.86-.602-1.378-.925-.518-.324-.846-.486-.327-.163-.63-.317-.303-.155-.788-.42-.484-.266-1.297-.739-.812-.474-1.7-1.01-.887-.536-1.335-.823-.448-.287-1.186-.724-.737-.437-1.431-.769-.693-.332-1.039-.485-.346-.153-.908-.407-.561-.255-.858-.36-.298-.106-.49-.163-.191-.057-.411-.11-.219-.054-1.528-.319-1.308-.266-2.305-.443-.998-.177-1.603-.33-.605-.153-1.035-.281-.43-.128-1.369-.401-.938-.274-1.452-.394-.513-.121-1.255-.193-.742-.073-1.452-.154t-1.122-.121q-.413-.04-.816-.117-.402-.076-.735-.18-.333-.104-1.393-.371l-.291-.127q-1.483.12-2.978.247-1.494.127-2.936.215t-2.836.141q-1.395.053-2.774.094Z"/>
    <path fill="#736bab" stroke="#736bab" stroke-width=".5" d="M-43.26 1186.158q.017-.035.088-.089.071-.055.113-.098.041-.043.08-.093.039-.049.306-.48.267-.43.397-.701.13-.272.22-.477.09-.205.182-.42t.464-1.173q.373-.957.426-1.177.053-.22.077-.54.024-.32.039-.565.016-.246.038-.571.022-.325.004-.773-.018-.447-.029-.678-.012-.232-.016-.53-.005-.298-.011-.587-.007-.288-.039-.569-.033-.28-.073-.46-.039-.179-.058-.308-.019-.13-.019-.319-.001-.19-.012-.461-.011-.272-.025-.447-.013-.175.004-.478.016-.302.02-.468l.007-.378q.004-.212.018-.37.015-.158.044-.401.029-.242.032-.487.003-.245.026-.503.022-.259.069-.52.047-.261.067-.388.021-.128.083-.482.063-.355.162-.65.099-.294.196-.517.097-.223.168-.34.07-.116.195-.247.125-.13.201-.184.077-.053.265-.178.189-.125.385-.205.196-.08.387-.145.191-.065.415-.148.225-.084.341-.119.116-.035.26-.071.145-.037.463-.073.318-.035.757-.107.438-.071.664-.116.226-.045.694-.109.468-.065.785-.079.316-.013.732-.021.417-.007.756-.024.339-.016.558-.015.219.001.321.01.102.009.37.039.269.03.681.039.413.009.747.034.335.025.598.063.262.037.641.074.379.036.576.068.198.032.472.138.274.105.474.245.2.14.306.249.106.109.148.158.041.049.157.192.117.143.238.336.122.194.222.69.101.496.148.995.047.499.085.807.039.307-.033 1.411-.072 1.104-.076 1.576-.005.473-.042 1.092-.038.619-.035 1.254.002.635.008.965.006.329-.021.702-.028.372-.016.788.012.417.053.782.04.366.073.829.033.463.093.931t.119.856q.059.388.114.643.056.255.16.562.104.308.198.59.094.281.354 1.154.26.872.396 1.386.136.514.205.845.068.33.134.575.065.245.088.303.023.059.061.178l.064.195q.025.075.06.123.015.01.044.057M-2.923 1193.734l.023-.038q.099-.086.53-.418.432-.332.71-.53.278-.198.515-.35.238-.152.737-.528.499-.377.756-.6.257-.223.414-.371.158-.147.717-.625.559-.477.828-.697.27-.22.542-.47.272-.25.63-.611.359-.361.625-.64.267-.279.538-.564.271-.285.609-.605.338-.321.702-.66.363-.339.627-.571.264-.232.424-.35.16-.117.388-.256.227-.138.569-.308.343-.171.664-.288.321-.118.605-.183.284-.066.469-.09.185-.023.363-.001.179.022.447.082.269.06.446.112.177.052.314.117.136.064.52.266.383.202.639.33.256.129.462.27.205.142.402.345.197.202.546.49.348.287.553.442.204.154.387.347.183.192.29.322.107.13.373.431.266.3.493.562.226.263.38.462.154.2.221.296.066.097.244.398.178.302.306.494t.254.372q.126.18.187.278.061.099.095.172.035.073.07.159.035.085.103.491.068.405.071.633.004.227-.066.477-.07.249-.258.57-.188.322-.333.51l-.257.333q-.111.146-.189.249-.078.103-.117.16-.039.057-.226.286-.186.229-.413.485-.227.256-.363.405-.137.149-.517.581-.379.433-.643.755t-.385.477q-.121.154-.424.57-.303.416-.662.903-.36.488-.583.752-.224.263-.702.849t-.703.889q-.225.304-.523.827-.298.523-.507.926-.209.404-.562.97-.354.566-.547.863-.193.297-.424.759-.232.462-.373.718-.142.255-.205.351-.062.096-.192.251-.13.154-.381.381-5.117-6.707-10.233-13.414ZM17.246 1227.353l-.003.003.009.002q.052.033.161 1.344.108 1.31.143 2.401.034 1.091.03 1.672-.003.581-.022.93-.018.349-.103 1.219-.085.87-.116 1.848-.03.979-.062 2.007t-.043 1.524q-.011.496.011.688.022.192.134.58.135.05.291.061.155.012.247-.002.091-.015.385-.095.295-.081 1.138-.264t1.474-.252q.632-.07 1.165-.058.533.011 1.597.059 1.064.047 1.605.067.541.02.815.021.275 0 .956.01.682.01 1.153.001.47-.009.859-.046.389-.036.939-.066.55-.03.83-.074.279-.044.423-.098.143-.054.282-.146.138-.092.197-.146.06-.054.125-.119t.211-.254q.145-.19.212-.302.067-.111.133-.234.067-.123.126-.262.06-.138.105-.282.046-.145.268-.919.222-.774.309-1.52.086-.747.125-1.235.039-.488.039-.803 0-.314.001-.665.001-.352-.003-.561-.003-.209-.017-.549-.015-.339-.028-.543-.012-.204-.065-.408-.052-.204-.091-.393-.04-.189-.095-.468t-.071-.336q-.017-.056-.039-.101-.022-.046-.127-.282-.105-.236-.194-.384-.089-.149-.116-.182-.027-.034-.108-.111-.081-.076-.299-.273-.217-.196-.269-.224-.052-.028-.176-.077-.123-.048-.206-.085-.082-.036-.162-.082-.081-.046-.146-.076-.066-.03-.77-.277M7.616 1263.409q-.024.023-.351.447-.327.424-.49.621-.163.197-.493.594-.329.398-.794.971-.464.573-.731.878-.267.305-.757.814-.49.509-1.097 1.109-.608.599-1.011.943-.403.344-.926.818-.522.474-1.103 1.106-.582.631-.877.948-.294.316-.788.807-.494.49-.743.743-.25.253-.411.43-.16.177-.333.39-.172.214-.261.415-.089.201-.093.569.061.081.138.166.077.086.216.22.139.135.455.363.316.227.72.492.405.264 1.001.761.595.496 1.076.874.481.377.763.593.281.216.722.634.442.419.89.851.449.431.893.878.444.446.763.803.318.357.604.623t.577.512q.291.247.581.518.289.272.43.397.142.126.31.259.169.133.212.168.044.034.273.229.229.195.382.3.153.104.22.129.067.025.266.095.198.07.352.12.154.05.259.075.104.025.157.033.054.007.109.009.055.001.368-.015.312-.017.633-.101.321-.085.459-.149.137-.063.263-.108.127-.045.385-.181t.41-.238q.152-.101.218-.149.066-.048.168-.129.102-.081.511-.341.408-.259.703-.459t.637-.469q.342-.268.56-.442.218-.175.878-.905.659-.729.998-1.162.339-.433.457-.627t.186-.333q.069-.139.141-.333.072-.193.128-.399.055-.205.069-.275.015-.07.044-.196.029-.127.048-.25.018-.124.008-.686-.01-.562-.029-.819M-43.338 1283.942l.031.122q.005.105.361.878.356.774.641 1.415.285.642.425 1.017.14.376.243 1.793.103 1.418.106 2.374.004.956-.03 1.538-.035.583-.096 1.093-.062.509-.077.997t.027 1.431q.042.943.081 1.417.038.474.089.779.05.305.171.695.121.39.204.575.082.186.313.548.232.361.475.631.244.27.442.401.199.132.834.448.636.317.99.468.355.15.687.243.332.093.627.13.294.036.694.071.401.035.641.03.241-.006.618-.041.376-.035.694-.037.318-.002.635-.002.316 0 .701-.071.386-.071.674-.12.288-.05.606-.087.318-.038.565-.085.246-.047.46-.11.213-.062.39-.116.177-.054.295-.088.118-.034.219-.057.101-.024.353-.113.253-.088.567-.277.315-.19.503-.351.189-.161.281-.287.091-.126.13-.199.04-.074.063-.128.023-.053.083-.257.06-.204.119-.677.059-.473.07-.98.01-.508.038-1.108.028-.6.048-.94.02-.34.021-.501.001-.161.048-.763t.136-1.168q.09-.567.171-1.009.081-.443.174-.993.094-.549.217-1.293.122-.744.265-1.458.142-.714.268-1.387.126-.672.166-.941.039-.268.066-.478.027-.209.084-.643.056-.434.113-.754.058-.319.115-.702.057-.383.1-.864.044-.482.054-.691.01-.209.023-.376.012-.167.04-.335l.026-.096M-83.459 1275.68q-.118.105-.121.111-.004.006-.074.08-.07.074-.1.104-.029.03-.043.047-.014.018-.18.198-.166.18-.328.412-.162.233-.27.546-.108.314-.127.586-.019.271.04.71.059.439.141.711.081.272.388.848t.612 1.109q.305.533.475.805.17.271.718.884.548.612.89.961.343.349.624.58.282.232.429.334.147.103.393.287.247.185.38.283.134.099.31.215.176.116.451.257.274.142.494.251.219.11.376.174.156.065.26.09.105.025.189.049t.281.061q.197.037.383.032.185-.006.757-.052.572-.047.723-.1.151-.054.28-.129.129-.076.497-.247.367-.171.789-.409.421-.238.636-.377l.439-.287q.225-.147.603-.429.378-.281.666-.522.287-.241.602-.511.314-.269.483-.423.17-.154.496-.544.327-.389.516-.637.19-.249.447-.542.257-.294.639-.762.381-.469.58-.686.199-.218.515-.43.316-.213.496-.304t.272-.137q.092-.045.268-.145.177-.101.796-.551.62-.451.915-.722.295-.271.429-.439.135-.169.173-.218.039-.049.178-.36.139-.312.185-.531.046-.219.052-.338.006-.119.02-.196.015-.077 0-.328t-.042-.51q-.028-.259-.091-.524-.064-.266-.147-.499-.082-.233-.187-.499t-.242-.538q-.137-.271-.392-.745-.255-.473-.427-.755-.171-.281-.33-.474-.158-.192-.414-.547-.256-.356-.427-.624-.171-.268-.31-.444-.138-.177-.326-.341-.188-.164-.42-.322-.232-.159-.611-.541-.379-.381-.593-.611-.214-.23-.501-.453-.287-.222-.797-.592-.51-.369-.783-.564-.273-.195-.601-.347-.329-.151-.548-.236-.219-.084-.547-.26-.328-.177-.377-.195-.048-.019-.146-.052-.098-.032-.116-.039-.017-.006-.105-.044-.089-.038-.136-.061-.047-.022-.126-.047t-.115-.037q-.036-.013-.08-.035-.045-.022-.048-.026-.003-.005-.076-.037-.073-.033-.078-.032-.004.001-.041-.068M-83.757 1227.495q-.033-.078-.06-.127-.028-.05-.116-.099-.088-.05-.376-.053-.289-.003-.701.015-.412.019-.684.035-.272.015-.85.132-.579.116-.919.183-.341.068-.651.11-.311.042-.738.064-.427.021-.898.037-.471.016-.771.048-.299.032-.778.113-.479.081-.776.121-.298.04-.564.045-.266.006-.576-.024-.31-.029-.902-.03-.592-.002-1.283.037-.69.04-1.12.048-.429.009-.669.013-.24.003-.573.06-.334.056-.52.12-.187.064-.271.111-.085.047-.432.292t-.533.383q-.186.138-.334.291-.149.154-.292.393-.143.24-.266.649-.123.409-.176.629-.053.221-.169.663-.116.442-.168.68-.052.238-.066.435-.015.196 0 .572.014.376-.006.891-.02.514-.035.931-.014.417-.019.677-.004.26-.003.502.002.242.027.445.025.204.111.441.087.236.147.374t.087.21q.027.071.088.345.061.273.121.484.06.211.24.488t.359.465q.178.187.259.255.081.069.282.194l.389.242q.188.118.311.194.124.076.2.119.076.044.233.111.157.066.462.214.304.147.466.224.162.076.263.113.102.037.155.054.054.017.141.041.088.024.131.038.044.014.32.061.277.047.445.059.168.012.468-.008.301-.019.624-.033.322-.013.657.004t.597.02q.262.004.682-.057.419-.061.866-.096.446-.036.827-.036.381.001.697-.011.316-.011.494-.013.179-.002.425.028.247.031.572.123.324.092.686.167.361.074.586.105.224.03.541.109.316.079.498.126.181.048.351.074.17.026.378.045t.43.054q.222.034.448.078.225.043.631.08.405.037.643.062.239.025.485.045.245.021.502.021.256 0 .495.032l.085.021M-78.066 1183.901q-.054.042-.072.064-.018.022-.281.233-.263.21-.423.336-.16.126-.289.227-.13.102-.364.278-.235.177-.427.306l-.538.359q-.345.231-.517.355-.172.124-.634.465-.461.342-.723.557-.262.215-.389.334-.127.119-.327.345-.201.226-.336.4-.135.174-.28.396-.144.222-.236.413-.092.192-.215.539-.122.347-.224.767-.102.421-.138.671-.037.251-.044.612-.008.362.022.736.031.375.067.58.036.205.099.367t.25.424q.187.262.327.446.141.184.361.517.221.333.42.619.198.286.314.432.115.147.255.303.141.156.546.615.405.46.637.717.232.257.368.387.136.13.217.204.082.074.278.247t.368.348q.172.175.456.547.283.372.442.582.159.211.247.327.089.117.251.328.162.211.302.406.14.195.439.655.3.46.471.713.171.254.306.426.136.172.509.606.374.433.625.737.25.304.492.602.242.297.452.523.21.226.437.446t.363.324q.135.104.364.173.23.068.38.063.151-.004.343-.069.192-.065.454-.151.261-.087.467-.165.207-.08.598-.337t.813-.558q.422-.3.631-.454.209-.154.379-.306.169-.152.279-.26.111-.108.419-.426t.605-.607q.297-.289.729-.687.432-.398.648-.598.217-.2.383-.345.167-.145.348-.313.181-.168.284-.28.103-.112.254-.305.152-.192.356-.41l.324-.343q.119-.127.29-.378.172-.252.259-.391.088-.14.155-.238.067-.098.215-.342.147-.244.301-.535.153-.292.329-.594.176-.302.275-.459.1-.158.258-.37.159-.213.281-.405.123-.193.212-.371.09-.177.135-.287.045-.109.072-.181.028-.07.042-.245.014-.175-.001-.277-.015-.1-.034-.151-.019-.05-.07-.14-.051-.091-.089-.146-.039-.055-.068-.094-.03-.038-.07-.079-.039-.041-.134-.116-.094-.076-.249-.159-.155-.082-.252-.113-.096-.031-.263-.082-.167-.05-.407-.16-.239-.11-.483-.212t-.477-.18q-.233-.079-.604-.269-.37-.191-.684-.417-.314-.226-.554-.451-.241-.226-.43-.395t-.282-.238q-.094-.069-.341-.236-.247-.166-.479-.381-.232-.214-.416-.446-.184-.231-.39-.452-.207-.22-.318-.325-.112-.105-.287-.297-.175-.191-.343-.361-.168-.17-.405-.461-.237-.29-.371-.449-.134-.159-.272-.307-.138-.149-.376-.395-.238-.246-.366-.345-.128-.099-.319-.285-.192-.186-.293-.287-.101-.102-.205-.187-.103-.086-.309-.24-.206-.155-.315-.23-.109-.076-.399-.22-.291-.144-.443-.221-.152-.078-.281-.138-.129-.061-.283-.172-.154-.111-.23-.172-.076-.062-.164-.117-.088-.055-.131-.083-.042-.028-.11-.092-.069-.063-.107-.097-.039-.034-.094-.093-.055-.06-.076-.087-.02-.027-.044-.069-.024-.042-.061-.111-.038-.068-.1-.24"/>
    <path fill="none" stroke="#381d1d" stroke-width="1.692" d="M-64.395 1194.887q.295-.222.761-.558.465-.336.939-.661.473-.325.954-.639.48-.315.968-.619t.982-.597q.495-.292.996-.574.502-.282 1.009-.553.508-.271 1.022-.53.513-.259 1.033-.507.519-.248 1.044-.484.526-.236 1.056-.461.53-.225 1.066-.437.535-.213 1.075-.414.541-.2 1.085-.389.545-.189 1.094-.365.549-.177 1.101-.341.553-.165 1.11-.317.556-.152 1.116-.291.56-.14 1.123-.267.562-.127 1.128-.242.566-.114 1.134-.216t1.267-.212M-25.756 1185.171q.969.152 1.537.254.568.102 1.134.216.565.115 1.128.242t1.123.267q.56.14 1.116.292.557.152 1.109.316.553.164 1.102.341.549.177 1.094.365.544.189 1.084.39.541.2 1.076.413.535.213 1.066.437.53.225 1.055.461.525.236 1.045.484.52.248 1.033.507.514.26 1.022.53.507.271 1.008.553.502.282.996.575.495.293.983.596.487.304.968.619.481.314.954.64.473.325.939.66.466.336.555.404M7.381 1204.671q.638.855.998 1.361.361.505.709 1.017.348.511.683 1.027.335.516.656 1.036t.628 1.045q.307.524.6 1.053.292.529.57 1.062.278.533.541 1.072t.512 1.083q.249.544.483 1.095.234.551.454 1.11.219.558.424 1.124.206.566.396 1.141.191.574.368 1.158.176.584.338 1.176.162.593.309 1.195.147.601.281 1.212.133.61.251 1.227.118.618.212 1.249.094.63.153 1.275.06.646.078 1.096M17.266 1240.327q-.06.518-.143 1.126-.083.608-.179 1.212-.095.605-.204 1.205-.109.6-.231 1.195-.122.595-.257 1.184-.136.589-.284 1.172-.148.584-.31 1.16-.162.577-.337 1.148-.175.571-.364 1.136t-.392 1.124q-.203.559-.42 1.113-.218.554-.45 1.104-.231.549-.478 1.095-.247.545-.509 1.086-.262.542-.54 1.08-.277.538-.57 1.072-.293.534-.602 1.066-.309.531-.633 1.058-.324.528-.662 1.051-.339.523-.692 1.041-.353.519-.729 1.019-.376.501-.882 1.113M-2.828 1275.007q-.948.659-1.485 1.016-.537.357-1.078.702-.541.344-1.085.674-.544.33-1.09.646t-1.093.616q-.547.301-1.095.586-.547.285-1.096.554-.548.27-1.097.524-.549.255-1.099.494-.55.239-1.1.463-.551.225-1.104.435-.552.21-1.106.405-.554.196-1.11.378t-1.114.35q-.558.168-1.118.323t-1.123.297q-.562.141-1.127.27-.565.129-1.131.244-.567.116-1.136.219-.569.102-1.14.192-.571.09-1.144.167-.573.077-1.147.141-.574.064-1.149.116-.576.051-.69.059M-42.262 1284.266q-.905-.163-1.471-.277-.566-.115-1.128-.242-.563-.127-1.123-.267-.56-.139-1.116-.291-.557-.152-1.11-.317-.552-.164-1.101-.341-.549-.176-1.094-.365-.544-.189-1.085-.389-.54-.201-1.075-.414-.536-.212-1.066-.437t-1.056-.461q-.525-.236-1.044-.484-.52-.248-1.033-.507-.514-.259-1.022-.53-.507-.271-1.009-.553-.501-.281-.995-.574-.495-.293-.983-.597t-.968-.618q-.481-.315-.954-.64-.474-.325-.939-.661M-73.856 1265.508q-.07-.088-.417-.542-.347-.454-.683-.915-.337-.461-.662-.93-.326-.469-.641-.944-.314-.476-.618-.959-.304-.482-.596-.972-.293-.489-.574-.984-.281-.496-.551-.998-.27-.501-.528-1.009-.258-.508-.504-1.021-.247-.513-.481-1.032-.235-.518-.457-1.042-.223-.523-.433-1.052-.211-.528-.409-1.061-.198-.533-.384-1.07t-.359-1.079q-.174-.541-.335-1.086-.161-.545-.309-1.093-.149-.548-.284-1.1-.136-.552-.259-1.106t-.234-1.111q-.11-.557-.207-1.117-.098-.559-.188-1.16M-84.008 1227.76q.129-.856.227-1.415.097-.559.207-1.116.111-.557.234-1.112.123-.554.259-1.106.135-.551.284-1.1.148-.548.309-1.093.161-.545.335-1.086.173-.541.359-1.078.186-.538.384-1.071.198-.532.409-1.061.21-.528.433-1.052.222-.524.457-1.042.234-.519.481-1.032.246-.513.504-1.021.258-.507.528-1.009.27-.502.551-.997.281-.496.574-.985.292-.489.596-.972t.618-.959q.315-.475.641-.944.325-.469.662-.93.336-.461.747-.998"/>
    <path fill="none" stroke="#381d1d" stroke-width="1.41" d="M-42.983 1185.393q.109-.178.186-.282.077-.105.385-.679.308-.574.457-.983.149-.409.215-.63.066-.221.139-.556.074-.335.146-.866.072-.532.102-.957.031-.425.05-.894.019-.47.02-.947.001-.477.005-.953.003-.475.006-.814.003-.338-.005-.675-.008-.338-.008-.838-.001-.5.011-.895.011-.394.018-.601.007-.207.016-.547.009-.34.033-.664.025-.324.058-.657.033-.332.065-.593.032-.261.077-.511.045-.249.101-.458.056-.21.178-.569.122-.358.226-.572.105-.214.275-.473.169-.26.252-.358.082-.099.28-.282.198-.184.251-.222.052-.038.125-.083.072-.044.18-.109.107-.065.302-.168.195-.102.334-.16.139-.058.292-.105.154-.047.252-.073.098-.026.359-.09.262-.064.386-.077.124-.014.489-.058.365-.043.618-.064.253-.021.414-.024.16-.002.24.002.079.005.384.001t.481-.007q.176-.002.329.004.154.007.176.01.023.002.151.003t.296-.001q.168-.003.307-.001.139 0 .257.008.118.007.294.009.176.002.379 0 .204-.002.306.004.102.005.233.008.131.002.351.001.22-.001.302 0 .082.001.226.016.144.016.53.04.385.025.451.036.066.011.279.039.213.029.331.051.118.022.245.063t.295.092q.168.05.35.134.182.084.275.134.093.051.55.388.135.114.325.414.19.299.322.58.132.281.2.451.067.171.123.372.055.2.108.476.053.277.117.751t.087.718q.023.245.035.424.012.18.018.612.007.432.015.784.008.352.031.752.022.401.03.853.008.453.014.699.006.246.02.51.014.265.032.914.017.648.034.969.017.321.026.603.01.282.02.649.01.367.036.651.027.284.047.558.021.274.037.454.016.18.082.59.065.411.12.666.054.256.082.364.027.108.089.291.061.182.166.444.105.261.232.521.128.26.572.911M-75.347 1205.258q-.045-.193-.063-.315-.018-.121-.194-.716-.176-.594-.349-.97-.173-.377-.276-.57-.103-.193-.277-.468-.175-.276-.482-.683-.307-.407-.571-.715-.263-.308-.564-.637-.302-.33-.62-.653-.319-.323-.635-.647-.315-.323-.539-.554-.225-.23-.456-.453-.231-.222-.566-.559-.335-.338-.591-.611-.257-.274-.391-.418-.134-.145-.355-.38-.221-.236-.422-.471-.2-.234-.4-.48-.2-.246-.353-.444-.153-.198-.289-.396-.136-.198-.239-.377-.102-.179-.26-.502-.158-.323-.23-.537-.072-.214-.131-.502-.059-.288-.069-.409-.01-.122.001-.377.011-.256.021-.317.01-.061.029-.139.019-.078.049-.194.029-.115.092-.314t.118-.331q.055-.132.128-.265.072-.134.121-.217.049-.083.183-.3.134-.217.209-.309.074-.092.292-.364.218-.271.375-.454t.264-.291q.107-.108.164-.158.056-.05.26-.255.203-.205.32-.324.117-.118.226-.215.108-.098.125-.111.017-.014.104-.098t.199-.197q.112-.113.207-.205.095-.091.179-.164.085-.074.205-.189.121-.115.257-.251.136-.137.208-.201.073-.064.163-.149.091-.085.239-.231.147-.147.204-.2.056-.054.164-.139.108-.085.385-.323.276-.239.329-.275.052-.036.215-.158t.257-.184q.094-.063.208-.119.113-.056.261-.133.147-.078.326-.141.179-.063.276-.09.097-.027.631-.1.168-.011.496.068.329.079.606.183.277.105.437.177.16.072.332.172.171.101.392.255.221.155.581.439.36.283.539.435.179.153.308.269.128.116.421.409t.534.53q.241.237.524.498.283.261.591.569.308.307.476.473.169.166.355.339.187.174.633.611.445.436.671.647.226.211.422.4.196.189.449.437t.464.427q.211.18.413.358.202.177.34.292.137.116.483.362.346.247.585.394.239.147.348.208.109.06.313.154.203.093.526.22.324.126.69.242.365.115 1.445.336M-4.043 1193.274q.194-.05.317-.072.123-.021.72-.215t.973-.379q.377-.185.57-.294.193-.11.467-.293.275-.184.679-.506.404-.321.709-.596.305-.275.631-.589.326-.313.645-.644t.639-.66q.319-.328.547-.561.228-.233.447-.473.22-.24.553-.588.333-.348.604-.614.271-.267.414-.406.143-.139.376-.37.233-.23.466-.439t.477-.418q.244-.209.441-.369t.394-.303q.198-.143.376-.252.179-.108.503-.276.324-.168.539-.247.215-.079.506-.146.291-.067.414-.081.123-.013.383-.009.26.005.322.013.062.009.142.026.08.018.198.044.118.027.322.086.204.058.339.111.135.052.273.122t.223.117q.086.047.31.177.225.131.32.204l.378.286q.282.213.472.367.191.155.304.26.113.105.165.161.052.057.267.257.214.201.338.316.124.116.226.223.103.108.117.124.014.017.102.103t.206.196q.119.111.215.205.095.093.173.177.077.084.198.203.12.119.263.253.143.135.21.207.067.071.157.161.089.089.242.235.154.147.21.202.057.056.146.163.09.107.341.382.252.275.29.327.038.052.167.214t.196.257q.067.094.128.208.06.113.144.261.083.148.153.328.07.18.101.278.031.098.123.639.016.171-.052.508-.069.336-.165.622-.096.285-.163.451-.068.165-.164.343-.095.178-.244.408-.149.23-.423.608t-.422.566q-.148.188-.261.324-.113.136-.399.448-.287.311-.518.569-.232.257-.487.559-.255.303-.557.634-.301.332-.464.514-.163.182-.333.384-.171.202-.601.689-.431.486-.639.734-.208.248-.395.464-.187.215-.433.495-.245.279-.422.509-.177.23-.353.449-.175.219-.288.366-.113.146-.352.5t-.379.584q-.14.23-.196.331-.056.1-.141.281-.084.181-.194.451t-.203.555q-.094.286-.243 1.087M-84.347 1243.382q-.165-.103-.262-.175-.098-.072-.629-.363-.53-.291-.906-.435-.376-.144-.578-.209-.202-.064-.508-.138-.306-.074-.789-.152-.484-.077-.87-.115-.385-.038-.81-.066-.425-.028-.856-.04-.432-.012-.861-.025-.428-.013-.733-.023-.305-.009-.608-.009-.304.001-.753-.007-.449-.009-.803-.025-.353-.016-.539-.026-.185-.009-.49-.022-.304-.012-.593-.038-.29-.026-.586-.059-.297-.033-.53-.064-.234-.031-.456-.073-.222-.042-.409-.093-.187-.051-.508-.162-.32-.11-.511-.204-.192-.094-.424-.245-.233-.152-.322-.225-.088-.074-.254-.25-.166-.177-.2-.224-.035-.047-.076-.111-.04-.065-.1-.161-.059-.096-.153-.269-.093-.174-.147-.298-.054-.124-.098-.261-.043-.137-.068-.224-.025-.088-.085-.321-.06-.234-.074-.345-.014-.11-.057-.436-.043-.326-.065-.552-.022-.226-.026-.369-.003-.143 0-.214.003-.072-.004-.343-.006-.272-.01-.429-.003-.156.002-.293.005-.137.007-.158.002-.02.002-.133 0-.114-.003-.264-.003-.149-.003-.273.001-.123.007-.229.006-.105.007-.261.002-.156 0-.337-.003-.18.002-.271.005-.09.007-.207.003-.116.002-.311t0-.268q.002-.073.016-.2.014-.128.037-.47.024-.341.034-.4.01-.058.036-.247.027-.189.047-.293.021-.105.058-.217.038-.114.084-.263.046-.149.122-.311t.122-.246q.046-.083.351-.492.105-.121.376-.294.272-.173.527-.294.256-.122.411-.184.156-.063.339-.115.183-.053.437-.104t.69-.115q.436-.064.661-.087.226-.024.392-.037.167-.013.568-.024.401-.012.728-.023.328-.011.702-.035.373-.023.797-.034.424-.01.654-.017.231-.007.48-.021.249-.014.861-.031.612-.018.915-.033.304-.016.571-.024.268-.009.616-.017.349-.008.619-.031t.531-.039q.261-.017.432-.03.172-.014.564-.068.392-.055.636-.101.244-.046.347-.068.104-.023.279-.076.175-.052.425-.14.251-.089.501-.197.25-.108.88-.484M17.081 1242.498q.149-.09.236-.154t.568-.317q.48-.254.824-.373.343-.119.528-.17.185-.051.466-.107.281-.055.728-.103.447-.048.805-.064.357-.015.753-.02.396-.004.8.008.404.011.807.02.404.009.692.014.287.006.575.021.288.015.716.028.428.012.766.011.338 0 .516-.002.179-.001.471-.002.293 0 .573-.014.28-.014.567-.036.288-.022.514-.044.227-.023.444-.057.216-.034.399-.079.182-.044.496-.144.313-.099.501-.186.187-.088.416-.231.229-.144.315-.214.087-.07.25-.24.163-.17.197-.215.034-.046.074-.108l.099-.156q.058-.093.15-.262.093-.168.145-.289.053-.121.097-.254.043-.134.067-.219.025-.086.084-.314.06-.228.074-.336.014-.109.058-.428.043-.319.066-.541.023-.221.027-.362.005-.141.002-.21-.002-.07.006-.337.009-.268.014-.422.005-.154.002-.289-.003-.135-.005-.155-.002-.019 0-.131.001-.113.006-.26.005-.147.006-.269.002-.122-.003-.226-.004-.104-.003-.258.002-.154.007-.333.006-.178.003-.268-.003-.089-.003-.204 0-.115.005-.308t.005-.265q.001-.072-.01-.199t-.026-.465q-.014-.339-.023-.397-.008-.058-.029-.245-.021-.188-.038-.292-.018-.103-.052-.215-.033-.113-.074-.261-.041-.149-.112-.31-.07-.161-.113-.244-.042-.083-.329-.49-.098-.12-.358-.292-.259-.172-.503-.293-.244-.122-.392-.184-.149-.063-.324-.115-.174-.053-.416-.104-.242-.052-.657-.117-.414-.065-.628-.09-.214-.025-.372-.039-.157-.013-.536-.027t-.688-.028q-.308-.014-.659-.041-.351-.027-.748-.043-.397-.015-.612-.025-.216-.009-.448-.027-.232-.017-.801-.045-.568-.027-.85-.048-.281-.021-.528-.035-.248-.014-.569-.029-.322-.016-.571-.044-.248-.029-.488-.052-.24-.023-.398-.041-.157-.017-.516-.083-.359-.065-.582-.118-.223-.052-.318-.078-.094-.026-.253-.084-.16-.057-.387-.154t-.453-.214q-.226-.117-.788-.518M-43.859 1284.534q.11.178.186.282.077.105.385.679.308.574.458.983.149.409.215.63.065.221.139.556.074.335.145.866.072.532.103.957.03.425.049.894.019.47.021.947.001.477.004.953l.007.814q.003.338-.005.675-.008.338-.009.838 0 .5.011.895.011.394.018.601.007.207.016.547.009.34.034.664.024.324.057.657.033.332.065.593.032.261.078.511.045.249.101.458.055.21.177.569.122.358.227.572.105.214.274.473.17.26.252.358.083.099.28.282.198.184.251.222.053.038.125.083.072.044.18.109t.303.168q.195.102.334.16.138.058.292.105.153.047.251.073.098.026.36.09t.386.077q.123.014.488.058.365.043.619.064.253.021.413.024.161.002.24-.002.08-.005.385-.001t.48.007q.176.002.33-.004.153-.007.176-.01.023-.002.15-.003.128-.001.296.001.168.003.307.001.139 0 .258-.008.118-.007.293-.009.176-.002.38 0 .203.002.305-.003.102-.006.233-.009.131-.002.351-.001.22.001.302 0 .083-.001.227-.016.144-.016.529-.04.386-.025.452-.036.065-.011.279-.039.213-.029.331-.051.117-.022.244-.063t.296-.092q.168-.05.35-.134.181-.084.275-.134.093-.051.55-.388.134-.114.324-.414.19-.299.322-.58.132-.281.2-.451.068-.171.123-.372.056-.2.109-.476.053-.277.117-.751t.086-.718q.023-.245.035-.424.012-.18.019-.612.006-.432.015-.784.008-.352.03-.752.023-.401.031-.853.007-.453.013-.699.006-.246.02-.51.015-.265.032-.914.018-.648.034-.969.017-.321.027-.603.009-.282.019-.649.01-.367.037-.651.027-.284.047-.558.02-.274.036-.454.017-.18.082-.59.066-.411.12-.666.055-.256.082-.364.027-.108.089-.291.062-.182.167-.444.104-.261.232-.521t.571-.911M-4.317 1276.336q.186.053.304.076.119.024.69.226.572.202.929.392.358.19.541.302.183.112.442.299t.638.513q.38.326.665.605.285.279.59.597.305.318.604.653.298.336.597.669.3.334.514.571.214.237.42.481.206.245.52.6.314.355.571.628.256.273.392.416.136.143.357.379.221.236.444.451.222.215.456.431t.423.382q.189.166.379.315.191.149.364.263.173.114.488.292.315.179.526.265.211.085.497.163.287.077.409.095.121.017.38.022.258.005.32-.001.062-.007.142-.021.08-.015.199-.037.118-.022.323-.073.205-.052.341-.099.137-.047.276-.112.14-.064.227-.108t.315-.165q.228-.122.325-.191.098-.07.387-.272.288-.202.483-.349.195-.147.312-.247.116-.101.17-.155.054-.054.275-.246.221-.192.348-.303.128-.11.234-.213.105-.104.12-.12t.106-.098q.09-.083.212-.189.122-.105.221-.195.099-.09.179-.171.08-.08.204-.194.125-.114.272-.243.147-.129.216-.198.07-.069.162-.155t.25-.226q.158-.14.217-.193.058-.054.151-.157.093-.103.353-.368t.3-.315q.04-.05.175-.208.134-.157.204-.248.07-.092.134-.203.065-.111.153-.255.088-.145.164-.322.077-.177.111-.274.034-.096.145-.633.023-.169-.034-.507-.056-.339-.142-.627-.086-.289-.147-.456-.061-.168-.151-.349-.089-.181-.229-.417t-.401-.624q-.26-.388-.401-.582-.142-.194-.25-.334-.107-.14-.383-.463-.275-.323-.498-.589-.223-.267-.468-.58-.245-.313-.536-.658-.29-.344-.447-.533-.157-.189-.321-.399-.164-.21-.58-.716-.415-.506-.616-.764-.201-.257-.382-.482-.18-.224-.418-.515-.237-.292-.408-.531-.171-.239-.34-.467-.169-.227-.278-.38-.11-.152-.339-.518-.229-.367-.363-.605-.133-.237-.187-.341-.053-.104-.133-.289-.079-.186-.182-.463-.102-.276-.188-.568-.086-.291-.214-1.106M-75.094 1264.469q-.05.194-.071.317-.022.122-.212.719-.191.596-.374.974-.182.378-.291.571-.108.194-.289.471-.181.276-.499.684-.317.409-.589.718-.272.308-.582.639-.31.331-.637.656-.327.324-.652.649-.324.325-.555.556-.23.232-.467.456-.238.223-.582.562-.344.339-.607.614-.264.275-.402.42-.137.145-.365.382-.228.237-.434.472-.206.236-.413.484-.206.247-.364.446-.158.198-.299.397t-.248.379q-.107.179-.272.504-.166.325-.243.54-.078.215-.144.505-.066.29-.079.411-.013.122-.009.38t.013.32q.009.061.026.14.017.079.043.196.026.117.084.318.057.201.109.334.051.134.119.269.069.136.115.22.046.084.174.305.128.22.199.314.072.093.281.37.209.277.361.463.151.186.254.296.104.111.159.162.055.051.252.26.197.209.311.329.114.121.219.22.106.1.122.113.017.014.101.1.085.085.194.2t.201.208q.093.093.176.168.083.075.2.192t.25.255q.133.138.204.203.072.065.16.151.089.087.234.235.144.148.2.203.055.054.161.14.106.086.379.327.273.242.324.278.052.037.213.16.161.124.254.187.094.064.207.121.112.057.259.136.146.078.324.143.178.065.275.093.097.028.631.107.168.012.499-.063.33-.075.611-.176.28-.102.442-.172.162-.07.337-.169.174-.099.4-.251.226-.153.595-.433.37-.28.555-.431.184-.152.317-.267.134-.115.439-.408t.558-.53q.252-.238.549-.501.297-.263.623-.574.326-.311.505-.48.179-.168.378-.346.199-.177.679-.626.48-.45.725-.669.244-.219.458-.416.213-.197.49-.457.277-.259.506-.449.228-.189.446-.377t.364-.31q.146-.122.5-.384.354-.261.585-.417.231-.155.332-.218.101-.064.283-.161.182-.097.454-.227.273-.13.562-.246.29-.115 1.108-.333"/>
    <path fill="none" stroke="#381d1d" stroke-width="1.369" d="M-22.587 1240.693q.047.116.075.192.029.076.056.152.027.077.052.154.025.077.049.155.023.078.045.156t.042.157q.02.079.038.158t.035.158q.016.08.031.16t.028.16q.013.08.024.161.012.08.021.161.009.081.017.162.008.08.014.162.006.081.01.162t.006.162q.002.082.003.163 0 .081-.001.162-.001.082-.004.163t-.008.162q-.005.081-.012.162t-.015.162q-.009.081-.019.162-.01.08-.022.161-.012.08-.026.16-.014.08-.029.16-.016.079-.033.159-.018.079-.037.158t-.04.157q-.02.079-.043.156-.022.078-.047.156-.024.077-.05.154-.026.077-.054.153-.027.076-.057.151-.029.076-.06.151-.031.074-.064.149-.032.074-.067.147-.034.073-.07.146-.036.072-.073.144-.038.071-.077.142t-.079.14q-.041.07-.083.139t-.086.137q-.044.067-.089.134t-.092.133q-.046.066-.094.13-.048.065-.098.128-.049.064-.1.126-.051.063-.103.124t-.106.121q-.054.06-.109.118-.054.059-.111.116-.056.058-.113.114-.058.056-.116.111-.059.054-.119.108-.06.053-.121.105t-.123.102q-.062.051-.126.1-.063.049-.127.097-.065.047-.13.093t-.132.091q-.066.045-.133.088-.068.043-.136.084-.068.042-.138.081-.069.04-.139.078-.07.039-.141.075-.071.037-.143.072-.071.035-.144.068-.072.033-.145.065t-.147.062q-.074.03-.149.058-.074.028-.149.054-.075.027-.151.051-.076.025-.152.048t-.153.044q-.077.022-.154.041-.077.019-.155.037-.077.018-.155.033-.078.016-.156.03-.079.014-.157.027-.079.012-.158.022-.079.01-.158.019-.079.008-.158.015-.079.007-.158.012-.08.005-.159.008-.08.003-.159.004-.08.001-.159.001-.08-.001-.159-.003-.08-.003-.159-.007t-.159-.01q-.079-.006-.158-.014t-.158-.018q-.079-.01-.158-.022-.079-.011-.157-.025-.079-.013-.157-.028-.078-.015-.156-.032t-.155-.036q-.077-.019-.154-.04-.077-.02-.154-.043-.076-.022-.152-.046t-.152-.05q-.075-.026-.15-.054-.075-.027-.149-.056-.074-.03-.148-.061-.073-.031-.146-.064-.073-.032-.145-.067-.072-.034-.144-.07-.071-.036-.142-.074-.07-.038-.14-.077t-.138-.08q-.069-.041-.137-.083-.068-.043-.135-.087t-.133-.09q-.066-.045-.131-.092t-.128-.096q-.064-.049-.127-.099t-.125-.101l-.122-.104q-.06-.053-.12-.108-.059-.054-.117-.109-.058-.056-.115-.113t-.113-.115q-.055-.058-.11-.118-.054-.059-.107-.12t-.105-.123q-.051-.062-.101-.125-.051-.063-.1-.127l-.096-.13q-.047-.065-.093-.132-.046-.066-.091-.134-.044-.067-.087-.136-.043-.068-.085-.138-.041-.069-.081-.14-.04-.07-.078-.141-.039-.071-.076-.144-.036-.072-.072-.145-.035-.073-.068-.146-.034-.074-.066-.149-.032-.074-.062-.15-.03-.075-.059-.151-.028-.076-.055-.152-.027-.077-.052-.154-.026-.077-.049-.155-.024-.078-.045-.156-.022-.078-.042-.157-.02-.079-.039-.158-.018-.079-.034-.158-.017-.08-.027-.133"/>
  </g>
</svg>
