<svg xmlns="http://www.w3.org/2000/svg" width="203.148" height="185.7187" viewBox="-120.146 574.754 152.361 139.289">
  <g stroke-linecap="round" stroke-linejoin="round">
    <path fill="#dfdce3" stroke="#dfdce3" stroke-width=".5" d="M-58.413 619.607q-.023-.037-.039-.056-.119-.147-.186-.212-.066-.065-.139-.12-.072-.056-.226-.146.025-.16.049-.319.051-.296.075-.432l.054-.318q.059-.312.086-.456.028-.145.051-.279.063-.314.092-.462.028-.147.037-.205.063-.31.091-.453.028-.144.053-.29.057-.287.064-.327.066-.302.085-.415.066-.31.094-.454.028-.144.064-.343.042-.235.06-.344l.035-.213.05-.304.031.047.188.286.134.183.076.105.045.061.087.124.055.074.025.034.099.146.142.193.064.092.165.297.171.307.199.362.214.341.155.211.085.104.112.139.027.031.097.134.11.171.167.304.219.429.213.419.248.512.209.391q.289.53.292.534l.141.189.169.24.079.106.041.061.092.159.137.267.132.267.141.301.162.35.206.43.119.214.044.075.165.293.201.345.109.165.081.13.077.135.099.194.067.119.091.182.125.235.143.257.136.224.066.103.076.123.077.125.129.226.092.161.176.338.129.237.14.27.1.181.123.219.124.2.077.112.093.137.018.026.079.136.131.261.142.298.182.379.084.154.15.292.128.212.028.042.12.186.04.063.069.121.125.237.101.189.126.239.085.154.088.162.086.149.079.129.121.193.037.053.05.078.041.065.016.029.01.02.025.049.056.114.076.164.155.332.089.156.061.106.111.203.161.278.099.148q.333.495.369.524l.049.047.096.095.064.061.009.012.01.012.127.232.028.047.075.124.03.047.025.039.09.144q.093.166.137.229l.071.087.074.091.106.128.054.061.021.023.087.11.092.107.047.06.012.014.043.058.088.119.015.02.075.106.033.045.057.084.061.091.028.04.037.058.071.111.033.049.177.278.21.336.072.107.01.014.128.191.039.051.038.057.058.087.05.08.092.158.059.097.073.122.162.257.091.146q.056.089.084.114l.029.031.013.016.1.13.061.081.108.155.059.084-.079.08q-.106.114-.148.161-.11.117-.162.175-.053.057-.099.107l-.094.098q-.238.027-.353.061-.115.033-.223.086-.108.052-.151.083-.207.134-.29.21-.188.161-.213.189-.197.192-.205.202l-.196.204q-.229.246-.246.27-.229.255-.299.35-.246.298-.358.46-.276.379-.374.552-.273.431-.385.657-.268.496-.417.824l-.183.414-.027.05q-.101.18-.146.269-.114.212-.165.311-.052.1-.101.196-.05.097-.067.143-.099.232-.142.337-.044.106-.085.204-.041.099-.109.278-.099.297-.142.428-.043.13-.084.252-.04.122-.072.261-.102.435-.143.628-.042.194-.044.267-.068.508-.087.824-.027.49-.017.646l-.009.312-.006.03q-.137.152-.194.237-.057.085-.101.177-.044.092-.074.19t-.046.199q-.016.101-.019.305v.065q-.002.063.001.297-.002.077.002.183t.013.329l.009.148q-.031.186-.057.347-.027.161-.051.308-.024.146-.03.234-.055.441-.076.634-.022.192-.019.303-.023.46-.014.626-.008.425-.001.458.056.392.135.573.078.181.204.333.126.152.307.276.228.191.36.26.131.07.203.09l.115.164.045.061.062.19q.134.451.208.615l.152.414q.03.191.045.241.07.273.104.399.034.127.076.248.041.122.045.129.114.252.169.371.054.118.158.289.161.245.295.441.091.238.138.353.047.114.104.207.13.226.195.333.066.107.103.153.151.211.226.311.075.1.171.197.192.199.288.292.097.092.121.109.214.175.322.255.108.08.138.095.249.149.485.275.28.124.402.163.212.148.33.208l.133.069q.095.279.151.395.144.321.296.599.2.298.359.483.242.264.383.372.141.107.155.113.301.17.461.229.161.058.167.059.322.073.573.088.321.006.478-.018.158-.025.177-.032l.139.016q.245.176.371.252.126.076.135.079.308.143.455.207.147.064.32.102l.329.076q.216.15.237.159.239.132.36.189.121.057.242.089.273.079.41.108.137.028.229.029.296.02.346.02.228.11.396.161.285.08.425.112.139.031.305.038.302.014.449.011.147-.004.173-.009l.227-.029q.259.103.26.103.248.068.411.087.27.027.302.025.277 0 .444-.027.267-.043.364-.074l.155-.041.155-.036.106-.012.166-.005.099.006.263.053q.413.076.498.071l.357.014q.436.002.609-.035.423-.062.501-.093l.335-.091.184-.056.17-.038.116-.023.205-.016.32-.042.343-.087.344-.14.276-.154.21-.127.255-.143.194-.107.209-.104.191-.091.295-.137.28-.156.285-.186.251-.198.182-.161.217-.188.137-.126.182-.152.078-.068.062-.049.128-.058q.185-.085.274-.128.09-.043.105-.052.202-.108.376-.207.191-.12.26-.169.194-.127.206-.137.193-.137.28-.216.088-.079.118-.118.13-.145.164-.191l.116-.145q.15-.188.157-.198l.167-.208.179-.206.176-.187.203-.199.102-.1.232-.205q.272-.287.275-.293l.138-.22.112-.2.073-.142.121-.21.137-.236.15-.262.181-.326.138-.293q.167-.381.169-.392.116-.396.116-.407l.018-.113q.058-.136.116-.276.048-.115.081-.198.034-.083.101-.257l.036-.093q.065-.147.124-.288.066-.18.097-.267.069-.174.13-.333.063-.176.09-.257.068-.187.091-.256.07-.19.1-.284.068-.196.075-.218.088-.214.09-.221l.101-.24q.123-.289.128-.309l.051-.156.02-.065.047-.146q.026-.076.049-.153.011-.037.012-.054l.008-.079.004-.053.001-.034.002-.046.002-.044v-.015l.002-.035.001-.008.009-.123.004-.107.002-.123v-.265l-.001-.367.009-.049q.039-.181.049-.265.028-.182.031-.226.023-.194.023-.196.026-.216.026-.233.022-.201.022-.211.033-.229.035-.262.026-.212.032-.341.009-.215.007-.28l.003-.199v-.182q0-.22-.022-.416l-.009-.055-.001-.009-.001-.099v-.224l.001-.14v-.157l.001-.182v-.12q.015-.223.014-.244v-.165l-.002-.15q-.006-.294-.059-.532l-.089-.278-.006-.011-.016-.096-.016-.105-.028-.193q-.081-.391-.098-.423l-.054-.115q-.176-.341-.192-.359h0l-.033-.114q-.111-.378-.128-.405l-.046-.08-.077-.134-.041-.064-.001-.001-.009-.016-.003-.006-.009-.025-.03-.095-.018-.054-.04-.127q-.032-.118-.074-.232-.007-.023-.015-.033l-.028-.047-.045-.07-.006-.021-.03-.108q-.025-.104-.058-.206-.015-.055-.035-.088l-.063-.105q-.045-.08-.094-.156-.027-.045-.05-.067l-.106-.107-.061-.085q-.069-.106-.147-.206-.008-.011-.014-.016l-.115-.101-.013-.018-.038-.059q-.209-.325-.271-.381l-.099-.087-.185-.148-.016-.017-.105-.126q-.268-.286-.329-.323l-.074-.045-.021-.012-.094-.059-.023-.016-.075-.071-.053-.049-.051-.05-.055-.113q-.037-.083-.08-.163-.019-.04-.034-.058l-.019-.023-.019-.043-.013-.032q-.152-.362-.212-.438l-.052-.063-.023-.041-.025-.047q-.181-.334-.312-.472-.131-.138-.178-.166l-.1-.062-.016-.013-.085-.071q-.07-.063-.144-.121-.05-.042-.091-.062l-.048-.022-.024-.016-.036-.025-.007-.008-.102-.127q-.048-.064-.099-.124-.046-.057-.076-.079-.298-.219-.376-.25l-.062-.024-.057-.078q-.065-.096-.137-.187-.016-.023-.03-.034l-.101-.088-.057-.051q-.23-.272-.276-.305-.111-.155-.176-.225-.065-.069-.212-.191l-.065-.071q-.072-.088-.152-.17-.032-.035-.06-.053l-.094-.062q-.065-.046-.132-.088-.072-.047-.133-.069-.12-.049-.244-.086-.032-.012-.06-.015l-.037-.004-.012-.001-.033-.003-.027-.002h-.003l-.097-.047-.192-.085-.095-.042q-.067-.03-.093-.034l-.055-.011-.02-.004-.108-.06q-.346-.182-.432-.201-.367-.089-.418-.088l-.197-.008-.143-.002-.016-.016-.054-.05q-.098-.104-.205-.197-.008-.008-.015-.012l-.02-.011-.105-.064q-.082-.053-.116-.072l-.065-.037q-.016-.009-.022-.011l-.063-.023-.013-.007-.035-.02q-.347-.196-.415-.214l-.202-.05-.054-.014q-.105-.026-.146-.025l-.019-.001-.087-.023q-.364-.093-.418-.092h-.01l-.105-.025-.006-.002-.044-.012-.105-.029q-.109-.035-.22-.061-.044-.012-.074-.012l-.051-.001-.073-.001-.079-.001h-.088l-.03-.009q-.134-.043-.27-.074-.013-.003-.025-.004l-.02-.001h-.019l-.037-.001-.054-.001-.068-.001-.072-.001-.09-.001-.047-.001-.092-.004-.195-.013-.161-.003-.151-.002q-.405-.002-.44.008l-.006.001-.042-.009q-.145-.037-.293-.059-.012-.003-.021-.002h-.018l-.018.001-.025.001-.101.003h-.041l-.016.001-.029.003-.031.001-.065.004-.08.002-.126.003-.143.003-.154.003-.13.002-.121.003-.056.001-.026-.003-.221-.033-.083-.012q-.076-.011-.101-.007l-.051.005-.073.005-.275.018-.118.023-.023.004-.053.007-.082.008-.09.007-.089.006-.118.008-.118.008q-.392.03-.469.06l-.193.065-.087.033-.037.009-.094.015-.068.011-.066.009-.079.01q-.387.052-.61.154l-.308.182-.015.013-.019.014-.106.02-.109.021-.121.022-.203.041q-.206.056-.253.076l-.068.027-.129.047-.032.012-.08.027q-.182.059-.272.1-.089.042-.095.046l-.037.021q-.166.088-.245.142-.08.054-.147.111l-.085.069-.025-.02-.097-.078-.133-.1-.081-.06-.149-.1-.071-.046-.058-.039-.039-.03-.06-.047-.062-.051-.107-.081-.106-.076-.036-.026-.059-.041-.107-.063-.03-.022-.419-.22-.15-.086-.085-.046-.044-.025-.063-.034-.095-.048-.054-.028-.057-.03-.098-.048-.047-.024-.117-.056-.028-.017-.036-.021q-.002-.002-.016-.006l-.079-.029q-.058-.022-.18-.057l-.168-.056-.03-.011-.019-.008-.125-.045-.082-.031-.014-.005-.035-.017-.025-.012-.057-.029-.03-.018-.011-.007-.013-.008-.022-.016-.139-.091-.295-.167-.082-.048-.038-.024q-.029-.021-.497-.178l-.037-.015-.057-.028-.098-.064-.052-.039-.072-.059-.123-.099-.091-.079-.034-.034-.091-.096-.098-.104-.052-.055-.043-.047-.167-.156-.135-.123-.105-.097-.137-.119-.034-.033-.059-.061-.05-.053-.04-.046-.12-.14-.103-.129-.141-.178-.116-.161-.144-.196-.162-.21-.182-.212-.09-.114-.018-.026-.027-.042-.149-.229-.087-.153-.17-.298-.197-.34-.158-.286-.362-.497-.101-.143-.074-.108-.02-.032-.031-.051-.088-.152-.081-.153-.242-.415-.118-.221-.137-.267q-.008-.023-.06-.104-.071-.116-.147-.228l-.176-.277-.019-.03-.104-.17-.117-.185-.054-.092-.065-.116-.075-.14-.027-.055-.189-.343-.015-.029-.208-.364-.202-.321-.157-.242-.082-.135-.102-.178-.092-.152-.048-.085-.113-.206-.112-.216-.172-.313-.177-.305-.143-.244-.147-.239-.279-.37-.183-.221-.049-.064-.117-.154-.048-.072-.198-.295-.196-.293-.245-.353-.27-.359-.222-.282-.2-.24-.185-.212-.214-.211-.044-.046-.07-.076-.037-.043-.066-.088-.122-.175-.189-.27-.132-.209-.29-.365-.145-.193-.026-.038-.08-.11-.09-.123-.017-.024-.071-.104-.061-.091-.131-.202-.098-.17-.084-.169-.218-.366-.165-.278-.101-.16-.05-.088-.18-.277-.047-.081-.127-.222-.011-.022-.028-.07-.001-.004-.052-.148-.017-.062-.153-.427-.158-.388-.067-.173-.189-.411-.118-.265-.028-.077-.02-.058-.03-.09-.035-.116-.008-.035-.029-.143q-.012-.101-.228-.677l-.058-.156-.085-.217-.047-.123-.007-.067-.027-.375-.022-.294-.017-.322-.009-.192-.002-.088v-.076l.001-.056.003-.133.002-.105.004-.109.008-.215.005-.134.009-.205-.046-.69-.01-.166-.011-.171-.028-.378-.003-.137v-.002l.005-.096.006-.101.012-.255.005-.064.013-.317.01-.127q.01-.064-.027-.842l-.038-.409-.023-.214-.004-.049-.005-.046-.002-.079-.002-.166-.014-.375-.005-.129-.005-.251-.067-.665-.001-.031-.003-.166-.017-.345-.002-.032-.004-.078-.001-.049-.003-.108-.002-.158.001-.177-.001-.191.001-.034.007-.123.012-.148.016-.218.012-.176.012-.235.005-.294-.028-.51-.037-.452-.051-.367q.027-.227.055-.473.013-.099.026-.216.013-.117.026-.239.014-.122.028-.254.014-.131.042-.425.01-.081.021-.202.011-.121.023-.248l.023-.264q.012-.137.036-.448.004-.031.007-.159.002-.128.003-.258t.001-.27q0-.139-.001-.453-.002-.207-.004-.337-.002-.13-.01-.41.001-.061-.005-.186t-.019-.386q1.463-.796 2.312-1.22.849-.424 1.208-.575.359-.151 1.246-.478.887-.326 1.289-.44.402-.114 1.137-.266.734-.151 1.467-.263.732-.112 1.709-.235.976-.123 1.735-.202.758-.078 1.299-.113 1.081-.07 1.104-.074.023-.005.511-.052t1.209-.115q.72-.069 1.32-.125.599-.057 1.317-.125t1.556-.147q.837-.078 1.793-.169.955-.09 1.795-.168.839-.078 1.562-.143.723-.066 1.329-.12.607-.054 1.342-.116.734-.063 1.248-.098t.561-.022q.19.054.346.086.156.032.277.034.12.002.352.011.232.008.388 0t.353-.011q.198-.003.538.004.34.006 1.098.083.759.077 2.176.328 1.418.251 1.736.361.319.11.592.188.274.078.783.19.508.113.866.18.358.067.901.156.542.089.963.178.421.09.762.189.341.098.734.29.393.191.874.475.481.283.744.447.264.163.367.22.103.058.357.19t.646.36q.393.228.716.409.323.18.893.467.571.288 1.116.56.545.272 1.872.892 1.328.619 2.008.894.679.275 1.524.569.845.293 1.83.603.984.309 1.733.532.75.222 1.153.336.403.114 1.222.416t1.459.645q.64.343 1.843 1.093 1.203.75 2.033 1.49.829.74 2.075 2.021 1.245 1.282 1.45 1.535.204.253.488.604.283.351.835 1.029.552.678 1.445 1.688.894 1.01 2.052 2.208 1.159 1.199 2.252 2.302 1.094 1.104 1.437 1.489.343.384 1.095 1.285.751.901 1.545 2.084.794 1.183 1.416 2.524.621 1.34.72 1.672.099.333.175.585.076.253.206.759.129.506.344 1.413.216.907.378 1.741.162.834.383 1.797t.554 1.817q.332.853.606 1.706.274.853.396 1.305.121.451.267.827.146.376.374 1.004.228.629.321.966.093.337.141.5.047.162.203.633.155.471.383 1.041.228.571.424 1.262.197.692.535 2.05.339 1.358.434 2.245.095.887.13 2.534.035 1.646.021 2.597-.014.951-.02 1.306-.006.355-.059 1.133-.053.779-.214 2.032-.162 1.254-.256 2.052t-.218 1.434q-.123.637-.192 1.112-.069.474-.127 1.139-.059.665-.198 1.603-.139.939-.5 2.806-.361 1.866-.721 2.803-.36.936-.674 1.829-.314.893-.407 1.282-.093.388-.364 1.133-.27.746-.787 1.947-.517 1.2-.966 2.292-.449 1.092-.96 1.945-.512.854-1.344 2.119-.832 1.265-1.338 2.005-.506.741-1.066 1.388-.559.648-1.463 1.716-.905 1.068-1.434 1.859-.529.792-1.06 1.373t-1.181 1.095q-.65.514-1.675 1.401t-1.649 1.593q-.624.706-1.187 1.309-.562.602-1.266 1.344-.704.743-1.201 1.224-.497.481-.941.796-.444.315-1.452 1.093-1.007.778-1.43 1.171-.422.394-.576.543-.153.15-.294.271-.141.122-.412.335-.271.213-.49.372-.22.158-.439.315t-.627.414q-.408.257-.807.502-.398.246-.572.341-.175.095-.398.226-.224.131-.673.354-.449.224-.577.29-.129.067-.423.203-.295.136-.773.316-.477.181-.503.184-.026.003-.185.061-.159.057-.476.191-.316.133-.85.368t-.875.367q-.34.131-.534.221-.193.09-.539.245-.346.155-.781.326-.435.171-.981.445-.546.275-1.123.555-.578.28-1.044.55-.465.269-1.214.679-.748.409-1.513.801-.764.392-1.494.682-.73.289-1.345.397-.615.107-1.582.268-.967.162-1.777.294-.811.131-1.78.285-.969.153-1.843.248t-1.659.131q-.784.036-1.481.072-.697.037-1.614.096-.917.059-1.527.102-.61.043-.937.064-.327.022-.715.051-.388.03-1.086.094-.698.065-1.423.109-.725.044-1.389.042-.665-.003-1.231.001-.566.004-1.403-.015-.836-.018-1.618-.11-.783-.092-2.036-.31-1.253-.218-2.404-.464-1.151-.246-1.974-.478-.822-.231-1.57-.426-.748-.195-1.692-.424-.945-.228-1.697-.411-.751-.182-1.59-.396-.84-.213-1.863-.416-1.023-.203-1.917-.387-.894-.184-1.358-.311-.464-.126-1.153-.396-.689-.27-1.369-.561-.68-.291-1.575-.733-.895-.442-1.469-.771-.574-.329-.962-.571l-.996-.622q-.608-.38-1.056-.693-.449-.314-1.155-.878-.705-.563-1.226-.98-.52-.416-1.009-.811-.49-.394-1.122-.905-.632-.512-1.146-.916-.513-.404-.907-.702-.787-.595-1.522-1.103-.735-.507-1.345-.853-.611-.345-1.312-.832-.701-.488-1.314-1.07-.613-.582-1.424-1.428-.812-.845-1.502-1.722t-1.239-1.699q-.548-.823-.889-1.296-.341-.474-.719-1.019-.377-.545-.906-1.317-.528-.772-1.058-1.6-.53-.827-1.062-1.712-.532-.884-.946-1.65-.413-.766-.855-1.738t-.839-1.705q-.398-.733-.96-1.87-.563-1.137-1.363-2.99-.8-1.853-1.273-3.124-.472-1.27-.871-2.793-.398-1.522-.601-2.54-.203-1.017-.516-2.557-.312-1.541-.663-3.452-.351-1.911-.5-2.906-.149-.995-.225-1.786-.076-.79-.053-2.029.023-1.238.228-3.264.205-2.025.513-3.663.308-1.637.395-2.047.087-.41.218-1.347.132-.937.322-2.446.19-1.508.217-1.617.028-.108.084-.461.057-.353.159-1.018.102-.665.259-1.472.158-.807.449-2.015.29-1.209.346-1.506.055-.296.117-.671.063-.374.186-1.128.124-.754.399-1.733.276-.98.807-2.215.532-1.236.799-1.66.267-.423.589-.93.321-.507 1.002-1.545.68-1.038 1.102-1.667.423-.629 1.149-1.569t1.851-2.368q1.126-1.428 1.868-2.241.743-.812 1.15-1.266.406-.454 1.017-1.038.61-.584 1.673-1.61 1.063-1.026 1.514-1.512.452-.486.856-.891.405-.405.872-.778.467-.373.904-.676.437-.303 1.236-.888.798-.584 1.654-1.204.857-.62 1.226-.877.369-.256.984-.678.614-.422 1.361-.961.746-.538 2.453-1.621.19.118.388.211.216.084.311.114.214.077.313.107.223.076.355.117.236.079.381.124.226.076.373.123l.378.135q.239.096.292.116.207.094.254.115l.182.095.154.095.047.028.029.022q.168.12.26.167.091.047.128.06l.054.022q.175.074.31.111l.044.01q.128.035.154.04.119.025.239.043l.021.148.005.044.006.084.003.089.003.13.003.229.016.382.023.181.009.055.037.259.027.156.024.135.026.137.013.06.011.049.022.096.05.268.119.514.022.056.084.303.016.05.037.124.036.151.042.169.029.108.042.137q.045.18.06.223l.012.037.004.014.005.029v.004q-.121.202-.14.323-.02.121-.031.241t-.007.165q.002.245.008.395.005.264.009.417l-.007.065-.025.18q-.097.147-.176.305-.016.031-.046.12-.031.088-.074.272-.008.028-.026.138-.017.109-.048.334-.003.014-.014.116-.01.102-.021.207-.01.106-.029.332-.009.088-.014.19-.004.102-.009.209-.005.106-.01.222-.005.117-.017.382-.004.191-.007.299l-.004.225q-.003.117-.006.25-.002.132-.009.45-.004.191-.006.306l-.004.239q-.003.125-.006.27-.002.144-.009.501-.006.189-.009.303-.004.114-.008.239-.004.125-.008.269-.004.145-.015.503-.01.197-.016.31-.005.114-.012.239l-.013.269-.024.502q-.009.17-.014.281-.005.111-.01.232-.006.121-.012.259-.007.139-.02.473-.008.128-.012.236-.005.108-.01.223-.005.116-.011.246-.006.13-.018.441-.008.175-.012.288-.004.112-.009.235l-.013.404q-.003.028-.009.143-.006.116-.012.239-.007.123-.021.402l-.004.108q-.004.108-.011.287l-.066-.007-.027-.004-.061-.037q-.326-.2-.362-.21l-.128-.041q-.356-.097-.364-.097l-.068-.023-.204-.072q-.374-.104-.424-.104l-.235-.017-.206-.006h-.249l-.129-.043q-.373-.122-.421-.124l-.115-.012-.345-.037-.099.005-.098.002h-.027l-.036-.001-.053-.003-.071-.005-.04-.004-.083-.01-.038-.005-.033-.024-.125-.101q-.322-.229-.373-.247-.348-.126-.387-.13l-.153-.016q-.356-.017-.508.015-.327.08-.466.152l-.055.026-.057.015-.205.045-.244.074-.05.021-.006.003-.07.005-.065-.002-.132-.008q-.393-.01-.438.002l-.108.023q-.365.095-.425.13l-.022.002-.093.007q-.395.035-.489.071l-.012.005-.076-.008-.08-.005-.07-.004-.032-.001-.03-.001-.056-.001-.066-.001-.06-.001h-.188q-.129-.006-.257-.001-.038 0-.062.007-.356.096-.515.188-.16.092-.23.162l-.002.002q-.379.058-.553.137-.175.079-.201.1l-.224.167-.02.007-.124.043q-.097.03-.191.066-.033.011-.048.022-.295.187-.362.257l-.006.007-.027.025-.045.018q-.345.131-.38.156-.303.201-.333.234l-.051.05-.187.067q-.352.147-.399.184l-.176.138-.107.096-.095.089-.061.033q-.319.185-.366.232-.256.253-.298.323l-.163.256-.003.007-.102.093q-.281.272-.318.336l-.13.207-.045.087-.024.043-.077.079q-.262.284-.316.39l-.139.273-.051.136-.056.146-.029.076-.037.088-.011.022-.03.061-.028.052-.084.15-.082.168-.14.306-.036.112-.038.126-.025.074-.02.06-.023.064-.018.036-.09.172q-.16.358-.172.446l-.048.248-.026.194-.018.14-.012.083-.013.069-.007.037-.017.056-.079.255-.028.139-.055.262-.033.212-.037.238-.016.125-.006.039-.006.032-.016.066-.02.086-.01.043-.019.084-.067.329-.022.299.004.169v.168l.001.149v.829l-.002.285.007.145.002.117.001.086v.194q.001.403.014.448l.069.31.066.201.055.161.05.158.062.195.027.072.042.122.06.159.092.206.094.175.083.145.108.207.13.256.149.293.179.333.176.283.141.202.213.295.16.171.189.195.108.103.157.168.188.211.122.132.134.149q.279.326.345.374.322.289.349.303.346.258.402.284.363.22.474.256l.357.151.323.1.206.053.145.044.157.062.28.139.308.147.371.16.396.127.247.05.241.053.128.03.221.071.269.102.273.115.13.052.223.097q.393.171.428.176.409.124.452.127.414.08.446.079l.377.031.314.006.266-.001.091-.003.173-.003h.59q.4-.018.591-.083.361-.132.364-.134l.22-.123.098-.056.137-.061.129-.047.007-.002.038-.009.163-.025.23-.027q.394-.058.402-.062l.275-.096.364-.152.131-.082.175-.096.138-.07.211-.092.315-.134.246-.126.343-.191q.32-.246.33-.258l.175-.176.151-.156.128-.13.095-.09.176-.147.122-.1.229-.17.176-.146.182-.154.12-.11.164-.145.064-.06.117-.112.146-.157.17-.195.127-.163.105-.135.126-.158.079-.101.099-.117.024-.028.027-.027.053-.052.062-.06.11-.101q.283-.26.308-.304l.153-.221q.193-.327.199-.351l.117-.31.074-.243.052-.163.057-.146.033-.083.018-.045.035-.068.092-.156q.183-.332.19-.364l.091-.284q.105-.393.105-.402l.064-.374.067-.387.078-.381.051-.259.066-.257.059-.217.094-.337.042-.282.028-.267.03-.294.022-.269.005-.14.049-.417.029-.351.038-.376.023-.293.019-.292.004-.249-.002-.203.001-.219q.002-.272.001-.28.002-.269-.001-.325l.002-.171v-.077l.017-.241q.046-.289.047-.338l.023-.226q.027-.276.025-.336l.008-.203q.008-.258-.005-.386-.013-.128-.029-.19l-.033-.157-.026-.127-.018-.099-.018-.136-.014-.177-.01-.171q-.007-.278-.02-.379l-.017-.179-.004-.035q-.024-.272-.057-.404-.032-.132-.083-.255-.051-.124-.101-.205-.032-.053-.065-.107Z"/>
    <path fill="#dfdce3" stroke="#dfdce3" stroke-width=".5" d="m-56.86 613.073.007.019.032.041q.011.015.043.426.032.412.081.766.049.355.124.792.076.437.138.811.062.374.111.685.049.311.093.7.045.39.083.864.038.474.065.836.027.362.044.609.018.246.052.58.035.334.086.755.05.421.124.846.074.424.172.849.098.426.228.863.13.438.293.886.162.448.301.839.138.391.308.891.17.5.278.888.109.388.21.723.101.336.231.748t.234.721q.104.309.222.619.118.31.233.571.115.262.249.572.134.309.324.754.191.444.343.793.153.348.324.727.172.378.305.618.133.239.207.367.075.128.314.493.239.366.479.741t.49.722q.251.348.38.506.129.159.249.278.119.12.292.289.173.17.432.425.259.256.472.416.213.161.341.23.127.069.281.144.154.075.218.1.064.025.212.061.148.035.218.045.069.009.167.031.099.022.203.049.103.027.141.034.037.008.188.006.152-.003.387-.024.235-.021.341-.032.106-.01.287-.086.18-.077.253-.119.073-.043.227-.127.153-.084.413-.268.259-.184.477-.319.217-.135.374-.204.157-.07.402-.217.245-.147.383-.234.139-.088.371-.218.233-.13.54-.336.307-.207.58-.398.273-.192.582-.398.308-.205.451-.291.142-.085.254-.162.111-.077.257-.165.145-.088.236-.134l.293-.153q.204-.106.37-.166.166-.061.438-.15l.231-.032q-.294-.333-.588-.667t-.588-.667q-.294-.334-.589-.667-.294-.334-.588-.667l-.588-.668q-.294-.333-.588-.667-.294-.333-.588-.667t-.588-.667-.588-.667-.588-.667q-.295-.334-.589-.668-.294-.333-.588-.667-.294-.333-.588-.667t-.588-.667-.588-.667-.588-.667l-.588-.668-.589-.667q-.294-.333-.588-.667t-.588-.667l-.588-.668-.588-.668q-.294-.334-.587-.668-.294-.334-.588-.669-.293-.335-.586-.671-.294-.336-.586-.674-.293-.337-.585-.676-.292-.34-.584-.681-.291-.342-.581-.687-.29-.344-.58-.692-.289-.347-.577-.697l-.576-.702Z"/>
    <path fill="#8479d4" stroke="#8479d4" stroke-width=".5" d="m-102.845 606.867-.078-.024-.227-.046q-.022.002-.276-.072t-.539-.162q-.284-.088-.948-.166-.663-.078-1.263-.095-.6-.018-1.091-.053-.491-.036-1.217.026-.726.062-1.065.119-.339.057-.596.136-.257.079-.664.251-.408.172-.808.364-.4.193-.743.412-.343.219-.639.433-.296.213-.631.569-.336.355-.544.583-.208.228-.271.285-.064.057-.201.194t-.232.233q-.096.096-.287.356-.191.259-.594.944-.403.684-.492.901-.088.218-.198.564-.11.347-.194.713t-.21.963q-.127.597-.18.957-.052.361-.111 1.268-.059.906-.023 1.63.036.723.089 1.087.052.364.108.591.056.227.177.616t.258.673q.138.285.196.374.058.089.234.343.177.254.726.846.549.591.848.887.3.296.725.581.426.285.633.4.207.115.524.282.317.168.79.325.474.158.873.274.399.117.6.18.2.063.411.122.211.058.522.134.312.076.545.136.233.06.55.186.316.125.594.254.277.129.739.231.462.102.763.132.3.029.529.063.228.034.509.051.28.017.622-.023.342-.04.677-.103t.523-.108q.188-.046.508-.186.321-.141.637-.303.315-.162.543-.318.229-.156.501-.424.272-.269.559-.516.287-.248.519-.43.231-.182 1.013-.97.781-.788.942-.988.161-.2.454-.536.294-.336.465-.534.172-.198.268-.331.096-.133.248-.377.152-.245.299-.52.148-.275.226-.437.078-.163.148-.361.071-.198.143-.411.071-.214.17-.504.099-.289.216-.805.118-.516.195-.833.077-.317.124-.713.046-.397.054-.619.008-.223.013-.455.005-.232.006-.7.002-.468.002-.949v-.703q0-.221-.01-.458-.011-.237-.022-.383-.012-.146-.02-.18-.007-.034-.054-.373-.048-.34-.068-.507-.02-.167-.043-.262-.024-.095-.058-.222-.035-.126-.072-.282-.036-.156-.048-.205-.011-.049-.04-.142-.029-.092-.059-.201-.031-.109-.049-.184-.017-.075-.115-.371-.098-.295-.128-.371-.03-.076-.036-.089-.007-.013-.081-.236l-.029-.163-1.691-.316q-.845-.159-1.691-.317l-1.691-.316-1.691-.316Z"/>
    <path fill="#8479d4" stroke="#8479d4" stroke-width=".5" d="M-99.547 577.456q-.009.019-.023.05-.015.032-.121 1.15-.107 1.118-.119 1.79-.012.672-.012 1.168-.001.495-.06 1.172-.059.676-.085 1.607-.025.931-.023 1.385.002.454-.035.8-.037.347-.075.65-.038.303-.051.764-.013.461-.018 1.347-.004.887.002 1.342.006.455.011.678.005.223.004.415-.001.193-.001.243.001.05-.007.171-.007.122-.044 1.457-.037 1.336-.062 2.183-.025.846-.042 1.207-.018.36-.019.845-.001.486.01.783.012.297.025.843.013.546.049.993.036.446.057.804.021.359.016 1.058-.005.699-.006 1.683-.001.984-.005 1.498-.003.513-.002.807 0 .294.001.423.001.13.029.467t.091.515q.062.178.107.258.045.081.112.152.068.072.264.19.197.118.46.263.263.145.515.239.252.093.426.131.175.037.474.068.3.031.496.025.195-.006.433-.067.238-.061.34-.11.103-.049.151-.093.049-.044.093-.115.044-.071.126-.365.083-.294.094-.858.011-.565.002-.876-.009-.312-.025-.757-.017-.445-.045-.827-.029-.382-.065-1.654-.036-1.272-.046-1.938-.01-.667-.025-1.486-.015-.82-.036-1.828-.021-1.008-.009-1.565.011-.556.037-.813.027-.256.09-.684.063-.427.127-1.287.064-.86.105-1.359.041-.498.08-.781.039-.282.054-.385.016-.103.042-.305.027-.202.037-.299.009-.097.028-.28.019-.183.055-.576.036-.393.061-.957.025-.565.04-.857.016-.291.091-.724.076-.433.133-.776.056-.344.092-.791.036-.448.06-.713.025-.265.071-.808.047-.542.091-.868.044-.327.121-.728.077-.401.104-.645.028-.243.055-.429t.054-.537q.027-.35.04-.634.013-.283.061-.539.048-.255.072-.358.025-.103.04-.202.015-.1.054-.275M-62.655 588.046l.007.04q.009.03.019.478.01.448-.048 1.06-.058.612-.08 1.074-.021.462-.011.77.01.308.124 1.002t.182 1.206q.068.512.093 1.327.025.816.058 1.373t.113 1.2q.08.644.131.974.051.33.111.762.061.431.084.884.023.452.038.814.015.361.058 1.097.042.735.055 1.239.013.504.018 1.053.005.548-.033 1.184-.039.635-.1 1.201-.062.566-.136 1.742-.075 1.175-.095 1.78-.02.606-.032.883-.012.276-.023.522-.011.247-.06 1.201-.049.955-.068 1.627-.019.672-.034 1.048-.016.376-.026.552-.009.177-.016.276-.007.098-.024.445t.02.731q.037.384.1.715.063.331.215.737.151.406.199.49.049.084.092.127.044.043.069.065.026.021.13.117.103.097.158.129.054.033.126.056.072.024.319-.096.248-.12.383-.242t.2-.18q.064-.058.072-.063.008-.006.158-.194.151-.188.353-.476.201-.288.306-.457.104-.169.152-.273.048-.104.087-.2.039-.095.123-.321.084-.225.178-.659.095-.433.135-.686.04-.252.084-.481.045-.229.062-.339.017-.11.029-.218t.035-.623l.043-.963q.02-.447.025-1.38.006-.933.007-1.368.002-.435-.072-1.139-.074-.705-.129-1.407-.055-.702-.104-1.179-.05-.476-.081-.705-.03-.229-.052-1.027-.022-.798-.041-1.457-.019-.659-.031-.998-.012-.338-.013-.59-.002-.251-.005-.662-.002-.41-.017-.816-.015-.407-.018-.695-.004-.288.008-.631.011-.343.004-.641-.007-.299-.045-.617-.039-.317-.048-.693-.01-.375.015-.638.025-.262.064-.488.038-.227.051-.383.012-.157.075-.759t.099-.911q.035-.31.048-.63.013-.32.035-.638.023-.319.087-.638t.108-.541q.043-.222.122-.563.079-.342.081-.43.002-.089.003-.127.001-.037.009-.196.009-.158.01-.244l.007-.303q.004-.216.01-.365.006-.148.007-.188 0-.039.009-.285.01-.245.005-.299-.005-.054-.005-.088 0-.033.008-.071.008-.037.015-.049.006-.012.013-.14"/>
    <path fill="#8479d4" stroke="#8479d4" stroke-width=".5" d="m-96.64 578.751.025-.001q.01.006.291.08.282.074.691.134.408.059.601.081.193.022.804.148.612.125 1.007.21.395.085.854.169.459.085.836.15.378.066.735.143.358.076.581.136.223.06.576.177.353.116.702.228.35.111.814.254.464.142.811.24.346.098.691.181.344.082.776.206.432.123.795.252.363.129.858.287.495.157.733.223.238.065.619.156t.789.196q.407.104.75.214.342.11.636.199.293.088.498.146.205.058.665.161.459.102.684.144.225.043.557.135.331.093.844.249.512.156 1.006.301t.969.279q.474.134.83.23.356.097.593.156.474.119.767.201.292.082 1 .319.709.236 1.559.455.849.219 1.293.319.443.101.944.25.501.15.946.285.445.136.712.198.267.062.462.1.195.039.556.12.362.081.956.315.594.234 1.023.405.428.172.661.258.233.087.438.183.205.097.508.312.302.215.443.335.14.12.212.214.073.093.164.244.091.151.165.263.073.113.206.369.132.257.254.693.122.436.25.882.127.446.196.66.069.213.124.48.055.266.069.395.014.129.01.482-.004.352-.013.633t.012.562q.02.28.084.63.063.351.101.585.039.234.015.523-.024.289-.058.456-.035.167-.058.342-.023.176-.024.369-.001.193.022.422.022.23.033.329.011.098.011.171-.001.073-.004.124-.003.051-.01.12t-.01.083q-.003.014-.041.209-.039.196-.08.259-.042.064-.086.103-.045.039-.116.098-.07.059-.126.094-.055.036-.135.078-.08.042-.128.066-.047.025-.095.052-.049.026-.16.099-.111.072-.184.114-.074.041-.116.058-.043.016-.123.047t-.177.07q-.098.039-.155.055-.056.017-.144.031-.089.014-.124.018-.036.005-.226-.001-.19-.005-.436-.066-.246-.06-.731-.195-.486-.135-.804-.224-.318-.09-1.069-.344-.751-.255-1.529-.544-.778-.289-1.172-.434-.393-.145-.588-.21-.195-.066-.582-.203-.387-.137-.685-.247-.298-.111-.786-.231-.488-.12-.765-.183t-.613-.154q-.337-.092-.53-.142-.193-.05-.541-.175-.348-.124-.635-.215-.287-.09-.848-.229-.56-.139-1.182-.31-.623-.17-.953-.261-.33-.091-.888-.207-.557-.116-.903-.194t-1.009-.278q-.663-.199-1.039-.306-.376-.107-1.348-.378-.972-.27-1.477-.417-.504-.147-.754-.233-.249-.086-.637-.26-.388-.175-.973-.377-.585-.203-.897-.291-.313-.089-.641-.186-.329-.096-.891-.281-.563-.185-1.01-.326-.448-.141-.666-.214-.219-.073-.465-.158-.247-.085-.594-.187-.347-.101-.546-.163-.199-.061-.571-.186-.372-.125-.734-.211t-.68-.146q-.317-.06-.481-.092-.164-.032-.441-.076-.276-.044-.473-.071-.196-.027-.338-.048-.141-.02-.195-.032-.055-.012-.666-.072l-.137.013-.062-1.41q-.031-.705-.063-1.414-.031-.708-.063-1.421-.031-.713-.063-1.435-.033-.722-.066-1.457-.033-.735-.067-1.485-.033-.749-.068-1.51-.035-.76-.069-1.524ZM-63.333 619.794q-.008-.013-.126-.129t-.234-.214q-.116-.098-.226-.178-.109-.081-.188-.131-.078-.05-.169-.1-.091-.049-.207-.104-.116-.054-.382-.15-.266-.097-.656-.268t-.61-.267q-.22-.095-.448-.151-.228-.057-.608-.075-.38-.017-.757-.044-.377-.026-.815-.091-.439-.066-.675-.098-.236-.032-.482-.013-.245.019-.697.073-.451.053-.726.107-.275.054-.634.188-.359.135-.565.211-.206.077-.45.167-.245.091-.362.142-.117.052-.198.092-.082.041-.537.254t-.716.343q-.261.13-.389.204-.128.075-.23.135-.101.061-.356.203-.254.143-.47.284-.216.142-.373.269-.156.128-.339.31-.182.183-.316.33-.133.147-.333.402-.199.255-.358.492-.158.238-.44.662-.281.425-.431.672-.15.247-.289.547-.138.301-.326.886t-.288 1.153q-.099.568-.19 1.232-.09.663-.133 1.05-.043.387-.032.938.011.55.129 1.227.118.677.225 1.05.108.372.178.568.07.195.276.586.206.39.395.732.189.342.308.566.119.223.237.41.117.187.497.599.38.411.636.654.256.242.41.366.153.125.58.36.428.235.723.424.296.189.524.316.229.126.618.255t.791.283q.402.155.595.241.192.086.416.147.225.062.605.103.379.041.716.077.337.037.502.051.166.014.517-.034.35-.048.639-.088.289-.041.555-.046.267-.005.665-.057.398-.051.61-.099.213-.047.623-.153.411-.106.659-.176.247-.07.568-.19.32-.12.584-.254.263-.135.452-.235.188-.1.441-.204.252-.104.53-.167.279-.064.438-.1.158-.036.273-.068.115-.032.421-.179.306-.146.565-.338.259-.191.473-.387.214-.196.388-.37.174-.173.359-.414.184-.241.368-.539.185-.297.312-.507.127-.209.274-.539.148-.331.345-.852.197-.521.316-.867.12-.345.193-.6.073-.255.117-.508.044-.252.096-.545.052-.293.119-.571.067-.278.104-.446.037-.168.102-.662.064-.494.065-.602.001-.108-.002-.209-.003-.102-.004-.257-.002-.156-.003-.411t-.044-.663q-.042-.408-.073-.665-.031-.258-.012-.682.019-.424.015-.822-.003-.398-.028-.745-.025-.346-.048-.612-.023-.267-.057-.472-.033-.205-.067-.588-.034-.384-.042-.588-.009-.204.003-.332.012-.128.047-.514.035-.387.064-.844.029-.457.031-.501.002-.044 0-.23-.001-.185-.023-.427l-.013-.077q-.595.242-1.176.495-.58.253-1.142.518-.562.264-1.109.534-.547.27-1.088.541Z"/>
    <path fill="#f7ffb9" stroke="#f7ffb9" stroke-width=".5" d="m-28.508 635.071-.023-.076q-.019-.156.018-.417.037-.262.135-.634.099-.372.207-.723.107-.35.28-.84.172-.489.357-1.024t.358-.986q.174-.452.3-.781.127-.328.338-.878.212-.55.433-1.158.222-.609.313-.872.091-.264.175-.484.085-.22.231-.605.147-.384.382-1.004.234-.619.428-1.148.194-.529.348-.967.155-.439.267-.753.112-.314.217-.598.104-.283.225-.639.12-.355.213-.641.092-.285.197-.619.209-.668.39-1.132.18-.465.44-1.149.26-.685.587-1.589.328-.904.894-2.553.566-1.65.91-2.592.345-.941.65-1.813.305-.871.538-1.717.233-.846.398-1.456t.462-1.386q.298-.775.508-1.342.21-.567.368-1.08.158-.513.291-.866.134-.354.512-1.245.378-.892.561-1.332.184-.441.331-.779.148-.339.375-.905.226-.567.377-.908.151-.342.224-.539.072-.197.28-.63.207-.433.344-.633.136-.199.199-.276.062-.076.26-.247.11-.012.175-.023.066-.01.184-.034.119-.023.168-.032.049-.01.773.072.724.081 1.287.4t.858.526q.295.207.773.607.477.4.788.643.312.243.911.589t.982.53q.382.185.977.552l.924.57q.328.203.747.381t.687.279q.269.101.397.151.128.051.525.261.397.21.915.407.517.196.781.272.264.075.617.195.352.119.631.245.279.125.491.227.213.102.587.238.374.135.656.219.282.083.525.184.242.101.54.247.298.145.536.269.238.125.507.279.268.154.628.378.361.225.606.41.245.185.496.405.25.22.481.444.231.224.548.565.316.341.499.561.182.22.342.492.16.272.324.534t.241.354q.076.091.214.357.137.265.194.426.056.16.12.321.065.161.101.318.036.157.077.298 0 .204-.189.606t-.279.528q-.091.125-.131.181-.039.055-.247.274-.208.219-.6.624-.393.405-.791.785-.397.38-.796.731-.398.352-.683.601-.285.25-.461.401-.175.151-.438.386-.262.235-.61.553-.348.317-.638.579-.289.262-.522.471-.232.208-.49.459t-.541.546q-.283.294-.527.543-.244.248-.553.553-.309.304-.542.518-.234.214-.604.577-.371.363-.569.57-.198.206-.464.487-.266.28-.575.597-.308.317-.828.744-.52.428-.97.805-.45.377-.778.725-.329.347-.593.65-.263.303-.844.979-.58.676-.949 1.109-.369.434-.596.679-.227.246-.428.443-.202.197-.414.397-.213.201-.639.673-.425.473-.738.81-.312.338-.57.634-.258.297-.61.708-.351.411-.579.639-.227.229-.351.343-.123.114-.504.51t-.594.622q-.213.226-.499.492-.286.266-.558.542-.273.277-.675.775-.403.499-.82.919-.417.421-.799.806-.382.384-.52.525-.138.14-.281.267-.143.126-.289.236-.146.109-.253.193-.106.083-.332.307-.225.223-.326.327-.1.104-.384.333-.283.228-.329.269-.046.04-.273.256-.227.217-.507.466-.281.249-.414.371-.134.122-.365.322-.231.201-.245.211-.014.01-.347.312-.333.302-.49.437-.157.136-.222.209-.066.074-.102.101-.036.026-.09.083-.054.057-.373.416-.393-.279-.792-.553-.398-.274-.803-.54t-.815-.527q-.409-.26-.82-.519-.411-.258-.818-.519t-.803-.531q-.397-.269-.781-.55-.383-.282-.751-.577Z"/>
    <path fill="#ffceed" stroke="#ffceed" stroke-width=".5" d="M-58.256 595.228q.041-.046.128-.118.088-.072.237-.2.15-.128.306-.246.156-.117.505-.299.349-.181.37-.187.02-.005.551-.297.531-.291.829-.46.298-.169.76-.344.462-.175.762-.257.301-.081.531-.166.229-.084.364-.137.134-.054.435-.146.302-.092.351-.102.05-.009 1.33.08.115.15.311.603.197.454.347.953.149.5.311 1.194.162.693.285 1.293.123.6.215 1.102.092.501.161.896t.137.833q.069.439.187.923.119.483.22.858t.225.803q.124.428.216.735.093.306.182.585.088.28.202.577.113.296.168.453.054.158.207.644t.333 1.025q.18.539.376 1.061.196.522.305.861.108.339.249.896.14.558.297 1.101.156.543.278.915.121.373.242.743t.282.861q.16.492.307.967.146.474.278.933.132.458.236.813.104.355.218.732.113.378.226.806.112.428.206.768.093.34.205.734.225.788.368 1.348.142.56.191.798.048.238.144.618.097.381.157.567.06.185.243.85.183.664.27 1.011.087.347.208.776.12.43.237.833.117.403.272.924.156.52.276.94.12.419.244.896.123.477.237.922.114.444.21.792.096.349.125.445.029.096.042.134.013.039.121.421.107.381.177.627.069.246.215.71l.384 1.226q.151.427.201.59.049.163.058.18.01.018.069.275.06.257.076.423.016.165-.009.508-.115.066-.167.084l-.12.058q-.034.058-.455.198-.421.14-.48.162-.06.023-.326.148t-.345.152q-.079.028-.303.114-.224.087-.441.211t-.375.197q-.159.073-.208.082-.048.01-.127.041-.079.032-.213.083-.062-.001-.164-.068-.103-.066-.206-.151-.104-.084-.323-.369-.219-.285-.431-.595-.213-.309-.394-.569-.181-.259-.273-.4-.092-.141-.452-.739-.36-.599-.736-1.178t-.616-.959q-.239-.379-.427-.712-.188-.333-.343-.568-.156-.235-.16-.244-.004-.008-.215-.231t-.37-.375q-.159-.151-.344-.363-.184-.211-.331-.373l-.343-.378q-.196-.215-.624-.806-.428-.59-.606-.877-.179-.288-.272-.421-.092-.133-.27-.422-.178-.288-.348-.601-.171-.312-.338-.588-.167-.276-.284-.452-.117-.177-.246-.344-.129-.168-.29-.409-.16-.242-.396-.608-.237-.367-.418-.651-.181-.284-.367-.592-.187-.307-.54-.812-.353-.506-.718-1.126-.366-.62-.543-.944-.178-.324-.415-.613-.237-.288-.356-.415t-.263-.309q-.144-.182-.299-.384-.155-.203-.206-.262-.051-.059-.131-.146-.081-.088-.146-.153-.066-.066-.178-.208-.112-.143-.234-.33-.121-.188-.309-.468-.127-.23-.254-.521-.127-.29-.294-.787l-.061-.105q.005-.601.005-1.195.001-.595-.002-1.182-.004-.587-.012-1.167-.007-.58-.018-1.155-.01-.575-.023-1.147-.012-.572-.025-1.142l-.028-1.139-.028-1.138q-.015-.569-.029-1.138l-.028-1.138q-.015-.569-.028-1.139-.014-.571-.026-1.143-.013-.573-.024-1.15-.01-.577-.017-1.161-.008-.584-.01-1.177-.002-.594 0-1.196ZM-67.705 599.229q.01.027.045.062.035.035.067.07.031.035.159.204.128.169.472.723.344.555.708 1.095.365.541.692 1.049.328.508.509.792.181.284.361.573.181.289.302.504.121.214.286.488.164.274.255.423.091.149.146.24.056.091.104.17.049.079.055.09.007.01.115.137.108.126.173.169.064.043.084.049.019.006.04.005.02 0 .043-.02.023-.021.027-.023.003-.002.061-.205.057-.202.079-.368.022-.167.043-.275.02-.109.031-.163.011-.054.033-.176.022-.121.057-.613.034-.492.033-.825-.002-.334-.016-.537-.015-.204-.029-.377-.014-.174-.026-.296-.012-.122-.07-.48-.057-.358-.092-.523-.036-.166-.061-.27-.025-.103-.06-.288l-.059-.156"/>
    <path fill="#85d7f5" stroke="#85d7f5" stroke-width=".5" d="M-50.782 650.285q-.098-.035-.365-.015-.266.02-.679.014-.413-.007-.615-.025-.202-.019-.518-.018-.316 0-.58.013-.264.013-.62-.026-.356-.038-.538-.069-.182-.031-.446-.024-.265.007-.478.011-.212.003-.421-.016-.21-.019-.365-.016-.155.004-.245.009-.089.005-.456.041-.367.036-.75.004t-.814-.064q-.432-.033-1.275.012t-1.816.076q-.973.03-1.517.051-.544.021-1.594.097-1.05.075-1.801.084-.751.008-1.288-.013-.538-.021-.841-.023-.304-.002-.972.038-.668.041-1.17.049-.502.009-1.06-.001-.558-.009-1.206-.02-.647-.012-1.385-.024-1.476-.025-2.415-.022-.94.004-1.679-.036-.739-.04-1.364-.07-.625-.03-1.466.033-.842.064-1.312.098-.471.034-.783.042-.311.007-.718-.005-.406-.011-.966-.076-.56-.065-1.311-.147-.75-.082-1.258-.129t-1.067-.04q-.559.007-.895.01-.335.002-.697-.045-.361-.047-1.284-.018-.923.028-1.48.066-.557.037-.788.042-.232.005-.907.013-.675.007-.976.022-.301.015-.441.021-.141.006-.297.014-.156.009-.329.045-.173.036-.309.09-.135.054-.342.169-.062.071-.127.253t-.105.522q-.04.341-.025.605.015.264.055.513.04.25.108.525t.183.816q.114.542.231 1.169.116.626.226 1.112.11.486.261 1.067.152.582.283 1.428.131.846.204 1.331.072.485.242 1.187.17.702.302 1.437.132.735.338 1.703.207.968.376 1.601t.253.922q.084.288.313.962.229.673.467 1.572.237.898.407 1.44.17.543.378.982.208.439.515.925.307.485.742 1.372.435.887.691 1.491.256.603.6 1.215.344.612.539.937.194.325.406.774.211.448.347.722.135.274.226.437.091.164.185.312.094.149.187.277.093.129.59.748.498.618.962 1.262.463.644.765 1.11.301.465.648 1.023.347.558 1.031 1.624.683 1.065 1.059 1.632.376.566.934 1.148.558.583.904.884.346.3 1.068 1.095.723.794 1.119 1.271.396.476.994 1.173.597.697.794.891.197.193.334.316t.379.372q.242.249.43.479.187.23.258.32.071.091.097.123.026.033.418.412.391.378.48.45.089.073.142.121.053.048.28.223.228.175.411.281.184.105.336.197.153.092.266.166.114.073.305.2.19.126.371.196.181.069.362.106.181.036.254.043.073.007.169-.005.066.003.532-.504.466-.508.85-1.051.385-.543.584-.791.199-.247.492-.613.293-.365.559-.753.266-.387.758-1.102.493-.714.911-1.342.419-.627.914-1.246.495-.619 1.143-1.373t.912-1.065q.264-.31.478-.559.214-.248.519-.527.306-.279.761-.682.456-.403.728-.686.273-.284.464-.506.191-.223.886-1.039.695-.817 1.117-1.339.422-.523.874-1.026.453-.503.912-.959.459-.455 1.022-1.09.563-.634.901-1.053.338-.419.668-.824.33-.404.667-.824.338-.42.793-.99l.799-.999q.344-.429.69-.862.346-.432.687-.904.341-.472.789-1.049.449-.577.959-1.1.51-.523.92-.977.409-.453.709-.826.3-.373.554-.665.253-.292.406-.459.153-.166.444-.504.29-.338.81-.891.519-.553.579-.631.06-.079.158-.259.097-.18.183-.36.085-.18.293-.55.208-.369.293-.525.085-.156.228-.36.144-.205.317-.467.173-.263.267-.413l.03-.066q-.473-.775-.959-1.551-.485-.775-.969-1.553-.484-.777-.945-1.559-.461-.781-.885-1.574-.424-.792-.804-1.605-.38-.813-.732-1.644t-.68-1.68q-.327-.849-.655-1.715Z"/>
    <path fill="#67d488" stroke="#67d488" stroke-width=".5" d="M-22.283 661.227q.005.018.245.442t.546.806q.307.382.46.559.154.177.335.375.181.198.441.477.26.279.465.501.206.222.431.471.226.248.373.441t.281.374q.133.18.281.364.147.184.351.432.205.249.361.444t.321.407q.164.211.26.357.097.145.166.276.07.13.186.303.116.173.302.431l.339.472q.153.213.333.463.179.251.418.685.239.434.542.867.304.434.435.582.131.148.295.339.164.191.404.474.48.566.764.878.285.313.637.661.352.348.998 1.147t1.089 1.395q.443.597.897 1.251.455.655.795 1.134.339.48.676.942.337.463.719.936.382.472.992 1.205.61.732 1.103 1.377.493.644 1.129 1.441.636.798.971 1.193.336.396.477.568.141.171.38.485.239.313.45.607.211.293.475.671.264.378.499.698.235.321.442.584.207.263.38.488.172.224.311.41.138.186.364.484.227.299.54.714.312.416.577.768.265.352.483.637.219.286.41.552.192.266.441.633t.389.589q.14.222.32.504.181.281.435.599.254.317.476.53.222.213.786.586l.198.069q.048.001.222-.051.175-.052.476-.159.301-.107.577-.239.277-.132.656-.367t.647-.415q.269-.179.693-.531.424-.353.744-.638.321-.284.569-.506.249-.222.532-.476.283-.254.53-.475.247-.221.564-.505.317-.284.742-.676.426-.392.64-.627.214-.235.326-.385.111-.15.305-.418.194-.269.507-.706.314-.437.564-.786.251-.348.439-.609.375-.52.55-.76.174-.24.476-.601t.613-.748q.312-.388.501-.609.19-.221.36-.42.171-.199.264-.31.092-.112.18-.255.087-.144.172-.286.085-.142.138-.228.053-.085.111-.169.057-.084.102-.194.045-.109.091-.231.047-.122.073-.187.026-.066.045-.131t.041-.196q.022-.132.017-.254-.006-.122-.021-.19-.015-.068-.062-.165-.047-.096-.136-.239-.089-.143-.213-.284t-.288-.269q-.164-.127-.436-.346-.271-.218-.363-.298-.093-.08-.308-.225-.216-.146-.635-.371-.419-.225-.763-.435-.344-.21-.823-.574-.48-.365-.778-.579-.299-.213-.522-.328-.223-.114-.731-.468-.508-.355-.744-.527-.237-.172-.723-.467-.485-.295-.905-.562-.42-.267-.832-.509t-.98-.61q-.569-.368-.856-.553-.288-.186-.539-.325-.252-.138-.653-.355-.401-.217-.613-.334-.212-.117-.406-.225-.194-.108-.491-.289-.297-.182-.83-.52-.534-.338-.972-.584-.438-.246-.931-.595-.492-.35-.781-.574-.288-.224-.662-.482-.374-.258-.878-.603-.503-.344-.779-.511-.276-.166-.728-.419-.451-.253-.715-.423-.264-.17-.801-.459-.537-.288-.998-.553-.462-.265-.66-.373-.198-.107-.499-.339-.3-.231-.585-.418-.284-.187-.512-.333-.227-.146-.333-.229-.106-.083-.219-.165-.112-.082-.2-.139-.088-.057-.585-.399-.497-.343-.776-.542t-.531-.335q-.252-.136-.563-.337-.311-.202-.559-.365-.249-.162-.843-.547-.594-.384-.946-.621t-.512-.326q-.16-.089-.842-.466-.34-.189-.646-.363t-.577-.333q-.271-.158-.482-.29-.211-.132-.436-.289-.225-.158-.422-.285-.196-.126-.605-.381-.409-.256-.554-.339-.145-.083-.352-.24-.206-.158-.317-.249-.111-.091-.194-.151t-.166-.115q-.082-.055-.266-.202-.183-.148-.366-.263-.184-.116-.313-.205-.129-.089-.353-.274-.223-.186-.349-.327-.126-.141-.17-.212-.044-.071-.094-.135-.05-.065-.045-.075.005-.011.002-.12-.353.508-.713 1.021-.359.513-.724 1.03-.365.516-.726 1.03t-.712 1.021Z"/>
    <path fill="#ffceed" stroke="#ffceed" stroke-width=".5" d="m-18.183 654.643.031.004.067.01q.158.11.282.161.125.051.413.122.288.071.731.221.443.15.7.235.256.085.768.202.512.118 1.623.497 1.111.38 1.645.578.534.199.836.323.302.124.57.229.269.105.756.298.487.192 1.032.468t.944.461q.399.184 1.002.393.603.209 1.232.49.629.28 1.19.521.561.24 1.137.458.575.218 1.134.479.559.26 1.458.554.898.295 1.369.43t1.371.537q.9.401 1.799.782.899.381 1.331.562.432.181.824.366.392.186.894.377t1.282.49q.781.298 1.183.464.402.166.812.28.41.115.554.15.145.036.603.19.457.155.725.245.268.09.658.18.391.091.815.203.425.113.88.261.456.148 1.255.408.8.261 1.233.414.433.154 1.104.451.67.297 1.017.455.347.158.746.308t.585.217q.187.067.363.15.177.083.411.192.235.109.506.221.27.112.7.29.43.178.703.31.273.131.611.265.337.134.48.192.143.058.201.09.057.031.104.052.047.02.363.31t.365.431q.048.14.037.234-.011.093-.021.163-.009.07-.027.194-.018.124-.03.23-.012.106-.073.352-.06.246-.209.635-.148.389-.239.64-.091.252-.21.616-.119.363-.196.573-.077.211-.183.422-.107.212-.233.497-.126.285-.244.643-.118.358-.174.555-.056.198-.202.446-.145.248-.251.407-.106.159-.15.24-.045.081-.107.217-.063.135-.162.364-.098.23-.193.414-.095.185-.288.397-.194.213-.346.367-.153.155-.231.245-.079.091-.152.187-.073.097-.225.255-.152.158-.265.246-.112.088-.235.243-.122.155-.192.247-.069.092-.147.161-.077.069-.137.111-.06.041-.138.088-.078.047-.22.124-.141.076-.251.117-.109.041-.173.064-.064.023-.122.041-.058.017-.126.024-.068.007-.132-.01-.063-.017-.075-.024-.011-.007-.167-.075-.156-.069-.387-.202t-.36-.23q-.128-.097-.187-.151l-.654-.588q-.594-.533-1.08-.989-.486-.455-.881-.776t-.674-.528q-.279-.208-.452-.358-.173-.149-.555-.495-.382-.346-.825-.628-.443-.282-.699-.412-.255-.13-.561-.313-.306-.182-.48-.285-.175-.103-.304-.18t-.65-.353q-.521-.275-.83-.447-.309-.173-.478-.276-.169-.103-.671-.464-.502-.361-1.09-.819-.588-.458-.824-.627-.236-.169-.571-.391-.336-.223-.849-.557-.513-.334-.944-.623-.431-.289-.955-.658-.524-.368-1.189-.775-.664-.407-1.053-.632-.388-.225-.591-.338-.204-.113-.717-.391t-.776-.426q-.262-.149-1.188-.682-.927-.532-1.421-.821-.493-.288-.734-.409t-.359-.177q-.118-.055-.307-.138-.188-.083-.582-.298-.393-.215-.772-.459-.378-.244-.656-.442-.279-.198-.635-.462-.355-.264-.791-.557-.435-.294-.729-.49t-.717-.48q-.423-.284-1.057-.721-.634-.437-1.017-.699-.384-.263-.694-.451-.311-.188-.725-.444-.415-.256-.685-.425-.269-.168-.475-.295-.205-.127-.316-.2-.112-.074-.255-.163-.142-.09-.781-.507-.64-.416-.846-.557-.207-.14-.301-.202-.094-.061-.178-.122-.084-.061-.143-.098-.059-.036-.158-.119-.1-.084-.158-.143-.059-.06-.144-.128-.086-.068-.146-.105-.06-.036-.118-.08-.057-.043-.737-.488l-.264-.101q.734-1.126 1.467-2.252Z"/>
    <path fill="#4dd8e6" stroke="#4dd8e6" stroke-width=".5" d="m-17.633 650.314.043-.024q.046-.023.252-.055.206-.032.405-.045.2-.013.719.053.52.065.95.103.431.038.748.045.318.008.665-.003.347-.011.648-.015.301-.005.557-.004.256.001.553.015.296.013.633.039.337.026.631.041.294.014.672.019.378.006.672-.012.293-.017.785-.046.491-.028.869-.034.377-.006.673-.005.295 0 .634.005t.65.009q.31.005.593.009.283.004.594.008t.651.007q.68.006.975.01.296.004.608-.003t.74-.027q.427-.019.849-.034.422-.016.839-.028.417-.013.76-.022.344-.008.75-.011.405-.003.934-.065t.9-.093q.372-.03.762-.046t.69-.021q.3-.004.613.004.314.009.974-.022.661-.031 1.037-.018.377.013.998.033.621.019 1.243.02.622.001.943.011.321.009.668 0 .346-.009.826-.039t.856-.064q.376-.034.784-.084.408-.05.916-.027.509.022 1 .127.491.104 1.124.163.632.058.982.049.349-.01.565-.024.216-.015.466-.038.251-.024.591-.044.34-.02.853-.044.513-.024.922-.041.409-.016.713-.026.609-.018.971-.053.363-.035.593-.055.23-.019.379-.032.149-.013.777-.032.627-.019.977-.013t1.016.045q.667.039.959.036.291-.004.469.003.179.007.384.033.205.025.257.03.052.005.778.289.02.032.067.09.048.057.099.153.05.096.055.23.005.133-.026.449t-.125.925q-.095.609-.167 1.25-.072.641-.135 1.073-.064.433-.243 1.02-.18.588-.289.961-.11.373-.132.974-.023.602-.008.931.016.329-.014.673-.03.344-.062.514-.032.17-.08.353-.049.183-.121.568-.071.384-.115.853-.045.469-.119.892-.074.424-.143.838-.069.415-.097.639-.027.224-.06.538-.033.314-.092.657-.06.343-.225.922-.166.58-.289 1.175-.123.595-.205.926-.083.33-.195.737t-.19.759q-.077.351-.153.564-.076.213-.161.411-.086.198-.113.238-.027.041-.421.4-.101.046-.129.048-.029.001-.156.01-.126.009-.163.006-.037-.002-.12-.006-.084-.005-.529-.126t-1.156-.431q-.712-.31-1.22-.578-.509-.268-.879-.493-.369-.225-.824-.44-.455-.215-1.444-.588-.988-.373-1.672-.675-.683-.302-1.351-.577-.669-.274-1.5-.562-.83-.287-1.252-.439-.422-.153-.839-.348-.417-.195-1.197-.465-.779-.271-1.194-.399-.415-.128-.86-.352-.445-.224-.946-.432-.502-.208-.951-.34-.448-.132-.953-.343-.505-.212-.845-.351-.339-.139-.697-.253-.357-.113-.547-.168-.19-.056-.51-.165-.32-.108-.646-.264-.327-.155-.9-.352-.574-.198-.936-.3-.362-.103-.893-.33-.531-.226-.951-.413-.419-.187-1.207-.414-.787-.227-1.261-.36-.474-.132-1.084-.333-.61-.201-.913-.31-.302-.108-.673-.29-.372-.182-.763-.345-.39-.163-.776-.342-.385-.178-.561-.264-.176-.086-.356-.182-.181-.097-.898-.33-.359-.116-.636-.2-.278-.084-.573-.162-.295-.077-.644-.217-.349-.14-.561-.243-.211-.102-.669-.293-.458-.19-.718-.302-.26-.111-.376-.165-.116-.053-.221-.109-.106-.055-.342-.163-.237-.107-.469-.186-.233-.078-.342-.112-.109-.034-.292-.105-.182-.07-.367-.149-.184-.078-.394-.144-.209-.067-.297-.102-.088-.035-.329-.149-.24-.113-.418-.194-.178-.08-.294-.141-.117-.061-.187-.091-.069-.031-.152-.058-.083-.027-.227-.078l-.216-.077q-.074-.025-.184-.048t-.205-.045q-.096-.023-.163-.029-.067-.007-.147-.019-.079-.013-.407.064.15-.484.3-.969.149-.486.307-.97t.332-.963q.174-.48.364-.955Z"/>
    <path fill="none" stroke="#381d1d" stroke-width="2.157" d="M-58.032 593.858q.115-.048.7-.278.585-.23 1.188-.45t1.228-.43q.625-.211 1.273-.413.647-.201 1.314-.392.666-.191 1.347-.371.68-.179 1.371-.345.691-.167 1.389-.319.698-.152 1.401-.29.704-.137 1.411-.26.707-.122 1.417-.23.71-.107 1.422-.199.712-.092 1.427-.168.714-.077 1.43-.138.717-.06 1.434-.106.717-.045 1.436-.075.718-.03 1.437-.044.718-.014 1.437-.013.719.001 1.438.018.719.017 1.437.049.718.033 1.435.081.717.048 1.433.111.716.064 1.43.143.714.079 1.426.174.712.094 1.422.204.71.11 1.417.235.707.126 1.411.266.703.141 1.404.297.7.155 1.397.326.696.171 1.388.357.692.186 1.38.387t1.371.417q.683.216 1.36.446.678.231 1.35.476.671.245 1.337.505.666.259 1.326.533t1.313.563q.653.288 1.299.59.646.303 1.285.619.639.316 1.27.646t1.254.674q.624.343 1.239.7.615.357 1.221.728.607.37 1.204.753.598.384 1.186.78.589.396 1.167.805.579.409 1.148.83t1.128.855q.56.433 1.108.879.549.445 1.087.903.538.457 1.065.926.527.468 1.043.949.516.48 1.02.971.505.491.998.993t.973 1.015q.481.512.95 1.035.468.523.925 1.056.456.533.899 1.075.444.543.874 1.095.431.552.849 1.113.417.562.821 1.132.404.57.795 1.149.391.579.768 1.166.376.587.739 1.182t.712 1.198q.349.603.683 1.213.335.61.655 1.228.32.617.626 1.241.305.625.596 1.255.29.631.566 1.267.276.637.536 1.28.261.642.506 1.29.246.648.476 1.302.23.653.445 1.311.214.658.413 1.32.2.663.383 1.329.183.667.351 1.337.168.671.32 1.345.151.674.287 1.351.136.677.256 1.356.12.68.224 1.363.104.682.192 1.366.087.684.159 1.37.072.686.127 1.374.055.687.095 1.376.039.688.062 1.377.023.689.03 1.378.006.689-.003 1.378-.01.69-.035 1.379-.026.689-.068 1.377-.042.688-.1 1.375-.059.688-.133 1.373-.074.686-.165 1.37-.09.684-.197 1.366-.106.682-.229 1.361-.123.679-.261 1.356-.139.676-.293 1.35-.155.673-.325 1.343-.171.67-.357 1.336-.186.666-.387 1.327-.202.662-.419 1.319-.218.657-.45 1.31-.233.652-.481 1.299-.248.647-.511 1.289-.264.642-.542 1.277-.278.636-.571 1.266-.293.629-.601 1.252t-.631 1.239q-.322.616-.659 1.225-.337.609-.688 1.211-.352.602-.717 1.195-.365.594-.745 1.18-.379.586-.772 1.163-.393.577-.799 1.146t-.826 1.128q-.42.56-.853 1.111-.433.55-.878 1.091-.446.541-.904 1.072-.458.532-.929 1.053-.471.521-.954 1.032-.483.51-.977 1.011-.495.5-1.002.989-.506.489-1.024.968-.518.478-1.047.945-.529.467-1.068.922-.54.455-1.091.899-.55.443-1.111.875-.561.431-1.131.85-.571.419-1.152.826-.58.407-1.17.801-.59.394-1.189.775-.599.381-1.207.749-.608.368-1.225.723-.616.355-1.241.696-.624.341-1.257.669-.632.328-1.272.642t-1.288.614q-.647.3-1.301.585-.654.286-1.315.558-.661.272-1.328.529t-1.34.5q-.673.242-1.351.471-.679.228-1.362.441-.684.213-1.372.412-.689.198-1.382.381-.693.184-1.39.352-.697.169-1.398.322t-1.405.291q-.705.138-1.412.261-.708.122-1.418.23-.71.107-1.422.199-.713.092-1.427.168-.715.077-1.431.138-.716.061-1.433.106-.718.045-1.436.075t-1.437.044q-.719.015-1.438.013-.719-.001-1.437-.018-.719-.017-1.437-.049-.718-.033-1.435-.081-.717-.048-1.433-.111-.716-.064-1.43-.143-.714-.079-1.427-.174-.712-.094-1.421-.204-.71-.11-1.417-.235-.707-.125-1.411-.266-.704-.141-1.404-.296-.7-.156-1.397-.327-.696-.171-1.388-.357-.693-.186-1.38-.387-.688-.201-1.371-.417-.683-.215-1.36-.446-.678-.23-1.35-.475-.672-.246-1.338-.505-.666-.26-1.325-.534-.66-.274-1.313-.562-.653-.288-1.299-.591-.646-.302-1.285-.618-.639-.317-1.27-.647t-1.255-.673q-.623-.344-1.238-.701t-1.221-.727q-.607-.371-1.204-.754-.598-.383-1.186-.779-.589-.396-1.168-.805-.578-.409-1.147-.83-.57-.422-1.129-.855-.559-.434-1.107-.879-.549-.446-1.087-.903-.538-.457-1.065-.926-.527-.469-1.043-.949-.516-.48-1.021-.971-.504-.491-.997-.993t-.974-1.015q-.48-.512-.949-1.035-.469-.523-.925-1.056-.456-.533-.9-1.076-.443-.542-.874-1.094-.43-.552-.848-1.114-.417-.561-.821-1.131-.405-.57-.795-1.149-.391-.579-.768-1.166t-.74-1.182q-.363-.595-.711-1.198-.349-.603-.684-1.213-.334-.61-.654-1.228-.32-.617-.626-1.241-.305-.624-.596-1.255-.291-.631-.566-1.267-.276-.637-.537-1.279-.26-.643-.506-1.291-.245-.648-.475-1.301-.231-.653-.445-1.311-.215-.658-.414-1.321-.199-.662-.382-1.329-.184-.667-.352-1.337-.167-.67-.319-1.344t-.288-1.351q-.136-.677-.256-1.357-.12-.68-.224-1.362-.103-.682-.191-1.367-.088-.684-.16-1.37-.071-.686-.127-1.373-.055-.688-.094-1.376-.04-.689-.063-1.378t-.029-1.378q-.007-.69.002-1.379.01-.689.036-1.378.025-.689.067-1.378.042-.688.1-1.375.059-.687.133-1.373.074-.686.165-1.37.09-.684.197-1.366.106-.681.229-1.361.123-.679.261-1.356.139-.676.294-1.35.154-.673.324-1.343.171-.67.357-1.336.186-.665.388-1.327.201-.662.419-1.319.217-.657.45-1.31.232-.652.48-1.299.248-.647.512-1.289.263-.641.541-1.277.278-.636.571-1.265.294-.63.601-1.253.308-.623.631-1.239.322-.616.659-1.225.337-.609.689-1.211.351-.601.716-1.195.365-.594.745-1.18.379-.585.772-1.163.393-.577.799-1.146.407-.569.826-1.128.42-.56.853-1.111.433-.55.878-1.091.446-.541.904-1.072.459-.531.929-1.053.471-.521.954-1.031.483-.511.977-1.011.495-.5 1.001-.99.507-.489 1.024-.967t1.044-.943q.528-.466 1.064-.919.537-.453 1.079-.891.543-.439 1.089-.86.546-.421 1.091-.822.545-.402 1.084-.779.538-.378 1.068-.731.529-.352 1.049-.679.521-.327 1.5-.906"/>
    <path fill="none" stroke="#381d1d" stroke-width="1.568" d="M-18.227 650.196q.001.177-.001.355t-.009.355q-.006.178-.017.355-.01.177-.025.354-.014.177-.033.354-.018.177-.041.353-.022.176-.049.352-.027.175-.057.35-.031.175-.065.349-.035.175-.073.348-.039.174-.081.346-.043.173-.089.344-.047.172-.097.342-.05.171-.105.34-.054.169-.112.337t-.12.335q-.062.167-.127.332-.066.165-.135.329-.07.164-.143.326-.073.162-.15.323-.076.16-.157.319-.08.159-.164.315-.084.157-.172.312-.088.155-.179.308t-.185.304q-.095.151-.193.3-.098.148-.199.295-.102.146-.206.291-.105.144-.213.286-.108.141-.219.281-.111.139-.225.276-.115.137-.232.271-.118.134-.238.266t-.244.26q-.123.129-.249.255-.127.126-.256.249-.129.124-.261.244t-.267.238q-.134.117-.271.231-.138.114-.278.225-.139.112-.282.219-.142.108-.287.213t-.292.207q-.147.101-.296.199-.15.098-.301.193-.152.095-.306.186-.153.092-.309.18t-.314.172q-.157.084-.317.165t-.321.159q-.162.077-.325.15-.163.074-.328.144-.164.07-.331.136-.166.066-.334.129-.168.062-.337.121t-.34.114q-.17.055-.342.106-.172.051-.344.098-.173.048-.347.091t-.349.083q-.175.039-.35.075-.176.035-.352.067-.177.032-.354.059-.177.028-.355.052-.177.023-.356.043-.178.02-.356.035-.179.016-.358.028-.179.011-.358.019t-.358.011q-.179.004-.359.004-.179-.001-.358-.005-.18-.004-.359-.013-.179-.008-.358-.02-.178-.013-.357-.029-.178-.016-.357-.037-.178-.02-.355-.045-.178-.024-.355-.052-.177-.029-.353-.061t-.352-.068q-.176-.036-.35-.077-.175-.04-.349-.084-.173-.044-.346-.092t-.344-.099q-.172-.052-.342-.108-.17-.055-.339-.115-.169-.059-.337-.122-.167-.063-.333-.13t-.331-.138q-.164-.07-.327-.144-.163-.075-.324-.153t-.321-.159q-.159-.081-.316-.167-.158-.084-.313-.173-.156-.089-.309-.181-.153-.091-.305-.187-.151-.095-.3-.194t-.296-.201q-.146-.102-.291-.207-.144-.105-.286-.214t-.282-.22q-.139-.112-.276-.227-.137-.114-.271-.232-.134-.118-.265-.239-.132-.12-.261-.244-.128-.124-.254-.25-.126-.127-.249-.256t-.243-.262q-.119-.132-.236-.266-.117-.135-.231-.272t-.224-.277q-.111-.14-.218-.282-.108-.142-.212-.287t-.205-.292q-.101-.146-.198-.295-.097-.15-.191-.301t-.185-.304q-.09-.154-.177-.309t-.171-.312q-.083-.158-.163-.317t-.156-.319q-.076-.161-.149-.324-.072-.162-.141-.326-.069-.164-.134-.33-.065-.165-.126-.332t-.119-.335q-.057-.169-.111-.338-.053-.17-.103-.34-.049-.171-.095-.343-.046-.171-.088-.344-.041-.173-.079-.346-.038-.174-.072-.348-.034-.175-.064-.35t-.056-.351q-.026-.175-.048-.352-.021-.176-.039-.353-.018-.176-.032-.353-.014-.178-.024-.355-.009-.177-.015-.355-.006-.177-.008-.355-.001-.177.001-.355.003-.178.009-.355.006-.178.017-.355.01-.177.025-.354.014-.177.033-.354.018-.176.041-.353.023-.176.049-.352.027-.175.057-.35.031-.175.065-.349.035-.175.074-.348.038-.174.081-.346.042-.173.088-.344.047-.172.097-.342.05-.171.105-.34.054-.169.112-.337t.12-.335q.062-.167.127-.332.066-.165.135-.329.07-.164.143-.326.073-.162.15-.323.077-.16.157-.319t.164-.315q.084-.157.172-.312.088-.155.179-.308t.185-.304q.095-.151.193-.3.098-.148.199-.295.102-.146.206-.291.105-.144.213-.286.108-.141.219-.281.111-.139.226-.276.114-.137.231-.271.118-.134.238-.266.12-.131.244-.26.123-.129.25-.255.126-.126.255-.249.129-.124.261-.244t.267-.237q.134-.118.272-.232.137-.114.277-.225.139-.111.282-.219.142-.108.287-.213t.292-.206q.147-.102.296-.2.15-.098.301-.193.152-.095.306-.186.153-.092.309-.18t.314-.172q.158-.084.317-.165.16-.081.321-.158.162-.078.325-.151.163-.074.328-.144.165-.07.331-.136t.334-.129q.168-.062.337-.121t.34-.114q.17-.055.342-.106.172-.051.345-.098.172-.048.346-.091t.349-.083q.175-.039.35-.075.176-.035.352-.067.177-.032.354-.059.177-.028.355-.052.177-.023.356-.043.178-.02.356-.035.179-.016.358-.028.179-.011.358-.019t.358-.011q.18-.004.359-.004.179.001.358.005.18.004.359.013.179.008.358.02.179.013.357.029.179.017.357.037.178.02.355.045.178.024.355.052.177.029.353.061.177.032.352.068.176.037.35.077.175.04.349.084.173.044.346.092t.344.099q.172.052.342.108.17.055.339.115.169.059.337.122.167.063.333.13.167.067.331.138.165.07.327.145.163.074.324.152.162.078.321.159.159.082.317.167.157.085.312.173.156.089.309.181.154.092.305.187t.3.194q.149.099.296.201.147.102.291.207.144.106.286.214.142.109.282.22.139.112.276.227t.271.232q.134.118.266.239.131.121.26.244.128.124.254.251.126.126.249.255.123.13.243.262t.237.266q.116.135.23.272.114.138.225.277.11.14.218.282.107.143.211.287.104.145.205.292.101.147.198.296.098.149.192.3t.184.305q.091.153.178.308t.17.313q.083.157.163.316t.156.32q.076.161.149.323.072.162.141.326.069.164.134.33.065.165.126.332t.119.336q.057.168.111.337.053.17.103.341.05.17.095.342.046.172.088.344.042.173.079.347.038.173.072.348.034.174.064.349t.056.351q.026.176.048.352.022.176.039.353.018.177.032.354.014.177.024.354.009.178.015.355.006.178.008.355Z"/>
    <path fill="none" stroke="#381d1d" stroke-width=".615" d="m-50.18 650.378-47.109-.513"/>
    <path fill="none" stroke="#381d1d" stroke-width=".665" d="m-43.801 663.403-29.133 34.424"/>
    <path fill="none" stroke="#381d1d" stroke-width=".614" d="m10.508 606.59-32.695 32.967"/>
    <path fill="none" stroke="#381d1d" stroke-width=".597" d="m-13.6 592.625-15.154 42.338"/>
    <path fill="none" stroke="#381d1d" stroke-width=".628" d="m-18.228 650.197 47.747-.425"/>
    <path fill="none" stroke="#381d1d" stroke-width=".634" d="m-22.455 661.396 28.583 36.569"/>
    <path fill="none" stroke="#381d1d" stroke-width=".502" d="m-68.356 598.515 6.214 9.448M-58.568 613.134l15.946 23.511"/>
    <path fill="none" stroke="#381d1d" stroke-width="1.568" d="M-95.787 612.11q.006.138.011.288l.008.299.008.298.006.295.004.293.004.29.002.287v.285q0 .141-.001.282l-.002.278-.004.276-.006.272-.008.27-.01.266q-.006.132-.013.263-.007.131-.015.261-.008.129-.018.257-.01.128-.021.255-.011.126-.024.251-.013.126-.028.249-.014.124-.031.246-.016.122-.034.243-.018.121-.039.24-.02.119-.042.237-.022.117-.046.233-.024.117-.05.231-.026.115-.054.228t-.058.224q-.03.112-.063.222-.032.11-.066.218-.035.108-.072.215-.037.107-.076.212-.038.106-.08.21-.041.104-.085.206-.044.103-.09.204-.046.1-.094.2t-.099.198q-.051.098-.104.194-.053.097-.108.192-.056.095-.113.189-.058.094-.118.187-.061.092-.123.183-.063.091-.128.181-.065.089-.132.177-.067.089-.137.175-.069.087-.141.172-.072.086-.146.17-.074.084-.151.166-.076.083-.155.164-.079.08-.159.16-.081.08-.164.158t-.168.154q-.085.077-.172.151-.088.075-.177.149-.089.073-.18.145-.091.071-.185.141-.093.07-.188.139-.095.068-.192.135-.096.066-.195.131t-.199.128q-.101.063-.203.124-.102.061-.205.12-.104.059-.209.116-.106.058-.212.113-.107.055-.215.108-.109.053-.218.104-.11.052-.221.1-.111.049-.223.096t-.226.092q-.113.044-.227.086-.115.043-.231.083-.115.04-.232.077-.117.038-.234.073-.118.036-.236.069-.118.032-.238.063-.119.03-.239.058-.12.028-.241.054-.12.025-.242.048-.121.023-.243.044-.122.02-.245.038-.122.018-.245.034-.122.015-.246.028-.123.012-.246.022-.124.011-.247.018-.124.008-.248.012-.124.005-.248.008-.124.002-.248.001-.124 0-.248-.003t-.248-.009q-.124-.006-.247-.014-.124-.008-.248-.019-.123-.011-.246-.025-.124-.014-.246-.03-.123-.017-.246-.036-.122-.018-.244-.04-.122-.022-.244-.046-.121-.024-.242-.051-.121-.027-.241-.056-.12-.03-.24-.062-.119-.032-.238-.067-.119-.034-.237-.071-.117-.038-.234-.077-.117-.04-.233-.082-.116-.043-.231-.087-.115-.045-.229-.092t-.227-.097q-.112-.05-.224-.102-.111-.052-.222-.107-.11-.054-.219-.111t-.216-.116q-.108-.059-.214-.121t-.211-.125q-.105-.064-.208-.13t-.205-.135q-.101-.068-.201-.138-.1-.071-.198-.144-.098-.072-.195-.147-.096-.075-.191-.152-.095-.076-.188-.155t-.184-.16q-.091-.081-.18-.164-.089-.082-.176-.167t-.172-.171q-.085-.087-.168-.175-.083-.089-.164-.179t-.16-.182q-.079-.092-.155-.185-.077-.094-.151-.189t-.146-.192q-.072-.097-.142-.195-.07-.099-.137-.198-.068-.1-.133-.201-.065-.102-.127-.204-.063-.103-.123-.207t-.118-.209q-.058-.105-.113-.212-.055-.106-.108-.214-.052-.107-.102-.216-.05-.109-.098-.218-.047-.11-.092-.221t-.087-.222q-.042-.112-.082-.224-.039-.113-.076-.226-.037-.114-.071-.228-.034-.114-.066-.229-.031-.115-.059-.23-.029-.116-.055-.232t-.049-.232q-.023-.117-.043-.234-.02-.117-.038-.234-.017-.118-.032-.236-.014-.117-.026-.235-.012-.118-.021-.237-.009-.118-.015-.236-.006-.119-.009-.237-.003-.119-.004-.237 0-.119.003-.237.002-.119.007-.237.006-.119.014-.237t.019-.236q.012-.118.025-.236.014-.117.031-.235.017-.117.037-.234.019-.117.042-.234.022-.116.047-.233.026-.116.054-.231.028-.116.058-.23.031-.115.065-.229.033-.115.07-.228.036-.114.075-.226.039-.113.081-.225.041-.111.086-.222.044-.111.091-.221t.096-.219q.05-.109.102-.217.052-.108.107-.214.054-.107.111-.213.058-.105.117-.21.06-.104.122-.207t.126-.205q.064-.102.131-.202.067-.101.136-.2t.14-.196q.071-.098.145-.194.073-.096.149-.191.075-.094.153-.187t.158-.185q.079-.091.161-.181.082-.089.166-.177t.169-.174q.086-.087.174-.171.087-.084.177-.167.089-.082.18-.163.092-.08.185-.159t.187-.156q.095-.076.191-.151.097-.075.195-.147.098-.073.197-.144.1-.07.201-.139.101-.068.203-.134.103-.066.207-.131.103-.064.209-.125.105-.062.212-.122.106-.059.214-.117.108-.057.217-.112t.219-.107q.111-.053.222-.103.112-.05.224-.098.113-.047.226-.093.114-.045.228-.088.115-.042.23-.082.116-.041.232-.078.116-.038.234-.073.117-.035.235-.068.118-.032.236-.062.119-.03.239-.057.119-.028.239-.052.12-.025.24-.047.121-.022.242-.042.121-.019.243-.035.121-.017.243-.031.122-.014.244-.025.122-.012.245-.02.122-.009.245-.014.123-.006.245-.009.123-.004.246-.004t.246.002q.123.002.246.007.123.006.246.013.122.008.245.019.123.01.245.023.123.014.245.03.122.015.244.034.121.019.243.04.121.021.242.045.121.024.241.051.12.027.24.056.12.03.239.062t.237.066q.118.035.236.072.117.037.234.077.116.04.232.083.116.042.231.087.114.045.228.093t.226.098q.113.05.224.102.112.053.222.108.11.056.219.113.109.058.216.118.108.06.214.123.106.062.211.127t.208.132q.103.068.206.138M-58.419 625.386q.016.289.023.442.007.153.012.302.006.149.01.293t.006.285q.003.14.004.277t0 .271q0 .134-.002.264-.002.131-.006.259-.003.128-.009.254-.005.125-.012.249-.007.123-.016.245-.009.122-.019.242-.011.12-.024.238-.012.119-.027.237t-.032.235q-.017.116-.036.232-.019.117-.041.232-.021.115-.045.23-.023.114-.049.228-.026.114-.054.226-.029.113-.059.225-.03.112-.063.222-.033.111-.067.221-.035.109-.073.218-.037.108-.076.216-.039.107-.081.214-.042.106-.086.211-.043.105-.09.209-.046.104-.094.207-.049.102-.099.204-.051.101-.104.201-.053.101-.108.199-.056.099-.113.197-.058.097-.117.194-.06.096-.122.191t-.127.188q-.064.093-.13.185-.067.092-.136.183-.068.091-.139.18-.071.089-.144.177-.074.087-.149.174-.075.086-.153.17-.077.085-.157.168-.079.083-.161.164-.082.082-.166.162-.083.08-.169.158-.086.078-.174.155-.087.076-.177.151t-.182.148q-.091.073-.185.144-.093.071-.189.141-.095.069-.192.137-.097.067-.196.133t-.2.129q-.1.064-.203.126-.102.062-.206.121-.104.06-.209.118-.105.057-.212.113t-.215.109q-.108.054-.218.105t-.221.101q-.111.049-.223.096t-.225.091q-.114.045-.228.087-.115.043-.23.083-.116.04-.232.077-.117.038-.234.073-.118.035-.236.068-.119.033-.238.064-.119.03-.239.058-.12.028-.241.053-.12.026-.242.049-.121.022-.243.043-.122.02-.244.038t-.245.033q-.123.015-.246.028-.123.012-.246.023-.124.01-.248.017-.123.007-.247.012t-.248.007q-.124.002-.248.002-.124-.001-.248-.004t-.247-.009q-.124-.006-.248-.014-.124-.009-.247-.02-.124-.011-.247-.024-.123-.014-.246-.031-.123-.016-.245-.035-.123-.019-.245-.041-.122-.021-.243-.046-.122-.024-.242-.051-.121-.027-.241-.056-.121-.03-.24-.062-.12-.032-.238-.067-.119-.034-.237-.071-.118-.038-.234-.077-.117-.04-.233-.082-.116-.043-.231-.087-.115-.045-.229-.092-.114-.048-.227-.097-.112-.05-.224-.102-.112-.052-.222-.107-.11-.054-.219-.111t-.217-.116q-.107-.06-.213-.121-.107-.062-.211-.126-.105-.063-.208-.129-.103-.067-.205-.135-.101-.068-.201-.139-.1-.07-.198-.143-.099-.072-.195-.147-.097-.075-.191-.152-.095-.077-.188-.155-.093-.079-.184-.16t-.18-.164q-.089-.083-.176-.167-.087-.085-.173-.172-.085-.086-.168-.175-.083-.088-.164-.178t-.159-.182q-.079-.092-.156-.186-.076-.093-.151-.189-.074-.095-.146-.192-.072-.096-.142-.195-.07-.098-.137-.198-.068-.1-.133-.201t-.128-.204q-.063-.103-.123-.207t-.118-.209q-.058-.105-.113-.212-.055-.106-.108-.214t-.103-.216q-.05-.109-.098-.219t-.093-.221q-.045-.111-.087-.222-.043-.112-.082-.225-.04-.113-.077-.226-.037-.114-.072-.228-.034-.114-.066-.229t-.061-.231q-.029-.116-.055-.232t-.05-.233q-.023-.117-.044-.234-.021-.117-.039-.235-.018-.118-.033-.236-.015-.118-.028-.236-.012-.119-.022-.237-.01-.119-.016-.238-.007-.119-.011-.238-.004-.118-.005-.237-.002-.119 0-.238.001-.119.006-.238.004-.119.011-.238.007-.119.017-.237.01-.119.023-.237.013-.119.028-.237.016-.118.034-.235.019-.118.04-.235.021-.117.045-.234.023-.117.05-.233.027-.116.056-.232t.061-.231q.032-.114.067-.229.035-.114.072-.227.038-.114.078-.226.04-.113.083-.225.042-.111.088-.222.045-.111.093-.221.048-.109.098-.218.051-.109.104-.216.053-.108.109-.214.055-.107.113-.212t.119-.209q.06-.103.123-.206.063-.102.129-.204.065-.101.133-.2.068-.1.138-.198t.142-.195q.073-.097.147-.192.075-.095.152-.188.077-.094.156-.185.079-.092.16-.182t.164-.178q.083-.088.169-.175.085-.086.172-.171.088-.084.177-.167.089-.082.181-.163.091-.081.184-.159.093-.079.188-.155.095-.077.192-.151.096-.075.195-.147.098-.073.198-.143.1-.07.202-.138.102-.068.205-.134.104-.066.209-.13.104-.063.211-.124.106-.062.214-.121t.217-.115q.109-.057.219-.111.111-.054.222-.106.112-.052.225-.102.113-.049.227-.096t.229-.091q.115-.045.231-.087.116-.042.233-.081t.235-.076q.118-.037.237-.072.119-.034.238-.066.12-.031.24-.06.12-.03.241-.056.121-.027.243-.05.121-.024.243-.046.123-.021.245-.039.123-.019.246-.035.122-.016.246-.029.123-.013.247-.024.123-.011.247-.018.124-.008.248-.014.124-.005.248-.007.124-.003.248-.003t.248.003q.124.003.248.009.124.005.248.013.123.009.247.019.123.011.247.025.123.014.246.03t.245.035q.123.019.245.04.122.022.243.046.122.024.243.051.12.027.241.056.12.03.239.062.12.032.238.066.119.035.237.072.118.037.235.077.117.04.233.082t.231.087q.115.045.229.092.113.047.226.097.113.049.224.102.112.052.222.106.11.055.219.112.109.056.217.116.108.059.214.12.106.062.211.126.104.064.207.13.104.066.205.134.102.068.202.139.1.07.198.143.098.073.195.148.096.074.159.125M-100.065 577.181l41.651 11.763M-62.539 600.223l-33.154-9.541M-100.073 577.26l-.374 30.315M-95.771 590.675l-.046 25.714M-58.385 589.067l-.025 39.193M-62.42 600.383l.06 19.399"/>
    <path fill="none" stroke="#381d1d" stroke-width=".633" d="M-38.399 634.627q-.056-.19-.041-.138-.062-.213-.051-.177.034.118-.515-1.755-.55-1.872-1.325-4.512-.774-2.64-1.38-4.702-.605-2.062-1.344-4.583-.74-2.521-1.101-3.752-.362-1.231-.619-2.107l-.401-1.367q-.144-.492-.367-1.252l-.356-1.213q-.133-.453-.282-.959-.148-.506-.232-.792-.084-.287-.145-.494-.061-.207-.533-1.818-.473-1.61-1.307-4.452-.834-2.843-1.263-4.303l-.583-1.989q-.155-.528-.211-.717l-.109-.373q-.055-.185-.077-.261-.022-.077-.036-.125-.014-.048-.028-.093-.013-.044-.006-.021.006.022.004.012l-.033-.109-.064-.22-.071-.243q-.037-.124-.034-.113.004.01.006.018l-.082-.277q-.083-.285-.095-.324-.011-.04-.114-.389-.001-.006.108.369"/>
    <path fill="none" stroke="#381d1d" stroke-width=".665" d="M-18.263 654.425q.113.037.592.208.479.171.797.283.317.113.581.21.263.096.345.127.082.032 1.206.45 1.125.417 1.747.654.621.236 1.622.626 1.001.389 1.462.566.461.177.792.301t1.019.389l1.49.577q.803.312 1.434.552.632.24 1.278.483.647.244 1.625.622t1.865.715q.888.337 1.321.498.434.161 1.479.566 1.045.405 1.652.637.607.231 1.324.503.717.271 1.061.404.345.132.891.345.546.213 1.12.422.575.21 2.083.784 1.508.574 2.372.906.863.332 1.42.55.556.218 1.417.555.86.338 1.485.591.624.252 1.344.544.721.292 1.562.629.84.338 1.208.492.369.154.624.257.256.102.563.221.308.119.388.152.08.034 2.398.934M-19.648 657.16q.081.064 1.835 1.183 1.753 1.119 2.722 1.744.97.625 1.929 1.249.96.623 1.614 1.044.654.42.977.626.324.205 1.216.775.892.57 1.301.828.409.258 1.122.704.714.446 2.301 1.435 1.587.989 2.462 1.546.876.558 1.503.964.627.407 1.615 1.044.989.638 1.507.969.518.331 1.612 1.026 1.094.695 2.33 1.491 1.236.796 2.278 1.483 1.043.686 1.529 1.009.486.323 2.23 1.52t2.794 1.923q1.051.727 1.538 1.06.486.334 1.053.723.567.389 1.186.789l.513.354"/>
  </g>
</svg>
