<svg xmlns="http://www.w3.org/2000/svg" width="182.8587" height="190.7507" viewBox="158.97 755.497 137.144 143.063">
  <g stroke-linecap="round" stroke-linejoin="round">
    <path fill="#a95c8d" stroke="#a95c8d" stroke-width=".5" d="M206.962 767.001q-.022.026-.179.11-.022.045-.344.473-.323.428-.569.757-.247.329-.47.726-.223.398-.427.834-.204.437-.36.791-.155.355-.332.772-.176.417-.377.894-.201.477-.432 1.011-.232.533-.468 1.073-.236.541-.479 1.088-.242.546-.49 1.099-.248.553-.5 1.113-.252.561-.476 1.048-.224.487-.416.902-.192.415-.351.76-.159.345-.346.757-.186.413-.417.892-.23.478-.441.887-.21.408-.475.917-.265.509-.506.965-.24.457-.455.847-.216.389-.484.867-.268.477-.583 1.045-.315.569-.674 1.231-.351.669-.671 1.303-.32.634-.615 1.232-.296.597-.575 1.153-.28.555-.543 1.067-.264.511-.5.954-.236.442-.437.817-.202.375-.364.682-.163.308-.346.67-.183.362-.401.8-.219.438-.364.732-.145.295-.283.57-.137.276-.31.63t-.375.788q-.201.433-.43.946-.229.513-.43.971-.201.458-.383.861-.181.403-.344.751-.163.348-.379.788-.217.439-.541 1.074-.324.635-.682 1.32-.365.684-.675 1.263-.309.579-.558 1.054-.249.474-.47.89-.221.415-.413.772-.192.356-.434.818-.243.461-.537 1.028-.293.566-.547 1.064-.255.497-.469.926-.43.858-.853 1.682-.422.823-.935 1.801-.512.977-1.137 2.11-.626 1.132-1.211 2.246-.586 1.114-1.241 2.373-.328.63-.686 1.29-.359.66-.748 1.35-.39.69-.712 1.268-.321.577-.576 1.041-.254.465-.465.873-.211.408-.379.76-.168.353-.449.984-.282.632-.521 1.176-.24.544-.533 1.211-.293.667-.558 1.258-.264.591-.5 1.107t-.443.957q-.208.44-.475.988-.268.547-.528 1.069-.26.523-.5.994t-.331.65q-.091.18-.415.892-.324.712-.541 1.206-.217.494-.434 1.006-.216.512-.485 1.093-.268.582-.588 1.228-.32.647-.594 1.188-.274.541-.603 1.193-.33.651-.661 1.175-.332.523-.703 1.075-.371.551-.682 1.088-.311.537-.539.852-.227.314-.457.686-.229.371-.349.604-.119.233-.238.493-.118.259-.149.335-.03.076-.078.196-.048.121-.061.211-.012.089-.016.099-.003.01.014.1.018.09.07.172.053.081.075.098t.321.113q.3.097.899.285.6.188 1.138.321.537.133 1.2.228.664.094 1.153.136.489.043 1.157.043.667 0 1.263-.052.597-.052 1.338-.156.741-.105 1.329-.189t1.027-.148q.44-.064 1.046-.107.605-.043 1.367-.063.761-.02 1.457-.026.695-.006 1.332.004.637.009 1.117.014.479.004.724.001t.619-.004q.374-.001.959.001.585.001 1.183.007.599.006 1.053.012.454.006.965.012.51.006.995.013.484.007 1.174.018.689.011 1.501.039.811.027 1.508.063.697.036 1.275.076.577.04 1.074.077.498.038 1.121.084.623.047 1.137.078.511.028 1.184.069.673.041 1.495.062.822.022 1.552.034.73.013 1.374.024.644.012 1.389.055.744.043 1.593.12.849.078 1.507.113.659.034 1.125.063.466.028.985.025.518-.003 1.089-.036.571-.032 1.154-.094.582-.061 1.176-.152l1.059-.162q.464-.072.964-.158.499-.086 1.336-.171.837-.086 1.309-.123.472-.037.932-.034.459.003 1.066.03.606.028 1.192.071.586.044 1.151.105.565.061 1.28.092.716.03 1.58.032.863.01 1.587.016.725.005 1.31.003.585-.002 1.041.006.456.008.945.031.49.023.866.069.376.047.906.085.529.039 1.337.078.808.039 1.52.038.713 0 1.329-.04t1.116-.074q.499-.034.929-.056.429-.021.795-.021.365 0 .811.015.445.014.779.024.333.01.555.016.223.006.606-.015.383-.02.925-.052.543-.032.949-.047.406-.015.811-.032.406-.016.924.016t.923.034q.404.003.867-.012.464-.014.897-.014t1.038.011q.606.01 1.33.039.723.029 1.063-.01.339-.038.667-.197.328-.158.448-.256.12-.097.235-.267.115-.169.353-.806.237-.637.377-1.087.14-.45.207-.683.066-.233.23-.667.163-.434.316-.831.152-.397.348-.903.197-.506.376-.96.179-.453.341-.853.162-.4.307-.746t.337-.785q.192-.438.445-1.003.252-.566.502-1.112.25-.547.441-.97.19-.422.32-.721.261-.597.485-1.174.223-.578.393-1.083.171-.505.364-1.13.193-.625.428-1.259.235-.635.514-1.28.279-.644.528-1.149.249-.504.574-1.052.325-.548.591-.954.267-.405.517-.824.251-.418.476-.902.224-.484.511-1.17.287-.687.545-1.268.257-.581.589-1.295.333-.715.727-1.514.395-.8.789-1.726.394-.926.847-1.893.453-.967.919-1.831.466-.865.833-1.697.367-.832.631-1.398.265-.566.551-1.143.287-.578.505-1.027.217-.449.445-.93.227-.481.449-1.126.222-.644.438-1.187.215-.543.503-1.197.288-.655.501-1.138.213-.483.43-.947.218-.464.549-1.475.331-1.011.571-1.693.241-.682.541-1.455.301-.774.497-1.387t.389-1.112q.193-.5.451-1.088.259-.589.478-1.052.218-.464.48-.973.262-.51.363-.798.102-.288.303-.731.201-.442.546-1.132.345-.689.635-1.216.29-.527.515-.896.458-.734.71-1.238.253-.504.467-.953.213-.449.475-1.01.262-.562.48-.991.219-.43.474-.881.255-.45.503-.948.247-.499.509-1.096.262-.597.453-1.069.192-.471.32-.816.245-.692.485-1.288.24-.597.437-1.168.196-.571.323-.986.126-.415.347-.917.222-.501.622-1.307.4-.805.662-1.418.262-.613.366-.897.105-.284.27-.623.164-.34.423-.832.258-.492.423-.823.166-.331.273-.583.108-.252.197-.478.089-.225.227-.518.137-.292.419-.835.281-.543.422-.893.14-.35.357-.888.216-.537.286-.682.07-.146.235-.493.165-.347.365-.791.106-.257.214-.488.108-.231.276-.524.168-.293.356-.617.189-.323.247-.513.058-.19.108-.324.05-.135.082-.193.031-.057.093-.197t.075-.201q.013-.061.092-.288.079-.226.08-.263.001-.038.133-.698-.004-.003-.226-.304-.642-.001-1.28 0-.639.001-1.274.003l-1.27.006-1.267.008q-.632.005-1.264.009-.632.005-1.264.011l-1.262.01q-.632.005-1.263.011l-1.262.01q-.631.006-1.262.011-.632.006-1.263.011-.631.006-1.262.011-.631.005-1.262.011-.631.005-1.262.011-.631.005-1.262.011-.631.005-1.262.011l-1.262.01q-.632.006-1.263.011-.631.006-1.262.011-.631.006-1.262.011-.631.005-1.262.011-.631.005-1.262.011-.631.005-1.262.011-.631.005-1.262.011-.632.005-1.263.011l-1.262.01q-.631.006-1.262.011-.631.006-1.262.011-.631.006-1.262.011-.631.005-1.262.011-.631.005-1.262.011-.631.005-1.263.011-.631.005-1.262.011l-1.262.01q-.631.006-1.262.011-.631.006-1.262.011-.631.006-1.262.011-.631.006-1.262.011-.631.005-1.263.011-.631.005-1.262.011-.631.005-1.262.011-.631.005-1.262.011l-1.262.01q-.631.006-1.262.011-.631.006-1.262.011-.631.006-1.262.011-.632.006-1.263.011-.631.005-1.262.011-.631.005-1.262.011-.631.005-1.262.011-.631.005-1.262.011l-1.262.01q-.632.006-1.263.011-.631.005-1.263.011-.631.005-1.264.009-.633.004-1.267.007-.635.004-1.274.004-.64 0-1.287-.005-.647-.004-1.305-.016-.659-.012-1.332-.034-.673-.021-1.361-.052-.688-.031-1.385-.068l-1.393-.072q-.695-.035-1.38-.064Z"/>
    <path fill="#eaf9f0" stroke="#eaf9f0" stroke-width=".5" d="M206.526 858.343q-.011.093.006.787.017.695.017 1.695t-.001 1.652q0 .653-.041 2.196-.04 1.543-.069 2.652-.03 1.108.073 3.307.102 2.198.15 3.356.047 1.157.015 1.926-.032.769-.122 1.823-.09 1.055-.092 1.721-.001.333.01.979.011.646.034 1.604.023.959.03 1.751.008.792-.001 1.418-.008.626-.031 1.154-.023.528-.078 1.173-.055.646-.093 1.371-.038.726-.033 1.473.006.747-.008 1.536-.013.79-.027 1.187t.003.552q.018.155.024.186.007.031.043.283.035.251.083.511.049.26.211.8.057.162.158.279.101.118.225.206.123.088.201.145.078.058.63.193.553.135 1.053.176.501.041 1.134.028.632-.012 1.121-.029.488-.017 1.005-.04.517-.024.821-.018.304.005.759-.008.456-.013 1.165-.035.71-.021 1.291-.034.582-.013 1.036-.021.453-.008.986-.014.533-.005 1.147.007.614.011 1.106.024.492.013.862.018.37.005.862.013t1.106.02q.615.012 1.216.045.601.032 1.189.081.588.049 1.116.079.527.03 1.229.047.701.016 1.666-.074.964-.089 1.676-.173.712-.083 1.363-.123.652-.04 1.186-.066.534-.025 1.169-.047.634-.023 1.232-.041.599-.019 1.16-.036.56-.017 1.083-.034.523-.017 1.247-.047.725-.029 1.421-.056.697-.027 1.345-.036.648-.01.979-.013.332-.004.808.022.475.026 1.202.073.724.041 1.501.049.778.008 1.611-.013.833-.021 1.486-.051.653-.031 1.364-.088.71-.058 1.124-.096.207-.019 1.03-.033.822-.015 1.596-.017.774-.002 1.776.005 1.001.008 1.663.016.662.008 1.169.016.506.007 1.079.016.572.009 1.119.018l1.331.022q.782.013 1.535.02.753.007 1.273.004.52-.003.996.007t1.082.032q1.212.046 2.501.108 1.29.062 1.991.062.701 0 1.92.03 1.218.03 2.018.093.799.063 1.236.116.437.052 1.509.14 1.072.088 2.456.054 1.384-.034 2.1-.037.715-.003 2.293.058 1.578.062 2.361.072.782.01 1.928-.011 1.146-.02 1.631-.126.486-.107.656-.177.171-.071.237-.12.066-.05.141-.139.076-.089.119-.175.043-.087.122-.333.079-.246.126-.5.047-.253.089-.836.041-.582.104-1.587t.1-1.871q.036-.866.033-1.581-.004-.715-.026-1.516-.023-.801-.064-1.687-.041-.887-.057-1.677t-.007-1.827q.01-1.037.043-1.861.032-.825.035-1.284.003-.459-.006-1.041-.008-.582.001-1.078.01-.496-.025-1.287-.034-.791.002-1.878.036-1.086.064-1.626.029-.54.017-.784-.012-.243-.014-1.162-.002-.918.012-1.698.013-.78-.063-1.517-.076-.737-.094-1.282-.018-.545.003-1.306.022-.762 0-1.65-.022-.887-.077-1.643-.056-.756-.098-1.141-.043-.385-.056-.664-.013-.279-.016-1.001-.002-.721-.036-1.978-.034-1.256-.089-2.234-.055-.979-.13-2.031-.075-1.052-.101-1.897-.026-.844-.069-1.589-.042-.744-.103-1.669-.061-.925-.097-1.727-.036-.802-.057-1.82-.021-1.018-.021-1.636 0-.619-.016-1.373-.015-.754.052-1.883.066-1.13.23-2.104.164-.975.253-1.796.09-.822.159-1.816.07-.995.106-1.78.037-.786.039-1.651.003-.865-.002-1.421-.004-.557-.044-1.253-.04-.696-.062-.915-.023-.22-.048-1.277t-.07-2.066q-.045-1.01-.121-1.641-.038-.315-.075-.947-.036-.633-.07-1.582-.034-.95-.048-1.674-.014-.723-.005-1.47.01-.746.011-1.146.002-.399.01-1.141.009-.742.027-1.959.018-1.218.031-2.148.014-.93.022-1.573.008-.643.008-1.119 0-.477-.015-.941-.014-.464-.03-.918-.016-.453-.017-.939-.001-.486.009-1.155.011-.67.009-1.347-.001-.677-.016-1.363-.014-.685-.023-1.194-.009-.51-.016-1.01-.008-.501.013-1.013.021-.513.059-1.449.039-.936-.023-2.002-.062-1.066-.119-1.945-.058-.878.041-2.08t.194-1.811q.095-.609.203-1.427.107-.817.162-1.403.056-.587.098-1.214.043-.626.051-1.266.009-.64-.013-1.291-.023-.651-.053-1.208-.031-.557-.092-1.252t-.149-1.344q-.087-.648-.103-1.238t.031-1.141q.047-.552.159-1.488.111-.936.165-1.414.054-.478.058-.855.004-.377-.087-.732-.048-.037-.109-.097-.062-.059-.167-.171-.105-.113-.135-.133-.031-.019-.079-.04-.049-.021-.306-.078-.257-.056-.782-.053-.525.003-.924.019-.398.015-.732.06-.333.045-.455.069-.123.023-.191.03-.068.008-.309.058-.24.05-.582.131-.342.081-.52.141-.179.06-.359.183-.18.122-.382.257-.201.135-.263.197-.062.061-.321.399-.26.337-.521.781t-.489.892q-.228.449-.423.896-.194.447-.43 1.043-.237.597-.469 1.156-.232.559-.576 1.339-.343.781-.655 1.501-.311.72-.535 1.282-.225.562-.6 1.397-.375.834-.829 1.685-.454.85-.833 1.627-.379.777-.668 1.397-.289.621-.612 1.346-.324.725-.563 1.268-.238.542-.471 1.079-.233.536-.424.936-.19.4-.355.731-.165.332-.383.789-.219.458-.545 1.153-.325.697-.618 1.394-.294.697-.556 1.394-.262.697-.463 1.245-.2.549-.409 1.149-.209.599-.517 1.389-.308.79-.67 1.745-.362.954-.625 1.762t-.354 1.075q-.091.268-.236.748t-.236.776q-.091.296-.232.674-.141.379-.44 1.141-.299.762-.548 1.304-.248.543-.699 1.419-.451.875-.784 1.492t-.687 1.267q-.355.65-.64 1.191-.285.542-.605 1.193t-.766 1.628q-.447.976-.861 1.995-.413 1.018-.625 1.516-.211.498-.316.745-.105.247-.276.599-.172.352-.432.891-.26.54-.498 1.05-.237.509-.462.987-.225.478-.449 1.03-.225.552-.459 1.177-.234.626-.432 1.138-.198.513-.445 1.11-.246.598-.475 1.1-.23.502-.385.857-.155.356-.369.854-.215.498-.406.928-.191.43-.374.893-.182.463-.434 1.105-.251.642-.446 1.135-.194.493-.381 1.008t-.45 1.143q-.262.628-.532 1.234-.27.605-.634 1.395t-.635 1.385q-.27.595-.446.997t-.471 1.03q-.294.628-.701 1.479-.728 1.662-.913 2.087-.186.426-.47.994-.285.569-.716 1.415-.43.846-.705 1.418-.274.572-.402.874-.258.605-.701 1.62-.444 1.016-.524 1.194-.081.178-.195.4-.115.223-.185.34-.071.117-.119.215l-.447.894q-.041.034-.114.161-.073.128-.138.225-.066.097-.075.1-.009.003-.103.092-.634-.001-1.273.001-.639.001-1.284.005-.644.004-1.294.01-.649.006-1.301.013l-1.306.016q-.655.008-1.31.017-.656.008-1.312.017-.656.009-1.313.019l-1.313.018q-.657.009-1.314.019-.657.009-1.315.019l-1.314.018q-.657.01-1.314.019-.657.01-1.314.019-.658.009-1.315.019-.657.009-1.314.019-.657.009-1.314.019l-1.315.018q-.657.01-1.314.019-.657.01-1.314.019t-1.315.019q-.657.009-1.314.019l-1.314.018q-.657.01-1.314.019-.658.01-1.315.019-.657.01-1.314.019t-1.314.019q-.658.009-1.315.019l-1.314.018q-.657.01-1.314.019-.657.01-1.315.019-.657.01-1.314.019Z"/>
    <path fill="#b2afcf" stroke="#b2afcf" stroke-width=".5" d="M207.659 764.752q-.015.028-.06.377-.044.349-.092.75-.048.4-.068.644-.019.244.002.749.021.504.042.811.02.306.066.583.045.276.1.475.055.198.125.405.07.206.26.662.19.456.283.701.093.246.152.392.06.146.217.478.158.332.289.551.132.218.265.397.134.178.234.304.1.125.18.214.08.089.125.135.045.045.082.078.037.033.186.171.15.137.345.268.194.13.351.223.157.093.234.134.076.042.111.055.036.013.229.079.194.065.337.1.143.034.315.034.173 0 .269-.019.096-.019.136-.029.04-.01.194-.073.154-.064.373-.229.218-.165.309-.25.091-.085.189-.237.098-.151.141-.242.043-.09.062-.132.019-.043.042-.098.022-.056.029-.078.007-.023.077-.285.07-.262.098-.403.029-.142-.015-.418-.029.007-.089.023-.061.017-.15.039-.088.022-.159.034-.07.011-.123.018-.053.007-.369.031-.315.024-.515.016t-.331-.017q-.132-.009-.339-.082-.207-.073-.301-.121-.095-.047-.173-.098-.079-.051-.145-.095-.066-.045-.132-.072-.066-.027-.212-.123-.145-.096-.229-.159-.085-.063-.161-.118-.077-.055-.168-.142-.092-.087-.222-.224-.131-.138-.269-.318-.139-.179-.243-.325-.105-.147-.19-.309-.086-.161-.199-.427-.113-.266-.168-.421-.055-.156-.114-.374-.06-.218-.09-.406-.03-.187-.052-.315-.021-.129-.05-.379-.03-.251-.04-.368-.01-.118-.019-.28-.009-.163-.01-.256-.001-.094.003-.3t.005-.227q0-.021.014-.164.015-.143.086-.567.072-.423.095-.524.022-.102.037-.165.014-.064.025-.122.012-.058.064-.243.053-.184.078-.267.026-.082.06-.214t.034-.135q0-.003.037-.155.037-.153.061-.248.024-.094.03-.112.006-.018.014-.054.009-.036.015-.075.007-.039.007-.046 0-.006.027-.218.027-.211.035-.319.008-.108-.019-.312-.027-.203-.058-.299-.031-.096-.042-.123-.011-.028-.017-.038-.007-.011-.051-.102t-.065-.119q-.02-.029-.121-.203-.101-.175-.112-.185-.011-.01-.076-.106"/>
    <path fill="#b2afcf" stroke="#b2afcf" stroke-width=".5" d="m208.894 761.439-.004.025q.005.058.049.324.044.267.089.404t.073.19q.028.053.223.291.015-.002.124-.123t.226-.284q.116-.164.194-.267.077-.103.128-.169l.096-.127q.046-.062.145-.172.099-.11.216-.217.116-.107.295-.277.178-.169.279-.26.102-.091.19-.17l.22-.2q.133-.121.243-.204.11-.082.294-.193.183-.11.308-.178.125-.068.246-.109.121-.041.29-.07.17-.03.26-.043.09-.013.206-.026.116-.012.245-.001.129.012.235.039.106.028.213.058.107.031.25.067.142.036.234.067.091.032.15.063.059.032.289.153.229.121.349.189.119.068.198.122.079.054.083.059.005.005.134.087.129.083.356.281.227.197.37.349.144.151.279.371.135.221.236.456.1.235.201.565.101.329.139.497.038.168.064.303.026.134.076.44t.076.678q.026.371.05.557.025.186.183.421l.029.004q.02-.008.145-.083.125-.076.274-.23.149-.154.321-.348.171-.194.253-.308.082-.113.124-.183.043-.07.083-.148.04-.078.056-.121.016-.044.021-.064.005-.019.025-.133t.019-.257q-.001-.144-.072-.411-.07-.268-.158-.549-.087-.281-.147-.449-.06-.168-.157-.356-.097-.188-.21-.444-.113-.256-.186-.459t-.122-.312q-.049-.108-.136-.23-.087-.121-.171-.227-.084-.107-.185-.337-.1-.231-.16-.392-.059-.16-.166-.314-.106-.154-.174-.236-.068-.082-.115-.132-.046-.05-.081-.081t-.095-.072q-.059-.04-.216-.129t-.286-.147q-.129-.058-.185-.077-.056-.02-.36-.113-.304-.094-.467-.143-.163-.049-.423-.083-.259-.034-.409-.048-.149-.015-.292-.027-.142-.013-.373-.03-.231-.018-.367-.027-.135-.008-.21-.003-.075.006-.13.012-.056.007-.064.009-.008.002-.077.008-.069.005-.199.032-.131.027-.236.063-.106.036-.192.061-.087.024-.186.065t-.175.079q-.077.038-.143.075-.065.036-.143.07-.078.033-.165.083-.086.049-.16.093-.073.043-.132.079-.059.035-.122.081-.063.045-.133.107-.069.061-.139.134-.069.073-.083.089-.015.016-.04.048-.025.031-.056.074-.03.042-.059.092l-.083.11q-.188.283-.377.566-.189.284-.378.569l-.378.568q-.188.283-.377.566Z"/>
    <path fill="#b2afcf" stroke="#b2afcf" stroke-width=".5" d="m217.799 765.063-.028.041q-.015.022-.047.389-.031.368-.067.786-.036.418-.079.656-.042.238-.092.404-.05.165-.077.246-.027.08-.123.37-.096.289-.315.806-.219.516-.374.829-.154.312-.231.436-.077.124-.118.181-.041.057-.229.277-.188.22-.345.381-.158.162-.346.303-.187.142-.524.404-.336.262-.508.398t-.356.255q-.184.119-.29.188-.107.07-.17.121-.064.051-.111.094-.047.042-.073.067-.027.025-.057.068-.031.043-.041.066-.01.022-.018.054-.008.032-.023.189-.016.156.054.379.071.223.177.365t.319.247l.039.001q.011 0 .072.005.06.004.189-.015.129-.018.275-.082.147-.063.305-.154.159-.092.243-.156.083-.063.237-.22.154-.156.268-.271.115-.114.305-.273.191-.16.292-.245.101-.085.287-.277.186-.192.277-.295.091-.102.136-.157.046-.054.139-.173.094-.118.293-.327.198-.209.325-.346.127-.137.316-.414.188-.277.3-.491.112-.215.201-.447.089-.233.228-.644.138-.412.201-.607.062-.195.112-.417.05-.221.115-.52.065-.298.097-.577.032-.279.038-.449.007-.17-.002-.564-.009-.394-.03-.6-.022-.206-.042-.336-.021-.13-.04-.216-.02-.086-.028-.133-.008-.047-.022-.172-.015-.125-.024-.211-.008-.087-.02-.146-.011-.059-.019-.098-.008-.038-.036-.269M222.075 765.587l-.015.04q-.016.066-.072.287-.056.22-.085.597-.028.377-.026.598.002.221.005.322.003.1.007.168.004.067.02.216.015.148.068.558l.08.631q.028.221.041.344.012.124.019.176.006.052.016.146.009.095.004.17-.006.074-.022.117-.015.043-.058.077-.044.035-.087.05-.044.015-.132.02-.088.005-.155-.013-.068-.017-.114-.039t-.105-.062q-.059-.04-.107-.085-.049-.046-.134-.194-.086-.148-.155-.321-.069-.173-.163-.465-.095-.291-.174-.591-.08-.3-.115-.583-.036-.283-.03-.501.006-.217.024-.402.019-.185.026-.397.006-.212.036-.524.029-.312.057-.494.028-.181.051-.346.023-.165.069-.385.046-.22.111-.525.065-.304.098-.441.033-.136.08-.275.046-.14.167-.439.121-.299.228-.537.108-.238.217-.449.109-.21.166-.297.057-.087.286-.428.228-.341.354-.525.125-.184.3-.398.175-.213.287-.346.112-.133.31-.328t.337-.311q.14-.115.23-.168.091-.053.188-.11t.189-.107q.091-.051.143-.075.052-.024.107-.045.055-.022.201-.095.145-.074.25-.12.105-.046.261-.103.157-.057.227-.085.069-.028.093-.034.024-.006.047-.01.024-.003.142-.04.119-.037.189-.06.071-.024.206-.035.136-.012.256-.015.12-.002.194.002.074.003.091.004.016.001.111.04t.171.089q.075.049.095.066.02.018.03.029.01.012.071.076.061.064.093.097.031.034.09.098t.103.124q.043.059.076.121.032.062.049.101.017.039.036.078.019.04.084.227.065.188-.015.912l-.055.021q-.009.012-.137.015-.129.004-.331-.014-.203-.017-.289-.022-.086-.005-.157-.012-.072-.007-.219-.009-.147-.003-.261.013-.114.016-.213.038-.099.021-.217.039-.119.019-.263.048-.144.03-.19.044-.047.014-.076.02-.03.006-.1.027-.069.021-.109.038-.039.017-.111.06-.071.043-.155.109-.084.065-.128.104-.045.038-.152.146-.107.107-.194.193-.087.087-.15.145-.062.058-.089.085-.028.027-.089.075l-.093.07"/>
    <path fill="#b2afcf" stroke="#b2afcf" stroke-width=".5" d="M227.383 758.517q-.001-.004.005-.021.007.009-.02.185t-.033.492q-.007.317.008.436.014.12.039.236.025.116.035.156.011.041.028.07.017.029.029.043.011.013.081.068.069.054.213.162.143.107.246.173.104.065.199.123.094.057.255.19.16.133.281.266.121.133.267.317.146.185.231.314.086.13.186.338.101.208.171.362t.11.227q.039.073.129.223.09.151.173.295.084.144.14.249.056.105.145.304.088.199.222.562.133.364.211.639.079.276.107.407.028.132.05.233.021.101.042.234.02.132.035.379.015.247.019.447t0 .267q-.004.066-.041.328-.036.262-.057.555.018.009.125-.078.106-.087.212-.196.107-.108.226-.224.118-.116.252-.28.133-.165.231-.329.098-.165.149-.281.051-.116.126-.361.075-.245.1-.359.025-.115.033-.185.007-.071.018-.213.011-.141.014-.221.002-.079.002-.145v-.206q0-.14-.02-.394t-.124-.639q-.104-.385-.166-.583l-.091-.286q-.028-.089-.064-.181-.037-.093-.085-.205-.048-.113-.153-.404-.105-.291-.17-.421-.065-.13-.125-.216-.06-.085-.159-.263-.1-.179-.172-.324-.073-.146-.114-.216-.041-.07-.07-.106-.029-.036-.037-.043-.008-.008-.088-.097-.081-.089-.128-.141l-.107-.116q-.059-.064-.192-.172-.133-.109-.206-.167-.072-.057-.106-.091-.034-.034-.157-.19-.124-.157-.261-.337-.136-.18-.2-.273-.064-.093-.093-.14-.03-.046-.066-.11-.035-.064-.094-.153-.006-.003-.087-.064-.834.072-1.659.151Z"/>
    <path fill="#b2afcf" stroke="#b2afcf" stroke-width=".5" d="M222.327 769.505q-.082.009-.128.02-.045.011-.21.047-.165.035-.345.114-.18.079-.342.187-.014.036-.038.111-.024.075-.021.143.003.067.014.115.012.047.03.094.017.046.028.065.011.019.163.424.152.406.262.672.11.267.191.413.081.146.127.214.047.069.092.13t.061.078q.016.018.156.198.139.181.456.561.317.379.379.443.062.065.092.09.03.026.09.076t.119.091q.059.041.101.067.042.026.099.061.058.036.37.181t.535.201q.222.056.726.118.504.063.79.081.287.019.412.017.126-.002.161-.004.035-.003.267-.027.232-.025.411-.057.178-.032.448-.158.27-.127.429-.216.16-.089.418-.251t.71-.52q.452-.358.673-.573.22-.216.37-.374.151-.158.364-.421t.369-.516q.156-.253.237-.399.081-.145.181-.327.1-.183.189-.364.088-.182.142-.284.053-.102.176-.379.122-.278.183-.515t.071-.337q.009-.1.041-.336.032-.236.049-.37.018-.135.013-.233-.005-.097-.037-.241-.032-.145-.063-.229-.032-.084-.058-.122-.025-.038-.095-.12-.07-.082-.097-.101-.028-.019-.032-.021-.005-.002-.137-.071-.132-.069-.204-.087-.072-.017-.111-.023-.038-.006-.095-.016-.058-.01-.133-.028-.076-.018-.132-.019-.056 0-.105.01-.049.009-.058.014-.008.005-.037.014-.029.01-.062.036-.033.026-.04.04l-.086.172q-.078.158-.115.354-.037.196-.056.431-.019.235-.037.402-.017.167-.032.276-.015.108-.072.312-.057.204-.089.297-.031.092-.064.172-.032.08-.088.18-.055.1-.077.139-.021.039-.162.237-.141.198-.291.382-.15.183-.232.28-.081.096-.152.174-.072.077-.215.238-.142.16-.287.3-.145.141-.322.306-.176.164-.253.241-.077.076-.15.133-.072.058-.079.061-.007.004-.066.052-.059.048-.128.107-.069.058-.159.137-.09.078-.161.126-.07.049-.154.088-.085.039-.187.092-.102.054-.153.076-.051.023-.127.045-.076.022-.18.056-.105.035-.221.057-.117.023-.225.04-.108.016-.172.022-.065.006-.099.008-.035.001-.062.003-.028.002-.058.009-.03.007-.077.01-.048.003-.083-.001-.036-.004-.092-.007t-.06-.003q-.004.001-.069-.004-.064-.004-.13-.017-.066-.012-.145-.025-.078-.013-.146-.033-.067-.021-.072-.024-.005-.003-.17-.06-.165-.057-.226-.09-.061-.034-.101-.054-.039-.021-.123-.061-.084-.04-.143-.072-.06-.033-.092-.057-.031-.024-.171-.112t-.231-.137l-.028-.026M239.018 758.711q-.008.022-.013.239-.005.216.008.387.013.17.073.444.06.273.08.409.02.137.008.208-.011.071-.027.102-.015.031-.03.051-.016.02-.075.068-.059.047-.105.079-.045.032-.082.06-.036.028-.201.141-.164.114-.248.175-.084.061-.22.168-.136.107-.239.203-.104.097-.187.185-.084.087-.203.204-.119.116-.342.368-.222.251-.365.446-.142.194-.244.341-.102.147-.168.255-.067.107-.12.199-.052.092-.068.119-.016.027-.117.222-.101.196-.154.332-.053.136-.096.302-.042.167-.084.339-.042.172-.063.334-.021.162-.035.495-.013.333-.015.623t-.003.553q-.001.263.018.817.019.554.033.856.014.302.035.526.022.223.045.34.024.117.083.449.059.332-.015.66-.172.063-.427-.04-.254-.104-.343-.175-.089-.071-.252-.255-.162-.183-.225-.261-.063-.079-.097-.138-.034-.059-.137-.278-.102-.22-.143-.321-.042-.102-.075-.265-.034-.162-.077-.409-.044-.246-.064-.49-.021-.245-.024-.364-.003-.118-.001-.529.002-.41.016-.638.015-.227.029-.429.015-.201.033-.35.019-.149.032-.226.013-.077.032-.171.019-.094.033-.148.014-.054.06-.294.045-.24.092-.428.046-.188.088-.309.043-.121.103-.325.059-.204.126-.392.067-.188.106-.275.038-.088.109-.273.07-.186.118-.293.048-.108.163-.276.115-.168.222-.351.108-.182.271-.399.162-.217.32-.408.157-.191.252-.309.094-.119.145-.169.05-.049.202-.218.153-.168.232-.26.08-.093.123-.133.043-.041.051-.045.008-.004.177-.236"/>
    <path fill="#b2afcf" stroke="#b2afcf" stroke-width=".5" d="M235.96 769.886q-.024-.009-.09-.053l-.108-.024q-.028-.009-.277-.039-.249-.031-.796.06l-.017.034q-.019.081-.025.089-.007.009.018.217.025.208.082.406.057.197.163.459.106.261.194.484.088.222.19.533.102.31.241.611.139.302.231.463.091.162.207.361.116.2.207.321.091.121.105.135.013.014.18.161.167.147.293.253.126.106.284.211.158.105.298.167.141.062.357.137.216.076.43.127.214.051.378.067.164.016.43.001t.553-.029q.288-.013.521-.021.233-.007.484-.056.25-.049.509-.127t.462-.15q.203-.072.452-.22.25-.147.498-.314.249-.166.384-.272.135-.105.298-.291.164-.185.306-.355.142-.171.23-.268.088-.098.318-.407.23-.309.335-.459.106-.149.227-.399.121-.249.229-.472.108-.222.178-.351.07-.128.145-.287.074-.159.188-.644t.153-.759q.039-.275.049-.402.009-.128.013-.544.004-.417-.024-.685-.028-.267-.071-.418-.044-.151-.11-.274-.065-.124-.143-.206-.077-.082-.142-.12-.066-.037-.117-.058-.052-.022-.07-.029-.018-.006-.107-.03-.09-.025-.129-.027-.038-.003-.083.006-.044.008-.074.021-.031.014-.051.027-.019.013-.062.11-.042.097-.094.323t-.078.389q-.025.162-.055.303-.03.142-.054.231-.024.089-.058.192-.035.102-.115.308-.08.205-.152.427-.072.221-.135.379-.063.157-.112.249t-.117.253q-.069.161-.118.281-.05.119-.087.188-.038.069-.067.118-.029.05-.084.159l-.068.136q-.014.027-.046.077-.031.05-.062.091-.031.042-.067.083-.037.04-.052.054-.015.013-.136.16-.121.147-.201.232-.08.086-.119.139-.04.053-.085.105-.045.052-.078.092-.032.04-.09.094-.057.055-.086.075-.029.021-.079.072-.049.051-.124.132-.074.081-.145.149-.071.068-.157.133-.087.065-.167.128-.079.064-.191.131t-.148.09q-.036.023-.104.068-.067.046-.129.074-.061.028-.14.052-.078.023-.156.058t-.089.037q-.011.001-.11.019t-.178.03q-.08.012-.128.009-.049-.003-.088-.009l-.045-.007q-.006-.001-.083-.004-.077-.004-.197-.017-.12-.012-.173-.021-.052-.008-.16-.004-.108.003-.154.005-.046.001-.213-.013-.168-.013-.258-.037-.091-.023-.173-.058-.083-.036-.123-.052-.041-.017-.083-.039t-.09-.057q-.048-.034-.107-.082-.059-.049-.105-.088-.046-.038-.058-.046-.012-.008-.063-.057-.051-.05-.179-.195"/>
    <path fill="#b2afcf" stroke="#b2afcf" stroke-width=".5" d="m238.878 760.49-.025-.032q-.019-.02-.029-.032-.01-.013-.056-.224-.046-.212-.052-.424-.007-.212.029-.36.035-.148.059-.208.024-.061.177-.197.154-.137.294-.222.14-.085.377-.161.238-.076.549-.128.311-.052.606-.09t.472-.039q.177-.002.408.047.231.048.488.115t.395.108q.139.041.32.144.182.103.43.304t.427.379q.179.178.276.291.098.112.338.439.241.327.396.566.155.24.223.361.068.12.159.338.091.217.161.461.069.244.166.571.096.327.151.534.055.208.139.627.085.419.114.799.029.38.03.568.001.187-.011.444t-.056.457q-.044.2-.1.326-.055.127-.095.201-.039.075-.074.126-.035.052-.057.079-.023.027-.063.064-.041.038-.125.113-.085.075-.152.117-.067.042-.094.051-.027.01-.125.043-.099.034-.166.056-.067.023-.159.035-.092.013-.154.008-.061-.004-.312-.067l-.048-.093q-.001-.005-.025-.428-.025-.423-.012-.703.013-.28.018-.392.006-.113.006-.154 0-.041-.004-.234-.004-.194-.009-.339-.004-.146-.014-.359t-.013-.28q-.003-.066-.048-.289-.046-.223-.083-.349-.037-.125-.055-.178-.018-.052-.041-.104-.022-.051-.033-.08-.011-.028-.053-.145-.042-.117-.087-.203-.044-.086-.076-.159-.031-.073-.09-.178-.058-.103-.09-.15-.031-.047-.056-.08-.024-.032-.108-.189-.084-.156-.133-.258-.049-.102-.109-.187-.059-.084-.092-.121-.033-.037-.108-.127-.075-.091-.127-.134-.052-.044-.119-.079-.067-.036-.121-.07-.053-.034-.115-.08-.062-.047-.076-.056-.015-.01-.064-.033-.049-.022-.069-.033-.02-.011-.055-.034-.036-.023-.074-.049-.038-.027-.102-.054-.063-.027-.076-.031-.013-.004-.071-.033-.058-.03-.08-.042-.022-.012-.08-.031t-.078-.022q-.021-.003-.064-.011-.044-.008-.074-.02-.029-.012-.052-.018l-.127.021M249.561 765.219q-.003.018-.051.112-.048.094-.125.416-.076.322-.109.576-.032.253-.044.407-.012.155-.047.765-.035.611-.041.962-.006.351.009.538.015.187.059.51.043.322.04.459-.004.136-.016.182-.012.045-.022.065-.011.019-.029.038-.018.018-.02.022-.001.003-.046.021-.045.019-.092.021-.046.002-.072-.003-.026-.005-.059-.011-.033-.007-.145-.06-.113-.053-.364-.373-.252-.32-.375-.78-.122-.459-.16-.812-.038-.352-.042-.549-.004-.196-.004-.547-.001-.351.01-.575.01-.223.033-.393.022-.17.104-.683.081-.512.149-.827.068-.314.161-.643.093-.328.155-.563.062-.235.108-.384.045-.148.122-.363.077-.216.164-.446.086-.231.153-.388.068-.158.111-.248t.133-.24q.091-.151.235-.371.143-.219.338-.452.194-.232.313-.367.12-.134.276-.294.157-.161.315-.295.157-.135.325-.281.168-.145.299-.267.132-.122.264-.212t.356-.214q.223-.125.343-.183.119-.057.169-.076.049-.018.168-.057.119-.038.272-.101.154-.064.302-.106.148-.042.276-.042.128-.001.194.008.066.008.214.015.147.007.221.015.074.008.109.013.035.005.126.032.092.028.162.049.07.022.245.058.174.037.253.053.079.016.224.089.145.072.228.124.082.052.166.103.083.051.177.122.093.07.266.326.173.256.256.425.082.168.121.308.04.14.057.393.018.254.013.36-.005.107-.047.226-.042.118-.079.168-.037.049-.075.071-.039.022-.044.028-.006.006-.156 0-.151-.006-.367-.049-.217-.044-.279-.06-.062-.015-.127-.036-.065-.02-.278-.072-.212-.051-.371-.099-.159-.047-.25-.082-.092-.035-.171-.07-.08-.034-.228-.083-.147-.05-.242-.073-.095-.024-.139-.036-.043-.012-.203-.008-.161.004-.247.019-.087.015-.13.022l-.076.012q-.031.004-.092.021-.06.017-.122.042-.062.026-.066.027-.004 0-.149.091-.146.09-.216.148-.07.058-.131.091-.061.034-.169.116-.108.083-.159.128-.051.046-.064.053-.014.007-.095.073-.081.065-.144.125-.064.059-.09.077-.027.018-.1.05"/>
    <path fill="#b2afcf" stroke="#b2afcf" stroke-width=".5" d="M256.625 759.423q-.014.018-.05.112-.036.094-.113.24-.077.146-.205.332-.128.185-.215.368-.088.183-.108.306-.02.123.004.193.023.07.113.205.089.136.201.278.113.142.317.495.205.353.281.522.075.168.114.271.039.103.15.4.11.296.266.767.155.471.228.721.072.25.104.366.031.117.045.181.013.065.075.389.061.323.107.681.046.358.053.525.007.167.008.235.001.068.002.109.001.041.001.157 0 .115-.005.223-.004.109-.007.278-.004.169-.007.277-.002.109-.021.307-.019.199-.04.32-.022.121-.062.237-.04.116-.158.507.119-.03.198-.076.08-.047.126-.09.047-.044.228-.206.182-.163.276-.252.094-.089.166-.165.073-.077.191-.237.118-.161.204-.29.086-.13.129-.203.043-.073.069-.16.027-.086.094-.321.066-.235.107-.389.041-.153.065-.552.023-.4.029-.595.005-.194.014-.357.01-.162.011-.409 0-.247-.114-.706-.114-.459-.199-.708-.084-.248-.148-.438-.063-.19-.118-.325-.054-.136-.085-.201-.031-.066-.06-.126-.03-.059-.123-.335t-.134-.417q-.042-.141-.118-.314-.076-.173-.148-.331-.072-.159-.181-.348l-.041-.049"/>
    <path fill="#b2afcf" stroke="#b2afcf" stroke-width=".5" d="M249.288 769.621q-.123.021-.133.021-.011 0-.27.082-.258.082-.394.143-.135.061-.178.092-.042.031-.091.091-.049.061-.066.146-.016.086.004.136.02.049.151.41t.237.598q.106.236.276.507.171.272.331.547.159.275.242.442.083.168.176.317.094.149.396.445.302.296.5.446.198.15.569.312.371.161.589.237.218.075.425.134.207.059.585.138.378.08.607.11.23.031.425.032.195.001.52-.069t.575-.149q.251-.08.436-.164.185-.085.516-.282.331-.198.503-.296.173-.099.386-.243.212-.145.502-.398.29-.252.52-.451.23-.2.353-.324.123-.123.218-.244t.226-.33q.132-.209.265-.483.132-.273.238-.625.105-.351.148-.558.043-.206.072-.546.028-.34.031-.508.003-.167-.019-.35-.022-.183-.039-.295-.018-.112-.042-.193-.023-.081-.043-.123-.02-.043-.05-.072-.031-.029-.116-.098-.085-.07-.116-.092-.031-.022-.135-.057-.104-.034-.2-.047-.096-.013-.148-.017-.052-.005-.097-.008-.045-.003-.073-.002-.028.002-.037.004-.01.002-.055.014-.045.011-.086.033-.042.022-.068.038-.025.015-.067.057t-.153.23q-.111.188-.195.426-.084.239-.122.371-.039.132-.108.296-.069.163-.238.538-.17.374-.335.685-.164.311-.244.451-.079.141-.154.244-.076.104-.147.192-.071.089-.109.133-.039.044-.079.084-.041.04-.05.05-.009.01-.11.101-.101.091-.156.134-.055.044-.157.125-.101.081-.168.133-.066.052-.139.101-.074.049-.162.1-.089.051-.243.131-.155.079-.235.112-.08.033-.185.065l-.138.042q-.033.01-.099.033-.065.024-.07.026-.004.003-.068.022t-.211.043q-.148.024-.222.039-.074.015-.174.021-.099.006-.152.005-.054-.002-.123-.01t-.139-.023l-.118-.027q-.048-.01-.094-.021-.046-.01-.089-.029-.042-.019-.098-.051-.057-.032-.084-.045-.027-.014-.041-.02-.015-.006-.042-.014-.026-.008-.097-.043-.07-.035-.116-.059-.046-.024-.072-.035-.027-.01-.085-.037-.058-.027-.106-.052-.048-.024-.164-.098-.115-.074-.143-.09-.028-.016-.099-.047-.071-.031-.128-.055-.058-.023-.111-.055t-.139-.079q-.086-.047-.107-.063-.02-.015-.048-.039-.028-.025-.062-.049-.034-.025-.045-.03-.011-.005-.102-.099M263.479 761.347q-.009.014-.105.023-.01.001-.196.188t-.289.33q-.102.143-.256.456-.153.314-.265.679-.112.366-.255.949-.143.582-.289 1.365-.145.782-.217 1.163-.072.38-.099.607-.027.227-.045.459t-.015.409q.003.177.085.392.081.214.148.312.068.097.1.131.033.033.166.108.134.075.223.103.089.028.13.031.042.002.071 0 .029-.003.086-.017.056-.015.112-.038.055-.024.225-.352.17-.328.235-.552.064-.225.086-.327.022-.103.056-.672.034-.57.049-.949.015-.38.052-.67.037-.29.069-.444.032-.153.07-.338.039-.184.108-.413.069-.229.168-.502.099-.274.165-.44.067-.166.101-.241.034-.075.228-.391.194-.317.289-.435.096-.118.177-.196.08-.078.151-.14.07-.063.167-.159.096-.096.31-.304t.423-.39q.21-.181.325-.27.115-.088.259-.209.144-.122.253-.225.108-.103.22-.238.113-.135.178-.242.066-.108.112-.361.047-.253.042-.401-.005-.148-.016-.199-.011-.05-.022-.076-.011-.026-.043-.093-.031-.067-.051-.099-.02-.031-.03-.044-.01-.013-.101-.082-.092-.069-.134-.096-.042-.026-.113-.049-.071-.023-.084-.025-.013-.002-.048-.011-.036-.008-.109-.026-.074-.018-.137-.054"/>
    <path fill="#b2afcf" stroke="#b2afcf" stroke-width=".5" d="m267.12 758.025-.018.011q-.037.022-.167.202-.131.18-.209.335-.077.154-.115.266-.038.113-.08.356-.043.243-.03.371.013.128.03.195.017.066.039.099t.023.037q.001.004.053.051.051.046.165.117.113.072.211.116.098.045.284.069.185.024.298.03.112.007.226.024.113.017.287.052.174.035.421.141.247.106.424.194.177.088.326.145.148.057.301.122t.365.2q.211.135.358.239.148.103.25.176.103.073.331.32.228.247.289.348.062.101.102.186.039.084.144.421.105.336.149.508.045.172.065.265.021.092.058.29.038.198.056.325.019.127.024.154.006.028.019.151t.106.74q.078-.071.157-.221.079-.15.152-.351.073-.201.12-.438.046-.238.068-.383.021-.144.04-.288.02-.144.033-.328.013-.184-.017-.468-.03-.284-.055-.45-.026-.165-.043-.259-.016-.093-.038-.215t-.112-.417q-.091-.296-.17-.519-.08-.224-.113-.312t-.086-.177q-.052-.09-.095-.151-.044-.062-.127-.186-.084-.123-.215-.29-.131-.167-.164-.199-.034-.033-.066-.065-.031-.033-.071-.081-.039-.048-.055-.074-.016-.027-.16-.169-.463-.242-.929-.449-.466-.208-.939-.351-.473-.142-.948-.242-.475-.099-.952-.173Z"/>
    <path fill="#b2afcf" stroke="#b2afcf" stroke-width=".5" d="M263.003 768.186q-.046.022-.22.093-.174.072-.301.133-.127.061-.253.141-.126.079-.214.166-.087.088-.134.169-.046.081-.072.17-.027.088-.032.136-.005.047.004.096.009.05.027.141.019.092.086.367.066.275.163.536.096.261.261.566.165.305.299.586.133.28.265.655.133.375.218.566.085.19.254.41.169.221.335.38t.457.34q.29.18.458.27.168.09.362.145.194.055.422.11.228.055.419.079.191.024.367.021.176-.003.464-.015.289-.013.446-.025.156-.013.32-.05.164-.037.335-.079.171-.041.369-.074.198-.033.33-.06.133-.026.345-.124.213-.097.422-.207.209-.109.437-.209.229-.099.442-.236.213-.137.434-.348.221-.211.472-.456.252-.244.432-.445.181-.202.346-.436.165-.235.254-.382.089-.148.138-.228.049-.081.196-.416.147-.334.215-.536.068-.201.131-.385t.135-.463q.073-.279.148-.66.074-.38.109-.572.034-.191.048-.409.014-.218.054-.539.041-.321.062-.49.022-.168-.002-.362-.023-.193-.052-.378-.029-.185-.049-.372-.02-.186-.056-.67-.037-.484-.068-.736-.032-.252-.055-.366-.022-.113-.035-.15-.013-.037-.099-.211-.086-.173-.138-.256-.053-.083-.101-.128-.048-.046-.114-.071-.065-.025-.117-.032-.052-.008-.066-.012-.014-.004-.053-.005-.038-.001-.056.001-.017.002-.08.031-.064.028-.146.112-.082.083-.116.153-.034.07-.046.111-.012.041-.032.181-.02.141-.027.283-.007.143-.016.518-.009.375-.01.571-.001.196.005.434t.008.359q.002.121-.005.418-.006.297-.021.485-.016.187-.027.281-.012.093-.025.226-.014.133-.048.291-.034.158-.047.224-.012.065-.021.122-.008.056-.019.146t-.033.225q-.022.134-.043.216-.021.082-.049.227-.029.144-.043.187-.015.044-.028.077-.013.033-.017.04-.004.007-.043.108-.038.1-.07.179-.032.079-.069.159-.037.079-.081.175-.043.096-.094.198-.051.103-.096.173-.045.069-.11.177-.065.108-.12.21-.055.102-.075.134-.02.031-.036.062-.015.031-.053.092-.037.061-.073.108-.036.048-.064.085-.029.038-.058.083-.029.045-.062.087-.034.042-.057.063-.023.021-.089.098-.066.076-.161.185-.094.108-.154.169-.06.06-.097.103-.037.042-.095.099-.059.056-.136.115-.078.06-.154.125t-.161.115q-.085.049-.142.072-.057.024-.146.077-.088.054-.131.081-.043.026-.049.029-.007.002-.078.034-.071.033-.107.053-.037.02-.073.043-.035.023-.091.056-.056.032-.168.077-.112.045-.161.07-.049.024-.085.038-.036.014-.098.034-.063.019-.13.041-.068.022-.095.029-.028.006-.036.01-.009.004-.094.016-.086.012-.169.015-.084.003-.162.011-.078.007-.198.003-.12-.003-.185-.002-.065.002-.128-.002-.063-.003-.233-.036-.17-.032-.3-.062-.13-.029-.193-.044-.064-.015-.104-.027-.041-.011-.174-.051-.134-.04-.214-.065-.08-.026-.119-.048-.038-.022-.082-.048-.045-.025-.149-.081-.103-.055-.143-.083-.04-.028-.117-.101-.076-.072-.114-.109-.039-.037-.095-.094-.055-.057-.105-.119-.05-.062-.138-.193-.087-.131-.125-.199-.038-.067-.063-.099-.026-.033-.083-.129M276.124 762.897l-.037.049q-.02.031-.155.217-.134.187-.23.332-.096.145-.182.371t-.207.793l-.191.893q-.07.327-.111.749-.041.422-.012 1.271.028.848.04 1.287.012.438.052.73.041.291.072.427.031.137.047.203t.031.121q.014.056.027.115.013.058.051.324.038.265.082.446.044.181.081.281.038.1.112.256.074.156.145.259.07.102.12.149.05.046.119.101.07.055.143.088.073.033.173.044.1.012.159.009.06-.002.135-.025.075-.024.13-.058.056-.035.072-.047.016-.012.062-.059.045-.046.064-.084.02-.037.025-.051.005-.014.008-.05.002-.036.004-.09.001-.055-.001-.114-.002-.058-.012-.126-.009-.067-.063-.352-.053-.285-.08-.467-.027-.183-.068-.451-.041-.268-.109-.537-.069-.27-.131-.669t-.078-.609q-.016-.209-.021-.337-.005-.127-.008-.267-.003-.141.008-.442.012-.302.025-.462.014-.159.029-.324.015-.165.033-.312.018-.147.04-.276.022-.129.042-.216.02-.086.045-.187.024-.101.043-.174.018-.072.038-.168.021-.096.124-.399.103-.303.182-.485.079-.183.147-.322.067-.14.205-.444.139-.304.204-.457.065-.154.201-.425.136-.272.239-.444.102-.172.165-.27.063-.098.156-.253t.198-.345q.106-.19.167-.331.061-.141.092-.278.031-.137.04-.201.009-.064.018-.13.008-.065-.003-.222-.01-.157-.027-.237-.018-.08-.035-.133-.016-.053-.028-.089-.011-.037-.019-.066-.009-.029-.033-.09-.013-.018-.031-.052-.018-.034-.029-.051-.012-.016-.035-.038l-.053-.051q-.001-.004-.084-.037"/>
    <path fill="#b2afcf" stroke="#b2afcf" stroke-width=".5" d="M278.716 759.405q-.03.026-.071.068-.041.043-.125.196-.085.153-.129.271-.044.117-.064.184-.02.066-.042.266-.021.199-.012.332.01.133.034.217.024.084.087.196.062.113.092.149.031.036.103.07.073.033.132.045.06.012.095.017.036.005.1.005t.157-.025q.094-.025.37-.145t.519-.226q.243-.107.388-.15.145-.044.216-.059.071-.015.137-.026.066-.01.304-.035t.371-.019q.133.006.225.025.093.019.193.064.099.045.276.124.178.079.333.167.155.088.309.161.154.073.234.101.079.028.205.1.125.073.288.181.162.108.259.188.098.08.137.122.04.042.119.135.08.093.159.196.078.102.164.253.086.151.165.369.079.218.153.533.075.316.115.664.041.348.062.528.021.179.039.286.018.106.048.334.031.227.04.387.01.16.011.37 0 .209-.001.367t-.018.522q-.016.364-.005.606.012.242.078.386.05.01.139-.062.09-.072.174-.186.084-.114.243-.388.159-.275.244-.43.085-.155.131-.24.046-.084.079-.152.033-.068.074-.207.042-.14.095-.362.053-.222.082-.379.03-.157.067-.477.037-.32.046-.473.009-.154-.015-.369-.025-.214-.07-.417-.045-.202-.073-.289-.027-.086-.107-.313-.079-.228-.136-.381-.058-.154-.091-.23-.033-.076-.093-.172-.061-.096-.112-.187-.05-.09-.085-.167-.034-.077-.105-.216-.072-.139-.106-.201-.035-.063-.103-.165-.068-.102-.162-.282-.093-.179-.15-.298-.057-.119-.103-.204-.047-.084-.117-.172-.071-.088-.181-.247-.109-.159-.172-.25-.063-.091-.169-.173-.105-.082-.181-.129-.075-.047-.176-.122l-.175-.127q-.074-.054-.187-.106-.114-.052-.242-.119-.129-.066-.196-.106-.067-.039-.148-.066-.082-.026-.168-.05-.087-.023-.139-.04-.052-.017-.069-.022-.017-.006-.066-.027-.05-.022-.233-.071-.183-.049-.286-.066-.103-.017-.221-.045-.117-.028-.243-.038l-.1.02"/>
    <path fill="#b2afcf" stroke="#b2afcf" stroke-width=".5" d="M285.156 767.26q-.01.01-.028.03-.018.019-.035.05-.018.031-.026.051-.008.021-.029.099l-.056.196q-.034.119-.095.369-.061.251-.1.482-.039.231-.076.376-.036.145-.065.219-.028.075-.057.142-.028.067-.057.135t-.048.114q-.018.045-.176.396-.158.351-.219.455-.061.105-.186.31-.125.206-.263.417-.137.211-.226.35-.09.14-.191.273t-.192.23q-.091.097-.179.189-.089.093-.149.151-.06.058-.134.124-.075.066-.199.169-.124.103-.201.161-.076.058-.154.104-.077.046-.155.074-.078.029-.12.04-.042.012-.195.067-.153.056-.249.086-.096.03-.231.044-.134.014-.374.001-.239-.014-.476-.035-.237-.02-.486-.059-.248-.039-.371-.064t-.329-.129q-.206-.103-.316-.167-.109-.064-.23-.134-.12-.07-.244-.148-.125-.078-.187-.121-.063-.044-.275-.172-.212-.128-.366-.23-.153-.102-.243-.179-.09-.076-.169-.139-.08-.063-.141-.114-.061-.051-.107-.099-.045-.048-.071-.073-.026-.025-.054-.05t-.048-.037q-.019-.011-.13-.098-.111-.087-.166-.115-.055-.029-.108-.021-.007-.001-.051.23-.043.231-.017.508.026.277.177.705.151.429.272.659.12.23.295.438t.278.308q.104.1.266.251.162.151.214.199.052.048.224.175.173.126.413.236.239.11.404.162.164.052.388.102.225.049.347.067.122.018.499.061.376.043.623.056.246.013.557-.038.312-.051.514-.099.202-.048.317-.068.115-.021.285-.062.17-.04.331-.112.162-.072.411-.267.249-.195.398-.324.149-.129.214-.181.064-.051.247-.22.182-.17.385-.435.203-.266.303-.414.099-.148.219-.317.119-.169.262-.418.142-.25.262-.573.12-.323.211-.554.091-.231.189-.452.097-.221.19-.464.093-.244.146-.397.053-.154.102-.3.05-.147.108-.338.059-.192.098-.427.04-.235.108-.53.067-.295.105-.458.038-.162.04-.35.002-.187-.002-.51l-.008-.51q-.003-.188-.011-.309t-.01-.253q-.003-.132-.046-.474-.043-.342-.134-.714-.143.336-.285.672t-.285.673-.285.673q-.143.336-.286.673Z"/>
    <path fill="none" stroke="#381d1d" stroke-width="1.667" d="m206.458 766.722 82.384-.249-40.231 91.506-87.224-.655 44.983-90.543"/>
    <path fill="none" stroke="#381d1d" stroke-width="1.692" d="m288.457 769.487 5.219-.029v126.664h-87.835l.024-38.223"/>
    <path fill="none" stroke="#381d1d" stroke-width=".982" d="M218.939 767.244q-.017.092-.035.184-.019.092-.039.183t-.041.182q-.021.091-.044.182-.023.09-.047.18t-.05.18q-.026.089-.053.178t-.056.177q-.028.088-.058.175-.03.087-.061.174-.031.086-.064.172t-.066.171q-.034.085-.07.169-.035.084-.072.167-.036.083-.074.165t-.077.163q-.039.081-.079.161-.041.08-.082.159-.042.079-.085.156-.042.078-.086.155-.044.076-.089.151-.046.076-.092.15t-.093.147l-.096.144q-.049.071-.098.141-.05.07-.1.139-.051.068-.102.135-.052.067-.104.133-.053.066-.107.13-.053.064-.107.126-.055.063-.11.124-.056.061-.112.12-.056.06-.113.117-.057.058-.115.114t-.116.111q-.059.054-.119.107-.059.052-.119.103t-.121.1q-.061.049-.122.097-.062.047-.124.092-.062.046-.125.089-.063.044-.126.086-.063.041-.127.081t-.128.078q-.065.038-.129.074-.065.036-.13.07-.066.034-.131.066-.066.032-.132.062t-.132.058q-.067.028-.133.054-.067.026-.134.05-.067.024-.134.046t-.135.042q-.067.019-.135.037-.067.018-.135.034-.068.015-.135.029-.068.014-.136.025-.068.012-.136.021-.068.01-.135.017-.068.008-.136.013-.068.005-.136.008-.067.003-.135.004t-.135 0q-.068-.001-.135-.004t-.134-.008q-.067-.006-.134-.013-.067-.008-.134-.017-.066-.01-.133-.021-.066-.012-.132-.025-.066-.014-.131-.03-.066-.016-.131-.034-.065-.017-.129-.037-.065-.02-.129-.042-.065-.022-.128-.046-.064-.024-.127-.05-.063-.026-.126-.054-.062-.029-.124-.059-.062-.03-.123-.062t-.122-.066q-.061-.034-.121-.07-.059-.036-.119-.074-.059-.038-.117-.078-.058-.04-.116-.081-.058-.042-.114-.086-.057-.043-.113-.089-.056-.045-.111-.093-.055-.047-.109-.096t-.107-.1q-.054-.051-.106-.104-.052-.052-.103-.107-.051-.054-.102-.11-.05-.056-.099-.114t-.097-.117q-.048-.06-.095-.121t-.093-.123q-.046-.063-.091-.127-.044-.064-.088-.13-.043-.066-.086-.133-.042-.067-.083-.136-.041-.068-.081-.138t-.079-.142q-.039-.071-.076-.144-.037-.072-.074-.147-.036-.074-.071-.149-.034-.075-.068-.152-.033-.076-.065-.154-.033-.078-.063-.157-.031-.078-.061-.159-.029-.079-.057-.161-.028-.081-.055-.163-.026-.082-.051-.165-.026-.083-.049-.167-.024-.084-.046-.169-.023-.085-.044-.171-.02-.085-.04-.172-.019-.087-.037-.174t-.035-.175q-.016-.088-.031-.177t-.028-.178q-.014-.09-.026-.18-.012-.09-.022-.18-.011-.091-.019-.182-.009-.091-.017-.182-.007-.092-.013-.183-.006-.092-.01-.184-.004-.093-.007-.185-.003-.093-.004-.186-.002-.092-.001-.185 0-.093.002-.187.001-.093.005-.186.003-.093.008-.187.005-.093.011-.186.007-.094.015-.187.008-.094.017-.187.009-.093.02-.186.011-.093.024-.186.012-.093.026-.186.014-.093.03-.186.015-.092.032-.184t.036-.184q.018-.092.038-.184.02-.091.041-.182l.044-.182q.023-.09.047-.18.025-.09.05-.179.026-.09.053-.179.027-.088.056-.176.028-.088.058-.176.03-.087.061-.174l.064-.172q.033-.086.067-.171.034-.084.069-.169.035-.083.072-.167.036-.083.074-.165t.077-.163q.039-.081.08-.161.04-.08.082-.158.041-.079.084-.157.043-.078.087-.154.044-.077.089-.152t.091-.149q.046-.074.094-.147.047-.073.095-.144.049-.072.098-.142.05-.07.1-.138.051-.069.103-.136.051-.067.104-.133.052-.065.106-.129.053-.064.108-.127.054-.063.109-.124.056-.061.112-.12t.113-.117q.057-.058.115-.114t.117-.11q.058-.055.118-.107.059-.053.119-.104t.121-.1q.061-.049.123-.096.061-.047.123-.093.062-.045.125-.089.063-.043.126-.085.063-.042.127-.082t.128-.077q.065-.038.13-.074.064-.036.13-.07.065-.034.131-.066.065-.032.131-.062t.133-.058q.066-.028.133-.054.066-.026.133-.05.067-.024.134-.046.068-.022.135-.042.067-.02.135-.038.067-.018.135-.033.068-.016.136-.03.067-.013.135-.025.068-.011.136-.021.068-.009.136-.017.067-.007.135-.012.068-.006.136-.009.068-.003.135-.004.068-.001.135 0 .068.001.135.005.067.003.135.008.067.005.134.013.066.007.133.017.067.009.133.021.066.011.132.025.066.014.131.029.066.016.131.034.065.018.13.038.064.02.129.042.064.022.127.046.064.024.127.05.063.026.126.054.062.028.124.058.062.03.123.062.062.032.122.066.061.034.121.07.06.036.119.074t.117.078q.059.04.116.082.058.042.115.085.056.044.112.089.056.046.111.093t.109.097q.054.049.108.1.053.05.105.103.052.053.103.107.052.055.102.111.05.056.099.114.049.057.097.117.048.059.095.12t.093.124q.046.062.091.127.045.064.088.129.044.066.086.133l.084.136q.041.069.081.139t.078.141q.039.071.076.144.038.073.074.147t.071.149q.035.076.068.152.033.077.066.155.032.077.063.156.03.079.06.159.029.08.057.161t.055.163q.026.082.052.165.025.083.049.167.023.085.046.169.022.085.043.171.021.086.04.172.019.087.037.174.018.088.035.176.016.088.031.177.015.088.029.178.013.089.025.179.012.09.022.181.011.09.02.181.009.091.016.183.007.091.013.183.006.092.01.184.005.092.007.185.003.092.005.185.001.093.001.186-.001.093-.003.186-.001.093-.005.187-.003.093-.008.186-.005.094-.011.187l-.014.187q-.008.093-.018.186-.009.094-.02.187-.011.093-.024.186-.012.093-.026.186-.014.093-.03.185-.015.093-.032.185Z"/>
    <path fill="none" stroke="#381d1d" stroke-width=".56" d="M217.248 767.097q-.012.07-.025.139l-.028.138q-.015.069-.03.137-.016.069-.032.137-.017.068-.035.136-.017.067-.036.134-.019.068-.038.134-.02.067-.041.134-.02.066-.042.132-.021.065-.044.13l-.046.13q-.024.064-.049.128-.024.064-.05.127-.025.063-.052.126-.026.062-.053.124-.028.062-.056.123t-.057.121q-.03.06-.06.119t-.061.118q-.03.058-.062.116-.032.057-.065.114-.032.056-.065.112-.034.056-.068.11-.034.055-.069.109-.035.053-.071.106l-.072.104-.074.102q-.037.05-.075.1-.038.049-.076.097-.039.048-.078.095t-.079.093q-.04.046-.081.09-.04.045-.081.088-.041.044-.083.086-.042.042-.084.083-.042.04-.085.08-.043.039-.086.077-.044.039-.088.075-.043.037-.088.073-.044.035-.089.069-.044.034-.09.067-.045.033-.09.064-.046.031-.092.061t-.092.058q-.047.029-.093.056l-.094.052q-.047.025-.094.049t-.095.047q-.047.022-.095.043-.048.021-.096.041-.048.019-.096.037t-.097.034q-.048.016-.096.031-.049.015-.098.028-.048.013-.097.025-.048.012-.097.022-.049.01-.098.019-.049.008-.097.015-.049.007-.098.012-.049.006-.098.01l-.097.006q-.049.002-.097.002-.049.001-.098 0-.048-.001-.096-.004-.049-.002-.097-.006t-.096-.01q-.048-.006-.096-.013l-.096-.016q-.047-.009-.095-.02-.047-.01-.094-.022-.047-.012-.094-.026-.047-.014-.093-.029-.047-.015-.093-.032-.046-.016-.091-.035-.046-.018-.091-.038-.046-.019-.091-.041-.045-.021-.089-.044-.045-.023-.088-.047-.044-.024-.088-.05-.043-.026-.086-.053t-.086-.056q-.042-.029-.084-.059-.042-.03-.083-.062-.042-.031-.082-.064-.041-.033-.081-.068-.04-.034-.08-.07-.039-.036-.078-.073t-.077-.075q-.038-.039-.076-.079-.037-.039-.074-.08l-.072-.084q-.036-.042-.072-.086-.035-.044-.069-.088-.035-.045-.068-.091-.034-.046-.067-.094-.033-.047-.065-.095-.032-.049-.063-.098-.031-.05-.062-.101-.03-.05-.059-.102-.03-.052-.058-.105-.029-.052-.057-.106-.027-.054-.054-.109t-.053-.111l-.05-.112q-.025-.057-.049-.115t-.047-.116q-.023-.059-.045-.118-.022-.06-.043-.12-.021-.061-.041-.122t-.039-.123q-.019-.062-.037-.124-.018-.063-.035-.126-.016-.063-.032-.127-.016-.065-.031-.129-.015-.065-.029-.13-.014-.065-.026-.131-.013-.066-.025-.132l-.022-.133-.02-.135-.018-.135-.016-.136q-.007-.068-.013-.137-.006-.068-.011-.137-.006-.069-.01-.138t-.007-.139q-.003-.069-.004-.139-.002-.07-.003-.14-.001-.069 0-.139 0-.07.002-.141.001-.07.004-.14.002-.07.006-.141.003-.07.008-.14t.011-.141q.006-.07.013-.14.007-.07.015-.141.008-.07.017-.14.009-.07.019-.14l.022-.139q.011-.07.023-.139l.026-.139.028-.138q.015-.068.03-.137l.032-.136q.017-.069.035-.136.017-.068.036-.135.018-.067.038-.134t.04-.133q.021-.066.043-.132.021-.066.044-.131.023-.065.046-.129.024-.065.048-.129.025-.064.05-.127.026-.063.052-.125.027-.063.054-.125l.056-.122q.028-.061.057-.121t.059-.12q.031-.059.061-.117.031-.059.063-.116.032-.058.064-.114.033-.057.066-.113l.068-.11q.034-.054.069-.108t.071-.106q.036-.053.072-.104.036-.052.074-.102.037-.051.075-.1l.076-.098q.039-.048.078-.095t.079-.092q.04-.046.081-.091.04-.044.081-.088.041-.043.083-.085.042-.042.084-.083t.085-.08q.043-.04.086-.078l.087-.075q.044-.037.088-.072.045-.036.09-.07.044-.034.089-.066.046-.033.091-.064.046-.032.092-.061.046-.03.092-.059.046-.028.093-.055t.094-.052q.047-.026.094-.05.047-.024.095-.046.047-.023.095-.044l.096-.04q.048-.019.096-.037t.096-.034q.049-.017.097-.032.049-.014.097-.028.049-.013.098-.025.048-.011.097-.021.049-.01.098-.019.048-.009.097-.015.049-.007.098-.013.049-.005.097-.009.049-.004.098-.006.048-.002.097-.003.049 0 .097.001.049.001.097.003.049.003.097.007t.096.01q.048.005.096.013.048.007.095.016.048.009.095.019.048.011.095.023t.094.026q.046.013.093.028l.092.032q.046.017.092.035.046.018.091.038t.09.041l.09.044q.044.023.088.047l.088.05q.043.026.086.054.043.027.086.056.042.028.084.058.042.031.083.062.041.032.082.065t.081.067l.08.07q.039.036.078.073t.077.076q.038.038.075.078.038.04.074.081.037.041.073.083.036.043.071.086.036.044.07.089.034.045.068.091t.067.093q.032.047.064.096.033.048.064.098.031.049.061.1.031.051.06.102.029.052.058.105t.056.107q.028.054.055.108.026.055.052.111t.051.113q.025.057.049.114.024.058.047.117.023.058.045.118.022.059.043.12.021.06.041.121t.038.123q.019.062.037.125.018.062.035.125.017.064.033.128t.031.128q.015.065.028.13.014.066.027.131.013.066.024.133.012.066.023.133l.02.134.018.135q.008.068.015.136.008.068.014.137t.011.137q.005.069.009.138.004.07.007.139.003.07.005.139.002.07.003.14v.14q0 .07-.002.14-.001.07-.004.14-.002.071-.006.141l-.008.141q-.005.07-.011.14-.006.07-.013.141-.007.07-.015.14t-.017.14q-.009.07-.019.14l-.022.139q-.011.07-.024.139Z"/>
    <path fill="none" stroke="#381d1d" stroke-width=".982" d="M232.293 767.762q-.017.092-.036.184-.018.091-.038.183-.02.091-.041.182l-.044.182q-.023.09-.048.18-.024.09-.05.18-.025.089-.052.178-.027.089-.056.177-.028.088-.058.175-.03.087-.061.174l-.064.172q-.033.086-.067.171-.034.085-.069.169t-.072.167q-.036.083-.074.165t-.077.163q-.039.081-.08.161-.04.08-.082.159-.041.079-.084.156-.043.078-.087.155-.044.076-.089.151-.045.076-.091.15t-.094.146q-.047.073-.096.144-.048.072-.098.142-.049.07-.1.138-.05.069-.102.136-.051.067-.104.133-.052.066-.106.13-.053.064-.108.126-.054.063-.11.124-.055.061-.111.12-.056.06-.113.117-.057.058-.115.114t-.117.111q-.058.054-.118.107-.059.052-.119.103-.061.051-.121.1-.061.049-.123.096-.061.048-.123.093-.062.046-.125.089-.063.044-.126.085-.064.042-.127.082-.064.04-.129.078-.064.038-.129.074-.064.036-.13.07-.065.034-.131.066-.065.032-.131.062t-.133.058q-.066.028-.133.054-.066.026-.133.05-.067.024-.135.046-.067.022-.134.041-.067.02-.135.038t-.135.034q-.068.015-.136.029-.067.014-.135.025-.068.012-.136.021-.068.01-.136.017-.068.007-.135.013-.068.005-.136.008t-.135.004q-.068.001-.135 0-.068-.001-.135-.004-.068-.003-.135-.009-.067-.005-.134-.012-.066-.008-.133-.017-.067-.01-.133-.021-.066-.012-.132-.026-.066-.013-.131-.029-.066-.016-.131-.034-.065-.018-.13-.037-.064-.02-.129-.042-.064-.022-.127-.046-.064-.024-.127-.05-.063-.026-.126-.055-.062-.028-.124-.058-.062-.03-.124-.062-.061-.032-.121-.066-.061-.034-.121-.07-.06-.036-.119-.074t-.117-.078q-.059-.04-.116-.081-.058-.042-.115-.086-.057-.043-.112-.089-.056-.045-.111-.093-.055-.047-.109-.096-.055-.049-.108-.1-.053-.051-.105-.104-.052-.052-.104-.107-.051-.054-.101-.11-.05-.056-.099-.114t-.097-.117q-.049-.06-.096-.121t-.092-.123q-.046-.063-.091-.127t-.088-.13q-.044-.066-.086-.133-.043-.067-.084-.136-.041-.068-.081-.138t-.078-.142q-.039-.071-.076-.144-.038-.073-.074-.147t-.071-.149q-.035-.075-.068-.152-.034-.076-.066-.154t-.063-.157q-.03-.079-.06-.159-.029-.08-.057-.161t-.055-.163q-.027-.082-.052-.165-.025-.083-.049-.167-.023-.084-.046-.169-.022-.085-.043-.171-.021-.085-.04-.172-.02-.087-.038-.174l-.034-.175q-.016-.088-.031-.177t-.029-.178q-.013-.09-.025-.18-.012-.09-.022-.18-.011-.091-.02-.182-.009-.091-.016-.182-.007-.092-.013-.184-.006-.091-.011-.184-.004-.092-.007-.184l-.004-.186q-.001-.093-.001-.185l.002-.187q.002-.093.005-.186.004-.093.009-.187.005-.093.011-.186.006-.094.014-.187.008-.094.018-.187.009-.093.02-.186.011-.094.023-.187.013-.093.027-.185.014-.093.029-.186.016-.092.033-.184.017-.093.035-.184.019-.092.039-.184.019-.091.041-.182.021-.091.044-.182.023-.09.047-.18t.05-.18q.026-.089.053-.178.027-.088.055-.176.029-.088.059-.176.03-.087.061-.174.031-.086.064-.172.032-.086.066-.171.034-.085.07-.169.035-.084.071-.167.037-.083.075-.165t.077-.163q.039-.081.079-.161.041-.08.082-.159.042-.078.085-.156.042-.078.086-.154.044-.077.089-.152t.092-.149q.046-.074.093-.147.048-.073.096-.144.049-.072.098-.142.05-.07.1-.138.051-.069.102-.136.052-.067.104-.133.053-.065.106-.129.054-.065.108-.127.055-.063.11-.124t.112-.12q.056-.059.113-.117.057-.058.115-.114t.116-.11q.059-.055.118-.107.06-.053.12-.104t.121-.1q.061-.049.122-.096.062-.047.124-.093.062-.045.125-.089.062-.044.126-.085.063-.042.127-.082t.128-.077q.064-.038.129-.074t.13-.07q.066-.034.131-.066.066-.032.132-.062t.132-.058q.067-.028.133-.054.067-.027.134-.05.067-.024.134-.046t.135-.042q.067-.02.135-.038.067-.018.135-.033.067-.016.135-.03.068-.013.136-.025.068-.011.136-.021.067-.009.135-.017.068-.007.136-.012.068-.006.135-.009.068-.003.136-.004t.135 0q.067.001.135.004.067.004.134.009.067.005.134.013.067.007.134.016.066.01.132.022.067.011.133.025.065.014.131.029.066.016.131.034.065.018.129.038.065.02.129.042.064.022.128.046t.127.05q.063.026.125.054.063.028.125.058.062.03.123.062t.122.066q.061.034.12.07.06.036.119.074.06.038.118.078.058.04.116.082.058.041.114.085.057.044.113.089.056.046.111.093t.109.096q.054.05.107.101.053.05.106.103.052.053.103.107.051.055.101.111.051.056.1.113.049.058.097.118.048.059.095.12t.093.124q.046.062.09.127.045.064.089.129.043.066.086.133.042.067.083.136t.081.139q.04.07.079.141.039.071.076.144t.073.147q.037.074.071.149.035.076.069.152.033.077.065.154.032.078.063.157t.06.159q.03.08.058.161.028.081.054.163.027.082.052.165.025.083.049.167t.046.169q.023.085.043.171.021.086.041.172.019.087.037.174.018.088.034.176.017.088.032.177.015.088.028.178.014.089.026.179.012.09.022.181.01.09.019.181t.017.183q.007.091.013.183.006.092.01.184t.007.185q.003.092.004.185t.001.186q0 .093-.002.186t-.005.186q-.003.094-.008.187-.005.094-.011.187-.007.093-.015.187-.008.093-.017.186-.01.094-.021.187-.01.093-.023.186-.012.093-.026.186-.014.092-.03.185-.015.092-.032.185Z"/>
    <path fill="none" stroke="#381d1d" stroke-width=".56" d="M230.602 767.615q-.012.07-.026.139-.013.069-.028.138-.014.069-.03.137-.015.069-.032.137-.016.068-.034.135-.018.068-.036.135-.019.068-.039.134-.019.067-.04.133-.021.067-.042.132-.022.066-.044.131-.023.065-.047.13-.023.064-.048.128-.024.064-.05.127-.025.063-.052.126-.026.062-.054.124-.027.062-.055.123-.029.06-.058.121-.029.06-.059.119-.03.059-.061.118-.031.058-.063.116-.031.057-.064.114-.032.056-.066.112-.033.056-.067.11-.035.055-.07.108-.035.054-.07.107l-.072.104-.074.102q-.037.05-.075.1-.038.049-.077.097-.038.048-.078.095-.039.047-.079.093t-.08.09q-.041.045-.082.088t-.083.086q-.041.042-.084.082-.042.041-.085.081-.042.039-.086.077-.043.039-.087.075-.044.037-.088.073-.044.035-.089.069t-.09.067q-.045.033-.091.064-.045.031-.091.061t-.093.058q-.046.028-.093.055-.046.027-.093.053-.047.025-.095.049-.047.024-.094.047-.048.022-.096.043-.047.021-.095.04-.048.02-.097.038-.048.018-.096.034-.048.016-.097.031-.048.015-.097.028-.049.013-.097.025-.049.012-.098.022-.048.01-.097.018-.049.009-.098.016-.049.007-.097.012-.049.006-.098.009-.049.004-.097.006-.049.003-.098.003-.048.001-.097 0-.048-.001-.097-.004-.048-.002-.096-.006l-.097-.01q-.048-.006-.096-.013-.047-.008-.095-.017-.048-.009-.095-.019t-.094-.022q-.047-.012-.094-.026-.047-.014-.093-.029-.047-.015-.093-.032-.046-.016-.092-.035-.046-.018-.091-.038t-.09-.041q-.045-.021-.089-.044-.045-.023-.089-.047t-.087-.05q-.044-.026-.087-.053t-.085-.056q-.043-.029-.085-.059-.041-.03-.083-.062-.041-.031-.082-.064t-.081-.068q-.04-.034-.079-.07-.04-.036-.079-.073-.038-.037-.076-.075-.039-.039-.076-.079t-.074-.081q-.037-.041-.073-.083t-.071-.086q-.035-.044-.07-.089-.034-.044-.068-.09l-.066-.094q-.033-.047-.065-.095-.032-.049-.063-.099-.032-.049-.062-.1-.03-.05-.06-.102-.029-.052-.058-.105l-.056-.106q-.028-.054-.054-.109-.027-.055-.053-.111t-.051-.113q-.025-.056-.048-.114-.024-.058-.047-.116-.023-.059-.045-.119-.022-.059-.043-.119-.021-.061-.041-.122t-.039-.123q-.019-.062-.037-.124-.018-.063-.035-.126-.017-.064-.033-.128t-.03-.128q-.015-.065-.029-.13-.014-.065-.027-.131l-.024-.132q-.012-.067-.022-.134-.011-.066-.02-.134-.01-.067-.018-.135-.009-.068-.016-.136-.007-.068-.013-.137-.007-.068-.012-.137t-.009-.138q-.004-.069-.007-.139-.003-.069-.005-.139t-.002-.14q-.001-.07-.001-.14l.002-.14.004-.14.006-.141q.004-.07.009-.14.005-.071.011-.141.005-.07.012-.14.007-.071.015-.141.008-.07.018-.14.009-.07.019-.14t.021-.139l.024-.139q.012-.07.026-.139.013-.069.028-.138.014-.068.03-.137.015-.068.032-.136.017-.069.034-.136.018-.068.036-.135.019-.068.039-.134.019-.067.04-.133l.042-.132q.022-.066.045-.131.022-.065.046-.13.023-.064.048-.128t.05-.127l.052-.126q.026-.062.054-.124.027-.061.055-.122.029-.061.058-.121.029-.061.059-.12.03-.059.061-.118.031-.058.063-.115.031-.058.064-.114.033-.057.066-.113.033-.055.068-.11.034-.055.069-.108.035-.054.07-.106.036-.053.073-.105.036-.051.073-.101.037-.051.075-.1.038-.05.077-.098.038-.048.078-.095.039-.047.079-.093l.08-.09q.041-.045.082-.088t.083-.085q.041-.042.084-.083.042-.041.085-.08.043-.04.086-.078t.087-.075q.044-.037.088-.072.044-.036.089-.07.045-.034.09-.067.045-.032.091-.063.045-.032.091-.062.046-.029.093-.058.046-.028.093-.055.046-.027.093-.052.047-.026.095-.05.047-.024.094-.046.048-.023.096-.044.047-.021.095-.04t.097-.037q.048-.018.096-.035.048-.016.097-.031.048-.014.097-.028.049-.013.097-.025.049-.011.098-.021.048-.011.097-.019.049-.009.098-.016l.097-.012q.049-.005.098-.009.049-.004.097-.006.049-.002.098-.003h.097q.048.001.097.004.048.003.096.007.049.004.097.01.048.005.096.013.047.007.095.016.048.009.095.019.047.011.094.023t.094.025q.047.014.093.029.047.015.093.032t.092.035q.045.018.091.038.045.02.09.041t.089.044q.045.023.089.047.044.025.087.05.044.026.087.054.043.027.085.055.043.029.085.059.041.03.083.062.041.032.082.065t.081.067q.04.034.079.07.04.036.078.073.039.037.077.076.039.038.076.078t.074.081q.037.041.073.083.036.043.071.086.035.044.07.089.034.045.068.091.033.046.066.093t.065.096q.032.048.063.098.032.049.062.1l.06.102q.029.052.058.105.028.053.056.107.028.053.054.108.027.055.053.111t.051.113l.048.114q.024.058.047.117.023.058.045.118.022.059.043.12.021.06.041.121t.039.123q.019.062.037.124.018.063.035.126.017.064.033.128t.03.128q.015.065.029.13.014.065.027.131l.024.132q.012.067.022.134.011.067.02.134.01.067.018.135.009.068.016.136l.014.137q.006.068.011.137.005.069.009.138.004.07.007.139t.005.139q.002.07.002.14.001.07.001.14l-.002.14-.004.14-.006.141q-.004.07-.009.14l-.01.141q-.006.07-.013.141-.007.07-.015.14t-.017.14l-.02.14q-.01.07-.021.139l-.024.139Z"/>
    <path fill="none" stroke="#381d1d" stroke-width=".982" d="M245.767 767.751q-.017.092-.036.184-.018.092-.038.183-.02.092-.041.183-.022.091-.045.181-.022.091-.047.181-.024.09-.05.179-.025.089-.052.178-.028.089-.056.177-.029.088-.058.175-.03.088-.062.174-.031.087-.063.173-.033.085-.067.17t-.069.169q-.035.084-.072.167-.037.083-.074.165-.038.082-.077.163-.04.081-.08.161t-.082.159q-.041.079-.084.157-.043.077-.087.154-.044.076-.089.152-.045.075-.091.149-.047.074-.094.147-.047.072-.096.144-.048.071-.098.141-.049.07-.1.139-.05.068-.102.135-.051.068-.104.133-.053.066-.106.13-.054.064-.108.127-.054.062-.11.123-.055.061-.111.121-.056.059-.114.117-.057.057-.114.113-.058.057-.117.111-.059.054-.118.107t-.12.103q-.06.051-.121.1-.06.049-.122.097-.061.047-.124.092-.062.046-.124.09-.063.043-.126.085-.064.041-.128.081-.063.04-.128.078-.064.038-.129.074t-.13.07q-.065.034-.131.066t-.132.062q-.066.03-.132.058-.066.028-.133.054t-.134.05q-.067.024-.134.046t-.134.042q-.068.02-.135.037-.068.018-.135.034-.068.016-.136.029-.068.014-.135.026-.068.011-.136.02-.068.01-.136.017-.068.008-.136.013-.067.005-.135.008t-.136.005q-.067.001-.135-.001-.067-.001-.134-.004-.068-.003-.135-.008-.067-.006-.134-.013-.067-.007-.133-.017-.067-.009-.133-.021-.066-.012-.132-.025-.066-.014-.132-.03-.065-.016-.13-.033-.065-.018-.13-.038t-.129-.042q-.064-.022-.128-.046-.063-.024-.126-.05-.064-.026-.126-.054-.063-.028-.125-.058-.061-.03-.123-.063-.061-.032-.122-.066-.06-.034-.12-.07-.06-.036-.119-.074t-.118-.077q-.058-.04-.116-.082-.057-.042-.114-.085-.057-.044-.113-.09-.056-.045-.111-.092-.055-.048-.109-.097t-.107-.1q-.053-.051-.105-.103-.053-.053-.104-.108-.051-.054-.101-.11-.05-.056-.099-.114-.05-.058-.098-.117-.048-.059-.095-.121-.047-.061-.093-.123-.045-.063-.09-.127t-.088-.13q-.044-.065-.086-.133-.043-.067-.084-.135-.041-.069-.081-.139t-.079-.141q-.038-.072-.076-.145-.037-.072-.073-.146t-.071-.15q-.035-.075-.068-.152-.034-.076-.066-.154t-.063-.156q-.031-.079-.06-.159-.029-.08-.057-.161t-.055-.164q-.027-.082-.052-.165-.025-.083-.049-.167t-.046-.169q-.022-.085-.043-.17-.021-.086-.04-.173-.02-.086-.038-.174-.018-.087-.034-.175-.017-.088-.031-.177-.015-.089-.029-.178-.013-.089-.025-.179-.012-.09-.023-.181-.01-.09-.019-.181t-.016-.183q-.008-.091-.013-.183-.006-.092-.011-.184-.004-.093-.007-.185-.003-.093-.004-.185-.001-.093-.001-.186t.002-.186q.002-.094.005-.187.004-.093.009-.187.004-.093.011-.186.006-.094.014-.187t.017-.187q.01-.093.021-.186.011-.093.023-.186.013-.093.027-.186t.029-.185q.016-.093.033-.185t.035-.184q.018-.092.038-.183.02-.092.042-.183.021-.091.044-.181.023-.091.047-.181t.05-.179q.026-.09.053-.178.027-.089.055-.177.029-.088.059-.176.029-.087.061-.173.031-.087.064-.173.032-.085.066-.17t.069-.169q.036-.084.072-.167.037-.083.075-.165.037-.082.077-.164.039-.081.079-.16.04-.08.082-.159t.084-.157q.043-.078.087-.154.044-.077.089-.152t.092-.149q.046-.074.093-.147t.096-.144q.048-.071.098-.141.049-.07.1-.139.05-.068.102-.136.052-.067.104-.132.053-.066.106-.13.054-.064.108-.127.055-.062.11-.123t.111-.121q.057-.059.114-.117.057-.058.115-.114.057-.056.116-.11.059-.054.118-.107.06-.053.12-.104.06-.05.121-.1.061-.049.122-.096.062-.047.124-.093.062-.045.125-.089.062-.043.126-.085.063-.042.127-.081.064-.04.128-.078t.129-.074q.065-.036.13-.07.065-.034.131-.066t.132-.062q.066-.03.132-.058.066-.028.133-.054t.134-.05q.067-.024.134-.046t.134-.042q.068-.02.135-.038.068-.017.136-.033.067-.016.135-.029.068-.014.136-.026.067-.011.135-.021.068-.009.136-.017.068-.007.136-.012t.135-.009q.068-.003.136-.004.067-.001.135 0 .067.001.135.005.067.003.134.008t.134.013q.067.007.133.017.067.009.133.021.066.012.132.025.066.014.132.03.065.015.13.033.066.018.13.038.065.02.129.042.064.022.128.046t.127.05q.063.026.125.054.063.028.125.058.062.03.123.062t.122.067q.06.034.12.07.06.036.119.074t.118.077q.058.04.116.082.057.042.114.085.057.044.113.089.056.046.111.093.055.048.109.097t.107.1q.053.051.105.103.053.053.104.107.051.055.101.111.05.056.1.114.049.058.097.117.048.059.095.121.047.06.093.123t.09.127q.045.064.089.13.043.065.085.133.043.067.084.135.041.069.081.139t.079.141l.076.144q.037.073.073.147t.071.15q.035.075.068.152.034.076.066.154.032.077.063.156t.06.159q.03.08.058.161.028.081.054.163.027.082.052.166.025.083.049.167t.046.169q.022.085.043.17.021.086.041.173.019.086.037.174.018.087.034.175.017.088.032.177t.028.178q.013.089.025.179.012.09.023.181.01.09.019.181t.016.183q.008.091.014.183l.01.184q.004.092.007.185.003.092.004.185t.001.186q0 .093-.002.186t-.005.187l-.008.186q-.005.094-.012.187-.006.094-.014.187t-.017.187q-.01.093-.021.186-.011.093-.023.186-.013.093-.027.186t-.029.185l-.032.185Z"/>
    <path fill="none" stroke="#381d1d" stroke-width=".56" d="m244.076 767.605-.026.138q-.013.069-.028.138-.014.069-.03.137-.015.069-.032.137l-.034.136q-.018.067-.036.135-.019.067-.039.134-.019.066-.04.133l-.042.132q-.022.065-.045.13-.022.066-.046.13-.023.065-.048.128-.025.064-.05.127-.026.064-.052.126-.026.063-.054.124-.027.062-.055.123-.029.061-.058.121t-.059.119q-.03.06-.061.118-.031.058-.063.116-.031.057-.064.114t-.066.112q-.033.056-.068.11-.034.055-.069.109l-.07.106q-.036.053-.073.104-.036.052-.073.102-.037.05-.075.1-.038.049-.077.097-.038.048-.078.095-.039.047-.079.093t-.08.091q-.041.044-.082.087-.041.044-.083.086-.041.042-.084.083-.042.04-.085.08l-.086.078q-.043.038-.087.075l-.088.072q-.044.035-.089.069t-.09.067q-.045.033-.091.064t-.092.061q-.045.03-.092.058-.046.029-.093.056-.046.027-.093.052-.047.026-.095.05l-.094.046q-.048.022-.096.043-.048.021-.096.041-.047.019-.096.037-.048.018-.096.034-.049.017-.097.031-.048.015-.097.028-.049.014-.097.025-.049.012-.098.022-.049.01-.097.019-.049.008-.098.015-.049.007-.098.013-.048.005-.097.009l-.098.006q-.048.002-.097.003-.049 0-.097-.001-.049-.001-.097-.003-.048-.003-.097-.007-.048-.004-.096-.01t-.096-.013q-.048-.007-.095-.016-.048-.009-.095-.02-.047-.01-.095-.022-.047-.012-.093-.026-.047-.013-.094-.029-.046-.015-.092-.031-.046-.017-.092-.035-.046-.019-.091-.038-.045-.02-.09-.042-.045-.021-.09-.044-.044-.022-.088-.047-.044-.024-.087-.05-.044-.026-.087-.053t-.085-.056q-.043-.029-.085-.059-.042-.03-.083-.061-.041-.032-.082-.065t-.081-.067q-.04-.035-.079-.071-.04-.035-.079-.073l-.077-.075q-.038-.039-.075-.078-.038-.04-.074-.081-.037-.041-.073-.084-.036-.042-.071-.086-.035-.043-.07-.088-.034-.045-.068-.091t-.066-.094q-.033-.047-.065-.095l-.064-.098q-.031-.05-.061-.1-.03-.051-.06-.103l-.058-.104q-.028-.053-.056-.107t-.055-.109q-.026-.055-.052-.111-.026-.055-.051-.112-.025-.057-.049-.115t-.046-.116q-.023-.059-.045-.118-.022-.06-.043-.12-.021-.06-.041-.121-.02-.062-.039-.123-.019-.062-.037-.125t-.035-.126q-.017-.063-.033-.127t-.031-.129l-.028-.13q-.014-.065-.027-.131l-.024-.132q-.012-.066-.022-.133-.011-.067-.02-.135-.01-.067-.018-.135-.009-.067-.016-.136l-.014-.136q-.006-.069-.011-.138-.005-.069-.009-.138-.004-.069-.007-.139-.003-.069-.005-.139-.002-.069-.002-.139-.001-.07-.001-.14l.002-.14q.001-.071.004-.141l.006-.14q.004-.071.009-.141l.01-.141q.006-.07.013-.14.007-.07.015-.14.008-.071.017-.14l.02-.14q.01-.07.021-.14l.024-.139q.012-.069.026-.138.013-.07.028-.138.014-.069.03-.138.015-.068.032-.136.016-.068.034-.136.018-.068.036-.135.019-.067.039-.134.019-.067.04-.133l.042-.132q.022-.066.044-.131.023-.065.047-.129.023-.065.048-.129.024-.063.05-.127.025-.063.052-.125.026-.063.054-.124.027-.062.055-.123.029-.061.058-.121t.059-.12q.03-.059.061-.117.031-.059.063-.116.031-.058.064-.114.032-.057.066-.112.033-.056.067-.111l.07-.108q.035-.054.07-.106.036-.053.072-.104.037-.052.074-.102.037-.051.075-.1.038-.049.077-.097.038-.049.078-.095.039-.047.079-.093t.08-.091l.082-.088q.041-.043.083-.085.041-.042.083-.083.043-.041.086-.08.042-.04.086-.078.043-.038.087-.075t.088-.072q.044-.035.089-.069.045-.035.09-.067.045-.033.091-.064.045-.031.091-.061t.093-.058q.046-.029.093-.056.046-.027.093-.052.047-.026.094-.05.048-.023.095-.046.048-.022.095-.043.048-.021.096-.041.048-.019.096-.037.049-.018.097-.034.048-.017.097-.031.048-.015.097-.028.048-.014.097-.025.049-.012.097-.022.049-.01.098-.019.049-.008.098-.015.048-.007.097-.013.049-.005.098-.009.049-.004.097-.006.049-.002.098-.003.048 0 .097.001.048.001.097.003.048.003.096.007t.097.01q.048.006.095.013.048.007.096.016.047.009.095.02.047.01.094.022.047.012.094.026.047.013.093.028.047.016.093.032.046.017.092.035.045.019.091.038.045.02.09.041.045.022.089.045.045.022.089.047.044.024.087.05.044.025.087.053.043.027.085.056.043.028.084.059.042.03.084.061.041.032.082.065.04.033.08.067.041.035.08.071.04.035.078.072.039.038.077.076t.076.078q.037.04.074.081t.073.084q.036.042.071.085.035.044.069.089.035.045.069.091.033.046.066.093.033.048.065.096t.063.098q.031.049.062.1.03.051.059.103.03.051.059.104.028.053.056.107.027.054.054.109t.053.11q.026.056.05.113.025.057.049.115.024.057.047.116.023.059.045.118.022.06.043.12.021.06.041.121t.039.123q.019.062.037.125.018.062.035.126.017.063.033.127.015.064.03.129.015.064.029.13.014.065.026.131.013.065.025.132l.022.133q.011.067.02.134.01.068.018.135l.016.136q.007.069.013.137.007.069.012.138.005.068.009.138.004.069.007.138.003.07.005.139.002.07.002.14.001.07.001.14l-.002.14-.004.141q-.003.07-.007.14-.003.07-.008.141-.005.07-.011.14-.005.071-.012.141-.007.07-.015.14t-.018.14q-.009.07-.019.14t-.022.14q-.011.069-.023.139Z"/>
    <path fill="none" stroke="#381d1d" stroke-width=".982" d="M259.482 767.997q-.017.092-.035.184-.019.092-.038.183-.02.092-.042.183-.021.091-.044.181-.023.091-.047.181t-.05.179q-.026.09-.053.178-.027.089-.055.177-.029.088-.059.175-.03.088-.061.174-.031.087-.064.173-.032.085-.066.17t-.069.169q-.036.084-.072.167-.037.083-.075.165t-.077.163q-.039.081-.079.161-.041.08-.082.159-.042.079-.084.157-.043.078-.087.154-.044.077-.089.152t-.092.149q-.046.074-.093.147-.048.073-.096.144-.049.071-.098.141-.05.07-.1.139l-.102.136q-.052.067-.104.132-.053.066-.106.13-.054.064-.108.127-.055.062-.11.123t-.112.121q-.056.059-.113.117-.057.058-.115.114t-.116.11q-.059.054-.118.107-.06.053-.12.104-.06.05-.121.1-.061.049-.122.096-.062.047-.124.093-.062.045-.125.089-.062.043-.126.085-.063.042-.127.081-.064.04-.128.078t-.129.074q-.065.036-.13.07-.065.034-.131.066t-.132.062q-.066.03-.132.058-.067.028-.133.054-.067.026-.134.05-.067.024-.134.046t-.135.042q-.067.02-.134.038-.068.017-.136.033-.067.016-.135.029-.068.014-.136.026-.068.011-.135.021-.068.009-.136.016-.068.008-.136.013-.068.005-.135.009-.068.003-.136.004-.067.001-.135 0-.067-.001-.135-.005-.067-.003-.134-.008t-.134-.013q-.067-.007-.134-.017-.066-.009-.132-.021-.067-.011-.133-.025-.065-.014-.131-.03-.065-.015-.131-.033-.065-.018-.129-.038-.065-.02-.129-.042-.064-.022-.128-.046t-.127-.05q-.063-.026-.125-.054-.063-.028-.125-.058-.062-.03-.123-.062t-.122-.067q-.06-.034-.12-.07-.06-.036-.119-.073-.06-.038-.118-.078-.058-.04-.116-.082-.057-.042-.114-.085-.057-.044-.113-.089-.056-.046-.111-.093-.055-.048-.109-.097t-.107-.1q-.053-.051-.106-.103-.052-.053-.103-.107-.051-.055-.101-.111-.051-.056-.1-.114-.049-.057-.097-.117-.048-.059-.095-.12t-.093-.124q-.046-.063-.09-.127-.045-.064-.089-.13-.043-.065-.086-.132-.042-.068-.083-.136-.041-.069-.081-.139t-.079-.141l-.076-.144q-.037-.073-.073-.147-.037-.074-.071-.15-.035-.075-.069-.151-.033-.077-.065-.155-.032-.077-.063-.156t-.06-.159q-.03-.08-.058-.161-.028-.081-.054-.163-.027-.082-.052-.165-.025-.084-.049-.168t-.046-.169q-.023-.084-.043-.17-.021-.086-.041-.173-.019-.086-.037-.173-.018-.088-.034-.176-.017-.088-.032-.177t-.028-.178q-.014-.089-.026-.179l-.022-.181q-.01-.09-.019-.181t-.017-.183q-.007-.091-.013-.183-.006-.092-.01-.184t-.007-.185q-.003-.092-.004-.185t-.001-.186q0-.093.002-.186t.005-.187q.003-.093.008-.186.005-.094.011-.187.007-.093.015-.187.008-.093.017-.186.01-.094.021-.187.01-.093.023-.186.012-.093.026-.186.014-.093.03-.185.015-.093.032-.185t.036-.184q.018-.092.038-.183.02-.092.041-.183.022-.091.045-.181.022-.091.047-.181.024-.09.05-.179.025-.089.052-.178.027-.089.056-.177.028-.088.058-.175.03-.088.061-.174.032-.087.064-.172.033-.086.067-.171.034-.085.069-.169t.072-.167q.036-.083.074-.165t.077-.163q.039-.081.08-.161.04-.08.082-.159.041-.079.084-.157.043-.077.087-.154.044-.076.089-.152.045-.075.091-.149t.094-.147q.047-.072.096-.144.048-.071.098-.141.049-.07.1-.139.05-.068.102-.135.051-.068.104-.133.052-.066.106-.13.053-.064.108-.127.054-.062.11-.123.055-.061.111-.121.056-.059.113-.117.057-.057.115-.114.058-.056.117-.11.058-.054.118-.107.059-.052.119-.103.061-.051.121-.1.061-.049.123-.097.061-.047.123-.092.062-.046.125-.089.063-.044.126-.086.064-.041.127-.081.064-.04.129-.078.064-.038.129-.074t.13-.07q.065-.034.131-.066.065-.032.131-.062t.133-.058q.066-.028.133-.054t.133-.05q.067-.024.135-.046.067-.022.134-.042.068-.02.135-.037.068-.018.135-.034.068-.016.136-.029.068-.014.135-.025.068-.012.136-.021.068-.01.136-.017.068-.008.135-.013.068-.005.136-.008t.135-.004q.068-.001.136 0 .067.001.134.004.068.003.135.008.067.006.134.013.067.007.133.017.067.009.133.021.066.012.132.025.066.014.132.03.065.016.13.033.065.018.13.038t.129.042q.064.022.128.046.063.024.126.05.063.026.126.054.062.028.124.058.062.031.124.063.061.032.121.066.061.034.121.07.06.036.119.074t.117.078q.059.039.116.081.058.042.115.086.057.043.112.089.056.045.111.092.055.048.11.097.054.049.107.1.053.051.105.104.052.052.104.107.051.054.101.11.05.056.099.114t.098.117q.048.06.095.121t.092.123q.046.063.091.127t.088.13q.044.066.086.133.043.067.084.135.041.069.081.139t.078.141q.039.072.076.145.038.072.074.146t.071.15q.035.075.068.152.034.076.066.154t.063.157q.031.078.06.158.029.08.057.161.028.082.055.164t.052.165q.025.083.049.167.023.084.046.169.022.085.043.17.021.086.04.173.02.086.038.174l.034.175q.016.088.031.177t.029.178q.013.09.025.18.012.089.022.18.011.091.02.182.009.091.016.182.008.091.013.183.006.092.011.184.004.093.007.185l.004.185q.001.093.001.186l-.002.186q-.002.094-.005.187-.004.093-.009.187-.005.093-.011.186-.006.094-.014.187t-.018.187q-.009.093-.02.186-.011.093-.023.186-.013.093-.027.186t-.029.185q-.016.093-.033.185Z"/>
    <path fill="none" stroke="#381d1d" stroke-width=".56" d="m257.792 767.851-.026.138-.028.138-.03.138-.032.136-.034.136q-.018.068-.037.135-.018.067-.038.134t-.04.133q-.021.066-.043.132-.021.066-.044.131-.023.065-.046.129-.024.065-.048.129-.025.063-.05.127-.026.063-.052.125-.027.063-.054.124-.027.062-.056.123-.028.061-.057.121t-.059.12q-.03.059-.061.117-.031.059-.063.116-.032.058-.064.114-.033.057-.066.112-.034.056-.068.111-.034.054-.069.108t-.071.106q-.035.053-.072.104-.036.052-.074.102-.037.051-.075.1-.038.049-.076.097-.039.049-.078.096t-.079.092q-.04.046-.081.091-.04.044-.081.088-.041.043-.083.085-.042.042-.084.083t-.085.08q-.043.04-.086.078l-.087.075q-.044.037-.089.072-.044.036-.089.07-.044.034-.089.066-.046.033-.091.064-.046.032-.092.061-.046.03-.092.059-.046.028-.093.055t-.094.052q-.047.026-.094.05-.047.024-.095.046-.047.023-.095.043-.048.021-.096.041-.048.019-.096.037t-.096.034q-.049.017-.097.032-.049.014-.097.028-.049.013-.098.025-.048.011-.097.021-.049.01-.098.019-.048.008-.097.015-.049.007-.098.013-.049.005-.097.009-.049.004-.098.006t-.097.003q-.049 0-.097-.001-.049-.001-.097-.003-.049-.003-.097-.007t-.096-.01q-.048-.006-.096-.013-.048-.007-.095-.016-.048-.009-.095-.02-.048-.01-.095-.022-.047-.012-.094-.026-.047-.013-.093-.028l-.092-.032q-.047-.017-.092-.035-.046-.019-.091-.038-.046-.02-.091-.041-.044-.022-.089-.044-.044-.023-.088-.048-.044-.024-.088-.05-.043-.025-.086-.053-.043-.027-.086-.056-.042-.028-.084-.059-.042-.03-.083-.061-.042-.032-.082-.065-.041-.033-.081-.067l-.08-.07q-.039-.036-.078-.073t-.077-.076q-.038-.038-.075-.078-.038-.04-.075-.081-.036-.041-.072-.084-.036-.042-.071-.086-.036-.043-.07-.088-.035-.045-.068-.091-.034-.046-.067-.093-.033-.048-.065-.096t-.063-.098q-.031-.05-.061-.1-.031-.051-.06-.103-.03-.051-.058-.104-.029-.053-.056-.107-.028-.054-.055-.109t-.052-.11q-.026-.056-.051-.113-.025-.057-.049-.115-.024-.057-.047-.116-.023-.059-.045-.118-.022-.06-.043-.12-.021-.06-.041-.121t-.039-.123q-.019-.062-.037-.125-.017-.062-.034-.126-.017-.063-.033-.127t-.031-.129q-.015-.064-.029-.13l-.026-.131q-.013-.066-.024-.132-.012-.066-.023-.133l-.02-.134-.018-.136q-.008-.067-.015-.135-.008-.069-.014-.137-.006-.069-.011-.138-.005-.069-.009-.138-.005-.069-.007-.138-.003-.07-.005-.14-.002-.069-.003-.139t0-.14q0-.07.002-.14.001-.07.004-.141.002-.07.006-.14l.008-.141q.005-.07.011-.14.006-.071.013-.141.007-.07.015-.14t.017-.14q.009-.07.02-.14.01-.07.021-.14.011-.069.024-.139.012-.069.025-.138l.028-.138q.015-.069.03-.137.016-.069.033-.137.016-.068.034-.136.017-.068.036-.135l.038-.134q.02-.067.041-.133.02-.066.042-.132l.044-.13q.023-.066.046-.13.024-.065.049-.128.024-.064.05-.127.025-.064.052-.126.026-.062.053-.124.028-.062.056-.123t.057-.121q.03-.06.06-.119.03-.06.061-.118l.062-.116q.032-.057.065-.114.032-.057.066-.112.033-.056.067-.11.034-.055.069-.109.035-.053.071-.106l.072-.104q.037-.052.074-.102.037-.05.075-.1.038-.049.076-.097.039-.048.078-.095t.079-.093q.04-.046.081-.09.04-.045.081-.088.042-.044.083-.086.042-.042.084-.083.042-.04.085-.08.043-.039.086-.077.044-.039.088-.075.043-.037.088-.073.044-.035.089-.069.044-.034.09-.067.045-.033.09-.064.046-.031.092-.061t.092-.058q.047-.029.093-.056l.094-.052q.047-.025.094-.049t.095-.047q.047-.022.095-.043.048-.021.096-.041.048-.019.096-.037t.097-.034q.048-.016.096-.031.049-.015.097-.028.049-.013.098-.025.048-.012.097-.022.049-.01.098-.019.048-.008.097-.015.049-.007.098-.012.049-.006.097-.01l.098-.006q.049-.002.097-.002.049-.001.097 0 .049.001.097.004.049.002.097.006t.096.01q.048.006.096.013.048.007.096.016.047.009.094.02.048.01.095.022.047.012.094.026.047.014.093.029.046.015.093.032.046.016.091.035.046.018.091.038.046.019.091.041.044.021.089.044.044.022.088.047.044.024.088.05.043.026.086.053t.086.056q.042.029.084.059.042.03.083.062.042.031.082.064.041.033.081.068.04.034.08.07.039.035.078.073.039.037.077.075.038.039.075.078.038.04.075.081.036.041.072.084.036.042.072.086.035.043.069.088.035.045.068.091.034.046.067.093.033.048.065.096.032.049.063.098.031.05.061.1.031.051.06.103.03.052.058.104.029.053.056.107.028.054.055.109t.053.111q.025.055.05.112t.049.115q.024.057.047.116.023.059.045.118.022.06.043.12.021.06.041.121t.039.123q.019.062.037.125t.034.126q.017.063.033.127t.031.129q.015.064.029.13l.026.131q.013.066.025.132l.022.133.02.134.018.136q.008.067.015.136.008.068.014.136.006.069.011.138.006.069.01.138t.007.139q.003.069.004.139.002.069.003.139t0 .14q0 .07-.002.14-.001.07-.004.141-.002.07-.006.14-.003.071-.008.141-.005.07-.011.14-.006.071-.013.141-.007.07-.015.14t-.017.14q-.009.071-.019.14-.01.07-.022.14-.011.069-.023.139Z"/>
    <path fill="none" stroke="#381d1d" stroke-width=".982" d="M273.206 767.697q-.017.092-.035.184-.019.092-.039.184-.019.091-.041.182-.021.091-.044.182-.023.09-.047.18t-.05.179q-.026.09-.053.179-.027.088-.055.176-.029.088-.059.176-.03.087-.061.174-.031.086-.064.172-.032.086-.066.171-.034.084-.07.168-.035.084-.071.168-.037.083-.075.165t-.077.163q-.039.081-.079.161-.041.08-.082.159-.042.078-.085.156-.042.078-.086.154-.044.077-.089.152-.046.075-.092.149t-.093.147q-.048.073-.096.144-.049.072-.098.142-.05.07-.1.138-.051.069-.102.136-.052.067-.104.133-.053.065-.106.129-.054.065-.108.127-.055.063-.11.124t-.112.12q-.056.059-.113.117-.057.058-.115.114t-.116.11q-.059.055-.118.107-.06.053-.12.104t-.121.1q-.061.049-.122.096-.062.047-.124.093-.062.045-.125.089-.062.044-.126.085-.063.042-.127.082t-.128.077q-.064.038-.129.074t-.13.07q-.066.034-.131.066-.066.032-.132.062t-.132.058q-.067.028-.133.054-.067.026-.134.05-.067.024-.134.046t-.135.042q-.067.02-.135.038-.067.018-.135.033-.067.016-.135.03-.068.013-.136.025-.068.011-.136.021-.067.009-.135.017-.068.007-.136.012-.068.006-.136.009-.067.003-.135.004t-.135 0q-.068-.001-.135-.004-.067-.004-.134-.009-.067-.005-.134-.013-.067-.007-.134-.016-.066-.01-.132-.022-.067-.011-.133-.025-.066-.014-.131-.029-.066-.016-.131-.034-.065-.018-.129-.038-.065-.02-.129-.042-.064-.022-.128-.046t-.127-.05q-.063-.026-.125-.054-.063-.028-.125-.058-.062-.03-.123-.062t-.122-.066q-.061-.034-.12-.07-.06-.036-.119-.074-.06-.038-.118-.078-.058-.04-.116-.082-.058-.041-.114-.085-.057-.044-.113-.089-.056-.046-.111-.093t-.109-.096q-.054-.05-.107-.101-.054-.05-.106-.103-.052-.053-.103-.107-.051-.055-.102-.111-.05-.056-.099-.114-.049-.057-.097-.117-.048-.059-.095-.12t-.093-.124q-.046-.062-.091-.126l-.088-.13q-.043-.066-.086-.133-.042-.067-.083-.136t-.081-.139q-.04-.07-.079-.141-.039-.071-.076-.144t-.073-.147q-.037-.074-.071-.149-.035-.076-.069-.152-.033-.077-.065-.154-.032-.078-.063-.157t-.06-.159q-.03-.08-.058-.161-.028-.081-.054-.163-.027-.082-.052-.165-.025-.083-.049-.167t-.046-.169q-.023-.085-.043-.171-.021-.086-.041-.172-.019-.087-.037-.174-.018-.088-.034-.176-.017-.088-.032-.176-.015-.089-.028-.179-.014-.089-.026-.179-.012-.09-.022-.18-.01-.091-.019-.182t-.017-.183q-.007-.091-.013-.183-.006-.092-.01-.184t-.007-.185q-.003-.092-.004-.185-.002-.093-.001-.186 0-.093.002-.186t.005-.186q.003-.094.008-.187t.011-.187q.007-.093.015-.187.008-.093.017-.186.009-.093.02-.187.011-.093.024-.186.012-.093.026-.186.014-.092.03-.185.015-.092.032-.185.017-.092.036-.184.018-.092.038-.183t.041-.182l.044-.182q.023-.09.048-.18.024-.09.049-.18.026-.089.053-.178t.056-.177q.028-.088.058-.175.03-.087.061-.174.032-.087.064-.172.033-.086.067-.171.034-.085.069-.169t.072-.167q.036-.083.074-.165t.077-.163q.039-.081.08-.161.04-.08.082-.159.041-.079.084-.156.043-.078.087-.155.044-.076.089-.151.045-.076.091-.15t.094-.147q.047-.072.096-.144.048-.071.098-.141.049-.07.1-.138.05-.069.102-.136.051-.067.104-.133.052-.066.106-.13.053-.064.108-.126.054-.063.11-.124.055-.061.111-.12.056-.06.113-.117.057-.058.115-.114t.117-.111q.058-.054.118-.107.059-.052.119-.103t.121-.1q.061-.049.123-.096.061-.048.123-.093.062-.046.125-.089.063-.044.126-.086.063-.041.127-.081t.128-.078q.065-.038.13-.074.064-.036.13-.07.065-.034.131-.066.065-.032.131-.062t.133-.058q.066-.028.133-.054.066-.026.133-.05.067-.024.134-.046.068-.022.135-.041.067-.02.135-.038.067-.018.135-.034.068-.015.136-.029.067-.014.135-.025.068-.012.136-.021.068-.01.136-.017.068-.007.135-.013.068-.005.136-.008t.135-.004q.068-.001.135 0 .068.001.135.004.068.003.135.009.067.005.134.012.066.008.133.017.067.01.133.021.066.012.132.026.066.013.131.029.066.016.131.034.065.018.13.037.064.02.129.042.064.022.127.046.064.024.127.05.063.027.126.055.062.028.124.058.062.03.123.062.062.032.122.066.061.034.121.07.06.036.119.074t.117.078q.059.04.116.081.058.042.115.086.056.043.112.089.056.045.111.093.055.047.109.096.055.049.108.1.053.051.105.104.052.052.104.107.051.054.101.11.05.056.099.114t.097.117q.049.06.095.121.047.061.093.124.046.062.091.126t.088.13q.044.066.086.133.042.067.084.136.041.068.081.138t.078.142q.039.071.076.144.038.073.074.147t.071.149q.035.075.068.152.034.076.066.154t.063.157q.03.079.06.159.029.08.057.161t.055.163q.026.082.052.165.025.083.049.167.023.084.046.169.022.085.043.171.021.085.04.172.02.087.037.174.018.087.035.175.016.088.031.177t.029.178q.013.09.025.18.012.09.022.18.011.091.02.182.009.091.016.182.007.092.013.184.006.091.01.184.005.092.008.184l.004.186q.001.093.001.186l-.002.186q-.002.093-.006.186-.003.093-.008.187-.005.093-.011.187-.006.093-.014.186-.008.094-.018.187-.009.093-.02.186-.011.094-.024.187-.012.093-.026.185-.014.093-.029.186-.016.092-.033.184Z"/>
    <path fill="none" stroke="#381d1d" stroke-width=".56" d="M271.515 767.551q-.012.069-.025.139l-.028.138q-.015.068-.03.137l-.032.136q-.017.068-.035.136-.017.068-.036.135-.018.067-.038.134t-.04.133q-.021.066-.043.132-.021.066-.044.131-.023.065-.046.129-.024.065-.048.129-.025.064-.05.127l-.052.126-.054.124-.056.122q-.028.061-.057.121-.029.061-.059.12-.031.059-.061.117-.031.059-.063.116-.032.058-.064.115l-.066.112-.068.11q-.034.055-.069.108-.035.054-.071.107l-.072.104q-.036.051-.074.102-.037.05-.075.099-.038.05-.076.098-.039.048-.078.095t-.079.093q-.04.045-.081.09-.04.045-.081.088t-.083.085q-.042.042-.084.083t-.085.081q-.043.039-.086.077l-.087.075q-.044.037-.089.072-.044.036-.089.07-.044.034-.09.067l-.09.064q-.046.031-.092.061t-.092.058q-.047.028-.093.055-.047.027-.094.053-.047.025-.094.049t-.095.046q-.047.023-.095.044-.048.021-.096.04-.048.02-.096.038-.048.017-.097.034-.048.016-.096.031-.049.015-.097.028-.049.013-.098.025-.048.012-.097.022-.049.01-.098.018-.048.009-.097.016-.049.007-.098.012t-.097.009q-.049.004-.098.006t-.097.003q-.049.001-.097 0-.049-.001-.097-.004-.049-.002-.097-.007-.048-.004-.096-.01-.048-.005-.096-.013-.048-.007-.096-.016-.047-.009-.095-.019-.047-.011-.094-.023t-.094-.025q-.047-.014-.093-.029-.046-.015-.093-.032-.046-.017-.091-.035-.046-.018-.091-.038-.046-.02-.091-.041-.044-.021-.089-.044-.044-.023-.088-.047l-.088-.05q-.043-.026-.086-.053l-.086-.056q-.042-.029-.084-.059-.042-.03-.083-.062-.042-.032-.082-.065-.041-.033-.081-.067t-.08-.07q-.039-.036-.078-.073t-.077-.076q-.038-.038-.076-.078-.037-.04-.074-.081-.036-.041-.072-.083l-.072-.086q-.035-.044-.069-.089-.035-.045-.068-.091-.034-.046-.067-.093t-.065-.096q-.032-.048-.063-.098-.031-.049-.061-.1-.031-.051-.06-.102-.03-.052-.058-.105-.029-.053-.056-.107-.028-.054-.055-.108-.027-.055-.052-.111-.026-.056-.051-.113-.025-.057-.049-.114-.024-.058-.047-.117-.023-.058-.045-.118-.022-.059-.043-.12-.021-.06-.041-.121t-.039-.123q-.019-.062-.037-.124-.018-.063-.034-.126-.017-.064-.033-.128t-.031-.128q-.015-.065-.029-.13l-.026-.131q-.013-.066-.024-.133-.012-.066-.023-.133l-.02-.134-.018-.135q-.008-.068-.015-.136-.008-.068-.014-.137-.006-.068-.011-.137l-.01-.138q-.004-.07-.007-.139l-.004-.139q-.002-.07-.003-.14t0-.14q0-.07.002-.14.001-.07.004-.14.002-.07.006-.141l.008-.14q.005-.071.011-.141.006-.07.013-.141.007-.07.015-.14t.017-.14q.009-.07.019-.14l.022-.139q.011-.07.024-.139.012-.07.025-.139l.028-.138q.015-.069.03-.137.016-.069.032-.137.017-.068.035-.136.017-.067.036-.134.019-.068.038-.134.02-.067.04-.133.021-.067.043-.132.021-.066.044-.131l.046-.13.048-.128q.025-.064.051-.127.025-.063.052-.126.026-.062.053-.124.028-.062.056-.123.028-.06.057-.121.03-.06.06-.119t.061-.118q.03-.058.062-.116.032-.057.065-.114.032-.056.065-.112l.068-.11q.034-.055.069-.108.035-.054.071-.107l.072-.104.074-.102q.037-.05.075-.099.038-.05.076-.098.039-.048.078-.095t.079-.093q.04-.046.081-.09.04-.045.081-.088t.083-.085q.042-.043.084-.083.042-.041.085-.081.043-.039.086-.077l.087-.075q.044-.037.089-.073.044-.035.089-.069.044-.034.09-.067l.09-.064q.046-.031.092-.061t.092-.058q.047-.028.093-.055.047-.027.094-.053.047-.025.094-.049t.095-.046q.047-.023.095-.044.048-.021.096-.04.048-.02.096-.037.048-.018.097-.035.048-.016.096-.031.049-.015.097-.028.049-.013.098-.025.048-.012.097-.022.049-.01.098-.018.048-.009.097-.016.049-.007.098-.012.049-.006.097-.009.049-.004.098-.006t.097-.003q.049-.001.097 0 .049.001.097.004.049.002.097.007.048.004.096.009.048.006.096.014.048.007.095.016.048.009.095.019.048.011.095.023t.094.025q.046.014.093.029.046.015.092.032.047.017.092.035.046.018.091.038.046.02.09.041.045.021.09.044.044.023.088.047t.088.05q.043.026.086.053l.086.056q.042.029.084.059.042.03.083.062.042.031.082.064.041.033.081.068.04.034.08.07.039.036.078.073t.077.076q.038.038.075.078.038.04.075.081.036.041.072.083t.071.086q.036.044.07.089.035.044.068.09.034.046.067.094.033.047.065.095.032.049.063.098.031.05.061.101.031.05.06.102.03.052.058.105.029.053.056.106.028.054.055.109t.052.111q.026.056.051.113.025.056.049.114t.047.116q.023.059.045.119.022.059.043.119.021.061.041.122t.039.123q.019.062.037.124.018.063.034.126.017.063.033.127t.031.129q.015.065.029.13l.026.131q.013.066.024.132.012.067.023.134.01.066.02.134l.018.135q.008.068.015.136.008.068.014.137.006.068.011.137.006.069.01.138t.007.139l.004.139q.002.07.003.14.001.069 0 .139 0 .07-.002.141-.001.07-.004.14-.002.07-.006.141l-.008.14q-.005.071-.011.141-.006.07-.013.14-.007.071-.015.141-.008.07-.017.14-.009.07-.019.14l-.022.139q-.011.07-.024.139Z"/>
    <path fill="none" stroke="#381d1d" stroke-width=".982" d="M286.499 768.153q-.017.092-.036.184-.018.092-.038.184-.02.091-.041.182-.022.091-.045.182-.022.09-.047.18-.024.09-.05.179-.025.09-.052.178-.027.089-.056.177-.028.088-.058.176-.03.087-.062.174-.031.086-.063.172-.033.086-.067.171-.034.084-.069.168t-.072.168q-.037.083-.074.165-.038.082-.077.163t-.08.161q-.04.08-.082.159-.041.078-.084.156-.043.078-.087.154-.044.077-.089.152t-.091.149q-.047.074-.094.147t-.096.144q-.048.072-.098.142-.049.07-.1.138-.05.069-.102.136-.051.067-.104.133-.052.065-.106.129-.053.065-.108.127-.054.063-.11.124-.055.061-.111.12t-.113.117q-.057.058-.115.114t-.117.11q-.059.055-.118.107-.059.053-.12.104-.06.051-.12.1-.061.049-.123.096-.061.047-.123.093-.063.045-.125.089-.063.044-.126.085-.064.042-.127.082-.064.04-.129.077-.064.038-.129.074t-.13.07q-.065.034-.131.066-.065.032-.131.062t-.133.058q-.066.028-.133.054t-.134.05q-.066.024-.134.046-.067.022-.134.042-.068.02-.135.038-.068.018-.135.033-.068.016-.136.03-.068.013-.135.025-.068.012-.136.021-.068.009-.136.017-.068.007-.136.012-.067.006-.135.009-.068.003-.135.004-.068.001-.136 0-.067-.001-.134-.004-.068-.004-.135-.009-.067-.005-.134-.013-.067-.007-.133-.016-.067-.01-.133-.022-.066-.011-.132-.025-.066-.014-.132-.029-.065-.016-.13-.034-.065-.018-.13-.038t-.129-.042q-.064-.022-.128-.046-.063-.024-.126-.05-.063-.026-.126-.054t-.124-.058q-.062-.03-.124-.062-.061-.032-.121-.066-.061-.034-.121-.07-.06-.036-.119-.074t-.118-.078q-.058-.04-.116-.082-.057-.041-.114-.085-.057-.044-.113-.089-.055-.046-.11-.093t-.11-.096q-.054-.05-.107-.101-.053-.05-.105-.103-.052-.053-.104-.107-.051-.055-.101-.111-.05-.056-.099-.114-.05-.057-.098-.117-.048-.059-.095-.12t-.092-.124q-.046-.062-.091-.126-.045-.065-.088-.13-.044-.066-.086-.133-.043-.067-.084-.136-.041-.069-.081-.139t-.078-.141q-.039-.071-.077-.144-.037-.073-.073-.147t-.071-.149q-.035-.076-.068-.152-.034-.077-.066-.154-.032-.078-.063-.157t-.06-.159q-.029-.08-.057-.161t-.055-.163q-.027-.082-.052-.165-.025-.083-.049-.167t-.046-.169q-.022-.085-.043-.171-.021-.086-.04-.172-.02-.087-.038-.174-.018-.088-.034-.176-.016-.088-.031-.177-.015-.088-.029-.178-.013-.089-.025-.179-.012-.09-.023-.18-.01-.091-.019-.182t-.016-.183q-.008-.091-.013-.183-.006-.092-.011-.184-.004-.092-.007-.185-.003-.092-.004-.185t-.001-.186q0-.093.002-.186t.005-.186q.004-.094.009-.187.004-.093.011-.187.006-.093.014-.186.008-.094.018-.187.009-.093.02-.187.011-.093.023-.186.013-.093.027-.186.014-.092.029-.185.016-.092.033-.185.017-.092.035-.184.019-.092.038-.183.02-.091.042-.182.021-.091.044-.182.023-.09.047-.18t.05-.18q.026-.089.053-.178t.055-.177q.029-.088.059-.175.03-.087.061-.174t.064-.172q.032-.086.066-.171.034-.085.069-.169.036-.084.072-.167.037-.083.075-.165t.077-.163q.039-.081.079-.161t.082-.159q.042-.079.084-.156.043-.078.087-.155.044-.076.089-.151.045-.076.092-.15.046-.074.093-.146.048-.073.096-.145.048-.071.098-.141.049-.07.1-.138.051-.069.102-.136.052-.067.104-.133.053-.066.106-.13.054-.064.108-.126.055-.063.11-.124t.112-.12q.056-.06.113-.117.057-.058.115-.114t.116-.111q.059-.054.118-.107.06-.052.12-.103t.121-.1q.061-.049.122-.096.062-.048.124-.093.062-.046.125-.089.062-.044.126-.086.063-.041.127-.081t.128-.078q.064-.038.129-.074t.13-.07q.065-.034.131-.066t.132-.062q.066-.03.132-.058.067-.028.133-.054.067-.026.134-.05.067-.024.134-.046t.135-.041q.067-.02.134-.038.068-.018.136-.034.067-.015.135-.029.068-.014.136-.025.068-.012.135-.021.068-.01.136-.017.068-.007.136-.013.068-.005.135-.008.068-.003.136-.004.067-.001.135 0 .067.001.135.004.067.003.134.009.067.005.134.012.067.008.134.017.066.01.132.021.067.012.132.026.066.013.132.029.065.016.131.034.065.018.129.037.065.02.129.042.064.022.128.046t.127.05q.063.027.125.055.063.028.125.058.062.03.123.062t.122.066q.06.034.12.07.06.036.119.074t.118.078q.058.04.116.081.057.042.114.086.057.043.113.089.056.045.111.093.055.047.109.096t.107.1q.053.051.106.104.052.052.103.107.051.054.101.11.051.056.1.114.049.058.097.117.048.06.095.121t.093.124q.046.062.09.126.045.064.089.13.043.066.086.133.042.067.083.136.041.068.081.138t.079.142q.038.071.076.144.037.073.073.147t.071.149q.035.075.069.152.033.076.065.154t.063.157q.031.079.06.159.03.08.058.161.028.081.054.163.027.082.052.165.025.083.049.167t.046.169q.022.085.043.171.021.085.041.172.019.087.037.174t.034.175q.017.088.032.177t.028.178q.014.09.025.18.012.09.023.18.01.091.019.182t.016.182q.008.092.014.184.006.091.01.184.004.092.007.184.003.093.004.186t.001.186q0 .093-.002.186t-.005.186q-.003.093-.008.187-.005.093-.012.187-.006.093-.014.186-.008.094-.017.187-.01.093-.021.186-.011.094-.023.187-.013.093-.027.185-.013.093-.029.186-.015.092-.032.184Z"/>
    <path fill="none" stroke="#381d1d" stroke-width=".56" d="M284.808 768.007q-.012.069-.026.139-.013.069-.028.138-.014.068-.03.137-.015.068-.032.136-.016.068-.034.136-.018.068-.036.135-.019.067-.039.134-.019.067-.04.133l-.042.132q-.022.066-.045.131-.022.065-.046.13-.023.064-.048.128t-.05.127l-.052.126q-.026.062-.054.124-.027.061-.055.122-.029.061-.058.121-.029.061-.059.12-.03.059-.061.117-.031.059-.063.116-.031.058-.064.114-.033.057-.066.113-.033.055-.068.11-.034.055-.069.108-.035.054-.07.107-.036.052-.073.104-.036.051-.073.101-.037.051-.075.1-.038.05-.077.098-.038.048-.078.095-.039.047-.079.093l-.08.09q-.041.045-.082.088t-.083.085q-.041.042-.084.083-.042.041-.085.081-.043.039-.086.077t-.087.075q-.044.037-.088.072-.044.036-.089.07-.045.034-.09.067-.045.032-.091.064-.045.031-.091.061-.046.029-.093.058-.046.028-.093.055-.046.027-.093.053-.047.025-.095.049-.047.024-.094.046-.048.023-.096.044-.047.021-.095.04-.048.02-.097.037-.048.018-.096.035-.048.016-.097.031-.048.015-.097.028-.049.013-.097.025l-.098.022q-.048.01-.097.018-.049.009-.098.016-.049.007-.097.012-.049.005-.098.009-.049.004-.097.006-.049.002-.098.003-.048.001-.097 0-.048-.001-.097-.004-.048-.003-.096-.007-.049-.004-.097-.01-.048-.005-.096-.013-.048-.007-.095-.016-.048-.009-.095-.019-.047-.011-.095-.023-.047-.012-.093-.025-.047-.014-.094-.029-.046-.015-.092-.032t-.092-.035q-.046-.018-.091-.038t-.09-.041q-.045-.021-.09-.044-.044-.023-.088-.047-.044-.025-.087-.05-.044-.026-.087-.053-.043-.028-.085-.056-.043-.029-.085-.059-.042-.03-.083-.062t-.082-.065q-.041-.033-.081-.067t-.079-.07q-.04-.036-.079-.073-.038-.037-.077-.076-.038-.038-.075-.078-.038-.04-.074-.081-.037-.041-.073-.083-.036-.043-.071-.086-.035-.044-.07-.089-.034-.045-.068-.091t-.066-.093q-.033-.047-.065-.096-.032-.048-.063-.098-.032-.049-.062-.1l-.06-.102q-.029-.052-.058-.105-.028-.053-.056-.107t-.054-.108q-.027-.055-.053-.111t-.051-.113q-.025-.057-.049-.114-.023-.058-.046-.117-.023-.058-.045-.118-.022-.059-.043-.12-.021-.06-.041-.121t-.039-.123q-.019-.062-.037-.125-.018-.062-.035-.125-.017-.064-.033-.128t-.031-.128l-.028-.13q-.014-.066-.027-.131l-.024-.133q-.012-.066-.022-.133-.011-.067-.02-.134-.01-.067-.018-.135-.009-.068-.016-.136l-.014-.137q-.006-.069-.011-.137-.005-.069-.009-.138-.004-.07-.007-.139-.003-.07-.005-.139-.002-.07-.002-.14-.001-.07-.001-.14l.002-.14.004-.14.006-.141q.004-.07.009-.14l.01-.141q.006-.07.013-.141.007-.07.015-.14t.018-.14q.009-.07.019-.14t.021-.139l.024-.139q.012-.07.026-.139.013-.069.028-.138.014-.069.03-.137.015-.069.032-.137.016-.068.034-.136l.036-.134q.019-.068.039-.134.019-.067.04-.133.021-.067.042-.132.022-.066.045-.131.022-.065.046-.13.023-.064.048-.128t.05-.127l.052-.126q.026-.062.054-.124.027-.062.055-.123.029-.06.058-.121.029-.06.059-.119.03-.059.061-.118.031-.058.063-.116.031-.057.064-.114l.066-.112q.033-.055.067-.11.035-.055.07-.108.035-.054.07-.107.036-.052.073-.104.036-.051.073-.102.037-.05.075-.099.038-.05.077-.098.038-.048.078-.095.039-.047.079-.093t.08-.09q.041-.045.082-.088t.083-.086q.041-.042.084-.082.042-.041.085-.081.042-.039.086-.077.043-.038.087-.075t.088-.073q.044-.035.089-.069t.09-.067q.045-.032.091-.064.045-.031.091-.061t.093-.058q.046-.028.093-.055.046-.027.093-.053.047-.025.095-.049.047-.024.094-.046.048-.023.096-.044.047-.021.095-.04.048-.02.096-.038.049-.017.097-.034.048-.016.097-.031.048-.015.097-.028.048-.013.097-.025.049-.012.098-.022.048-.01.097-.018.049-.009.098-.016.049-.007.097-.012.049-.006.098-.009.049-.004.097-.006.049-.003.098-.003.048-.001.097 0 .048.001.097.004.048.002.096.007.049.004.097.009.048.006.095.013.048.008.096.017.048.009.095.019.047.011.094.023t.094.025q.047.014.093.029.047.015.093.032t.092.035q.045.018.091.038.045.02.09.041t.089.044q.045.023.089.047t.087.05q.044.026.087.053t.085.056q.043.029.084.059.042.03.084.062.041.031.082.064.04.033.081.068.04.034.079.07.04.036.078.073.039.037.077.075.038.039.076.079.037.04.074.081t.073.083q.036.042.071.086.035.044.07.089.034.044.068.09.033.046.066.094.033.047.065.095.032.049.063.098.031.05.062.101.03.05.06.102.029.052.058.105l.056.106q.028.054.054.109.027.055.053.111t.051.112q.024.057.048.115t.047.116q.023.059.045.118.022.06.043.12.021.061.041.122t.039.123q.019.062.037.124.018.063.035.126.017.063.033.127t.03.129q.015.065.029.13.014.065.027.131l.024.132q.012.067.022.133.011.067.02.135.01.067.018.135.009.068.016.136.007.068.013.137.007.068.012.137t.009.138q.004.069.007.139.003.069.005.139t.002.14q.001.069.001.139l-.002.141-.004.14-.006.141q-.004.07-.009.14-.005.071-.011.141-.005.07-.012.14-.007.071-.015.141-.008.07-.018.14-.009.07-.019.14-.01.069-.021.139l-.024.139Z"/>
    <path fill="none" stroke="#585654" stroke-width=".5" d="m284.468 886.76-76.801.059M284.5 876.161l-76.785.025M284.565 853.265l-30.936.163M284.605 840.053l-26.136.049M284.671 826.392l-20.185-.01M284.651 813.016l-13.757-.155M284.566 802.452l-9.174-.047"/>
    <path fill="none" stroke="#585654" stroke-width=".503" d="m284.584 788.386-4.057-.07"/>
    <path fill="none" stroke="#585654" stroke-width=".5" d="m284.479 866.009-76.419.029"/>
    <path fill="none" stroke="#381d1d" stroke-width="1.41" d="M207.203 787.582H261.357M204.371 793.268h54.14M200.435 799.554h-.11H255.078"/>
  </g>
</svg>
