<svg xmlns="http://www.w3.org/2000/svg" width="178.5107" height="85.457pt" viewBox="-360.383 1198.895 133.883 85.457">
  <g stroke-linecap="round" stroke-linejoin="round">
    <path fill="#8b9bac" stroke="#8b9bac" stroke-width=".5" d="M-358.14 1224.56q.041.075.059 1.227.018 1.152.119 2.158.101 1.006.128 1.415.027.409.045.945.019.537.021 1.341.002.805.012 1.575.01.769.038 1.501.027.733.048 1.287.022.553.049 1.116.027.562.029.914.003.352 0 .845t.013 1.047q.016.554.05 1.332.068 1.558.103 2.404.036.846.039 1.681.004.835.002 1.951t-.115 2.433q-.112 1.318-.155 2.586-.043 1.269-.058 1.908-.015.64-.078 1.192-.063.552-.12 1.766-.058 1.214-.055 2.031.003.818.045 1.666.042.848.115 1.555.037.353.065 1.034.029.681.047 1.692.018 1.01.01 1.776-.007.765-.062 1.548-.055.784-.125 1.342t-.099.813q-.028.254-.087.754-.059.499-.085 1.115-.027.615.001.889t.052.393q.025.118.17.467.144.35.194.432.05.081.712.811.331.365.67.674.34.309.688.562.348.253.644.435.295.182.659.348.364.167.697.36.332.193.597.379.265.185.571.439.305.254.62.567.315.314.638.691.324.377.562.659.239.281.472.549.233.267.609.502.376.234.625.342.249.109.519.175.27.066.492.079.221.013.871-.058.65-.071 1.157-.106t.906-.026q.398.009.693.011.295.003.661.004.365.001.899.001.534-.001.981-.01.448-.01.808-.028.721-.038 1.526-.102t1.656-.136q.85-.071 1.858-.183 1.007-.112 1.563-.127.556-.014 1.19.023.633.037 1.107.078.473.042 1.009.072.536.031.989.049.452.018.677.015.226-.003.295-.014.07-.011.171-.024.101-.014.245-.049.143-.035.274-.087.131-.052.17-.064.038-.012.105-.045.066-.033.241-.159.175-.125.236-.161.06-.035.462-.431t.64-.684q.238-.287.31-.37.071-.084.301-.408.23-.323.652-.889.422-.566.705-.94t.488-.68q.204-.307.36-.682.155-.375.261-.661.105-.287.136-.42.032-.134.044-.287.012-.152.037-.477.025-.325.02-.403-.005-.077-.014-1.062-.008-.984-.039-1.722-.032-.738-.062-1.526-.03-.789-.056-1.796-.026-1.008-.107-1.723-.081-.714-.18-1.388-.099-.675-.14-1.465-.042-.79-.05-1.509-.009-.719-.071-1.523-.062-.805-.089-1.756-.027-.95-.044-1.504-.018-.554-.073-1.071-.055-.516-.087-1.132-.032-.617-.033-1.388-.001-.77-.035-1.633-.035-.863-.04-1.357l-.008-.996q-.005-.503-.045-1.262t-.016-1.663q.024-.903.037-1.294.013-.391.061-1.084.048-.693.102-1.183.053-.49.065-.745.011-.255.008-.782-.004-.527-.006-.903-.001-.376 0-1.282.002-.905.031-1.459.029-.554.055-.888.025-.334.042-.785.016-.451.042-.73.026-.279.121-.74.096-.462.162-.948.065-.485.115-.957.049-.472.13-.892.08-.42.125-1.056.044-.636.038-1.03-.006-.394-.031-.579-.026-.186-.085-.441-.059-.256-.101-.429-.041-.173-.056-.242-.014-.068-.19-.582l-.074-.085q-.059-.088-.127-.159-.069-.072-.126-.114-.057-.042-.122-.086-.066-.044-.389-.297-.322-.253-.9-.616-.578-.363-.808-.52-.229-.157-.485-.311t-.671-.318q-.416-.163-.77-.307-.354-.145-.57-.252-.215-.107-.394-.187-.18-.081-.269-.118-.089-.037-.28-.109-.191-.072-.597-.284-.405-.212-.952-.495-.547-.282-.828-.45-.28-.167-.413-.258-.133-.092-.496-.373-.364-.28-.652-.483-.288-.202-.719-.468-.431-.267-.685-.433-.253-.167-.653-.377-.399-.209-.805-.401-.407-.191-.543-.249-.136-.057-.28-.098-.145-.041-.418-.11-.274-.069-.467-.104-.194-.034-.352-.055-.158-.02-.273-.032-.115-.012-.481-.08-.365-.068-.908-.097-.543-.03-.974-.034-.43-.004-.732-.014-.301-.01-.698-.009-.398.001-.704.007-.307.006-1.02.014-.714.009-1.718.088-1.003.08-1.472.108-.469.029-.787.054-.318.025-.491.03-.174.005-.668-.022-.494-.027-.675-.05-.18-.024-.416-.059-.236-.036-.384-.079-.149-.044-.268-.071-.119-.027-.185-.039-.793.698-1.599 1.398-.806.701-1.646 1.411-.84.709-1.706 1.426-.867.716-1.72 1.429ZM-251.229 1270.507q-.013.022-.127.479-.114.457-.176 1.05-.063.593-.071.84-.009.248-.033.524t-.066.664q-.042.387-.077.697-.036.311-.064.544-.057.467-.069.744-.011.277-.048.993-.036.715-.038 1.245-.002.53.048.998.05.468.132.852.081.384.194.728.023.029.122.231t.156.279q.057.076.157.157.1.08.129.099.03.019.14.069.111.05.515.197.405.148.818.225.414.077.716.112.301.035.601.079.299.045.849.093.55.049 1.013.072.463.022.994.034.532.012.844.015.312.003.454-.003.141-.006.387-.023.247-.017.519-.032.273-.015.558-.043.286-.028.697-.099.41-.07.966-.232.555-.161.665-.21.111-.049.216-.11t.177-.111q.072-.051.094-.071.023-.021.149-.134t.22-.204q.095-.091.209-.22.115-.129.505-.694.391-.565.566-.889.176-.323.3-.566.124-.242.297-.713.174-.471.256-.767.083-.297.132-.493.049-.197.106-.477.057-.28.106-.549.049-.269.055-.388.006-.119.02-.381.015-.263.016-.491.001-.228.004-.613.003-.384-.028-.723-.032-.339-.047-.849-.015-.509-.056-.955-.041-.446-.061-.876-.02-.43-.026-.975-.006-.545.032-1.101.038-.556.16-1.113.123-.556.183-.825.06-.269.082-.514.022-.244.02-.287-.003-.044-.042-.507-.039-.464-.077-.522-.037-.058-.18-.267-.169-.005-.271-.003-.102.002-.574.101-.28.151-.554.312-.274.16-.541.33-.268.17-.519.322-.25.153-.599.359-.349.205-.77.418-.421.213-.821.417-.399.203-.787.434-.387.231-.768.49-.38.26-.765.506-.384.246-.782.447-.397.201-.822.307-.424.106-.856.223-.433.117-.862.261-.428.144-.844.294-.415.15-.814.258-.398.109-.787.187-.389.079-.777.161-.389.082-.78.183Z"/>
    <path fill="#8b9bac" stroke="#8b9bac" stroke-width=".5" d="m-323.47 1247.126-.053.082q-.008.025-.08.627-.071.603-.056 2.381.015 1.778-.002 3.068-.016 1.29-.031 1.906-.014.616-.018 1.03-.003.415-.004.662-.001.246-.001.358.001.111-.029.928-.029.818-.084 2.944-.054 2.126-.073 3.269-.018 1.143-.075 1.973-.056.831-.067 1.41-.01.58-.022 1.239-.011.659-.019 1.019-.008.361.015.834.022.473.035.819.012.347.035.641.023.293.045.494.022.2.031.328.01.128.036.703.027.575.022 1.273-.005.697-.012.966-.006.27-.012.351-.006.081-.045.365t-.065.46q-.026.176-.035.241-.008.064-.009.144-.001.079.258.128.259.048.534.052.274.004.443.012.168.008.668.007.5-.002.849.003.348.004 1.216.085.867.081 1.532.126.664.044 1.021.05.357.006.599.012.243.005.379.01.136.004.574-.009.439-.012 1.078-.075.64-.062.994-.085.354-.022 1.336-.038.982-.016 1.661.006t1.223.019q.545-.003.944-.015.399-.011 1.26.002.86.014 1.624.012.381 0 .789.003.408.003.841.01.434.007.785.016.35.009.751.026t.847-.01q.446-.028.896-.051.45-.023.767-.018.318.005.654.032t.753.046q.417.018.922.031.505.012.932.026.427.014.766.023t.743.03q.403.021.865.039.462.017.799-.024.336-.042.673-.073.337-.032.642-.038.304-.006.764-.025.46-.019.89-.014.43.006.803.006.374 0 .65.011t.398.018q.122.007.246.006t.264.001q.139.002.236.014.097.011.191.008.095-.003.167-.004.072 0 .248-.023.177-.023.23-.025.053-.003.258-.042.033-.006.144-.265.11-.26.144-.565.034-.305.058-.51.023-.206.079-.612.057-.406.092-.635.035-.23.043-.55.009-.32.049-.676.041-.357.064-.466.024-.109.045-.233.021-.124.068-.246.047-.121.07-.164.022-.042.237-.365.488-.113.704-.128.217-.016.571.002.355.018.951.063.597.045.93.051.333.006.871-.018t1.063-.028q.525-.004.758-.002.233.003.488.008.254.004.603.029.349.024.626.052.277.029.591.053.313.024.597.021.283-.004.627-.005.345-.001.633-.02.288-.018.633-.055.346-.037.674-.062.329-.025.794-.044.466-.019.747-.019.28 0 .61.003.33.004.8.015.47.012.901.016.431.005.823 0 .392-.006.802-.014.41-.008.838-.02.856-.023 1.354-.033.498-.01.832-.002.333.008.617.044.285.037.816.084.531.047.889.059.357.013.682.028l.732.034q.408.019.965.002.556-.016 1.762.006 1.206.023 1.793.045.587.023.87.044.283.022.632.066.35.044.903.068.553.024.909.049.356.026.583.065.227.04.529.073.302.032.435.019.134-.013.194-.019.06-.007.138-.031.079-.024.088-.029.009-.005.155-.1.147-.095.22-.161.073-.066.153-.201t.275-.647q.194-.511.212-.691.017-.179.006-.241-.011-.062-.022-.081-.011-.019-.056-.046-.046-.027-.103-.046-.057-.02-.064-.027-.006-.008-.143-.016-.137-.009-.42.026-.283.035-.423.049-.14.014-.272.02-.131.007-.279.012-.147.005-.36-.003t-.373-.031q-.159-.023-.296-.044-.136-.022-.346-.051-.21-.029-1.229-.147-1.019-.118-2.381-.342-1.362-.225-2.037-.349-.676-.124-1.147-.243-.472-.118-1.126-.326-.655-.207-1.192-.437-.537-.229-.814-.357-.277-.129-.547-.232-.27-.102-.861-.35-.59-.247-1.023-.475-.433-.229-.93-.507-.496-.279-1.063-.546-.566-.267-.873-.413-.307-.145-.585-.319-.279-.174-.668-.385-.39-.21-.647-.362t-.535-.391q-.279-.239-.478-.395-.199-.155-.393-.315-.195-.16-.378-.338-.184-.179-.254-.241-.07-.061-.168-.174-.099-.113-.164-.206-.065-.093-.123-.175-.057-.083-.114-.161-.056-.079-.166-.225-.111-.147-.181-.247-.07-.1-.271-.407-.202-.308-.402-.538-.201-.23-.344-.4-.144-.171-.227-.27-.083-.1-.117-.134-.035-.035-.24-.215-.206-.181-.396-.388-.19-.206-.3-.346-.11-.141-.265-.355-.156-.214-.223-.317-.066-.102-.213-.367-.147-.266-.258-.477-.112-.212-.208-.385-.096-.174-.166-.315-.07-.141-.201-.423-.132-.281-.255-.644-.122-.362-.174-.553-.051-.192-.097-.331-.046-.14-.064-.188-.019-.048-.051-.144-.032-.096-.065-.221-.034-.124-.066-.264-.031-.139-.077-.273-.046-.133-.148-.482t-.168-.642q-.066-.293-.157-.769-.09-.477-.128-.683-.037-.207-.081-.495-.043-.288-.068-.431-.025-.142-.061-.307-.037-.165-.07-.378-.034-.213-.034-.225 0-.012-.054-.275-.055-.263-.08-.457-.024-.195-.033-.314-.01-.12-.022-.299-.012-.178-.025-.252-.014-.074-.022-.219-.008-.146-.036-.268-.028-.123-.038-.173-.01-.049-.054-.13-.004-.02-.106-.186"/>
    <path fill="#8b9bac" stroke="#8b9bac" stroke-width=".5" d="m-324.555 1219.312.047.016q.084.041.389.156.304.114.827.377.524.263.862.487.337.223.628.461.291.239.864.683.573.445.883.661.31.215.641.506.331.291.518.466.187.175.441.338.254.162.484.321.23.158.308.216.079.058.134.089.056.031.141.096.086.064.162.121.077.058.137.1.061.042.2.176.139.134.196.186.056.052.122.108.065.057.079.066.014.009.086.09.071.082.1.13.03.049.051.104.022.055.036.104.013.048.049.248.037.2.041.632.004.432-.012.805-.008.186-.019.468l-.026.659q-.014.377-.026.662l-.022.575q-.012.29-.019.529-.007.239.01.644.017.404.012.723-.005.318-.027.686-.022.368-.058.71-.037.341-.077.802-.041.46-.053.759-.012.298.003.879.015.58.049 1.142.035.561.082.937.047.377.089.766.043.389.072.932.029.543.035.964.006.421.005.855-.001.433.009.774.009.341-.011.79-.021.45-.062.832-.041.382-.058.52-.016.138-.05.457-.035.318-.084.855-.048.536-.065.858-.016.321-.018.503-.001.183.157.832l.042.03q.077.007.463.008.386.002.657-.022.27-.023.432-.026.163-.003.199 0 .037.002.238.018.202.016.579.048.376.031.704.051.328.02.749.03.42.01 1.031.019.61.009 1.013.019.404.01.605.01.202-.001.593-.03.392-.028.967-.073.576-.045 1.046-.073.471-.028.839-.048.736-.036.993-.033.257.002.627-.001t.938-.01q.568-.007 1.016-.015.448-.009.776-.018.656-.019.916-.019t.633.015q.373.015 1.106.064.733.049 1.434.048h1.676q.975.001 1.48.016.504.015 1.291.054.788.04 1.792-.008 1.005-.047 1.494-.088.489-.041 1.373-.061.884-.02 1.576-.028.691-.008.998-.008.308.001.483.016.176.016.604.04t1.337.114q.908.09 1.088.102.179.011.347.019.168.007.262.004t.318-.035q.225-.031.288-.038.064-.006.2-.06.136-.053.194-.092.059-.039.104-.108.044-.068.081-.201.036-.132.059-.517.023-.386.02-.474-.003-.089-.002-.13 0-.041-.005-.102-.005-.06-.001-.457.003-.397.049-.888.046-.492.058-.778.013-.286.064-.756.05-.47.105-.798.054-.327.081-.534.026-.206.037-.643.01-.437.02-.691.011-.254.04-.759t.05-.781q.022-.276.082-.55.061-.275.163-.637.102-.361.192-.74.09-.378.163-.633.073-.255.145-.48.071-.224.332-.965t.409-1.143q.148-.403.4-.985.251-.581.435-.934.183-.354.494-.801.311-.448.53-.751.22-.303.481-.654.261-.351.49-.637.229-.287.425-.54.195-.254.485-.595.29-.341.493-.563.203-.223.486-.511.283-.288.775-.7.493-.412.755-.627.262-.215.6-.48.339-.265.696-.52.357-.255.567-.418.211-.162.45-.357.239-.195.444-.351.205-.157.5-.413.295-.255.468-.412.172-.158.384-.329.211-.171.71-.529.498-.358.836-.551.337-.192.925-.403.588-.21.89-.304.301-.094.457-.139.156-.045.252-.075.095-.03.116-.04.021-.01.148-.054.126-.044.212-.077t.238-.12l-.006.005q-.027-.015-.32-.06l-.229.003q-.937.003-1.874.005-.937.003-1.874.005l-1.874.006q-.937.002-1.874.005-.937.002-1.874.005-.937.002-1.874.005-.937.002-1.874.005-.937.002-1.874.005t-1.874.005-1.874.005-1.874.005q-.938.003-1.875.005-.937.003-1.874.005-.937.003-1.874.005-.937.003-1.874.005-.937.003-1.874.005l-1.874.006q-.937.002-1.874.005-.937.002-1.874.005-.937.002-1.874.005-.937.002-1.874.005-.937.002-1.874.005t-1.874.005-1.874.005-1.874.005q-.938.002-1.878.003-.94 0-1.894-.009-.953-.009-1.946-.045-.993-.035-2.038-.107t-2.094-.143q-1.049-.071-2.013-.069-.964.003-1.778.135Z"/>
    <path fill="#8b9bac" stroke="#8b9bac" stroke-width=".5" d="M-327.184 1210.928q-.05-.008-.065-.002-.015.005-.09 0-.076-.005-.14.002-.064.008-.113.021-.048.013-.381.139-.333.125-.833.38-.5.256-.839.474-.34.218-.51.331-.171.114-.603.377-.431.263-.728.451-.296.189-.467.3-.17.112-.553.337-.382.225-.661.398-.28.174-.584.371-.304.197-.594.373t-.718.41q-.427.235-.797.431-.37.197-.689.378-.32.182-.675.357-.354.175-.671.325-.317.15-.543.271-.227.121-.35.195-.124.074-.325.206t-.482.339q-.282.207-.403.353-.121.146-.227.309-.106.163-.157.248-.051.085-.063.126-.012.041-.011.109.001.068.05.097.049.03.189.046.141.016.353.014t.599.015q.388.017.809.027.421.01.982.023.561.014.981.027l.717.024q.295.01.622-.003.326-.014.683-.051.358-.037.635-.07.278-.034.477-.063.396-.059.891-.098.494-.04 1.254.066.76.105 1.163.179.402.073.772.11.37.036.727.054.357.018 1.814.057 1.457.04 2.303.047.846.006 1.506-.034.659-.041 1.828-.143 1.17-.102 2.153-.166.984-.064 2.31-.091 1.327-.027 2.037-.039.711-.011 1.498-.027t1.575-.035q.789-.019 1.478.03.688.049 1.444.076.756.027 1.151.02.395-.008.91.019.514.026 1.446-.006.933-.031 1.763-.017.83.014 1.26.037.431.022.767.026.336.003.593-.008.257-.011 1.169-.022.912-.012 1.425.008.512.02.912.052.399.031 1.36.059.481.014.967.027.486.014.977.027.492.013.925.012.433-.001.807-.016.374-.015.763-.042.389-.027.793-.064.405-.038.82-.061.416-.023.845-.028.43-.005 1.045-.011.307-.003.668 0 .36.003.773.013l.777.019q.364.008.837.021.472.012 1.086-.006.613-.018.888-.047.276-.03.623-.065.348-.035.864-.07.515-.034.968-.02.453.014 1.027.075.575.061 1.029.128.453.067 1.059.127.606.061 1.191.095.585.034.873.048.288.014.721.022.433.008 1.079-.019.645-.026 1.191-.046.546-.019 1.013-.016.948.02 1.389.04.441.021.751-.011.311-.031.598-.054.288-.023.742-.052.454-.029 1.06.04.605.068 1.102.153.498.086 1.143.119.645.032 1.388.003.742-.029 1.319-.102.576-.072 1.028-.228.452-.157.866-.279.415-.122.946-.254 1.09-.178 1.663-.233.572-.054.86-.077.288-.023.727-.048.438-.024.942-.018.504.006 1.219.034.715.028 1.271.056.556.029.952.057.791.056 1.589.146.798.09 1.669.154.872.063 1.509.143.638.079 1.086.108.448.028.684.023.236-.005.462-.023.225-.018.787-.045.562-.028.99-.034.428-.006.69-.016.261-.01.587-.025.327-.014.714-.002.387.013.79.027t.727.048q.324.034.607.082.284.048 1.09.101.014-.011.28-.07.005-.026-.097-.171-.103-.146-.346-.43-.243-.285-.555-.575-.312-.289-.664-.567-.353-.277-.614-.479-.26-.203-.526-.4-.265-.197-.498-.387-.234-.19-.584-.438-.35-.247-.555-.4-.204-.152-.39-.341-.185-.188-.523-.497-.338-.31-.562-.525-.223-.214-.358-.353-.135-.139-.217-.22-.083-.081-.366-.333-.283-.251-.635-.546-.352-.296-.563-.486-.211-.19-.243-.215-.033-.024-.132-.108-.099-.084-.22-.179-.12-.095-.193-.146-.073-.051-.2-.132-.127-.081-.131-.086-.004-.006-.316-.204"/>
    <path fill="#8b9bac" stroke="#8b9bac" stroke-width=".5" d="m-258.346 1218.792-.07-.032q-.049-.02-.709-.037-.66-.018-1.228.072t-1.104.268q-.537.179-2.008.827-1.472.647-2.891 1.372-1.419.726-2.084 1.106-.666.38-.98.593-.313.213-.886.643-.572.429-1.096.816-.524.386-.864.68-.34.293-.54.484t-.816.793q-.617.601-.921.941-.304.339-.492.566-.188.227-.919 1.259-.732 1.031-1.147 1.623-.415.591-.759 1.035-.345.443-.76 1.124-.414.682-.623 1.054-.208.372-.315.591-.106.219-.224.508-.118.289-.301.786-.183.497-.315 1.02-.132.524-.248 1.149-.117.626-.205 1.321-.088.695-.119 1.769-.031 1.074-.049 2.33-.019 1.256.023 2.189.041.933.107 1.451.065.517.194 1.278t.195 1.084q.067.322.203.777t.678 2.115q.543 1.66.887 2.692.345 1.033.555 1.516.21.484.348.735.137.251.295.492.158.242.48.671.321.428.616.786.294.357.623.685.329.327.767.693.439.367.689.583.251.216.579.515.329.298 1.136.988.807.69 1.235 1.062.428.372.78.689.352.317.941.856.589.539.892.819.303.28.554.465.252.186.725.594.472.409.681.587.209.178.588.383.379.205.832.374.454.17.886.367.431.197 1.177.541.745.345 1.149.502.404.157.635.227.23.071.444.127l.359.094q.146.039.278.064.132.024.859.247.728.222 1.184.381.456.158 1.374.262.919.103 1.876.148.958.046 1.517.03.559-.015 1.627-.225 1.069-.211 1.603-.321.535-.111 1.212-.216.678-.106 1.384-.289.707-.182 1.113-.318.405-.136.754-.245.349-.108.538-.167.188-.059.73-.265.541-.206.8-.317.259-.111.586-.225.327-.115.827-.338.5-.223.689-.317.19-.093.379-.172.189-.079.502-.24.313-.161.733-.479.42-.319.923-.736.503-.418.625-.554.122-.135.462-.516.339-.381.523-.583.183-.203.633-.706.45-.503.757-.864.307-.36.45-.539.143-.178.326-.401.183-.223.266-.341.083-.117.397-.507t.517-.649q.203-.26.342-.469.138-.209.225-.336.087-.128.227-.325.141-.197.258-.363.118-.166.255-.385.136-.219.291-.463.155-.243.257-.404.102-.16.276-.456.174-.296.403-.689.228-.394.432-.842.205-.449.437-.979.233-.531.356-.788.122-.256.31-.726.189-.47.462-1.461.274-.99.408-1.498.133-.508.251-.875.118-.368.183-.583.066-.215.241-.823t.241-.967q.067-.359.104-.969.037-.611.047-.93.009-.319.014-.611.005-.291.031-.693.027-.402.041-.585.014-.184-.002-.539-.016-.355-.017-.846v-.793q-.001-.304-.017-.379-.016-.074-.055-.472-.039-.397-.085-.649-.046-.251-.085-.361-.039-.11-.119-.35-.081-.239-.187-.558-.106-.319-.276-.668-.17-.348-.291-.643-.12-.295-.242-.64-.122-.347-.331-.801-.209-.455-.308-.68-.099-.225-.212-.485-.113-.259-.205-.454-.092-.194-.115-.219-.023-.026-.216-.46-.193-.433-.382-.845-.188-.412-.337-.709-.149-.297-.249-.502-.1-.206-.272-.456-.171-.25-.291-.425-.121-.175-.314-.511-.194-.336-.25-.448-.056-.113-.346-.577-.29-.465-.48-.769-.19-.303-.446-.643-.256-.339-.453-.615-.197-.276-.293-.42-.096-.144-.323-.358-.227-.215-.394-.374-.168-.159-.278-.283-.11-.124-.176-.189-.065-.064-.37-.298-.305-.233-.484-.375t-.234-.19q-.055-.048-.282-.192-.227-.143-.514-.29-.287-.147-.458-.246-.171-.098-.381-.23-.211-.132-.348-.222-.137-.091-.318-.203-.182-.113-.449-.276-.267-.162-.699-.443-.431-.281-.703-.457-.273-.176-.472-.286-.199-.11-.592-.344-.392-.235-.402-.244-.009-.009-.252-.149-.243-.141-.428-.234-.186-.093-.496-.315-.31-.221-.471-.339-.161-.118-.392-.225-.232-.107-.465-.181-.233-.073-.354-.116-.12-.043-.356-.158-.237-.114-.424-.18-.186-.065-.461-.128-.275-.064-.369-.087-.094-.024-.375-.188-.281-.163-.451-.282-.17-.119-.264-.211-.095-.092-.106-.108-.011-.016-.252-.245"/>
    <path fill="#8b9bac" stroke="#8b9bac" stroke-width=".5" d="m-236.673 1219.201.005.011q-.001.005.038.382.039.378.118 1.123.079.744.117 1.131.038.386.044.575.006.189-.004.749-.01.561-.027 1.261-.017.699-.124 1.129l-.026.006q-.04-.005-.042-.003-.002.001-.065-.054l-.143-.125q-.079-.069-.171-.16-.092-.09-.167-.179-.075-.09-.306-.284-.23-.195-.382-.31-.151-.114-.307-.248-.155-.134-.335-.259-.181-.124-.398-.235-.217-.112-.534-.336-.317-.225-.5-.366-.182-.141-.34-.246-.157-.106-.385-.293-.229-.188-.353-.285-.124-.098-.204-.148-.08-.05-.208-.109-.128-.058-.277-.13-.149-.073-.266-.146-.116-.073-.27-.151-.154-.079-.337-.137-.183-.058-.335-.11-.151-.052-.372-.192-.222-.141-.395-.254-.173-.113-.27-.163-.097-.05-.252-.136-.154-.086-.255-.155-.101-.068-.213-.154-.111-.086-.363-.227-.252-.141-.41-.223-.157-.081-.247-.124-.09-.042-.127-.057-.036-.014-.183-.079-.147-.064-.27-.119-.122-.055-.176-.073-.054-.019-.189-.059-.135-.041-.193-.058-.058-.018-.115-.036t-.103-.03q-.045-.011-.098-.018-.053-.006-.098-.008-.044-.003-.113.004-.069.006-.113.014-.044.007-.088.009-.044.002-.141.023"/>
    <path fill="#f1617d" stroke="#f1617d" stroke-width=".5" d="M-303.977 1256.473q-.023.006-.233.017-.211.012-.521.096-.31.083-.501.165-.191.081-.411.2-.22.119-.361.221-.142.101-.303.227-.162.126-.298.228l-.189.142q-.051.039-.202.161-.15.123-.356.308t-.362.364q-.156.179-.23.282-.074.103-.209.302-.134.198-.247.379-.113.181-.278.685-.166.502-.25.85-.084.348-.118.52-.034.172-.05.273-.016.101-.071.477-.056.376-.075.681-.018.304.007.758.025.455.047.72.022.266.081.6.059.334.121.573.061.238.205.69.143.453.238.675.095.222.29.615.194.394.372.663.177.269.283.39.106.122.246.265.141.142.357.296t.527.304q.311.15.579.287.267.136.643.291.377.155.575.231.198.075.364.118.165.043.323.069l.442.07q.284.044.524.072.239.028.505.077t.442.075q.175.026.405.02.23-.006.539-.012.308-.006.452-.008.145-.002.461-.059.316-.056.488-.106.173-.049.248-.082.075-.033.508-.216.432-.183.65-.294.217-.111.314-.17.097-.059.165-.101.067-.041.273-.173.206-.132.388-.286.182-.153.329-.277.147-.124.304-.29.157-.166.281-.335l.18-.246q.057-.078.092-.131.035-.052.12-.165.085-.111.166-.226.082-.114.129-.199.048-.085.149-.284.102-.198.17-.365.067-.166.158-.425t.136-.406q.046-.146.131-.548.084-.402.131-.634.046-.231.056-.328.01-.097.042-.351.032-.253.05-.451.018-.198.016-.865-.002-.666-.022-1.017-.021-.35-.045-.572-.025-.222-.051-.358-.026-.135-.101-.383-.074-.248-.132-.43-.057-.182-.099-.281-.042-.098-.076-.165-.035-.068-.059-.109-.025-.041-.19-.348-.165-.308-.335-.495-.171-.187-.264-.273-.094-.087-.161-.14-.068-.053-.162-.11-.095-.057-.233-.167-.138-.11-.293-.213-.156-.104-.284-.161-.129-.056-.465-.237-.336-.18-.486-.245-.15-.065-.274-.122-.124-.057-.28-.148-.157-.091-.301-.156-.143-.065-.252-.107-.108-.042-.153-.06-.045-.018-.123-.053-.077-.036-.225-.073-.148-.036-.262-.048-.114-.012-.256-.036"/>
    <path fill="#504695" stroke="#504695" stroke-width=".5" d="M-298.333 1259.894q.025-.021.106-.161.081-.14.007-.513-.074-.374-.249-.707-.175-.334-.321-.56-.157-.232-.488-.57-.332-.337-.853-.768-.04-.017-.283-.096-.244-.078-.425-.114-.181-.036-.442-.051-.261-.014-.673-.01-.412.004-.983.106-.572.102-1.058.262-.486.16-1.009.389-.523.229-.84.437-.316.208-.513.386-.197.177-.318.304-.122.127-.217.221-.096.095-.223.215-.126.12-.207.206-.081.087-.203.248-.122.161-.319.428t-.341.476q-.145.209-.274.436-.13.226-.179.339-.049.113-.291.688-.243.575-.386 1.134-.143.559-.121.986.022.427.078.722.055.296.113.521.059.225.088.315.029.091.036.118.007.027.076.206.07.179.121.295.051.117.193.409.141.293.218.455.077.163.176.379.1.216.183.386.083.171.113.225.03.054.036.068.006.014.119.213.114.2.195.315.081.115.325.368t.41.395q.166.142.568.408.401.267.733.483.331.215.526.346.195.131.343.217.147.087.21.117.064.029.579.22.515.191.804.237.288.046.651.011.364-.036.551-.068.188-.033.346-.048.157-.015.389-.02.231-.005.548-.049.317-.044.572-.109.255-.066.525-.138.271-.072.518-.166.247-.094.347-.134.099-.041.301-.114.201-.073.261-.096.059-.023.264-.114l.392-.172q.186-.081.281-.127.095-.046.163-.089.068-.044.186-.114.119-.071.196-.115.076-.045.127-.077.05-.032.088-.058.038-.027.104-.076.066-.05.292-.254.226-.204.353-.333.127-.128.344-.402.218-.274.347-.48.13-.207.309-.675.18-.467.264-.803.085-.336.116-.559.031-.224.047-.635.017-.41.019-.602.003-.192-.015-.379-.017-.186-.077-.609t-.104-.662q-.044-.239-.07-.465-.026-.226-.099-.559-.073-.334-.122-.494-.048-.161-.111-.33-.062-.169-.21-.465-.147-.296-.216-.425-.068-.13-.249-.389-.181-.26-.294-.407-.113-.148-.172-.216-.059-.069-.118-.128t-.158-.18q-.098-.12-.176-.211-.078-.092-.163-.182-.085-.091-.329-.373l.011-.005q.013-.012.056.023.043.036.1.095.057.059.096.122.04.062.06.097.021.036.03.235-.015.029-.132.102-.118.073-.207.122t-.125.079q-.037.03-.109.096-.072.066-.076.073-.004.007-.156.189-.151.183-.235.314-.084.131-.168.428-.083.298-.1.456-.017.158-.004.33.014.172.083.418.07.246.124.417.055.172.094.282.04.111.063.169.024.059.089.288.066.229.114.452.047.223.067.517.02.294.014.441-.005.147-.041.411-.036.264-.075.416-.04.152-.13.378-.091.226-.131.307-.04.081-.082.153-.041.071-.051.081-.009.011-.112.153-.103.143-.168.232-.064.09-.297.362-.232.272-.409.437-.177.165-.397.337-.22.171-.323.244-.103.073-.199.123-.096.05-.105.054-.009.004-.154.076t-.447.168q-.302.096-.551.146-.248.051-.401.068-.153.017-.255.021-.102.003-.523-.025-.421-.028-.633-.074-.212-.045-.355-.09-.142-.045-.225-.082-.083-.037-.169-.075-.087-.038-.136-.058-.05-.021-.277-.178-.227-.158-.511-.405-.284-.248-.43-.405-.146-.157-.228-.249-.082-.093-.134-.151-.052-.058-.172-.217-.12-.16-.177-.248-.058-.088-.115-.181t-.156-.277q-.099-.183-.183-.47-.085-.286-.126-.552-.041-.265-.066-.633-.024-.368-.016-.617.009-.25.056-.513.047-.264.091-.417.044-.153.078-.234.033-.081.064-.155.032-.075.196-.412.165-.337.193-.384.029-.047.091-.146.063-.1.178-.229.115-.13.253-.261t.316-.292q.177-.161.303-.244.125-.084.256-.154.13-.07.27-.146.139-.075.249-.129.11-.053.191-.086.082-.034.375-.125.293-.092.481-.124.187-.031.361-.053t.578.02l.382.062q.384.127.748.275.365.147.728.286.364.139.734.269.37.129.741.233Z"/>
    <path fill="#504695" stroke="#504695" stroke-width=".5" d="m-299.759 1259.204.015.015q.099.031.434.325.334.294.5.476.166.182.244.279.077.098.174.248.097.151.321.411.224.261.416.416.192.155.432.249.039-.022.183-.106.144-.084.297-.251.153-.167.297-.386.145-.22.208-.338.064-.118.098-.206.033-.088.073-.238.04-.151.055-.25.014-.1.013-.16-.002-.059-.009-.126-.006-.067-.014-.113-.007-.046-.016-.075-.009-.029-.051-.105-.042-.075-.064-.112-.023-.036-.043-.069-.021-.033-.024-.036-.003-.004-.072-.116-.069-.113-.137-.212-.067-.099-.133-.18-.066-.081-.111-.139-.046-.057-.102-.13-.056-.074-.164-.209-.107-.136-.201-.257-.094-.121-.139-.174-.044-.054-.092-.103-.048-.048-.176-.175-.127-.127-.214-.208-.086-.081-.15-.128t-.15-.087q-.087-.04-.179-.085-.092-.046-.142-.069-.05-.023-.143-.058l-.145-.053-.131-.047q-.078-.028-.236-.057-.158-.029-.286-.057-.128-.028-.236-.048-.108-.02-.182-.027-.073-.007-.145-.017-.073-.01-.116-.021-.044-.011-.234-.03-.191-.02-.297-.028-.106-.008-.32.038.137.343.274.689.137.346.274.699t.273.715q.137.361.273.726Z"/>
    <path fill="#6c7a8c" stroke="#6c7a8c" stroke-width=".5" d="m-335.788 1219.312.024.011q.038.028.053.028.014-.001.235.004.22.005.855-.012.636-.017.998-.019.362-.001.749.019.386.02.852.03.466.01.743-.003.277-.012.52-.025.243-.012.388-.019.145-.006.372-.019.227-.012.632-.047.406-.035.664-.054.258-.019.48-.028.222-.008.681-.01.459-.002.762.009t.598.021q.295.01.472.013.176.003.266.008.09.004.175.012.084.008.167.028.082.021.178.043.095.023.232.059l.167.043q.032.007.129.048.098.041.23.113.131.072.436.267.305.196.549.377.122.09.316.239t.46.357q.266.207.545.42.28.212.573.43.292.218.53.389.238.172.512.36.275.187.457.322.183.135.287.221.105.085.171.142.067.057.145.123.077.067.16.13.082.063.305.193.223.13.402.237.178.108.281.187.104.078.268.194.164.116.343.233.179.117.282.208.103.092.135.125.033.034.105.104.072.069.104.108.033.039.072.096.04.056.085.115.046.058.093.145l.042.115q.042.098.079.405.037.307.05.801.014.493-.01.779-.023.285-.039.66-.016.374.002.816.019.441.028.766.008.324.011.681l.006.699q.003.342.007.669.004.328-.004.637-.007.309-.026.599-.037.581-.051 1.195l-.021.919q-.008.304-.018.502-.01.199-.023.525-.013.327-.025.555-.011.229-.024.382-.014.153-.022.455-.008.303.004.753t.014.751q.001.3.014.508.013.208.022.396.01.188.018.444.008.257.016.549.008.292-.002.548-.01.255-.024.568-.014.312-.009.475.005.163.017.45.012.286.002.915-.009.629-.02.942-.011.314-.026.479-.015.165-.02.264-.004.099-.024.423-.021.324-.065.512t-.076.266q-.032.077-.049.116-.017.038-.096.069-.08.031-.164.054t-.44.071q-.356.048-1.05.03-.694-.018-1.055-.042-.361-.025-.55-.021-.189.003-.471.036-.281.032-.506.058-.225.026-.498.066-.274.04-.431.05-.158.011-.215.005-.058-.006-.351-.04-.294-.033-.597-.202-.047-.066-.06-.094-.013-.028-.2-.592-.187-.565-.265-.9-.077-.335-.105-.483-.028-.148-.034-.534-.007-.387-.002-.712.005-.325.006-.564.002-.239.034-.621.033-.382.033-.738 0-.357-.018-.557l-.038-.401q-.019-.199-.024-.356-.004-.157.009-.419.014-.262.015-.779.001-.517-.009-.784-.01-.268-.014-.512-.004-.243-.019-.446-.016-.203-.05-.549-.033-.347-.05-.779-.017-.433-.015-.753.002-.32.027-.626.026-.305-.003-.749-.028-.443-.056-.775-.029-.332-.041-.58-.012-.248-.029-.419-.017-.17-.053-.315-.036-.144-.071-.296-.035-.151-.056-.312-.021-.16-.047-.422t-.028-.412q-.002-.151.009-.345.011-.194.01-.428-.001-.233.046-.57.046-.337.107-.613.061-.277.119-.497.058-.221.07-.289.012-.068.03-.163.018-.094.023-.131.005-.038.006-.116l.002-.144q0-.064-.009-.155-.009-.09-.013-.121-.004-.032-.017-.081-.013-.049-.035-.136-.347-.226-.695-.452-.348-.227-.696-.453t-.696-.453l-.696-.452q-.347-.226-.695-.453l-.696-.452q-.348-.227-.696-.453l-.696-.452q-.348-.227-.696-.453t-.696-.453q-.349-.226-.701-.453-.351-.227-.713-.456-.363-.229-.75-.463-.388-.234-.817-.476-.43-.242-.892-.49-.463-.248-.922-.496ZM-324.327 1277.875q-.14.125-.163.14-.022.015-.295.266-.272.25-.636.659-.363.408-.679.75-.316.342-.566.615-.251.272-.413.474-.162.201-.224.282-.061.081-.094.127-.032.045-.043.068-.011.023-.043.108-.033.085.013.279.261.137.553.225.292.088.48.118.187.03.403.035.215.004.747.051.531.046.911.082.379.035.894.067.514.032 1.418-.002.904-.035 1.318.009.415.043 1.044.065.629.021.946.022.316.002.828.036.511.035 1.161.028.65-.007.985-.025.335-.019.696-.038.36-.02 1.28-.021.919-.001 1.497-.007.579-.006.847-.004.269.001.734.029.465.028.954.015.489-.013.799-.043.31-.03 1.089-.116.779-.085 1.3-.138.52-.054.948-.078.428-.025.648-.032.221-.006.644-.02.422-.015.639-.017.217-.004.705-.016.487-.013.777-.011.289.002.558.014.27.012.576.008.307-.005.481-.003.173.001.255.005.082.004.195.012.113.009.333.016.22.008.78-.007.56-.016 1.093-.011.534.004 1.018.002t.848-.004q.364-.001 1.003-.002.639-.001 1.178.009.539.01.823.018.283.007.69.007h.634q.226 0 .804.009.577.01 1.016.033.438.023 1.94.092 1.501.069 2.294.11.794.041 1.354.056.559.016.852.019l.838.006q.546.005.844.007.298.003.597 0 .299-.002.834-.016.534-.013.816-.019.281-.006.684-.001.402.004 1.535.033 1.133.03 1.841.018t1.365-.03q.656-.017 1.315-.042.658-.025 1.611-.055.954-.03 1.556-.042.601-.011.995-.01.394.001.623.004.23.002.797.022.567.02.902.036.336.015.709.031.374.015.614.021.241.006.899.059t1.346.18q.687.127 1.512.177.825.049 1.235.031.41-.019.598-.044.189-.024.347-.057.157-.033.208-.047.05-.014.342-.088.291-.073.675-.142.385-.068.704-.125.32-.058.707-.121.386-.063.713-.1.328-.037.727-.058.4-.021.546-.028.146-.007.656.016.51.022.791.013.28-.01.356-.016.075-.006.162-.024.086-.019.208-.054.121-.036.194-.067.073-.032.166-.088.093-.056.153-.106.061-.051.095-.09.034-.04.082-.133.047-.093.129-.468.083-.375.109-.656.027-.282.03-.683.004-.4-.001-.632-.006-.232-.02-.452-.014-.221-.016-.343-.002-.123.02-.548.023-.425.025-.494l.008-.19q.005-.12-.002-.306-.006-.185-.021-.423-.016-.238-.02-.377-.005-.139-.016-.313-.012-.174-.015-.253-.002-.079-.003-.159t0-.173q0-.093-.003-.127t-.022-.173q-.018-.14-.031-.309-.012-.168-.031-.271-.019-.103-.041-.183-.023-.081-.057-.212-.033-.13-.055-.186-.022-.055-.05-.106-.028-.051-.034-.056-.007-.004-.124-.181-.191-.106-.469-.17-.277-.064-.445-.076-.168-.013-.926-.046-.759-.032-1.196-.044-.437-.013-.882.003-.444.015-.674.025-.231.01-.397.015-.167.004-.687.021-.521.017-.835.028-.313.01-.42.012-.106.001-.372.002t-.512.007q-.245.007-.371.018t-.448.032q-.322.02-1.061.036-.738.016-1.13.024-.391.008-1.233-.002-.842-.009-1.377-.012-.534-.003-.827.002-.292.005-.81 0-.518-.004-.78-.002t-.69.023q-.428.02-.73.039-.302.018-.701.05-.398.031-.846.031-.447-.001-1.03-.008-.582-.007-.925-.002-.342.005-.567.009-.224.004-.436.017-.213.013-.734.007-.522-.007-.843-.012-.32-.005-.502-.002t-.33-.001q-.148-.004-.407.005-.258.008-.888.005-.63-.004-.936-.016-.305-.012-.505-.022-.199-.01-.554-.042-.354-.032-.593-.047-.239-.014-.397-.021-.159-.007-.626-.028-.468-.022-.76-.028-.293-.006-.507-.015-.214-.009-.221-.01-.007-.002-.155-.009-.147-.007-.533-.048-.385-.041-.588-.066-.204-.025-.288-.036-.083-.01-.164-.016-.08-.005-.216-.008-.135-.002-.332-.006-.196-.005-.31-.003-.114.003-.16.009-.047.005-.136.009-.089.005-.116.003-.028-.002-.092.004-.063.006-.137.021-.073.014-.11.022-.036.009-.118.021-.082.012-.106.019-.023.007-.079.02-.056.013-.146.051-.09.037-.14.088-.05.051-.092.128-.042.078-.128.315-.086.236-.111.522-.025.287-.023.487.002.201-.04.55-.042.35-.06.582-.017.233-.014.431.004.198.021.315.018.118.033.291.016.173.026.265.01.093.023.156.013.062.027.182.013.119.021.233.008.114.003.173-.005.059-.021.241-.02.169-.019.195l-.087.211M-349.378 1217.81q-.026.03-.059.233-.001.017.223.155.223.138.427.209.203.071.409.101.205.031.632.061.426.031.988.089.563.058 1.132.079.569.021.928.042.36.02.704.047.345.026.524.034.179.008.667.004.489-.004.793-.01.304-.006.436-.007.132 0 .288-.032.157-.032.275-.086l.024-.022q.119-.091.139-.099.02-.008.096-.058t.104-.072q.027-.021.144-.1.117-.078.212-.141.094-.063.21-.158.116-.095.224-.177.108-.082.179-.129.071-.048.344-.225.274-.178.769-.446t.782-.435q.288-.167.464-.278.177-.112.322-.192.145-.081.252-.138.107-.057.339-.219.232-.163.422-.317.19-.154.398-.34.208-.185.469-.378.261-.192.421-.304.16-.111.367-.255.207-.143.482-.294.276-.151.657-.374.382-.224.509-.3.127-.076.177-.108l.222-.139q.172-.106.392-.226.22-.119.504-.293.285-.173.42-.248.135-.075.398-.201t.735-.345q.472-.219.615-.3.143-.081.226-.129.082-.047.126-.07.045-.024.238-.133.193-.109.295-.175.102-.067.167-.099.066-.032.099-.049.033-.016.067-.04.035-.024.087-.065.052-.04.097-.08.045-.041.096-.12.051-.079.055-.083.004-.004.082-.258t.096-.447q.019-.194.018-.372-.001-.179.013-.507.013-.329.027-.484.013-.155.013-.293 0-.138.001-.229.001-.092.006-.205.005-.114.018-.284.012-.17.012-.353-.001-.183.005-.476.005-.295.011-.413.007-.119-.003-.231-.009-.112-.021-.275-.012-.163-.016-.221-.004-.059-.02-.141-.017-.082-.045-.309-.012-.105-.011-.133 0-.028-.019-.128t-.034-.194q-.016-.095-.07-.298-.055-.203-.093-.334-.038-.132-.14-.346-.103-.215-.194-.352-.091-.137-.15-.206-.058-.069-.103-.114-.045-.044-.065-.064-.021-.019-.313-.208-.292-.188-.615-.309t-.805-.203q-.482-.081-.861-.094-.379-.013-.939-.062l-.149.011"/>
    <path fill="#6c7a8c" stroke="#6c7a8c" stroke-width=".5" d="m-329.828 1201.921.037.044q.003.046.211.65.208.605.384 1.014.177.409.286.612.109.204.164.283.054.079.097.126.043.047.071.068.028.021.051.033.023.011.184.092t.484.109q.323.029.552.038.229.01.734.04.504.03.828.049.323.019.586.055.264.036.782.041.518.005 1.232-.056.713-.061 1.037-.101.324-.04.879-.072.554-.032 1.022-.039.468-.006.691-.02.222-.013.705-.037.482-.025.759-.031.277-.007.624-.031t.68-.051q.333-.028.56-.048.228-.021.784-.074.556-.054 1.138-.046.581.008.849.007.267-.001.515.006.249.007.496.005.248-.003.667.019.42.021.636.042.215.022.378.029.163.008.261.013.098.004.252.009.154.004.256-.003.102-.007.2-.029.098-.022.23-.051.131-.028.237-.068.106-.041.15-.066.043-.026.078-.058.035-.031.139-.175.103-.143.138-.224.034-.081.086-.235.052-.154.103-.338.052-.184.071-.29.018-.106.016-.203-.001-.098-.001-.17.001-.073.005-.159.005-.086.01-.14.005-.054.008-.174.003-.121-.004-.242-.006-.122-.007-.16 0-.039.009-.144.009-.106.014-.397l-1.253.06q-.626.03-1.252.061l-1.252.06q-.626.03-1.253.061l-1.252.06q-.626.03-1.252.061l-1.253.06-1.252.06q-.626.031-1.252.061-.627.03-1.256.059-.629.03-1.272.054-.644.025-1.345.031-.701.007-1.517-.023-.816-.031-1.709-.085-.893-.055-1.661-.07-.767-.014-1.323.038Z"/>
    <path fill="#6c7a8c" stroke="#6c7a8c" stroke-width=".5" d="M-310.278 1203.374q.024.056.291.482.266.427.601.836.335.41.607.72.272.31.517.634t.355.47q.109.147.238.432.129.286.188.429.06.143.126.262.067.12.105.181.039.062.069.141.031.08.072.142.066.165.089.214.022.05.04.107.018.056.054.155.035.098.036.104.001.006.043.182.041.175.043.199.003.025.01.075.008.05.021.554.014.505.135 1.065l.07.047q.007.013.099.044.092.032.47.061.378.03.77.047t.779.001q.387-.016.818-.074.431-.059.685-.077.254-.019.832-.006.578.012 1.287.004.708-.008 1.202.01.493.019.807.054.315.035.56.052.245.017 1.039.018.794 0 1.344.018.55.017.951.061.4.044.752.078.351.034.861.048.51.014.932.015.422.001.926-.006.505-.007.974-.009.47-.003.905-.002.435.001.763-.001.329-.001.551-.006.223-.004.61-.029t.939-.071q.551-.046 1.069-.08.518-.034 1.001-.055.483-.022.841-.036.358-.015.592-.022.233-.007.62.003.388.011.93.04.542.028.967.051l.888.048q.462.025.84.027.378.002.958.003.579.001.859.004l.63.009q.35.005.87-.001.521-.006.962-.035.44-.029.793-.066.352-.038.767-.087.416-.049.887-.097.47-.048.81-.049.34-.002.686.01.345.011.583.027.238.015.557.032.319.018.808.024.489.007.896-.008.407-.015.882-.046.475-.031.834-.035.359-.004.508-.003.074.001.446.004.371.003 1.042.012.672.009 1.181.01.509.002.995.031.485.03.913.032.428.002.594-.006.166-.008.821-.048.656-.041 1.272-.051.617-.009 1.014-.004.397.006.796-.008.398-.015 1.039-.04.641-.025 1.26-.023.618.001.938-.032.32-.033.497-.064t.295-.047q.118-.015.353.021.235.036.33.054.096.017.28.073.185.055.375.081.191.025.365.024.174-.002.252-.006.078-.004.162-.01.084-.005.308-.102-.012-.04-.044-.124-.032-.084-.118-.234-.087-.149-.579-.532-.493-.383-.808-.579-.315-.196-.524-.306-.21-.111-.51-.296-.301-.184-.502-.325-.202-.141-.375-.25-.173-.11-.441-.244-.267-.134-.447-.233-.181-.099-.339-.223-.157-.124-.342-.252-.185-.127-.291-.192-.107-.065-.283-.203t-.533-.372q-.357-.235-.569-.362-.213-.127-.317-.19-.104-.063-.191-.114-.087-.051-.137-.077-.051-.026-.069-.037-.018-.011-.136-.061-.119-.049-.248-.071-.13-.023-.397-.032-.267-.008-.489-.004-.222.003-.598.024t-.866.016q-.49-.005-.774-.027-.283-.021-.631-.083-.347-.061-1.233-.075-.885-.014-1.361-.013-.476.002-.7 0-.224-.002-.451-.005-.227-.004-.413-.009-.185-.005-.236.002-.051.006-.157-.009-.68-.01-1.361-.021l-1.361-.02q-.681-.011-1.362-.021-.68-.011-1.361-.021-.681-.01-1.361-.021-.681-.01-1.362-.021l-1.361-.02q-.681-.011-1.361-.021-.681-.011-1.362-.021-.68-.01-1.361-.021-.681-.01-1.361-.021l-1.362-.02q-.68-.011-1.361-.021-.681-.011-1.361-.021-.681-.01-1.362-.021-.68-.01-1.361-.021l-1.361-.02q-.681-.011-1.362-.021-.68-.011-1.361-.021-.681-.011-1.361-.021-.681-.01-1.362-.021-.68-.01-1.361-.021l-.681-.01q-.34-.005-.68-.011-.341-.005-.681-.011-.34-.006-.68-.014-.339-.009-.677-.025-.337-.016-.671-.049t-.66-.097q-.326-.063-.644-.167-.317-.103-.629-.241t-.631-.287q-.319-.148-.663-.284-.344-.135-.74-.229-.397-.093-.854-.184-.457-.092-.945-.271-.488-.179-.956-.467-.468-.287-.9-.558-.433-.271-.759-.189-.327.083-.603.356-.275.274-.521.673-.245.4-.499.795Z"/>
    <path fill="#484551" stroke="#484551" stroke-width=".5" d="m-327.345 1210.597-.004-.012-.011-.039q-.007-.1-.034-.523-.027-.423-.05-.692-.023-.27-.06-.508-.037-.239-.07-.464-.034-.226-.037-.579-.003-.353.017-.598.021-.245.044-.5.022-.255.029-.372.007-.117.005-.197-.002-.079.002-.208.003-.129.004-.221.001-.093-.008-.181-.01-.089-.005-.154.004-.066.007-.097l.007-.053q.004-.021.005-.027.001-.005.016-.031.015-.025.042-.044.027-.02.081-.042.055-.021.291-.067.237-.045.409-.054.172-.008.363 0 .191.009.354.008.162 0 .345-.009.183-.009.4-.019.216-.009.473-.001.258.007.398.016.14.009.273.006.133-.002.415-.021.282-.019.557-.018.276.001.741-.011.466-.011.932-.009t.721-.004q.254-.006.372-.006.119-.001.182 0 .063.002.113.002t.264.015q.215.015.371.034.155.019.356.033.201.014.328.009.127-.006.802-.012.676-.007 1.014-.003.338.003.718-.004.38-.006.609-.01.229-.004.426-.021.197-.017.444-.035.246-.018.588-.025.343-.008.667.007.324.016.505.035.181.02.279.027.098.008.568.003.47-.006.748-.012.277-.005.399-.003.121.002.19.009.068.006.191.011.123.005.206.008.084.002.181.008.097.006.231.023t.221.037q.088.021.162.053.074.031.094.044.021.012.092.055.07.043.119.075.048.033.086.065.039.031.122.126.083.095.181.199.097.104.177.197.08.093.127.16t.125.207q.079.139.173.287.095.149.216.301t.19.249q.07.096.169.281.1.185.175.337.075.153.109.224.033.071.136.205.102.133.164.209.062.076.093.126.032.051.051.091.02.04.055.096.036.057.086.132.05.075.064.102.013.026.043.1.03.073.042.12.013.048.021.075l.018.056q.01.028.015.079.005.051.006.054.002.003-.003.152t-.038.321q-.033.172-.083.423-.049.251-.061.31-.012.059-.016.1-.005.042-.006.055-.001.013.01.05.012.036.02.055.008.018.008.023 0 .005.012.029.012.025.022.054.01.029.017.045.007.015.021.066-.679-.05-1.368-.11-.688-.059-1.356-.096-.667-.038-1.314-.052-.647-.014-1.286-.02-.64-.006-1.278-.011l-1.276-.01q-.638-.004-1.276-.009-.638-.005-1.275-.009-.638-.005-1.276-.009l-1.276-.01q-.638-.004-1.276-.009-.638-.005-1.276-.009l-1.276-.01q-.638-.004-1.276-.009-.638-.005-1.276-.009-.639-.005-1.278-.011Z"/>
    <path fill="#a4daef" stroke="#a4daef" stroke-width=".5" d="M-308.373 1225.202q-.023.057.001.854.023.797.033 1.389.01.593-.019.916-.029.324-.078.8-.048.475-.06.8-.012.325-.045.637-.033.311-.025.714.009.403.018.604.009.201.01.456.001.255-.005.649-.005.394-.003.793.003.4.007.586.005.186.008.338.004.151.004.51.001.359-.013.656-.013.296-.06.902-.047.606-.035.814.013.207.047.351.034.143.054.184.02.041.032.058.011.016.143.091.133.075.384.107.252.031.634-.007.381-.038.764-.119.382-.082.91-.14.529-.057.813-.059.285-.002.389-.007.105-.005.696.019.592.025 1.022.037.429.012.685.009.256-.003.565-.02.308-.017.636-.044.328-.027.673-.018.346.01.641.011.294.002.577-.027.283-.028.86-.017.577.012.893.038.316.026.606.028.29.003.565.011.276.008.634.025.359.018.624.03t.52.015q.255.004.49-.003t.615-.002q.38.005.688.008.308.002.734-.035.426-.037.827-.039.4-.003.694.004.293.008.613.024.319.017.573.034.253.018.534.047.281.028.787.083.506.055 1.002.07.496.015.758.006.263-.009.457-.033t.406-.045q.211-.022.394-.022.184 0 .451-.013.268-.013.4-.03l.169-.022q.038-.004.254-.124.011-.006.043-.099.033-.094.048-.18.015-.087.014-.249-.001-.163-.018-.35-.018-.187-.025-.432-.007-.246-.039-.591-.033-.346-.045-.623-.012-.277 0-.615.011-.338.01-.607-.001-.27-.019-.439-.018-.169-.004-.384.013-.215.027-.402.013-.188.02-.304.006-.115-.016-.276-.022-.161-.032-.454-.009-.292-.01-.491-.001-.198-.019-.304-.018-.107-.005-.339.012-.233.038-.437t.021-.362q-.004-.159-.012-.34-.009-.182-.007-.406.001-.223-.011-.36-.012-.136-.037-.267-.025-.132-.03-.427-.005-.296.002-.476.007-.181 0-.393-.007-.212.011-.425.017-.213.024-.271.007-.059.033-.306.025-.248.031-.377.006-.129.003-.189-.003-.061-.004-.086-.001-.026-.009-.037l-.016-.062q-.402-.013-.798-.023t-.787-.019q-.392-.009-.781-.017l-.778-.016-.778-.016-.778-.016-.778-.016-.777-.016-.778-.016-.778-.016-.777-.016-.778-.016-.777-.016q-.389-.008-.778-.015-.389-.009-.778-.016l-.777-.016-.778-.016-.778-.016-.777-.016-.778-.016-.777-.016-.778-.016-.778-.016-.777-.016-.778-.016-.778-.016-.777-.016-.778-.016-.778-.016-.777-.016-.778-.016-.777-.016ZM-258.369 1231.784l-.102.025-.118.054q-.029.023-.338.154t-.661.304q-.351.172-.54.26-.188.087-.498.22-.309.132-.464.215-.154.084-.502.288-.348.203-.591.373-.244.169-.494.375t-.446.353q-.197.146-.427.369-.231.223-.348.36-.118.137-.386.44-.268.304-.48.578-.212.273-.445.553-.233.279-.393.502-.159.224-.433.663-.273.439-.438.749-.164.31-.21.391-.047.08-.139.33-.092.25-.127.348-.035.098-.209.637-.173.539-.248.821-.074.281-.114.445-.04.165-.053.293-.013.127-.041.397l-.037.37q-.009.099-.019.434-.011.336-.017.54-.005.205.004.424.009.219.014.634.005.415.009.678.003.263.008.354.004.09.014.283.009.194.017.519.008.326.02.589.011.263.038.563.027.3.127.625.101.324.173.518.071.193.144.362.072.168.259.543.188.374.347.681.16.308.237.44.077.133.122.202.045.068.133.207.088.139.195.309.106.171.246.391.141.221.363.498.222.278.363.449.141.171.206.255.064.084.208.259.143.176.379.397.236.221.36.333.124.112.176.162.053.051.122.127.07.076.232.213t.439.361q.277.225.497.386.219.161.464.307.245.145.441.253.196.107.71.282.515.176.733.255.218.079.544.172.327.094.47.138.144.045.334.116.19.072.424.145.234.073.522.119.289.046.488.087.2.041.351.092.151.051.333.109.183.058.455.1.273.043.438.059.164.016.398.066.233.05.518.066.285.016.561.014.276-.002.439-.007.164-.004.348-.048.185-.043.482-.115.297-.071.547-.149.249-.077.369-.124.119-.047.203-.078.084-.032.365-.123.282-.091.448-.151.165-.06.461-.194.296-.134.65-.266.353-.133.565-.202.212-.069.435-.127.224-.059.349-.1.125-.04.193-.068.067-.028.272-.14.205-.111.449-.241.244-.129.423-.241.179-.113.378-.263.2-.149.367-.267.167-.117.311-.206.143-.089.671-.637.529-.548.788-.845.26-.296.479-.574.219-.279.318-.417.098-.137.204-.281.105-.143.297-.44.191-.297.293-.486.102-.189.17-.348.068-.16.377-.872t.361-.873q.053-.162.153-.586.1-.425.145-.687.045-.262.075-.503t.068-.481q.037-.24.063-.43.027-.19.057-.484.03-.294.07-.671.041-.377.059-.591.018-.213.059-.705.042-.492.055-.735.014-.242-.024-.66-.038-.418-.067-.654-.029-.237-.061-.403-.032-.165-.084-.366-.051-.201-.101-.432-.05-.231-.169-.553-.119-.322-.216-.557-.096-.235-.162-.393-.066-.159-.156-.312-.089-.154-.243-.457-.153-.303-.275-.513-.122-.21-.225-.373-.102-.162-.171-.278-.07-.116-.209-.366-.14-.249-.231-.389-.092-.139-.266-.351-.175-.212-.313-.378-.138-.165-.266-.287-.129-.123-.261-.221-.132-.099-.174-.122-.043-.023-.365-.254-.323-.23-.577-.427-.255-.197-.499-.366-.243-.169-.487-.329-.243-.16-.473-.288-.23-.127-.466-.241-.237-.115-.491-.271-.255-.156-.517-.286-.261-.129-.485-.251-.224-.121-.399-.209-.176-.087-.314-.139-.139-.052-.206-.082-.067-.029-.192-.088-.124-.059-.321-.115-.198-.057-.405-.12-.208-.064-.31-.093-.102-.028-.24-.042-.138-.014-.217-.018-.079-.004-.275-.051t-.275-.052q-.078-.006-.169-.016-.091-.009-.299-.047t-.419-.054q-.212-.015-.38-.029-.168-.013-.268-.022-.099-.009-.19-.005-.09.004-.375.109"/>
    <path fill="#504695" stroke="#504695" stroke-width=".5" d="M-266.088 1234.49q.056.008.405.02.348.011.506.056.158.044.241.117.083.073.116.12.032.047.044.077.013.03.02.08.008.05.004.089-.003.038-.022.084-.019.045-.019.047 0 .001-.084.195-.084.193-.249.513-.164.319-.437.829-.274.51-.463.882-.19.371-.349.716-.16.346-.355.817-.195.47-.384 1.022-.189.551-.269.792-.08.241-.12.357-.039.116-.145.503-.105.388-.161.59-.056.202-.114.49t-.096.466q-.037.179-.056.322-.018.143-.052.521-.033.377-.041.789-.008.412.005.624.013.212.026.31.012.098.041.316t.062.402q.032.184.069.362.037.177.06.283.024.105.083.409.059.304.094.471.035.167.051.233.016.066.043.15.027.084.26.651.233.567.477 1.075.244.507.358.722.113.215.266.429.152.214.252.334.099.12.253.328.154.207.243.319.089.111.157.191.069.08.111.123.042.043.245.252.203.209.347.344.143.135.371.323.228.189.361.308.133.118.398.314.264.196.466.338.203.141.456.372.254.231.489.405.235.174.33.231.095.056.471.316t.545.355q.169.096.436.247.268.15.333.188.065.037.292.134.226.096.507.226.28.131.408.192.127.06.28.11.152.05.284.098.132.048.185.073.053.024.134.054.082.031.131.054.05.023.384.094.334.071.598.119.263.047.431.072.168.024.497.027.329.004.646.001t.521-.002q.205.001.646-.059.442-.06.928-.125.487-.065.787-.11.299-.044.716-.172.416-.129.83-.263t.729-.256q.314-.122.632-.298.317-.176.629-.333.313-.157.518-.251.206-.095.343-.163.138-.067.212-.106.073-.039.133-.074.059-.034.357-.214t.471-.303q.173-.122.524-.384.351-.262.564-.454.213-.192.467-.459.255-.266.509-.562.255-.296.413-.468.158-.172.252-.273.094-.101.371-.519.278-.418.491-.797.213-.379.322-.596.109-.217.172-.369.063-.152.176-.405.113-.253.19-.442.077-.188.162-.41.085-.221.128-.345.044-.123.157-.477.113-.353.14-.414.026-.06.207-.774.182-.713.261-1.22.08-.506.099-.733.019-.228-.005-.688-.023-.46-.136-1.263-.112-.804-.179-1.201-.066-.397-.103-.659-.037-.263-.093-.84-.057-.578-.066-.794-.01-.217-.01-.439 0-.223.071-.392.07-.169.196-.246.005.001.167.047t.505.357q.343.31.609.678.266.368.331.502.066.134.117.3.052.167.055.173.002.007.046.384l.128 1.13q.084.752.124 1.342.039.589.033 1.016-.013.854-.052 1.24t-.151 1.004q-.111.618-.192 1.013-.08.395-.14.639-.06.244-.168.538-.107.295-.182.469t-.149.318q-.074.144-.169.311-.095.168-.2.356-.106.189-.143.252-.038.064-.054.088-.016.023-.138.231-.122.207-.215.359-.092.153-.14.225-.047.072-.1.166-.054.094-.081.147-.027.054-.237.377t-.401.587q-.191.265-.293.384-.102.119-.21.249-.108.131-.231.279-.123.148-.458.477-.335.33-.552.524-.217.195-.38.337-.163.143-.284.268-.121.125-.214.21-.093.084-.191.168-.097.085-.312.295-.215.211-.381.351-.167.14-.349.298-.181.158-.268.228-.086.071-.183.137-.097.067-.424.315-.326.249-.519.39-.193.141-.31.212-.116.071-.226.127-.11.056-.183.092-.072.037-.279.144-.206.107-.359.174-.154.067-.424.141-.27.075-.629.194-.36.119-.617.188-.258.067-.47.131-.212.063-.314.095-.103.031-.204.043-.102.011-.199.014-.097.003-.143.007-.047.003-.066.002-.019-.001-.204.028-.185.028-.425.05-.24.022-.387.03-.148.009-.338.039-.19.03-.379.049-.188.018-.452.007-.265-.01-.6-.007-.335.003-.535-.005-.199-.008-.466-.033-.268-.025-.471-.058-.204-.033-.31-.058-.107-.025-.15-.039-.043-.014-.311-.055-.269-.042-.449-.055-.18-.014-.383-.057-.204-.044-.294-.073-.091-.029-.34-.062-.25-.032-.439-.06-.19-.027-.331-.062-.14-.035-.335-.083-.195-.047-.295-.072-.099-.025-.281-.11-.181-.084-.331-.147-.149-.063-.315-.126t-.268-.122q-.102-.059-.266-.169-.165-.11-.209-.14-.043-.029-.178-.118-.136-.088-.272-.186-.136-.097-.399-.3-.263-.203-.479-.348-.216-.145-.681-.531-.465-.387-.678-.573-.213-.187-.399-.376-.186-.19-.382-.377-.196-.188-.294-.294-.098-.107-.283-.358-.184-.251-.326-.442-.142-.191-.281-.36-.14-.17-.23-.289-.091-.12-.172-.252-.081-.132-.279-.447-.199-.315-.298-.444-.099-.129-.29-.432-.191-.303-.312-.519-.12-.216-.205-.342-.084-.127-.214-.342-.131-.216-.241-.464-.11-.248-.167-.384-.057-.137-.146-.355-.089-.218-.162-.518-.072-.299-.133-.664-.061-.364-.094-.74-.034-.376-.045-.526-.012-.149-.066-.422-.055-.273-.087-.633-.033-.36-.05-.533l-.022-.236q-.006-.064-.039-.246-.034-.182-.042-.239-.009-.057-.023-.128-.014-.072-.043-.462-.029-.39-.037-.887-.009-.498 0-.752t.009-.377q0-.123-.001-.129 0-.006.006-.118.006-.113.047-.542l.055-.276q.241-.706.495-1.302.254-.596.489-1.014.236-.417.5-.855t.527-.869q.264-.431.629-1.069.366-.638.738-1.384Z"/>
    <path fill="#504695" stroke="#504695" stroke-width=".5" d="M-266.015 1234.533q.029.035.181.309.153.274.239.407.085.133.162.204.077.072.106.085.029.012.059.026.03.013.066.017.036.004.057-.001.021-.004.032-.008t.133-.042q.122-.038.239-.102.116-.063.153-.091.037-.029.139-.095.103-.067.202-.14.099-.073.132-.101.033-.027.142-.118.11-.092.282-.227.173-.135.289-.228.116-.092.146-.117.031-.025.218-.177.186-.151.376-.311.189-.159.285-.237.096-.078.172-.135.076-.058.193-.134l.223-.143q.106-.068.342-.207.235-.138.511-.301.275-.162.416-.243.141-.08.493-.22.353-.14.666-.25.314-.109.818-.247.504-.139.928-.248.424-.108.727-.182.304-.073.704-.187.399-.114.841-.26.442-.146.62-.221.178-.075.313-.144.135-.07.217-.154.083-.084.105-.149.022-.066.021-.103-.002-.038-.037-.119-.036-.08-.089-.143-.054-.063-.084-.088-.031-.025-.129-.087-.099-.061-.191-.107-.091-.046-.503-.098-.412-.052-1.266-.021-.855.03-1.049.037-.194.006-.528.029-.335.022-.665.084-.329.062-.54.123-.21.061-.297.086-.087.025-.163.041-.075.017-.287.075-.212.058-.325.095-.113.037-.666.237-.554.199-.812.308-.257.108-.442.201-.185.092-.387.231-.427.431-.853.862-.427.431-.857.868-.43.438-.874.901-.443.463-.904.96Z"/>
    <path fill="#504695" stroke="#504695" stroke-width=".5" d="M-253.866 1229.301q-.027.008-.111.006-.083-.002-.133.004-.049.006-.097.018-.048.011-.185.085-.136.074-.295.185-.158.112-.295.239-.136.127-.204.275-.068.147-.076.226-.008.078-.002.114.006.035.012.049.006.014.036.072.029.058.068.109.039.051.128.1.088.048.181.077.094.03.196.061.101.032.2.064.099.033.216.036.118.004.257-.019t.284-.026q.145-.004.234.006.088.01.207.049.118.039.235.069.116.03.237.049.12.019.217.036.097.017.194.042t.2.041q.103.016.161.022.058.006.23.007.171.002.347.03.176.028.412.079.235.052.375.085.14.034.217.055.077.021.264.073.187.051.355.108.168.057.346.146.179.089.323.155.145.067.275.111.131.045.243.097.111.052.281.185.169.133.265.216.095.084.166.138.071.054.218.142.148.089.326.21.178.121.293.201.114.08.232.154.118.073.227.14.108.067.247.194.138.127.217.207.079.081.204.192.125.111.234.219.109.108.202.209.092.1.154.173.063.074.24.238.177.164.315.3.138.136.198.204.061.068.116.135.055.067.097.114t.158.176q.117.129.208.242.09.113.231.303.14.19.247.337.108.148.241.385.133.238.215.405.082.168.133.252.051.084.149.267t.236.402q.138.219.165.265.027.046.038.06.011.015.107.173.096.158.172.328.075.17.104.239.03.068.054.114t.048.101q.024.055.049.125.024.07.182.333l.023.015q.019-.002.1-.124.081-.121.167-.285.087-.164.169-.321.082-.157.125-.255t.056-.152q.013-.055.033-.133.02-.078.033-.157.012-.079.013-.216.001-.138-.012-.241-.014-.104-.043-.189-.03-.085-.054-.135-.023-.051-.046-.1-.022-.049-.068-.171-.046-.123-.116-.268-.069-.146-.119-.234-.05-.088-.105-.221-.055-.132-.093-.216-.037-.083-.098-.193-.061-.109-.112-.186-.05-.078-.107-.175-.057-.097-.099-.174-.042-.078-.082-.148-.04-.071-.095-.165-.055-.094-.073-.122-.018-.028-.149-.266-.131-.237-.166-.283-.035-.046-.047-.063-.012-.017-.017-.021-.005-.004-.085-.139-.08-.134-.146-.214-.066-.08-.104-.113-.038-.034-.071-.068-.033-.035-.098-.112t-.278-.302q-.212-.224-.339-.36-.127-.135-.238-.227-.111-.092-.258-.242-.148-.15-.22-.234-.073-.083-.163-.163-.089-.08-.146-.135-.057-.055-.13-.137-.073-.082-.123-.137-.05-.055-.171-.136-.122-.08-.184-.115t-.115-.069q-.052-.034-.172-.119-.121-.085-.202-.135-.082-.05-.256-.155t-.27-.164q-.095-.059-.154-.088-.059-.03-.185-.079-.127-.05-.211-.085-.084-.036-.173-.075-.089-.039-.372-.111-.404-.166-.808-.334-.404-.169-.807-.325t-.8-.267q-.398-.111-.793-.198-.394-.087-.788-.168-.395-.082-.79-.176-.396-.094-.793-.204-.398-.11-.796-.228Z"/>
    <path fill="none" stroke="#381d1d" stroke-width=".5" d="M-327.82 1210.766q.508.005.966.007.459.002.867.002.408-.001.762-.003.353-.002.799-.004.445-.002.806-.003.36-.001.714-.001.355-.001.718-.001h23.826"/>
    <path fill="none" stroke="#381d1d" stroke-width=".5" d="M-298.412 1210.763h12.378q.538-.001 1.043-.001H-282.259q.406 0 .964-.001h1.171q.612-.001 1.184-.001.571-.001 1.103-.001.531-.001 1.022-.001.491-.001.941-.001l.861-.002q.409 0 .963-.001t1.126-.003l1.097-.002q.523-.002.998-.003.474-.002.898-.003.425-.002.798-.003.374-.001.78-.003.405-.002.842-.003l.907-.004q.47-.002.973-.005.504-.002.933-.004.43-.002.963-.005.532-.002.833-.004.302-.002.626-.003.324-.002.774-.004l.883-.004q.434-.002.756-.003l.679-.002.72-.002.734-.002q.37-.001.748-.001.377-.001.762-.001.384 0 .776.001.391 0 .79.001.398.002.803.003.405.002.816.005.411.002.805.006.394.003.77.007l.734.008q.357.004.739.01.382.005.658.009.277.004.574.008.298.004.573.008l.651.007q.376.003 1.132.017M-336.481 1219.174h-.02q-.17.001.261.002.431.001.936.003.506.001 1.045.003.54.001.929.003l.804.002.8.002q.383.001.911.002.527.002 1.019.003.493.001 1.008.003l1.053.002q.537.001 1.094.003l1.09.002 1.039.002.993.002.946.002q.462 0 .903.001t.913.001q.473.001.821.001.348.001.73.001.381.001.736.001t.846.001q.492 0 1.047.001.556 0 1.013.001h.728q.271 0 .598.001h1.883q.614 0 1.181.001H-307.406q.517 0 1.069.001h26.027q.556-.001 1.094-.001h2.798q.395-.001.915-.001h1.066q.545-.001.941-.001.397-.001.936-.001.539-.001.977-.001l.955-.002.988-.002.897-.002.806-.002q.381-.002.886-.003l.982-.004q.478-.002.764-.003.286-.002.663-.004.377-.001.683-.003.305-.002.664-.004l.706-.004.685-.004.665-.004q.327-.002.719-.005M-248.836 1219.143q.33.002.7.003.37.002.775.003l.847.004.857.002.806.002q.39.001.729.001.338 0 .767.001h.891q.463-.001.784-.001t.655-.001q.333-.001.679-.001l.703-.002.727-.002.75-.002q.38-.002.77-.003t.789-.003M-323.781 1247.046l-.032.001.305.001.705.005q.418.002.765.004.348.002.766.005.418.002.909.004.491.003 1.059.006l1.129.004q.562.003 1.119.005.556.002 1.107.003.55.002 1.093.003l1.078.002 1.061.002 1.04.002q.516.001 1.019.001.504.001.993.001.488 0 .96.001h.928q.455.001.893.001h1.682q.403 0 .787.001H-284.813q.414 0 .839-.002.425-.001.754-.004t.714-.01q.386-.007.84-.021.454-.013.972-.032l-.114-.008M-323.818 1278.168l-.992.003q-.056.001.289.001.344.001.647.001.303.001.679.002.376 0 .723.001.346.001.662.001.317.001.666.001l.729.002q.381 0 .792.001.412.001.854.001l.913.002q.472.001.972.001l.985.002q.485 0 .955.001t.926.001q.456.001.897.001.441.001.868.001.428.001.842.001t.814.001h.789q.388.001.763.001h.739q.363.001.714.001h.691q.34.001.668.001H-304.964q.307 0 .75.001H-302.159q.51.001.864.001H-289.924q.249 0 .514-.001.264 0 .634-.001t.859-.002q.489 0 1.097.001M-286.598 1272.749l.427.003q.073 0 .372.002.299.001.823.004l1.082.006q.558.003.983.005.425.002.902.004.476.003.965.005.488.002.988.005l1.009.004 1.029.004 1.048.004q.528.002 1.064.003l1.083.004q.546.001 1.102.003.555.001 1.088.003l1.045.002q.512.002 1.006.003l.969.002.937.002.907.002q.447.001.879.003l.852.002q.419.001.818.003.399.001.968.003t1.236.005q.667.002 1.237.005.57.003 1.036.005l.914.004q.449.003 1.098.006l1.43.009q.781.004 1.232.007l.612.004.757.005q.597.004.931.006.335.002.544.003l.203.002q.596.004.564.004l.234.002"/>
    <path fill="none" stroke="#381d1d" stroke-width="1.41" d="M-348.932 1282.149q-.133 0-.296.001-.546.001-.003.002.543.002 1.037.003l.9.002.885.002q.48.002.956.003.477.001 1.188.003.711.001 1.421.003.71.001 1.5.003.789.001 1.442.003.653.001 1.108.002.456.001.932.001l.974.002q.497 0 1.016.001l1.057.002q.54 0 1.101.001.561.001 1.116.001l1.102.002q.548 0 1.089.001h1.076q.534.001 1.061.001.528 0 1.048.001h1.033q.512.001 1.018.001.505 0 1.003.001h1.96q.482.001 1.193.001h1.629q.917 0 1.802.001h5.023q.791 0 1.55.001h11.82q.596-.001 1.486-.001h8.557q.829-.001 1.696-.001h3.368q.814-.001 1.767-.001h2.064q1.11 0 2.131-.001h2.398q1.378-.001 3.064-.001 1.685 0 3.374-.001h2.973q1.284-.001 2.722-.001 1.439 0 2.516-.001h2.118q1.041-.001 2.576-.001 1.535 0 2.325-.001h2.025M-351.31 1218.724q-.033 0-.156.003-.248.007.234.013.482.007.929.013l.811.011q.365.004.795.01.43.005.832.01.403.005.965.011.562.007 1.209.014.648.007 1.196.012.548.006 1.001.01.454.004.823.007.369.003.8.006.431.004.692.006.262.002.643.004.381.003.879.006.497.004 1.017.007l1.062.006M-331.335 1201.651q.071-.003.519-.019.449-.015 1.271-.044.823-.028 1.713-.059.89-.03 1.566-.053.677-.023 1.432-.047.755-.025 1.582-.051.827-.026 1.717-.052.89-.027 1.834-.053.944-.026 1.934-.051.99-.026 1.766-.044l1.302-.03q.524-.012 1.058-.023t1.078-.022q.543-.01 1.097-.021.553-.01 1.118-.02.565-.011 1.143-.021M-298.873 1204.76q.052 0 .331.003t.785.008q.505.005 1.054.01.549.006.971.01.423.004.901.008l.98.008 1.026.008 1.071.008q.546.003 1.115.007l1.161.006q.592.003 1.206.005.614.003 1.251.005.636.002 1.295.003.659.002 1.279.003.62.002 1.202.002l1.125.002q.543.001 1.047.001.505.001.971.001.466 0 .894.001h1.734q.527 0 1.139.001H-258.47h-.053.255M-358.241 1224.565l.002.242q.002.247.003.496.002.249.004.582l.004.69.004.74q.002.382.004.726t.003.648q.001.304.003.634.001.329.003.685l.002.707q.002.351.003.696l.002.686.002.673q0 .334.001.66l.002.647q0 .319.001.707l.002.845q0 .457.001.955.001.498.001 1.036.001.539.001 1.041.001.501.001.965.001.463.001.926.001.463.001.924t.001.921v.917q0 .458.001.913v1.815q.001.451.001.9v1.77q0 .436.001.866v3.333q0 .404-.001.801v2.235q0 .398-.001.847v.876q-.001.427-.001.834t-.001.84v.892q-.001.459-.001.944l-.002.996q0 .51-.001 1.012l-.002.996q0 .494-.001.979l-.002.963-.002.968-.002.995q-.001.503-.003 1.02l-.002 1.046q-.001.529-.003 1.068-.001.539-.003 1.086-.001.548-.003 1.106-.001.557-.003 1.124-.001-.43-.003-.919M-323.896 1226.951q-.001-.172-.001-.395 0 .168.001.496v.614q0 .286.001.639v.774q.001.421.001.909 0 .488.001 1.043 0 .555.001 1.022v.779q.001.312.001.625v.626q.001.313.001.627v.629q.001.315.001.63v.632q.001.316.001.633v.634q.001.317.001.636v.637q.001.318.001.638 0 .319.001.64v.641q0 .321.001.642v.644q0 .322.001.633v.76q.001.45.001 1.004 0 .553.001 1.062 0 .508.001.971v.881q.001.418.001.791 0 .372.001.699v.75q.001.422.001.963 0 .541.001 1.059 0 .519.001 1.014v.969q.001.473.001.886.001.413.001.767v.648q.001.294.001.646v.876q.001.523.001.848 0 .326.001.643V1260.375q.001.314.001.689v.81q.001.436.001.93 0 .495.001 1.05v1.794q0 .321.001.656v2.904q-.001.39-.001.793v.82q0 .416-.001.845 0 .428-.001.87 0 .441-.001.895 0 .453-.001.92 0 .466-.001.945l-.002.971q0-.065-.002-.838M-236.833 1264.191v.755q-.001.339-.001.602v5.046q.001.359.001.663v.563q0 .259.001.584v.647q.001.322.001.576 0 .253.001.453V1274.758q0 .171.001.324v1.072M-251.672 1270.869q.004.348.005.12.004.459.005.168.003.338.003.209.001.077.003.346.001.269.003.524l.002.503q.001.249.001.505.001.256.001.607t-.001.69q-.001.339-.002.593l-.002.536-.004.595q-.003.312-.006.655-.003.342-.007.716-.005.374-.01.78t-.012.843q-.006.438-.014.908-.007.47-.016.971-.009.501-.018 1.032M-358.214 1224.514q.014-.012.046-.04-.026.018-.06.041-.052.036.125-.118.178-.155.343-.298.165-.144.377-.328.213-.184.395-.342.182-.158.411-.356.229-.198.557-.481l.679-.586q.352-.303.729-.627.376-.323.697-.598.321-.276.62-.532l.508-.435q.209-.18.428-.368.22-.189.409-.352l.348-.3M-337.488 1218.868q.225.13.153.09-.073-.04.092.054.165.095.454.26.289.166.752.431.464.265.95.544l.853.487q.366.209.771.441.405.231.792.452.387.22.756.43.369.209.72.409.35.199.724.41.373.211.648.366.275.154.575.323.3.169.586.329.285.16.556.311.271.152.538.3.267.149.531.296.265.146.526.291l.52.287q.259.143.517.285.258.141.514.282t.513.281q.257.141.515.282M-309.039 1201.035q.524.201 1.014.394.49.192.946.374.456.181.878.349.422.168.811.322.39.153.738.287.348.135.808.309.461.174 1.082.399.62.224 1.137.401.516.177.885.299.368.123.762.249.393.127.629.203.237.076.316.101"/>
    <path fill="none" stroke="#381d1d" stroke-width=".5" d="M-246.343 1210.81q.015.013.16.136.145.123.42.357.274.234.509.435.235.2.529.451.294.25.59.504l.629.536q.333.284.648.553.316.27.616.526t.557.475q.257.219.579.494l.785.668q.463.394.836.711.373.317.63.535.257.218.523.443l.537.454q.271.228.521.437.249.208.441.364.192.155.315.247"/>
    <path fill="none" stroke="#381d1d" stroke-width="1.388" d="M-258.188 1204.818q.038.022.075.044l-.005-.014q-.014-.041.356.181.369.222.655.399.286.176.51.317.223.14.48.304.256.163.504.323.248.161.489.318.241.158.449.295.208.137.472.313.265.175.556.368.291.193.494.327l.415.274q.212.14.434.286.222.146.453.299.231.154.473.317.242.163.495.337.252.175.514.364.262.19.534.394"/>
    <path fill="none" stroke="#381d1d" stroke-width="1.41" d="M-350.19 1218.355q.057-.057.154-.155-.001-.005-.004-.03.047-.047.248-.245.201-.197.557-.545.356-.348.626-.607.271-.259.547-.514t.557-.513q.281-.257.598-.548.317-.29.616-.563.3-.273.583-.53t.55-.499q.266-.241.642-.579.376-.339.705-.634.329-.295.581-.519.252-.225.535-.477l.54-.479q.256-.227.598-.529.343-.301.537-.472.194-.171.399-.349.204-.179.484-.423.279-.245.541-.472.261-.227.625-.543.364-.316.554-.48.19-.164.377-.325.186-.16.254-.219t.03-.033q-.039.026.207-.185.245-.21.5-.428t.602-.514q.348-.296.659-.56.31-.264.722-.613t.784-.663q.372-.313.753-.633.38-.32.698-.586.318-.267.704-.59.386-.323.671-.561"/>
    <path fill="none" stroke="#381d1d" stroke-width=".982" d="M-239.582 1242.362q.024.171.043.342.019.171.034.343.016.172.027.343.012.172.019.345.008.172.012.344t.003.345q0 .172-.004.344-.004.173-.012.345t-.02.344q-.012.172-.027.343-.016.172-.036.343-.019.171-.043.342-.023.171-.051.341-.027.17-.058.34-.031.169-.066.338t-.074.337q-.039.168-.081.335-.043.167-.089.333-.047.165-.097.33t-.104.329q-.053.164-.111.326-.057.163-.119.324-.061.161-.125.321-.065.159-.134.318-.068.158-.14.314-.072.157-.147.312-.076.155-.155.308-.078.153-.161.305-.082.151-.168.301-.086.149-.175.296-.089.148-.181.293-.093.146-.188.289-.096.144-.195.285t-.201.28q-.102.138-.207.275t-.214.271q-.108.134-.219.265-.111.132-.226.261-.114.129-.231.256-.117.126-.237.25-.12.124-.242.245-.123.121-.248.239-.126.118-.254.234-.128.115-.258.227-.131.113-.264.222-.133.11-.269.216-.135.107-.273.21t-.278.204q-.141.1-.283.197t-.287.191q-.145.093-.291.184-.147.09-.296.177-.148.088-.299.171-.151.084-.303.164-.153.081-.307.158t-.31.15q-.156.073-.314.143-.157.07-.316.136t-.32.129q-.16.063-.322.122t-.325.114q-.164.055-.328.107-.165.051-.33.099-.166.048-.332.092-.167.044-.334.085-.168.04-.336.077-.169.036-.338.069-.169.033-.339.061-.17.029-.34.054-.171.026-.342.047t-.342.038q-.172.018-.344.031-.172.013-.344.023-.172.009-.344.015t-.345.007q-.172.002-.344 0t-.345-.008q-.172-.006-.344-.016t-.344-.024q-.172-.013-.343-.031-.171-.018-.342-.039-.171-.022-.342-.047-.17-.026-.34-.055t-.339-.062q-.169-.033-.338-.07-.168-.037-.335-.078-.168-.04-.334-.085-.167-.044-.332-.093-.166-.048-.33-.1-.164-.052-.328-.107-.163-.056-.325-.115-.161-.059-.322-.122-.16-.063-.319-.13t-.317-.137q-.157-.07-.313-.144-.156-.073-.31-.15-.154-.078-.306-.158-.152-.081-.303-.165-.15-.084-.299-.171-.148-.088-.295-.179-.146-.09-.291-.184-.144-.095-.286-.192t-.282-.198q-.14-.1-.278-.204-.138-.103-.273-.21t-.268-.217q-.133-.109-.264-.222-.13-.113-.258-.228-.128-.116-.253-.235-.125-.118-.247-.239-.123-.122-.242-.246-.12-.124-.237-.25-.117-.127-.23-.256-.114-.13-.225-.262t-.219-.266q-.108-.134-.213-.271t-.207-.276q-.102-.139-.2-.28-.099-.141-.194-.285-.096-.143-.188-.289t-.181-.293q-.089-.148-.174-.298-.085-.149-.167-.301-.083-.152-.161-.305-.079-.153-.154-.308t-.147-.312q-.071-.157-.139-.315-.068-.159-.133-.319-.064-.159-.125-.321-.061-.161-.118-.324-.057-.162-.11-.326-.054-.164-.104-.329-.049-.165-.095-.331t-.089-.333q-.042-.167-.08-.335-.039-.168-.073-.337-.035-.169-.066-.338-.031-.17-.058-.34-.027-.17-.05-.341-.023-.171-.042-.342-.019-.171-.035-.343-.015-.172-.027-.344-.011-.172-.019-.344-.007-.172-.011-.344-.004-.173-.004-.345.001-.172.005-.344.004-.173.012-.345t.02-.344q.011-.172.027-.343.016-.172.035-.343.02-.172.044-.342.023-.171.05-.341.028-.17.059-.34.031-.169.066-.338t.074-.337q.039-.168.081-.335.043-.167.089-.333t.096-.331q.051-.164.104-.328.054-.164.112-.326.057-.163.118-.324.061-.161.126-.321.065-.159.133-.318.069-.158.141-.314.071-.157.147-.312.075-.155.154-.308t.162-.305q.082-.151.168-.301.085-.149.175-.297.089-.147.181-.293.093-.145.188-.288.096-.144.195-.285t.201-.28q.102-.139.207-.275.105-.137.213-.271.109-.134.22-.266.111-.131.225-.26.115-.129.232-.256.117-.126.237-.25.12-.124.242-.245.123-.121.248-.239.126-.118.254-.234.128-.115.258-.228.131-.112.264-.222.133-.109.269-.215.135-.107.273-.21.138-.104.278-.204.14-.1.283-.197.142-.097.287-.191.144-.094.291-.184t.295-.178q.149-.087.3-.171.15-.083.303-.164.152-.08.307-.157.154-.077.31-.15t.313-.143q.158-.07.317-.136.159-.067.32-.129.16-.063.322-.122t.325-.114q.163-.055.328-.107.164-.051.33-.099.165-.048.332-.092.167-.045.334-.085.168-.04.336-.077.169-.036.338-.069.169-.033.339-.062.17-.029.34-.054.171-.025.342-.046.171-.021.342-.038.172-.018.344-.031.171-.014.344-.023.172-.01.344-.015.172-.006.344-.008.173-.002.345.001.172.002.345.008.172.006.344.016t.344.023q.172.014.343.032.171.018.342.039.171.022.342.047.17.025.34.055.17.029.339.062t.338.07q.168.037.335.078.168.04.334.085.167.044.332.092.166.049.33.101.164.052.327.107.164.056.325.115.162.059.323.122.16.063.319.13.159.066.316.137.158.07.314.144.155.073.31.15.154.077.306.158t.303.165q.15.084.299.171.148.088.295.179.146.09.29.184.145.094.287.192.142.097.282.198.14.1.278.204.138.103.273.21t.268.217q.133.109.264.222.13.113.258.228.127.116.253.235.125.118.247.239.123.122.242.246.12.124.237.251.116.126.23.255.114.13.225.262t.219.266q.108.134.213.271t.207.276q.102.139.2.28.099.141.194.285.096.143.188.289t.181.294q.088.147.174.297.085.15.167.301.082.152.161.305t.154.308q.075.156.146.312.072.157.14.315.068.159.133.319.064.159.125.321.061.161.118.324.057.162.11.326.054.164.103.329.05.165.096.331t.088.333q.043.167.081.335.039.168.073.337.035.169.066.338.03.17.057.34.027.17.05.341Z"/>
    <path fill="none" stroke="#381d1d" stroke-width=".993" d="M-228.539 1244.185q.006.295.005.59 0 .296-.008.591-.007.296-.021.591-.014.296-.035.59-.021.295-.048.59-.028.294-.062.588-.034.293-.074.586-.041.293-.088.585-.048.291-.101.582-.054.291-.115.58-.06.289-.127.577t-.14.575q-.074.286-.154.571-.08.284-.166.567-.086.283-.179.563-.093.281-.191.56-.099.278-.205.554-.105.277-.216.55-.112.274-.23.545-.117.272-.241.54-.124.268-.253.534-.13.266-.266.528-.136.263-.277.522-.142.26-.289.516-.148.256-.301.509t-.312.502q-.159.249-.323.495-.165.246-.335.487-.17.242-.345.48-.176.238-.356.472-.181.234-.367.464t-.377.455q-.191.226-.387.447-.197.221-.398.438-.201.216-.407.428-.206.212-.416.419-.211.208-.427.41-.215.203-.435.401-.22.197-.444.39-.224.192-.453.38-.228.187-.461.369-.233.183-.469.36-.237.177-.478.348-.241.172-.485.338-.245.166-.493.326-.248.161-.5.316-.252.154-.507.304-.255.149-.514.292t-.52.281q-.262.137-.527.269-.264.131-.532.256-.268.126-.538.245-.271.12-.544.233-.273.113-.548.22-.276.107-.554.208-.278.101-.558.195-.28.095-.562.183-.282.088-.566.17-.284.082-.57.157t-.574.144q-.287.069-.576.131t-.579.118q-.291.056-.582.105-.291.049-.584.092-.293.042-.586.078t-.587.065q-.295.03-.589.052-.295.023-.59.039t-.591.025q-.295.01-.591.012-.296.003-.591-.001-.296-.004-.591-.015-.296-.011-.591-.028-.295-.018-.589-.042-.295-.024-.589-.054-.294-.031-.587-.069-.293-.037-.586-.081-.292-.044-.583-.094-.292-.051-.582-.108t-.578-.121q-.289-.064-.576-.134t-.573-.147q-.285-.076-.569-.159t-.565-.173q-.282-.089-.562-.185-.279-.096-.557-.198-.277-.102-.552-.211-.275-.108-.548-.223-.272-.114-.542-.235-.27-.121-.537-.247-.267-.127-.531-.26t-.525-.271q-.261-.139-.519-.283-.258-.145-.513-.295-.254-.151-.505-.307t-.499-.317q-.247-.162-.491-.329-.244-.168-.484-.34-.239-.173-.475-.351t-.468-.361q-.232-.184-.46-.373-.227-.188-.451-.382-.223-.193-.442-.392t-.433-.402q-.214-.204-.424-.412t-.415-.422q-.205-.213-.405-.43-.2-.218-.395-.44t-.385-.448q-.19-.227-.375-.457-.185-.231-.365-.466-.179-.235-.353-.473-.175-.239-.343-.482-.169-.243-.333-.489-.163-.246-.321-.496-.157-.25-.309-.504t-.298-.51q-.147-.257-.287-.517-.14-.261-.275-.524-.134-.263-.263-.529-.128-.267-.251-.536-.122-.269-.238-.54-.117-.272-.227-.547-.11-.274-.214-.551-.104-.276-.201-.555-.098-.279-.189-.56-.092-.282-.177-.565-.085-.283-.163-.568-.079-.285-.151-.572-.072-.286-.137-.575-.066-.288-.125-.577-.059-.29-.111-.581-.053-.291-.099-.583-.045-.292-.085-.585-.039-.293-.072-.587-.032-.293-.058-.588-.026-.294-.045-.589-.02-.295-.032-.591-.013-.295-.019-.591-.006-.295-.005-.591 0-.295.008-.591.007-.295.021-.591.014-.295.035-.59.021-.295.048-.589.028-.294.062-.588t.074-.586q.041-.293.088-.585.048-.292.101-.582.054-.291.115-.581.06-.289.127-.577t.14-.574q.074-.286.154-.571t.166-.567q.086-.283.179-.564.093-.28.191-.559.099-.278.205-.555.105-.276.216-.55.112-.274.229-.545.118-.271.242-.539.124-.269.253-.535.13-.265.266-.528.136-.262.277-.522.142-.259.289-.515.148-.257.301-.509.153-.253.312-.502.159-.25.323-.495.165-.246.335-.488t.345-.48q.176-.238.356-.472.181-.233.367-.463t.377-.455q.191-.226.387-.447.197-.221.398-.438.201-.216.407-.428.206-.213.417-.42.21-.207.426-.41.215-.202.435-.4.22-.197.444-.39t.453-.38q.228-.188.461-.37t.469-.359q.237-.177.478-.348.241-.172.485-.338.245-.166.493-.327.248-.16.5-.315t.507-.304q.255-.149.514-.292.259-.144.52-.281.262-.137.527-.269.264-.131.532-.257.268-.125.538-.245.271-.119.544-.232.273-.114.548-.221.276-.107.554-.207.278-.101.558-.196.28-.094.562-.182.282-.088.566-.17.284-.082.57-.157t.574-.144q.287-.069.576-.131.289-.063.579-.118.291-.056.582-.105.292-.049.584-.092.293-.043.586-.078.294-.036.588-.066.294-.029.589-.052.294-.022.589-.038.296-.016.591-.026.296-.009.591-.012.296-.002.591.002.296.004.591.015.296.01.591.028.295.017.59.041.294.024.588.055t.587.068q.294.037.586.081.292.045.584.095.291.051.581.108t.579.121q.288.063.575.133.287.071.573.147.285.077.569.16t.566.173q.281.089.561.185t.557.198q.277.102.552.21.275.109.548.223.272.115.542.236.27.12.537.247t.531.26q.265.132.526.271t.518.283q.258.145.513.295.254.15.505.307.251.156.499.317.247.162.491.329t.484.34q.24.173.476.351t.467.361q.232.184.46.372.228.189.451.383.223.193.442.392t.433.402q.215.204.424.412.21.208.415.421.205.214.405.431.2.218.395.44t.385.448q.19.227.375.457.185.231.365.466.179.235.354.473.174.239.343.482.169.243.332.489t.321.496q.157.25.309.504t.299.51q.146.257.286.518.141.26.275.523.134.263.263.529.128.267.251.536.122.269.239.541.116.271.226.546.11.274.214.551.104.276.202.555.097.279.189.561.091.281.176.564.085.283.163.568.079.285.151.572.072.286.137.575.066.288.125.578.059.289.111.58.053.291.099.583.046.292.085.585.039.293.072.587.032.294.058.588.026.295.046.59.019.295.031.59.013.295.019.591Z"/>
    <path fill="none" stroke="#381d1d" stroke-width="1.41" d="M-358.176 1274.416q.049.054.437.409t.626.568q.237.212.996.895.758.682 1.022.918t.778.704q.515.469 1.133 1.015.617.546.917.814.3.268.457.4.157.132.42.358.264.227.468.402.204.176.503.438.299.261.416.36.116.1.6.52M-323.873 1276.494q-.323.348-.504.553-.182.206-.357.402-.175.195-.276.308l-.326.368q-.225.254-.434.496-.208.242-.364.425t-.308.359q-.152.177-.498.569-.347.391-.634.713-.287.322-.403.454-.115.132-.178.201-.062.069-.122.132t-.13.141q-.07.079-.119.138-.049.059-.08.093-.03.034-.086.095M-251.855 1282.2q.071-.001.061-.001.072 0 .298-.002.226-.002.605-.004.379-.003.72-.006l.585-.005q.245-.002.508-.005l.519-.004q.257-.003.63-.006l.845-.009q.471-.006.839-.01.368-.005.634-.008.266-.004.57-.008.304-.004.646-.009.342-.005.6-.009l.519-.008q.262-.005.417-.007.156-.003.473-.008.316-.006.675-.012.359-.006.552-.01.192-.003.396-.007.204-.004.426-.008h-.083"/>
    <path fill="none" stroke="#381d1d" stroke-width=".5" d="M-286.803 1278.116q.001.02.001.064.002-.085.002-.074.001-.097.002-.074.001-.072.001-.052.002-.086.002-.06.002-.085.002-.08.001-.087.008-.41.007-.322.022-.883.014-.561.028-.99.015-.429.033-.873.018-.443.026-.616.008-.172.021-.428.014-.257.025-.455.012-.198.024-.389.005.095.006.08"/>
    <path fill="none" stroke="#381d1d" stroke-width=".554" d="M-294.251 1263.558q.001.086 0 .171-.001.085-.004.171-.003.085-.008.17-.005.086-.012.171-.007.085-.016.17-.009.085-.02.169-.011.085-.023.169-.013.085-.028.169-.014.084-.031.168-.016.084-.035.167-.018.083-.038.166-.021.083-.043.166-.022.082-.046.164t-.05.163q-.025.082-.053.163-.028.08-.057.161-.03.08-.061.159-.031.08-.064.158-.034.079-.068.157-.035.078-.072.155-.036.077-.075.153-.038.077-.078.152-.04.076-.082.15-.042.075-.085.148-.044.074-.089.146-.045.073-.091.144-.047.072-.095.142-.049.07-.099.14-.049.069-.101.137-.051.068-.104.135t-.108.133q-.054.066-.11.13-.056.065-.113.128-.058.063-.117.125-.058.062-.118.123l-.122.12q-.062.059-.125.117-.062.057-.127.114-.064.056-.129.111t-.132.108q-.067.054-.135.105-.067.052-.136.103-.069.05-.139.099t-.142.096q-.071.047-.143.092-.072.046-.145.09-.074.044-.148.086-.074.042-.149.083-.075.04-.151.079t-.153.076q-.077.037-.155.073-.078.035-.156.069-.079.033-.158.065t-.159.062q-.08.03-.161.058-.08.028-.161.055-.082.026-.163.051-.082.024-.164.047-.083.023-.166.043-.082.021-.166.04-.083.019-.167.036-.083.017-.167.033-.084.015-.169.028-.084.013-.169.025-.084.011-.169.02-.085.01-.17.017-.085.008-.17.013-.085.006-.171.01-.085.003-.17.005-.086.002-.171.001-.086 0-.171-.002-.085-.002-.171-.006-.085-.004-.17-.01t-.17-.014q-.085-.008-.17-.018-.085-.01-.169-.021-.085-.012-.169-.026-.085-.013-.169-.029-.083-.015-.167-.033-.084-.017-.167-.037-.083-.019-.166-.04-.082-.021-.165-.044-.082-.023-.163-.048-.082-.025-.163-.052-.081-.027-.162-.055-.08-.029-.16-.059-.08-.031-.159-.063t-.157-.066q-.079-.034-.156-.07-.078-.035-.154-.073-.077-.037-.153-.077-.076-.039-.151-.08t-.149-.083q-.074-.043-.147-.087t-.145-.09q-.072-.046-.143-.094-.071-.047-.141-.096-.07-.049-.138-.1-.069-.051-.137-.103-.067-.052-.133-.106-.067-.053-.132-.109-.065-.055-.129-.111-.064-.057-.126-.115-.063-.058-.124-.118-.062-.059-.121-.12-.06-.061-.119-.123-.058-.062-.115-.126-.058-.063-.113-.128-.056-.065-.11-.131t-.107-.133q-.052-.067-.104-.136-.051-.068-.1-.138-.05-.069-.098-.14-.048-.07-.094-.142-.046-.072-.091-.145-.045-.072-.088-.146t-.084-.148q-.042-.075-.082-.151-.039-.075-.077-.152-.038-.076-.074-.154-.037-.077-.071-.155-.035-.078-.067-.157-.033-.079-.064-.158-.031-.08-.06-.16-.029-.08-.057-.161-.027-.081-.052-.163-.026-.081-.049-.163-.024-.082-.046-.165-.021-.082-.041-.166-.02-.083-.038-.166-.018-.084-.034-.167-.016-.084-.031-.168-.014-.085-.026-.169-.012-.085-.023-.169-.01-.085-.019-.17-.008-.085-.015-.17-.006-.085-.011-.171-.005-.085-.007-.17-.003-.085-.004-.171 0-.085.001-.171.001-.085.004-.17.003-.086.008-.171.005-.085.012-.17t.016-.17q.009-.085.019-.17.011-.085.024-.169.013-.084.027-.169.015-.084.031-.167.017-.084.035-.168.019-.083.039-.166t.042-.165q.022-.083.046-.165t.05-.163q.026-.081.054-.162.027-.081.057-.161.029-.08.061-.16.031-.079.064-.158t.068-.157q.035-.078.071-.155.037-.077.075-.153.039-.076.079-.152.04-.075.082-.15.041-.074.085-.148.043-.073.088-.146.045-.072.092-.144.047-.071.095-.142.048-.07.098-.139.05-.07.101-.138.052-.068.105-.135t.107-.133q.055-.065.111-.13.056-.064.113-.128.057-.063.116-.125.059-.062.119-.122.06-.061.122-.12.061-.059.124-.117.063-.058.127-.114.064-.057.13-.112.065-.054.132-.108.066-.053.134-.105t.137-.102q.069-.051.139-.099.07-.049.141-.096.071-.048.144-.093.072-.046.145-.09.073-.043.147-.086.075-.042.15-.082.075-.041.151-.08t.153-.076q.077-.037.155-.072.077-.036.156-.069.078-.034.157-.066.08-.032.16-.062t.16-.058q.081-.028.162-.054.081-.027.163-.051.082-.025.164-.048.082-.022.165-.043.083-.021.166-.04t.167-.036q.084-.017.168-.032t.168-.028q.085-.014.169-.025.085-.011.17-.021.085-.009.17-.017.085-.007.17-.013.085-.005.17-.009.086-.004.171-.005.085-.002.171-.002.085 0 .171.002.085.002.17.006t.171.01q.085.006.17.014t.17.018q.084.01.169.022.085.011.169.025.084.014.168.029.084.016.168.033.083.018.166.037.084.019.166.041.083.021.165.044.082.023.164.048t.163.051q.081.027.161.056.081.028.161.059.079.03.159.062.079.033.157.067t.156.069q.077.036.154.073.077.038.153.077t.151.08q.074.041.148.084.074.042.147.087.074.044.146.09t.142.093q.071.048.141.097.07.049.139.099.069.051.136.103.068.052.134.106.067.054.132.109t.129.112q.064.057.126.115.063.058.124.117.061.06.121.121.06.06.119.123.058.062.115.125.057.064.113.129.055.064.11.13.054.066.106.134.053.067.104.135.051.069.101.138.049.07.097.14.048.071.095.143.046.071.091.144t.088.146q.043.074.084.149.041.075.081.15.04.076.078.152.038.077.074.154t.071.155q.034.079.067.157.033.079.064.159.031.079.06.16.029.08.056.161t.053.162q.025.082.049.164t.045.164q.022.083.042.166.02.083.038.167.018.083.034.167.016.084.03.168.014.084.027.169.012.084.022.169.011.085.019.17.009.085.015.17.007.085.012.17.004.085.007.171.003.085.003.17Z"/>
    <path fill="none" stroke="#381d1d" stroke-width=".169" d="m-297.387 1263.35-.002.101-.004.1-.006.1q-.004.051-.009.1-.005.051-.011.1-.006.05-.013.1-.007.05-.015.099-.008.05-.018.099-.009.05-.019.099l-.022.098q-.012.049-.024.097-.013.049-.027.097-.014.049-.028.097-.015.048-.031.095-.016.048-.033.095-.017.048-.035.095-.018.046-.037.093-.019.046-.04.092-.02.046-.041.092t-.043.091q-.022.045-.046.089-.023.045-.047.089t-.05.087q-.025.044-.051.087-.026.042-.053.085-.027.042-.056.084-.028.041-.057.082t-.059.082l-.06.08q-.031.039-.063.078t-.064.077q-.033.039-.067.076-.033.037-.067.074-.035.037-.07.073t-.071.071q-.036.035-.072.069-.037.035-.075.068-.037.034-.075.066-.039.033-.078.064-.039.032-.078.063-.04.031-.08.061-.041.03-.082.059-.041.029-.082.057-.042.028-.084.055t-.085.053q-.043.027-.087.052-.043.025-.087.049t-.089.048q-.044.023-.089.045-.046.022-.091.043l-.092.042q-.046.02-.092.039-.047.019-.094.037-.046.018-.094.035-.047.017-.095.033-.047.016-.095.031-.048.014-.097.028-.048.014-.097.026-.048.013-.097.025l-.098.022q-.049.01-.099.019-.049.01-.099.018-.049.008-.099.015-.05.007-.1.013-.05.006-.1.011-.05.005-.1.008-.05.004-.1.006-.05.003-.1.004-.051.002-.101.002h-.1q-.051-.001-.101-.003-.05-.002-.1-.006-.05-.003-.1-.007t-.1-.01q-.05-.005-.1-.011-.05-.007-.1-.015-.049-.007-.099-.016-.049-.009-.099-.019-.049-.01-.098-.021-.049-.011-.098-.023-.048-.012-.097-.025-.048-.013-.096-.027-.049-.015-.096-.03-.048-.015-.096-.032-.047-.016-.094-.034-.047-.017-.094-.036-.047-.019-.093-.038-.046-.02-.092-.041-.046-.02-.091-.042-.046-.022-.09-.044-.045-.023-.089-.047-.045-.023-.089-.048l-.086-.05q-.044-.026-.086-.053-.043-.027-.085-.054-.042-.028-.083-.056l-.082-.058q-.041-.03-.081-.06-.04-.031-.079-.062t-.078-.064q-.038-.032-.076-.065t-.075-.067l-.074-.068q-.036-.035-.071-.071-.036-.035-.071-.071l-.068-.074q-.034-.037-.067-.075t-.065-.076q-.033-.039-.064-.078l-.062-.08q-.03-.04-.059-.08-.03-.041-.058-.082-.029-.042-.057-.084l-.054-.084q-.027-.043-.052-.086-.026-.043-.051-.087l-.048-.088q-.024-.044-.046-.089-.023-.045-.045-.09-.021-.045-.042-.091t-.04-.092q-.02-.047-.039-.093l-.036-.094q-.017-.047-.034-.095-.016-.047-.031-.095-.016-.048-.03-.096-.014-.048-.027-.097-.014-.048-.026-.097-.012-.049-.023-.098t-.021-.098l-.018-.099q-.009-.049-.017-.099l-.014-.099-.012-.1q-.005-.05-.009-.1l-.008-.1q-.003-.051-.005-.101-.002-.05-.002-.1-.001-.05-.001-.101 0-.05.002-.1.001-.05.004-.101.002-.05.006-.1t.009-.1q.004-.05.01-.1t.013-.099q.007-.05.016-.1.008-.049.017-.099l.02-.098q.01-.049.022-.098.011-.049.024-.098.013-.049.027-.097.013-.048.028-.096.015-.048.031-.096.016-.047.033-.095.017-.047.035-.094.018-.047.037-.093.019-.047.039-.093t.041-.091q.022-.046.044-.091t.045-.09l.048-.088q.024-.044.049-.088.025-.043.052-.086.026-.043.053-.085.027-.042.055-.084t.057-.083q.029-.041.059-.081.03-.04.061-.08t.063-.079q.031-.039.064-.077t.066-.075q.034-.038.068-.075.034-.036.069-.072l.071-.071q.036-.036.073-.07l.074-.068.076-.066q.038-.032.077-.064t.079-.063l.08-.06q.04-.03.081-.059.041-.029.083-.057t.084-.055q.042-.028.085-.054.043-.026.086-.051l.088-.05q.044-.024.088-.047.045-.023.09-.045.045-.023.091-.044.045-.021.091-.041t.093-.039q.046-.019.093-.037t.094-.035q.048-.017.095-.033.048-.016.096-.031t.096-.028q.049-.014.097-.027l.098-.024q.049-.012.098-.022l.099-.02q.049-.009.098-.017.05-.008.1-.015.05-.007.099-.013.05-.006.1-.011.05-.005.1-.009l.101-.006.1-.004.101-.002q.05 0 .1.001t.101.003q.05.002.1.005t.1.007l.1.01.1.012.099.014q.05.008.099.017.05.008.099.018.049.01.099.021.049.011.097.023.049.012.098.026.048.013.096.027t.096.03q.048.015.095.032.048.016.095.033.047.018.094.037.047.018.093.038.046.019.092.04t.091.042q.045.022.09.045t.089.046q.044.024.088.049t.087.05q.043.026.086.053.042.026.084.054.042.027.084.056l.082.058.08.06q.04.03.08.062.039.031.078.063.038.032.076.065t.075.067q.037.034.073.069.037.035.072.07.036.036.07.072.035.036.069.074.034.037.067.074.033.038.065.077l.064.078q.031.039.061.079.031.04.06.081.03.041.058.082.029.041.056.083.028.042.055.085.026.042.052.086.026.043.05.086.025.044.049.089.023.044.046.089.023.044.044.09.022.045.043.091l.04.092q.02.046.038.093.019.047.036.094.018.047.034.094.017.048.032.096l.03.096q.014.048.027.096.013.049.025.098.012.048.023.098.011.048.021.098.01.049.019.099.009.049.016.099.008.049.014.099.007.05.012.1.006.05.01.1t.007.1q.003.05.005.1.002.051.003.101.001.05.001.1Z"/>
    <path fill="none" stroke="#381d1d" stroke-width=".5" d="M-341.302 1218.833q.022-.012.355-.228.334-.216.782-.503.448-.287.738-.47.289-.183.471-.298.183-.114.51-.323.327-.209.657-.417.331-.209.825-.516l.685-.425q.191-.118.44-.273.249-.156.612-.381.363-.226.624-.385t.661-.402q.399-.242.651-.392.251-.15.672-.396.42-.245.762-.446t.545-.32q.203-.118.427-.239.223-.122.578-.319.354-.198.454-.247.1-.049.223-.115.124-.067.236-.129.112-.062.302-.164.191-.102.332-.179.14-.078.215-.116.046-.02.159-.08t.158-.086q.044-.026.093-.051.049-.024.123-.065.073-.042.164-.088M-236.435 1219.239q.007.405.023.891.017.485.021.712l.008.464q.005.236.008.806.004.57.003.869 0 .299.004.51.003.212.003.324v.546q-.001.435 0 .728.001.294-.001.626"/>
    <path fill="none" stroke="#381d1d" stroke-width=".505" d="M-308.624 1225.445h25.252v12.835h-25.252Z"/>
    <path fill="none" stroke="#381d1d" stroke-width=".5" d="M-316.453 1247.013v-7.735q-.001-.405-.001-.774V1236.271q0-.374-.001-.804v-.915q0-.485-.001-1.027 0-.542-.001-1.142 0-.599-.001-1.116 0-.517-.001-.951v-.784l-.002-.749q0-.399-.002-.817-.001-.419-.005-.874-.004-.456-.007-.72-.003-.264-.005-.402t-.003-.165q0-.027-.002-.106-.001-.08-.013-.768M-316.498 1224.851q-.007-.005-.112-.075-.105-.069-.106-.07 0-.001-.028-.019-.028-.019-.262-.176-.233-.157-.453-.308-.22-.15-.504-.345-.285-.195-.56-.386-.275-.19-.673-.469-.399-.279-.903-.636t-.883-.628q-.38-.271-.781-.558l-.536-.384q-.135-.097-.343-.246-.208-.149-.449-.323-.242-.173-.586-.42-.345-.248-.541-.388-.195-.14-.242-.174M-241.305 1244.252q.002.151 0 .302-.002.152-.007.303-.005.152-.014.303-.008.151-.02.302t-.027.302q-.016.15-.034.301-.019.15-.041.3-.022.15-.048.299-.025.149-.054.298-.029.148-.061.296t-.067.296q-.036.147-.075.293-.038.147-.08.292t-.088.29q-.045.145-.094.288-.048.143-.1.286-.052.142-.107.283t-.113.281q-.058.139-.119.278-.061.138-.126.275-.064.137-.131.273-.068.135-.138.269-.071.134-.144.266-.073.133-.15.263-.076.131-.156.26-.079.128-.161.256-.082.126-.167.252-.085.125-.173.248-.088.123-.178.244-.091.121-.184.24-.094.119-.19.236-.095.117-.194.232-.099.114-.2.227-.101.112-.204.222-.104.11-.21.218t-.214.213q-.109.105-.22.208-.11.103-.223.203-.114.1-.229.198t-.233.193q-.117.095-.237.187-.119.092-.241.182-.121.089-.245.176t-.249.171q-.126.084-.253.165t-.257.159q-.129.079-.26.154t-.263.147q-.133.073-.267.142-.134.069-.27.135-.135.066-.272.129-.138.063-.276.123-.139.06-.278.117-.14.057-.281.11-.141.054-.284.104-.142.051-.285.098-.143.047-.288.091-.144.044-.289.084-.146.041-.292.078t-.293.071q-.147.034-.295.065-.148.03-.296.058-.148.027-.297.051-.149.024-.299.044-.149.021-.299.038-.15.017-.3.03-.15.014-.301.024-.15.011-.301.018-.15.006-.301.01-.151.003-.302.003t-.301-.003q-.151-.004-.302-.01-.151-.007-.301-.018-.15-.01-.301-.024-.15-.013-.3-.03t-.299-.038q-.149-.02-.298-.044-.149-.024-.298-.051-.148-.027-.296-.058-.147-.031-.295-.065-.146-.033-.293-.071-.146-.037-.291-.078-.145-.04-.29-.084-.144-.044-.287-.091-.144-.047-.286-.098-.142-.05-.283-.104-.141-.053-.281-.11-.14-.057-.279-.117-.138-.06-.275-.123t-.273-.129q-.136-.066-.27-.135t-.267-.142q-.132-.072-.263-.147t-.26-.154q-.129-.078-.257-.159-.127-.081-.253-.165-.125-.084-.249-.171-.123-.086-.245-.176t-.241-.182q-.12-.092-.237-.187-.118-.095-.233-.193-.115-.097-.228-.198-.113-.1-.224-.203-.111-.102-.219-.208-.109-.105-.215-.213-.106-.107-.209-.218-.104-.11-.205-.222-.101-.112-.2-.227-.098-.115-.194-.232t-.189-.236q-.094-.119-.184-.24-.091-.121-.179-.244-.087-.123-.172-.248-.085-.125-.168-.252-.082-.127-.161-.256t-.156-.26q-.076-.13-.15-.263-.073-.132-.144-.266-.07-.134-.137-.269-.068-.136-.132-.273t-.126-.275q-.061-.138-.119-.278-.058-.14-.113-.281-.055-.141-.107-.283-.052-.143-.1-.286-.049-.143-.094-.288-.045-.144-.087-.29-.042-.145-.081-.292-.039-.146-.074-.293-.036-.147-.068-.295-.032-.148-.061-.297-.029-.149-.054-.298-.026-.149-.048-.299-.022-.15-.04-.3-.019-.15-.034-.301-.016-.151-.028-.302t-.02-.302q-.009-.151-.014-.303-.005-.151-.007-.302-.001-.152 0-.303.002-.152.007-.303.005-.152.014-.303.008-.151.02-.302t.028-.302q.015-.15.034-.301.018-.15.04-.3.022-.15.048-.299.025-.149.054-.298.029-.149.061-.297t.068-.295q.035-.147.074-.293.039-.147.081-.292.042-.146.087-.29.045-.144.094-.288.048-.143.1-.286.052-.142.107-.283t.113-.281q.058-.14.119-.278.062-.138.126-.275t.132-.273q.067-.135.137-.269.071-.134.144-.266.074-.133.15-.263.077-.131.156-.26t.161-.256q.083-.127.168-.252t.172-.248q.088-.123.179-.244.09-.121.184-.24.093-.119.189-.236.096-.117.194-.232.099-.114.2-.227.101-.112.205-.222.103-.11.209-.218t.215-.213q.108-.105.219-.208t.224-.203q.113-.1.228-.198t.233-.193q.117-.095.237-.187.12-.092.241-.182.122-.09.245-.176.124-.087.25-.171.125-.084.252-.165.128-.081.257-.159.129-.079.26-.154t.263-.147q.133-.073.267-.142.134-.069.27-.135t.273-.129q.137-.063.275-.123.139-.06.279-.117.14-.057.281-.111.141-.053.283-.103.142-.051.286-.098.143-.047.287-.091.145-.044.29-.084.145-.041.291-.078.147-.037.294-.071.147-.034.294-.065.148-.031.296-.058.149-.027.298-.051.149-.024.298-.044.149-.021.299-.038.15-.017.3-.03.151-.014.301-.024.151-.011.301-.017.151-.007.302-.011.15-.003.301-.003t.302.003q.151.004.301.01.151.007.301.018.151.01.301.023.15.014.3.031t.3.038q.149.02.298.044.149.024.297.051.149.027.296.058.148.031.295.065t.293.071q.146.037.292.078.145.04.289.084.145.044.288.091t.286.098q.142.05.283.104.141.053.281.11.14.057.278.117.139.06.276.123t.273.129q.135.066.269.135.134.07.267.142.133.072.264.147.13.075.26.154.129.078.256.159.128.081.253.165.126.084.249.171.124.087.245.176.122.09.242.182.119.092.237.187.117.095.232.193.116.098.229.198t.224.203q.11.103.219.208.108.105.214.213t.21.218q.103.11.205.222.101.113.199.227.099.115.195.232t.189.236q.093.119.184.24.09.121.178.244t.173.248q.085.126.167.252.082.127.162.256.079.129.155.26.077.13.15.263.074.132.144.266.07.134.138.269.067.136.132.273.064.137.125.275.061.139.119.278.059.14.114.281.054.141.106.283.052.143.101.286.048.144.093.288.046.144.088.29.042.145.081.292.038.146.074.293.035.148.067.296t.061.296q.029.149.055.298.025.15.047.299.022.15.041.3.018.151.034.301.015.151.027.302t.02.302q.009.152.014.303.005.151.007.303Z"/>
    <path fill="none" stroke="#381d1d" stroke-width="1.41" d="M-236.849 1276.439q-.135.223-.16.261-.026.039-.163.264-.136.226-.22.375-.084.15-.225.397-.141.246-.323.557-.183.312-.337.585-.154.273-.261.453-.108.181-.177.292-.069.112-.204.335-.135.223-.309.518-.175.294-.286.457-.111.163-.205.317-.095.153-.148.245-.053.092-.351.577"/>
    <path fill="none" stroke="#381d1d" stroke-width=".5" d="M-248.553 1210.667q-.079-.053-.225-.165-.145-.112-.357-.272-.212-.159-.315-.236-.102-.077-.174-.128-.072-.051-.276-.197-.204-.147-.307-.221-.104-.075-.208-.149-.105-.073-.278-.191-.172-.118-.24-.164-.067-.046-.16-.106M-327.641 1210.694v-1.705q0-.324-.001-.676v-1.37q-.001-.258-.002-.845l-.002-1.177M-327.641 1210.441v.063-.811V1209.905v-.04.006M-327.619 1204.939q.021 0 .222-.005.202-.004.61-.013t.772-.016q.364-.007.804-.014.44-.006.721-.01l.651-.007q.369-.004.747-.009.377-.003.642-.006.264-.003.375-.004.111-.001.354-.004.243-.002.656-.006.412-.005.748-.008.335-.004.529-.005.193-.002.416-.005l.538-.005q.316-.004.725-.008l.913-.009q.502-.005.946-.01.443-.004.826-.008.383-.004.707-.007.324-.004.72-.008l.788-.008.778-.008q.385-.004.837-.008.452-.005.831-.009.38-.004 1.113-.011M-309.517 1204.882q-.032-.043-.026-.036-.004-.006-.021-.029-.017-.024-.013-.019.003.004.002.003 0-.001-.008-.012-.012-.017.282.355t.614.78q.321.408.517.661.197.253.279.359.083.106.349.449.266.343.373.479.107.137.18.232.074.094.116.148.042.053.043.055.001.001.003.004.003.003.038.049M-306.752 1210.618q-.001-.076-.001-.049-.001-.091-.001-.062-.001-.077-.001-.066-.001-.101-.001-.078l-.002-.17q-.002-.166-.007-.492-.005-.326-.013-.661l-.016-.68"/>
  </g>
</svg>
