<svg xmlns="http://www.w3.org/2000/svg" width="177.7733" height="190.256" viewBox="111.919 216.798 133.33 142.692">
  <g stroke-linecap="round" stroke-linejoin="round">
    <path fill="#60d2ce" stroke="#60d2ce" stroke-width=".5" d="M196.913 272.908q-.017.123-.069.978-.051.855-.091 1.6-.041.745-.08 1.663-.038.917-.054 1.599-.016.681-.029 1.358-.013.676-.029 1.054-.015.378-.025 1.002-.01.624-.021 1.184-.012.561-.035 1.266-.024.706-.057 1.351-.032.646-.096 1.526-.063.88-.142 1.812-.079.933-.146 1.714-.067.781-.108 1.409-.041.629-.069 1.083-.027.454-.042.734-.015.281-.043.759-.028.479-.062 1.152-.034.674-.058 1.241-.024.567-.064 1.258-.039.691-.104 1.591t-.161 2.031q-.095 1.13-.148 1.741-.027.305-.065.81-.038.505-.085 1.214-.046.709-.08 1.29-.034.581-.071 1.257-.037.676-.063 1.288-.026.612-.041 1.11-.016.497-.027 1.085-.012.588-.027 1.231-.015.644-.036 1.343-.02.699-.039 1.242t-.044 1.121q-.025.578-.046 1.152-.021.573-.054 1.409-.033.836-.06 1.502-.026.665-.065 1.44-.039.775-.078 1.459-.039.683-.094 1.568-.054.885-.099 1.48-.044.594-.118 1.623-.075 1.03-.125 1.612-.05.582-.093 1.133-.043.552-.082 1.189-.039.637-.077 1.238-.038.602-.081 1.374-.043.771-.074 1.418-.03.646-.065 1.438-.034.792-.069 1.724-.035.931-.067 1.447-.032.517-.062 1.386-.029.869-.045 1.315-.016.447-.041.778-.024.332-.075 1.145t-.081 1.363q-.029.549-.078 1.189-.048.639-.083 1.098-.035.459-.069.919-.033.461-.076 1.078-.043.618-.07 1.139-.028.521-.046 1.153-.017.632-.004 1.033.012.401.058.687.046.286.232.839l.204.295.284.099q.09.002.656-.113.567-.114.989-.285.423-.17.798-.359.375-.19.842-.458.466-.268.925-.535t.908-.53q.449-.262.899-.521.451-.258.903-.509.451-.251.854-.477.402-.227.934-.529.531-.303.873-.485.341-.183.699-.373.358-.19.845-.446.488-.256.887-.47.399-.214.866-.476.467-.262.946-.516.479-.254 1.026-.526.547-.273 1.109-.553.561-.281 1.14-.57.578-.289 1.233-.616.654-.327 1.384-.695.73-.367 1.336-.68.607-.313 1.323-.714.716-.4 1.427-.891.711-.491 1.299-1.046t.914-.973q.326-.418.421-.559.094-.141.281-.568.188-.427.351-.893.164-.467.299-.948.134-.481.178-.715.045-.234.175-.851.131-.616.358-1.698.227-1.081.412-1.94.185-.858.33-1.49.144-.632.261-1.126.117-.495.25-1.03t.283-1.245q.149-.709.27-1.253.121-.543.263-1.156.143-.613.268-1.12.126-.508.235-.909.217-.803.598-2.297.381-1.493.575-2.288.194-.794.554-2.394.36-1.6.594-2.628.235-1.029.429-1.746.195-.717.502-1.91t.511-2.032q.204-.839.601-2.334t.631-2.468q.233-.974.465-2.129t.367-1.796q.135-.642.242-1.167.107-.525.469-1.99.363-1.465.558-2.189.196-.724.286-1.046.09-.322.188-.738.098-.417.156-.688.059-.272.105-.464.047-.192.174-.744.126-.552.191-.83.065-.278.195-.916t.385-1.634q.255-.996.411-1.526.157-.53.303-1.059.147-.528.343-1.34.196-.811.401-1.546.204-.735.363-1.286.16-.551.421-1.506.261-.954.395-1.473.133-.519.238-.964.105-.444.255-.988.15-.544.352-1.347.203-.803.532-2.009.33-1.206.431-1.586.101-.38.292-1.038.192-.658.413-1.512.221-.854.374-1.412.154-.558.323-1.16.17-.603.298-1.227.128-.625.268-1.252.141-.628.278-1.137.138-.509.268-1.144.129-.636.233-1.152.104-.517.289-1.154.184-.637.293-1.142.108-.505.298-1.157.19-.651.285-1.003.094-.351.141-.585.046-.234.067-.469.02-.235.135-.781.115-.545.199-.938.084-.392.11-.726.026-.335.088-.688.063-.353.104-.601.042-.248.075-.543.034-.295.067-.545.032-.249.079-.473.047-.224.107-.636.059-.411.092-.647.032-.236.058-.339.026-.102.053-.226.027-.124.094-.771-.706.397-1.411.793-.705.397-1.411.793-.705.397-1.41.793-.706.397-1.411.793-.705.397-1.411.794-.705.396-1.41.793-.706.396-1.411.793-.705.396-1.411.793-.705.397-1.411.793-.705.397-1.41.793-.706.397-1.411.793-.705.397-1.411.794-.705.396-1.41.793-.706.396-1.411.793-.705.396-1.411.793-.705.397-1.41.793-.706.397-1.411.793-.706.397-1.411.793-.705.397-1.411.794-.705.396-1.411.793-.706.397-1.412.793-.706.397-1.413.794l-1.416.795q-.708.398-1.419.796-.711.398-1.426.798-.716.4-1.437.802-.72.401-1.449.806-.728.404-1.465.811-.737.406-1.482.816-.745.41-1.497.821-.751.412-1.505.824l-1.506.825Z"/>
    <path fill="#60d2ce" stroke="#60d2ce" stroke-width=".5" d="M115.06 248.137q-.002.156.291 1.754.292 1.598.689 3.198.396 1.6.933 3.443.536 1.843.868 2.917.331 1.074.615 1.967.285.893.433 1.328.148.434.948 2.918.801 2.484 1.186 3.768.384 1.283.906 3.053.523 1.77.876 2.876.354 1.106.837 2.555.483 1.45 1.79 5.212 1.307 3.762 1.98 5.652.673 1.89.971 2.699.298.809.502 1.324.204.516.673 1.8.468 1.283 1.029 3.044.561 1.76.716 2.214.154.454 1.136 3.619.983 3.165 1.48 4.851.497 1.685.816 2.775.32 1.089.578 1.872.129.391.302.953.173.561.39 1.294.217.732.379 1.298.162.566.324 1.165.161.598.4 1.379.239.781.422 1.338.182.557.287.874.106.316.158.463.052.147.075.224.024.078.206.591.183.512.34.92.157.407.348.88.192.474.399 1.001.207.527.365.938.157.411.334.883.176.473.312.847t.281.784q.145.411.189.542.045.131.152.474.108.342.275.902.167.56.297 1.037.13.477.225.867.096.39.205.847l.233.974q.124.519.224.909.099.39.21.786.111.396.211.671.1.274.149.398.049.124.218.481.168.357.317.59.15.232.242.345.092.113.186.2.094.087.12.116.026.029.322.2t.907.459q.612.287.965.42.353.132.807.288.453.156 1.15.393.697.238.99.326.293.088.932.306.638.218 1.015.344.377.125.96.299.583.175.954.303.371.127.923.313.551.186 1.132.348.581.163 1.253.37.672.206 1.269.413.596.207.997.338.401.132 1.06.341.659.21 1.23.42.572.21 1.219.44.647.229.754.263.107.033.489.149.383.117.747.23.363.114.833.268.471.154.884.298.413.143.947.343.534.2 1.028.397.981.415 1.581.718t1.164.622q.565.319 1.175.668.611.349 1.057.602.446.254.935.518.489.264.909.468.42.204.949.413.529.209 1.137.401.608.192 1.211.373.603.181 1.379.377.776.195 1.629.442.853.246 1.262.374.408.128.677.213.269.085.816.293.547.208.995.397.449.19 1.231.511.783.32 1.466.617.684.297 1.049.448.364.15.593.233.229.082.256.096.027.014.341.124.315.111.678.182.363.072.454.083.09.012.305.018.214.006.413-.018.198-.025.422-.077.224-.052.46-.191l.07-.098q.122-.291.197-.749.074-.458.082-.993.008-.536-.015-1.301-.023-.765-.029-1.21-.007-.446-.01-.571-.002-.126.004-.494t.026-.979q.02-.61.048-1.159.028-.548.061-1.036t.058-.84q.025-.352.045-.567.02-.216.069-.683.05-.468.094-1.192.044-.725.087-1.37.042-.645.07-1.111.029-.465.059-.965.03-.5.056-.94.026-.44.059-1.01.033-.569.061-1.084.028-.516.045-.884.016-.368.024-.59.008-.222.022-.629.015-.407.029-.995.014-.589.02-1.128.006-.54.011-1.032.005-.493.008-1.003.003-.51.006-.897.002-.387.004-.821.002-.433.006-.814.004-.381.012-.872.008-.492.025-.937.018-.444.041-.93.022-.486.051-1.013.03-.527.059-.932.029-.405.066-.829.037-.423.088-.844.051-.422.104-1.017.053-.596.128-1.507.078-.912.128-1.632.049-.72.067-1.248.017-.528.031-1.054.013-.527.022-1.052.008-.524.016-.994.007-.47.014-.884.006-.415.018-.998.011-.583.028-1.335.016-.751.03-1.534.015-.782.024-1.392.009-.61.017-1.169.008-.559.015-1.092.008-.534.013-.927.006-.394.012-.826.006-.431.013-.901.006-.47.014-.978.007-.508.014-.97.006-.462.016-1.085t.021-1.27q.012-.646.022-1.108.009-.461.021-.876.011-.415.012-.972.001-.558.002-.979 0-.421.002-.891.001-.47.007-.885.005-.415.019-.954.013-.539.028-1.029.014-.491.038-.915.025-.424.055-.78.03-.357.076-.82l.1-1.033q.055-.57.09-1.03.035-.46.052-.812.017-.352.032-.821.015-.468.013-1.047-.003-.58-.011-.912-.008-.332-.005-.47.002-.137.008-.222.007-.084.014-.628.007-.543.036-1.148.029-.605.072-.987.043-.381.068-.649.025-.268.048-.537.022-.269.04-.45.018-.181.066-.516t.085-.566q.038-.23.058-.328.02-.098.054-.419.033-.32.072-.638.039-.319.095-.628.055-.309.123-.923l.067-.514q-.642-.193-1.281-.387-.639-.195-1.275-.39-.636-.196-1.271-.392-.635-.196-1.269-.392-.634-.196-1.268-.393-.634-.196-1.268-.393-.633-.196-1.267-.392-.634-.197-1.268-.393-.634-.197-1.268-.393-.633-.196-1.267-.393-.634-.196-1.268-.393-.633-.196-1.267-.392-.634-.197-1.268-.393-.634-.197-1.268-.393-.633-.196-1.267-.393-.634-.196-1.268-.393-.633-.196-1.267-.393l-1.268-.392q-.634-.197-1.267-.393-.634-.197-1.268-.393t-1.268-.393q-.634-.196-1.267-.393l-1.268-.392q-.634-.197-1.267-.393-.634-.197-1.268-.393t-1.268-.393q-.634-.196-1.267-.393-.634-.196-1.268-.393-.634-.196-1.267-.392-.634-.197-1.268-.393-.634-.197-1.268-.393-.633-.196-1.267-.393-.634-.196-1.268-.393l-1.268-.392q-.633-.197-1.267-.393-.634-.197-1.268-.393-.633-.196-1.267-.393-.634-.196-1.268-.393-.634-.196-1.267-.392-.634-.197-1.268-.393-.634-.197-1.268-.393-.633-.197-1.267-.393-.634-.196-1.268-.393-.634-.196-1.268-.393-.633-.196-1.267-.392-.634-.197-1.268-.393-.633-.197-1.267-.393-.634-.196-1.268-.393-.634-.196-1.267-.393l-1.268-.392q-.634-.197-1.268-.393-.633-.197-1.267-.393-.634-.197-1.268-.393t-1.267-.393q-.634-.196-1.268-.393l-1.268-.392q-.633-.197-1.267-.393-.634-.197-1.268-.393t-1.267-.393q-.634-.196-1.268-.393l-1.268-.392q-.633-.197-1.267-.393-.634-.197-1.268-.393-.634-.197-1.267-.393Z"/>
    <path fill="#60d2ce" stroke="#60d2ce" stroke-width=".5" d="m178.16 219.255-.157.096q-.395.208-.504.269-.109.06-.396.226-.286.165-1.07.567-.783.402-1.256.643-.472.24-.982.52-.511.28-2.009.983-1.499.702-2.894 1.309-1.396.606-2.112.914-.716.309-1.88.868-1.165.56-2.519 1.216-1.355.656-2.38 1.11-1.026.454-1.889.805-.863.352-2.081.878-1.219.526-1.908.849-.69.323-1.423.651-.733.329-.922.42-.19.091-1.21.564-1.02.472-1.872.864-.852.391-1.433.674-.581.283-.869.409-.287.126-.948.444t-1.173.57q-.512.253-1.197.576-.685.322-1.461.697-.777.375-1.164.547-.386.172-1.166.55-.78.379-1.799.862-1.02.484-1.971.883-.952.399-2.008.825-1.057.426-1.578.64-.521.214-.813.327-.291.114-.654.263-.362.148-.713.288-.351.139-.709.275-.357.135-.684.27-.327.134-.672.29-.344.155-.687.302-.342.148-.709.286-.367.139-.694.293-.326.154-.614.283-.288.129-.714.311-.426.183-.713.326-.287.142-.681.335-.395.193-.609.292-.215.099-.621.277-.407.177-.794.361-.386.185-.627.296-.242.112-.399.188-.157.075-.536.244-.379.168-.799.379-.421.21-.604.32-.184.11-.282.163-.097.052-.311.197-.214.144-.388.312-.175.167-.228.246-.054.08-.07.118-.016.039-.07.196-.004.01.053.134.056.123.283.344.227.221.462.355.234.133.398.2.165.067.324.121.158.054 1.083.266.925.211 1.704.383.779.172 2.432.706t2.926.982q1.273.449 2.14.757.866.309 2.302.772t2.456.733q1.019.27 2.656.639 1.637.369 2.768.63 1.132.261 1.648.388t1.391.368q.876.241 2.282.638 1.407.397 2.485.697 1.078.301 2.201.608t1.819.489q.695.183 1.157.308.461.125 1.42.4.958.276 2.091.645 1.134.37 2.129.753.996.383 1.603.654.608.272.965.437.356.166.747.342.391.175 1.032.447.641.271 1.663.698 1.022.427 1.795.756.773.329 1.559.677.787.348 1.264.567.477.22.803.382.325.162.894.413t1.134.472q.565.221 1.499.488.934.267 2.426.671 1.492.403 2.67.725 1.178.321 2.474.662 1.296.342 2.115.546.82.204 1.789.415.969.212 1.694.36.725.147 1.929.361 1.204.213 2.461.368 1.258.155 2.116.289.858.134 2.277.532t1.524.446q.105.049.561.306.456.257.654.393.197.136.328.243.13.108.219.189.09.08.118.102.028.022.099.11.071.089.103.152.032.062.079.202.004.05-.017.166t-.038.155q-.016.04-.021.045-.006.005 0 .048.051-.042.26-.15.208-.108 1.045-.673.836-.566 2.486-1.635 1.65-1.069 2.9-1.916 1.249-.848 1.881-1.281.632-.433 2.195-1.438 1.563-1.006 2.409-1.525.846-.518 2.536-1.546 1.689-1.027 2.691-1.604 1.001-.576 1.539-.871.538-.295.994-.54.455-.245.614-.326.158-.082.719-.395.561-.314 1.583-.885 1.021-.57 1.893-1.049.871-.479 1.95-1.062 1.079-.583 1.904-1.018.825-.435 2.067-1.157 1.242-.723 2.282-1.306 1.04-.582 1.527-.827.487-.245 1.463-.795.977-.55 1.439-.824.461-.273 1.193-.754.732-.482 1.136-.744.403-.262.634-.406.232-.144.579-.355.346-.212 1.058-.707.713-.494.897-.638l.195-.24q-.966-.442-1.952-.884-.985-.442-1.989-.884t-2.024-.885q-1.02-.442-2.051-.884-1.032-.443-2.07-.886-1.038-.442-2.077-.885t-2.074-.885q-1.035-.443-2.063-.885-1.028-.443-2.047-.885-1.019-.442-2.03-.885-1.01-.442-2.011-.884-1.002-.442-1.997-.884-.994-.442-1.983-.884-.989-.442-1.973-.884-.985-.442-1.966-.884-.982-.442-1.961-.884-.98-.442-1.958-.884l-1.956-.884q-.977-.441-1.954-.883l-1.954-.884-1.954-.884q-.977-.442-1.953-.883l-1.954-.884q-.976-.442-1.953-.884l-1.954-.884q-.977-.442-1.954-.885-.977-.442-1.954-.885-.978-.442-1.956-.886-.978-.443-1.957-.888-.979-.444-1.96-.89t-1.964-.895q-.983-.449-1.968-.9Z"/>
    <path fill="#e6f8e7" stroke="#e6f8e7" stroke-width=".5" d="M144.287 256.419q.047-.024.659-.294.612-.27.97-.459.357-.189.602-.345.245-.155.764-.64.519-.486.777-.781.259-.294.573-.685.315-.392.558-.754.242-.361.428-.702.186-.341.458-.854.272-.513.431-.826.16-.313.238-.479.077-.165.223-.467.145-.303.369-.753.225-.451.447-.918t.332-.729q.11-.261.206-.533.096-.272.199-.567.103-.295.159-.466.056-.172.101-.318.044-.146.137-.392.092-.246.183-.37.09-.124.126-.153.089-.01.135-.011.047-.001.237.033t.417.127q.226.093.421.178.194.086 1.051.367.857.282 1.456.446.599.165 1.139.272.54.107 1.222.201.682.094 1.136.169.453.075.914.182.461.106.744.168.283.062.62.115.337.054.82.118.484.065.851.108t.746.076q.379.034.799.051.42.018.733.027.313.008 1.12.024.806.016 1.293.011.487-.004 1.024-.042.537-.037 1.032-.089t.783-.081q.288-.028.848-.09.561-.061.956-.121.395-.06.894-.151.499-.09.735-.137.237-.048.585-.146.347-.099.66-.193.313-.095.543-.16.23-.066.539-.143.309-.077.575-.101.267-.023.394-.014.127.008.196.021.068.013.219.07.024.008.215.442t.255 1.016q.063.582.099 1.165.035.583.053 1.39.017.806.011 1.486-.006.68.022 1.532.029.852.045 1.4.017.549.012.809-.004.261-.012.942-.007.68-.031 1.242-.023.561-.046.935t-.036.599q-.013.225-.021.333-.008.109-.077.98-.035.435-.062.74-.028.306-.059.569-.031.263-.067.512-.035.248-.117.751t-.206 1.119q-.124.616-.209.99-.086.373-.151.622-.065.25-.136.473-.071.224-.302.836-.231.611-.47 1.155-.54-.176-1.085-.367-.545-.192-1.097-.403-.553-.212-1.112-.431-.558-.219-1.12-.434-.561-.215-1.122-.415-.561-.201-1.118-.382t-1.109-.344q-.551-.163-1.096-.313-.544-.15-1.08-.293-.537-.143-1.065-.287-.529-.144-1.05-.293t-1.036-.309q-.514-.16-1.024-.326-.509-.167-1.016-.337t-1.012-.34q-.506-.17-1.011-.335-.505-.166-1.012-.325t-1.015-.312q-.508-.153-1.017-.302-.51-.149-1.021-.298-.51-.148-1.022-.299-.511-.151-1.022-.311t-1.022-.326q-.511-.166-1.021-.339-.511-.172-1.021-.349-.51-.177-1.021-.354-.51-.178-1.02-.355-.511-.176-1.022-.349-.51-.173-1.022-.341-.511-.168-1.024-.332-.512-.163-1.025-.322-.513-.159-1.027-.315Z"/>
    <path fill="#e6f8e7" stroke="#e6f8e7" stroke-width=".5" d="M177.163 265.887q-.045.22-.069.354-.023.133-.056.292-.034.159-.06.402M178.298 266.777q.181.068.198.073.016.005.411.16.394.156.617.244.223.087.522.204.3.117.507.201.208.085.477.204.268.118.836.322.567.204.856.298.288.094.429.142.142.048.28.096.137.049.368.133.231.083.367.133.136.05.725.252.59.201 1.029.354.438.152.668.238.231.085.59.193.358.108.648.193.291.086.563.181.272.096.511.176.239.08.433.144.194.064.409.149.215.086.376.145.162.06.306.097.144.038.32.088.176.049.281.067.106.018.173.023.066.004.237-.012.171-.017.288-.046.117-.029.229-.072.111-.043.312-.17.201-.126.359-.269.158-.144.236-.23.078-.087.357-.499.279-.412.439-.72.161-.308.229-.459.068-.151.134-.303.067-.152.173-.431.106-.278.194-.5.088-.222.225-.531.137-.309.204-.454.067-.144.167-.408.099-.265.215-.577.117-.312.184-.51.067-.198.128-.407.06-.21.097-.342.036-.132.106-.332t.204-.56q.135-.359.203-.537.069-.179.133-.381.063-.202.141-.454.079-.253.126-.399.048-.147.168-.523.12-.375.159-.51.038-.134.061-.232t.075-.282q.052-.184.18-.576.128-.392.241-.741.112-.348.249-.798.138-.45.205-.701.067-.25.114-.465.047-.215.108-.463.06-.248.223-.654.162-.406.253-.597.092-.191.146-.312.054-.121.096-.224.043-.103.143-.345.1-.243.165-.432.066-.189.125-.474.06-.285.086-.478.027-.193.047-.342.019-.149.027-.24.009-.091.013-.224.005-.134.007-.144.002-.011 0-.198-.002-.188-.01-.32-.008-.133-.007-.368 0-.235.011-.617.01-.382.025-.679.016-.296.043-.613.027-.318.07-.624.042-.306.118-.668.076-.362.185-.876.108-.514.157-.835.048-.32.066-.534.017-.214.031-.52.014-.307.015-.449v-.31q.001-.167.008-.821.008-.654.018-.892.01-.237.018-.462.009-.225.014-.536.006-.311.004-.675-.002-.365-.014-.512-.013-.147-.03-.249-.018-.102-.037-.175-.019-.074-.064-.204-.044-.131-.066-.177-.021-.046-.078-.13-.057-.084-.122-.163-.065-.08-.197-.203-.132-.124-.322-.245-.19-.12-.303-.18-.114-.06-.206-.105-.092-.045-.332-.156-.24-.111-.373-.169-.133-.059-.341-.16-.207-.101-.363-.174-.155-.074-.444-.19-.288-.117-.534-.202-.245-.085-.46-.163-.215-.079-.446-.152-.23-.074-.465-.132-.236-.058-.407-.093-.172-.036-.461-.097-.289-.061-.529-.103-.239-.043-.546-.076-.306-.034-.567-.056-.26-.022-.444-.04-.183-.019-.293-.035-.11-.016-.67-.055t-.873-.058q-.313-.018-.459-.028-.147-.01-.278-.026-.131-.015-.423-.042-.291-.027-.565-.045-.275-.019-.521-.042-.246-.023-.524-.051-.279-.027-.754-.061-.476-.033-.716-.05-.24-.018-.756-.056-.517-.038-.822-.055l-.682-.04q-.377-.022-.796-.024-.419-.002-.759.004-.339.006-.519.007-.179.001-.242.003-.062.002-.154.004t-.254.012q-.163.009-.259.016-.097.008-.268.02-.171.011-.487.029-.315.017-.716.056-.402.039-.726.069-.325.029-.528.04-.204.011-.494.041-.291.03-.436.047-.145.018-.249.025l-.663.044q-.557.037-.852.053-.295.017-.502.039-.207.021-.67.078-.462.057-.882.107-.419.049-.771.073-.353.024-.553.033-.201.009-.436.023-.236.014-.569.021-.333.007-.549.016-.217.009-.502.033-.286.023-.53.046-.244.022-.483.068-.24.046-.362.082-.121.037-.233.07-.112.033-.202.067-.091.034-.167.073-.076.039-.18.107-.105.069-.228.165-.123.096-.206.174-.083.078-.14.141-.057.063-.32.455-.264.392-.517.883-.254.49-.396.787-.143.298-.263.559-.12.262-.236.535-.116.274-.268.627-.152.353-.24.561-.087.209-.291.8-.204.591-.296.942t-.131.564q-.039.214-.051.414-.011.2-.002.305.009.105.045.229.036.125.073.189.037.065.056.086.019.021.06.056.041.035.56.2.519.166.862.19.343.023.526.018.182-.005.549-.046.367-.04.591-.06.224-.02.596-.034.372-.015.609-.02.237-.005.544-.033.308-.027.6-.049.292-.021.569-.035.278-.015.702-.055.425-.041.892-.091.467-.05.712-.078.245-.029.379-.051.135-.021.494-.073.36-.052.877-.164.518-.113.841-.198.322-.085.572-.153.25-.068.584-.165.334-.098.722-.178.388-.081.6-.112l.291-.044q.08-.013.245-.034.164-.022.26-.033.096-.01.175-.016.079-.006.133-.005.054 0 .259-.017.206-.016.313-.046l-.068 1.382-.068 1.389q-.035.697-.069 1.395-.034.697-.069 1.396-.035.698-.069 1.396-.035.699-.069 1.397-.035.699-.069 1.397-.035.699-.069 1.397-.035.699-.069 1.397-.035.699-.069 1.397l-.07 1.397q-.034.699-.069 1.397-.034.699-.069 1.397-.034.699-.069 1.397-.034.699-.069 1.397-.034.699-.069 1.397Z"/>
    <path fill="#e6f8e7" stroke="#e6f8e7" stroke-width=".5" d="M200.549 244.344q-.006.019-.039.221t-.094.586q-.06.385-.103.696-.043.312-.082.668-.039.356-.059.623-.021.266-.056.821-.036.554-.054.842-.017.287-.025.416t-.019.257q-.012.129-.065.585-.053.456-.136 1.069-.083.613-.136.953-.052.341-.082.536-.029.196-.11.609-.081.412-.167.824-.086.412-.137.636-.051.224-.252.831-.202.607-.325.941-.123.335-.224.605-.101.27-.237.69-.136.419-.256.857t-.178.666q-.057.229-.142.536-.086.307-.207.746-.122.439-.175.651-.053.212-.112.439-.06.227-.191.679-.131.453-.215.727-.084.275-.187.602-.103.327-.231.669-.129.341-.276.701-.147.359-.251.601-.104.243-.246.529-.141.286-.257.505-.117.22-.198.366t-.22.407q-.139.261-.213.395-.074.134-.146.268-.073.135-.183.329t-.164.286l-.105.181q-.052.089-.195.336-.142.247-.231.386-.088.139-.198.322-.109.183-.155.268-.046.085-.089.163-.043.079-.085.179-.042.101-.072.208-.031.108-.056.271-.025.163-.023.217.003.055.009.087.006.033.017.06.011.027.237.214.227.187.576.314.348.127.527.172.178.044.367.082.188.039.436.089.248.05.371.073.123.023.243.032.121.008.219.016.097.007.202.011.105.004.177.001.071-.002.211-.02.141-.017.265-.035.125-.019.414-.106.29-.087.416-.135.127-.047.278-.109.152-.062.302-.134.15-.072.457-.235.306-.162.793-.422.487-.259 1.485-.838.998-.578 1.576-.923.578-.344.916-.533.338-.189.495-.272.158-.083.477-.26.32-.176.63-.345.311-.168.443-.236.132-.067.514-.272.382-.204.636-.334.253-.129.361-.181.108-.052.267-.125.159-.073.471-.236.312-.162.494-.265.183-.103.481-.269.298-.167 1.499-.811 1.202-.645 1.469-.785.267-.141.402-.213.135-.072.317-.166.181-.094.523-.277.342-.182.626-.347.285-.166.522-.312.238-.147.435-.273.198-.126.419-.263.221-.136.37-.242.15-.106.26-.186.111-.08.255-.218.144-.139.202-.204.058-.066.101-.131.043-.065.079-.143.036-.078.05-.126.014-.048.045-.192.031-.145.059-.337.028-.193.037-.352.009-.158.001-.384t-.021-.574q-.013-.348-.023-.565-.011-.217-.022-.351-.01-.135-.019-.237-.009-.103-.012-.214-.004-.111-.007-.45t.018-.74q.022-.402.049-.718.028-.317.054-.532.026-.215.055-.384.015-.084.044-.339.029-.255.075-.682.046-.426.081-.752.036-.326.07-.664.035-.338.064-.589.029-.252.07-.579.041-.328.077-.612.035-.285.055-.456.021-.171.055-.499.034-.329.089-.656.054-.327.095-.531.041-.204.104-.485.064-.281.13-.597.066-.317.1-.484.033-.168.061-.291.027-.122.082-.39.055-.269.079-.406.024-.136.049-.259.025-.122.038-.216.013-.093.02-.195.007-.101.011-.199.004-.098 0-.162t-.016-.168q-.013-.104-.035-.197-.023-.093-.046-.168-.035-.039-.118-.123-.082-.084-.18-.147-.097-.062-.142-.087-.046-.026-.204-.082-.159-.056-.417-.127-.259-.07-.463-.113-.203-.042-.402-.078-.198-.036-.421-.089-.222-.054-.493-.11t-.495-.096l-.425-.076q-.2-.036-.53-.083-.329-.047-.574-.072-.246-.026-.527-.054-.282-.028-.407-.038-.124-.009-.382-.034-.257-.025-.573-.042-.315-.016-.975-.073l-.197-.026q-.589.07-1.172.131-.584.061-1.162.116-.578.055-1.154.112-.576.056-1.153.119-.576.062-1.154.133-.578.07-1.157.148-.58.078-1.16.16-.581.083-1.162.169Z"/>
    <path fill="#c1f3d6" stroke="#c1f3d6" stroke-width=".5" d="m139.187 279.456.039.048.043.059q.095.16.371.574.275.413.437.663.162.249.295.463.133.215.265.43t.307.502q.175.287.322.532.146.245.325.548.178.304.315.552.138.249.265.488.126.239.289.554.162.314.346.663.185.349.392.735.207.385.366.684.159.299.327.61t.402.723q.234.413.365.643.131.23.29.543.158.312.315.6.158.288.446.85.288.562.444.857.156.296.246.461.089.165.279.393.191.228.348.291.03-.022.11-.135.079-.114.138-.275.059-.162.095-.302.037-.14.096-.436.059-.296.153-.805.093-.509.163-.906.071-.396.14-.813.07-.417.1-.615.031-.199.086-.502.054-.304.142-.771t.16-.819q.072-.351.154-.712.083-.361.139-.588.056-.227.119-.463.063-.236.153-.556.089-.319.149-.531.06-.212.108-.374.047-.161.087-.277.04-.117.072-.193.032-.077.078-.209.045-.133.193-.621.015-.033.09-.264-.33-.073-.66-.145l-.66-.144q-.33-.073-.66-.144-.331-.072-.661-.144l-.66-.144q-.33-.072-.66-.143l-.66-.144q-.331-.072-.661-.143l-.66-.144q-.33-.072-.66-.143-.33-.072-.661-.144l-.66-.144q-.33-.071-.66-.143l-.66-.144q-.331-.071-.661-.143t-.66-.143ZM169.06 300.26l.022.021q.125.064.567.4.442.336.836.625.394.29.757.545.362.256.626.452.263.197.55.421.287.223.513.406.226.182.474.391.247.209.683.54.436.33.864.635.429.304.716.508.287.204.531.377.244.173.54.38.296.207.514.348.217.142.428.26.21.119.296.152.085.033.168.056t.208.048q.124.025.182.026.058.001.172-.01.018-.001.127-.069.108-.069.261-.226.153-.157.237-.273.083-.116.193-.287.111-.171.128-.203.018-.033.14-.234.122-.201.352-.586.229-.386.411-.684.182-.298.386-.61.203-.311.361-.535.158-.223.237-.322.079-.098.267-.346.188-.249.351-.468.163-.219.422-.585.26-.366.465-.669.205-.304.399-.589.194-.285.416-.624.223-.338.305-.46.082-.121.138-.209.057-.087.105-.165.048-.078.142-.222.094-.143.101-.151.007-.007.233-.353l-.989.142q-.495.071-.99.143-.494.071-.989.143-.494.071-.989.143-.494.071-.989.143-.494.071-.989.143-.494.071-.989.143-.494.071-.989.143-.494.072-.989.143-.494.072-.989.143-.494.072-.989.143-.494.072-.989.143l-.989.144q-.494.071-.989.143-.494.071-.988.143l-.989.144ZM145.742 314.673q.029-.017.232-.119l.581-.292q.378-.19.684-.345l.654-.33q.348-.177.695-.343.346-.167.7-.347.353-.18.547-.275.194-.095.557-.259.363-.163.61-.279.246-.116.656-.311.41-.194.67-.312.259-.119.382-.17.123-.052.442-.205.32-.153.508-.244.187-.091.37-.154t.242-.073q.06-.01.268-.065.208-.055.316-.055.086.007.111.015.025.008.046.025.022.016.026.03.004.014.012.096.008.081-.04.371-.049.29-.141.616-.092.326-.247.789-.154.463-.277.818-.123.354-.257.717-.135.363-.22.586-.086.222-.25.656-.165.434-.38 1.005-.214.57-.371 1.073-.158.502-.276.955-.117.453-.229.813-.111.36-.191.563-.08.203-.172.432l-.221.553q-.13.323-.244.595-.114.272-.26.605-.146.333-.321.707-.176.374-.242.518-.067.144-.201.455-.133.312-.21.483-.077.172-.202.472-.126.3-.191.495-.13-.321-.261-.641-.13-.321-.26-.641-.131-.32-.261-.641-.13-.32-.261-.64-.13-.321-.26-.641-.131-.32-.261-.641-.13-.32-.261-.64-.13-.321-.26-.641-.131-.321-.261-.641t-.261-.641q-.13-.32-.26-.641-.13-.32-.261-.641l-.26-.642-.26-.642q-.13-.322-.259-.645l-.259-.646ZM139.222 288.405l-.018.071-.013.113q-.011.063-.021.284-.009.22.009.377.018.156.108.462.09.306.158.444.068.137.235.39.166.252.263.386.096.134.204.256.108.122.227.269.119.146.17.216.052.07.126.18.074.11.092.145.018.035.057.109.039.074.066.145l.026.116q-.004.206-.015.323-.011.116-.039.246-.027.129-.059.265t-.112.377q-.079.24-.126.38t-.114.328q-.066.189-.112.329-.046.139-.084.248-.039.109-.089.239-.05.131-.131.351-.08.22-.106.281-.026.061-.091.23t-.1.269q-.035.1-.07.195t-.146.453q-.112.358-.188.635-.077.277-.121.454t-.085.362q-.041.186-.109.746-.067.561-.079.961-.011.401-.004.626.007.224.031.609.023.385.063.683.04.298.123.7.083.402.163.685.079.282.172.588.093.306.187.566.094.259.214.555.121.295.204.487.083.192.246.52.163.328.248.479.084.15.167.273.083.122.258.345.175.223.358.423.182.2.418.413.236.213.365.324.128.11.244.222.115.111.194.199.078.087.119.136.041.049.081.094.039.045.092.138.053.093.075.147.021.053.046.159.026.106.031.156.005.051.005.075.001.024-.009.088-.01.065-.024.12-.013.056-.048.145-.035.088-.115.322-.08.235-.132.375-.051.14-.12.304-.07.165-.203.444-.134.279-.309.589-.175.309-.268.437-.093.128-.136.177-.043.048-.111.109-.069.06-.147.117-.078.058-.114.079-.037.022-.101.042-.065.019-.128.029-.063.01-.116.011-.053.001-.189-.045-.137-.046-.206-.085-.07-.039-.156-.104-.087-.065-.442-.434-.354-.37-.561-.638-.207-.269-.43-.618-.223-.348-.505-.819-.282-.471-.492-.818-.211-.347-.328-.538-.117-.192-.207-.342-.09-.149-.257-.443-.168-.295-.27-.503-.102-.209-.21-.47-.107-.262-.255-.647-.148-.385-.233-.617-.085-.232-.118-.35-.033-.117-.065-.243-.033-.126-.12-.606t-.181-1.038q-.093-.558-.138-.881-.044-.323-.06-.473-.015-.151-.026-.277-.011-.127-.052-.637-.041-.51-.051-.804-.011-.293-.014-.526-.003-.232-.005-.447-.002-.216.028-.982.031-.766.087-1.256.057-.489.101-.748.043-.26.162-.78.119-.52.284-1.063.164-.544.262-.808.099-.265.157-.391.057-.126.114-.223.057-.098.112-.199.055-.1.069-.127.014-.027.031-.046.016-.02.07-.097l2.362-4.502ZM157.063 317.998l.115.129q.107.119.268.314.161.194.334.456.173.262.263.437.091.175.154.327.063.151.146.457.083.305.108.445l.039.209q.013.07.022.273t.005.353q-.004.15-.018.293-.015.143-.032.269-.018.126-.026.192-.009.066-.01.183-.002.116.002.139.003.024.305.258.301.235.593.364.291.128.384.16.093.032.298.113t.486.177q.281.096.444.144.164.049.645.165.482.116.887.224.405.107.652.189.247.083.566.182.319.1.463.143.144.044.405.141.261.098.532.189t.727.195q.457.105.8.153.344.049.654.065.31.017.616.026.306.009.616-.001.31-.011.529-.033.218-.022.589-.073.37-.051.635-.109.265-.059.542-.127.278-.069.449-.117.172-.048.438-.153.266-.106.549-.226.284-.12.763-.381.478-.261.634-.347.157-.086.289-.169.131-.083.344-.225.213-.141.349-.232.137-.091.444-.316.308-.225.474-.354.166-.129.302-.233.136-.104.149-.111.014-.008.32-.255t.528-.442q.221-.195.316-.283.094-.087.215-.22.12-.134.314-.342.195-.209.354-.411.16-.202.272-.375.112-.173.276-.435.164-.261.252-.418.088-.156.164-.331.076-.175.258-.621.181-.446.288-.761.108-.315.201-.614.094-.3.203-.657.109-.358.171-.598.061-.241.159-.612.097-.371.147-.578.051-.207.114-.505.063-.298.113-.56.05-.262.071-.406.021-.143.029-.464.008-.321-.011-.387t-.023-.069q-.004-.003-.104.054-.101.056-.206.142-.106.086-.22.178-.114.093-.292.241-.177.148-.48.392-.303.243-.588.457-.285.213-.647.449-.362.236-.686.423-.324.188-.775.416-.451.228-.494.25-.044.022-.09.039t-.125.048q-.08.031-.272.121-.02.011-.076.062-.055.051-.396.521-.342.47-.409.581-.066.111-.178.293-.111.183-.452.743-.341.559-.55.856-.21.297-.311.421t-.157.187q-.055.062-.309.313-.254.252-.441.404-.187.153-.337.26-.15.107-.342.236-.193.129-.3.198-.106.07-.34.201-.234.132-.527.265-.293.133-.419.189-.127.056-.457.164-.33.109-.558.181-.228.073-.309.093-.081.021-.122.029-.042.007-.255.049t-.429.083q-.217.041-.39.059-.173.019-.321.029-.149.009-.218.01-.069.001-.207-.01-.138-.012-.294-.019-.157-.007-.297-.023-.139-.017-.249-.027-.109-.01-.36-.035-.251-.024-.403-.045-.153-.021-.353-.051-.2-.03-.239-.037-.04-.007-.342-.049-.424-.176-.852-.355t-.863-.362q-.435-.184-.88-.373-.446-.19-.904-.387t-.93-.403q-.472-.206-.955-.418l-.971-.428q-.487-.215-.972-.428ZM152.611 279.504q.069.016.182.053.113.037.181.06.068.024.158.067.091.043.196.11.105.067.202.123.096.056.213.155.116.098.23.226.115.128.208.244.093.115.113.14.02.025.161.259.141.235.257.482.115.248.168.386.054.139.102.249.048.11.139.332.092.221.139.324.048.103.279.427.57.045.86-.006.291-.051.457-.087.167-.037.299-.066.132-.03.609-.127.478-.097.982-.192.505-.094.914-.145.408-.051 1.026-.069.618-.018.905-.008.288.01.606.057t.532.084q.215.037.36.069.146.032.311.083.166.051.295.092.13.04.25.074.12.033.316.112.197.079.423.194.226.115.401.201.176.087.329.192.153.105.266.202.113.098.301.262t.299.264q.11.1.22.215.111.116.28.318.17.202.366.417.196.214.369.417.173.202.28.325.107.123.229.265.121.142.185.22.063.078.183.245.12.166.277.377.157.212.297.458.141.247.275.502.134.254.252.528t.189.464q.07.189.145.399.074.211.12.371l.089.309q.043.15.104.367t.095.364q.034.147.101.408.066.261.131.547.065.285.107.46.042.174.123.455.081.281.147.468.067.187.147.35.08.162.122.215.042.052.055.059.012.007.029.006.016 0 .154-.078.137-.078.285-.18.147-.103.25-.168.102-.065.253-.152.15-.087.291-.157.141-.069.228-.105.088-.036.248-.087.159-.051.248-.074t.204-.038q.115-.016.232-.018.117-.002.211 0 .094.003.12.003.027 0 .124.01.098.01.174.025.076.015.128.031.052.016.163.062.112.046.139.055.027.009.126.053.1.044.137.065.036.02.14.091.104.07.164.116.06.045.132.093.072.048.208.154.137.105.263.197.125.091.175.125.05.034.109.071.059.037.106.053t.054.017q.008.002.023-.032.016-.033.018-.06.003-.027.006-.032.003-.005-.007-.202-.01-.198-.036-.339-.026-.142-.053-.254-.026-.113-.086-.348l-.117-.466q-.058-.231-.26-.836-.203-.604-.427-1.182-.224-.577-.417-1.063-.193-.486-.292-.727-.099-.242-.17-.397-.071-.154-.147-.306t-.088-.169q-.012-.018-.138-.288-.127-.271-.218-.448-.091-.178-.147-.268-.055-.089-.079-.125-.024-.035-.078-.107-.053-.073-.203-.306-.149-.234-.247-.376-.098-.143-.204-.257-.105-.113-.467-.523-.362-.409-.434-.481l-.192-.195q-.121-.124-.285-.319-.164-.196-.295-.341-.132-.145-.349-.385-.217-.241-.335-.375-.119-.135-.2-.213-.081-.077-.175-.153-.093-.076-.238-.217-.145-.142-.256-.255-.111-.112-.195-.192t-.24-.205q-.156-.125-.373-.317-.217-.193-.363-.316-.146-.122-.271-.215-.125-.092-.271-.203-.145-.11-.193-.147-.048-.038-.197-.15-.149-.111-.353-.246-.203-.136-.43-.296-.227-.16-.345-.236-.118-.075-.282-.167-.164-.091-.301-.171-.138-.08-.255-.14-.117-.061-.194-.096-.077-.036-.282-.105-.205-.07-.548-.189-.344-.12-.425-.138-.081-.017-.241-.052-.159-.034-.216-.048-.056-.014-.362-.071-.306-.056-.479-.08-.173-.023-.301-.044-.127-.021-.143-.024-.016-.004-.156-.015-.14-.01-.443-.024-.303-.015-.782-.037-.479-.022-.735-.026-.255-.004-.498-.016-.242-.012-.707.001-.465.013-.684.024-.22.011-.403.037-.182.025-.268.041-.086.015-.577.07-.555.161-1.122.326-.568.165-1.145.333-.577.168-1.149.334-.572.167-1.13.329Z"/>
    <path fill="none" stroke="#381d1d" stroke-width="1.659" d="m114.354 247.974 81.599 25.049-3.32 84.028-49.614-18.813ZM196.458 273.185l46.364-25.424-22.763 94.391-27.34 14.857ZM177.479 219.306l-63.041 28.607M242.573 247.597l-64.566-28.274"/>
    <path fill="none" stroke="#381d1d" stroke-width=".905" d="m143.34 256.486.101-.016q.091-.035.246-.108.156-.073.319-.136.162-.063.7-.364.537-.301.887-.546.35-.246.862-.632.513-.386.936-.724.422-.337 1.04-1.026.617-.689 1.178-1.554.561-.866.852-1.436.291-.569.603-1.195.311-.625.526-1.16.216-.535.327-.86.111-.325.215-.598.103-.273.205-.562.103-.289.228-.725t.399-1.311"/>
    <path fill="none" stroke="#381d1d" stroke-width=".854" d="M153.072 243.537q.097.043.425.181.328.137.539.216.211.079.316.121.104.041 1.401.485t2.05.657q.754.213 1.359.365.604.151.837.203.232.052.849.145t1.47.159q.854.066 1.484.098t1.422.073q.792.042 2.348.021 1.555-.022 2.346-.07.791-.049 1.605-.141.813-.093 1.193-.145.38-.053.738-.099.359-.047 1.109-.166.751-.12 1.2-.199.449-.08.667-.118.217-.037.431-.073t.444-.079q.229-.042 1.838-.369M179.461 244.73q-.006.073-.014.261-.008.189.01.802.017.612.075 1.447.057.835.104 1.422.047.588.07.951.023.364.058.901t.086 1.152q.05.616.076 1.209.025.593.03 1.066.005.473-.006 1.283-.012.811-.083 1.728-.07.917-.117 1.361-.046.444-.085.806-.038.362-.308 2.013-.269 1.651-.52 2.757-.252 1.107-.345 1.444-.094.337-.163.543-.069.206-.294.991"/>
    <path fill="none" stroke="#381d1d" stroke-width=".854" d="M164.009 245.811q.028-.107.216-.852.189-.745.449-1.552.261-.807.478-1.352.218-.546.442-1.059.224-.513.547-1.111.324-.597.502-.902.178-.305.286-.506l.782-1.468M167.785 236.814l.192-.014.232-.029q.107-.007.406-.044.298-.036.788-.102.489-.065.895-.113.405-.047.887-.092t.978-.047q.496-.001.924.003.428.004.953.014.525.009.92.015t.66.008q.265.002.629.004t.827.001q.464 0 .854-.004.39-.003.706-.009.316-.006.743-.028.426-.021.965-.061.539-.04 1.03-.073.492-.034 1.159-.075.667-.04 1.233-.049.567-.008 1.065-.003.497.006.901.01t.879.008q.476.005 1.02.032t1.155.077q.612.05 1.085.097t.975.112q.502.064 1.014.13.513.066 1.239.2.726.134 1.019.201.293.067.615.16t.77.235q.447.142.79.259.343.117.701.255.357.138.919.379t.924.415q.363.174 1.323.738M200.152 239.572l.011.171q.017.096.04.757.023.66.033 1.165.009.504.014 1.073.004.568-.003 1.038-.008.469-.036 1.026-.028.557-.102 1.21-.075.654-.152 1.163l-.159 1.037q-.081.528-.153.98-.073.453-.171.966-.098.514-.202 1.164-.105.651-.195 1.153-.09.502-.201 1.073-.111.571-.23 1.16-.119.59-.246 1.199-.128.609-.271 1.233-.143.623-.302 1.263-.158.639-.278 1.107-.12.468-.241.914-.12.446-.231.792-.111.347-.277.803-.166.456-.395 1.114-.228.658-.356.997-.127.339-.449 1.105t-.49 1.138q-.168.372-.273.582-.105.21-.153.314-.047.103-.292.587-.246.483-.361.669-.115.186-.142.238-.026.052-.142.25-.115.198-.164.283-.049.086-.155.242t-.21.321q-.103.164-.17.258-.067.094-.243.361-.176.266-.595.837M200.647 244.211q.431-.107.605-.148.175-.041.276-.058.101-.016.695-.134.595-.117 1.042-.201.447-.084 1.102-.168t1.721-.114q1.067-.031 2.124-.014 1.056.017 1.914.059.857.042 1.639.113.782.07 1.695.204.914.134 1.508.229.593.096 1.26.19.668.093 1.813.273"/>
    <path fill="none" stroke="#381d1d" stroke-width=".927" d="m218.138 244.558-.044.169q-.04.108-.355 1.69-.315 1.581-.509 2.798-.193 1.218-.321 2.286-.127 1.068-.193 1.705-.065.637-.138 1.628-.072.991-.108 1.69-.036.699-.05 1.568-.014.87-.014 1.196 0 .326.009.703.008.377.017.618.01.242.052 1.019"/>
    <path fill="none" stroke="#381d1d" stroke-width="1.659" d="m177.792 219.237.349 16.756"/>
    <path fill="none" stroke="#381d1d" stroke-width=".951" d="m185.667 297.724-7.25 9.569-9.569-7.251ZM150.111 324.897l-4.815-10.379 9.96-4.26ZM138.448 278.848l11.461 2.883-2.883 11.461ZM151.993 279.528q.178-.052.446-.148.268-.095.444-.155.177-.06.493-.154t.537-.157q.22-.063.694-.202.474-.138.811-.22.337-.083.63-.142.292-.059 1.113-.18.821-.12 1.351-.159.531-.039.96-.04.429-.001.822.016.392.017 1.097.1.705.084 1.888.394 1.182.309 1.471.417.288.107.547.22.258.112.593.281.334.169.801.426.466.257.734.421.267.164.831.582.563.418.905.709.342.29.822.756.48.467 1.412 1.612.932 1.145 1.226 1.574.294.428.655 1.041.362.613.681 1.219.32.606.355.672.035.066.207.423t.285.611q.113.255.312.728.198.473.501 1.288.303.814.476 1.315.172.501.347 1.061.175.559.565 1.812M157.687 322.57q.262.105.372.154.109.049.517.235.408.187.618.28.21.093.748.319t.988.395q.449.169.941.324.493.155 1.061.318.569.163.921.254.353.09.901.185.548.094 1.118.156.57.062.928.085.358.024 1.315-.033.957-.056 1.476-.144.518-.087.869-.178.352-.09.853-.266.502-.176.993-.384.491-.209 1.055-.519.565-.31 1.25-.809.685-.498.969-.742.284-.244.657-.613.374-.369.592-.621.219-.252.605-.752.385-.5.715-1.033.33-.533.593-1.026.263-.494.624-1.387.36-.892.543-1.459.183-.566.291-.923.107-.356.444-1.793l.209-.909M139.068 287.915q-.056.124-.274.552-.218.427-.455.947-.237.52-.377.844-.14.325-.221.515-.081.191-.177.424-.097.233-.326.85t-.483 1.475q-.255.858-.455 1.818-.201.96-.277 1.478-.076.518-.112.834-.035.316-.066 1.747-.032 1.43.022 2.158.055.728.186 1.559.132.831.28 1.451.149.621.255.981.107.36.484 1.346.377.986.776 1.778.399.791.608 1.145.208.353.617.97.409.618.804 1.144.396.526.674.878.279.351 1.223 1.466"/>
    <path fill="none" stroke="#381d1d" stroke-width=".951" d="M141.358 291.444q-.037.085-.184.378-.146.292-.305.648-.159.356-.253.578-.094.222-.148.352-.054.13-.119.29-.065.159-.217.581-.153.422-.323 1.008-.169.587-.301 1.243-.131.655-.181 1.009-.049.353-.072.569-.022.216-.036 1.192-.014.976.026 1.472.041.496.135 1.062.094.566.198.988.105.423.179.668.075.244.337.915t.538 1.208q.276.538.421.778.144.24.426.659.281.419.554.776.273.356.464.595.192.238.842.993M155.583 283.582q.111-.032.28-.092.169-.059.28-.097.111-.037.31-.096.199-.058.338-.097l.437-.126q.298-.087.511-.138.212-.051.396-.087.184-.037.701-.112.516-.074.85-.098.334-.023.604-.023.27 0 .517.011.246.012.69.065.443.054 1.186.251.744.197.925.265.181.068.344.139.162.072.372.178.211.107.503.269.293.163.462.267.168.103.521.367.354.265.569.448.214.183.515.477.302.294.886 1.016.584.722.768.992.184.271.411.657.226.386.426.768l.222.423q.022.042.13.266.107.225.178.386.071.16.194.458.124.298.314.811.189.513.297.828.107.315.216.668l.353 1.141M156.995 317.77q.203.16.289.23.087.07.413.32.326.251.497.37.171.12.616.395.444.275.821.47.376.195.792.368.416.174.9.346.485.173.785.265.301.093.767.196.466.104.947.182.481.078.781.117.3.04 1.089.067.788.028 1.208.01.419-.019.7-.05.281-.032.679-.106t.783-.169q.386-.095.824-.247.439-.153.967-.414.527-.261.745-.391.218-.13.503-.329.286-.2.454-.337.167-.138.464-.411.297-.274.554-.566.257-.293.466-.563.208-.27.504-.757.297-.487.455-.794.159-.307.255-.499t.421-.963l.209-.484"/>
  </g>
</svg>
