<svg xmlns="http://www.w3.org/2000/svg" width="210.9067" height="181.444" viewBox="-368.195 409.627 158.18 136.083">
  <g stroke-linecap="round" stroke-linejoin="round">
    <path fill="#d6d6c5" stroke="#d6d6c5" stroke-width=".5" d="M-360.134 509.416q-.147.09-.429.345-.282.255-.533.515-.251.259-.373.424-.121.165-.178.254-.056.089-.346.581t-.443.758q-.153.266-.293.466-.14.199-.307.493-.166.295-.405.752-.239.457-.376.718-.138.262-.192.362-.054.1-.126.258-.072.157-.197.501-.126.344-.324 1.05-.199.706-.282 1.101-.083.394-.121.599-.038.205-.068.357-.03.151-.07.35-.04.199-.067.5-.027.302-.057.773-.029.471-.041.917-.012.446-.004 1.077.007.63.011 1.344.004.714.006 1.178.002.465.031.888.029.422.088.956t.133 1.055q.074.521.166 1.029.092.507.16.822.068.315.125.501.057.186.101.289.043.103.221.581.177.479.277.742.101.264.168.392.067.127.116.209.049.082.108.185t.235.396q.175.292.347.538.171.247.359.491.189.244.356.467.166.222.452.624.286.401.744 1.041.458.639.618.874.161.235.284.406.122.171.259.347.137.176.305.388.167.212.33.421.163.208.235.301.073.093.17.182.098.088.306.301.207.213.263.286.056.073.15.175.094.103.111.111.016.009.264.259.249.25.441.424.193.173.315.231.122.057.223.121t.119.076q.019.012.114.064.096.052.267.12.172.069.283.119.111.051.217.083.107.033.87.119.762.087 1.098.127.335.04.588.068.252.029.438.045.187.015.31.038t.216.047q.093.023.127.038.034.014.578.102.543.088.972.165.429.076.69.1.261.023.512.063t.459.081q.209.041.853.088.645.048 1.056.029.411-.018.892-.087.482-.07.968-.149.486-.079.957-.183t.786-.152q.315-.048.456-.068.141-.02.519-.06.379-.039.767-.026.389.013.536.025.147.011.428.07.281.058.453.113.172.054.384.117.213.062.339.106.126.043.191.066.065.024.133.057.069.033.277.111.208.079.418.14.211.062.41.121.199.059.469.14.271.081.4.104.129.022.435.051.306.028.634.036.328.009.704-.021.376-.03.599-.059.224-.028.558-.137.334-.11.537-.182t.447-.136q.244-.064.574-.227.331-.162.544-.292.213-.131.417-.256t.361-.224q.157-.099.183-.114.025-.015.575-.437.55-.423 1.097-.837l.869-.658q.321-.243.697-.591.376-.348.601-.626.224-.278.336-.447.111-.168.255-.441.145-.274.159-.308.013-.034.068-.155.056-.121.127-.267.072-.146.171-.417.099-.27.134-.392t.036-.139q.001-.017.112-.349.111-.331.197-.595.087-.263.125-.376.037-.113.089-.246t.173-.438q.12-.306.158-.375.038-.068.215-.324l.311-.447q.132-.192.201-.298.069-.105.518-.724.449-.618.677-.952.228-.335.461-.775t.46-.789q.228-.349.441-.604.213-.254.462-.55.249-.296.627-.958.377-.662.599-1.185.221-.522.329-.829.107-.308.206-.648.099-.34.193-.802.095-.463.148-.753.053-.29.065-.373.011-.083.037-.336.027-.252.048-.47.021-.218.049-.504.029-.287.044-.535.014-.248.015-.437.001-.19-.006-.76-.007-.57-.013-.983-.007-.413-.016-.859-.009-.446-.015-.796-.007-.349-.013-.73-.007-.381 0-.666.008-.285.004-.657-.003-.372.086-1.015.089-.642.234-1.157.144-.516.278-.868.134-.352.212-.508.078-.156.241-.504.164-.348.284-.643.119-.295.226-.505.107-.211.204-.388.096-.177.181-.316.085-.139.283-.487.198-.348.752-1.087t.849-1.095q.295-.356.593-.716t.518-.648q.219-.288.358-.487.139-.199.294-.42.156-.221.447-.608.292-.387.626-.866.333-.478.589-.87.255-.392.354-.547.099-.155.422-.697.322-.542.583-.919.26-.378.99-1.196t.898-1.028q.167-.209.261-.338.094-.129.209-.267.115-.137.214-.264.099-.126.287-.408.188-.282.393-.575.205-.293.296-.438.092-.145.143-.233.05-.088.15-.227.101-.139.238-.338.137-.2.281-.467.143-.267.162-.325l.08-.239q.06-.181.098-.358.037-.178.054-.618.016-.441-.067-1.222-.084-.782-.134-1.181-.051-.399-.066-.596-.015-.197-.074-.747-.06-.549-.113-.973-.053-.423-.168-.944-.114-.52-.232-.907-.118-.386-.255-.883-.136-.496-.232-1.01-.095-.515-.119-.69-.025-.175-.052-.268-.028-.093-.05-.163-.023-.07-.033-.09-.011-.021-.101-.368-.09-.347-.148-.549-.057-.203-.146-.402-.089-.198-.13-.316-.041-.117-.092-.243-.05-.126-.09-.204-.041-.078-.058-.099-.017-.021-.141-.287-.124-.266-.19-.46-.067-.193-.131-.35-.064-.156-.109-.25-.045-.093-.073-.176-.028-.084-.095-.232-.068-.148-.074-.156-.007-.008-.075-.167-.067-.159-.139-.31-.072-.151-.152-.231-.081-.08-.135-.117-.054-.038-.116-.066-.061-.029-.268-.094-.206-.066-.431-.124-.226-.057-.448-.098-.223-.042-.693-.087-.471-.044-1.199-.174-.728-.13-1.5-.374-.386-.126-.832-.272-.445-.145-.95-.317-.505-.171-.903-.292-.397-.121-.832-.217-.435-.096-1.236-.168-.801-.072-1.369-.146-.569-.074-.955-.158t-.721-.138q-.335-.055-.557-.08-.222-.025-.826-.056t-1.37-.123q-.766-.093-1.288-.168-.523-.074-.983-.107-.461-.033-1.094-.048-.632-.014-1.068.007-.435.021-.693.039-.258.017-.579.032-.32.015-.58.006-.26-.008-.834.011-.573.02-.872.037-.3.016-.569.063-.27.048-.804.188-.533.14-.888.323-.355.184-.586.35-.231.166-.458.364-.226.198-.521.486-.295.288-.571.604-.276.315-.631.755t-.614.775q-.26.335-.504.678-.245.342-.436.617-.192.275-.45.699-.258.424-.428.715-.169.29-.547.921t-.591.994q-.212.362-.457.852-.244.491-.358.76-.114.268-.255.596-.142.327-.347.798l-.376.864q-.171.393-.376.868-.205.474-.359.807-.153.332-.401 1.002-.248.67-.392 1.289-.144.618-.195.934-.05.316-.092.727-.042.41-.047.47-.004.06-.052.323-.047.263-.117.536-.069.273-.133.446t-.13.296q-.066.123-.17.274-.103.151-.519.608-.415.457-.617.668-.201.211-.286.307-.084.095-.128.127-.045.033-.137.113-.093.08-.338.354-.244.274-.48.515t-.406.418q-.17.177-.201.204-.031.026-.226.241t-.483.656q-.288.441-.464.737-.177.296-.21.341-.034.045-.228.403-.193.358-.307.566-.113.209-.221.377-.109.167-.279.472-.17.306-.306.55-.135.244-.473.654-.337.41-.5.591-.162.181-.291.266-.128.085-.377.289-.249.205-.404.281-.155.077-.407.145-.387.311-.773.619t-.772.613q-.386.304-.772.607-.385.303-.77.605-.386.302-.771.604-.385.301-.771.602-.385.302-.77.603l-.77.602Z"/>
    <path fill="none" stroke="#fff" stroke-width="4.683" d="M-318.029 412.893q.033.048-.329-.105t-.706-.228q-.343-.074-.614-.076-.271-.002-.695.078-.424.08-.626.165t-.352.077q-.151-.008-.326-.026-.176-.017-.233.008-.056.025-.278-.074-.004.006-.04.044"/>
    <path fill="#bdb994" stroke="#bdb994" stroke-width=".5" d="M-329.082 413.749q-.012-.003-.095-.005-.083-.003-.421.006-.337.008-.563.028-.227.02-.348.039-.122.019-.395.09-.272.07-.738.195-.466.125-.78.204-.315.079-.554.134-.239.055-.766.225-.527.171-1.124.324-.597.154-.925.229-.329.075-.537.136-.209.061-.604.155-.394.094-.769.196-.375.102-.625.197-.25.095-.622.229-.372.135-.503.187-.131.051-.281.117-.15.065-.164.068-.015.002-.182.078-.167.077-.267.137-.1.061-.146.098-.045.037-.139.126-.094.09-.14.133-.047.044-.078.093-.03.048-.085.224 0 .004.063.097t.576.349q.512.256 1.057.436.545.18.79.259.245.078.385.127.139.048.474.152l.693.213q.357.11.556.175.2.065.415.111.216.046.625.179.409.133.668.209.26.075.38.097.12.022.605.073.484.051 1.075.146t1.054.156q.463.062.726.072.263.01.657.034t.751.093q.357.069.612.114t.676.067q.421.021.69.044.268.023.579.072.31.049.789.072.478.023.861.041.382.019.623.025.241.007.421.001.181-.005.358-.009.177-.004.393-.01.216-.006.992-.002.776.005 1.196.008.42.004.727.018.307.013.522.008.216-.004.373-.016.158-.012.351-.034.194-.021.356-.039.161-.019.714-.076.552-.058.923-.101.371-.042.719-.075.349-.034.557-.059.207-.024.346-.045.139-.021.542-.053t.668-.068q.266-.036.396-.064.131-.027.491-.076.361-.048.623-.091t.445-.084q.182-.042.772-.173.591-.132.916-.205.326-.072.535-.119.21-.048.375-.091.166-.043.256-.072.09-.029.265-.08.175-.052.242-.068.067-.017.496-.15.428-.132.86-.308.433-.177.627-.27.194-.094.248-.121.055-.027.186-.111.132-.084.371-.241l.384-.255q.146-.096.23-.157.084-.06.381-.248t.542-.335q.245-.147.412-.252.167-.105.322-.207.155-.103.301-.222.147-.12.221-.188.074-.067.18-.174.105-.107.148-.168.042-.06.083-.13.04-.07.048-.113.008-.044-.022-.082-.03-.039-.1-.092-.071-.053-.151-.099-.081-.045-.383-.149-.303-.104-.553-.18-.25-.076-.838-.207-.589-.131-.845-.167-.255-.036-.58-.085-.325-.049-.798-.122-.474-.073-.901-.136-.427-.063-.806-.121-.379-.057-.745-.119-.365-.061-.716-.13t-.626-.132q-.274-.063-.582-.143-.308-.081-.662-.159-.354-.078-.646-.13-.293-.052-.644-.102-.351-.05-.73-.091-.378-.042-.785-.072-.408-.031-.726-.051-.318-.02-.66-.038t-.727-.012q-.385.005-.852.032-.467.026-.801.042-.334.016-.604.026-.27.011-.587.021-.317.01-.585.017-.268.006-.594.012-.327.005-.516.006-.188.001-.345-.002-.157-.004-.286.001-.13.005-.184.017-.054.012-.136-.012-.395.036-.789.068-.394.032-.788.061-.393.03-.787.061t-.789.066q-.394.039-.79.085-.395.046-.792.107t-.795.132q-.398.07-.797.148Z"/>
    <path fill="#d6d6c5" stroke="#d6d6c5" stroke-width=".5" d="M-340.653 417.546q-.024.07.005.6.029.529.078.98.048.451.082.799.034.347.07.736l.065.683q.028.295.059.598.031.303.101.601.069.298.13.486.06.188.13.434.069.246.168.61.098.365.176.694.077.329.162.772t.138.763q.052.321.096.539.044.219.156.592.113.373.203.647.09.275.187.675.097.401.186.748.088.346.205.849.116.503.211.903.094.4.142.583.048.183.056.242t.094.483q.085.424.211.995.127.57.194 1.028.067.458.096.779.03.321.042.83.013.508.024.834.01.327.06.711.051.383.093.635.043.251.117.61.073.36.131.669.028.154.089.494.06.339.151.863.091.523.166.975.076.452.137.831.061.38.102.684.041.304.075.647.034.342.065.683.031.34.081.976.051.636.076.938.024.301.041.654.017.354.024.511.007.157.016.277.009.121.012.358.003.237-.016.671-.019.434-.046.657-.028.223-.046.33-.018.107-.035.184-.017.077-.089.379-.072.303-.142.59-.069.288-.161.66-.091.373-.162.669-.07.296-.121.514-.05.218-.132.547-.082.328-.194.767-.111.439-.188.761-.076.322-.119.527-.043.205-.096.517-.053.312-.113.732-.06.419-.102.84-.042.421-.069.843-.026.422-.039.762-.013.339-.016.724-.004.385-.003.67.001.286.019.714t.049.802q.03.374.075.838.046.463.086.842.04.379.095.823.055.443.111.738.055.295.116.568.06.274.155.593.095.318.213.551.118.234.226.386.108.153.179.226.072.072.149.116.078.044.216.093.139.049.228.073.089.024.359.064t.597.048q.326.008.563-.012.236-.019.373-.032.138-.014.338-.053t.284-.059q.085-.019.307-.088.222-.069.512-.117.29-.049.722-.1.431-.051.761-.085.33-.034.672-.059.342-.025.649-.019.308.006.782.025.474.02.729.028t.471.037q.215.029.623.039.408.011.652-.002.244-.012.397-.028.153-.017.966-.135.814-.119 2.005-.191 1.192-.073 1.853-.106.662-.033.929-.055.268-.021.447-.038.179-.017.647-.043.468-.025.806-.001.337.025.858.172.521.146.961.251.441.106 1.034.158.594.052 1.051.058.458.006 1.194.006t1.177-.007q.442-.008 1.13-.028t1.008-.044q.321-.023.63-.114.31-.091.511-.181.202-.09.431-.283.229-.194.336-.317.107-.122.17-.203.062-.081.23-.313.167-.231.308-.468.14-.237.236-.417.096-.181.223-.539.128-.359.17-.558.043-.2.058-.292.015-.093.022-.227.007-.133.004-.273-.002-.139-.041-.444-.038-.306-.077-.503-.038-.196-.115-.462-.077-.266-.12-.402t-.06-.185q-.017-.05-.017-.057 0-.008-.124-.379-.123-.371-.225-.639-.102-.268-.154-.414-.052-.147-.065-.207-.014-.06-.068-.24-.054-.18-.148-.475-.094-.294-.137-.448-.043-.154-.111-.296-.068-.141-.136-.295-.067-.155-.099-.275-.032-.121-.103-.351-.072-.23-.107-.476-.036-.247-.039-.41-.004-.162.001-.34.005-.178.011-.252.006-.075.017-.202-.001-.053.182-.491.195-.26.262-.347.068-.088.123-.136l.108-.096q.054-.048.1-.102.046-.054.091-.103.045-.049.124-.148.079-.099.106-.14.028-.041.072-.087.043-.046.078-.095t.064-.1q.028-.05.055-.125t.037-.154q.01-.08.004-.284-.006-.204-.033-.325-.081-.152-.289-.475-.008-.033-.012-.087-.005-.055.003-.129.008-.075.024-.138.015-.063.043-.466.029-.403.021-.507-.009-.103-.021-.149-.013-.046-.024-.095-.012-.048-.055-.15-.044-.101-.132-.253-.088-.152-.085-.166.003-.015-.016-.046t-.027-.06q-.008-.029-.015-.085-.006-.057.006-.115.013-.057.121-.336t.163-.465q.055-.186.075-.323.02-.136.022-.222.001-.086 0-.1-.002-.014-.033-.143-.03-.13-.059-.295-.028-.165-.051-.239-.022-.074-.049-.15-.027-.076-.068-.247-.042-.172-.097-.589-.056-.416-.07-.648-.014-.231-.037-.583t-.029-.552q-.006-.2-.007-.351-.001-.15-.039-.582-.038-.431-.052-.835-.014-.403-.014-.744 0-.341.026-.686.025-.344.042-.535.016-.191.04-.417.023-.225.043-.366.02-.14.031-.224.011-.084.043-.368.033-.283.064-.446.032-.163.081-.42.05-.256.079-.576.029-.32.039-.525.01-.205.02-.331.01-.126.013-.342.003-.216-.007-.427t-.011-.351q-.001-.14-.006-.283-.005-.143-.005-.271 0-.127.024-.324.023-.197.059-.426.036-.23.097-.501.062-.272.092-.416.03-.144.093-.331.062-.188.094-.321.033-.134.062-.292.029-.159.059-.318.029-.159.036-.234.007-.075.022-.18.014-.104.029-.39.015-.287.015-.49.001-.204-.001-.29t-.005-.452q-.004-.366-.007-.584-.003-.218-.002-.349.001-.13.015-.422.007-.145.033-.4.025-.255.068-.619.043-.365.1-.727.056-.362.126-.722.071-.36.14-.676.07-.315.173-.721.104-.407.186-.688.081-.28.15-.667.068-.387.146-.779.078-.393.188-.75.11-.358.195-.737.085-.378.124-.616.038-.239.099-.435.06-.196.156-.456.097-.261.143-.387.046-.126.096-.331.05-.204.086-.411.036-.208.054-.313.019-.105.093-.367.075-.262.129-.461.054-.2.087-.326.033-.125.196-.479.163-.353.258-.576.095-.223.119-.361.024-.138.04-.249.017-.111.048-.248.031-.138.051-.236.02-.099.034-.216.014-.117.013-.419l-.035-.013-.046.007q-.008-.006-.4.344-.391.35-.717.654-.326.305-.703.58-.378.276-.86.601-.481.324-.892.528-.412.204-.759.317-.347.112-.849.26-.501.147-.921.266-.419.12-.776.222-.356.103-.536.161-.179.057-.351.117-.173.06-.394.121-.221.06-.428.094-.208.033-.439.074-.232.04-.557.103-.324.064-.614.124-.289.061-.671.14-.382.079-.583.117-.202.037-.452.103-.25.065-.511.126-.261.062-.651.125-.389.064-.641.101-.253.037-.386.06-.134.023-.186.028-.052.005-.253.027-.2.021-.476.051-.275.03-.478.043-.203.012-.574.022-.372.009-.56.008-.187-.001-.25 0-.062.001-.496-.014-.435-.015-.501-.011-.067.004-.154.015-.087.012-.165.026-.078.014-.135.022-.056.008-.167.042-.61-.087-1.198-.163-.589-.075-1.169-.127-.581-.053-1.168-.08-.586-.028-1.186-.034-.6-.007-1.206-.011-.607-.003-1.201-.034-.595-.03-1.179-.096-.584-.067-1.162-.172-.578-.105-1.16-.229-.583-.123-1.172-.262t-1.181-.296q-.591-.158-1.169-.376-.579-.218-1.15-.458-.571-.241-1.133-.492t-1.13-.457q-.567-.205-1.144-.338Z"/>
    <path fill="#d6d6c5" stroke="#d6d6c5" stroke-width=".5" d="m-336.771 467.29-.067.035q-.058.034-.146.105-.088.07-.133.108-.045.037-.073.057-.028.02-.206.205t-.242.29q-.064.106-.121.27-.057.165-.064.196-.006.031-.016.204t0 .276q.009.103.059.251.049.149.089.235.041.086.124.193.083.107.198.237.115.131.178.193.064.063.14.12.075.057.145.104.069.048.134.074.064.026.095.035.032.009.118.044.086.034.125.05.039.015.094.028.054.014.095.017.041.003.135.032.093.029.123.038.031.008.089.013.058.005.118.004.059-.001.213.004t.181.009q.027.005.051.012.024.006.076.007-.061.019-.083.019-.023 0-.088-.001-.066-.001-.201-.028t-.21-.039q-.075-.011-.179-.005-.103.006-.233.062-.13.057-.155.092-.025.034-.029.037-.003.002-.025.06-.021.058-.032.121-.01.063-.013.079-.002.016.002.099.005.083.039.201.035.118.063.181.028.062.03.069.001.006.055.092.053.085.087.124.034.04.066.067.032.027.075.066.043.039.048.046.006.007.04.023.035.016.096.053.062.037.067.042.005.006.059.034.054.029.132.074.079.046.088.049.009.003.089.04.08.036.162.078.081.042.138.065.057.023.114.045.057.021.124.06.067.039.317.191-.004.019-.039.028-.034.01-.056.008-.021-.002-.074-.003-.053-.002-.094 0-.042.001-.263.009-.221.009-.422.056-.2.046-.272.08-.071.034-.117.065-.047.031-.156.147-.023.034-.07.17-.046.136-.054.277-.007.142.024.285t.082.299q.052.157.079.21.027.054.115.169.089.115.123.156.033.042.123.147.09.105.134.146.044.041.062.052.017.01.128.097.111.087.2.156.089.068.205.156.115.087.141.103.025.016.091.048.066.031.114.059.049.027.092.055.043.027.12.071.078.043.128.064.049.021.09.04.041.019.091.048.05.029.132.071.081.043.15.065.068.022.117.031.05.01.119.029.069.018.138.047t.385.084q.316.054.516.076t.315.028q.114.006.203.011.088.005.173.016.085.011.194.019t.365.015q.257.007.53.017.273.011.413.013.14.003.243.014.102.011.253.016.151.005.38-.003.23-.008.488-.042.259-.034.487-.057.228-.023.38-.041.153-.018.347-.044.193-.026.496-.097.304-.071.643-.17.34-.1.796-.302.457-.202.89-.369.433-.166.827-.274.394-.108.713-.179.318-.071.456-.09.138-.02.246-.027.108-.007.417.027.31.034.593.095.283.06.467.122.183.061.375.167.192.106.428.269.236.162.509.303.272.141.859.292t1.045.279q.459.127.703.211.243.085.661.279.418.194.845.415.426.221.692.397.266.175.387.275.12.099.288.278.169.18.242.265.073.084.155.157.083.072.281.21.197.138.307.208.109.07.265.131.155.061.314.107.16.047.225.064.065.018.161.035.095.016.186.025.091.009.384.042.293.032.428.041.135.008.259-.009t.387-.142q.263-.125.394-.214.132-.089.189-.14.058-.051.122-.121.065-.071.154-.182.09-.11.151-.192.06-.082.104-.174.044-.091.085-.191.041-.1.076-.189.035-.089.093-.243.058-.154.112-.343.055-.189.102-.341.047-.151.085-.24.037-.089.125-.297.089-.208.149-.374.061-.166.168-.447.108-.281.195-.498.086-.216.232-.491.145-.274.233-.476.087-.201.241-.614.155-.413.231-.599.075-.185.138-.338.063-.152.198-.466.134-.314.199-.471.065-.157.102-.265l.068-.204q.033-.095.097-.282.065-.186.132-.397.066-.21.17-.687.104-.478.133-.656.028-.178.067-.601.039-.423.042-.716.003-.293-.008-.407-.01-.114-.016-.187-.005-.074-.019-.177-.014-.103-.043-.282-.03-.179-.058-.457-.028-.278-.061-.506-.033-.229-.041-.306-.008-.078-.033-.28-.024-.202-.085-.486-.06-.284-.095-.426-.035-.141-.07-.23-.034-.089-.053-.141l-.071-.202q-.053-.151-.107-.224-.475.058-.953.116-.477.058-.955.117l-.954.116q-.477.059-.952.116-.475.058-.948.116-.472.057-.942.113-.469.057-.936.113-.468.056-.933.112-.465.055-.928.111-.464.055-.926.11-.463.055-.924.11-.462.055-.923.109l-.923.11q-.461.055-.921.109-.461.055-.922.109l-.922.11q-.46.054-.921.109t-.921.109l-.922.11q-.46.054-.921.109t-.922.109l-.921.11q-.461.055-.922.111-.461.055-.922.111-.462.055-.923.112-.462.056-.924.114t-.925.117q-.463.058-.927.119-.464.06-.929.121-.465.062-.932.123-.466.062-.934.122t-.937.117Z"/>
    <path fill="#d6d6c5" stroke="#d6d6c5" stroke-width=".5" d="M-335.955 471.17q-.066.066-.126.171-.061.106-.11.238-.049.133-.076.316-.027.184.041.401.069.217.165.371.095.154.182.272.088.118.255.262.168.144.257.197.089.052.243.119.155.067.223.093.069.025.291.027.221.002.317-.014.095-.016.201-.061.106-.045.167-.084.06-.04.208-.157.147-.117.284-.29.136-.173.218-.306.082-.132.149-.243.066-.11.133-.232.067-.123.218-.396"/>
    <path fill="#8da1a8" stroke="#8da1a8" stroke-width=".5" d="M-281.477 413.943q-1.069.125-1.365.144-.296.019-.628.056-.331.038-.728.072-.398.035-.559.041-.162.006-.463.037-.301.031-.595.086-.294.055-.4.098-.107.042-.207.114-.1.072-.138.121l-.008.073q.004.042.017.212.014.171.198.426.184.256.645.628t.853.643q.393.272.561.38.169.109.634.319.465.209.868.352.403.143.713.246.31.103.428.135.119.031.717.165.597.134 1.008.24l.651.168q.239.061.695.128.456.067.834.134.378.066.693.116.316.05.603.069.286.019.612.051t.639.046q.313.014.723.02.409.006.769.003.36-.004.825-.022.465-.018.81-.034.345-.015.532-.022.187-.007.296-.012.109-.006.285-.018.176-.012.518-.027.343-.014.523-.015.18-.002.309.011.129.012.603.013.474.001.704-.012.229-.012.805-.041.576-.029 1.086-.083.511-.054.98-.078.469-.023.921-.047.452-.024.824-.064.372-.04.786-.063.415-.022.723-.016.308.006.996-.049.689-.054 1.07-.104.382-.051.782-.091t.737-.099q.337-.06.474-.091.138-.031.616-.141.478-.111.839-.194.362-.082.725-.162.364-.08.565-.142.201-.062.321-.108.121-.047.216-.089.095-.041.124-.052.028-.011.216-.091.187-.08.38-.164.194-.084.359-.141.166-.058.421-.146.256-.089.496-.183t.304-.115q.064-.021.32-.122.256-.101.498-.204.243-.103.561-.244.318-.141.559-.25.24-.109.48-.222t.377-.183q.137-.07.201-.108l.338-.204q.274-.167.326-.201.051-.033.196-.143.146-.109.291-.218.145-.108.163-.125.018-.017.192-.153.174-.135.295-.26.12-.125.18-.208.06-.084.089-.125.028-.041.092-.134.065-.093.134-.234.069-.141.109-.259.04-.117.053-.216.012-.099.014-.108.002-.008.005-.122.002-.114-.003-.151-.005-.036-.025-.09t-.073-.161q-.052-.107-.117-.181-.065-.073-.109-.114-.045-.041-.212-.129-.166-.087-.168-.087-.003 0-.154-.043-.152-.044-.399-.077-.247-.033-.383-.037-.135-.003-.332.012-.197.016-.315.031-.117.016-.211.034-.093.018-.187.041-.093.024-.383.091-.541.072-1.076.141-.535.068-1.056.127t-1.028.109q-.507.05-1.002.092-.495.042-.982.08-.488.037-.971.072-.484.035-.965.07-.482.035-.963.072-.481.036-.962.077t-.962.088q-.481.047-.963.102-.482.056-.964.119-.482.064-.964.131-.483.068-.965.132-.482.065-.964.117-.481.052-.962.09t-.96.048q-.479.011-.957.012-.479.002-.957 0-.478-.003-.956-.002-.479.001-.958.01-.479.008-.958.026-.48.017-.959.041-.48.024-.96.052-.481.029-.961.059-.48.031-.961.063l-.963.064q-.483.032-.968.063-.486.032-.978.062-.492.031-.998.059-.505.028-1.031.052-.525.024-1.069.045Z"/>
    <path fill="#b4c8c9" stroke="#b4c8c9" stroke-width=".5" d="m-286.337 415.854-.031.042q-.024.053-.028.068-.004.015.042.443t.191.888q.144.46.221.702.078.241.185.558.107.316.236.68.128.364.193.545.065.181.199.688.135.508.195.77.061.263.127.54l.158.653q.091.376.161.673.07.297.146.627.075.33.186.699.11.369.175.588.065.218.112.385.048.167.163.535.116.368.205.591.089.223.164.37.074.147.163.335.088.188.182.44.094.251.145.394.051.143.102.274.05.131.151.416.1.284.177.482.077.198.151.391t.102.294q.029.1.162.515.133.415.199.624.065.208.166.58.101.371.188.725.086.354.156.629t.225.795q.155.52.249.816.093.296.172.597.079.301.199.84.119.538.196.829.077.291.166.6.09.309.185.644.095.334.145.534.05.2.093.414.044.214.1.538.056.324.089.52.032.196.157.92.125.723.205 1.158.081.434.114.654.033.221.062.403.029.183.049.293l.077.451q.058.34.161.935.103.596.162.892.06.296.122.56.063.264.162.828.1.564.183.973.082.409.162.738.079.329.121.551.042.222.191 1.145.148.923.243 1.449.094.526.149.795.054.27.111.573.058.304.11.543.053.238.122.501t.109.396q.04.133.082.268t.099.278q.057.142.084.197.027.055.094.17.066.116.084.147.017.031.089.134.071.103.116.159.044.055.145.156.1.102.229.215.13.114.632.368.503.255 1.004.455t.793.32q.291.12 1.26.401.969.28 1.551.416.582.136 1.079.214.496.078.785.102.289.024.824.065.535.041 1.112.118.577.077 1.043.133.467.055.696.073.229.019.368.03.138.01.755.032.618.021 1.458.021.841.001 1.307.005.465.005.977.008.511.003 1.11-.115.6-.118.919-.196.32-.079.481-.119.16-.041.282-.073.122-.031.519-.202.398-.172.662-.31.263-.138.584-.291.321-.153.628-.365t.531-.408q.224-.196.343-.303.119-.106.192-.178.073-.072.164-.18.091-.109.13-.163.039-.055.159-.2.121-.145.28-.311.159-.166.33-.415.171-.25.248-.383.078-.133.13-.221.052-.088.111-.196.059-.109.188-.361t.362-.608q.234-.357.364-.532.13-.176.314-.414.185-.238.297-.394.112-.157.273-.365.162-.208.28-.362.118-.153.252-.375.134-.221.218-.367.083-.145.154-.284.07-.138.103-.216.034-.078.086-.229.051-.152.079-.23.028-.079.108-.474.079-.396.082-.477.003-.082-.002-.198t-.012-.254q-.007-.139-.022-.24-.015-.102-.029-.244-.014-.141-.022-.248-.008-.107-.014-.148-.006-.04-.01-.11-.004-.069-.002-.303.001-.234-.008-.423-.01-.188-.013-.396-.003-.207.008-.362l.018-.279q.008-.126.01-.237.002-.111.007-.47.005-.36.007-.537.003-.177.053-.559.05-.381.087-.574.037-.192.054-.285.017-.093.054-.342.036-.249.11-.663.074-.415.112-.66.038-.246.083-.452.045-.207.082-.516.037-.31.052-.489t.052-.396q.036-.217.06-.385.023-.169.027-.331l.007-.282q.004-.118.022-.344.018-.226.034-.45.017-.224.026-.392.01-.168.013-.264.003-.095.003-.142.001-.048.006-.174.006-.126.045-.549.039-.423.064-.555.025-.133.041-.343.016-.211.043-.393.026-.183.065-.45.038-.266.06-.411.023-.144.069-.411.046-.267.068-.403.022-.135.03-.263.008-.127.017-.423.008-.296.006-.456-.002-.161-.011-.29-.008-.129-.015-.206-.007-.078-.013-.158-.007-.08-.022-.243-.014-.163-.024-.463-.009-.299-.021-.63-.012-.33-.016-.494-.003-.164.005-.308.009-.144.013-.155.003-.012.03-.505.028-.493.041-.756.013-.263.016-.363.003-.099.003-.179 0-.08.003-.174.003-.095.01-.179.007-.085.016-.155.009-.069.027-.183.019-.115.05-.466.03-.351.043-.542.012-.19.012-.374t-.001-.455q0-.272.021-.536.02-.264.03-.492.009-.227-.011-.727-.021-.499-.041-.963-.02-.463-.021-.741-.001-.277 0-.586.001-.31.027-.564.026-.254.085-.516.06-.261.094-.494.034-.232.034-.49t.001-.56q.001-.302-.004-.479t-.026-.305q-.022-.129-.043-.294-.021-.164-.036-.294-.014-.13-.022-.229-.008-.1-.013-.174-.006-.074-.005-.102.002-.028-.019-.449-.022-.42-.024-.644-.003-.224.022-.42.025-.196.047-.322.021-.126.024-.203.003-.077.029-.265.027-.188.043-.294.016-.107.014-.184t-.009-.116q-.006-.039-.014-.089-.008-.051-.031-.108-.023-.058-.068-.111-.028.015-.116.079-.087.064-.312.305t-.395.422q-.169.18-.255.258-.086.078-.558.454-.472.375-.745.588-.272.213-.461.329-.19.115-.407.221-.218.105-.526.236-.308.132-.545.226-.238.094-.49.182t-.501.187q-.249.098-.379.152-.13.054-.2.077-.071.023-.403.144t-.6.23q-.268.109-.495.173-.228.063-.714.115-.487.052-.761.074-.273.022-.511.064t-.524.083q-.285.041-.498.075l-.369.061q-.157.027-.32.046-.162.02-.361.059-.199.04-.325.06-.126.019-.355.08-.23.061-.343.105-.114.043-.187.063-.073.021-.176.059-.102.039-.414.199-.428.017-.86.04-.432.022-.869.051-.436.028-.87.06-.435.032-.861.066-.427.033-.842.07-.414.036-.811.059-.396.023-.781.047-.385.023-.762.042-.377.018-.754.039-.377.02-.76.037-.383.018-.775.038-.392.021-.794.04-.401.018-.812.038-.411.02-.821.016-.411-.003-.825-.008t-.828-.019q-.413-.013-.825-.033-.411-.019-.818-.047t-.808-.06q-.402-.032-.801-.069-.398-.037-.789-.082-.391-.044-.782-.099-.391-.056-.784-.123-.392-.068-.785-.173-.394-.105-.791-.239-.398-.134-.798-.302-.401-.168-.798-.374-.397-.205-.791-.421t-.778-.428q-.384-.213-.762-.392-.377-.18-.745-.313-.367-.132-.729-.229Z"/>
    <path fill="#b4c8c9" stroke="#b4c8c9" stroke-width=".5" d="M-277.018 455.424q-.016.194-.014.213.002.019-.039.366-.042.346-.069.516-.027.17-.093.563-.066.394-.144.665-.077.272-.261.787-.183.516-.353.969-.17.453-.337.878-.168.424-.459 1.374-.29.949-.44 1.732-.149.783-.191 1.208-.042.425-.028.93.015.506.054.806.039.3.256 1.21.218.911.371 1.413.152.502.243.752.092.249.129.353.038.104.246.713.209.608.32.863.111.255.262.542.151.287.376.654.225.367.36.594.135.227.329.615.193.389.34.69.147.301.288.637t.21.501q.068.164.099.226.032.061.073.131.041.069.15.305.109.235.188.401.08.167.153.365.074.198.096.264l.077.23q.056.165.118.367.062.201.126.427.064.225.117.373.052.147.154.375.102.229.143.318.041.088.12.239.079.151.185.319.105.167.261.38.155.212.239.306.084.094.138.147.054.052.375.286.321.234.526.364.206.131.317.194.112.064.49.294.379.229.774.402.396.173.83.288.435.114.732.18.298.065.808.182.509.116 1.316.227.806.111 1.229.141.424.03.926.046t.907.016q.405-.001.818-.033.413-.033.766-.1.353-.067.909-.223.556-.157 1.365-.412.808-.256 1.417-.455.609-.2 1.101-.379.493-.179.755-.273.131-.047.38-.137.248-.089.614-.222.367-.133.644-.235.278-.102.467-.174t.479-.22q.29-.148.681-.372.391-.225.685-.405.295-.181.592-.386.298-.205.608-.468.31-.264.574-.619.263-.355.488-.736.224-.38.341-.616.116-.235.162-.344.047-.108.072-.179.026-.071.041-.13.016-.059.082-.26t.082-.261q.016-.06.031-.144.014-.084.039-.222.024-.139.04-.252.016-.114.05-.379.033-.265.055-.409.022-.143.044-.247.023-.103.035-.166.011-.064.029-.166.018-.103.04-.198.021-.096.034-.166.013-.069.022-.15.008-.081.026-.273.017-.191.02-.29.003-.098-.006-.153-.009-.055-.07-.331-.025-.059-.071-.146-.045-.086-.084-.145-.039-.06-.12-.199l-.118-.162q-.111-.138-.113-.142-.003-.004-.034-.073-.03-.068-.059-.269-.029-.2-.027-.34.003-.14.045-.401.043-.261.137-.593.03-.097.055-.206.024-.109.058-.252.034-.143.04-.154.006-.01.046-.167t.058-.252q.018-.094.03-.204.012-.109.009-.219-.029-.22-.022-.318.007-.098.029-.23.022-.132.041-.348.019-.216.042-.502.023-.285.033-.365.01-.079.011-.11.002-.031.017-.239.015-.209.029-.317.014-.108.015-.2.001-.093.006-.199.005-.105.003-.178t-.007-.112q-.004-.039-.039-.211-.026-.09-.032-.205-.006-.115-.007-.17-.001-.054.003-.123.004-.068.007-.085.002-.017.009-.416.008-.399.006-.934-.003-.536-.001-.616.001-.08.004-.168.003-.088-.062-.789-.041-.117-.063-.187-.023-.071-.037-.133-.014-.062-.024-.127-.009-.065-.015-.084-.007-.019-.023-.428-.016-.41-.001-.64.015-.231.028-.396.014-.165.032-.364.018-.198.022-.343.004-.146.001-.343-.003-.198-.013-.343-.01-.145-.031-.271-.021-.126-.037-.178-.016-.051-.034-.1-.018-.049-.037-.088-.019-.038-.044-.084-.025-.045-.054-.127-.029-.083-.035-.123-.006-.041-.011-.05-.004-.009 0-.083l.012-.177q.007-.103.01-.164.004-.061.042-.309.039-.248.066-.416.027-.168.037-.247.01-.079.019-.171.008-.092.006-.206-.018-.062-.045-.136-.028-.074-.041-.112-.013-.039-.052-.161-.039-.123-.042-.142-.004-.02-.053-.352-.048-.331-.08-.605-.033-.274-.059-.381-.027-.106-.026-.118.001-.011-.047-.334-.048-.324-.063-.429-.016-.106-.061-.359-.046-.253-.063-.374-.016-.122-.024-.301l.008-.142q-.43.07-.861.142-.43.072-.86.146-.43.073-.858.145-.427.072-.853.141-.425.07-.847.136t-.842.129q-.42.064-.837.124-.418.061-.834.119-.416.059-.831.116-.415.057-.829.113t-.828.111q-.413.056-.827.111-.413.056-.827.111l-.826.11-.827.11-.827.11-.826.11-.827.11-.827.11q-.413.056-.826.111l-.827.11-.826.11-.827.11-.827.11-.826.11-.827.11-.827.11-.826.11-.827.11-.826.11-.827.11-.827.11Z"/>
    <path fill="#b4c8c9" stroke="#b4c8c9" stroke-width=".5" d="m-276.68 473.606-.026.049q-.02.109-.278 1.257-.257 1.149-.427 1.892-.17.744-.282 1.204-.112.461-.233 1.018-.122.558-.18.87-.058.313-.088.495-.03.183-.095.525t-.337 1.395q-.272 1.054-.415 1.654-.143.6-.22 1.125-.078.525-.113.827-.035.303-.079.693-.044.391-.141 1.198-.096.808-.117 1.435-.021.627-.008 1.318.014.691.032 1.017.018.326.036.447.017.121.055.319t.167.701q.129.503.242.775.112.272.181.388.068.116.253.463.184.348.374.657.19.31.38.59.189.28.384.549.196.268.326.422.129.153.431.434.301.28.574.554.273.275.496.471.224.195.434.32.211.125.535.355.324.23.637.431.313.2.502.299.189.099.523.345.334.247.736.534.403.287.603.429.2.142.313.233.113.09.209.176.097.086.417.334.32.249.646.476.325.228.556.424.232.197.549.469.318.273.501.416.184.144.324.246.14.102.281.207.14.104.324.244.183.139.296.22.113.08.204.147.091.066.344.228.254.162.568.337.314.175.81.557.497.381.847.675.351.293.588.487.236.193.478.427.243.233.569.577.326.343.575.618.249.274.445.499.197.225.353.442.156.217.337.496.182.28.319.495.137.215.274.445t.263.41q.127.181.261.404.134.223.321.54l.339.578q.153.262.333.575.18.314.318.583.137.27.327.712.189.442.326.94.136.499.189.736.053.238.123.473.071.236.104.364.034.129.042.163.008.035.04.191.033.156.09.449.058.294.097.656.038.362.061.796.024.433.036.804.012.37.012.673.001.303.017.632.015.329.048.683.032.354.077.661.046.307.099.569.054.262.13.539.077.277.174.57.097.293.229.605.132.313.297.646.164.333.296.586.132.253.286.508.153.256.255.399.102.144.108.159.007.016.332.371.325.356.73.749.404.393.638.598.233.205.436.373.203.168.453.39.251.223.536.429.285.205.733.429t.631.31q.182.086.397.171.215.086.522.202.307.116.577.228.27.111.504.216.468.209.817.385.348.176.484.257.136.081.284.185.149.103.223.163.074.059.257.212.182.152.483.438.302.286.56.638.258.351.424.627.166.275.372.597.206.321.437.614t.416.495q.185.202.373.379t.44.397q.251.22.51.431.258.211.654.517.395.306.638.49.242.184.638.434.396.249.624.373.227.124.359.195.133.071.262.138.129.068.433.193.305.126.617.213.313.087.639.18l.62.177q.294.083.664.188l.652.185q.283.08.575.161.293.08.503.114.21.033.593.076.383.044.627.058.244.015.486.014.242-.001.707-.001.464 0 .917-.027.452-.028.786-.078.335-.05.668-.128t.679-.148q.346-.07.733-.206.388-.136.704-.263.315-.126.43-.169.114-.042.376-.181.263-.138.516-.292.253-.155.38-.228.127-.074.202-.121.075-.046.222-.126.147-.079.21-.107.063-.028.162-.082.099-.054.155-.086.056-.031.092-.043.037-.011.064-.016.027-.004.162-.051.135-.048.257-.097.122-.05.274-.083.152-.033.273-.05.121-.017.166-.019.045-.002.369-.013.325-.01.689-.025.364-.015.811.013.446.027.789.036.343.01.772-.001.428-.01.628-.025.2-.015.366-.054.165-.038.296-.096.131-.059.176-.083.046-.025.323-.173.278-.148.645-.414t.579-.45q.211-.183.417-.349.205-.166.409-.363.204-.197.362-.384.158-.186.24-.284.083-.098.393-.544.309-.446.474-.699.165-.253.281-.448.115-.195.16-.29.045-.096.222-.487.177-.39.281-.608.104-.218.169-.366.066-.148.191-.452.126-.305.196-.481.071-.176.088-.247.017-.071.075-.268.057-.197.105-.344.047-.147.157-.476.11-.33.18-.61.07-.28.184-.697.114-.418.18-.654.065-.236.115-.528.05-.292.155-.687.105-.396.185-.693.08-.298.125-.705t.095-.802q.05-.396.078-.937.029-.542.044-.826.016-.284-.005-.582-.022-.299-.035-.751-.013-.451-.024-.695-.011-.243-.025-.361-.014-.119-.023-.155-.008-.036-.09-.466-.082-.43-.147-.673-.065-.242-.225-.541-.16-.299-.287-.517-.127-.219-.22-.382t-.251-.359q-.158-.195-.305-.393-.147-.197-.259-.346-.111-.148-.26-.305-.149-.157-.298-.306-.15-.149-.261-.271-.11-.121-.191-.238-.081-.117-.147-.209-.066-.093-.11-.166-.044-.073-.301-.362t-.411-.456q-.155-.167-.223-.253l-.192-.242q-.124-.155-.175-.214-.05-.06-.172-.222-.121-.162-.143-.195-.022-.034-.123-.219-.101-.186-.173-.338-.072-.153-.114-.26-.043-.108-.071-.239-.029-.131-.055-.322t-.063-.344q-.037-.154-.062-.242t-.042-.192q-.016-.104-.018-.125-.002-.02-.035-.198-.032-.177-.071-.304-.039-.127-.103-.272l-.112-.258q-.048-.113-.059-.145-.011-.032-.086-.194t-.16-.297q-.085-.136-.198-.314-.114-.177-.135-.207-.021-.029-.052-.082-.03-.054-.558-.721-.529-.667-.625-.784-.097-.117-.176-.215-.08-.097-.376-.405-.296-.308-.584-.587-.288-.279-.466-.452-.177-.172-.483-.423-.307-.252-.71-.551-.402-.299-1.168-.944-.765-.646-1.151-.989-.386-.342-.697-.65-.311-.308-.872-.784-.562-.476-1.158-1.042-.596-.565-.926-.891-.331-.326-.675-.61-.345-.284-.678-.608-.332-.324-.5-.517-.168-.194-.382-.463-.214-.27-.484-.554-.269-.284-.551-.567-.281-.284-.628-.73t-.599-.748q-.252-.302-.415-.469-.164-.167-.276-.277-.112-.11-.322-.348-.211-.237-.399-.486-.187-.249-.4-.529-.212-.279-.448-.557-.236-.279-.524-.662-.287-.382-.548-.776-.261-.394-.445-.701-.185-.307-.291-.52-.106-.212-.291-.671-.184-.458-.359-.833-.176-.374-.309-.622-.134-.248-.279-.578-.145-.33-.357-.66-.213-.329-.369-.538-.156-.209-.378-.603-.222-.395-.377-.649-.155-.255-.201-.323-.046-.069-.206-.409-.16-.341-.235-.519-.075-.178-.233-.444-.159-.265-.3-.498-.142-.233-.239-.372-.098-.139-.257-.298-.158-.159-.233-.237-.076-.077-.161-.17-.086-.094-.27-.267-.184-.173-.301-.282-.117-.11-.256-.26-.139-.151-.251-.278-.112-.126-.186-.204-.074-.079-.16-.162-.086-.084-.107-.107-.021-.023-.148-.126l-.281-.23q-.153-.126-.248-.209-.094-.084-.158-.158-.065-.073-.191-.207-.127-.134-.205-.207-.079-.073-.172-.142-.093-.069-.235-.173-.142-.103-.304-.232t-.234-.17q-.073-.041-.274-.127-.2-.086-.273-.115-.073-.029-.143-.068-.07-.04-.164-.098t-.107-.07q-.013-.012-.213-.114-.201-.101-.327-.155-.127-.054-.283-.155-.156-.1-.2-.131-.044-.031-.208-.11-.164-.08-.245-.126-.082-.046-.102-.063-.021-.018-.131-.089-.111-.072-.155-.098-.044-.026-.22-.186-.176-.161-.343-.335-.167-.174-.263-.276-.096-.102-.152-.162-.056-.06-.109-.108-.052-.048-.067-.072-.014-.025-.77-.344-.001-.001-.069.024"/>
    <path fill="none" stroke="#381d1d" stroke-width=".5" d="M-340.848 417.195q.102.048.339.156.237.107.607.276.369.169.67.305.301.136.536.237.236.101.508.214.272.113.579.238.306.125.618.248.312.122.629.24.318.118.728.248.41.131.911.274.501.143.974.263.474.12.922.217.449.096.823.168.373.071.673.118.3.047.688.092.389.045.747.077.358.033.642.055.284.021.612.043.328.022.701.044.374.022.792.044.417.022.794.04.376.018.71.032.334.013.626.023t.667.018q.375.009.82.016.445.006.833.009.389.002.791.003.402.002.817.002.415.001.772-.003.357-.004.657-.013.299-.01.529-.02.23-.01.39-.022.161-.012.431-.035.269-.023.647-.058.379-.034.719-.067.34-.033.641-.065.302-.031.687-.088.386-.057.855-.14.47-.082.858-.158t.695-.144l.618-.139.626-.143q.314-.073.539-.128.226-.055.361-.093.136-.038.396-.124.26-.085.644-.218t.796-.293q.411-.161.85-.349.438-.189.744-.327.306-.139.565-.272.26-.133.41-.212.151-.078.302-.157.152-.08.362-.206t.529-.326q.32-.199.493-.307.173-.108.214-.132.041-.023.337-.226.296-.203.631-.44t.807-.576"/>
    <path fill="none" stroke="#381d1d" stroke-width=".971" d="m-302.637 415.416-.094.244q-.018.051-.061.161-.042.11-.108.276-.066.167-.128.323l-.118.302q-.057.146-.119.309-.063.163-.13.342-.068.179-.132.356-.064.176-.125.351t-.119.349q-.058.174-.114.347-.055.172-.108.344-.053.173-.104.344-.05.171-.098.342-.048.17-.093.34-.046.17-.088.332-.042.162-.08.317-.039.154-.074.3l-.068.286q-.032.138-.062.27l-.06.271q-.031.14-.052.241-.022.102-.044.212-.023.11-.044.212-.021.103-.04.198-.019.095-.04.204-.022.108-.046.229-.023.121-.043.221-.019.1-.042.218l-.052.267-.064.341q-.037.193-.07.372-.034.179-.064.344-.031.165-.065.349-.033.184-.07.387-.037.202-.067.368-.03.165-.064.359-.035.193-.06.337-.026.144-.043.245l-.037.207q-.019.106-.036.206-.018.1-.042.241-.025.141-.056.324-.032.183-.055.319-.024.136-.051.285l-.05.278-.045.252q-.023.122-.041.221-.018.1-.04.218-.021.117-.041.225-.02.109-.046.257-.027.149-.051.288l-.051.286q-.025.147-.052.301-.026.153-.054.314-.027.161-.056.33-.028.168-.058.343l-.056.34q-.028.163-.053.315l-.048.293-.047.285q-.023.144-.041.255-.017.111-.037.237-.02.126-.039.25t-.037.246q-.018.123-.035.235-.018.113-.033.215-.016.103-.033.216-.018.113-.037.236-.019.123-.038.253-.018.13-.035.267-.018.136-.033.259-.015.122-.028.231l-.027.227-.029.245q-.014.127-.028.252-.014.124-.027.245-.013.122-.025.241-.012.118-.024.234-.011.116-.022.229l-.02.224q-.01.11-.019.218-.009.107-.017.212-.008.105-.016.217-.007.112-.015.232-.007.119-.013.246-.007.126-.013.26-.006.134-.011.262-.006.128-.011.249-.005.121-.01.236-.005.114-.009.222-.005.109-.009.222-.005.112-.009.23-.005.118-.01.241-.005.122-.01.25l-.01.25q-.006.122-.011.24-.005.118-.01.231-.005.112-.011.22-.005.108-.01.222-.006.114-.012.234-.006.12-.013.246-.007.126-.015.258t-.015.267l-.016.27q-.008.136-.015.274-.008.138-.017.278-.008.14-.015.256-.007.116-.016.254-.009.137-.019.277-.01.139-.022.295-.011.157-.021.283-.011.126-.022.268-.012.142-.031.317-.02.175-.048.398-.029.222-.057.411-.027.189-.056.364-.029.176-.075.428t-.119.639"/>
    <path fill="none" stroke="#381d1d" stroke-width=".5" d="M-307.684 448.484q-.142.071-.273.129-.131.059-.255.107-.124.047-.228.086-.104.039-.191.07-.088.031-.187.059-.1.027-.246.065-.147.039-.289.076l-.295.077q-.153.04-.269.064-.115.025-.243.047l-.24.043q-.111.019-.254.045-.142.025-.349.06-.207.036-.359.057-.152.021-.278.037-.126.015-.276.031-.149.017-.278.032l-.287.036q-.16.02-.412.027-.253.007-.471.012l-.486.009q-.268.004-.492.009l-.495.009q-.27.005-.543.003-.273-.001-.437-.009-.164-.007-.303-.02-.139-.013-.297-.02-.158-.006-.382-.011-.224-.005-.378-.011-.153-.006-.273-.012-.121-.007-.259-.016-.139-.008-.3-.02-.16-.012-.344-.028-.183-.015-.338-.027-.154-.013-.343-.028-.188-.015-.415-.042-.226-.027-.489-.051-.263-.025-.432-.039-.169-.015-.294-.025l-.263-.023q-.138-.011-.261-.021-.122-.01-.284-.024-.161-.013-.395-.033-.233-.019-.34-.027-.107-.008-.183-.019t-.179-.022q-.104-.011-.261-.027-.157-.016-.29-.028-.134-.012-.301-.025-.166-.013-.402-.026-.235-.014-.473-.033-.237-.02-.477-.044l-.46-.048q-.219-.022-.368-.038-.148-.015-.33-.028-.182-.012-.315-.02t-.278-.016q-.144-.009-.274-.016-.129-.007-.301-.017-.171-.009-.37-.019-.198-.011-.339-.018-.142-.008-.292-.015-.15-.008-.309-.016t-.327-.017"/>
    <path fill="none" stroke="#381d1d" stroke-width=".5" d="m-307.629 447.552.364.27q.239.391.229.641-.011.249-.066.378-.056.129-.121.24-.066.111-.161.246-.095.136-.205.259-.111.123-.234.233-.124.111-.267.223-.142.112-.304.225-.162.114-.289.191-.127.078-.257.141-.129.064-.332.147-.203.083-.428.164-.224.082-.408.145-.183.062-.401.133-.217.07-.472.148-.254.078-.548.163-.294.085-.566.158-.272.074-.521.137-.248.063-.47.117-.222.053-.514.12-.293.066-.587.126-.294.059-.581.108t-.697.113q-.41.065-.746.123-.336.057-.671.11-.334.052-.627.103t-.665.119q-.372.069-.857.164-.486.096-.963.19-.477.095-.854.165t-.823.143q-.445.073-.979.14-.534.068-1.253.163l-4.598.154"/>
    <path fill="none" stroke="#381d1d" stroke-width=".5" d="M-307.557 449.71q-.021.051-.004.201.017.15.068.305.052.156.087.239.035.083.056.131.021.049.033.082t.045.136q.033.103.05.256.016.153 0 .292-.017.138-.032.214-.015.076-.06.187t-.111.215q-.065.105-.154.197-.089.093-.237.182-.147.09-.394.211-.246.122-.469.218-.223.096-.513.198-.291.103-.643.2-.352.098-.525.148-.174.05-.459.123-.284.073-.574.137-.29.063-.502.114-.212.051-.522.127-.311.077-.708.161-.396.084-.774.165-.377.081-1.122.235"/>
    <path fill="none" stroke="#381d1d" stroke-width=".5" d="M-307.743 452.376q.256.129.465.291.209.161.313.355.104.195.109.335.006.139-.013.222-.018.083-.088.228-.069.145-.231.354-.162.208-.279.335-.117.127-.168.173-.05.046-.138.112-.088.067-.23.17-.142.102-.267.188-.125.087-.233.157-.108.07-.236.145-.128.076-.277.158-.148.082-.301.163-.153.08-.311.16t-.289.146q-.13.066-.234.117-.104.052-.241.114-.138.061-.309.132-.171.072-.321.128-.149.056-.342.117-.192.06-.437.125-.246.064-.561.134-.316.07-.62.121-.304.05-.599.084-.296.034-.602.063-.307.028-.624.053-.318.026-.629.041-.31.016-.539.021-.228.005-.393.008-.166.003-.344.006-.178.003-.37.005-.191.003-.396.005-.204.002-.38.004-.176.001-.397.002-.221.001-.492-.002-.271-.002-.563-.01l-.541-.015q-.248-.007-.471-.017-.222-.01-.432-.021-.21-.011-.387-.021l-.391-.02q-.214-.011-.465-.023l-.539-.028q-.288-.014-.524-.026-.236-.011-.511-.025-.276-.014-.513-.025-.237-.012-.513-.034-.275-.021-.434-.03-.159-.01-.359-.022-.201-.012-.375-.022-.173-.01-.388-.023-.214-.013-.408-.025l-.454-.028q-.261-.016-.527-.033-.266-.018-.511-.039t-.468-.047q-.224-.026-.466-.052l-.428-.046q-.186-.019-.397-.041-.211-.022-.41-.045-.199-.023-.386-.046-.187-.024-.362-.048t-.339-.049l-.149-.01"/>
    <path fill="none" stroke="#381d1d" stroke-width="1.004" d="M-308.634 455.748q.014.291.044.495.03.204.089.466.058.262.105.459.047.196.101.38l.1.349q.047.164.105.369.059.206.126.428.067.221.144.458.077.237.143.436.066.199.147.44.082.24.154.453.073.214.127.373.054.16.115.337.06.177.12.361.061.185.121.376.061.192.111.357.051.164.113.371.061.207.122.45.061.242.098.411.038.169.073.345.035.176.058.297.024.122.042.222.018.101.037.25t.033.275q.015.126.032.279.016.154.03.294.014.141.025.268.01.127.019.268.009.14.016.293.007.153.01.272.003.12.003.249-.001.129-.007.308l-.013.329q-.007.151-.016.331-.009.181-.019.343-.01.162-.028.377-.018.215-.051.455-.032.24-.062.426-.03.187-.068.399-.039.212-.068.358-.029.146-.058.266-.029.119-.083.306-.053.187-.139.455-.086.268-.16.482-.075.215-.168.454-.092.24-.175.421-.083.181-.157.348-.073.166-.141.317-.068.151-.126.275-.058.124-.128.272-.071.149-.132.273-.06.125-.136.276-.075.152-.155.309-.079.157-.174.338-.094.181-.173.328-.078.148-.139.261-.061.113-.143.27-.082.156-.187.359l-.19.367q-.085.164-.148.286-.062.123-.15.304-.087.182-.161.335-.074.153-.163.34-.09.187-.18.375-.09.189-.18.379-.09.191-.178.382-.089.192-.176.385t-.177.396q-.089.203-.18.416-.091.213-.183.436-.091.222-.182.454"/>
    <path fill="none" stroke="#381d1d" stroke-width="1.41" d="M-308.861 476.456q.069 1.288.158 1.92.088.632.179 1.109.09.477.214.998.123.521.24.969.117.448.283 1.021.166.573.291.968.126.396.214.677.089.282.181.582.093.3.171.549.078.25.172.549.093.299.199.729.105.43.198.843.093.412.126.587t.062.427q.028.251.061.639t.047.754q.013.366.003.882-.01.516-.064.993-.054.476-.108.753-.054.276-.127.551-.074.275-.185.641t-.21.654q-.099.288-.228.603t-.318.678q-.189.362-.426.788-.237.427-.445.748-.209.32-.541.796-.332.476-.623.856-.291.381-.548.687-.257.306-.493.594-.237.287-.483.583-.247.297-.636.743l-.786.899q-.397.453-.752.886t-.607.745q-.253.313-.396.491-.144.178-.356.462l-.307.408q-.094.124-.345.476-.25.352-.416.611-.166.258-.206.325-.041.066-.299.488-.258.421-.499.864-.241.442-.482.908t-.396.782q-.156.317-.277.614-.121.297-.332.828-.211.53-.311.802-.101.272-.212.638-.112.366-.274.943-.163.577-.259 1.028-.096.45-.159.777-.064.328-.102.598-.039.27-.066.511-.027.241-.068.822-.042.582-.053 1.057-.01.476-.002.825t.009.485q0 .135-.002.366-.002.23-.006.601t-.014.715q-.01.345-.033.824-.023.48-.062.905-.039.425-.147 1.019-.108.595-.209.99-.101.396-.216.753-.115.358-.193.575-.077.218-.276.683-.2.465-.322.694-.122.229-.195.356-.073.127-.223.374-.149.247-.328.523-.179.275-.224.337-.045.061-.276.372-.231.311-.317.429-.086.117-.172.221-.086.103-.3.346-.213.243-.354.398-.141.155-.443.486-.303.332-.433.471-.131.139-.294.32-.163.181-.297.316-.133.135-.292.317-.158.182-.418.456M-325.529 533.465q-.013.051-.042.234-.029.184-.078.501-.049.316-.103.584-.054.268-.11.487-.056.219-.105.385-.05.166-.111.335-.06.169-.127.339-.066.169-.206.452-.14.284-.291.537-.151.254-.361.572-.21.318-.36.521-.149.203-.27.354-.121.151-.262.318-.141.167-.309.343-.168.175-.362.36-.195.186-.349.324-.153.139-.267.232-.113.092-.279.218-.165.125-.383.283-.217.158-.416.294-.198.137-.465.308-.268.172-.534.313-.265.141-.454.234-.189.092-.389.183-.201.091-.374.167-.173.076-.392.167-.219.092-.482.175-.262.082-.632.179-.369.097-.66.166-.292.069-.535.105-.244.036-.494.055-.249.018-.626.037-.376.018-.673.01-.296-.008-.616-.025t-.386-.023q-.067-.007-.224-.038-.158-.03-.328-.063-.169-.032-.403-.077-.235-.044-.381-.073-.145-.03-.231-.052-.086-.022-.249-.07-.162-.048-.388-.105-.226-.057-.4-.098-.174-.041-.423-.119-.249-.078-.435-.126-.186-.047-.542-.125l-.593-.13q-.237-.053-.446-.087-.208-.035-.308-.044-.1-.009-.189-.013-.09-.004-.373-.017-.284-.014-.702-.033-.418-.02-.8-.01-.383.01-.727.029-.344.02-.757.061-.414.042-.798.098-.384.055-.553.081-.169.026-.583.079l-.52.068q-.107.015-.257.031-.149.015-.377.037l-.361.035-.193.019q-.059.007-.229.015-.17.009-.502.015-.331.006-.471.008-.141.003-.347-.009-.206-.011-.524-.036-.319-.025-.534-.049-.216-.024-.385-.059-.169-.036-.557-.129-.388-.092-.573-.153l-.352-.114q-.168-.054-.216-.073-.049-.019-.233-.101t-.325-.147q-.141-.066-.229-.106-.088-.04-.343-.194-.254-.153-.34-.204-.085-.05-.217-.132-.132-.081-.46-.319-.329-.238-.895-.663"/>
    <path fill="none" stroke="#381d1d" stroke-width="1.2" d="M-358.237 540.047q-.006-.007-.085-.092-.079-.085-.157-.168l-.18-.194q-.102-.11-.2-.213-.097-.104-.235-.249-.137-.146-.3-.314-.163-.168-.283-.294-.121-.126-.198-.21-.078-.084-.179-.199-.101-.114-.225-.259-.124-.145-.235-.28-.111-.136-.209-.262-.098-.127-.205-.268-.106-.142-.221-.298-.115-.157-.215-.298-.1-.141-.186-.266-.086-.125-.172-.258-.087-.133-.174-.273t-.173-.28l-.17-.282q-.085-.141-.192-.341-.107-.2-.237-.458-.129-.258-.226-.456t-.161-.332q-.065-.134-.129-.269-.065-.135-.122-.258-.058-.123-.135-.29-.077-.167-.153-.342-.076-.175-.17-.4-.094-.224-.205-.499-.111-.274-.19-.471-.079-.196-.126-.315-.047-.118-.096-.25-.049-.133-.1-.279-.051-.146-.112-.326-.062-.179-.134-.392-.072-.212-.137-.413-.065-.201-.124-.39-.059-.19-.111-.368-.052-.178-.098-.345-.045-.167-.085-.322-.04-.155-.074-.297-.035-.142-.07-.302-.035-.159-.071-.336-.036-.176-.067-.34-.031-.163-.057-.313-.025-.151-.043-.262-.018-.112-.032-.222-.014-.11-.031-.294-.016-.183-.029-.343-.014-.159-.028-.356-.015-.197-.025-.393-.01-.197-.015-.393-.005-.196-.005-.391-.001-.196.004-.391t.011-.368q.006-.173.014-.325.008-.152.017-.282.01-.129.02-.237.011-.108.031-.257.021-.15.052-.34.03-.191.071-.423.041-.232.093-.505.051-.274.107-.54.057-.267.118-.526.061-.26.128-.512.066-.252.137-.497.071-.245.13-.444.059-.198.106-.351.047-.153.087-.274.04-.121.073-.211.034-.091.09-.23.056-.14.104-.257l.106-.258q.059-.141.116-.274.057-.134.141-.322.083-.188.19-.408.107-.22.213-.425.105-.205.209-.395.104-.191.187-.341.084-.15.147-.26.064-.11.156-.262.092-.152.211-.347.118-.194.212-.354.095-.159.203-.346.108-.187.159-.28.052-.093.123-.216.071-.123.179-.308.108-.184.233-.389.125-.204.274-.426.148-.223.315-.444.167-.22.31-.383t.26-.276q.117-.113.26-.229.143-.116.325-.23.181-.115.403-.227"/>
    <path fill="none" stroke="#381d1d" stroke-width="1.012" d="M-341.137 417.198q.038.164.093.388t.127.51q.071.286.151.622.079.336.14.601.06.266.127.572.066.306.125.588.059.281.137.664.078.383.159.79.082.408.144.724.063.316.109.541.046.225.1.486.054.261.115.558.061.298.11.546.05.248.107.547.057.299.144.778.088.479.178.948t.159.811q.068.343.101.525t.108.633q.075.452.124.742.05.291.092.533.041.243.091.534.051.292.086.506.036.215.057.353.02.138.058.384.039.245.094.599t.113.725q.059.371.12.76.062.388.106.666l.082.527q.039.25.091.573.051.323.11.69.058.367.141.887.083.519.148.935.065.415.113.726.047.312.083.543.035.232.071.46.036.228.066.41.031.182.095.608.064.425.114.725.05.301.097.601t.108.7q.061.4.107.729.047.328.095.712.048.384.085.685.036.3.085.819.048.518.079.93.031.411.056.773l.003.156M-335.919 448.041q-.038.378-.082.699-.044.321-.079.556-.036.236-.063.416-.027.18-.058.383-.031.202-.062.398-.032.195-.079.478-.048.282-.115.634-.067.352-.123.621-.057.27-.104.46-.048.19-.105.414-.056.224-.102.4l-.097.379-.099.387q-.047.184-.109.431-.063.248-.127.502-.064.255-.119.48-.055.226-.1.423-.046.197-.088.402-.041.204-.08.417-.038.212-.072.407-.035.194-.066.372-.031.177-.063.41-.033.232-.068.52-.035.288-.059.535-.024.248-.038.455-.013.207-.02.4-.008.193-.009.372-.001.179.002.389.003.21.01.451.008.242.024.487.015.246.039.496.024.249.05.458.026.209.066.46.04.252.077.424.037.173.081.361.043.188.108.449.065.26.101.393.035.134.037.14.002.005.037.121.035.116.106.342.071.225.159.469.088.244.166.441.079.196.146.36.067.163.149.359.082.196.18.424.097.228.209.488"/>
    <path fill="none" stroke="#381d1d" stroke-width=".524" d="M-337.078 468.36q.038-.018.084-.023.045-.005.132-.016.087-.01.192-.024.104-.013.207-.017.103-.004.209-.012.107-.009.295-.023t.503-.014q.314 0 .58.007.267.007.483.009.217.002.387.003.169.001.292-.001.123-.003.308-.008.184-.006.337-.009.154-.003.338-.006.184-.003.36-.005.175-.003.427-.007.251-.004.554-.014.303-.009.542-.017.239-.008.414-.016.174-.007.323-.012.148-.006.27-.01.121-.004.333-.008.212-.003.514-.007.301-.004.592-.009.292-.004.574-.01.282-.005.501-.01.219-.004.375-.008.157-.003.343.001.186.004.333.008.146.004.315.01t.336.014q.167.007.414.02.248.013.57.036.323.023.59.046.268.023.482.046.213.023.432.056.22.033.445.076t.473.094q.248.052.518.112.271.061.543.127t.545.138q.273.072.489.134.215.062.373.114.159.052.361.128.202.075.448.174.246.099.484.197t.468.195q.23.098.446.192.215.094.365.162.151.068.338.159.187.091.393.194.206.103.365.183t.339.172q.181.091.384.194.202.103.426.218"/>
    <path fill="none" stroke="#381d1d" stroke-width=".524" d="M-337.041 467.262q-.299.205-.531.542-.232.336-.257.568-.024.232.02.48.044.249.113.438.069.19.171.4.103.211.249.387.147.175.27.278.123.103.292.204.17.1.321.171.151.07.34.139.188.068.358.107.169.039.381.072.212.033.482.067.271.035.596.073.324.039.612.069.288.03.542.051.255.021.48.032.225.011.421.012.196 0 .387-.001.19-.001.375-.003.184-.003.363-.007t.353-.01q.174-.006.326-.011.152-.005.346-.012.195-.006.368-.01.173-.005.329-.008.155-.002.293-.003.137-.001.316.001.179.001.4.004l.446.006.461.008q.233.004.482.013.248.008.513.021.264.013.512.033.249.021.432.037.182.017.382.038.199.02.395.041.196.022.388.045t.38.048q.189.024.374.05.184.026.346.05.162.024.37.056.208.033.395.069.186.036.345.068.159.032.257.053.099.021.257.067t.345.104q.188.058.336.105.148.047.319.101.171.055.365.117.194.063.411.133.217.071.421.139.205.068.397.133.192.065.372.128t.347.123q.168.06.323.118.155.057.369.14.214.083.45.183.235.099.44.188.205.088.378.164.174.077.316.141.143.065.31.144.168.079.389.189t.385.196q.164.085.294.154.13.07.281.151.15.082.321.175.171.094.362.2M-336.449 470.88l-.038.155q-.007.031-.018.172t0 .391q.011.251.092.532.081.282.221.59.243.228.475.388.233.161.454.257.221.097.395.157.174.061.301.09.127.029.297.06.171.031.384.063t.457.049q.244.017.433.025.189.009.403.014.215.005.417.008.202.002.393.001.19 0 .369-.004.179-.003.348-.008.168-.006.325-.011.157-.005.375-.011.218-.006.463-.011.246-.005.525-.007t.592 0q.312.002.553.004.241.002.411.004.17.003.374.009.205.005.444.014.24.009.475.023.235.015.41.028.175.012.368.028.193.015.371.03.178.016.421.039.243.024.505.056t.531.07q.27.038.477.071.207.033.385.069.178.036.395.085.217.05.474.113t.554.14q.296.077.569.154.273.078.523.156.25.079.476.158.227.079.43.159.203.08.382.152.178.072.332.137.154.065.283.122.129.057.285.132.157.075.378.193.222.119.457.257.234.137.428.262.195.124.33.214.136.09.278.187.141.098.268.186.126.087.293.205.167.118.329.239.162.12.359.265.197.146.429.316.232.171.415.304.183.132.383.275.2.143.703.54"/>
    <path fill="none" stroke="#381d1d" stroke-width=".524" d="M-336.118 472.883q-.11.246-.167.444-.058.198-.074.346-.017.148-.016.269.001.12.024.258.022.139.069.231.046.093.139.214.092.121.157.188.066.067.149.13.084.062.209.141.125.08.232.136.106.057.205.096.099.039.191.072.092.033.21.074.117.041.222.073.104.032.239.067.135.034.289.06.154.025.341.046.186.021.379.039t.392.032q.199.015.385.03t.359.03q.173.015.369.028.196.012.414.023.219.01.431.02.213.009.42.016.207.007.397.016.19.009.363.02.174.01.353.026.18.015.316.028.136.013.288.028.153.016.307.031.153.016.309.031.155.016.312.032.156.016.314.032t.312.032q.153.016.302.033t.293.035q.144.017.284.035.14.018.267.036.128.018.302.043.174.026.336.051.162.025.332.053.169.028.323.053l.361.061q.206.036.419.075t.444.085q.23.045.417.084.186.039.339.075.153.036.333.082.181.046.338.088.157.042.268.073.112.03.231.063.118.034.23.065l.269.077q.157.046.338.1.181.055.335.103.153.049.279.092.125.043.289.107.164.065.315.13.152.064.262.113.111.048.231.102.12.054.25.114.129.059.269.124l.269.126q.13.062.251.12.122.059.234.114.112.055.267.133.155.078.325.169.17.091.321.179.152.088.264.156.112.068.236.146.124.077.229.145.104.068.232.154.127.087.28.198.153.111.297.22t.25.191q.106.081.221.171l.242.188q.125.099.261.206"/>
    <path fill="none" stroke="#381d1d" stroke-width=".982" d="M-335.902 475.326q-.046.072-.124.188-.079.117-.161.237-.083.121-.144.206-.06.086-.126.176-.066.091-.124.172l-.136.187-.193.266q-.117.16-.197.269l-.142.194q-.063.085-.135.184-.073.098-.149.199-.076.102-.156.207-.081.104-.16.206t-.156.201q-.078.1-.155.196-.076.097-.152.192-.076.094-.15.186-.074.093-.184.228t-.252.307q-.142.172-.283.345-.141.174-.281.349-.14.176-.276.353-.137.177-.238.311-.102.133-.214.282-.112.15-.209.279-.096.13-.219.295-.123.166-.226.307-.104.142-.204.286-.1.144-.197.29t-.172.257q-.074.112-.127.189-.052.077-.128.188-.075.111-.174.255-.099.145-.184.28-.085.135-.145.234-.06.099-.123.207-.064.108-.122.207-.058.099-.137.235-.078.136-.161.282-.084.146-.162.29-.079.145-.19.359-.112.215-.192.382t-.153.317q-.072.15-.127.271-.054.12-.114.262-.061.142-.104.25-.043.108-.069.182-.027.075-.065.185-.038.111-.087.257-.05.147-.093.276l-.096.295q-.054.167-.104.342-.049.175-.082.294-.032.118-.064.238l-.057.221q-.026.101-.057.224-.03.122-.07.288-.04.166-.079.336-.039.169-.077.342-.038.172-.072.331-.034.16-.079.379-.045.22-.091.459-.046.24-.079.414-.032.174-.061.337-.028.163-.041.224-.012.061-.033.166-.022.105-.055.274-.034.17-.069.35-.036.181-.062.32-.027.138-.057.295-.029.157-.058.305-.028.148-.055.288-.027.14-.053.272-.026.131-.064.316-.038.184-.086.395-.048.211-.094.386-.045.176-.115.4-.069.224-.141.426-.072.203-.129.347-.057.145-.123.299-.067.154-.145.316-.078.162-.167.332"/>
    <path fill="none" stroke="#381d1d" stroke-width="1.2" d="M-345.561 493.288q-.125.263-.191.384t-.151.275q-.085.155-.213.379-.129.224-.293.491-.165.266-.309.495-.145.229-.246.386t-.206.318q-.106.162-.215.328-.11.167-.224.338-.114.17-.216.323-.103.153-.193.289-.091.137-.171.257-.08.12-.184.278-.104.158-.206.311-.102.154-.168.253-.066.098-.156.23-.089.132-.174.255l-.16.236q-.076.112-.171.253-.095.141-.21.311-.114.17-.247.369-.133.198-.251.373t-.221.326q-.103.151-.193.278-.089.127-.164.23-.076.104-.164.223-.088.12-.189.255t-.215.286q-.114.151-.241.318-.126.167-.267.343-.14.176-.295.362-.154.186-.322.381t-.35.4q-.182.204-.332.37-.149.167-.266.295-.116.128-.213.231-.096.102-.211.219-.115.116-.178.172-.063.057-.147.131-.084.074-.209.185l-.234.206-.202.178q-.093.082-.208.176-.115.094-.253.199-.137.105-.278.207-.14.101-.284.199-.143.098-.302.206-.158.107-.332.224-.174.118-.329.22-.155.102-.292.188l-.264.169-.309.199q-.18.117-.432.267-.251.149-.312.187-.061.037-.191.122-.13.085-.245.157-.115.071-.257.157-.143.086-.27.162-.127.076-.293.175-.166.099-.303.185-.137.087-.381.228"/>
    <path fill="none" stroke="#381d1d" stroke-width=".5" d="M-286.711 414.676q.344.332.617.597.273.266.474.464.201.199.504.418.302.219.549.385.248.166.539.35.291.185.537.334.247.148.553.32.307.172.559.271.252.1.45.172.198.073.342.119.145.047.42.121.275.075.513.137.239.063.533.139.294.076.569.139.276.064.533.115.258.051.497.089.24.039.461.066.222.026.493.051.271.025.591.048.32.023.69.045.37.022.789.042.419.02.765.034.345.015.617.024.273.009.471.013.199.004.387.002.188-.003.453-.008.265-.006.544-.014t.554-.014q.274-.005.544-.009.27-.004.62-.006.349-.001.671-.001.322 0 .556-.001.235-.002.489-.006t.527-.01q.274-.006.567-.014.293-.008.551-.016.259-.008.593-.02.334-.013.639-.03l.696-.041.866-.051q.476-.029.898-.065.422-.037.79-.082.367-.045.679-.085.311-.04.566-.077.255-.036.493-.069.237-.034.457-.065.22-.031.538-.086.317-.055.732-.134.414-.078.765-.147.35-.069.636-.127.286-.059.577-.122.292-.064.59-.132.299-.068.544-.128.246-.06.536-.136.289-.077.612-.156.322-.08.578-.15.257-.07.555-.158.299-.087.528-.158.229-.07.468-.149.24-.08.484-.153t.647-.226q.403-.152.637-.257.233-.106.584-.266.35-.16.684-.36.333-.201.567-.365.234-.164.429-.322.195-.159.31-.275.116-.117.192-.208.076-.091.354-.476.278-.385.33-.485.052-.101.161-.398.109-.298.15-.43.041-.133.16-.572"/>
    <path fill="none" stroke="#381d1d" stroke-width="1.009" d="M-286.729 414.691q.007.031.051.176.045.144.086.279.042.135.095.309.054.173.102.333l.092.308q.045.148.085.284.04.135.077.259.036.125.075.256t.079.269q.041.137.084.282.042.144.087.296.045.151.088.294l.082.279q.041.135.079.263t.073.249l.079.266q.042.145.091.316.049.17.098.337.048.167.095.332.047.164.087.305.04.14.074.258.034.117.068.238l.071.245.073.254.075.261q.038.133.078.269l.079.277q.041.14.082.285.042.144.084.293.043.148.086.301.044.152.088.309.045.156.091.317.045.161.092.326.046.164.094.333.047.169.096.342.049.173.097.344.048.171.096.34l.095.337q.047.168.094.334.047.165.094.329t.093.326q.046.162.092.323.046.16.091.319.046.158.09.315.045.157.089.313t.087.31q.044.154.086.307.043.153.085.304.042.151.083.301.042.15.082.298.041.149.081.296t.08.293.08.293q.04.145.08.291l.08.29q.04.145.079.289.04.145.08.288.04.144.08.287.04.144.08.286.04.143.078.28.038.136.074.266.037.13.071.253.035.124.067.241.033.118.064.228.031.111.06.216.029.104.063.225.034.121.072.259.038.138.081.291.042.153.089.322.046.169.091.331l.086.316q.042.154.079.292l.071.258.067.246q.035.126.071.257.037.13.065.231.029.102.06.21.032.109.066.234.034.126.061.227.028.102.059.221.032.119.064.241t.065.247q.032.125.066.252.033.128.066.258.034.131.069.268.035.138.071.283.036.146.073.298.038.153.077.313.038.16.078.33.039.169.08.349l.082.369.084.389.079.376q.037.176.069.33l.063.311q.031.157.063.318.031.161.053.278.022.117.041.226l.048.273q.029.166.053.309.025.143.044.258.02.116.043.251.023.136.043.262.02.125.038.241.018.116.036.245t.037.272q.018.143.028.22.01.076.011.091.001.014.015.138.014.124.028.245.014.12.033.279.019.159.036.314.016.155.031.307.016.152.029.3.013.148.025.292.012.144.022.277l.019.252.017.227q.007.108.014.203.006.095.014.215t.018.264q.01.144.022.313l.026.361q.014.192.028.365.013.174.025.327.012.154.026.318l.029.337q.015.173.032.324.017.152.035.281.019.13.037.245.018.116.035.216.018.101.038.21.021.108.044.224l.044.211.046.21q.026.114.046.195.019.081.048.173.028.093.071.223.044.13.086.247.042.116.082.219t.087.215q.047.111.1.231.053.12.097.216.043.095.095.203.051.108.077.158.026.05.073.142.046.092.103.204.057.113.104.204.047.091.103.197.055.106.12.228.065.122.139.259l.363.639"/>
    <path fill="none" stroke="#381d1d" stroke-width="1.2" d="m-277.489 454.039-.017.375q-.013.286-.025.536-.013.251-.03.553-.017.303-.033.553-.017.25-.042.553-.025.303-.051.561-.026.258-.065.56-.039.302-.094.637-.055.336-.119.627-.063.29-.113.494-.05.203-.108.419-.057.215-.108.403-.05.187-.115.428l-.124.46-.121.449-.127.469q-.066.24-.13.499t-.126.536q-.063.278-.109.507-.046.228-.076.406-.03.178-.058.428-.028.251-.053.573-.026.323-.039.586-.013.263-.013.466-.001.204.016.459.018.256.053.563.036.308.077.568.042.261.09.474.047.213.12.464t.171.54q.098.288.2.552.102.264.207.504.105.241.201.447.095.206.223.464.128.259.217.418.089.16.192.341.103.182.25.438.146.256.302.533.157.276.323.573.167.296.326.598.158.303.309.611t.272.572q.121.264.212.484.092.22.187.492.095.271.167.487.072.217.153.469.081.251.153.494t.135.477q.063.234.116.459.054.225.099.441.044.216.087.451.042.236.082.491t.078.529q.037.275.073.569l.044.501"/>
    <path fill="none" stroke="#381d1d" stroke-width="1.41" d="M-277.486 472.347q-.015.096-.061.679-.046.583-.099 1.06-.054.477-.114.877-.061.4-.221 1.409-.161 1.01-.262 1.446-.1.437-.159.654-.059.218-.222.908-.162.691-.297 1.289-.134.598-.312 1.315-.179.717-.291 1.194-.112.477-.187.877t-.211 1.17q-.135.769-.221 1.562-.086.792-.103 1.84-.018 1.048.053 1.844.07.796.135 1.16.066.365.11.578.044.213.203.723.159.51.303.873t.464.946q.32.583.592.983.271.4.406.569.135.169.253.298.117.128.336.348.22.22.517.506.297.286.663.593.366.306 1.307 1.039.941.733 1.331.993.39.259.899.616.508.356 1.028.713.519.358 1.048.708l.84.554q.311.204.845.587.535.384.765.556.23.172.497.353t.367.25q.1.069.344.261.243.192.426.345.183.152.385.331.201.18.456.408.254.228.469.42.214.193.42.395t.639.663q.433.462.657.716l.427.484q.203.231.589.718.386.487.609.787.222.3.358.478.135.177.703 1.025.567.848.995 1.57.429.723.618 1.084.19.36.267.508.077.148.307.621.23.473.353.752.124.278.177.406.053.129.175.445M-257.751 516.072q-.035.284-.108 1.568-.073 1.285-.075 1.996-.002.712.077 1.677.079.965.134 1.328.054.363.249 1.129.195.767.6 1.692.405.926.591 1.241.186.316.382.568.197.253.503.595.306.342.641.659t.555.476q.221.159.475.335.253.177.659.447t1.034.632q.628.361.943.541.316.181.494.29.179.108.573.342.394.234.617.371.223.138.892.638.669.501.717.534.049.033.233.189.184.155.66.613.475.458.682.666.207.207.246.251.039.045.313.345.274.301.854.888M-244.681 536.272q.066.045.227.189.161.144.291.253.13.109.598.48.468.37.943.741.476.37.817.616.341.246.705.464.363.218.746.442.384.224.639.362.254.137.694.322.44.185.786.312.345.126.53.202.185.076.505.178t.739.191q.419.088.809.152.391.064.863.145.472.081.758.115.285.034.726.028.441-.006.648-.023.207-.018.392-.028.185-.01.409-.031.223-.021.401-.049.178-.029.44-.089t.669-.161q.406-.102.684-.176.279-.074.506-.145.226-.072.595-.205t.598-.217q.229-.084.498-.175.269-.092.424-.152.155-.061.992-.361"/>
    <path fill="none" stroke="#381d1d" stroke-width="1.41" d="M-226.123 539.699q.605-.058.892-.075.288-.018.663-.055.376-.038.667-.069.291-.031.409-.04.118-.01.365-.037.248-.028.442-.055t.486-.085q.292-.058.674-.141.383-.082.472-.102.089-.019.576-.177t.842-.295q.354-.138.63-.276.276-.139.49-.253.214-.115.41-.227.196-.113.519-.345.324-.232.483-.357.16-.125.222-.171.062-.046.515-.503.452-.457.732-.811.279-.354.479-.65.2-.297.298-.462.098-.165.277-.516.179-.351.233-.46.054-.109.217-.489.162-.38.359-.977.196-.597.288-.922.092-.325.11-.388.018-.062.07-.28.053-.218.152-.679.098-.462.152-.761.054-.3.107-.646.054-.346.126-.839.072-.492.116-.815.044-.322.069-.551.025-.229.037-.425.013-.196.016-.37.004-.173.018-.444.015-.27.019-.537.005-.267.004-.62 0-.353-.013-.703-.014-.351-.041-.699-.026-.348-.041-.543-.015-.193-.02-.253-.005-.06-.042-.324-.037-.264-.123-.741t-.126-.676q-.04-.199-.094-.374-.055-.174-.102-.305-.047-.131-.112-.316-.065-.186-.15-.42-.084-.235-.161-.415-.078-.18-.187-.382-.109-.201-.231-.444-.122-.243-.186-.365-.064-.123-.132-.236-.068-.114-.153-.239-.086-.125-.287-.423-.201-.298-.319-.467-.118-.17-.209-.287-.091-.118-.358-.443-.267-.324-.429-.518-.162-.194-.388-.478t-.354-.443q-.128-.159-.375-.47-.247-.31-.652-.822"/>
    <path fill="none" stroke="#381d1d" stroke-width=".968" d="m-247.002 411.934-.018.528q-.008.264-.015.461-.006.196-.013.412-.007.216-.015.489-.009.272-.018.597-.009.325-.017.606l-.012.479q-.006.198-.011.409-.005.21-.01.409-.004.2-.011.484-.006.285-.013.628-.006.343-.012.651-.005.308-.01.582-.004.274-.007.529-.004.256-.006.443-.003.187-.005.39-.003.203-.005.424-.003.22-.006.456-.002.237-.005.49-.003.254-.005.524l-.006.531q-.003.261-.005.514l-.006.497q-.002.245-.005.481-.002.235-.005.463-.002.227-.005.446-.002.218-.005.429-.002.21-.005.412-.002.201-.005.396t-.005.383l-.006.37q-.004.182-.008.444-.005.262-.013.585-.007.323-.016.619-.008.296-.016.553-.007.257-.014.475-.008.219-.014.398l-.015.391q-.009.211-.02.477-.011.266-.021.515-.011.25-.022.485-.011.234-.02.407-.008.172-.018.36l-.019.355-.021.386q-.012.218-.024.425-.013.207-.021.348-.009.141-.013.216-.004.074-.018.263-.013.189-.026.359-.012.17-.028.385-.016.214-.033.431-.017.216-.034.435-.018.219-.037.44t-.039.444q-.02.223-.038.421l-.044.457q-.026.258-.054.501t-.059.507q-.031.264-.065.549-.033.285-.067.552-.034.267-.068.517-.034.249-.068.495t-.067.488q-.034.243-.07.505l-.077.546q-.04.283-.07.49-.031.207-.052.339-.021.132-.047.303-.027.171-.059.38-.033.209-.077.476-.045.267-.104.589-.058.322-.124.641-.065.318-.14.631-.075.313-.128.504-.053.192-.09.307-.038.116-.116.348-.078.232-.168.476-.089.244-.216.576"/>
    <path fill="none" stroke="#381d1d" stroke-width=".5" d="M-249.409 447.701q.415.473.478.624.064.152.089.457.026.306-.027.549-.053.243-.08.314-.027.071-.076.169-.05.097-.132.244t-.173.278q-.091.13-.241.299-.15.17-.341.331-.191.161-.367.282-.176.12-.395.247-.22.127-.372.202-.152.075-.383.174-.232.099-.397.163-.165.063-.34.123-.176.061-.331.111-.155.05-.357.11-.202.061-.505.141-.304.08-.515.133-.212.054-.335.081-.123.027-.329.063-.205.037-.379.067-.173.03-.384.066-.21.035-.424.068-.213.034-.43.064-.217.031-.409.056-.192.024-.444.053-.252.029-.502.053-.25.025-.526.048-.276.024-.578.046-.302.023-.63.045-.329.022-.657.04-.328.017-.656.032-.328.014-.655.024-.328.011-.655.017-.327.007-.653.01-.325.003-.649.002-.324 0-.647-.005-.322-.004-.642-.011-.321-.008-.617-.017-.296-.01-.568-.02-.272-.011-.519-.023-.247-.013-.498-.028-.251-.016-.429-.028t-.367-.025q-.189-.014-.361-.028-.172-.013-.327-.027-.155-.013-.321-.028l-.345-.033q-.179-.018-.344-.035-.164-.017-.391-.041t-.444-.048q-.218-.024-.45-.05-.233-.026-.481-.054-.248-.028-.512-.059"/>
    <path fill="none" stroke="#381d1d" stroke-width=".5" d="m-272.539 450.43.461.077q.222.037.425.07.202.034.387.064.184.03.432.07.248.04.505.081.257.04.462.071.205.03.36.053.155.022.329.046.174.024.343.046.17.022.418.053.248.031.504.059.256.028.429.046l.349.034q.176.017.348.032t.423.035q.251.021.57.041.318.021.64.037.321.016.565.024.245.008.419.012t.359.006q.186.003.383.004.197.002.405.001.209 0 .398-.001.19-.001.445-.004.256-.003.521-.012.265-.008.519-.022.254-.013.443-.025.188-.011.394-.025.207-.014.4-.028l.373-.029q.18-.015.346-.03.166-.016.395-.039t.517-.057q.288-.033.559-.068.27-.034.507-.068l.405-.058q.169-.024.348-.048.18-.024.343-.045.164-.021.386-.046.222-.026.458-.053.235-.027.45-.049.215-.022.508-.051.294-.03.567-.066.273-.037.519-.082.245-.046.563-.128.318-.082.587-.17.27-.089.582-.219.312-.131.529-.242.217-.111.371-.199.154-.088.316-.191.163-.102.356-.238.192-.136.421-.316M-249.921 451.119q-.047.142-.089.33-.042.188-.071.422-.03.234-.04.382-.011.149-.01.22.002.072.008.184t.019.291q.013.179.025.3.012.121.027.213.014.093.032.312.018.22.03.317.013.096.02.228l.012.197q.005.065-.002.191-.006.126-.013.296-.008.17-.019.247-.01.077-.067.267-.057.191-.092.279-.035.089-.089.185-.054.097-.101.171-.046.074-.121.161-.074.087-.168.179-.095.092-.236.219-.14.126-.377.308-.236.182-.569.42M-253.393 458.232q-.238.06-.455.114-.216.054-.415.104-.2.051-.381.099-.182.049-.425.115-.244.067-.474.129-.229.063-.422.113-.193.05-.48.119-.288.069-.604.141-.316.071-.578.124-.261.054-.578.109-.317.056-.495.081-.178.024-.375.045-.198.021-.473.045-.275.024-.636.032-.361.009-.655.009-.295-.001-.648-.008-.352-.008-.674-.022-.323-.014-.613-.033-.291-.019-.547-.042-.257-.022-.588-.058-.332-.037-.688-.079-.355-.041-.748-.092-.392-.05-.812-.106l-.77-.101q-.35-.045-.744-.097-.394-.051-.814-.107-.42-.055-1.079-.143"/>
    <path fill="none" stroke="#381d1d" stroke-width=".5" d="M-249.842 455.045q.116.235.167.461.05.226.054.485.003.259-.03.525t-.081.488q-.048.221-.129.473-.08.253-.253.619t-.35.632q-.177.266-.258.37-.081.103-.313.35-.232.248-.375.378t-.483.388q-.339.258-.658.455t-.59.336q-.271.139-.512.246-.242.107-.544.228-.302.122-.627.235-.326.113-.674.217-.349.105-.731.205-.382.099-.798.194-.416.095-.832.18-.417.085-.73.141-.313.057-.602.105-.29.049-.568.093-.278.045-.483.077-.206.033-.432.068-.225.035-.471.073l-.512.079q-.267.04-.509.077l-.568.087-.665.102q-.338.051-.579.088-.241.037-.456.071-.216.033-.582.093-.367.06-.812.135-.445.076-.819.142-.374.066-.676.123-.302.057-.614.118-.312.062-.635.128-.322.066-.631.134-.309.067-.537.118-.229.051-.48.108t-.543.125q-.292.067-.625.146-.333.078-.708.167l-.789.19"/>
    <path fill="none" stroke="#381d1d" stroke-width=".5" d="M-249.722 457.642q.062.486.103.846.04.36.058.623.019.263.028.547.009.284.007.511-.003.228-.023.486-.019.259-.095.632-.075.373-.117.507-.043.133-.194.454-.152.321-.299.536-.148.215-.396.495-.143.134-.421.343-.279.209-.434.302-.154.093-.308.168-.154.076-.359.155-.206.079-.439.159-.232.081-.429.137-.198.056-.438.114t-.523.119q-.283.06-.609.122-.325.063-.632.118-.307.056-.595.104-.288.048-.557.089-.269.041-.519.075-.251.034-.5.069l-.499.068-.497.068q-.249.034-.496.068-.248.034-.533.076-.284.042-.606.091-.321.049-.679.105-.358.057-.753.121t-.726.119q-.331.055-.598.1-.267.045-.471.081-.203.036-.412.076-.209.04-.446.087-.238.048-.435.089-.196.041-.473.105-.276.063-.63.148-.355.084-.624.151-.269.068-.545.142-.275.075-.65.187-.375.111-.774.243-.4.131-.677.231-.276.101-.518.195-.241.094-.534.213-.293.119-.51.21-.216.091-.326.141-.11.049-.252.117-.141.068-.346.168l-.469.229q-.263.129-.586.289"/>
    <path fill="none" stroke="#381d1d" stroke-width=".5" d="M-249.537 461.215q.146.585.191 1.013.044.429.034.731-.01.301-.03.542-.021.241-.063.516-.041.274-.161.664-.119.389-.199.563-.081.175-.181.34-.101.165-.362.474-.26.309-.42.441-.161.132-.379.274-.218.141-.423.244-.205.103-.465.202-.259.099-.496.17-.237.071-.461.128-.225.057-.447.099t-.517.089q-.294.047-.66.099-.367.052-.804.108-.438.057-.806.104l-.665.085q-.298.037-.526.065-.228.027-.465.054-.237.027-.556.067-.32.04-.641.085-.322.045-.617.091-.295.045-.562.091-.268.047-.561.104-.293.057-.611.125-.317.068-.64.144-.323.077-.651.163-.328.085-.618.167-.29.081-.541.158-.252.077-.452.14-.201.064-.35.114-.149.051-.331.116-.182.065-.398.144-.215.08-.435.165-.221.085-.446.176-.225.091-.422.173-.197.081-.366.154-.17.073-.451.201-.28.127-.575.264-.294.136-.536.252-.242.115-.53.255-.288.14-.622.303-.333.164-.713.352"/>
    <path fill="none" stroke="#381d1d" stroke-width=".5" d="M-249.528 464.749q.02.293.03.545.011.251.012.461 0 .21-.004.386-.005.177-.019.39-.015.214-.041.419-.026.205-.065.408-.04.203-.06.281-.02.079-.113.351-.093.272-.212.512t-.238.421q-.12.181-.289.372-.17.191-.349.345-.179.154-.31.242t-.259.156q-.128.068-.296.146-.169.078-.313.138-.145.061-.325.126-.181.066-.438.14-.257.073-.529.136-.272.064-.487.104-.216.04-.382.068-.167.027-.356.055-.19.028-.373.054-.182.025-.447.06-.264.034-.522.066t-.539.066q-.281.034-.585.069-.304.035-.631.072-.327.036-.607.068-.281.033-.632.075-.351.042-.635.081-.283.039-.517.074-.233.034-.51.08-.276.046-.551.099-.275.053-.534.11-.259.058-.595.138-.335.08-.558.136-.224.055-.336.087-.112.032-.321.1-.208.067-.514.17-.306.103-.61.216-.305.113-.608.236-.304.124-.566.237-.262.113-.483.217-.22.103-.464.225-.245.123-.512.264-.268.142-.45.24t-.278.153q-.097.056-.274.162-.178.107-.372.226-.194.118-.391.243-.196.125-.394.254-.198.128-.347.225l-.315.205q-.166.109-.348.228-.183.12-.382.252"/>
    <path fill="none" stroke="#381d1d" stroke-width=".5" d="M-249.755 468.064q.016.502.006.88-.009.377-.044.631-.034.253-.071.445-.036.191-.094.386-.057.194-.103.319-.045.125-.129.306-.083.182-.211.404-.129.223-.238.369-.109.146-.336.379-.227.233-.426.379-.199.147-.412.266-.213.118-.505.252-.292.134-.566.235-.273.1-.527.172-.255.072-.586.141-.331.07-.597.122-.266.052-.577.11-.311.059-.611.115l-.59.112q-.289.054-.569.106-.279.052-.55.101-.27.049-.519.096t-.591.115q-.342.068-.716.149-.373.081-.684.153-.311.073-.56.137-.249.064-.515.138-.267.075-.551.161-.284.086-.557.175-.273.089-.535.182-.261.093-.484.176-.222.083-.405.157-.183.074-.425.181-.242.106-.544.245-.301.139-.56.265-.259.127-.476.24-.217.114-.48.261-.262.148-.571.329-.308.181-.568.341-.26.16-.472.298-.212.138-.413.273-.201.136-.487.335-.285.199-.646.466-.36.266-1.117.838"/>
    <path fill="none" stroke="#381d1d" stroke-width=".5" d="M-250.053 470.981q.087.672.233.987.146.315.199.452.053.138.12.358.067.219.092.384.025.165.029.331.004.165-.005.232-.009.067-.045.205-.036.138-.083.24-.048.102-.11.2-.062.098-.175.229-.113.132-.251.249-.139.118-.258.193-.119.075-.311.164-.193.088-.506.208-.313.119-.649.209-.335.09-.592.148-.258.058-.547.115-.29.057-.564.109-.274.052-.532.099-.258.047-.501.09t-.583.102q-.34.058-.695.124-.355.066-.614.12-.259.053-.439.092-.181.039-.284.063-.103.024-.307.079-.205.055-.51.14-.306.085-.586.172-.28.087-.534.174-.255.088-.509.184t-.507.2q-.253.104-.463.196-.21.092-.461.211t-.541.273q-.29.155-.5.273-.211.119-.438.253t-.44.265q-.213.132-.412.26-.199.128-.429.284-.231.155-.494.338-.263.182-.511.359-.249.176-.484.347-.235.171-.471.343-.236.173-.473.347"/>
    <path fill="none" stroke="#381d1d" stroke-width="1.41" d="M-217.683 511.891q.021-.077.041-.214.021-.137.024-.344.004-.207-.017-.414t-.053-.358q-.032-.151-.069-.28-.036-.129-.09-.284-.053-.155-.145-.347-.091-.192-.219-.418M-218.222 509.197q-.112-.142-.129-.167-.017-.024-.11-.13-.092-.106-.278-.298-.187-.191-.368-.353-.181-.163-.35-.298-.17-.136-.348-.271-.178-.136-.319-.237-.14-.101-.302-.212-.162-.111-.316-.214-.154-.102-.372-.245-.217-.142-.456-.304-.238-.161-.431-.294-.193-.132-.405-.284-.213-.152-.443-.319-.229-.168-.47-.362-.24-.194-.567-.471"/>
    <path fill="none" stroke="#381d1d" stroke-width="1.41" d="M-223.695 504.915q-.04-.032-.123-.119-.084-.087-.101-.101-.016-.014-.086-.082-.07-.067-.199-.193l-.256-.25q-.127-.124-.252-.247-.126-.122-.232-.224-.107-.102-.237-.223-.13-.121-.198-.18-.068-.06-.315-.288-.248-.227-.367-.342-.12-.116-.249-.236-.128-.12-.262-.243t-.244-.227q-.109-.103-.24-.228t-.283-.272q-.151-.147-.324-.315-.172-.168-.332-.325-.159-.156-.305-.301t-.279-.278q-.133-.134-.313-.316-.179-.183-.386-.391-.206-.209-.38-.383-.174-.174-.35-.357t-.31-.328q-.133-.144-.238-.259-.104-.114-.224-.246l-.254-.282q-.135-.15-.285-.318l-.285-.319-.253-.285q-.118-.135-.221-.252-.103-.118-.234-.269-.131-.152-.259-.3-.127-.147-.25-.288-.122-.14-.212-.25-.09-.109-.233-.28-.142-.17-.256-.303-.114-.134-.246-.287-.132-.153-.238-.28-.106-.127-.226-.278-.119-.15-.209-.267-.09-.117-.126-.169-.037-.052-.244-.318-.208-.265-.341-.443-.133-.178-.312-.442-.18-.264-.292-.422-.112-.159-.215-.322-.104-.163-.237-.384-.133-.22-.256-.44-.124-.219-.238-.437-.114-.219-.197-.383-.084-.165-.136-.276-.053-.11-.136-.289l-.153-.33q-.07-.152-.154-.335-.085-.183-.16-.347-.075-.165-.173-.383-.099-.218-.192-.434-.092-.215-.167-.385-.075-.17-.132-.295-.056-.124-.159-.34-.102-.216-.251-.524-.148-.307-.263-.535-.115-.228-.239-.449-.123-.222-.218-.385l-.193-.333q-.099-.169-.196-.318-.098-.149-.182-.275-.084-.125-.188-.277-.104-.152-.206-.296-.103-.145-.256-.351-.153-.205-.2-.27-.047-.064-.132-.168-.085-.104-.223-.269-.138-.165-.266-.312-.128-.146-.247-.274-.118-.128-.183-.198t-.082-.087q-.017-.018-.131-.123-.113-.105-.215-.198-.102-.094-.229-.212t-.313-.286q-.186-.169-.43-.388t-.405-.363q-.16-.144-.275-.247-.114-.104-.314-.272-.199-.168-.403-.337-.204-.168-.47-.404-.266-.236-.42-.366-.154-.13-.281-.231-.126-.101-.271-.233-.144-.132-.255-.24-.112-.108-.386-.347-.274-.24-.989-.89-.068-.054-.336-.297t-.766-.688l-.399-.326"/>
    <path fill="none" stroke="#381d1d" stroke-width=".54" d="M-212.7 526.704q-.056-.009-.114-.015-.057-.007-.19-.028t-.249-.037q-.116-.016-.806-.036-.689-.019-.968.013t-.445.056q-.166.024-.399.076t-.382.095q-.148.042-.221.063-.072.02-.693.242-.621.221-.716.258-.096.037-.563.229-.467.192-.699.292-.231.1-.512.221-.28.121-.566.235-.286.114-.498.191-.213.078-.389.14-.177.061-.273.091-.097.03-.508.148-.411.118-.702.189-.291.07-.979.191-.688.12-.846.14-.159.02-.272.036-.114.016-.322.036-.208.02-.543.054-.336.033-.449.038-.114.005-.621.029-.508.024-.673.027-.165.004-.26.009-.095.006-.196.008-.101.003-.215.002-.114-.002-.297.001-.183.002-.272 0-.089-.003-.235-.003t-.399-.008q-.252-.008-.449-.015-.197-.007-.645-.037-.449-.03-.481-.033-.033-.003-.283-.014-.251-.012-.485-.027-.234-.015-.393-.028-.159-.014-.309-.024l-.395-.029q-.246-.018-.639-.045-.394-.027-1.005-.037-.61-.009-.913-.005-.303.004-.542.017-.239.013-.741.061-.502.049-.677.063-.175.014-.379.046-.204.033-.485.067-.282.035-.505.048-.222.012-.431.023t-.431.003q-.221-.007-.433-.027-.211-.02-.423-.035-.212-.015-.297-.02-.084-.004-.38-.041-.296-.037-.883-.115-.588-.078-.975-.13-.387-.052-.773-.08-.386-.028-.79-.039-.403-.011-.818-.018-.414-.008-1.05.046-.635.054-1.02.121-.384.068-.609.124-.224.055-.592.172-.368.117-.562.185-.193.068-.366.142-.173.073-.35.159-.177.087-.258.123-.082.036-.565.287l-.302.156"/>
    <path fill="none" stroke="#381d1d" stroke-width=".5" d="M-326.437 536.633q-.582.465-.88.66-.297.194-.488.299-.191.105-.359.184-.168.079-.315.141-.147.062-.434.174-.287.113-.312.122-.025.008-.359.107-.335.099-.511.14-.177.042-.509.099-.333.057-.406.068-.072.011-.19.031-.118.019-.246.034-.127.014-.259.022-.131.008-.435.033-.303.024-.56.036-.257.012-.489.015-.232.003-.421-.001-.189-.004-.328-.012-.138-.008-.308-.023-.17-.016-.417-.041-.247-.026-.412-.043-.165-.018-.288-.033-.123-.016-.312-.046-.189-.029-.387-.065-.197-.036-.465-.087t-.473-.092q-.205-.041-.418-.087-.213-.047-.338-.078-.125-.032-.295-.07-.17-.039-.372-.093-.202-.054-.376-.101-.173-.047-.386-.106-.213-.059-.382-.106t-.357-.1q-.189-.053-.304-.089-.115-.035-.224-.07t-.338-.099q-.229-.063-.614-.167-.385-.103-.7-.181-.314-.077-.678-.154-.364-.078-.649-.116-.284-.039-.505-.057-.222-.019-.449-.027-.228-.009-.536-.015-.307-.005-.552 0-.245.004-.519.027-.273.022-.532.065-.258.043-.456.082-.198.038-.421.085-.224.048-.421.091-.197.043-.453.101-.257.058-.613.149t-.699.172q-.342.081-.443.1-.102.02-.233.04t-.439.066q-.308.047-.463.065-.155.019-.36.031-.206.012-.573-.015t-.67-.085q-.304-.059-.508-.117-.205-.058-.412-.136-.207-.077-.354-.138-.146-.061-.276-.129-.13-.067-.366-.233t-.401-.302q-.165-.135-.353-.297-.187-.162-.337-.305-.15-.143-.325-.322-.175-.178-.305-.313-.129-.135-.255-.271t-.201-.221q-.076-.086-.171-.192-.096-.106-.227-.261-.131-.155-.416-.44-.285-.285-.57-.529-.285-.244-.57-.458-.286-.213-.409-.297-.122-.084-.323-.21-.201-.125-.411-.26-.209-.134-.5-.307-.29-.173-.358-.213-.067-.04-.215-.141-.148-.1-.399-.275-.25-.175-.433-.31-.183-.134-.356-.276-.173-.141-.367-.309l-.223-.193q-.029-.026-.274-.286-.245-.26-.271-.293-.026-.033-.172-.217-.146-.183-.298-.381t-.285-.394q-.132-.196-.295-.46-.163-.264-.261-.428-.098-.163-.148-.248-.05-.085-.166-.3-.116-.215-.194-.377-.079-.161-.137-.285-.058-.124-.322-.687"/>
    <path fill="none" stroke="#381d1d" stroke-width=".237" d="M-256.411 417.847q-.082.518-.151.962-.069.445-.127.816-.057.371-.102.668-.045.298-.094.634-.049.337-.115.816-.065.479-.13.989t-.117.944q-.051.433-.09.791-.038.358-.075.752-.038.395-.075.826-.037.431-.071.896-.034.465-.065.963-.031.499-.053.91-.022.411-.035.735-.014.324-.024.643-.011.319-.02.634-.008.314-.014.669-.007.354-.011.748-.005.394-.006.834-.002.439 0 .802.001.364.005.673.004.309.01.684.006.376.015.818.009.443.021.952l.022.936.02.774q.009.345.017.61.007.264.017.538.009.274.026.707.016.434.036.946.02.512.04 1.013l.04 1.004q.02.502.037.969.017.467.029.826.013.359.026.767.014.409.029.911.016.503.034 1.112.017.609.038 1.328.02.719.042 1.528"/>
    <path fill="none" stroke="#381d1d" stroke-width=".239" d="M-253.788 417.092q-.023.178-.06.452t-.082.61q-.046.337-.112.828-.066.491-.125.948-.06.456-.113.879-.053.423-.1.818-.047.396-.088.765-.042.369-.079.751-.038.382-.065.672-.027.29-.056.615-.03.325-.055.616t-.057.676q-.031.386-.057.764-.025.377-.044.679-.019.301-.032.527-.012.225-.025.507-.012.282-.022.507-.009.226-.02.489-.01.264-.018.566-.008.302-.013.538-.005.237-.011.508-.005.271-.01.578-.006.306-.011.647-.005.341-.011.717-.005.376-.01.787-.005.411-.01.783-.004.371-.008.703-.004.332-.007.625-.003.292-.006.672-.003.38-.004.728t.003.634q.003.286.008.608.006.322.012.586.006.263.016.597.011.334.026.742.016.407.033.768.017.36.03.623.014.263.03.551.016.287.037.636.022.348.05.771.028.424.064.945.036.52.084 1.17.047.649.096 1.306.048.656.096 1.293.048.637.093 1.224.044.587.083 1.099"/>
    <path fill="none" stroke="#381d1d" stroke-width=".24" d="m-262.143 418.911-.077.798q-.038.382-.071.732l-.065.668q-.03.318-.058.603l-.051.538q-.024.252-.055.583l-.058.64q-.028.311-.053.602-.026.291-.048.562-.023.272-.043.523-.02.252-.046.6t-.055.779q-.028.43-.051.826-.022.397-.038.705-.016.309-.025.529-.009.221-.017.548-.007.328-.013.6l-.011.597q-.006.326-.01.619-.004.292-.007.68-.003.388 0 .771t.009.742q.007.359.016.694.009.335.021.661.011.326.025.643.014.316.031.641t.032.574q.015.25.029.472l.034.498.044.608.054.719q.029.387.057.751.027.363.054.703.026.341.051.658.024.317.048.612l.046.592q.023.296.046.596.022.3.044.605t.044.619q.022.314.04.593.019.28.042.647.023.368.035.601.013.233.027.539.014.306.035.787.021.482.049 1.179.028.696.065 1.625l.048 1.44"/>
    <path fill="none" stroke="#381d1d" stroke-width=".241" d="M-270.864 419.189q.012.348.024.671l.023.62q.011.297.022.569.01.272.025.642.015.369.033.761.017.392.032.682.015.29.03.555.014.264.036.621.021.358.047.73.027.372.056.734.029.363.06.715.032.352.064.684.032.332.057.566.025.233.049.447.024.213.056.484t.072.599l.087.715q.047.386.093.75.045.364.088.707.043.343.084.664.04.321.079.621t.077.599q.038.299.075.598.038.299.075.598l.074.598q.037.298.075.621.039.324.08.671.041.348.084.721.043.373.088.77.045.398.084.746.04.348.073.647.034.299.061.549.028.25.06.551l.082.748q.049.447.103.943.054.496.099.894l.078.677q.032.278.066.57.034.292.067.572l.081.684q.049.405.093.762t.093.747q.049.39.121.956l.17 1.339q.099.772.222 1.741"/>
    <path fill="none" stroke="#381d1d" stroke-width=".239" d="M-249.808 415.665q.003.353.005.675.003.322.005.614.002.291.003.552.002.261.004.606t.002.683q.001.338 0 .661-.002.322-.006.726-.005.404-.012.781-.007.378-.014.67-.007.291-.013.497-.006.207-.017.482-.01.276-.024.621-.014.346-.035.777-.02.432-.047.951-.027.518-.048.932-.021.413-.038.721-.016.308-.032.641-.016.332-.029.588-.012.255-.026.545-.013.289-.026.563l-.029.662q-.017.388-.03.729-.014.341-.026.646-.011.305-.026.688-.014.382-.027.727t-.022.595q-.009.249-.019.518t-.019.518q-.01.25-.023.595t-.027.729q-.015.384-.028.69-.012.307-.027.652-.015.344-.037.819l-.045.969q-.022.494-.037.873-.015.38-.026.64-.01.261-.024.586l-.029.728q-.016.403-.034.79-.017.387-.033.684-.015.297-.036.631-.021.335-.044.634-.023.299-.061.693-.038.395-.07.642-.031.246-.073.534-.042.288-.093.595-.052.307-.095.546-.044.239-.097.513-.053.274-.115.582-.062.308-.133.652l-.259 1.236"/>
    <path fill="none" stroke="#381d1d" stroke-width=".237" d="M-325.212 421.038q-.012.289-.025.597-.013.309-.024.545-.01.236-.021.503-.012.266-.022.52-.011.253-.026.615-.014.361-.029.79-.016.43-.028.826-.012.396-.021.758-.009.362-.015.704-.007.343-.01.664-.004.322-.004.721 0 .399.003.876.003.476.01.925.007.449.018.872.012.423.026.823.014.4.026.683.012.284.024.521.012.238.028.524.016.286.036.621.02.335.044.718.024.384.048.751.025.368.051.72.025.353.051.69.027.336.054.658t.052.602q.025.281.058.639.033.359.066.668.033.309.07.625.036.316.077.644t.088.676q.047.347.1.722.054.375.126.843.073.467.137.868.064.402.146.904.082.503.167 1.017.085.514.171 1.025l.169 1.007q.084.495.163.959"/>
    <path fill="none" stroke="#381d1d" stroke-width=".239" d="M-322.13 421.118q-.016.283-.03.551-.014.269-.028.523-.013.254-.026.495l-.029.58-.037.735q-.019.397-.034.737-.015.34-.028.652-.013.313-.024.599-.011.285-.02.543-.009.258-.019.605-.01.346-.019.754-.009.409-.013.765-.004.356-.005.689-.001.334 0 .645.002.312.008.645.005.333.014.687.009.355.022.706t.03.697q.017.347.039.688.023.341.041.596.019.254.041.536.022.281.056.639.034.359.069.686.034.327.06.564l.056.494q.029.257.061.533.033.276.068.572.035.296.068.568.033.273.08.649.046.375.098.785.052.409.095.729.043.319.077.546.033.227.075.498.041.271.091.593.05.322.109.707.06.384.115.731.054.347.094.6.039.253.082.527l.09.574.098.626q.052.325.107.677.055.351.115.73.06.378.124.775l.129.814"/>
    <path fill="none" stroke="#381d1d" stroke-width=".238" d="M-315.109 420.367q-.08.588-.148 1.085-.068.496-.125.901l-.107.771-.097.695q-.045.329-.084.621-.04.291-.072.544-.033.252-.07.55-.037.298-.079.64-.041.343-.08.692-.039.35-.077.706-.037.356-.069.687-.032.331-.058.637-.026.305-.048.594-.022.289-.04.562-.018.272-.035.578-.018.306-.035.646-.016.34-.03.653-.013.313-.022.6-.01.286-.015.604-.005.317-.005.665 0 .348.004.687.005.339.013.669.009.33.021.651.012.322.027.634t.034.642q.019.33.041.679.023.348.044.659.02.31.039.582.019.272.038.567.02.295.041.616.021.32.043.677.023.356.048.758l.054.868q.029.465.065 1.019.036.554.081 1.207.046.653.104 1.422.058.77.129 1.647.071.877.149 1.816"/>
    <path fill="none" stroke="#381d1d" stroke-width=".24" d="M-311.348 419.682q-.04.17-.09.388-.05.219-.111.485l-.131.582q-.071.315-.152.678l-.148.671q-.068.307-.122.559-.054.252-.102.483-.049.231-.091.441-.041.21-.092.479-.05.269-.108.596-.059.327-.107.611-.048.283-.104.642-.056.358-.102.69-.046.331-.079.584-.033.252-.069.536-.036.283-.071.578-.035.294-.068.6t-.064.623q-.032.318-.062.647l-.055.604q-.024.275-.052.605-.028.33-.05.656-.022.326-.048.793-.026.467-.041.813-.015.346-.026.675-.011.328-.022.754-.012.426-.019.826-.006.4-.009.774-.002.374-.002.714 0 .34.002.646.002.307.007.644.004.337.012.713.007.375.019.784.012.408.029.866t.042.983q.026.526.06 1.143.035.616.081 1.342.046.726.102 1.564.057.839.111 1.628.055.789.102 1.475"/>
    <path fill="none" stroke="#381d1d" stroke-width=".239" d="M-307.118 418.157q-.139.504-.253.919-.114.415-.203.741l-.152.563q-.064.236-.123.457-.058.221-.154.602-.096.38-.21.846-.114.466-.207.859-.092.393-.163.712-.07.32-.14.654-.07.333-.139.682-.068.348-.132.69-.063.342-.121.677-.059.335-.115.681-.056.346-.109.703-.054.357-.104.71-.05.353-.095.703-.046.35-.086.687-.039.337-.067.586-.029.25-.059.524-.03.274-.057.538-.028.264-.054.517-.025.254-.048.497t-.044.475q-.021.233-.044.511-.024.278-.049.602-.025.325-.052.695-.027.369-.057.785-.029.416-.053.774-.025.359-.045.66-.019.301-.034.545-.015.243-.025.43-.01.186-.021.412-.011.226-.022.492-.012.265-.024.57-.013.306-.025.652-.013.346-.023.682-.01.337-.018.664-.007.328-.011.648-.004.321-.004.637t.005.664q.006.349.02.737.013.388.04.823.027.435.072.924.046.49.101.928.054.438.109.809.055.372.102.666.047.295.082.507"/>
    <path fill="none" stroke="#381d1d" stroke-width=".244" d="M-313.064 457.168q.033.306.066.63t.056.578q.023.253.036.426.013.172.024.348.011.176.02.355.009.179.016.362.007.183.011.348.005.165.009.386.004.221.001.447-.002.226-.008.444-.005.218-.014.428-.009.21-.02.43-.012.22-.026.449-.014.229-.031.469-.017.241-.031.423-.013.183-.029.389-.015.206-.029.393-.014.188-.026.358-.011.169-.022.321-.01.151-.023.352-.012.2-.026.45-.013.251-.02.425-.008.175-.013.357-.005.183-.011.43-.006.248-.012.562-.007.313-.013.692"/>
    <path fill="none" stroke="#381d1d" stroke-width=".254" d="M-315.59 457.388q.04.322.071.59.032.268.056.479.023.212.043.467.019.256.033.455.013.199.026.427.013.228.022.425.009.197.014.363.006.167.008.305.002.137-.001.301-.002.164-.012.37-.011.206-.02.357-.01.151-.023.316-.012.166-.024.313-.013.147-.031.341-.018.195-.041.383-.023.188-.044.344-.02.156-.038.28-.018.124-.041.275-.022.151-.05.329-.028.178-.06.374-.031.195-.066.407-.034.212-.064.395-.03.183-.055.337-.025.155-.053.341-.029.186-.051.334-.022.148-.047.32-.026.171-.054.364-.027.193-.058.408l-.063.451-.067.495"/>
    <path fill="none" stroke="#381d1d" stroke-width=".248" d="M-318.609 457.441q.111 1.413.128 1.721.017.308.029.778.012.47.001 1.029-.011.559-.029.883-.017.324-.096 1.213-.079.888-.118 1.272-.039.385-.06.602-.021.218-.042.444t-.048.541q-.027.314-.104 1.268"/>
    <path fill="none" stroke="#381d1d" stroke-width=".238" d="M-318.794 420.926q-.037.282-.07.532-.032.25-.061.466-.029.215-.054.397-.025.181-.046.331-.021.15-.038.27-.017.12-.037.256-.019.135-.033.239-.014.104-.04.308-.026.204-.047.373-.022.169-.047.37-.025.202-.049.412-.025.21-.049.43t-.047.449q-.023.229-.046.468-.023.239-.042.448-.019.208-.035.387-.015.179-.027.329-.012.149-.025.328-.012.179-.024.381t-.02.344q-.007.143-.015.293t-.014.292q-.007.142-.015.342-.009.201-.014.377-.006.176-.009.327-.003.15-.005.335-.002.184-.004.402-.002.218-.003.469t-.001.488q.001.237.003.46.002.224.006.433t.009.404q.006.195.012.379t.012.356l.013.315q.006.142.015.31.008.168.018.328.01.16.018.283l.017.26.021.293q.01.154.023.324.012.17.026.356.013.186.028.388.015.202.03.392l.027.365.027.341.025.315.023.289q.011.139.027.328t.034.39l.036.382q.017.182.03.313l.027.273.029.296.033.319q.017.166.036.345.019.179.04.372l.042.386.044.384.046.385q.023.193.047.386t.05.387q.025.194.051.388.026.195.053.39l.054.391q.028.196.061.419l.061.411q.028.188.049.322.02.133.042.275.021.142.045.292.023.149.048.307t.051.325q.026.167.054.343.028.175.058.36.03.184.061.377.031.194.064.394l.067.409q.033.208.069.423.035.215.072.438"/>
    <path fill="none" stroke="#381d1d" stroke-width=".5" d="M-341.143 416.938q.119-.034.272-.078.153-.045.293-.087.139-.042.238-.071.099-.029.204-.06.105-.03.197-.058.093-.027.214-.064.12-.036.302-.094.182-.057.345-.11.163-.053.307-.101l.272-.092.292-.099q.165-.057.341-.116.176-.059.31-.101.133-.043.274-.087.142-.044.25-.078.108-.033.23-.071l.234-.073q.112-.035.214-.066l.19-.059q.087-.027.195-.06.108-.033.26-.08.151-.046.322-.097.171-.051.314-.092.142-.042.242-.07.1-.029.205-.059.105-.03.215-.061.11-.03.224-.062l.23-.064q.114-.031.229-.063l.23-.062q.115-.031.23-.061.115-.031.23-.061l.23-.06q.115-.029.23-.059.116-.029.231-.058l.226-.057q.11-.027.214-.053.105-.026.205-.05.099-.025.24-.059.142-.034.309-.073.167-.04.312-.072.146-.033.312-.07.165-.036.35-.075.184-.039.338-.071.153-.032.26-.054l.219-.045q.112-.023.217-.044.106-.021.255-.051.15-.03.324-.064.174-.034.324-.062.15-.028.275-.051.126-.022.266-.046.14-.023.295-.048.156-.024.326-.049l.356-.052.351-.049q.164-.023.309-.042.144-.019.268-.035.123-.016.278-.035.155-.018.332-.04.177-.021.325-.039.148-.018.317-.035.169-.017.36-.034.19-.016.367-.03.177-.014.34-.024.163-.011.345-.02.181-.01.322-.016.14-.007.3-.014l.3-.013q.14-.006.318-.012t.332-.009q.154-.003.363-.002t.38.003q.171.002.373.005.202.003.395.007.193.003.378.007t.361.009q.176.005.344.01.168.005.32.011.153.005.308.011l.26.01q.105.004.212.01.108.005.217.011.109.006.22.013l.224.016q.112.009.227.019.114.009.22.018.105.01.25.022l.281.025q.137.013.28.026.144.013.271.025.126.012.291.028.165.016.319.032.153.017.307.036.155.02.312.041.157.022.29.042.133.019.215.031.081.013.181.028.099.015.244.038l.287.044q.142.022.248.039.106.016.223.034.117.018.23.036t.222.035q.108.017.212.034.105.017.254.042.15.024.332.055.182.031.347.061.165.029.308.055.144.025.328.059.184.033.344.063.161.031.334.069.173.038.306.069l.284.066q.151.036.303.071.151.036.304.071.153.035.307.07.153.035.308.069.155.035.294.066.139.031.323.073.184.041.365.083t.321.074l.241.053q.1.021.223.043.122.023.267.048.146.024.292.049.147.024.294.049.148.025.276.044.127.019.286.039.16.021.298.038.138.018.195.028.056.01.14.02.083.011.214.026.13.014.221.025.092.01.168.018.075.007.302.034.227.027.619.076M-286.784 414.44q.057-.002.139-.01.082-.008.119-.013.037-.005.134-.013.098-.009.225-.02.126-.012.233-.022.106-.009.233-.022.127-.012.274-.028.147-.016.313-.037.166-.021.311-.041.144-.02.267-.038.124-.017.227-.032l.23-.033q.126-.017.27-.034.145-.017.247-.028.103-.011.211-.021.109-.011.202-.02.094-.01.211-.021.118-.011.214-.019t.231-.02q.135-.011.245-.021l.243-.022.253-.023.233-.021q.112-.009.214-.018l.194-.017q.093-.007.217-.017.124-.01.28-.022.155-.011.296-.022.141-.01.243-.018.102-.007.212-.015.109-.008.215-.016.106-.007.258-.018.152-.011.339-.024l.356-.025q.169-.012.323-.022l.292-.019q.139-.008.264-.015.125-.007.236-.012.111-.006.208-.009.097-.004.207-.007.109-.004.231-.008.121-.003.255-.007.134-.003.281-.007.146-.003.282-.007.137-.003.263-.006.127-.003.243-.006.117-.003.223-.006.107-.003.224-.005t.244-.003q.128-.001.266-.001.138-.001.287-.001.149.001.277.001h.288q.16.001.291.001h.283q.153-.001.273-.001.12 0 .259-.001h.597q.16 0 .33.001.17 0 .351.001l.341.002q.16.001.3.001h.258q.119.001.266 0 .147 0 .296-.001.149-.002.251-.004.102-.003.247-.006l.335-.009q.189-.004.342-.008.152-.004.257-.006.106-.003.215-.005.108-.003.233-.007t.265-.01q.141-.006.297-.013.157-.008.329-.017.172-.009.333-.018.161-.008.31-.017.149-.009.287-.017.138-.009.265-.017.126-.008.244-.016.118-.009.228-.017.109-.009.211-.018.101-.008.24-.022.139-.013.336-.034.196-.021.351-.039.155-.018.275-.033l.255-.03q.136-.017.288-.035l.319-.04q.168-.021.316-.039.147-.018.274-.034.127-.016.233-.03.106-.013.234-.03l.274-.034q.145-.018.265-.032.12-.014.242-.029.122-.014.247-.03.124-.015.257-.032l.235-.03q.102-.014.216-.029.115-.015.228-.029.112-.014.223-.027.11-.014.218-.026.108-.013.214-.025.106-.011.22-.025.115-.013.238-.028.123-.014.255-.031.132-.016.273-.034l.265-.034q.125-.016.234-.029l.204-.026.211-.027q.118-.015.269-.033.151-.019.297-.036.145-.016.241-.027t.143-.017q.046-.005.129-.015l.202-.027q.119-.017.248-.034.129-.018.228-.032.099-.013.211-.029.112-.015.214-.029.102-.013.241-.032.139-.018.286-.035.146-.018.286-.036.14-.018.273-.036.132-.018.234-.033.103-.015.174-.028.072-.012.218-.03.147-.018.276-.033.129-.015.289-.034.16-.018.302-.033.143-.016.268-.029.125-.012.233-.022.107-.01.197-.017.09-.007.2-.014.11-.007.24-.014t.28-.014l.321-.013q.17-.007.31-.013.141-.005.251-.008.11-.004.19-.006.079-.001.153-.001.074.001.185.001h.237q.125-.001.236-.001.111-.001.257-.001.146-.001.33.009.185.009.375.011t.288.004q.099.002.219.006.12.005.324.004.205 0 .411.001l.407.014"/>
  </g>
</svg>
